#VRML V2.0 utf8
# 3D model generated by easyeda2kicad.py (https://github.com/uPesy/easyeda2kicad.py)

Shape{
    appearance Appearance {
        material  Material 	{
            diffuseColor 0.7686274509803922 0.7686274509803922 0.7686274509803922
            specularColor 0.615686274509804 0.615686274509804 0.615686274509804
            ambientIntensity 0.7686
            transparency 0.0
            shininess 0.5
        }
    }
    geometry IndexedFaceSet {
        ccw TRUE
        solid FALSE
        coord DEF co Coordinate {
            point [
                0.7087 0.1575 0.4724, 0.7087 0.4331 0.4724, 0.6969 0.1575 0.4724, 0.6969 0.4331 0.4724, 0.7138 0.1575 0.4718, 0.7138 0.4331 0.4718, 0.7185 0.1575 0.4698, 0.7185 0.4331 0.4698, 0.7226 0.1575 0.4667, 0.7226 0.4331 0.4667, 0.7257 0.1575 0.4626, 0.7257 0.4331 0.4626, 0.7277 0.1575 0.4579, 0.7277 0.4331 0.4579, 0.7283 0.1575 0.4528, 0.7283 0.4331 0.4528, 0.6969 -0.1575 0.4724, 0.6969 -0.4331 0.4724, 0.7087 -0.1575 0.4724, 0.7087 -0.4331 0.4724, 0.7283 -0.1575 0.4528, 0.7283 -0.4331 0.4528, 0.7283 -0.1575 0.4449, 0.7283 -0.4331 0.0394, 0.7283 0.1575 0.4449, 0.7283 0.4331 0.0394, 0.7274 -0.4331 0.0306, 0.7274 0.4331 0.0306, 0.7244 -0.4331 0.0223, 0.7244 0.4331 0.0223, 0.7198 -0.4331 0.0148, 0.7198 0.4331 0.0148, 0.7135 -0.4331 0.0086, 0.7135 0.4331 0.0086, 0.7061 -0.4331 0.0039, 0.7061 0.4331 0.0039, 0.6977 -0.4331 0.001, 0.6977 0.4331 0.001, 0.689 -0.4331 0.0, 0.689 0.4331 0.0, 0.2953 0.4331 0.0, 0.2953 -0.4331 0.0, 0.2953 0.4331 0.0394, 0.2953 -0.4331 0.0394, 0.6772 0.4331 0.0394, 0.6772 -0.4331 0.0394, 0.6815 0.4331 0.0399, 0.6815 -0.4331 0.0399, 0.6857 0.4331 0.0413, 0.6857 -0.4331 0.0413, 0.6894 0.4331 0.0437, 0.6894 -0.4331 0.0437, 0.6926 0.4331 0.0468, 0.6926 -0.4331 0.0468, 0.6949 0.4331 0.0505, 0.6949 -0.4331 0.0505, 0.6964 0.4331 0.0547, 0.6964 -0.4331 0.0547, 0.6969 0.4331 0.0591, 0.6969 -0.4331 0.0591, 0.6969 0.1575 0.4449, 0.6969 -0.1575 0.4449, 0.7257 -0.4331 0.4626, 0.7226 -0.4331 0.4667, 0.7185 -0.4331 0.4698, 0.7277 -0.4331 0.4579, 0.7138 -0.4331 0.4718, 0.7138 -0.1575 0.4718, 0.7185 -0.1575 0.4698, 0.7226 -0.1575 0.4667, 0.7257 -0.1575 0.4626, 0.7277 -0.1575 0.4579, -0.6969 0.1575 0.4724, -0.6969 0.4331 0.4724, -0.7087 0.1575 0.4724, -0.7087 0.4331 0.4724, -0.7283 0.4331 0.4528, -0.7283 0.1575 0.4528, -0.7277 0.1575 0.4579, -0.7277 0.4331 0.4579, -0.7257 0.1575 0.4626, -0.7257 0.4331 0.4626, -0.7226 0.1575 0.4667, -0.7226 0.4331 0.4667, -0.7185 0.1575 0.4698, -0.7185 0.4331 0.4698, -0.7138 0.1575 0.4718, -0.7138 0.4331 0.4718, -0.6969 0.4331 0.0591, -0.6969 -0.4331 0.0591, -0.6964 0.4331 0.0547, -0.6964 -0.4331 0.0547, -0.6949 0.4331 0.0505, -0.6949 -0.4331 0.0505, -0.6926 0.4331 0.0468, -0.6926 -0.4331 0.0468, -0.6894 0.4331 0.0437, -0.6894 -0.4331 0.0437, -0.6857 0.4331 0.0413, -0.6857 -0.4331 0.0413, -0.6815 0.4331 0.0399, -0.6815 -0.4331 0.0399, -0.6772 0.4331 0.0394, -0.6772 -0.4331 0.0394, -0.2953 0.4331 0.0394, -0.2953 -0.4331 0.0394, -0.2953 0.4331 0.0, -0.2953 -0.4331 0.0, -0.689 0.4331 0.0, -0.689 -0.4331 0.0, -0.6977 -0.4331 0.001, -0.6977 0.4331 0.001, -0.7061 -0.4331 0.0039, -0.7061 0.4331 0.0039, -0.7135 -0.4331 0.0086, -0.7135 0.4331 0.0086, -0.7198 -0.4331 0.0148, -0.7198 0.4331 0.0148, -0.7244 -0.4331 0.0223, -0.7244 0.4331 0.0223, -0.7274 -0.4331 0.0306, -0.7274 0.4331 0.0306, -0.7283 -0.4331 0.0394, -0.7283 0.4331 0.0394, -0.7283 0.1575 0.4449, -0.7283 -0.1575 0.4449, -0.7283 -0.1575 0.4528, -0.7283 -0.4331 0.4528, -0.7087 -0.1575 0.4724, -0.7087 -0.4331 0.4724, -0.6969 -0.1575 0.4724, -0.6969 -0.4331 0.4724, -0.6969 -0.1575 0.4449, -0.6969 0.1575 0.4449, -0.7185 -0.4331 0.4698, -0.7226 -0.4331 0.4667, -0.7138 -0.4331 0.4718, -0.7257 -0.4331 0.4626, -0.7277 -0.4331 0.4579, -0.7277 -0.1575 0.4579, -0.7257 -0.1575 0.4626, -0.7226 -0.1575 0.4667, -0.7185 -0.1575 0.4698, -0.7138 -0.1575 0.4718
            ]
        }
        coordIndex [
            0,1,2,-1,2,1,3,-1,1,0,4,-1,1,4,5,-1,5,4,6,-1,5,6,7,-1,7,6,8,-1,7,8,9,-1,9,8,10,-1,9,10,11,-1,11,10,12,-1,11,12,13,-1,13,12,14,-1,13,14,15,-1,16,17,18,-1,18,17,19,-1,20,21,22,-1,22,21,23,-1,22,23,24,-1,24,23,25,-1,24,25,14,-1,14,25,15,-1,25,23,26,-1,25,26,27,-1,27,26,28,-1,27,28,29,-1,29,28,30,-1,29,30,31,-1,31,30,32,-1,31,32,33,-1,33,32,34,-1,33,34,35,-1,35,34,36,-1,35,36,37,-1,37,36,38,-1,37,38,39,-1,40,39,41,-1,41,39,38,-1,42,40,43,-1,43,40,41,-1,44,42,45,-1,45,42,43,-1,44,45,46,-1,46,45,47,-1,46,47,48,-1,48,47,49,-1,48,49,50,-1,50,49,51,-1,50,51,52,-1,52,51,53,-1,52,53,54,-1,54,53,55,-1,54,55,56,-1,56,55,57,-1,56,57,58,-1,58,57,59,-1,2,3,60,-1,60,3,58,-1,60,58,61,-1,61,58,59,-1,61,59,16,-1,16,59,17,-1,52,54,27,-1,27,54,25,-1,27,29,52,-1,52,29,31,-1,52,31,50,-1,50,31,33,-1,50,33,48,-1,58,3,1,-1,39,40,42,-1,42,44,39,-1,39,44,46,-1,39,46,37,-1,37,46,48,-1,37,48,35,-1,35,48,33,-1,54,56,25,-1,25,56,58,-1,25,58,15,-1,15,58,1,-1,7,9,11,-1,1,5,15,-1,15,5,7,-1,15,7,13,-1,13,7,11,-1,19,17,59,-1,23,57,26,-1,26,57,55,-1,26,55,28,-1,28,55,53,-1,28,53,30,-1,30,53,51,-1,43,41,45,-1,45,41,38,-1,45,38,47,-1,47,38,36,-1,47,36,49,-1,49,36,34,-1,49,34,51,-1,51,34,32,-1,51,32,30,-1,21,19,23,-1,23,19,59,-1,23,59,57,-1,62,63,64,-1,21,65,19,-1,19,65,62,-1,19,62,66,-1,66,62,64,-1,18,19,66,-1,18,66,67,-1,67,66,64,-1,67,64,68,-1,68,64,63,-1,68,63,69,-1,69,63,62,-1,69,62,70,-1,70,62,65,-1,70,65,71,-1,71,65,21,-1,71,21,20,-1,24,60,22,-1,22,60,61,-1,24,14,60,-1,60,14,12,-1,12,10,60,-1,60,10,8,-1,60,8,6,-1,6,4,60,-1,60,4,0,-1,60,0,2,-1,20,22,61,-1,20,61,71,-1,16,18,61,-1,61,18,67,-1,61,67,68,-1,68,69,61,-1,61,69,70,-1,61,70,71,-1,72,73,74,-1,74,73,75,-1,76,77,78,-1,76,78,79,-1,79,78,80,-1,79,80,81,-1,81,80,82,-1,81,82,83,-1,83,82,84,-1,83,84,85,-1,85,84,86,-1,85,86,87,-1,87,86,74,-1,87,74,75,-1,88,89,90,-1,90,89,91,-1,90,91,92,-1,92,91,93,-1,92,93,94,-1,94,93,95,-1,94,95,96,-1,96,95,97,-1,96,97,98,-1,98,97,99,-1,98,99,100,-1,100,99,101,-1,100,101,102,-1,102,101,103,-1,104,102,105,-1,105,102,103,-1,106,104,107,-1,107,104,105,-1,108,106,109,-1,109,106,107,-1,108,109,110,-1,108,110,111,-1,111,110,112,-1,111,112,113,-1,113,112,114,-1,113,114,115,-1,115,114,116,-1,115,116,117,-1,117,116,118,-1,117,118,119,-1,119,118,120,-1,119,120,121,-1,121,120,122,-1,121,122,123,-1,77,76,124,-1,124,76,123,-1,124,123,125,-1,125,123,122,-1,125,122,126,-1,126,122,127,-1,128,129,130,-1,130,129,131,-1,130,131,132,-1,132,131,89,-1,132,89,133,-1,133,89,88,-1,133,88,72,-1,72,88,73,-1,75,73,88,-1,123,90,121,-1,121,90,92,-1,121,92,119,-1,119,92,94,-1,119,94,117,-1,117,94,96,-1,104,106,102,-1,102,106,108,-1,102,108,100,-1,100,108,111,-1,100,111,98,-1,98,111,113,-1,98,113,96,-1,96,113,115,-1,96,115,117,-1,76,75,123,-1,123,75,88,-1,123,88,90,-1,76,79,75,-1,75,79,81,-1,75,81,87,-1,87,81,83,-1,87,83,85,-1,95,93,120,-1,109,107,105,-1,120,93,122,-1,120,118,95,-1,95,118,116,-1,95,116,97,-1,97,116,114,-1,97,114,99,-1,105,103,109,-1,109,103,101,-1,109,101,110,-1,110,101,99,-1,110,99,112,-1,112,99,114,-1,89,131,129,-1,93,91,122,-1,122,91,89,-1,122,89,127,-1,127,89,129,-1,134,135,136,-1,136,135,137,-1,136,137,129,-1,129,137,138,-1,129,138,127,-1,126,127,138,-1,126,138,139,-1,139,138,137,-1,139,137,140,-1,140,137,135,-1,140,135,141,-1,141,135,134,-1,141,134,142,-1,142,134,136,-1,142,136,143,-1,143,136,129,-1,143,129,128,-1,125,132,124,-1,124,132,133,-1,80,78,133,-1,133,78,77,-1,133,77,124,-1,72,74,133,-1,133,74,86,-1,86,84,133,-1,133,84,82,-1,133,82,80,-1,128,130,132,-1,132,125,126,-1,126,139,132,-1,132,139,140,-1,132,140,141,-1,141,142,132,-1,132,142,143,-1,132,143,128,-1,
        ]
    }
}
Shape{
    appearance Appearance {
        material  Material 	{
            diffuseColor 0.9529411764705882 0.6509803921568628 0.3411764705882353
            specularColor 0.28627450980392155 0.19607843137254902 0.10196078431372549
            ambientIntensity 0.7059
            transparency 0.0
            shininess 0.5
        }
    }
    geometry IndexedFaceSet {
        ccw TRUE
        solid FALSE
        coord DEF co Coordinate {
            point [
                -0.019 -0.0266 0.0, -0.019 -0.0353 0.0, -0.0267 -0.0358 0.0, 0.0233 -0.0353 0.0, 0.0386 -0.0312 0.0, 0.0386 -0.0226 0.0, 0.0233 0.0435 0.0, 0.2165 -0.0358 0.0, 0.1443 -0.0353 0.0, 0.1443 0.0435 0.0, -0.0151 0.0002 0.0, 0.0127 0.0002 0.0, 0.0127 -0.0266 0.0, -0.0171 0.0348 0.0, -0.0171 0.0435 0.0, -0.0267 0.5118 0.0, -0.0151 0.0089 0.0, 0.0127 0.0089 0.0, 0.0127 0.0348 0.0, 0.093 0.0227 0.0, 0.0884 0.0301 0.0, 0.1337 0.0435 0.0, 0.0648 0.0349 0.0, 0.0707 0.0328 0.0, 0.04 -0.0233 0.0, 0.0762 0.0291 0.0, 0.0809 0.0239 0.0, 0.0866 0.0032 0.0, 0.0858 -0.0053 0.0, 0.0837 -0.0121 0.0, 0.0662 -0.0268 0.0, 0.0588 -0.0276 0.0, 0.0719 -0.0247 0.0, 0.0767 -0.0214 0.0, 0.0804 -0.0175 0.0, 0.0484 -0.0264 0.0, 0.0941 -0.0149 0.0, 0.1039 -0.0266 0.0, 0.0899 -0.0223 0.0, 0.1039 -0.0353 0.0, 0.084 -0.0286 0.0, 0.0842 0.0178 0.0, 0.0863 0.0094 0.0, 0.0813 0.0369 0.0, 0.2165 0.5118 0.0, 0.0649 -0.0358 0.0, 0.07 -0.0352 0.0, 0.0776 -0.0326 0.0, 0.1337 -0.0266 0.0, 0.0964 -0.0065 0.0, 0.0972 0.0026 0.0, 0.0961 0.0138 0.0, 0.0738 0.0412 0.0, 0.0651 0.0438 0.0, 0.0572 0.0444 0.0, 0.0477 0.0438 0.0, 0.0386 0.0413 0.0, 0.0386 0.0307 0.0, 0.0475 0.0345 0.0, 0.0571 0.0358 0.0, 0.0603 -0.0362 0.0, 0.2165 -0.5118 0.0, 0.0581 -0.0362 0.0, -0.0267 -0.5118 0.0, 0.055 -0.0358 0.0, -0.2165 -0.5118 0.0, -0.2165 -0.0358 0.0, 0.047 -0.0347 0.0, -0.1551 -0.0132 0.0, -0.1225 -0.0132 0.0, -0.163 -0.0353 0.0, -0.115 -0.0353 0.0, -0.1035 -0.0353 0.0, -0.0938 -0.0137 0.0, -0.0893 -0.0208 0.0, -0.1746 -0.0353 0.0, -0.1438 0.0435 0.0, -0.2165 0.5118 0.0, -0.1333 0.0435 0.0, -0.0828 -0.027 0.0, -0.0746 -0.0317 0.0, -0.0655 -0.0344 0.0, -0.0558 -0.0353 0.0, -0.0344 -0.0353 0.0, -0.0344 0.0435 0.0, -0.0566 0.0435 0.0, -0.0858 0.0332 0.0, -0.0914 0.027 0.0, -0.095 0.0202 0.0, -0.068 0.0422 0.0, -0.0772 0.039 0.0, -0.0857 0.0333 0.0, -0.0972 0.0125 0.0, -0.0977 0.0051 0.0, -0.0966 -0.0055 0.0, -0.689 -0.5118 0.0472, -0.689 -0.5118 0.4724, -0.689 0.5118 0.0472, -0.689 0.5118 0.4724, 0.689 -0.5118 0.0472, 0.689 -0.5118 0.4724, 0.2559 -0.5118 0.0472, -0.2559 -0.5118 0.0472, 0.689 0.5118 0.0472, 0.689 0.5118 0.4724, 0.2559 0.5118 0.0472, -0.2559 0.5118 0.0472, -0.7283 -0.5118 0.4724, -0.7283 0.5118 0.4724, 0.7283 0.5118 0.4724, 0.7283 -0.5118 0.4724, -0.717 0.5005 0.689, -0.717 -0.5005 0.689, 0.7118 -0.4953 0.7874, -0.6134 -0.4953 0.7874, 0.7118 0.4953 0.7874, -0.6134 0.4953 0.7874, -0.4362 0.0787 0.7874, -0.4362 0.0394 0.7874, -0.4953 0.0197 0.7874, -0.5347 0.0197 0.7874, -0.4362 0.4756 0.7874, -0.4362 0.1607 0.7874, -0.5583 -0.0039 0.7874, -0.5583 0.0039 0.7874, -0.5937 -0.0394 0.7874, -0.5937 0.0394 0.7874, -0.4717 0.0039 0.7874, -0.4717 -0.0039 0.7874, -0.4362 -0.0394 0.7874, -0.4362 -0.0787 0.7874, -0.515 -0.0819 0.7874, -0.5347 -0.0197 0.7874, -0.515 0.0819 0.7874, -0.5937 0.0787 0.7874, -0.5937 0.1607 0.7874, -0.5937 0.4756 0.7874, -0.5937 -0.1607 0.7874, -0.5937 -0.0787 0.7874, -0.4953 -0.0197 0.7874, -0.4362 -0.1607 0.7874, -0.4362 -0.4756 0.7874, -0.5937 -0.4756 0.7874
            ]
        }
        coordIndex [
            0,1,2,-1,2,1,3,-1,4,3,5,-1,5,3,6,-1,7,8,9,-1,10,11,12,-1,13,2,14,-1,14,2,15,-1,14,15,6,-1,12,0,10,-1,10,0,2,-1,10,2,16,-1,16,2,13,-1,16,13,17,-1,17,13,18,-1,19,20,21,-1,22,23,24,-1,24,23,25,-1,24,25,26,-1,27,28,24,-1,24,28,29,-1,30,31,32,-1,32,31,33,-1,29,34,24,-1,24,34,33,-1,24,33,35,-1,35,33,31,-1,36,37,38,-1,38,37,39,-1,38,39,40,-1,26,41,24,-1,24,41,42,-1,24,42,27,-1,20,43,21,-1,21,43,15,-1,21,15,9,-1,9,15,44,-1,9,44,7,-1,45,46,39,-1,39,46,47,-1,39,47,40,-1,21,48,37,-1,36,49,37,-1,37,49,50,-1,37,50,21,-1,21,50,51,-1,21,51,19,-1,43,52,15,-1,15,52,53,-1,15,53,54,-1,54,55,15,-1,15,55,56,-1,15,56,6,-1,6,56,57,-1,6,57,5,-1,5,57,58,-1,5,58,24,-1,24,58,59,-1,24,59,22,-1,39,8,45,-1,45,8,7,-1,45,7,60,-1,60,7,61,-1,60,61,62,-1,62,61,63,-1,62,63,64,-1,65,66,63,-1,63,66,2,-1,63,2,64,-1,64,2,3,-1,64,3,67,-1,67,3,4,-1,68,69,70,-1,70,69,71,-1,72,73,74,-1,75,66,76,-1,76,66,77,-1,76,77,78,-1,78,77,15,-1,74,79,72,-1,72,79,80,-1,72,80,81,-1,82,83,2,-1,2,83,84,-1,2,84,15,-1,15,84,85,-1,86,87,78,-1,78,87,88,-1,85,89,15,-1,15,89,90,-1,15,90,78,-1,78,90,91,-1,78,91,86,-1,81,82,72,-1,72,82,2,-1,72,2,71,-1,71,2,66,-1,71,66,70,-1,70,66,75,-1,88,92,78,-1,78,92,93,-1,78,93,72,-1,72,93,94,-1,72,94,73,-1,95,96,97,-1,97,96,98,-1,99,100,101,-1,101,100,96,-1,96,95,102,-1,102,65,63,-1,96,102,101,-1,101,102,63,-1,101,63,61,-1,103,104,99,-1,99,104,100,-1,104,103,98,-1,98,103,105,-1,15,77,106,-1,97,98,106,-1,106,98,105,-1,106,105,15,-1,15,105,44,-1,96,107,98,-1,98,107,108,-1,104,109,100,-1,100,109,110,-1,111,108,112,-1,112,108,107,-1,110,113,100,-1,100,113,114,-1,100,114,96,-1,96,114,112,-1,96,112,107,-1,115,113,109,-1,109,113,110,-1,108,111,98,-1,98,111,116,-1,98,116,104,-1,104,116,115,-1,104,115,109,-1,117,118,113,-1,119,117,120,-1,116,121,115,-1,115,121,122,-1,123,124,125,-1,125,124,126,-1,127,128,118,-1,118,128,129,-1,118,129,113,-1,113,129,130,-1,131,120,132,-1,113,115,117,-1,117,115,122,-1,117,122,120,-1,120,122,133,-1,120,133,134,-1,134,133,135,-1,134,135,116,-1,116,135,136,-1,116,136,121,-1,131,132,137,-1,137,132,138,-1,137,138,114,-1,114,138,125,-1,114,125,116,-1,116,125,126,-1,116,126,134,-1,119,120,139,-1,139,120,131,-1,139,131,130,-1,130,131,140,-1,130,140,113,-1,113,140,141,-1,113,141,114,-1,114,141,142,-1,114,142,137,-1,111,112,116,-1,116,112,114,-1,103,99,105,-1,105,99,101,-1,44,105,7,-1,7,105,101,-1,7,101,61,-1,106,102,97,-1,97,102,95,-1,65,102,66,-1,66,102,106,-1,66,106,77,-1,
        ]
    }
}
Shape{
    appearance Appearance {
        material  Material 	{
            diffuseColor 1.0 1.0 1.0
            specularColor 0.5019607843137255 0.5019607843137255 0.5019607843137255
            ambientIntensity 1.0
            transparency 0.0
            shininess 0.5
        }
    }
    geometry IndexedFaceSet {
        ccw TRUE
        solid FALSE
        coord DEF co Coordinate {
            point [
                -0.1252 -0.0046 0.0039, -0.1225 -0.0132 0.0039, -0.1515 -0.0046 0.0039, -0.1551 -0.0132 0.0039, -0.1369 0.0283 0.0039, -0.1333 0.0435 0.0039, -0.1035 -0.0353 0.0039, -0.115 -0.0353 0.0039, -0.1377 0.0311 0.0039, -0.1382 0.0338 0.0039, -0.1438 0.0435 0.0039, -0.1385 0.0338 0.0039, -0.139 0.0311 0.0039, -0.1397 0.0283 0.0039, -0.1746 -0.0353 0.0039, -0.163 -0.0353 0.0039, -0.1551 -0.0132 0.0, -0.163 -0.0353 0.0, -0.1225 -0.0132 0.0, -0.115 -0.0353 0.0, -0.1035 -0.0353 0.0, -0.1333 0.0435 0.0, -0.1438 0.0435 0.0, -0.1746 -0.0353 0.0, -0.1397 0.0283 0.0, -0.139 0.0311 0.0, -0.1385 0.0338 0.0, -0.1382 0.0338 0.0, -0.1377 0.0311 0.0, -0.1369 0.0283 0.0, -0.1252 -0.0046 0.0, -0.1515 -0.0046 0.0, -0.0566 0.0435 0.0039, -0.0566 0.0435 0.0, -0.0344 0.0435 0.0039, -0.0344 0.0435 0.0, -0.068 0.0422 0.0039, -0.068 0.0422 0.0, -0.0772 0.039 0.0039, -0.0772 0.039 0.0, -0.0857 0.0333 0.0039, -0.0857 0.0333 0.0, -0.0858 0.0332 0.0039, -0.0858 0.0332 0.0, -0.0914 0.027 0.0039, -0.0914 0.027 0.0, -0.095 0.0202 0.0039, -0.095 0.0202 0.0, -0.0972 0.0125 0.0039, -0.0972 0.0125 0.0, -0.0977 0.0051 0.0039, -0.0977 0.0051 0.0, -0.0966 -0.0055 0.0039, -0.0966 -0.0055 0.0, -0.0938 -0.0137 0.0039, -0.0938 -0.0137 0.0, -0.0893 -0.0208 0.0039, -0.0893 -0.0208 0.0, -0.0828 -0.027 0.0039, -0.0828 -0.027 0.0, -0.0746 -0.0317 0.0039, -0.0746 -0.0317 0.0, -0.0655 -0.0344 0.0039, -0.0655 -0.0344 0.0, -0.0558 -0.0353 0.0039, -0.0558 -0.0353 0.0, -0.0344 -0.0353 0.0039, -0.0344 -0.0353 0.0, -0.0819 0.0238 0.0039, -0.0781 0.0278 0.0039, -0.0723 0.0315 0.0039, -0.0658 0.0338 0.0039, -0.0565 0.0348 0.0039, -0.0449 0.0348 0.0039, -0.0449 -0.0266 0.0039, -0.0561 -0.0266 0.0039, -0.0644 -0.0259 0.0039, -0.071 -0.0238 0.0039, -0.0764 -0.0206 0.0039, -0.0808 -0.0163 0.0039, -0.0841 -0.0108 0.0039, -0.0864 -0.0034 0.0039, -0.0872 0.0048 0.0039, -0.0865 0.0127 0.0039, -0.0847 0.0189 0.0039, -0.0561 -0.0266 0.0, -0.0449 -0.0266 0.0, -0.0644 -0.0259 0.0, -0.071 -0.0238 0.0, -0.0764 -0.0206 0.0, -0.0808 -0.0163 0.0, -0.0841 -0.0108 0.0, -0.0864 -0.0034 0.0, -0.0872 0.0048 0.0, -0.0865 0.0127 0.0, -0.0847 0.0189 0.0, -0.0819 0.0238 0.0, -0.0781 0.0278 0.0, -0.0723 0.0315 0.0, -0.0658 0.0338 0.0, -0.0565 0.0348 0.0, -0.0449 0.0348 0.0, 0.0233 0.0435 0.0039, 0.0233 0.0435 0.0, 0.0233 -0.0353 0.0039, 0.0233 -0.0353 0.0, -0.0171 0.0435 0.0039, -0.0171 0.0435 0.0, -0.0171 0.0348 0.0039, -0.0171 0.0348 0.0, 0.0127 0.0348 0.0039, 0.0127 0.0348 0.0, 0.0127 0.0089 0.0039, 0.0127 0.0089 0.0, -0.0151 0.0089 0.0039, -0.0151 0.0089 0.0, -0.0151 0.0002 0.0039, -0.0151 0.0002 0.0, 0.0127 0.0002 0.0039, 0.0127 0.0002 0.0, 0.0127 -0.0266 0.0039, 0.0127 -0.0266 0.0, -0.019 -0.0266 0.0039, -0.019 -0.0266 0.0, -0.019 -0.0353 0.0039, -0.019 -0.0353 0.0, 0.0649 -0.0358 0.0, 0.0603 -0.0362 0.0, 0.0603 -0.0362 0.0039, 0.07 -0.0352 0.0, 0.07 -0.0352 0.0039, 0.0776 -0.0326 0.0039, 0.0776 -0.0326 0.0, 0.084 -0.0286 0.0039, 0.084 -0.0286 0.0, 0.0899 -0.0223 0.0039, 0.0899 -0.0223 0.0, 0.0941 -0.0149 0.0039, 0.0941 -0.0149 0.0, 0.0964 -0.0065 0.0039, 0.0964 -0.0065 0.0, 0.0972 0.0026 0.0039, 0.0972 0.0026 0.0, 0.0961 0.0138 0.0039, 0.0961 0.0138 0.0, 0.093 0.0227 0.0039, 0.093 0.0227 0.0, 0.0884 0.0301 0.0039, 0.0884 0.0301 0.0, 0.0813 0.0369 0.0039, 0.0813 0.0369 0.0, 0.0738 0.0412 0.0039, 0.0738 0.0412 0.0, 0.0651 0.0438 0.0039, 0.0651 0.0438 0.0, 0.0572 0.0444 0.0039, 0.0572 0.0444 0.0, 0.0477 0.0438 0.0039, 0.0477 0.0438 0.0, 0.0386 0.0413 0.0039, 0.0386 0.0413 0.0, 0.0386 0.0307 0.0039, 0.0386 0.0307 0.0, 0.0475 0.0345 0.0039, 0.0475 0.0345 0.0, 0.0571 0.0358 0.0039, 0.0571 0.0358 0.0, 0.0648 0.0349 0.0039, 0.0648 0.0349 0.0, 0.0707 0.0328 0.0039, 0.0707 0.0328 0.0, 0.0762 0.0291 0.0039, 0.0762 0.0291 0.0, 0.0809 0.0239 0.0039, 0.0809 0.0239 0.0, 0.0842 0.0178 0.0039, 0.0842 0.0178 0.0, 0.0863 0.0094 0.0039, 0.0863 0.0094 0.0, 0.0866 0.0032 0.0039, 0.0866 0.0032 0.0, 0.0858 -0.0053 0.0039, 0.0858 -0.0053 0.0, 0.0837 -0.0121 0.0039, 0.0837 -0.0121 0.0, 0.0804 -0.0175 0.0039, 0.0804 -0.0175 0.0, 0.0767 -0.0214 0.0039, 0.0767 -0.0214 0.0, 0.0719 -0.0247 0.0039, 0.0719 -0.0247 0.0, 0.0662 -0.0268 0.0039, 0.0662 -0.0268 0.0, 0.0588 -0.0276 0.0039, 0.0588 -0.0276 0.0, 0.0484 -0.0264 0.0039, 0.0484 -0.0264 0.0, 0.04 -0.0233 0.0039, 0.04 -0.0233 0.0, 0.0386 -0.0226 0.0039, 0.0386 -0.0226 0.0, 0.0386 -0.0312 0.0039, 0.0386 -0.0312 0.0, 0.047 -0.0347 0.0, 0.047 -0.0347 0.0039, 0.055 -0.0358 0.0, 0.0581 -0.0362 0.0039, 0.0581 -0.0362 0.0, 0.1443 0.0435 0.0039, 0.1443 0.0435 0.0, 0.1443 -0.0353 0.0039, 0.1443 -0.0353 0.0, 0.1337 0.0435 0.0039, 0.1337 0.0435 0.0, 0.1337 -0.0266 0.0039, 0.1337 -0.0266 0.0, 0.1039 -0.0266 0.0039, 0.1039 -0.0266 0.0, 0.1039 -0.0353 0.0039, 0.1039 -0.0353 0.0
            ]
        }
        coordIndex [
            0,1,2,-1,2,1,3,-1,4,5,0,-1,0,5,6,-1,0,6,1,-1,1,6,7,-1,4,8,5,-1,5,8,9,-1,5,9,10,-1,10,9,11,-1,10,11,12,-1,12,13,10,-1,10,13,2,-1,10,2,14,-1,14,2,3,-1,14,3,15,-1,3,16,15,-1,15,16,17,-1,1,18,3,-1,3,18,16,-1,7,19,1,-1,1,19,18,-1,6,20,7,-1,7,20,19,-1,5,21,6,-1,6,21,20,-1,10,22,5,-1,5,22,21,-1,14,23,10,-1,10,23,22,-1,14,15,23,-1,23,15,17,-1,24,13,12,-1,24,12,25,-1,25,12,11,-1,25,11,26,-1,9,27,11,-1,11,27,26,-1,27,9,8,-1,27,8,28,-1,28,8,4,-1,28,4,29,-1,0,30,4,-1,4,30,29,-1,2,31,0,-1,0,31,30,-1,24,31,13,-1,13,31,2,-1,32,33,34,-1,34,33,35,-1,33,32,36,-1,33,36,37,-1,37,36,38,-1,37,38,39,-1,39,38,40,-1,39,40,41,-1,41,40,42,-1,41,42,43,-1,43,42,44,-1,43,44,45,-1,45,44,46,-1,45,46,47,-1,47,46,48,-1,47,48,49,-1,49,48,50,-1,49,50,51,-1,51,50,52,-1,51,52,53,-1,53,52,54,-1,53,54,55,-1,55,54,56,-1,55,56,57,-1,57,56,58,-1,57,58,59,-1,59,58,60,-1,59,60,61,-1,61,60,62,-1,61,62,63,-1,63,62,64,-1,63,64,65,-1,66,67,64,-1,64,67,65,-1,66,34,67,-1,67,34,35,-1,46,44,68,-1,68,44,42,-1,68,42,69,-1,69,42,40,-1,69,40,70,-1,70,40,38,-1,70,38,71,-1,71,38,36,-1,71,36,72,-1,72,36,32,-1,72,32,73,-1,73,32,34,-1,73,34,74,-1,74,34,66,-1,74,66,75,-1,75,66,64,-1,75,64,76,-1,76,64,62,-1,76,62,77,-1,77,62,60,-1,77,60,78,-1,78,60,58,-1,78,58,79,-1,79,58,56,-1,79,56,80,-1,80,56,54,-1,80,54,81,-1,81,54,52,-1,81,52,82,-1,82,52,50,-1,82,50,83,-1,83,50,48,-1,83,48,84,-1,84,48,46,-1,84,46,68,-1,75,85,74,-1,74,85,86,-1,85,75,76,-1,85,76,87,-1,87,76,77,-1,87,77,88,-1,88,77,78,-1,88,78,89,-1,89,78,79,-1,89,79,90,-1,90,79,80,-1,90,80,91,-1,91,80,81,-1,91,81,92,-1,92,81,82,-1,92,82,93,-1,93,82,83,-1,93,83,94,-1,94,83,84,-1,94,84,95,-1,95,84,68,-1,95,68,96,-1,96,68,69,-1,96,69,97,-1,97,69,70,-1,97,70,98,-1,98,70,71,-1,98,71,99,-1,99,71,72,-1,99,72,100,-1,73,101,72,-1,72,101,100,-1,86,101,74,-1,74,101,73,-1,102,103,104,-1,104,103,105,-1,106,107,102,-1,102,107,103,-1,108,109,106,-1,106,109,107,-1,110,111,108,-1,108,111,109,-1,112,113,110,-1,110,113,111,-1,114,115,112,-1,112,115,113,-1,116,117,114,-1,114,117,115,-1,118,119,116,-1,116,119,117,-1,120,121,118,-1,118,121,119,-1,122,123,120,-1,120,123,121,-1,124,125,122,-1,122,125,123,-1,124,104,125,-1,125,104,105,-1,104,124,122,-1,122,120,104,-1,104,120,118,-1,104,118,102,-1,108,106,110,-1,110,106,102,-1,110,102,112,-1,112,102,118,-1,112,118,114,-1,114,118,116,-1,126,127,128,-1,126,128,129,-1,128,130,129,-1,129,130,131,-1,129,131,132,-1,132,131,133,-1,132,133,134,-1,134,133,135,-1,134,135,136,-1,136,135,137,-1,136,137,138,-1,138,137,139,-1,138,139,140,-1,140,139,141,-1,140,141,142,-1,142,141,143,-1,142,143,144,-1,144,143,145,-1,144,145,146,-1,146,145,147,-1,146,147,148,-1,148,147,149,-1,148,149,150,-1,150,149,151,-1,150,151,152,-1,152,151,153,-1,152,153,154,-1,154,153,155,-1,154,155,156,-1,156,155,157,-1,156,157,158,-1,158,157,159,-1,158,159,160,-1,161,162,159,-1,159,162,160,-1,162,161,163,-1,162,163,164,-1,164,163,165,-1,164,165,166,-1,166,165,167,-1,166,167,168,-1,168,167,169,-1,168,169,170,-1,170,169,171,-1,170,171,172,-1,172,171,173,-1,172,173,174,-1,174,173,175,-1,174,175,176,-1,176,175,177,-1,176,177,178,-1,178,177,179,-1,178,179,180,-1,180,179,181,-1,180,181,182,-1,182,181,183,-1,182,183,184,-1,184,183,185,-1,184,185,186,-1,186,185,187,-1,186,187,188,-1,188,187,189,-1,188,189,190,-1,190,189,191,-1,190,191,192,-1,192,191,193,-1,192,193,194,-1,194,193,195,-1,194,195,196,-1,196,195,197,-1,196,197,198,-1,198,197,199,-1,198,199,200,-1,201,202,199,-1,199,202,200,-1,203,202,204,-1,204,202,201,-1,203,204,205,-1,205,204,206,-1,205,206,207,-1,207,206,128,-1,207,128,127,-1,191,128,193,-1,193,128,206,-1,193,206,195,-1,195,206,204,-1,195,204,197,-1,197,204,201,-1,197,201,199,-1,161,159,163,-1,163,159,157,-1,163,157,165,-1,165,157,155,-1,165,155,167,-1,167,155,153,-1,167,153,169,-1,169,153,151,-1,169,151,171,-1,171,151,149,-1,171,149,173,-1,173,149,147,-1,173,147,175,-1,175,147,145,-1,175,145,177,-1,177,145,143,-1,177,143,179,-1,179,143,141,-1,179,141,181,-1,181,141,139,-1,181,139,183,-1,183,139,137,-1,183,137,185,-1,185,137,135,-1,185,135,187,-1,187,135,133,-1,187,133,189,-1,189,133,131,-1,189,131,191,-1,191,131,130,-1,191,130,128,-1,208,209,210,-1,210,209,211,-1,212,213,208,-1,208,213,209,-1,214,215,212,-1,212,215,213,-1,216,217,214,-1,214,217,215,-1,218,219,216,-1,216,219,217,-1,218,210,219,-1,219,210,211,-1,212,208,214,-1,214,208,210,-1,214,210,216,-1,216,210,218,-1,
        ]
    }
}
Shape{
    appearance Appearance {
        material  Material 	{
            diffuseColor 0.9529411764705882 0.6509803921568628 0.3411764705882353
            specularColor 0.28627450980392155 0.19607843137254902 0.10196078431372549
            ambientIntensity 0.7059
            transparency 0.0
            shininess 0.5
        }
    }
    geometry IndexedFaceSet {
        ccw TRUE
        solid FALSE
        coord DEF co Coordinate {
            point [
                -0.1252 -0.0046 0.0, -0.1515 -0.0046 0.0, -0.1369 0.0283 0.0, -0.1397 0.0283 0.0, -0.1377 0.0311 0.0, -0.139 0.0311 0.0, -0.1382 0.0338 0.0, -0.1385 0.0338 0.0
            ]
        }
        coordIndex [
            0,1,2,-1,2,1,3,-1,2,3,4,-1,4,3,5,-1,4,5,6,-1,6,5,7,-1,
        ]
    }
}
Shape{
    appearance Appearance {
        material  Material 	{
            diffuseColor 0.8313725490196079 0.6941176470588235 0.3843137254901961
            specularColor 0.25098039215686274 0.20784313725490197 0.11372549019607843
            ambientIntensity 0.6998
            transparency 0.0
            shininess 0.5
        }
    }
    geometry IndexedFaceSet {
        ccw TRUE
        solid FALSE
        coord DEF co Coordinate {
            point [
                -0.0449 0.0348 0.0, -0.0449 -0.0266 0.0, -0.0565 0.0348 0.0, -0.0561 -0.0266 0.0, -0.0644 -0.0259 0.0, -0.0872 0.0048 0.0, -0.0865 0.0127 0.0, -0.0847 0.0189 0.0, -0.0658 0.0338 0.0, -0.071 -0.0238 0.0, -0.0764 -0.0206 0.0, -0.0808 -0.0163 0.0, -0.0841 -0.0108 0.0, -0.0864 -0.0034 0.0, -0.0819 0.0238 0.0, -0.0781 0.0278 0.0, -0.0723 0.0315 0.0
            ]
        }
        coordIndex [
            0,1,2,-1,2,1,3,-1,2,3,4,-1,5,6,2,-1,2,6,7,-1,2,7,8,-1,4,9,2,-1,2,9,10,-1,2,10,11,-1,11,12,2,-1,2,12,13,-1,2,13,5,-1,14,15,7,-1,7,15,16,-1,7,16,8,-1,
        ]
    }
}
Shape{
    appearance Appearance {
        material  Material 	{
            diffuseColor 0.20784313725490197 0.20784313725490197 0.20784313725490197
            specularColor 0.01568627450980392 0.01568627450980392 0.01568627450980392
            ambientIntensity 0.298
            transparency 0.0
            shininess 0.5
        }
    }
    geometry IndexedFaceSet {
        ccw TRUE
        solid FALSE
        coord DEF co Coordinate {
            point [
                -0.4362 0.0787 0.7835, -0.4362 0.0394 0.7835, -0.4362 0.0787 0.7874, -0.4362 0.0394 0.7874, -0.4717 0.0039 0.7835, -0.4717 0.0039 0.7874, -0.4717 -0.0039 0.7835, -0.4717 -0.0039 0.7874, -0.4362 -0.0394 0.7835, -0.4362 -0.0394 0.7874, -0.4362 -0.0787 0.7835, -0.4362 -0.0787 0.7874, -0.4953 -0.0197 0.7835, -0.4953 -0.0197 0.7874, -0.4953 0.0197 0.7835, -0.4953 0.0197 0.7874, -0.515 -0.0819 0.7835, -0.4362 -0.1607 0.7835, -0.515 -0.0819 0.7874, -0.4362 -0.1607 0.7874, -0.4362 -0.4756 0.7835, -0.4362 -0.4756 0.7874, -0.5937 -0.4756 0.7835, -0.5937 -0.4756 0.7874, -0.5937 -0.1607 0.7835, -0.5937 -0.1607 0.7874, -0.5583 -0.0039 0.7835, -0.5583 0.0039 0.7835, -0.5583 -0.0039 0.7874, -0.5583 0.0039 0.7874, -0.5937 0.0394 0.7835, -0.5937 0.0394 0.7874, -0.5937 0.0787 0.7835, -0.5937 0.0787 0.7874, -0.5347 0.0197 0.7835, -0.5347 0.0197 0.7874, -0.5347 -0.0197 0.7835, -0.5347 -0.0197 0.7874, -0.5937 -0.0787 0.7835, -0.5937 -0.0787 0.7874, -0.5937 -0.0394 0.7835, -0.5937 -0.0394 0.7874, -0.5937 0.1607 0.7835, -0.5937 0.4756 0.7835, -0.5937 0.1607 0.7874, -0.5937 0.4756 0.7874, -0.4362 0.4756 0.7835, -0.4362 0.4756 0.7874, -0.4362 0.1607 0.7835, -0.4362 0.1607 0.7874, -0.515 0.0819 0.7835, -0.515 0.0819 0.7874
            ]
        }
        coordIndex [
            0,1,2,-1,2,1,3,-1,1,4,3,-1,3,4,5,-1,4,6,5,-1,5,6,7,-1,6,8,7,-1,7,8,9,-1,8,10,9,-1,9,10,11,-1,10,12,11,-1,11,12,13,-1,12,14,13,-1,13,14,15,-1,14,0,15,-1,15,0,2,-1,1,0,4,-1,4,0,14,-1,4,14,6,-1,6,14,12,-1,6,12,8,-1,8,12,10,-1,16,17,18,-1,18,17,19,-1,17,20,19,-1,19,20,21,-1,20,22,21,-1,21,22,23,-1,22,24,23,-1,23,24,25,-1,24,16,25,-1,25,16,18,-1,22,20,24,-1,24,20,17,-1,24,17,16,-1,26,27,28,-1,28,27,29,-1,27,30,29,-1,29,30,31,-1,30,32,31,-1,31,32,33,-1,32,34,33,-1,33,34,35,-1,34,36,35,-1,35,36,37,-1,36,38,37,-1,37,38,39,-1,38,40,39,-1,39,40,41,-1,40,26,41,-1,41,26,28,-1,40,38,26,-1,26,38,36,-1,26,36,27,-1,27,36,34,-1,27,34,30,-1,30,34,32,-1,42,43,44,-1,44,43,45,-1,43,46,45,-1,45,46,47,-1,46,48,47,-1,47,48,49,-1,48,50,49,-1,49,50,51,-1,50,42,51,-1,51,42,44,-1,50,48,42,-1,42,48,46,-1,42,46,43,-1,
        ]
    }
}