#VRML V2.0 utf8
# 3D model generated by easyeda2kicad.py (https://github.com/uPesy/easyeda2kicad.py)

Shape{
    appearance Appearance {
        material  Material 	{
            diffuseColor 1.0 0.7019607843137254 0.09019607843137255
            specularColor 0.30196078431372547 0.21176470588235294 0.027450980392156862
            ambientIntensity 0.7213
            transparency 0.0
            shininess 0.5
        }
    }
    geometry IndexedFaceSet {
        ccw TRUE
        solid FALSE
        coord DEF co Coordinate {
            point [
                0.8142 -0.1884 0.3937, 0.8142 -0.1729 0.3937, 1.3126 -0.1729 0.3937, 0.7614 0.2053 0.3937, 0.7614 -0.1452 0.3937, 0.6125 -0.1452 0.3937, 1.3126 0.7874 0.3937, 0.8142 0.2053 0.3937, 0.5957 0.7874 0.3937, 0.5957 -0.1729 0.3937, 0.6125 -0.1729 0.3937, 0.6125 -0.1884 0.3937, 0.3316 0.2069 0.3937, 0.2861 0.1945 0.3937, 0.2476 0.7874 0.3937, 0.2861 0.1417 0.3937, 0.2861 -0.1248 0.3937, 0.3304 0.1607 0.3937, 0.2931 -0.1287 0.3937, 0.3783 0.1669 0.3937, 0.417 0.1625 0.3937, 0.4843 -0.1729 0.3937, 0.5127 -0.1548 0.3937, 0.5423 -0.1237 0.3937, 0.5633 -0.0862 0.3937, 0.5581 0.1016 0.3937, 0.5351 0.1384 0.3937, 0.4995 0.1726 0.3937, 0.4465 0.1519 0.3937, 0.4737 0.1337 0.3937, 0.4975 0.1074 0.3937, 0.5261 0.0043 0.3937, 0.5221 -0.0384 0.3937, 0.5114 -0.0722 0.3937, 0.4238 -0.1459 0.3937, 0.3871 -0.15 0.3937, 0.4525 -0.1353 0.3937, 0.4767 -0.119 0.3937, 0.4951 -0.0995 0.3937, 0.3348 -0.1442 0.3937, 0.5137 0.077 0.3937, 0.5242 0.0349 0.3937, 0.5751 -0.0446 0.3937, 0.5789 0.001 0.3937, 0.5733 0.057 0.3937, 0.4621 0.1941 0.3937, 0.4182 0.2069 0.3937, 0.3787 0.2101 0.3937, 0.328 -0.1852 0.3937, 0.2476 -0.4903 0.3937, 0.2981 -0.1729 0.3937, 0.2476 -0.1729 0.3937, 0.2861 -0.168 0.3937, 1.3126 -0.4903 0.3937, 0.5957 -0.4903 0.3937, 0.4811 -0.175 0.3937, 0.3836 -0.193 0.3937, 0.3944 -0.1932 0.3937, 0.4429 -0.1882 0.3937, 0.2092 -0.1729 0.3937, 0.2092 0.2053 0.3937, 0.0076 0.2053 0.3937, -0.0404 0.7874 0.3937, 0.1564 -0.0108 0.3937, 0.1564 -0.1452 0.3937, 0.0172 -0.0108 0.3937, -0.002 -0.1452 0.3937, 0.0172 0.0325 0.3937, 0.0076 0.1621 0.3937, 0.1564 0.0325 0.3937, 0.1564 0.1621 0.3937, -0.0404 -0.1729 0.3937, -0.002 -0.1729 0.3937, -0.002 -0.1884 0.3937, -0.0788 -0.1729 0.3937, -0.0788 0.2053 0.3937, -0.1899 0.2053 0.3937, -0.4101 0.7874 0.3937, -0.2468 0.1992 0.3937, -0.2929 0.183 0.3937, -0.3357 0.1543 0.3937, -0.3211 -0.1467 0.3937, -0.4101 -0.1729 0.3937, -0.3535 -0.1157 0.3937, -0.3761 -0.0805 0.3937, -0.3362 0.154 0.3937, -0.364 0.1231 0.3937, -0.3823 0.0892 0.3937, -0.3929 0.0505 0.3937, -0.3957 0.0134 0.3937, -0.3902 -0.0393 0.3937, 0.2092 -0.1884 0.3937, -0.0404 -0.4903 0.3937, -0.0788 -0.1884 0.3937, -0.28 -0.1706 0.3937, -0.2722 -0.1729 0.3937, -0.4101 -0.4903 0.3937, -0.2346 -0.1841 0.3937, -0.1859 -0.1884 0.3937, -1.2954 -0.4903 0.3937, -0.4821 -0.1884 0.3937, -0.4245 -0.1884 0.3937, -0.4304 -0.1729 0.3937, -0.5734 0.2053 0.3937, -1.2954 0.7874 0.3937, -0.6262 0.2053 0.3937, -1.2954 -0.1729 0.3937, -0.7738 -0.1729 0.3937, -0.7798 -0.1884 0.3937, -0.7222 -0.1884 0.3937, -0.4874 -0.1729 0.3937, -0.7166 -0.1729 0.3937, -0.6824 -0.078 0.3937, -0.5197 -0.078 0.3937, -1.9277 -0.1521 0.3937, -1.8898 -0.1364 0.3937, -1.9685 -0.1575 0.3937, -2.1049 -0.0787 0.3937, -2.0799 -0.1114 0.3937, -2.1654 -0.1729 0.3937, -2.0472 -0.1364 0.3937, -2.0093 -0.1521 0.3937, -1.8571 -0.1114 0.3937, -1.8321 -0.0787 0.3937, -1.8164 -0.0408 0.3937, -2.0093 0.1521 0.3937, -2.0472 0.1364 0.3937, -2.1654 0.7874 0.3937, -2.0799 0.1114 0.3937, -2.1049 0.0787 0.3937, -2.1206 0.0408 0.3937, -2.126 0.0 0.3937, -2.1206 -0.0408 0.3937, -1.8571 0.1114 0.3937, -1.8898 0.1364 0.3937, -1.9277 0.1521 0.3937, -1.9685 0.1575 0.3937, -1.811 0.0 0.3937, -1.8164 0.0408 0.3937, -1.8321 0.0787 0.3937, 2.0472 -0.1364 0.3937, 2.0799 -0.1114 0.3937, 2.1457 -0.1729 0.3937, 1.811 0.0 0.3937, 1.8164 -0.0408 0.3937, 2.126 0.0 0.3937, 2.1206 0.0408 0.3937, 2.1457 0.7874 0.3937, 1.8321 -0.0787 0.3937, 1.8571 -0.1114 0.3937, 1.8898 -0.1364 0.3937, 2.1049 -0.0787 0.3937, 2.1206 -0.0408 0.3937, 2.1049 0.0787 0.3937, 2.0799 0.1114 0.3937, 2.0472 0.1364 0.3937, 1.8898 0.1364 0.3937, 1.8571 0.1114 0.3937, 1.8321 0.0787 0.3937, 1.8164 0.0408 0.3937, 1.9277 -0.1521 0.3937, 1.9685 -0.1575 0.3937, 2.0093 -0.1521 0.3937, 2.0093 0.1521 0.3937, 1.9685 0.1575 0.3937, 1.9277 0.1521 0.3937, 2.1654 0.7874 0.3937, 2.1654 -0.1729 0.3937, -2.1654 -0.4903 0.3937, -2.1654 -0.7874 0.3937, 2.1457 -0.4903 0.3937, 2.1654 -0.4903 0.3937, -1.2954 -0.7874 0.3937, -0.4101 -0.7874 0.3937, -0.0404 -0.7874 0.3937, 0.2476 -0.7874 0.3937, 0.5957 -0.7874 0.3937, 1.3126 -0.7874 0.3937, 2.1457 -0.7874 0.3937, 2.1654 -0.7874 0.3937, -1.5748 -0.9843 0.1969, -1.7677 -0.9843 0.0, -2.3622 -0.9843 0.1969, -2.3622 -0.9843 0.0, 1.5748 0.9843 0.1969, 1.7677 0.9843 0.0, 2.3622 0.9843 0.1969, 2.3622 0.9843 0.0, -1.7677 -1.1417 0.0, -2.5197 -1.1417 0.0, -2.3622 0.9843 0.0, -2.5197 1.1417 0.0, -1.7677 0.9843 0.0, -1.7677 1.1417 0.0, 2.5591 1.1417 4.685, 2.5591 -1.1417 4.685, 2.5591 1.1417 0.0394, 2.5591 -1.1417 0.0394, 1.7677 1.1417 0.0, 2.5197 1.1417 0.0, 2.3622 -0.9843 0.0, 2.5197 -1.1417 0.0, 1.7677 -0.9843 0.0, 1.7677 -1.1417 0.0, -2.5591 -1.1417 0.0394, -2.5591 -1.1417 4.685, -2.5591 1.1417 0.0394, -2.5591 1.1417 4.685, 2.5197 1.1417 4.7244, -2.5197 1.1417 4.7244, 2.5197 -1.1417 4.7244, -2.5197 -1.1417 4.7244, -1.7842 1.1811 0.0394, -2.5197 1.1811 0.0394, -1.5913 1.1811 0.2362, -2.5197 1.1811 4.685, 1.5913 1.1811 0.2362, 2.5197 1.1811 4.685, 1.7842 1.1811 0.0394, 2.5197 1.1811 0.0394, 1.7842 -1.1811 0.0394, 2.5197 -1.1811 0.0394, 1.5913 -1.1811 0.2362, 2.5197 -1.1811 4.685, -1.5913 -1.1811 0.2362, -2.5197 -1.1811 4.685, -1.7842 -1.1811 0.0394, -2.5197 -1.1811 0.0394, 2.3622 -0.9843 0.1969, -2.3622 0.9843 0.1969, -1.5748 0.9843 0.1969, 1.5748 -0.9843 0.1969, 1.5748 -1.1417 0.1969, -1.5748 -1.1417 0.1969, -1.5748 1.1417 0.1969, 1.5748 1.1417 0.1969, 2.3605 -0.9826 0.2225, 2.3555 -0.9775 0.2478, -2.3555 -0.9775 0.2478, -2.3605 -0.9826 0.2225, 2.3045 -0.9266 0.336, 2.3215 -0.9436 0.3167, -2.3215 -0.9436 0.3167, 2.3358 -0.9579 0.2953, -2.3358 -0.9579 0.2953, 2.3472 -0.9693 0.2722, -2.3472 -0.9693 0.2722, -2.2163 -0.8383 0.387, 2.2163 -0.8383 0.387, -2.3045 -0.9266 0.336, -2.2638 -0.8858 0.3673, 2.2638 -0.8858 0.3673, -2.2163 0.8383 0.387, -2.2638 0.8858 0.3673, -2.3045 0.9266 0.336, -2.3215 0.9436 0.3167, -2.3358 0.9579 0.2953, -2.3472 0.9693 0.2722, -2.3555 0.9775 0.2478, -2.3605 0.9826 0.2225, 2.3605 0.9826 0.2225, 2.3555 0.9775 0.2478, 2.3472 0.9693 0.2722, 2.3358 0.9579 0.2953, 2.3215 0.9436 0.3167, 2.3045 0.9266 0.336, 2.2638 0.8858 0.3673, 2.2163 0.8383 0.387, -1.5877 1.1801 0.2275, -1.7799 1.1798 0.0292, -1.5871 1.1796 0.2261, -1.5842 1.1772 0.2191, -1.7759 1.1758 0.0197, -1.5831 1.1756 0.2167, -1.581 1.1725 0.2117, -1.7725 1.1696 0.0115, -1.5797 1.1694 0.2086, -1.5784 1.1663 0.2054, -1.7711 1.1657 0.0081, -1.5771 1.1613 0.2023, -1.7699 1.1614 0.0053, -1.5764 1.1588 0.2008, -1.7689 1.1568 0.003, -1.5754 1.1519 0.1983, -1.7682 1.1519 0.0013, -1.5752 1.1505 0.1978, -1.7678 1.1469 0.0003, -1.7725 -1.1696 0.0115, -1.5831 -1.1758 0.2165, -1.7759 -1.1758 0.0197, -1.5871 -1.1798 0.226, -1.7799 -1.1798 0.0292, -1.7678 -1.1469 0.0003, -1.5749 -1.1469 0.1972, -1.7682 -1.1519 0.0013, -1.5754 -1.1519 0.1982, -1.7689 -1.1568 0.003, -1.5761 -1.1568 0.1999, -1.7699 -1.1614 0.0053, -1.577 -1.1614 0.2021, -1.7711 -1.1657 0.0081, -1.5782 -1.1657 0.205, -1.5796 -1.1696 0.2084, -2.5197 1.1519 0.0013, -2.5197 1.1614 0.0053, -2.5197 1.1696 0.0115, -2.5197 1.1758 0.0197, -2.5197 1.1798 0.0292, 1.5752 1.1505 0.1978, 1.5754 1.1519 0.1983, 1.5764 1.1588 0.2008, 1.5771 1.1613 0.2023, 1.5784 1.1663 0.2054, 1.5797 1.1694 0.2086, 1.581 1.1725 0.2117, 1.5831 1.1756 0.2167, 1.5842 1.1772 0.2191, 1.5871 1.1796 0.2261, 1.5877 1.1801 0.2275, 1.5761 -1.1568 0.1999, 1.577 -1.1614 0.2021, 1.5871 -1.1798 0.226, 1.5831 -1.1758 0.2165, 1.5796 -1.1696 0.2084, 1.5782 -1.1657 0.205, 1.5754 -1.1519 0.1982, 1.5749 -1.1469 0.1972, -2.5197 -1.1798 0.0292, -2.5197 -1.1758 0.0197, -2.5197 -1.1696 0.0115, -2.5197 -1.1614 0.0053, -2.5197 -1.1519 0.0013, -2.5299 -1.1417 0.0013, -2.5299 1.1417 0.0013, -2.5394 -1.1417 0.0053, -2.5394 1.1417 0.0053, -2.5475 -1.1417 0.0115, -2.5475 1.1417 0.0115, -2.5538 -1.1417 0.0197, -2.5538 1.1417 0.0197, -2.5577 -1.1417 0.0292, -2.5577 1.1417 0.0292, -2.5577 1.1519 0.0394, -2.5538 1.1614 0.0394, -2.5564 1.1516 0.0292, -2.5526 1.1607 0.0292, -2.5526 1.1506 0.0197, -2.5492 1.1588 0.0197, -2.5466 1.1489 0.0115, -2.5438 1.1557 0.0115, -2.5387 1.1468 0.0053, -2.5367 1.1516 0.0053, -2.5295 1.1444 0.0013, -2.5285 1.1468 0.0013, -2.5475 1.1696 0.0394, -2.5466 1.1686 0.0292, -2.5438 1.1658 0.0197, -2.5394 1.1614 0.0115, -2.5336 1.1557 0.0053, -2.5269 1.1489 0.0013, -2.5394 1.1758 0.0394, -2.5299 1.1798 0.0394, -2.5387 1.1747 0.0292, -2.5295 1.1785 0.0292, -2.5367 1.1713 0.0197, -2.5285 1.1747 0.0197, -2.5336 1.1658 0.0115, -2.5269 1.1686 0.0115, -2.5295 1.1588 0.0053, -2.5248 1.1607 0.0053, -2.5248 1.1506 0.0013, -2.5223 1.1516 0.0013, 1.7678 1.1469 0.0003, 1.7682 1.1519 0.0013, 1.7689 1.1568 0.003, 1.7699 1.1614 0.0053, 1.7711 1.1657 0.0081, 1.7725 1.1696 0.0115, 1.7759 1.1758 0.0197, 1.7799 1.1798 0.0292, 1.7799 -1.1798 0.0292, 1.7759 -1.1758 0.0197, 1.7725 -1.1696 0.0115, 1.7711 -1.1657 0.0081, 1.7699 -1.1614 0.0053, 1.7689 -1.1568 0.003, 1.7682 -1.1519 0.0013, 1.7678 -1.1469 0.0003, -2.5299 -1.1798 0.0394, -2.5394 -1.1758 0.0394, -2.5295 -1.1785 0.0292, -2.5387 -1.1747 0.0292, -2.5285 -1.1747 0.0197, -2.5367 -1.1713 0.0197, -2.5269 -1.1686 0.0115, -2.5336 -1.1658 0.0115, -2.5248 -1.1607 0.0053, -2.5295 -1.1588 0.0053, -2.5223 -1.1516 0.0013, -2.5248 -1.1506 0.0013, -2.5475 -1.1696 0.0394, -2.5466 -1.1686 0.0292, -2.5438 -1.1658 0.0197, -2.5394 -1.1614 0.0115, -2.5336 -1.1557 0.0053, -2.5269 -1.1489 0.0013, -2.5538 -1.1614 0.0394, -2.5577 -1.1519 0.0394, -2.5526 -1.1607 0.0292, -2.5564 -1.1516 0.0292, -2.5492 -1.1588 0.0197, -2.5526 -1.1506 0.0197, -2.5438 -1.1557 0.0115, -2.5466 -1.1489 0.0115, -2.5367 -1.1516 0.0053, -2.5387 -1.1468 0.0053, -2.5285 -1.1468 0.0013, -2.5295 -1.1444 0.0013, -2.5299 1.1798 4.685, -2.5394 1.1758 4.685, -2.5475 1.1696 4.685, -2.5538 1.1614 4.685, -2.5577 1.1519 4.685, 2.5197 1.1798 0.0292, 2.5197 1.1758 0.0197, 2.5197 1.1696 0.0115, 2.5197 1.1614 0.0053, 2.5197 1.1519 0.0013, 2.5577 -1.1417 0.0292, 2.5577 1.1417 0.0292, 2.5538 -1.1417 0.0197, 2.5538 1.1417 0.0197, 2.5475 -1.1417 0.0115, 2.5475 1.1417 0.0115, 2.5394 -1.1417 0.0053, 2.5394 1.1417 0.0053, 2.5299 -1.1417 0.0013, 2.5299 1.1417 0.0013, 2.5197 -1.1519 0.0013, 2.5197 -1.1614 0.0053, 2.5197 -1.1696 0.0115, 2.5197 -1.1758 0.0197, 2.5197 -1.1798 0.0292, -2.5299 -1.1798 4.685, -2.5394 -1.1758 4.685, -2.5475 -1.1696 4.685, -2.5538 -1.1614 4.685, -2.5577 -1.1519 4.685, -2.5577 -1.1417 4.6952, -2.5577 1.1417 4.6952, -2.5538 -1.1417 4.7047, -2.5538 1.1417 4.7047, -2.5475 -1.1417 4.7129, -2.5475 1.1417 4.7129, -2.5394 -1.1417 4.7191, -2.5394 1.1417 4.7191, -2.5299 -1.1417 4.7231, -2.5299 1.1417 4.7231, -2.5564 1.1516 4.6952, -2.5367 1.1516 4.7191, -2.5285 1.1468 4.7231, -2.5269 1.1489 4.7231, -2.5197 1.1519 4.7231, -2.5223 1.1516 4.7231, -2.5295 1.1444 4.7231, -2.5387 1.1468 4.7191, -2.5466 1.1489 4.7129, -2.5336 1.1557 4.7191, -2.5248 1.1506 4.7231, -2.5295 1.1588 4.7191, -2.5248 1.1607 4.7191, -2.5197 1.1614 4.7191, -2.5438 1.1557 4.7129, -2.5394 1.1614 4.7129, -2.5336 1.1658 4.7129, -2.5269 1.1686 4.7129, -2.5197 1.1696 4.7129, -2.5526 1.1506 4.7047, -2.5492 1.1588 4.7047, -2.5438 1.1658 4.7047, -2.5367 1.1713 4.7047, -2.5285 1.1747 4.7047, -2.5197 1.1758 4.7047, -2.5526 1.1607 4.6952, -2.5466 1.1686 4.6952, -2.5387 1.1747 4.6952, -2.5295 1.1785 4.6952, -2.5197 1.1798 4.6952, 2.5299 1.1798 0.0394, 2.5394 1.1758 0.0394, 2.5295 1.1785 0.0292, 2.5387 1.1747 0.0292, 2.5285 1.1747 0.0197, 2.5367 1.1713 0.0197, 2.5269 1.1686 0.0115, 2.5336 1.1658 0.0115, 2.5248 1.1607 0.0053, 2.5295 1.1588 0.0053, 2.5223 1.1516 0.0013, 2.5248 1.1506 0.0013, 2.5475 1.1696 0.0394, 2.5466 1.1686 0.0292, 2.5438 1.1658 0.0197, 2.5394 1.1614 0.0115, 2.5336 1.1557 0.0053, 2.5269 1.1489 0.0013, 2.5538 1.1614 0.0394, 2.5577 1.1519 0.0394, 2.5526 1.1607 0.0292, 2.5564 1.1516 0.0292, 2.5492 1.1588 0.0197, 2.5526 1.1506 0.0197, 2.5438 1.1557 0.0115, 2.5466 1.1489 0.0115, 2.5367 1.1516 0.0053, 2.5387 1.1468 0.0053, 2.5285 1.1468 0.0013, 2.5295 1.1444 0.0013, 2.522 -1.1517 0.0013, 2.5241 -1.1509 0.0013, 2.526 -1.1497 0.0013, 2.5277 -1.1481 0.0013, 2.5289 -1.1462 0.0013, 2.5296 -1.144 0.0013, 2.5389 -1.1461 0.0053, 2.5468 -1.1479 0.0115, 2.5529 -1.1493 0.0197, 2.5568 -1.1502 0.0292, 2.5581 -1.1505 0.0394, 2.5576 -1.1519 0.0394, 2.5539 -1.1582 0.0292, 2.5552 -1.1588 0.0394, 2.5536 -1.1613 0.0394, 2.5494 -1.1654 0.0292, 2.5505 -1.1663 0.0394, 2.5473 -1.1694 0.0394, 2.5434 -1.1715 0.0292, 2.5442 -1.1725 0.0394, 2.5393 -1.1756 0.0394, 2.5362 -1.176 0.0292, 2.5368 -1.1772 0.0394, 2.5298 -1.1796 0.0394, 2.5281 -1.1788 0.0292, 2.5284 -1.1801 0.0394, 2.5504 -1.1565 0.0197, 2.5463 -1.163 0.0197, 2.5409 -1.1684 0.0197, 2.5345 -1.1725 0.0197, 2.5273 -1.175 0.0197, 2.5448 -1.1538 0.0115, 2.5415 -1.1591 0.0115, 2.537 -1.1635 0.0115, 2.5318 -1.1668 0.0115, 2.5259 -1.1689 0.0115, 2.5374 -1.1503 0.0053, 2.5351 -1.154 0.0053, 2.532 -1.1571 0.0053, 2.5282 -1.1595 0.0053, 2.5241 -1.1609 0.0053, -2.5197 -1.1798 4.6952, -2.5295 -1.1785 4.6952, -2.5295 -1.1588 4.7191, -2.5248 -1.1506 4.7231, -2.5269 -1.1489 4.7231, -2.5295 -1.1444 4.7231, -2.5223 -1.1516 4.7231, -2.5248 -1.1607 4.7191, -2.5269 -1.1686 4.7129, -2.5197 -1.1519 4.7231, -2.5336 -1.1557 4.7191, -2.5285 -1.1468 4.7231, -2.5367 -1.1516 4.7191, -2.5387 -1.1468 4.7191, -2.5197 -1.1614 4.7191, -2.5197 -1.1696 4.7129, -2.5197 -1.1758 4.7047, -2.5336 -1.1658 4.7129, -2.5394 -1.1614 4.7129, -2.5438 -1.1557 4.7129, -2.5466 -1.1489 4.7129, -2.5285 -1.1747 4.7047, -2.5367 -1.1713 4.7047, -2.5438 -1.1658 4.7047, -2.5492 -1.1588 4.7047, -2.5526 -1.1506 4.7047, -2.5387 -1.1747 4.6952, -2.5466 -1.1686 4.6952, -2.5526 -1.1607 4.6952, -2.5564 -1.1516 4.6952, 2.5197 1.1798 4.6952, 2.5197 1.1758 4.7047, 2.5197 1.1696 4.7129, 2.5197 1.1614 4.7191, 2.5197 1.1519 4.7231, 2.5299 1.1798 4.685, 2.5394 1.1758 4.685, 2.5475 1.1696 4.685, 2.5538 1.1614 4.685, 2.5577 1.1519 4.685, 2.5299 -1.1798 4.685, 2.5394 -1.1758 4.685, 2.5475 -1.1696 4.685, 2.5538 -1.1614 4.685, 2.5577 -1.1519 4.685, 2.5197 -1.1798 4.6952, 2.5197 -1.1758 4.7047, 2.5197 -1.1696 4.7129, 2.5197 -1.1614 4.7191, 2.5197 -1.1519 4.7231, 2.5295 1.1785 4.6952, 2.5285 1.1747 4.7047, 2.5248 1.1607 4.7191, 2.5223 1.1516 4.7231, 2.5248 1.1506 4.7231, 2.5295 1.1444 4.7231, 2.5284 1.1417 4.7233, 2.5285 1.1468 4.7231, 2.5295 1.1588 4.7191, 2.5269 1.1489 4.7231, 2.5336 1.1557 4.7191, 2.5367 1.1516 4.7191, 2.5387 1.1468 4.7191, 2.5299 1.1417 4.7231, 2.5367 1.1417 4.7203, 2.5394 1.1417 4.7191, 2.544 1.1417 4.7156, 2.5269 1.1686 4.7129, 2.5336 1.1658 4.7129, 2.5394 1.1614 4.7129, 2.5438 1.1557 4.7129, 2.5466 1.1489 4.7129, 2.5475 1.1417 4.7129, 2.5367 1.1713 4.7047, 2.5438 1.1658 4.7047, 2.5492 1.1588 4.7047, 2.5526 1.1506 4.7047, 2.5502 1.1417 4.7094, 2.5387 1.1747 4.6952, 2.5466 1.1686 4.6952, 2.5526 1.1607 4.6952, 2.5564 1.1516 4.6952, 2.5538 1.1417 4.7047, 2.5549 1.1417 4.702, 2.5577 1.1417 4.6952, 2.5579 1.1417 4.6938, 2.5549 -1.1417 4.702, 2.5538 -1.1417 4.7047, 2.5526 -1.1506 4.7047, 2.5502 -1.1417 4.7094, 2.5475 -1.1417 4.7129, 2.5466 -1.1489 4.7129, 2.5387 -1.1468 4.7191, 2.5295 -1.1444 4.7231, 2.5285 -1.1468 4.7231, 2.5223 -1.1516 4.7231, 2.5284 -1.1417 4.7233, 2.544 -1.1417 4.7156, 2.5394 -1.1417 4.7191, 2.5367 -1.1417 4.7203, 2.5299 -1.1417 4.7231, 2.5336 -1.1557 4.7191, 2.5248 -1.1506 4.7231, 2.5295 -1.1588 4.7191, 2.5248 -1.1607 4.7191, 2.5367 -1.1516 4.7191, 2.5269 -1.1489 4.7231, 2.5438 -1.1557 4.7129, 2.5394 -1.1614 4.7129, 2.5336 -1.1658 4.7129, 2.5269 -1.1686 4.7129, 2.5492 -1.1588 4.7047, 2.5438 -1.1658 4.7047, 2.5367 -1.1713 4.7047, 2.5285 -1.1747 4.7047, 2.5579 -1.1417 4.6938, 2.5577 -1.1417 4.6952, 2.5564 -1.1516 4.6952, 2.5526 -1.1607 4.6952, 2.5466 -1.1686 4.6952, 2.5387 -1.1747 4.6952, 2.5295 -1.1785 4.6952
            ]
        }
        coordIndex [
            0,1,2,-1,3,4,5,-1,2,1,6,-1,6,1,7,-1,6,7,8,-1,7,3,8,-1,8,3,5,-1,8,5,9,-1,9,5,10,-1,9,10,11,-1,12,13,14,-1,14,13,15,-1,14,15,16,-1,16,15,17,-1,16,17,18,-1,18,17,19,-1,18,19,20,-1,21,22,9,-1,9,22,23,-1,9,23,24,-1,25,26,8,-1,8,26,27,-1,20,28,18,-1,18,28,29,-1,18,29,30,-1,31,32,18,-1,18,32,33,-1,34,35,36,-1,36,35,37,-1,33,38,18,-1,18,38,37,-1,18,37,39,-1,39,37,35,-1,30,40,18,-1,18,40,41,-1,18,41,31,-1,24,42,9,-1,9,42,43,-1,9,43,8,-1,8,43,44,-1,8,44,25,-1,27,45,8,-1,8,45,46,-1,8,46,14,-1,14,46,47,-1,14,47,12,-1,48,49,50,-1,50,49,51,-1,50,51,52,-1,0,53,11,-1,11,53,54,-1,11,54,9,-1,9,54,55,-1,9,55,21,-1,48,56,49,-1,49,56,57,-1,49,57,54,-1,54,57,58,-1,54,58,55,-1,51,59,60,-1,61,62,60,-1,60,62,14,-1,60,14,51,-1,51,14,16,-1,51,16,52,-1,63,64,65,-1,65,64,66,-1,65,66,67,-1,67,66,68,-1,67,68,69,-1,69,68,70,-1,61,68,62,-1,62,68,66,-1,62,66,71,-1,71,66,72,-1,71,72,73,-1,71,74,75,-1,71,75,62,-1,62,75,76,-1,62,76,77,-1,76,78,77,-1,77,78,79,-1,77,79,80,-1,81,82,83,-1,83,82,84,-1,80,85,77,-1,77,85,86,-1,77,86,87,-1,87,88,77,-1,77,88,89,-1,77,89,82,-1,82,89,90,-1,82,90,84,-1,59,51,91,-1,91,51,49,-1,91,49,73,-1,73,49,92,-1,73,92,71,-1,71,92,93,-1,71,93,74,-1,81,94,82,-1,82,94,95,-1,82,95,96,-1,96,95,97,-1,96,97,92,-1,92,97,98,-1,92,98,93,-1,99,100,96,-1,96,100,101,-1,96,101,82,-1,82,101,102,-1,82,102,77,-1,77,102,103,-1,77,103,104,-1,104,103,105,-1,104,105,106,-1,106,105,107,-1,106,107,99,-1,107,108,99,-1,99,108,109,-1,99,109,100,-1,100,109,110,-1,109,111,110,-1,110,111,112,-1,110,112,113,-1,114,115,106,-1,114,106,116,-1,117,118,119,-1,119,118,120,-1,119,120,121,-1,115,122,106,-1,106,122,123,-1,106,123,124,-1,125,126,127,-1,127,126,128,-1,127,128,129,-1,129,130,127,-1,127,130,131,-1,127,131,119,-1,119,131,132,-1,119,132,117,-1,133,134,104,-1,104,134,135,-1,104,135,127,-1,127,135,136,-1,127,136,125,-1,124,137,106,-1,106,137,138,-1,106,138,104,-1,104,138,139,-1,104,139,133,-1,140,141,142,-1,2,143,144,-1,145,146,147,-1,144,148,2,-1,2,148,149,-1,2,149,150,-1,141,151,142,-1,142,151,152,-1,142,152,145,-1,146,153,147,-1,147,153,154,-1,147,154,155,-1,156,157,6,-1,6,157,158,-1,6,158,2,-1,2,158,159,-1,2,159,143,-1,150,160,2,-1,2,160,161,-1,2,161,142,-1,142,161,162,-1,142,162,140,-1,155,163,147,-1,147,163,164,-1,147,164,6,-1,6,164,165,-1,6,165,156,-1,145,147,142,-1,142,147,166,-1,142,166,167,-1,121,116,119,-1,119,116,106,-1,119,106,168,-1,168,106,99,-1,168,99,169,-1,0,2,53,-1,53,2,142,-1,53,142,170,-1,170,142,167,-1,170,167,171,-1,169,99,172,-1,172,99,96,-1,172,96,173,-1,173,96,92,-1,173,92,174,-1,174,92,49,-1,174,49,175,-1,175,49,54,-1,175,54,176,-1,176,54,53,-1,176,53,177,-1,177,53,170,-1,177,170,178,-1,178,170,171,-1,178,171,179,-1,180,181,182,-1,182,181,183,-1,184,185,186,-1,186,185,187,-1,181,188,183,-1,183,188,189,-1,183,189,190,-1,190,189,191,-1,190,191,192,-1,192,191,193,-1,194,195,196,-1,196,195,197,-1,185,198,187,-1,187,198,199,-1,187,199,200,-1,200,199,201,-1,200,201,202,-1,202,201,203,-1,204,205,206,-1,206,205,207,-1,208,209,210,-1,210,209,211,-1,212,213,214,-1,214,213,215,-1,214,215,216,-1,216,215,217,-1,216,217,218,-1,218,217,219,-1,220,221,222,-1,222,221,223,-1,222,223,224,-1,224,223,225,-1,224,225,226,-1,226,225,227,-1,186,187,228,-1,228,187,200,-1,229,190,230,-1,230,190,192,-1,182,183,229,-1,229,183,190,-1,228,200,231,-1,231,200,202,-1,232,231,203,-1,203,231,202,-1,233,180,232,-1,232,180,231,-1,188,181,233,-1,233,181,180,-1,234,230,193,-1,193,230,192,-1,235,184,234,-1,234,184,230,-1,198,185,235,-1,235,185,184,-1,228,231,236,-1,236,231,237,-1,238,180,239,-1,239,180,182,-1,240,241,242,-1,242,241,243,-1,242,243,244,-1,244,243,245,-1,244,245,246,-1,246,245,237,-1,246,237,238,-1,238,237,231,-1,238,231,180,-1,169,172,247,-1,247,172,173,-1,247,173,174,-1,175,176,248,-1,242,249,240,-1,240,249,250,-1,240,250,251,-1,251,250,247,-1,251,247,248,-1,248,247,174,-1,248,174,175,-1,176,177,248,-1,248,177,178,-1,248,178,179,-1,252,127,119,-1,169,247,168,-1,168,247,119,-1,119,247,252,-1,252,247,250,-1,252,250,253,-1,253,250,249,-1,253,249,254,-1,254,249,255,-1,255,249,242,-1,255,242,256,-1,256,242,244,-1,256,244,257,-1,257,244,246,-1,257,246,258,-1,246,238,258,-1,258,238,239,-1,258,239,259,-1,259,239,182,-1,259,182,229,-1,186,228,260,-1,260,228,236,-1,260,236,261,-1,236,237,261,-1,261,237,245,-1,261,245,262,-1,262,245,243,-1,262,243,263,-1,263,243,241,-1,263,241,264,-1,264,241,265,-1,179,171,248,-1,248,171,167,-1,241,240,265,-1,265,240,251,-1,265,251,266,-1,266,251,248,-1,266,248,267,-1,267,248,167,-1,267,167,166,-1,229,230,259,-1,259,230,258,-1,261,184,260,-1,260,184,186,-1,254,255,264,-1,264,255,256,-1,264,256,263,-1,263,256,257,-1,263,257,262,-1,262,257,258,-1,262,258,261,-1,261,258,230,-1,261,230,184,-1,166,147,267,-1,267,147,6,-1,6,8,267,-1,267,8,14,-1,267,14,62,-1,104,127,252,-1,104,252,77,-1,264,265,254,-1,254,265,266,-1,254,266,253,-1,253,266,267,-1,253,267,252,-1,252,267,62,-1,252,62,77,-1,212,214,268,-1,212,268,269,-1,268,270,269,-1,269,270,271,-1,269,271,272,-1,271,273,272,-1,272,273,274,-1,272,274,275,-1,274,276,275,-1,275,276,277,-1,275,277,278,-1,278,277,279,-1,278,279,280,-1,280,279,281,-1,280,281,282,-1,282,281,283,-1,282,283,284,-1,284,283,285,-1,284,285,286,-1,286,285,234,-1,286,234,193,-1,287,288,289,-1,289,288,290,-1,289,290,291,-1,291,290,224,-1,291,224,226,-1,188,233,292,-1,292,233,293,-1,292,293,294,-1,294,293,295,-1,294,295,296,-1,296,295,297,-1,296,297,298,-1,298,297,299,-1,298,299,300,-1,300,299,301,-1,300,301,287,-1,287,301,302,-1,287,302,288,-1,193,191,286,-1,286,191,303,-1,286,303,284,-1,284,303,282,-1,282,303,304,-1,282,304,280,-1,280,304,278,-1,278,304,305,-1,278,305,275,-1,275,305,306,-1,275,306,272,-1,272,306,307,-1,272,307,269,-1,269,307,213,-1,269,213,212,-1,234,285,235,-1,235,285,308,-1,308,285,309,-1,309,285,283,-1,309,283,310,-1,310,283,281,-1,310,281,311,-1,311,281,279,-1,311,279,312,-1,312,279,277,-1,312,277,313,-1,313,277,276,-1,313,276,314,-1,314,276,274,-1,314,274,315,-1,315,274,273,-1,315,273,316,-1,316,273,271,-1,316,271,317,-1,317,271,270,-1,317,270,318,-1,270,268,318,-1,318,268,214,-1,318,214,216,-1,319,320,299,-1,222,224,290,-1,222,290,321,-1,321,290,288,-1,321,288,322,-1,322,288,302,-1,322,302,323,-1,299,320,301,-1,301,320,302,-1,302,320,324,-1,302,324,323,-1,319,299,325,-1,325,299,297,-1,325,297,295,-1,293,233,232,-1,293,232,295,-1,295,232,326,-1,295,326,325,-1,226,227,327,-1,226,327,291,-1,291,327,328,-1,291,328,289,-1,289,328,329,-1,289,329,287,-1,287,329,300,-1,300,329,330,-1,300,330,298,-1,298,330,296,-1,296,330,331,-1,296,331,294,-1,294,331,292,-1,292,331,189,-1,292,189,188,-1,191,189,332,-1,191,332,333,-1,333,332,334,-1,333,334,335,-1,335,334,336,-1,335,336,337,-1,337,336,338,-1,337,338,339,-1,339,338,340,-1,339,340,341,-1,341,340,204,-1,341,204,206,-1,342,343,344,-1,344,343,345,-1,344,345,346,-1,346,345,347,-1,346,347,348,-1,348,347,349,-1,348,349,350,-1,350,349,351,-1,350,351,352,-1,352,351,353,-1,352,353,191,-1,343,354,345,-1,345,354,355,-1,345,355,347,-1,347,355,356,-1,347,356,349,-1,349,356,357,-1,349,357,351,-1,351,357,358,-1,351,358,353,-1,353,358,359,-1,353,359,191,-1,206,342,341,-1,341,342,344,-1,341,344,339,-1,339,344,346,-1,339,346,337,-1,337,346,348,-1,337,348,335,-1,335,348,350,-1,335,350,333,-1,333,350,352,-1,333,352,191,-1,360,361,362,-1,362,361,363,-1,362,363,364,-1,364,363,365,-1,364,365,366,-1,366,365,367,-1,366,367,368,-1,368,367,369,-1,368,369,370,-1,370,369,371,-1,370,371,191,-1,361,213,363,-1,363,213,307,-1,363,307,365,-1,365,307,306,-1,365,306,367,-1,367,306,305,-1,367,305,369,-1,369,305,304,-1,369,304,371,-1,371,304,303,-1,371,303,191,-1,354,360,355,-1,355,360,362,-1,355,362,356,-1,356,362,364,-1,356,364,357,-1,357,364,366,-1,357,366,358,-1,358,366,368,-1,358,368,359,-1,359,368,370,-1,359,370,191,-1,198,235,372,-1,372,235,308,-1,372,308,373,-1,373,308,309,-1,373,309,374,-1,374,309,310,-1,374,310,375,-1,375,310,311,-1,375,311,376,-1,376,311,312,-1,376,312,377,-1,377,312,313,-1,377,313,378,-1,313,314,378,-1,378,314,315,-1,378,315,379,-1,315,316,379,-1,379,316,317,-1,379,317,218,-1,218,317,318,-1,218,318,216,-1,220,222,321,-1,220,321,380,-1,380,321,322,-1,380,322,381,-1,381,322,323,-1,381,323,382,-1,382,323,324,-1,382,324,383,-1,383,324,320,-1,383,320,384,-1,384,320,319,-1,384,319,385,-1,385,319,325,-1,385,325,386,-1,386,325,326,-1,386,326,387,-1,387,326,232,-1,387,232,203,-1,388,389,390,-1,390,389,391,-1,390,391,392,-1,392,391,393,-1,392,393,394,-1,394,393,395,-1,394,395,396,-1,396,395,397,-1,396,397,398,-1,398,397,399,-1,398,399,189,-1,389,400,391,-1,391,400,401,-1,391,401,393,-1,393,401,402,-1,393,402,395,-1,395,402,403,-1,395,403,397,-1,397,403,404,-1,397,404,399,-1,399,404,405,-1,399,405,189,-1,227,388,327,-1,327,388,390,-1,327,390,328,-1,328,390,392,-1,328,392,329,-1,329,392,394,-1,329,394,330,-1,330,394,396,-1,330,396,331,-1,331,396,398,-1,331,398,189,-1,406,407,408,-1,408,407,409,-1,408,409,410,-1,410,409,411,-1,410,411,412,-1,412,411,413,-1,412,413,414,-1,414,413,415,-1,414,415,416,-1,416,415,417,-1,416,417,189,-1,407,204,409,-1,409,204,340,-1,409,340,411,-1,411,340,338,-1,411,338,413,-1,413,338,336,-1,413,336,415,-1,415,336,334,-1,415,334,417,-1,417,334,332,-1,417,332,189,-1,400,406,401,-1,401,406,408,-1,401,408,402,-1,402,408,410,-1,402,410,403,-1,403,410,412,-1,403,412,404,-1,404,412,414,-1,404,414,405,-1,405,414,416,-1,405,416,189,-1,215,213,361,-1,215,361,418,-1,418,361,360,-1,418,360,419,-1,419,360,354,-1,419,354,420,-1,420,354,343,-1,420,343,421,-1,421,343,342,-1,421,342,422,-1,422,342,206,-1,422,206,207,-1,218,219,423,-1,218,423,379,-1,379,423,424,-1,379,424,378,-1,378,424,425,-1,378,425,377,-1,377,425,376,-1,376,425,426,-1,376,426,375,-1,375,426,374,-1,374,426,427,-1,374,427,373,-1,373,427,372,-1,372,427,199,-1,372,199,198,-1,196,197,428,-1,196,428,429,-1,429,428,430,-1,429,430,431,-1,431,430,432,-1,431,432,433,-1,433,432,434,-1,433,434,435,-1,435,434,436,-1,435,436,437,-1,437,436,201,-1,437,201,199,-1,203,201,387,-1,387,201,438,-1,387,438,386,-1,386,438,385,-1,385,438,439,-1,385,439,384,-1,384,439,383,-1,383,439,440,-1,383,440,382,-1,382,440,441,-1,382,441,381,-1,381,441,442,-1,381,442,380,-1,380,442,221,-1,380,221,220,-1,227,225,443,-1,227,443,388,-1,388,443,444,-1,388,444,389,-1,389,444,445,-1,389,445,400,-1,400,445,446,-1,400,446,406,-1,406,446,447,-1,406,447,407,-1,407,447,205,-1,407,205,204,-1,207,205,448,-1,207,448,449,-1,449,448,450,-1,449,450,451,-1,451,450,452,-1,451,452,453,-1,453,452,454,-1,453,454,455,-1,455,454,456,-1,455,456,457,-1,457,456,211,-1,457,211,209,-1,207,449,458,-1,459,460,461,-1,209,462,463,-1,461,460,209,-1,464,209,460,-1,464,460,465,-1,465,460,459,-1,465,459,466,-1,457,209,464,-1,467,468,469,-1,469,468,463,-1,469,463,470,-1,470,463,462,-1,470,462,471,-1,457,464,455,-1,455,464,465,-1,455,465,453,-1,453,465,466,-1,453,466,451,-1,472,467,473,-1,473,467,469,-1,473,469,474,-1,474,469,470,-1,474,470,475,-1,475,470,471,-1,475,471,476,-1,477,472,478,-1,478,472,473,-1,478,473,479,-1,479,473,474,-1,479,474,480,-1,480,474,475,-1,480,475,481,-1,481,475,476,-1,481,476,482,-1,449,477,458,-1,458,477,478,-1,458,478,483,-1,483,478,479,-1,483,479,484,-1,484,479,480,-1,484,480,485,-1,485,480,481,-1,485,481,486,-1,486,481,482,-1,486,482,487,-1,207,458,422,-1,422,458,483,-1,422,483,421,-1,421,483,484,-1,421,484,420,-1,420,484,485,-1,420,485,419,-1,419,485,486,-1,419,486,418,-1,418,486,487,-1,418,487,215,-1,468,209,463,-1,449,451,477,-1,477,451,466,-1,477,466,472,-1,472,466,459,-1,472,459,467,-1,467,459,461,-1,467,461,468,-1,468,461,209,-1,488,489,490,-1,490,489,491,-1,490,491,492,-1,492,491,493,-1,492,493,494,-1,494,493,495,-1,494,495,496,-1,496,495,497,-1,496,497,498,-1,498,497,499,-1,498,499,199,-1,489,500,491,-1,491,500,501,-1,491,501,493,-1,493,501,502,-1,493,502,495,-1,495,502,503,-1,495,503,497,-1,497,503,504,-1,497,504,499,-1,499,504,505,-1,499,505,199,-1,219,488,423,-1,423,488,490,-1,423,490,424,-1,424,490,492,-1,424,492,425,-1,425,492,494,-1,425,494,426,-1,426,494,496,-1,426,496,427,-1,427,496,498,-1,427,498,199,-1,506,507,508,-1,508,507,509,-1,508,509,510,-1,510,509,511,-1,510,511,512,-1,512,511,513,-1,512,513,514,-1,514,513,515,-1,514,515,516,-1,516,515,517,-1,516,517,199,-1,507,196,509,-1,509,196,429,-1,509,429,511,-1,511,429,431,-1,511,431,513,-1,513,431,433,-1,513,433,515,-1,515,433,435,-1,515,435,517,-1,517,435,437,-1,517,437,199,-1,500,506,501,-1,501,506,508,-1,501,508,502,-1,502,508,510,-1,502,510,503,-1,503,510,512,-1,503,512,504,-1,504,512,514,-1,504,514,505,-1,505,514,516,-1,505,516,199,-1,518,438,201,-1,518,201,519,-1,520,519,201,-1,521,520,201,-1,522,521,201,-1,523,522,201,-1,436,523,201,-1,436,434,524,-1,434,432,525,-1,432,430,526,-1,430,428,527,-1,428,197,528,-1,428,528,527,-1,527,528,529,-1,527,529,530,-1,529,531,530,-1,530,531,532,-1,530,532,533,-1,532,534,533,-1,533,534,535,-1,533,535,536,-1,535,537,536,-1,536,537,538,-1,536,538,539,-1,538,540,539,-1,539,540,541,-1,539,541,542,-1,541,543,542,-1,542,543,221,-1,542,221,442,-1,430,527,526,-1,526,527,530,-1,526,530,544,-1,544,530,533,-1,544,533,545,-1,545,533,536,-1,545,536,546,-1,546,536,539,-1,546,539,547,-1,547,539,542,-1,547,542,548,-1,548,542,442,-1,548,442,441,-1,432,526,525,-1,525,526,544,-1,525,544,549,-1,549,544,545,-1,549,545,550,-1,550,545,546,-1,550,546,551,-1,551,546,547,-1,551,547,552,-1,552,547,548,-1,552,548,553,-1,553,548,441,-1,553,441,440,-1,434,525,524,-1,524,525,549,-1,524,549,554,-1,554,549,550,-1,554,550,555,-1,555,550,551,-1,555,551,556,-1,556,551,552,-1,556,552,557,-1,557,552,553,-1,557,553,558,-1,558,553,440,-1,558,440,439,-1,436,524,523,-1,523,524,554,-1,523,554,522,-1,522,554,555,-1,522,555,521,-1,521,555,556,-1,521,556,520,-1,520,556,557,-1,520,557,519,-1,519,557,558,-1,519,558,518,-1,518,558,439,-1,518,439,438,-1,225,559,560,-1,561,562,563,-1,211,456,564,-1,563,562,211,-1,565,211,562,-1,565,562,566,-1,566,562,561,-1,566,561,567,-1,568,211,565,-1,569,570,571,-1,571,570,564,-1,571,564,572,-1,572,564,456,-1,572,456,454,-1,568,565,573,-1,573,565,566,-1,573,566,574,-1,574,566,567,-1,574,567,575,-1,576,569,577,-1,577,569,571,-1,577,571,578,-1,578,571,572,-1,578,572,579,-1,579,572,454,-1,579,454,452,-1,580,576,581,-1,581,576,577,-1,581,577,582,-1,582,577,578,-1,582,578,583,-1,583,578,579,-1,583,579,584,-1,584,579,452,-1,584,452,450,-1,559,580,560,-1,560,580,581,-1,560,581,585,-1,585,581,582,-1,585,582,586,-1,586,582,583,-1,586,583,587,-1,587,583,584,-1,587,584,588,-1,588,584,450,-1,588,450,448,-1,225,560,443,-1,443,560,585,-1,443,585,444,-1,444,585,586,-1,444,586,445,-1,445,586,587,-1,445,587,446,-1,446,587,588,-1,446,588,447,-1,447,588,448,-1,447,448,205,-1,570,211,564,-1,559,575,580,-1,580,575,567,-1,580,567,576,-1,576,567,561,-1,576,561,569,-1,569,561,563,-1,569,563,570,-1,570,563,211,-1,217,215,487,-1,217,487,589,-1,589,487,482,-1,589,482,590,-1,590,482,476,-1,590,476,591,-1,591,476,471,-1,591,471,592,-1,592,471,462,-1,592,462,593,-1,593,462,209,-1,593,209,208,-1,219,217,594,-1,219,594,488,-1,488,594,595,-1,488,595,489,-1,489,595,596,-1,489,596,500,-1,500,596,597,-1,500,597,506,-1,506,597,598,-1,506,598,507,-1,507,598,194,-1,507,194,196,-1,221,543,223,-1,223,543,599,-1,543,541,599,-1,599,541,540,-1,599,540,600,-1,540,538,600,-1,600,538,537,-1,600,537,601,-1,601,537,535,-1,601,535,602,-1,535,534,602,-1,602,534,532,-1,602,532,603,-1,532,531,603,-1,603,531,529,-1,603,529,195,-1,195,529,528,-1,195,528,197,-1,225,223,604,-1,225,604,559,-1,559,604,605,-1,559,605,575,-1,575,605,606,-1,575,606,574,-1,574,606,607,-1,574,607,573,-1,573,607,608,-1,573,608,568,-1,568,608,210,-1,568,210,211,-1,217,589,609,-1,589,590,610,-1,611,612,613,-1,613,612,208,-1,593,208,612,-1,614,208,615,-1,616,208,614,-1,593,612,592,-1,592,612,611,-1,592,611,591,-1,617,618,619,-1,619,618,616,-1,619,616,620,-1,620,616,614,-1,620,614,621,-1,615,622,614,-1,614,622,623,-1,614,623,621,-1,621,623,624,-1,621,624,625,-1,626,617,627,-1,627,617,619,-1,627,619,628,-1,628,619,620,-1,628,620,629,-1,629,620,621,-1,629,621,630,-1,630,621,625,-1,630,625,631,-1,590,626,610,-1,610,626,627,-1,610,627,632,-1,632,627,628,-1,632,628,633,-1,633,628,629,-1,633,629,634,-1,634,629,630,-1,634,630,635,-1,635,630,631,-1,635,631,636,-1,589,610,609,-1,609,610,632,-1,609,632,637,-1,637,632,633,-1,637,633,638,-1,638,633,634,-1,638,634,639,-1,639,634,635,-1,639,635,640,-1,618,208,616,-1,590,591,626,-1,626,591,611,-1,626,611,617,-1,617,611,613,-1,617,613,618,-1,618,613,208,-1,636,641,635,-1,635,641,642,-1,635,642,640,-1,640,642,643,-1,640,643,644,-1,217,609,594,-1,594,609,637,-1,594,637,595,-1,595,637,638,-1,595,638,596,-1,596,638,639,-1,596,639,597,-1,597,639,640,-1,597,640,598,-1,598,640,644,-1,598,644,194,-1,645,646,647,-1,648,649,650,-1,651,652,653,-1,210,608,654,-1,653,652,210,-1,655,210,652,-1,656,657,651,-1,651,657,658,-1,651,658,652,-1,652,658,659,-1,652,659,655,-1,660,661,662,-1,662,661,654,-1,662,654,663,-1,663,654,608,-1,663,608,607,-1,649,656,650,-1,650,656,651,-1,650,651,664,-1,664,651,653,-1,664,653,665,-1,665,653,210,-1,666,660,667,-1,667,660,662,-1,667,662,668,-1,668,662,663,-1,668,663,669,-1,669,663,607,-1,669,607,606,-1,647,666,670,-1,670,666,667,-1,670,667,671,-1,671,667,668,-1,671,668,672,-1,672,668,669,-1,672,669,673,-1,673,669,606,-1,673,606,605,-1,674,675,676,-1,676,675,645,-1,645,647,676,-1,676,647,670,-1,676,670,677,-1,677,670,671,-1,677,671,678,-1,678,671,672,-1,678,672,679,-1,679,672,673,-1,679,673,680,-1,680,673,605,-1,680,605,604,-1,603,195,674,-1,674,676,603,-1,603,676,677,-1,603,677,602,-1,602,677,678,-1,602,678,601,-1,601,678,679,-1,601,679,600,-1,600,679,680,-1,600,680,599,-1,599,680,604,-1,599,604,223,-1,661,210,654,-1,646,648,647,-1,647,648,650,-1,647,650,666,-1,666,650,664,-1,666,664,660,-1,660,664,665,-1,660,665,661,-1,661,665,210,-1,210,655,208,-1,208,655,615,-1,615,655,622,-1,622,655,659,-1,622,659,623,-1,623,659,658,-1,623,658,624,-1,624,658,657,-1,624,657,625,-1,625,657,656,-1,625,656,631,-1,631,656,649,-1,631,649,636,-1,636,649,648,-1,636,648,641,-1,641,648,646,-1,641,646,642,-1,642,646,645,-1,642,645,643,-1,643,645,675,-1,643,675,644,-1,675,674,644,-1,644,674,195,-1,644,195,194,-1,
        ]
    }
}
Shape{
    appearance Appearance {
        material  Material 	{
            diffuseColor 0.7686274509803922 0.7686274509803922 0.7686274509803922
            specularColor 0.615686274509804 0.615686274509804 0.615686274509804
            ambientIntensity 0.7686
            transparency 0.0
            shininess 0.5
        }
    }
    geometry IndexedFaceSet {
        ccw TRUE
        solid FALSE
        coord DEF co Coordinate {
            point [
                2.126 0.0 0.3937, 2.1206 0.0408 -1.378, 2.1206 0.0408 0.3937, 2.1049 0.0787 -1.378, 2.1049 0.0787 0.3937, 2.0799 0.1114 -1.378, 2.0799 0.1114 0.3937, 2.0472 0.1364 -1.378, 2.0472 0.1364 0.3937, 2.0093 0.1521 -1.378, 2.0093 0.1521 0.3937, 1.9685 0.1575 -1.378, 1.9685 0.1575 0.3937, 1.9277 0.1521 -1.378, 1.9277 0.1521 0.3937, 1.8898 0.1364 -1.378, 1.8898 0.1364 0.3937, 1.8571 0.1114 -1.378, 1.8571 0.1114 0.3937, 1.8321 0.0787 -1.378, 1.8321 0.0787 0.3937, 1.8164 0.0408 -1.378, 1.8164 0.0408 0.3937, 1.811 0.0 -1.378, 1.811 0.0 0.3937, 1.8164 -0.0408 -1.378, 1.8164 -0.0408 0.3937, 1.8321 -0.0787 -1.378, 1.8321 -0.0787 0.3937, 1.8571 -0.1114 -1.378, 1.8571 -0.1114 0.3937, 1.8898 -0.1364 -1.378, 1.8898 -0.1364 0.3937, 1.9277 -0.1521 -1.378, 1.9277 -0.1521 0.3937, 1.9685 -0.1575 -1.378, 1.9685 -0.1575 0.3937, 2.0093 -0.1521 -1.378, 2.0093 -0.1521 0.3937, 2.0472 -0.1364 -1.378, 2.0472 -0.1364 0.3937, 2.0799 -0.1114 -1.378, 2.0799 -0.1114 0.3937, 2.1049 -0.0787 -1.378, 2.1049 -0.0787 0.3937, 2.1206 -0.0408 -1.378, 2.1206 -0.0408 0.3937, 2.126 0.0 -1.378, 1.9685 0.0 -1.378, -1.811 0.0 0.3937, -1.8164 0.0408 -1.378, -1.8164 0.0408 0.3937, -1.8321 0.0787 -1.378, -1.8321 0.0787 0.3937, -1.8571 0.1114 -1.378, -1.8571 0.1114 0.3937, -1.8898 0.1364 -1.378, -1.8898 0.1364 0.3937, -1.9277 0.1521 -1.378, -1.9277 0.1521 0.3937, -1.9685 0.1575 -1.378, -1.9685 0.1575 0.3937, -2.0093 0.1521 -1.378, -2.0093 0.1521 0.3937, -2.0472 0.1364 -1.378, -2.0472 0.1364 0.3937, -2.0799 0.1114 -1.378, -2.0799 0.1114 0.3937, -2.1049 0.0787 -1.378, -2.1049 0.0787 0.3937, -2.1206 0.0408 -1.378, -2.1206 0.0408 0.3937, -2.126 0.0 -1.378, -2.126 0.0 0.3937, -2.1206 -0.0408 -1.378, -2.1206 -0.0408 0.3937, -2.1049 -0.0787 -1.378, -2.1049 -0.0787 0.3937, -2.0799 -0.1114 -1.378, -2.0799 -0.1114 0.3937, -2.0472 -0.1364 -1.378, -2.0472 -0.1364 0.3937, -2.0093 -0.1521 -1.378, -2.0093 -0.1521 0.3937, -1.9685 -0.1575 -1.378, -1.9685 -0.1575 0.3937, -1.9277 -0.1521 -1.378, -1.9277 -0.1521 0.3937, -1.8898 -0.1364 -1.378, -1.8898 -0.1364 0.3937, -1.8571 -0.1114 -1.378, -1.8571 -0.1114 0.3937, -1.8321 -0.0787 -1.378, -1.8321 -0.0787 0.3937, -1.8164 -0.0408 -1.378, -1.8164 -0.0408 0.3937, -1.811 0.0 -1.378, -1.9685 0.0 -1.378
            ]
        }
        coordIndex [
            0,1,2,-1,2,1,3,-1,2,3,4,-1,4,3,5,-1,4,5,6,-1,6,5,7,-1,6,7,8,-1,8,7,9,-1,8,9,10,-1,10,9,11,-1,10,11,12,-1,12,11,13,-1,12,13,14,-1,14,13,15,-1,14,15,16,-1,16,15,17,-1,16,17,18,-1,18,17,19,-1,18,19,20,-1,20,19,21,-1,20,21,22,-1,22,21,23,-1,22,23,24,-1,24,23,25,-1,24,25,26,-1,26,25,27,-1,26,27,28,-1,28,27,29,-1,28,29,30,-1,30,29,31,-1,30,31,32,-1,32,31,33,-1,32,33,34,-1,34,33,35,-1,34,35,36,-1,36,35,37,-1,36,37,38,-1,38,37,39,-1,38,39,40,-1,40,39,41,-1,40,41,42,-1,42,41,43,-1,42,43,44,-1,44,43,45,-1,44,45,46,-1,46,45,47,-1,46,47,0,-1,0,47,1,-1,27,25,48,-1,48,25,23,-1,48,23,21,-1,33,31,48,-1,48,31,29,-1,48,29,27,-1,39,37,48,-1,48,37,35,-1,48,35,33,-1,45,43,48,-1,48,43,41,-1,48,41,39,-1,3,1,48,-1,48,1,47,-1,48,47,45,-1,9,7,48,-1,48,7,5,-1,48,5,3,-1,15,13,48,-1,48,13,11,-1,48,11,9,-1,21,19,48,-1,48,19,17,-1,48,17,15,-1,49,50,51,-1,51,50,52,-1,51,52,53,-1,53,52,54,-1,53,54,55,-1,55,54,56,-1,55,56,57,-1,57,56,58,-1,57,58,59,-1,59,58,60,-1,59,60,61,-1,61,60,62,-1,61,62,63,-1,63,62,64,-1,63,64,65,-1,65,64,66,-1,65,66,67,-1,67,66,68,-1,67,68,69,-1,69,68,70,-1,69,70,71,-1,71,70,72,-1,71,72,73,-1,73,72,74,-1,73,74,75,-1,75,74,76,-1,75,76,77,-1,77,76,78,-1,77,78,79,-1,79,78,80,-1,79,80,81,-1,81,80,82,-1,81,82,83,-1,83,82,84,-1,83,84,85,-1,85,84,86,-1,85,86,87,-1,87,86,88,-1,87,88,89,-1,89,88,90,-1,89,90,91,-1,91,90,92,-1,91,92,93,-1,93,92,94,-1,93,94,95,-1,95,94,96,-1,95,96,49,-1,49,96,50,-1,76,74,97,-1,97,74,72,-1,97,72,70,-1,82,80,97,-1,97,80,78,-1,97,78,76,-1,88,86,97,-1,97,86,84,-1,97,84,82,-1,94,92,97,-1,97,92,90,-1,97,90,88,-1,52,50,97,-1,97,50,96,-1,97,96,94,-1,58,56,97,-1,97,56,54,-1,97,54,52,-1,64,62,97,-1,97,62,60,-1,97,60,58,-1,70,68,97,-1,97,68,66,-1,97,66,64,-1,
        ]
    }
}
Shape{
    appearance Appearance {
        material  Material 	{
            diffuseColor 1.0 1.0 1.0
            specularColor 0.8784313725490196 0.8784313725490196 0.8784313725490196
            ambientIntensity 1.0
            transparency 0.0
            shininess 0.5
        }
    }
    geometry IndexedFaceSet {
        ccw TRUE
        solid FALSE
        coord DEF co Coordinate {
            point [
                -0.6262 0.2053 0.3937, -0.6262 0.2053 0.3976, -0.7738 -0.1729 0.3937, -0.7798 -0.1884 0.3976, -0.7798 -0.1884 0.3937, -0.7222 -0.1884 0.3976, -0.7222 -0.1884 0.3937, -0.7166 -0.1729 0.3937, -0.6824 -0.078 0.3976, -0.6824 -0.078 0.3937, -0.5197 -0.078 0.3976, -0.5197 -0.078 0.3937, -0.4874 -0.1729 0.3937, -0.4821 -0.1884 0.3976, -0.4821 -0.1884 0.3937, -0.4245 -0.1884 0.3976, -0.4245 -0.1884 0.3937, -0.4304 -0.1729 0.3937, -0.5734 0.2053 0.3976, -0.5734 0.2053 0.3937, -0.533 -0.0348 0.3976, -0.6647 -0.0348 0.3976, -0.5917 0.1297 0.3976, -0.5955 0.1433 0.3976, -0.598 0.1573 0.3976, -0.5993 0.1573 0.3976, -0.6019 0.1434 0.3976, -0.6054 0.1297 0.3976, -0.533 -0.0348 0.3937, -0.6647 -0.0348 0.3937, -0.5917 0.1297 0.3937, -0.5955 0.1433 0.3937, -0.598 0.1573 0.3937, -0.5993 0.1573 0.3937, -0.6019 0.1434 0.3937, -0.6054 0.1297 0.3937, -0.1859 -0.1884 0.3976, -0.0788 -0.1884 0.3976, -0.1859 -0.1884 0.3937, -0.0788 -0.1884 0.3937, -0.0788 -0.1729 0.3937, -0.0788 0.2053 0.3976, -0.0788 0.2053 0.3937, -0.1899 0.2053 0.3976, -0.1899 0.2053 0.3937, -0.3957 0.0134 0.3976, -0.3957 0.0134 0.3937, -0.3929 0.0505 0.3937, -0.3929 0.0505 0.3976, -0.3823 0.0892 0.3937, -0.3823 0.0892 0.3976, -0.364 0.1231 0.3937, -0.364 0.1231 0.3976, -0.3362 0.154 0.3937, -0.3362 0.154 0.3976, -0.3357 0.1543 0.3937, -0.3357 0.1543 0.3976, -0.2929 0.183 0.3937, -0.2929 0.183 0.3976, -0.2468 0.1992 0.3937, -0.2468 0.1992 0.3976, -0.2346 -0.1841 0.3937, -0.2722 -0.1729 0.3937, -0.28 -0.1706 0.3976, -0.2346 -0.1841 0.3976, -0.28 -0.1706 0.3937, -0.3211 -0.1467 0.3937, -0.3211 -0.1467 0.3976, -0.3535 -0.1157 0.3937, -0.3535 -0.1157 0.3976, -0.3761 -0.0805 0.3937, -0.3761 -0.0805 0.3976, -0.3902 -0.0393 0.3937, -0.3902 -0.0393 0.3976, -0.3167 0.1069 0.3976, -0.2976 0.1272 0.3976, -0.2688 0.1458 0.3976, -0.2363 0.1571 0.3976, -0.1897 0.1621 0.3976, -0.1317 0.1621 0.3976, -0.1317 -0.1452 0.3976, -0.1875 -0.1452 0.3976, -0.2291 -0.1413 0.3976, -0.2622 -0.131 0.3976, -0.2891 -0.115 0.3976, -0.3111 -0.0932 0.3976, -0.3277 -0.0661 0.3976, -0.3393 -0.0291 0.3976, -0.3429 0.0123 0.3976, -0.3396 0.0515 0.3976, -0.3304 0.0826 0.3976, -0.1897 0.1621 0.3937, -0.1317 0.1621 0.3937, -0.2363 0.1571 0.3937, -0.2688 0.1458 0.3937, -0.2976 0.1272 0.3937, -0.3167 0.1069 0.3937, -0.3304 0.0826 0.3937, -0.3396 0.0515 0.3937, -0.3429 0.0123 0.3937, -0.3393 -0.0291 0.3937, -0.3277 -0.0661 0.3937, -0.3111 -0.0932 0.3937, -0.2891 -0.115 0.3937, -0.2622 -0.131 0.3937, -0.2291 -0.1413 0.3937, -0.1875 -0.1452 0.3937, -0.1317 -0.1452 0.3937, -0.002 -0.1452 0.3937, -0.002 -0.1452 0.3976, -0.002 -0.1729 0.3937, -0.002 -0.1884 0.3976, -0.002 -0.1884 0.3937, 0.2092 -0.1884 0.3976, 0.2092 -0.1884 0.3937, 0.2092 -0.1729 0.3937, 0.2092 0.2053 0.3976, 0.2092 0.2053 0.3937, 0.0076 0.2053 0.3976, 0.0076 0.2053 0.3937, 0.0076 0.1621 0.3976, 0.0076 0.1621 0.3937, 0.1564 0.1621 0.3976, 0.1564 0.1621 0.3937, 0.1564 0.0325 0.3976, 0.1564 0.0325 0.3937, 0.0172 0.0325 0.3976, 0.0172 0.0325 0.3937, 0.0172 -0.0108 0.3976, 0.0172 -0.0108 0.3937, 0.1564 -0.0108 0.3976, 0.1564 -0.0108 0.3937, 0.1564 -0.1452 0.3976, 0.1564 -0.1452 0.3937, 0.2861 -0.1248 0.3976, 0.2861 -0.168 0.3976, 0.2861 -0.1248 0.3937, 0.2861 -0.168 0.3937, 0.2981 -0.1729 0.3937, 0.328 -0.1852 0.3976, 0.328 -0.1852 0.3937, 0.3836 -0.193 0.3976, 0.3836 -0.193 0.3937, 0.3944 -0.1932 0.3976, 0.3944 -0.1932 0.3937, 0.5127 -0.1548 0.3937, 0.5423 -0.1237 0.3976, 0.5423 -0.1237 0.3937, 0.5633 -0.0862 0.3976, 0.5633 -0.0862 0.3937, 0.5751 -0.0446 0.3976, 0.5751 -0.0446 0.3937, 0.5789 0.001 0.3976, 0.5789 0.001 0.3937, 0.4843 -0.1729 0.3937, 0.4811 -0.175 0.3976, 0.5127 -0.1548 0.3976, 0.4811 -0.175 0.3937, 0.4429 -0.1882 0.3937, 0.4429 -0.1882 0.3976, 0.3787 0.2101 0.3976, 0.3787 0.2101 0.3937, 0.4182 0.2069 0.3937, 0.4182 0.2069 0.3976, 0.4621 0.1941 0.3937, 0.4621 0.1941 0.3976, 0.4995 0.1726 0.3937, 0.4995 0.1726 0.3976, 0.5351 0.1384 0.3937, 0.5351 0.1384 0.3976, 0.5581 0.1016 0.3937, 0.5581 0.1016 0.3976, 0.5733 0.057 0.3937, 0.5733 0.057 0.3976, 0.2861 0.1945 0.3976, 0.2861 0.1945 0.3937, 0.3316 0.2069 0.3937, 0.3316 0.2069 0.3976, 0.2861 0.1417 0.3976, 0.2861 0.1417 0.3937, 0.3783 0.1669 0.3976, 0.3783 0.1669 0.3937, 0.3304 0.1607 0.3937, 0.3304 0.1607 0.3976, 0.5261 0.0043 0.3976, 0.5261 0.0043 0.3937, 0.5242 0.0349 0.3937, 0.5242 0.0349 0.3976, 0.5137 0.077 0.3937, 0.5137 0.077 0.3976, 0.4975 0.1074 0.3937, 0.4975 0.1074 0.3976, 0.4737 0.1337 0.3937, 0.4737 0.1337 0.3976, 0.4465 0.1519 0.3937, 0.4465 0.1519 0.3976, 0.417 0.1625 0.3937, 0.417 0.1625 0.3976, 0.3871 -0.15 0.3976, 0.3871 -0.15 0.3937, 0.4238 -0.1459 0.3937, 0.4238 -0.1459 0.3976, 0.4525 -0.1353 0.3937, 0.4525 -0.1353 0.3976, 0.4767 -0.119 0.3937, 0.4767 -0.119 0.3976, 0.4951 -0.0995 0.3937, 0.4951 -0.0995 0.3976, 0.5114 -0.0722 0.3937, 0.5114 -0.0722 0.3976, 0.5221 -0.0384 0.3937, 0.5221 -0.0384 0.3976, 0.2931 -0.1287 0.3937, 0.2931 -0.1287 0.3976, 0.3348 -0.1442 0.3937, 0.3348 -0.1442 0.3976, 0.6125 -0.1452 0.3937, 0.6125 -0.1452 0.3976, 0.6125 -0.1729 0.3937, 0.6125 -0.1884 0.3976, 0.6125 -0.1884 0.3937, 0.8142 -0.1884 0.3976, 0.8142 -0.1884 0.3937, 0.8142 -0.1729 0.3937, 0.8142 0.2053 0.3976, 0.8142 0.2053 0.3937, 0.7614 0.2053 0.3976, 0.7614 0.2053 0.3937, 0.7614 -0.1452 0.3976, 0.7614 -0.1452 0.3937
            ]
        }
        coordIndex [
            0,1,2,-1,2,1,3,-1,2,3,4,-1,3,5,4,-1,4,5,6,-1,6,5,7,-1,7,5,8,-1,7,8,9,-1,8,10,9,-1,9,10,11,-1,11,10,12,-1,12,10,13,-1,12,13,14,-1,13,15,14,-1,14,15,16,-1,16,15,17,-1,17,15,18,-1,17,18,19,-1,18,1,19,-1,19,1,0,-1,20,10,21,-1,21,10,8,-1,22,18,20,-1,20,18,15,-1,20,15,10,-1,10,15,13,-1,22,23,18,-1,18,23,24,-1,18,24,1,-1,1,24,25,-1,1,25,26,-1,26,27,1,-1,1,27,21,-1,1,21,3,-1,3,21,8,-1,3,8,5,-1,20,21,28,-1,28,21,29,-1,22,20,30,-1,30,20,28,-1,22,30,31,-1,22,31,23,-1,23,31,32,-1,23,32,24,-1,25,24,33,-1,33,24,32,-1,25,33,34,-1,25,34,26,-1,26,34,35,-1,26,35,27,-1,21,27,29,-1,29,27,35,-1,36,37,38,-1,38,37,39,-1,39,37,40,-1,40,37,41,-1,40,41,42,-1,41,43,42,-1,42,43,44,-1,45,46,47,-1,45,47,48,-1,48,47,49,-1,48,49,50,-1,50,49,51,-1,50,51,52,-1,52,51,53,-1,52,53,54,-1,54,53,55,-1,54,55,56,-1,56,55,57,-1,56,57,58,-1,58,57,59,-1,58,59,60,-1,60,59,44,-1,60,44,43,-1,36,38,61,-1,62,63,61,-1,61,63,64,-1,61,64,36,-1,62,65,63,-1,63,65,66,-1,63,66,67,-1,67,66,68,-1,67,68,69,-1,69,68,70,-1,69,70,71,-1,71,70,72,-1,71,72,73,-1,73,72,46,-1,73,46,45,-1,50,52,74,-1,74,52,54,-1,74,54,75,-1,75,54,56,-1,75,56,76,-1,76,56,58,-1,76,58,77,-1,77,58,60,-1,77,60,78,-1,78,60,43,-1,78,43,79,-1,79,43,41,-1,79,41,80,-1,80,41,37,-1,80,37,81,-1,81,37,36,-1,81,36,82,-1,82,36,64,-1,82,64,83,-1,83,64,63,-1,83,63,84,-1,84,63,67,-1,84,67,85,-1,85,67,69,-1,85,69,86,-1,86,69,71,-1,86,71,87,-1,87,71,73,-1,87,73,88,-1,88,73,45,-1,88,45,89,-1,89,45,48,-1,89,48,90,-1,90,48,50,-1,90,50,74,-1,78,79,91,-1,91,79,92,-1,78,91,93,-1,78,93,77,-1,77,93,94,-1,77,94,76,-1,76,94,95,-1,76,95,75,-1,75,95,96,-1,75,96,74,-1,74,96,97,-1,74,97,90,-1,90,97,98,-1,90,98,89,-1,89,98,99,-1,89,99,88,-1,88,99,100,-1,88,100,87,-1,87,100,101,-1,87,101,86,-1,86,101,102,-1,86,102,85,-1,85,102,103,-1,85,103,84,-1,84,103,104,-1,84,104,83,-1,83,104,105,-1,83,105,82,-1,82,105,106,-1,82,106,81,-1,80,81,107,-1,107,81,106,-1,79,80,92,-1,92,80,107,-1,108,109,110,-1,110,109,111,-1,110,111,112,-1,111,113,112,-1,112,113,114,-1,114,113,115,-1,115,113,116,-1,115,116,117,-1,116,118,117,-1,117,118,119,-1,118,120,119,-1,119,120,121,-1,120,122,121,-1,121,122,123,-1,122,124,123,-1,123,124,125,-1,124,126,125,-1,125,126,127,-1,126,128,127,-1,127,128,129,-1,128,130,129,-1,129,130,131,-1,130,132,131,-1,131,132,133,-1,132,109,133,-1,133,109,108,-1,113,111,109,-1,109,132,113,-1,113,132,130,-1,113,130,116,-1,120,118,122,-1,122,118,116,-1,122,116,124,-1,124,116,130,-1,124,130,126,-1,126,130,128,-1,134,135,136,-1,136,135,137,-1,137,135,138,-1,138,135,139,-1,138,139,140,-1,140,139,141,-1,140,141,142,-1,142,141,143,-1,142,143,144,-1,145,146,147,-1,147,146,148,-1,147,148,149,-1,149,148,150,-1,149,150,151,-1,151,150,152,-1,151,152,153,-1,154,155,145,-1,145,155,156,-1,145,156,146,-1,154,157,155,-1,155,157,158,-1,155,158,159,-1,159,158,144,-1,159,144,143,-1,160,161,162,-1,160,162,163,-1,163,162,164,-1,163,164,165,-1,165,164,166,-1,165,166,167,-1,167,166,168,-1,167,168,169,-1,169,168,170,-1,169,170,171,-1,171,170,172,-1,171,172,173,-1,173,172,153,-1,173,153,152,-1,174,175,176,-1,174,176,177,-1,177,176,161,-1,177,161,160,-1,174,178,175,-1,175,178,179,-1,180,181,182,-1,180,182,183,-1,183,182,179,-1,183,179,178,-1,184,185,186,-1,184,186,187,-1,187,186,188,-1,187,188,189,-1,189,188,190,-1,189,190,191,-1,191,190,192,-1,191,192,193,-1,193,192,194,-1,193,194,195,-1,195,194,196,-1,195,196,197,-1,197,196,181,-1,197,181,180,-1,198,199,200,-1,198,200,201,-1,201,200,202,-1,201,202,203,-1,203,202,204,-1,203,204,205,-1,205,204,206,-1,205,206,207,-1,207,206,208,-1,207,208,209,-1,209,208,210,-1,209,210,211,-1,211,210,185,-1,211,185,184,-1,134,136,212,-1,134,212,213,-1,213,212,214,-1,213,214,215,-1,215,214,199,-1,215,199,198,-1,201,143,198,-1,198,143,141,-1,198,141,215,-1,215,141,139,-1,215,139,213,-1,213,139,135,-1,213,135,134,-1,178,174,183,-1,183,174,177,-1,183,177,180,-1,180,177,160,-1,180,160,197,-1,197,160,163,-1,197,163,195,-1,195,163,165,-1,195,165,193,-1,193,165,167,-1,193,167,191,-1,191,167,169,-1,191,169,189,-1,189,169,171,-1,189,171,187,-1,187,171,173,-1,187,173,184,-1,184,173,152,-1,184,152,211,-1,211,152,150,-1,211,150,209,-1,209,150,148,-1,209,148,207,-1,207,148,146,-1,207,146,205,-1,205,146,156,-1,205,156,203,-1,203,156,155,-1,203,155,201,-1,201,155,159,-1,201,159,143,-1,216,217,218,-1,218,217,219,-1,218,219,220,-1,219,221,220,-1,220,221,222,-1,222,221,223,-1,223,221,224,-1,223,224,225,-1,224,226,225,-1,225,226,227,-1,226,228,227,-1,227,228,229,-1,228,217,229,-1,229,217,216,-1,226,224,228,-1,228,224,221,-1,228,221,217,-1,217,221,219,-1,
        ]
    }
}
Shape{
    appearance Appearance {
        material  Material 	{
            diffuseColor 1.0 0.7019607843137254 0.09019607843137255
            specularColor 0.30196078431372547 0.21176470588235294 0.027450980392156862
            ambientIntensity 0.7213
            transparency 0.0
            shininess 0.5
        }
    }
    geometry IndexedFaceSet {
        ccw TRUE
        solid FALSE
        coord DEF co Coordinate {
            point [
                -0.533 -0.0348 0.3937, -0.6647 -0.0348 0.3937, -0.5917 0.1297 0.3937, -0.6054 0.1297 0.3937, -0.5955 0.1433 0.3937, -0.6019 0.1434 0.3937, -0.598 0.1573 0.3937, -0.5993 0.1573 0.3937, -0.1317 0.1621 0.3937, -0.1317 -0.1452 0.3937, -0.1897 0.1621 0.3937, -0.1875 -0.1452 0.3937, -0.2291 -0.1413 0.3937, -0.3429 0.0123 0.3937, -0.3396 0.0515 0.3937, -0.3304 0.0826 0.3937, -0.2363 0.1571 0.3937, -0.2622 -0.131 0.3937, -0.2891 -0.115 0.3937, -0.3111 -0.0932 0.3937, -0.3277 -0.0661 0.3937, -0.3393 -0.0291 0.3937, -0.3167 0.1069 0.3937, -0.2976 0.1272 0.3937, -0.2688 0.1458 0.3937
            ]
        }
        coordIndex [
            0,1,2,-1,2,1,3,-1,2,3,4,-1,4,3,5,-1,4,5,6,-1,6,5,7,-1,8,9,10,-1,10,9,11,-1,10,11,12,-1,13,14,10,-1,10,14,15,-1,10,15,16,-1,12,17,10,-1,10,17,18,-1,10,18,19,-1,19,20,10,-1,10,20,21,-1,10,21,13,-1,22,23,15,-1,15,23,24,-1,15,24,16,-1,
        ]
    }
}