#VRML V2.0 utf8
# 3D model generated by easyeda2kicad.py (https://github.com/uPesy/easyeda2kicad.py)

Shape{
    appearance Appearance {
        material  Material 	{
            diffuseColor 0.6470588235294118 0.6196078431372549 0.5882352941176471
            specularColor 0.45098039215686275 0.43529411764705883 0.4117647058823529
            ambientIntensity 0.6242
            transparency 0.0
            shininess 0.5
        }
    }
    geometry IndexedFaceSet {
        ccw TRUE
        solid FALSE
        coord DEF co Coordinate {
            point [
                -0.8425 -0.1772 -0.9842, -0.8425 -0.1772 0.9449, -1.1575 -0.1772 -0.9842, -1.1575 -0.1772 0.9449, -1.0787 -0.0984 -1.378, -1.0787 0.0591 -1.378, -0.9213 -0.0984 -1.378, -0.9213 0.0591 -1.378, -1.1575 0.1378 -0.9842, -1.1575 0.1378 0.9449, -0.8425 0.1378 -0.9842, -0.8425 0.1378 0.9449, -1.1575 0.1291 1.0557, -0.8425 0.1291 1.0557, -1.1575 0.1031 1.1639, -0.8425 0.1031 1.1639, -1.1575 0.0606 1.2666, -0.8425 0.0606 1.2666, -1.1575 0.0025 1.3614, -0.8425 0.0025 1.3614, -1.1575 -0.0698 1.446, -0.8425 -0.0698 1.446, -1.1575 -0.1543 1.5182, -0.8425 -0.1543 1.5182, -1.1575 -0.2491 1.5763, -0.8425 -0.2491 1.5763, -1.1575 -0.3519 1.6189, -0.8425 -0.3519 1.6189, -1.1575 -0.46 1.6448, -0.8425 -0.46 1.6448, -1.1575 -0.5709 1.6535, -0.8425 -0.5709 1.6535, -0.8425 -2.5394 1.6535, -1.1575 -2.5394 1.6535, -1.0787 -2.9331 1.5748, -1.0787 -2.9331 1.4173, -0.9213 -2.9331 1.5748, -0.9213 -2.9331 1.4173, -1.1575 -2.5394 1.3386, -1.1575 -0.5709 1.3386, -0.8425 -2.5394 1.3386, -0.8425 -0.5709 1.3386, -0.8425 -0.4833 1.3287, -1.1575 -0.4833 1.3287, -0.8425 -0.4 1.2996, -1.1575 -0.4 1.2996, -0.8425 -0.3254 1.2527, -1.1575 -0.3254 1.2527, -0.8425 -0.2631 1.1904, -1.1575 -0.2631 1.1904, -0.8425 -0.2162 1.1157, -1.1575 -0.2162 1.1157, -0.8425 -0.187 1.0325, -1.1575 -0.187 1.0325
            ]
        }
        coordIndex [
            0,1,2,-1,2,1,3,-1,4,5,6,-1,6,5,7,-1,8,9,10,-1,10,9,11,-1,11,9,12,-1,11,12,13,-1,13,12,14,-1,13,14,15,-1,15,14,16,-1,15,16,17,-1,17,16,18,-1,17,18,19,-1,19,18,20,-1,19,20,21,-1,21,20,22,-1,21,22,23,-1,23,22,24,-1,23,24,25,-1,25,24,26,-1,25,26,27,-1,27,26,28,-1,27,28,29,-1,29,28,30,-1,29,30,31,-1,32,31,33,-1,33,31,30,-1,34,35,36,-1,36,35,37,-1,38,39,40,-1,40,39,41,-1,41,39,42,-1,42,39,43,-1,42,43,44,-1,44,43,45,-1,44,45,46,-1,46,45,47,-1,46,47,48,-1,48,47,49,-1,48,49,50,-1,50,49,51,-1,50,51,52,-1,52,51,53,-1,52,53,1,-1,1,53,3,-1,32,40,31,-1,31,40,41,-1,31,41,29,-1,29,41,42,-1,29,42,27,-1,27,42,44,-1,52,15,50,-1,50,15,17,-1,50,17,48,-1,0,10,1,-1,1,10,11,-1,1,11,52,-1,52,11,13,-1,52,13,15,-1,17,19,48,-1,48,19,21,-1,48,21,46,-1,46,21,23,-1,46,23,44,-1,44,23,25,-1,44,25,27,-1,38,33,39,-1,39,33,30,-1,39,30,43,-1,51,14,53,-1,53,14,12,-1,53,12,3,-1,3,12,9,-1,3,9,2,-1,2,9,8,-1,30,28,43,-1,43,28,26,-1,43,26,45,-1,45,26,24,-1,45,24,47,-1,24,22,47,-1,47,22,20,-1,47,20,49,-1,49,20,18,-1,49,18,51,-1,51,18,16,-1,51,16,14,-1,10,7,8,-1,8,7,5,-1,0,6,10,-1,10,6,7,-1,4,2,5,-1,5,2,8,-1,2,4,0,-1,0,4,6,-1,40,37,38,-1,38,37,35,-1,32,36,40,-1,40,36,37,-1,34,33,35,-1,35,33,38,-1,33,34,32,-1,32,34,36,-1,
        ]
    }
}
Shape{
    appearance Appearance {
        material  Material 	{
            diffuseColor 0.24705882352941178 0.49411764705882355 0.27450980392156865
            specularColor 0.01568627450980392 0.03529411764705882 0.0196078431372549
            ambientIntensity 0.5646
            transparency 0.0
            shininess 0.5
        }
    }
    geometry IndexedFaceSet {
        ccw TRUE
        solid FALSE
        coord DEF co Coordinate {
            point [
                1.7953 0.4528 3.1496, -1.7953 0.4528 3.1496, 1.7953 -3.5236 3.1496, -1.7953 -3.5236 3.1496, -0.6066 -3.5236 2.5221, -0.8228 -3.5236 2.5221, -0.8228 -3.5236 2.295, -1.0 -3.5236 0.2375, -0.9131 -3.5236 0.0, -0.5 -3.5236 0.2375, 1.7953 -3.5236 0.0, -1.0 -3.5236 0.5407, -1.6969 -3.5236 0.5407, -1.874 -3.5236 0.0787, -1.6969 -3.5236 2.295, -1.874 -3.5236 3.0709, -1.8713 -3.5236 0.0584, -1.8635 -3.5236 0.0394, -1.851 -3.5236 0.0231, -1.8346 -3.5236 0.0106, -1.8157 -3.5236 0.0027, -1.7953 -3.5236 0.0, 0.3934 -3.5236 2.5221, 0.1772 -3.5236 2.5221, 0.1772 -3.5236 2.295, -1.8157 -3.5236 3.1469, -1.3934 -3.5236 2.8379, -0.6066 -3.5236 2.8379, -1.8346 -3.5236 3.1391, -1.851 -3.5236 3.1265, -1.8635 -3.5236 3.1102, -0.1772 -3.5236 2.295, -0.1772 -3.5236 2.5221, -0.3934 -3.5236 2.5221, -1.1772 -3.5236 2.295, -1.1772 -3.5236 2.5221, -1.3934 -3.5236 2.5221, -1.8713 -3.5236 3.0912, 0.3934 -3.5236 2.8379, -0.3934 -3.5236 2.8379, 0.8228 -3.5236 2.295, 0.8228 -3.5236 2.5221, 0.6066 -3.5236 2.5221, 1.0 -3.5236 0.2375, 1.0 -3.5236 0.5407, -0.5 -3.5236 0.5407, 1.1772 -3.5236 2.5221, 1.1772 -3.5236 2.295, 1.3934 -3.5236 2.5221, 1.6969 -3.5236 2.295, 1.8635 -3.5236 3.1102, 1.851 -3.5236 3.1265, 1.8346 -3.5236 0.0106, 1.851 -3.5236 0.0231, 1.6969 -3.5236 0.2375, 1.8635 -3.5236 0.0394, 1.8713 -3.5236 0.0584, 1.874 -3.5236 0.0787, 1.874 -3.5236 3.0709, 1.8713 -3.5236 3.0912, 0.6066 -3.5236 2.8379, 1.3934 -3.5236 2.8379, 1.8157 -3.5236 3.1469, 1.8346 -3.5236 3.1391, 1.8157 -3.5236 0.0027, -1.4571 -2.3616 0.0, -1.4489 -2.3514 0.0, -0.9131 -2.3514 0.0, 0.315 -0.3346 0.0, 1.7953 -2.3514 0.0, -0.315 -0.3346 0.0, -0.685 -0.3346 0.0, -0.315 0.4528 0.0, -0.685 0.4528 0.0, -0.8924 -2.3254 0.0, -0.8924 -2.3267 0.0, -0.892 -2.3282 0.0, -0.8915 -2.3291 0.0, -0.7641 -2.0042 0.0, -0.7753 -1.9978 0.0, -0.6776 -1.968 0.0, -0.866 -1.9795 0.0, -0.9131 -0.3346 0.0, -0.8645 -1.9794 0.0, -0.864 -1.9796 0.0, -0.7823 -2.3401 0.0, -0.7696 -2.3371 0.0, -0.6066 -2.3514 0.0, 1.315 0.4528 0.0, 1.7953 0.4528 0.0, 1.315 -0.3346 0.0, 0.685 -0.3346 0.0, 0.685 0.4528 0.0, 0.315 0.4528 0.0, -0.7592 -2.3317 0.0, -0.7499 -2.3234 0.0, -0.7408 -2.3103 0.0, -0.6773 -1.9674 0.0, -0.8125 -2.3402 0.0, -0.8 -2.3413 0.0, -0.891 -2.0083 0.0, -0.8908 -2.0086 0.0, -0.8885 -2.0091 0.0, -0.8696 -2.3056 0.0, -0.8899 -2.009 0.0, -0.8904 -2.0088 0.0, -0.8671 -1.98 0.0, -0.8708 -1.9826 0.0, -0.8789 -1.9902 0.0, -0.8913 -2.0078 0.0, -0.877 -2.3095 0.0, -0.8871 -2.318 0.0, -0.8865 -2.0089 0.0, -0.8786 -2.0089 0.0, -0.8696 -2.0089 0.0, -0.6761 -1.9666 0.0, -0.6765 -1.9668 0.0, -0.6769 -1.967 0.0, -0.7905 -1.9939 0.0, -0.822 -1.9896 0.0, -0.8469 -1.9867 0.0, -0.8917 -2.0047 0.0, -0.8919 -2.0053 0.0, -0.8919 -2.0059 0.0, -0.8918 -2.0067 0.0, -0.8734 -2.3074 0.0, -0.8896 -2.32 0.0, -0.8911 -2.322 0.0, -0.8921 -2.324 0.0, -0.518 -2.0294 0.0, -0.5173 -2.0285 0.0, -0.8562 -1.9843 0.0, -0.8621 -1.9807 0.0, -0.8897 -2.0019 0.0, -0.8907 -2.0031 0.0, -0.8913 -2.004 0.0, -0.5244 -1.9674 0.0, -0.6718 -1.9721 0.0, -0.6725 -1.9701 0.0, -0.682 -2.0265 0.0, -0.7359 -2.0452 0.0, -0.683 -2.0233 0.0, -0.7439 -2.0287 0.0, -0.6833 -2.0181 0.0, -0.7544 -2.0136 0.0, -0.8583 -2.3305 0.0, -0.8463 -2.3316 0.0, -0.8249 -2.3378 0.0, -0.732 -2.2872 0.0, -0.7238 -2.2238 0.0, -0.6644 -2.0836 0.0, -0.7212 -2.1453 0.0, -0.7261 -2.0831 0.0, -0.8815 -1.993 0.0, -0.8883 -2.0003 0.0, -0.522 -1.9701 0.0, -0.5222 -1.9692 0.0, -0.5217 -1.9715 0.0, -0.678 -1.9694 0.0, -0.679 -1.9765 0.0, -0.8907 -2.3299 0.0, -0.89 -2.3305 0.0, -0.8797 -2.3288 0.0, -0.6808 -2.0287 0.0, -0.678 -2.0338 0.0, -0.6706 -2.0585 0.0, -0.5365 -2.0825 0.0, -0.5433 -2.1108 0.0, -0.5977 -2.3514 0.0, -0.517 -2.0278 0.0, -0.5168 -2.0272 0.0, -0.5169 -2.0251 0.0, -0.5265 -1.9689 0.0, -0.6417 -2.1131 0.0, -0.526 -1.9683 0.0, -0.6599 -2.0287 0.0, -0.6797 -1.9834 0.0, -0.6825 -2.0071 0.0, -0.8679 -2.3288 0.0, -0.8631 -2.3296 0.0, -0.5177 -2.0118 0.0, -0.5177 -2.0117 0.0, -0.52 -1.9862 0.0, -0.5212 -1.9766 0.0, -0.5214 -1.9736 0.0, -0.6684 -1.9856 0.0, -0.525 -1.9676 0.0, -0.5256 -1.9679 0.0, -0.527 -1.97 0.0, -0.5274 -1.9715 0.0, -0.5647 -2.1317 0.0, -0.5313 -1.9941 0.0, -0.5334 -2.0691 0.0, -0.5297 -2.0559 0.0, -0.5257 -2.0451 0.0, -0.5221 -2.035 0.0, -0.5197 -2.0314 0.0, -0.6748 -1.9669 0.0, -0.6753 -1.9667 0.0, -0.6757 -1.9666 0.0, -0.6732 -1.9688 0.0, -0.6738 -1.9679 0.0, -0.6743 -1.9672 0.0, -0.5225 -1.9685 0.0, -0.5228 -1.9681 0.0, -0.5232 -1.9678 0.0, -0.5236 -1.9675 0.0, -0.524 -1.9674 0.0, -1.7953 0.4528 0.0, -1.315 0.4528 0.0, -1.315 -0.3346 0.0, -1.087 -2.3242 0.0, -1.1434 -2.3407 0.0, -1.0861 -2.3223 0.0, -1.1434 -2.1895 0.0, -1.1519 -2.3407 0.0, -1.1919 -2.3426 0.0, -1.1788 -2.3354 0.0, -1.2748 -2.1362 0.0, -1.1468 -2.0904 0.0, -1.2727 -2.2263 0.0, -1.144 -2.1204 0.0, -1.2676 -2.2558 0.0, -1.3582 -2.0222 0.0, -1.3563 -2.023 0.0, -1.2906 -2.1956 0.0, -1.0736 -2.3067 0.0, -1.08 -2.3142 0.0, -1.0838 -2.3189 0.0, -1.2085 -1.9992 0.0, -1.2608 -2.0553 0.0, -1.0786 -1.9869 0.0, -1.079 -1.9891 0.0, -1.1349 -2.1199 0.0, -1.1541 -2.1895 0.0, -1.1589 -2.2693 0.0, -1.1675 -2.3251 0.0, -1.1609 -2.3163 0.0, -1.1559 -2.3073 0.0, -1.1732 -2.012 0.0, -1.1648 -2.0216 0.0, -1.0787 -1.9935 0.0, -1.0751 -2.0078 0.0, -1.0736 -2.0225 0.0, -1.1954 -2.3264 0.0, -1.2355 -2.3182 0.0, -1.2446 -2.3092 0.0, -1.2741 -2.2854 0.0, -1.2621 -2.3124 0.0, -1.4322 -2.3305 0.0, -1.2506 -2.3274 0.0, -1.233 -2.341 0.0, -0.9495 -2.178 0.0, -0.9505 -2.1774 0.0, -0.9519 -2.0293 0.0, -1.1958 -2.0002 0.0, -1.1833 -2.0049 0.0, -1.1574 -2.0363 0.0, -1.1493 -2.0737 0.0, -1.204 -2.3283 0.0, -1.2158 -2.3275 0.0, -1.2259 -2.3241 0.0, -1.0875 -2.3269 0.0, -1.0876 -2.3286 0.0, -1.0876 -2.3299 0.0, -1.0866 -2.3314 0.0, -1.0869 -2.3313 0.0, -1.0871 -2.3311 0.0, -1.0572 -2.1821 0.0, -1.0096 -2.1883 0.0, -1.0572 -2.3067 0.0, -0.99 -2.1923 0.0, -0.9666 -2.2031 0.0, -0.9501 -2.3231 0.0, -0.9592 -2.322 0.0, -1.2876 -2.1099 0.0, -1.2311 -2.0065 0.0, -1.2393 -2.014 0.0, -1.2522 -2.0323 0.0, -1.2239 -2.0023 0.0, -1.2164 -2.0 0.0, -1.0736 -2.0332 0.0, -1.0733 -2.0403 0.0, -1.073 -2.0474 0.0, -1.1659 -2.2949 0.0, -1.173 -2.3089 0.0, -1.1799 -2.3171 0.0, -1.0875 -2.3304 0.0, -1.0873 -2.3308 0.0, -0.9725 -2.3202 0.0, -0.9859 -2.3186 0.0, -0.9717 -2.2002 0.0, -0.9774 -2.1968 0.0, -0.949 -2.1851 0.0, -0.9482 -2.1838 0.0, -0.9488 -2.3232 0.0, -0.9478 -2.1827 0.0, -0.9477 -2.3235 0.0, -0.9476 -2.1817 0.0, -0.9467 -2.3241 0.0, -1.3369 -2.0056 0.0, -1.3348 -2.0033 0.0, -1.2814 -2.0715 0.0, -1.2151 -1.981 0.0, -1.2301 -1.9857 0.0, -1.3331 -1.9976 0.0, -1.2432 -1.9933 0.0, -1.2526 -2.003 0.0, -1.0789 -1.9924 0.0, -1.2544 -2.2939 0.0, -1.1874 -2.3228 0.0, -1.4406 -2.006 0.0, -1.4406 -2.2948 0.0, -1.2878 -2.2241 0.0, -1.4405 -2.3021 0.0, -1.438 -2.3181 0.0, -1.397 -2.0097 0.0, -1.3763 -2.0129 0.0, -1.3693 -2.0145 0.0, -1.0719 -2.3299 0.0, -1.0623 -2.3287 0.0, -1.0827 -2.3316 0.0, -1.0526 -2.3288 0.0, -0.9477 -2.1809 0.0, -0.948 -2.1799 0.0, -0.9487 -2.1788 0.0, -1.0572 -2.1623 0.0, -1.0572 -2.0089 0.0, -0.9728 -2.0207 0.0, -0.9501 -2.1866 0.0, -1.3652 -2.0164 0.0, -1.36 -2.0209 0.0, -1.2656 -2.0241 0.0, -1.3338 -2.0016 0.0, -1.3333 -1.9996 0.0, -1.4568 -2.0049 0.0, -1.4565 -2.0083 0.0, -1.4583 -1.9911 0.0, -1.4554 -2.0417 0.0, -1.2246 -2.3452 0.0, -1.2165 -2.3468 0.0, -1.2085 -2.3469 0.0, -0.9637 -2.3491 0.0, -0.9451 -2.3271 0.0, -0.9452 -2.3263 0.0, -0.9454 -2.3256 0.0, -0.9459 -2.3249 0.0, -0.9516 -2.1771 0.0, -0.953 -2.177 0.0, -0.9569 -2.0264 0.0, -0.9646 -2.0228 0.0, -1.3431 -2.0113 0.0, -1.0741 -1.9825 0.0, -1.0754 -1.9831 0.0, -1.1877 -1.9827 0.0, -1.1628 -1.9979 0.0, -1.174 -1.9889 0.0, -1.078 -1.9856 0.0, -1.0768 -1.9842 0.0, -1.2006 -1.9805 0.0, -0.9463 -2.3303 0.0, -0.9456 -2.329 0.0, -0.9452 -2.328 0.0, -0.936 -2.0117 0.0, -0.9343 -2.0093 0.0, -0.934 -2.0052 0.0, -0.9346 -2.0042 0.0, -0.9376 -2.0027 0.0, -0.9394 -2.0026 0.0, -0.9479 -2.0021 0.0, -1.1387 -2.0564 0.0, -1.145 -2.0287 0.0, -1.1549 -2.0081 0.0, -1.3337 -1.9963 0.0, -1.3342 -1.9958 0.0, -1.4554 -2.2965 0.0, -1.4557 -2.3242 0.0, -1.4599 -2.3514 0.0, -1.0858 -2.3317 0.0, -1.0843 -2.3318 0.0, -0.9688 -2.3458 0.0, -0.9718 -2.344 0.0, -0.9474 -2.3322 0.0, -1.7953 -2.3514 0.0, -1.4563 -1.984 0.0, -1.4571 -1.9848 0.0, -1.4579 -1.9864 0.0, -1.4583 -1.9879 0.0, -1.0399 -2.329 0.0, -1.0289 -2.3305 0.0, -1.051 -2.3288 0.0, -1.0067 -2.3345 0.0, -0.9338 -2.008 0.0, -0.9336 -2.007 0.0, -0.9337 -2.0062 0.0, -0.9872 -2.3384 0.0, -0.9907 -1.9968 0.0, -1.0334 -1.9902 0.0, -1.0594 -1.9856 0.0, -1.4537 -1.983 0.0, -1.4548 -1.9831 0.0, -1.4556 -1.9835 0.0, -1.0657 -1.9833 0.0, -1.0697 -1.9824 0.0, -1.0726 -1.9822 0.0, -1.335 -1.9953 0.0, -1.3364 -1.9947 0.0, -1.3385 -1.9945 0.0, -1.3484 -1.9942 0.0, -1.3628 -1.9922 0.0, -1.4001 -1.9883 0.0, -1.4124 -1.9873 0.0, -1.4361 -1.9851 0.0, -1.4492 -1.984 0.0, -1.4521 -1.9831 0.0, -0.935 -2.0036 0.0, -0.9354 -2.0033 0.0, -0.936 -2.003 0.0, -0.9361 -2.003 0.0, -0.5982 -2.3537 0.0, -0.6061 -2.3537 0.0, -1.461 -2.3571 0.0, 1.874 0.4528 3.0709, 1.874 0.4528 2.3622, 1.6378 0.4528 2.3622, 0.3934 0.4528 2.8379, -0.3934 0.4528 2.8379, 0.685 0.4528 2.3622, 0.6066 0.4528 2.5221, 1.315 0.4528 2.3622, 1.3934 0.4528 2.5221, 1.874 0.4528 0.7874, 1.874 0.4528 0.0787, 0.315 0.4528 2.3622, 0.6066 0.4528 2.8379, 1.3934 0.4528 2.8379, -1.3934 0.4528 2.5221, -0.6066 0.4528 2.5221, -0.685 0.4528 2.3622, 1.8713 0.4528 0.0584, 1.8635 0.4528 0.0394, 1.851 0.4528 0.0231, 1.8346 0.4528 0.0106, 0.3934 0.4528 2.5221, -0.3934 0.4528 2.5221, -0.315 0.4528 2.3622, -0.6066 0.4528 2.8379, -1.874 0.4528 0.0787, -1.874 0.4528 0.7874, -1.6378 0.4528 0.7874, 1.8157 0.4528 0.0027, 1.8346 0.4528 3.1391, 1.851 0.4528 3.1265, 1.8635 0.4528 3.1102, 1.8713 0.4528 3.0912, 1.6378 0.4528 0.7874, -1.874 0.4528 2.3622, -1.874 0.4528 3.0709, -1.6378 0.4528 2.3622, -1.315 0.4528 2.3622, -1.8713 0.4528 0.0584, 1.8157 0.4528 3.1469, -1.8346 0.4528 0.0106, -1.851 0.4528 0.0231, -1.8635 0.4528 0.0394, -1.3934 0.4528 2.8379, -1.8713 0.4528 3.0912, -1.8635 0.4528 3.1102, -1.851 0.4528 3.1265, -1.8346 0.4528 3.1391, -1.8157 0.4528 3.1469, -1.8157 0.4528 0.0027, 1.874 0.0591 0.7874, 1.874 0.0591 2.3622, 1.5 -3.3268 2.295, 1.5 -1.203 2.295, 1.5 -3.3268 0.2375, 1.5 -1.203 1.8597, 1.5 -1.1614 0.7375, 1.5 -1.1614 0.2375, 1.5 -1.203 0.7375, 1.5 -1.203 1.1637, 1.5 -0.7677 1.1637, 1.5 -0.7677 1.8597, 0.7638 -0.7677 1.1637, 0.7638 -0.7677 0.7375, 1.0 -0.7677 1.1614, -1.2362 -0.7677 2.295, -1.2362 -0.7677 1.8597, -1.1772 -0.7677 2.295, -0.8228 -0.7677 2.295, -1.1772 -0.7677 2.5221, -0.8228 -0.7677 2.5221, 0.0866 -0.7677 1.1728, 0.0 -0.7677 1.1614, -0.2362 -0.7677 0.7375, -0.0866 -0.7677 1.1728, -0.1673 -0.7677 1.2063, -0.2362 -0.7677 1.1637, -0.2366 -0.7677 1.2594, 0.2362 -0.7677 0.7375, 0.2362 -0.7677 1.1637, 0.1673 -0.7677 1.2063, 0.2366 -0.7677 1.2594, 1.0866 -0.7677 1.1728, -1.0 -0.7677 1.1614, -1.0866 -0.7677 1.1728, -1.2362 -0.7677 0.7375, -1.1673 -0.7677 1.2063, -1.2362 -0.7677 1.1637, -1.2366 -0.7677 1.2594, -1.5 -0.7677 1.1637, -1.2898 -0.7677 1.3287, -1.3232 -0.7677 1.4095, -1.3346 -0.7677 1.4961, -1.5 -0.7677 1.8597, -1.3232 -0.7677 1.5827, -1.2898 -0.7677 1.6634, -1.2366 -0.7677 1.7327, -1.1673 -0.7677 1.7859, -1.0866 -0.7677 1.8193, -1.0 -0.7677 1.8307, 1.2362 -0.7677 0.7375, 1.2362 -0.7677 1.1637, 1.1673 -0.7677 1.2063, 1.2366 -0.7677 1.2594, 0.7638 -0.7677 2.295, 0.7638 -0.7677 1.8597, 0.8228 -0.7677 2.295, 1.1772 -0.7677 2.295, 0.8228 -0.7677 2.5221, 1.1772 -0.7677 2.5221, 1.2366 -0.7677 1.7327, 1.1673 -0.7677 1.7859, 1.2362 -0.7677 1.8597, 1.0866 -0.7677 1.8193, 1.2898 -0.7677 1.6634, 1.3232 -0.7677 1.5827, -0.2362 -0.7677 2.295, -0.2362 -0.7677 1.8597, -0.1772 -0.7677 2.295, 0.1772 -0.7677 2.295, -0.1772 -0.7677 2.5221, 0.1772 -0.7677 2.5221, 1.3346 -0.7677 1.4961, 1.3232 -0.7677 1.4095, 1.2898 -0.7677 1.3287, 0.6768 -0.7677 1.5827, 0.7102 -0.7677 1.6634, 1.0 -0.7677 1.8307, 1.2362 -0.7677 2.295, 0.7102 -0.7677 1.3287, 0.6768 -0.7677 1.4095, -0.9134 -0.7677 1.8193, -0.7638 -0.7677 1.8597, -0.7638 -0.7677 2.295, 0.7634 -0.7677 1.7327, 0.8327 -0.7677 1.7859, 0.9134 -0.7677 1.8193, 0.2362 -0.7677 1.8597, 0.2362 -0.7677 2.295, 0.0 -0.7677 1.8307, -0.8327 -0.7677 1.7859, -0.7634 -0.7677 1.7327, -0.2366 -0.7677 1.7327, -0.7102 -0.7677 1.6634, 0.9134 -0.7677 1.1728, 0.8327 -0.7677 1.2063, 0.7634 -0.7677 1.2594, 0.0866 -0.7677 1.8193, 0.1673 -0.7677 1.7859, -0.1673 -0.7677 1.7859, -0.0866 -0.7677 1.8193, 0.2366 -0.7677 1.7327, 0.2898 -0.7677 1.6634, 0.3232 -0.7677 1.5827, 0.6654 -0.7677 1.4961, 0.3346 -0.7677 1.4961, 0.3232 -0.7677 1.4095, 0.2898 -0.7677 1.3287, -0.9134 -0.7677 1.1728, -0.7638 -0.7677 0.7375, -0.8327 -0.7677 1.2063, -0.7638 -0.7677 1.1637, -0.7634 -0.7677 1.2594, -0.7102 -0.7677 1.3287, -0.6768 -0.7677 1.4095, -0.2898 -0.7677 1.3287, -0.3232 -0.7677 1.4095, -0.6654 -0.7677 1.4961, -0.3346 -0.7677 1.4961, -0.6768 -0.7677 1.5827, -0.3232 -0.7677 1.5827, -0.2898 -0.7677 1.6634, -0.7638 -1.203 2.295, -0.2362 -1.203 2.295, -1.0 -1.1614 0.7375, -0.7638 -1.1614 0.7375, -1.2362 -1.203 0.7375, -1.5 -1.203 0.7375, -1.5 -3.3268 0.7375, -1.0 -3.3268 0.7375, -1.5 -3.3268 2.295, -1.5 -1.203 2.295, -1.2362 -1.203 2.295, -1.315 -0.3346 2.3622, -0.685 -0.3346 2.3622, -0.9134 -0.9252 1.8193, -0.8327 -0.9252 1.7859, -0.7634 -0.9252 1.7327, -0.7102 -0.9252 1.6634, -0.6768 -0.9252 1.5827, -0.6654 -0.9252 1.4961, -0.6768 -0.9252 1.4095, -0.7102 -0.9252 1.3287, -0.7634 -0.9252 1.2594, -0.8327 -0.9252 1.2063, -0.9134 -0.9252 1.1728, -1.0 -0.9252 1.1614, -1.0866 -0.9252 1.1728, -1.1673 -0.9252 1.2063, -1.2366 -0.9252 1.2594, -1.2898 -0.9252 1.3287, -1.3232 -0.9252 1.4095, -1.3346 -0.9252 1.4961, -1.3232 -0.9252 1.5827, -1.2898 -0.9252 1.6634, -1.2366 -0.9252 1.7327, -1.1673 -0.9252 1.7859, -1.0866 -0.9252 1.8193, -1.0 -0.9252 1.8307, -1.0 -0.9252 1.4961, -0.7638 -1.203 0.7375, -0.7638 -1.203 1.1637, -0.2362 -1.203 1.1637, -0.2362 -1.203 0.7375, -0.5 -1.203 0.7375, -1.2362 -1.203 1.1637, -1.5 -1.203 1.1637, -1.2362 -1.203 1.8597, -1.5 -1.203 1.8597, -0.7638 -1.203 1.8597, -0.2362 -1.203 1.8597
            ]
        }
        coordIndex [
            0,1,2,-1,2,1,3,-1,4,5,6,-1,7,8,9,-1,9,8,10,-1,11,12,13,-1,13,12,14,-1,13,14,15,-1,13,16,11,-1,11,16,17,-1,11,17,18,-1,18,19,11,-1,11,19,20,-1,11,20,7,-1,7,20,21,-1,7,21,8,-1,22,23,24,-1,25,26,3,-1,3,26,27,-1,3,27,2,-1,25,28,26,-1,26,28,29,-1,26,29,30,-1,31,32,33,-1,34,35,14,-1,14,35,36,-1,14,36,15,-1,15,36,26,-1,15,26,37,-1,37,26,30,-1,38,2,39,-1,39,2,27,-1,39,27,33,-1,33,27,4,-1,33,4,31,-1,31,4,6,-1,40,41,42,-1,43,44,45,-1,46,47,48,-1,48,47,49,-1,50,51,48,-1,52,53,54,-1,54,53,55,-1,55,56,54,-1,54,56,57,-1,54,57,49,-1,49,57,58,-1,49,58,48,-1,48,58,59,-1,48,59,50,-1,24,40,22,-1,22,40,42,-1,22,42,38,-1,38,42,60,-1,38,60,2,-1,2,60,61,-1,2,61,62,-1,62,61,48,-1,62,48,63,-1,63,48,51,-1,45,9,43,-1,43,9,10,-1,43,10,54,-1,54,10,64,-1,54,64,52,-1,65,66,67,-1,68,69,70,-1,70,69,71,-1,70,71,72,-1,72,71,73,-1,74,75,67,-1,67,75,76,-1,67,76,77,-1,78,79,80,-1,81,82,83,-1,83,82,71,-1,83,71,84,-1,85,86,87,-1,88,89,90,-1,90,89,69,-1,90,69,91,-1,91,69,68,-1,91,68,92,-1,92,68,93,-1,86,94,87,-1,87,94,95,-1,87,95,96,-1,80,79,97,-1,98,99,67,-1,100,101,67,-1,102,103,104,-1,104,103,105,-1,81,106,82,-1,82,106,107,-1,82,107,108,-1,100,67,109,-1,101,110,111,-1,102,112,103,-1,103,112,113,-1,103,113,114,-1,71,115,116,-1,71,116,79,-1,79,116,117,-1,79,117,97,-1,79,118,71,-1,71,118,119,-1,71,119,120,-1,121,122,82,-1,82,122,123,-1,82,123,67,-1,67,123,124,-1,67,124,109,-1,105,103,101,-1,101,103,125,-1,101,125,110,-1,111,126,101,-1,101,126,127,-1,101,127,67,-1,67,127,128,-1,67,128,74,-1,129,130,69,-1,120,131,71,-1,71,131,132,-1,71,132,84,-1,133,134,82,-1,82,134,135,-1,82,135,121,-1,136,137,138,-1,139,140,141,-1,141,140,142,-1,141,142,143,-1,143,142,144,-1,145,146,67,-1,67,146,147,-1,67,147,98,-1,96,148,87,-1,87,148,149,-1,87,149,150,-1,150,149,151,-1,150,151,152,-1,108,153,82,-1,82,153,154,-1,82,154,133,-1,155,156,69,-1,155,69,157,-1,78,80,144,-1,144,80,158,-1,144,158,159,-1,77,160,67,-1,67,160,161,-1,67,161,162,-1,139,163,140,-1,140,163,164,-1,140,164,152,-1,152,164,165,-1,152,165,150,-1,166,69,167,-1,167,69,168,-1,130,169,69,-1,69,169,170,-1,69,170,171,-1,172,173,174,-1,174,173,175,-1,159,176,144,-1,144,176,177,-1,144,177,143,-1,162,178,67,-1,67,178,179,-1,67,179,145,-1,171,180,69,-1,69,180,181,-1,69,181,182,-1,182,183,69,-1,69,183,184,-1,69,184,157,-1,137,136,185,-1,185,136,186,-1,185,186,175,-1,175,186,187,-1,175,187,174,-1,172,188,173,-1,173,188,189,-1,173,189,190,-1,190,189,191,-1,166,192,69,-1,69,192,193,-1,69,193,194,-1,194,195,69,-1,69,195,196,-1,69,196,129,-1,197,198,71,-1,71,198,199,-1,71,199,115,-1,138,200,136,-1,136,200,201,-1,136,201,202,-1,156,203,69,-1,69,203,204,-1,69,204,71,-1,71,204,205,-1,71,205,206,-1,206,207,71,-1,71,207,136,-1,71,136,197,-1,197,136,202,-1,208,209,210,-1,211,212,213,-1,213,212,214,-1,215,216,217,-1,218,219,220,-1,220,219,221,-1,220,221,222,-1,223,224,225,-1,226,227,214,-1,214,227,228,-1,214,228,213,-1,229,218,230,-1,231,232,233,-1,233,232,214,-1,233,214,221,-1,221,214,234,-1,221,234,222,-1,222,234,235,-1,217,236,215,-1,215,236,237,-1,215,237,238,-1,218,239,240,-1,241,242,243,-1,244,245,246,-1,247,248,249,-1,249,248,250,-1,249,250,251,-1,252,253,254,-1,229,255,218,-1,218,255,256,-1,218,256,239,-1,240,257,218,-1,218,257,258,-1,218,258,219,-1,259,260,244,-1,244,260,261,-1,244,261,245,-1,211,262,212,-1,212,262,263,-1,212,263,264,-1,265,212,266,-1,266,212,267,-1,268,269,270,-1,270,269,271,-1,272,273,274,-1,225,224,275,-1,276,230,277,-1,277,230,278,-1,276,279,230,-1,230,279,280,-1,230,280,229,-1,281,282,214,-1,214,282,283,-1,214,283,226,-1,235,284,222,-1,222,284,285,-1,222,285,286,-1,264,287,212,-1,212,287,288,-1,212,288,267,-1,274,289,272,-1,272,289,290,-1,272,290,291,-1,291,290,270,-1,291,270,292,-1,292,270,271,-1,293,294,295,-1,295,294,296,-1,295,296,297,-1,297,296,298,-1,297,298,299,-1,300,301,302,-1,303,304,305,-1,305,304,306,-1,305,306,307,-1,232,308,214,-1,214,308,241,-1,214,241,281,-1,281,241,243,-1,246,309,244,-1,244,309,222,-1,244,222,310,-1,310,222,286,-1,311,225,312,-1,312,225,313,-1,312,313,314,-1,314,313,247,-1,314,247,315,-1,315,247,249,-1,311,316,225,-1,225,316,317,-1,225,317,318,-1,319,320,321,-1,321,320,322,-1,323,324,254,-1,254,324,325,-1,254,325,252,-1,326,327,328,-1,273,272,295,-1,295,272,329,-1,295,329,293,-1,318,330,225,-1,225,330,331,-1,225,331,223,-1,302,301,332,-1,332,301,333,-1,332,333,307,-1,307,333,334,-1,307,334,305,-1,335,336,337,-1,337,336,338,-1,251,339,249,-1,249,339,340,-1,249,340,66,-1,216,215,341,-1,341,215,212,-1,341,212,342,-1,343,344,67,-1,67,344,345,-1,67,345,346,-1,253,347,254,-1,254,347,348,-1,254,348,349,-1,349,348,326,-1,349,326,350,-1,350,326,328,-1,275,224,302,-1,302,224,351,-1,302,351,300,-1,352,353,354,-1,355,356,357,-1,357,356,354,-1,357,354,358,-1,358,354,353,-1,352,354,82,-1,82,354,359,-1,82,359,303,-1,360,361,67,-1,67,361,362,-1,67,362,343,-1,323,67,298,-1,298,67,346,-1,298,346,299,-1,323,254,67,-1,67,254,363,-1,67,363,364,-1,82,365,366,-1,367,368,369,-1,233,370,231,-1,231,370,371,-1,231,371,357,-1,357,371,372,-1,357,372,355,-1,305,373,303,-1,303,373,374,-1,303,374,82,-1,82,374,210,-1,375,376,377,-1,265,378,212,-1,212,378,379,-1,212,379,342,-1,342,379,321,-1,342,321,380,-1,380,321,381,-1,340,341,66,-1,66,341,342,-1,66,342,67,-1,67,342,382,-1,67,382,360,-1,208,210,383,-1,383,210,384,-1,383,384,385,-1,385,386,383,-1,383,386,387,-1,383,387,337,-1,388,389,390,-1,390,389,391,-1,390,391,322,-1,364,392,67,-1,67,392,393,-1,67,393,82,-1,82,393,394,-1,82,394,365,-1,322,391,321,-1,321,391,395,-1,321,395,381,-1,369,396,367,-1,367,396,397,-1,367,397,398,-1,399,400,210,-1,210,400,401,-1,210,401,384,-1,402,403,82,-1,82,403,404,-1,82,404,352,-1,374,405,210,-1,210,405,406,-1,210,406,407,-1,408,409,407,-1,407,409,410,-1,407,410,210,-1,210,410,411,-1,210,411,412,-1,412,413,210,-1,210,413,414,-1,210,414,399,-1,366,415,82,-1,82,415,416,-1,82,416,417,-1,417,418,82,-1,82,418,367,-1,82,367,402,-1,402,367,398,-1,168,69,419,-1,419,69,10,-1,419,10,420,-1,420,10,8,-1,420,8,87,-1,338,375,337,-1,337,375,377,-1,337,377,383,-1,383,377,421,-1,383,421,21,-1,21,421,65,-1,21,65,8,-1,8,65,67,-1,8,67,87,-1,87,67,99,-1,87,99,85,-1,422,423,424,-1,425,426,1,-1,427,428,429,-1,429,428,430,-1,431,432,88,-1,93,433,92,-1,92,433,427,-1,425,1,434,-1,434,1,0,-1,434,0,435,-1,436,437,438,-1,439,440,432,-1,432,440,441,-1,432,441,442,-1,434,428,425,-1,425,428,427,-1,425,427,443,-1,443,427,433,-1,443,433,444,-1,444,433,445,-1,444,445,446,-1,446,445,437,-1,437,445,438,-1,438,445,72,-1,438,72,73,-1,447,448,449,-1,442,450,432,-1,432,450,89,-1,432,89,88,-1,451,452,430,-1,430,452,453,-1,453,454,430,-1,430,454,422,-1,430,422,429,-1,429,422,424,-1,429,424,88,-1,88,424,455,-1,88,455,431,-1,456,457,458,-1,458,457,459,-1,458,459,449,-1,449,459,209,-1,449,209,447,-1,447,209,208,-1,447,208,460,-1,435,0,430,-1,430,0,461,-1,430,461,451,-1,462,463,464,-1,438,459,436,-1,436,459,457,-1,436,457,465,-1,465,457,466,-1,466,467,465,-1,465,467,468,-1,465,468,469,-1,469,470,465,-1,465,470,1,-1,465,1,446,-1,446,1,426,-1,446,426,444,-1,460,208,464,-1,464,208,471,-1,464,471,462,-1,432,431,472,-1,423,422,473,-1,473,422,58,-1,473,58,472,-1,472,58,57,-1,472,57,432,-1,474,475,476,-1,476,475,477,-1,478,479,480,-1,480,479,476,-1,480,476,481,-1,481,476,477,-1,481,477,482,-1,482,477,483,-1,484,485,486,-1,487,488,489,-1,489,488,490,-1,489,490,491,-1,491,490,492,-1,493,494,495,-1,494,496,495,-1,495,496,497,-1,495,497,498,-1,498,497,499,-1,495,500,493,-1,493,500,501,-1,493,501,502,-1,502,501,503,-1,486,485,504,-1,505,506,507,-1,507,506,508,-1,507,508,509,-1,509,508,510,-1,509,510,511,-1,511,510,512,-1,512,513,511,-1,511,513,514,-1,511,514,515,-1,515,514,516,-1,516,517,515,-1,515,517,518,-1,515,518,488,-1,488,518,519,-1,488,519,490,-1,490,519,520,-1,490,520,521,-1,485,522,504,-1,504,522,523,-1,504,523,524,-1,524,523,525,-1,526,527,528,-1,528,527,529,-1,528,529,530,-1,530,529,531,-1,532,483,533,-1,533,483,534,-1,533,534,535,-1,532,536,483,-1,483,536,537,-1,483,537,482,-1,538,539,540,-1,540,539,541,-1,540,541,542,-1,542,541,543,-1,537,544,482,-1,482,544,545,-1,482,545,523,-1,523,545,546,-1,523,546,525,-1,527,547,548,-1,535,534,549,-1,549,534,550,-1,549,550,529,-1,551,552,501,-1,553,554,521,-1,521,554,555,-1,521,555,490,-1,548,556,527,-1,527,556,557,-1,527,557,529,-1,529,557,558,-1,529,558,549,-1,559,560,561,-1,561,560,541,-1,562,563,564,-1,564,563,565,-1,486,566,484,-1,484,566,567,-1,484,567,501,-1,501,567,568,-1,501,568,551,-1,561,569,559,-1,559,569,570,-1,559,570,527,-1,553,562,554,-1,554,562,564,-1,554,564,539,-1,539,564,571,-1,539,571,541,-1,541,571,572,-1,541,572,561,-1,570,573,527,-1,527,573,574,-1,527,574,547,-1,547,574,575,-1,547,575,576,-1,576,575,577,-1,576,577,552,-1,552,577,578,-1,552,578,501,-1,501,578,579,-1,501,579,503,-1,505,507,580,-1,580,507,581,-1,580,581,582,-1,582,581,583,-1,582,583,584,-1,584,583,498,-1,584,498,585,-1,585,498,499,-1,585,499,586,-1,499,587,586,-1,586,587,588,-1,586,588,589,-1,589,588,590,-1,589,590,591,-1,591,590,592,-1,591,592,565,-1,565,592,593,-1,565,593,564,-1,490,555,594,-1,538,540,595,-1,595,540,31,-1,595,31,594,-1,594,31,6,-1,594,6,490,-1,596,597,581,-1,598,599,600,-1,581,507,596,-1,596,507,598,-1,596,598,601,-1,601,598,600,-1,602,603,604,-1,14,602,34,-1,34,602,604,-1,34,604,489,-1,489,604,487,-1,489,491,34,-1,34,491,35,-1,36,35,491,-1,5,4,492,-1,492,4,437,-1,492,437,491,-1,491,437,436,-1,491,436,36,-1,436,465,36,-1,36,465,26,-1,465,446,26,-1,26,446,27,-1,446,437,27,-1,27,437,4,-1,492,490,5,-1,5,490,6,-1,210,605,82,-1,82,605,606,-1,82,606,71,-1,605,459,606,-1,606,459,438,-1,459,605,209,-1,209,605,210,-1,606,438,71,-1,71,438,73,-1,521,607,553,-1,553,607,608,-1,553,608,562,-1,562,608,609,-1,562,609,563,-1,563,609,610,-1,563,610,565,-1,565,610,611,-1,565,611,591,-1,591,611,612,-1,591,612,589,-1,589,612,613,-1,589,613,586,-1,586,613,614,-1,586,614,585,-1,585,614,615,-1,585,615,584,-1,584,615,616,-1,584,616,582,-1,582,616,617,-1,582,617,580,-1,580,617,618,-1,580,618,505,-1,505,618,619,-1,505,619,506,-1,506,619,620,-1,506,620,508,-1,508,620,621,-1,508,621,510,-1,510,621,622,-1,510,622,512,-1,512,622,623,-1,512,623,513,-1,513,623,624,-1,513,624,514,-1,514,624,625,-1,514,625,516,-1,516,625,626,-1,516,626,517,-1,517,626,627,-1,517,627,518,-1,518,627,628,-1,518,628,519,-1,519,628,629,-1,519,629,520,-1,520,629,630,-1,520,630,521,-1,521,630,607,-1,620,619,631,-1,631,619,618,-1,631,618,617,-1,623,622,631,-1,631,622,621,-1,631,621,620,-1,626,625,631,-1,631,625,624,-1,631,624,623,-1,629,628,631,-1,631,628,627,-1,631,627,626,-1,608,607,631,-1,631,607,630,-1,631,630,629,-1,611,610,631,-1,631,610,609,-1,631,609,608,-1,614,613,631,-1,631,613,612,-1,631,612,611,-1,617,616,631,-1,631,616,615,-1,631,615,614,-1,632,633,597,-1,597,633,583,-1,597,583,581,-1,633,634,583,-1,583,634,498,-1,635,634,636,-1,636,634,633,-1,636,633,632,-1,637,598,509,-1,509,598,507,-1,638,637,511,-1,511,637,509,-1,598,637,599,-1,599,637,638,-1,639,640,488,-1,488,640,515,-1,604,639,487,-1,487,639,488,-1,639,604,640,-1,640,604,603,-1,641,594,554,-1,554,594,555,-1,642,641,539,-1,539,641,554,-1,595,594,642,-1,642,594,641,-1,
        ]
    }
}
Shape{
    appearance Appearance {
        material  Material 	{
            diffuseColor 0.6470588235294118 0.6196078431372549 0.5882352941176471
            specularColor 0.45098039215686275 0.43529411764705883 0.4117647058823529
            ambientIntensity 0.6242
            transparency 0.0
            shininess 0.5
        }
    }
    geometry IndexedFaceSet {
        ccw TRUE
        solid FALSE
        coord DEF co Coordinate {
            point [
                -0.5 -1.203 0.7375, -0.7638 -1.203 0.7375, -0.5 -1.1614 0.7375, -0.7638 -1.1614 0.7375, -1.0 -3.5236 0.5407, -1.0 -3.5236 0.2375, -1.0 -3.3268 0.7375, -1.0 -1.1614 0.2375, -1.0 -1.1614 0.7375
            ]
        }
        coordIndex [
            0,1,2,-1,2,1,3,-1,4,5,6,-1,6,5,7,-1,6,7,8,-1,
        ]
    }
}
Shape{
    appearance Appearance {
        material  Material 	{
            diffuseColor 0.24705882352941178 0.49411764705882355 0.27450980392156865
            specularColor 0.01568627450980392 0.03529411764705882 0.0196078431372549
            ambientIntensity 0.5646
            transparency 0.0
            shininess 0.5
        }
    }
    geometry IndexedFaceSet {
        ccw TRUE
        solid FALSE
        coord DEF co Coordinate {
            point [
                -0.5 -1.1614 0.2375, -1.0 -1.1614 0.2375, -0.5 -3.5236 0.2375, -1.0 -3.5236 0.2375, -1.0 -1.1614 0.7375, -0.7638 -1.1614 0.7375, -0.5 -1.1614 0.7375, -1.874 0.4528 3.0709, -1.874 0.4528 2.3622, -1.874 0.0591 2.3622, -1.874 0.4528 0.7874, -1.874 0.4528 0.0787, -1.874 0.0591 0.7874, -1.874 -3.5236 0.0787, -1.874 -3.5236 3.0709, -1.5 -3.3268 0.7375, -1.5 -1.203 0.7375, -1.5 -3.3268 2.295, -1.5 -1.203 1.1637, -1.5 -1.203 2.295, -1.5 -1.203 1.8597, -1.5 -0.7677 1.8597, -1.5 -0.7677 1.1637, 0.1772 -0.7677 2.295, 0.2362 -0.7677 2.295, 0.2362 -1.203 2.295, 0.7638 -0.7677 2.295, 0.8228 -0.7677 2.295, 0.7638 -1.203 2.295, 0.8228 -3.5236 2.295, 0.1772 -3.5236 2.295, -0.2362 -1.203 0.7375, -0.5 -1.203 0.7375, -0.5 -3.3268 0.7375, 1.2362 -1.1614 0.7375, 1.2362 -0.7677 0.7375, 1.0 -1.1614 0.7375, 0.7638 -0.7677 0.7375, 0.7638 -1.203 0.7375, 0.2362 -1.203 0.7375, 0.2362 -0.7677 0.7375, -0.2362 -0.7677 0.7375, 1.0 -3.3268 0.7375, -0.5 -3.5236 0.5407, -0.1772 -0.7677 2.295, -0.1772 -0.7677 2.5221, -0.1772 -3.5236 2.295, -0.1772 -3.5236 2.5221, -0.3934 -3.5236 2.5221, 0.1772 -3.5236 2.5221, 0.3934 -3.5236 2.5221, 0.1772 -0.7677 2.5221, 0.3934 0.4528 2.5221, -0.3934 0.4528 2.5221, -0.3934 0.4528 2.8379, -0.3934 -3.5236 2.8379, 0.3934 0.4528 2.8379, 0.3934 -3.5236 2.8379, -0.315 -0.3346 0.0, -0.315 -0.3346 2.3622, 0.315 -0.3346 0.0, 0.315 -0.3346 2.3622, -0.315 0.4528 2.3622, 0.315 0.4528 2.3622, -0.315 0.4528 0.0, 0.315 0.4528 0.0, 0.0 -0.7677 1.8307, 0.0866 -0.9252 1.8193, 0.0866 -0.7677 1.8193, 0.1673 -0.9252 1.7859, 0.1673 -0.7677 1.7859, 0.2366 -0.9252 1.7327, 0.2366 -0.7677 1.7327, 0.2898 -0.9252 1.6634, 0.2898 -0.7677 1.6634, 0.3232 -0.9252 1.5827, 0.3232 -0.7677 1.5827, 0.3346 -0.9252 1.4961, 0.3346 -0.7677 1.4961, 0.3232 -0.9252 1.4095, 0.3232 -0.7677 1.4095, 0.2898 -0.9252 1.3287, 0.2898 -0.7677 1.3287, 0.2366 -0.9252 1.2594, 0.2366 -0.7677 1.2594, 0.1673 -0.9252 1.2063, 0.1673 -0.7677 1.2063, 0.0866 -0.9252 1.1728, 0.0866 -0.7677 1.1728, 0.0 -0.9252 1.1614, 0.0 -0.7677 1.1614, -0.0866 -0.9252 1.1728, -0.0866 -0.7677 1.1728, -0.1673 -0.9252 1.2063, -0.1673 -0.7677 1.2063, -0.2366 -0.9252 1.2594, -0.2366 -0.7677 1.2594, -0.2898 -0.9252 1.3287, -0.2898 -0.7677 1.3287, -0.3232 -0.9252 1.4095, -0.3232 -0.7677 1.4095, -0.3346 -0.9252 1.4961, -0.3346 -0.7677 1.4961, -0.3232 -0.9252 1.5827, -0.3232 -0.7677 1.5827, -0.2898 -0.9252 1.6634, -0.2898 -0.7677 1.6634, -0.2366 -0.9252 1.7327, -0.2366 -0.7677 1.7327, -0.1673 -0.9252 1.7859, -0.1673 -0.7677 1.7859, -0.0866 -0.9252 1.8193, -0.0866 -0.7677 1.8193, 0.0 -0.9252 1.8307, 0.0 -0.9252 1.4961, 0.2362 -1.203 1.1637, 0.2362 -0.7677 1.1637, 0.7638 -1.203 1.1637, 0.7638 -0.7677 1.1637, -0.2362 -1.203 1.1637, -0.2362 -0.7677 1.1637, -0.2362 -1.203 2.295, -0.2362 -1.203 1.8597, -0.2362 -0.7677 2.295, -0.2362 -0.7677 1.8597, 0.2362 -1.203 1.8597, 0.2362 -0.7677 1.8597, 0.7638 -1.203 1.8597, 0.7638 -0.7677 1.8597, 1.5 -3.3268 2.295, 1.6969 -3.5236 2.295, 1.1772 -3.5236 2.295, 1.1772 -0.7677 2.295, 1.2362 -0.7677 2.295, 1.2362 -1.203 2.295, 1.5 -1.203 2.295, 0.8228 -0.7677 2.5221, 0.8228 -3.5236 2.5221, 0.6066 -3.5236 2.5221, 1.1772 -3.5236 2.5221, 1.3934 -3.5236 2.5221, 1.1772 -0.7677 2.5221, 1.3934 0.4528 2.5221, 0.6066 0.4528 2.5221, 0.6066 0.4528 2.8379, 0.6066 -3.5236 2.8379, 1.3934 0.4528 2.8379, 1.3934 -3.5236 2.8379, 0.685 -0.3346 0.0, 0.685 -0.3346 2.3622, 1.315 -0.3346 0.0, 1.315 -0.3346 2.3622, 0.685 0.4528 2.3622, 1.315 0.4528 2.3622, 0.685 0.4528 0.0, 1.315 0.4528 0.0, 1.0 -0.7677 1.8307, 1.0866 -0.9252 1.8193, 1.0866 -0.7677 1.8193, 1.1673 -0.9252 1.7859, 1.1673 -0.7677 1.7859, 1.2366 -0.9252 1.7327, 1.2366 -0.7677 1.7327, 1.2898 -0.9252 1.6634, 1.2898 -0.7677 1.6634, 1.3232 -0.9252 1.5827, 1.3232 -0.7677 1.5827, 1.3346 -0.9252 1.4961, 1.3346 -0.7677 1.4961, 1.3232 -0.9252 1.4095, 1.3232 -0.7677 1.4095, 1.2898 -0.9252 1.3287, 1.2898 -0.7677 1.3287, 1.2366 -0.9252 1.2594, 1.2366 -0.7677 1.2594, 1.1673 -0.9252 1.2063, 1.1673 -0.7677 1.2063, 1.0866 -0.9252 1.1728, 1.0866 -0.7677 1.1728, 1.0 -0.9252 1.1614, 1.0 -0.7677 1.1614, 0.9134 -0.9252 1.1728, 0.9134 -0.7677 1.1728, 0.8327 -0.9252 1.2063, 0.8327 -0.7677 1.2063, 0.7634 -0.9252 1.2594, 0.7634 -0.7677 1.2594, 0.7102 -0.9252 1.3287, 0.7102 -0.7677 1.3287, 0.6768 -0.9252 1.4095, 0.6768 -0.7677 1.4095, 0.6654 -0.9252 1.4961, 0.6654 -0.7677 1.4961, 0.6768 -0.9252 1.5827, 0.6768 -0.7677 1.5827, 0.7102 -0.9252 1.6634, 0.7102 -0.7677 1.6634, 0.7634 -0.9252 1.7327, 0.7634 -0.7677 1.7327, 0.8327 -0.9252 1.7859, 0.8327 -0.7677 1.7859, 0.9134 -0.9252 1.8193, 0.9134 -0.7677 1.8193, 1.0 -0.9252 1.8307, 1.0 -0.9252 1.4961, 1.2362 -1.203 0.7375, 1.2362 -1.203 1.1637, 1.2362 -0.7677 1.1637, 1.5 -1.203 1.1637, 1.5 -0.7677 1.1637, 1.5 -1.203 0.7375, 1.2362 -1.203 1.8597, 1.2362 -0.7677 1.8597, 1.5 -1.203 1.8597, 1.5 -0.7677 1.8597, 1.5 -1.1614 0.7375, 1.5 -1.1614 0.2375, 1.0 -1.1614 0.2375, 1.5 -3.3268 0.2375, 1.0 -3.5236 0.2375, 1.6969 -3.5236 0.2375, 1.0 -3.5236 0.5407, -1.6969 -3.5236 0.5407, -1.0 -3.3268 0.7375, -1.0 -3.5236 0.5407, -1.6969 -3.5236 2.295, -1.6378 0.0591 0.7874, -1.6378 0.4528 0.7874, -1.6378 0.4528 2.3622, -1.6378 0.0591 2.3622, 1.6378 0.0591 0.7874, 1.6378 0.0591 2.3622, 1.874 0.0591 0.7874, 1.874 0.0591 2.3622, 1.6378 0.4528 2.3622, 1.874 0.4528 2.3622, 1.6378 0.4528 0.7874, 1.874 0.4528 0.7874, 1.874 0.4528 0.0787, 1.874 -3.5236 0.0787, 1.8713 -3.5236 0.0584, 1.8157 -3.5236 0.0027, 1.7953 -3.5236 0.0, 1.7953 -2.3514 0.0, 1.8713 0.4528 0.0584, 1.8635 -3.5236 0.0394, 1.8635 0.4528 0.0394, 1.851 -3.5236 0.0231, 1.851 0.4528 0.0231, 1.8346 -3.5236 0.0106, 1.8346 0.4528 0.0106, 1.8157 0.4528 0.0027, 1.7953 0.4528 0.0, 1.874 -3.5236 3.0709, 1.874 0.4528 3.0709, 1.8713 0.4528 3.0912, 1.8713 -3.5236 3.0912, 1.8635 0.4528 3.1102, 1.8635 -3.5236 3.1102, 1.851 0.4528 3.1265, 1.851 -3.5236 3.1265, 1.8346 0.4528 3.1391, 1.8346 -3.5236 3.1391, 1.8157 0.4528 3.1469, 1.8157 -3.5236 3.1469, 1.7953 0.4528 3.1496, 1.7953 -3.5236 3.1496, -1.7953 -2.3514 0.0, -1.7953 -3.5236 0.0, -1.8157 -3.5236 0.0027, -1.8157 0.4528 0.0027, -1.8346 -3.5236 0.0106, -1.8346 0.4528 0.0106, -1.851 -3.5236 0.0231, -1.851 0.4528 0.0231, -1.8635 -3.5236 0.0394, -1.8635 0.4528 0.0394, -1.8713 -3.5236 0.0584, -1.8713 0.4528 0.0584, -1.7953 0.4528 0.0, -1.8713 -3.5236 3.0912, -1.8713 0.4528 3.0912, -1.8635 -3.5236 3.1102, -1.8635 0.4528 3.1102, -1.851 -3.5236 3.1265, -1.851 0.4528 3.1265, -1.8346 -3.5236 3.1391, -1.8346 0.4528 3.1391, -1.8157 -3.5236 3.1469, -1.8157 0.4528 3.1469, -1.7953 -3.5236 3.1496, -1.7953 0.4528 3.1496, -0.6599 -2.0287 0.0039, -0.6599 -2.0287 0.0, -0.6417 -2.1131 0.0039, -0.6417 -2.1131 0.0, -0.6684 -1.9856 0.0039, -0.6684 -1.9856 0.0, -0.6718 -1.9721 0.0039, -0.6718 -1.9721 0.0, -0.6797 -1.9834 0.0039, -0.6797 -1.9834 0.0, -0.679 -1.9765 0.0, -0.679 -1.9765 0.0039, -0.678 -1.9694 0.0, -0.678 -1.9694 0.0039, -0.6776 -1.968 0.0, -0.6776 -1.968 0.0039, -0.6773 -1.9674 0.0, -0.6773 -1.9674 0.0039, -0.6769 -1.967 0.0, -0.6769 -1.967 0.0039, -0.6765 -1.9668 0.0, -0.6765 -1.9668 0.0039, -0.6761 -1.9666 0.0, -0.6761 -1.9666 0.0039, -0.6757 -1.9666 0.0, -0.6757 -1.9666 0.0039, -0.6753 -1.9667 0.0, -0.6753 -1.9667 0.0039, -0.6748 -1.9669 0.0, -0.6748 -1.9669 0.0039, -0.6743 -1.9672 0.0, -0.6743 -1.9672 0.0039, -0.6738 -1.9679 0.0, -0.6738 -1.9679 0.0039, -0.6732 -1.9688 0.0, -0.6732 -1.9688 0.0039, -0.6725 -1.9701 0.0, -0.6725 -1.9701 0.0039, -0.6825 -2.0071 0.0039, -0.6825 -2.0071 0.0, -0.6808 -2.0287 0.0039, -0.6808 -2.0287 0.0, -0.682 -2.0265 0.0, -0.682 -2.0265 0.0039, -0.683 -2.0233 0.0, -0.683 -2.0233 0.0039, -0.6833 -2.0181 0.0, -0.6833 -2.0181 0.0039, -0.678 -2.0338 0.0039, -0.678 -2.0338 0.0, -0.6644 -2.0836 0.0039, -0.6644 -2.0836 0.0, -0.6706 -2.0585 0.0, -0.6706 -2.0585 0.0039, -0.6066 -2.3514 0.0, -0.6061 -2.3537 0.0039, -0.6061 -2.3537 0.0, -0.5982 -2.3537 0.0039, -0.5982 -2.3537 0.0, -0.5433 -2.1108 0.0039, -0.5433 -2.1108 0.0, -0.5977 -2.3514 0.0, -0.5365 -2.0825 0.0039, -0.5365 -2.0825 0.0, -0.5297 -2.0559 0.0039, -0.5297 -2.0559 0.0, -0.5334 -2.0691 0.0, -0.5334 -2.0691 0.0039, -0.5257 -2.0451 0.0039, -0.5257 -2.0451 0.0, -0.5177 -2.0117 0.0039, -0.5177 -2.0117 0.0, -0.5177 -2.0118 0.0, -0.5177 -2.0118 0.0039, -0.5169 -2.0251 0.0, -0.5169 -2.0251 0.0039, -0.5168 -2.0272 0.0, -0.5168 -2.0272 0.0039, -0.517 -2.0278 0.0, -0.517 -2.0278 0.0039, -0.5173 -2.0285 0.0, -0.5173 -2.0285 0.0039, -0.518 -2.0294 0.0, -0.518 -2.0294 0.0039, -0.5197 -2.0314 0.0, -0.5197 -2.0314 0.0039, -0.5221 -2.035 0.0, -0.5221 -2.035 0.0039, -0.52 -1.9862 0.0039, -0.52 -1.9862 0.0, -0.5212 -1.9766 0.0039, -0.5212 -1.9766 0.0, -0.5274 -1.9715 0.0039, -0.5274 -1.9715 0.0, -0.527 -1.97 0.0, -0.527 -1.97 0.0039, -0.5265 -1.9689 0.0, -0.5265 -1.9689 0.0039, -0.526 -1.9683 0.0, -0.526 -1.9683 0.0039, -0.5256 -1.9679 0.0, -0.5256 -1.9679 0.0039, -0.525 -1.9676 0.0, -0.525 -1.9676 0.0039, -0.5244 -1.9674 0.0, -0.5244 -1.9674 0.0039, -0.524 -1.9674 0.0, -0.524 -1.9674 0.0039, -0.5236 -1.9675 0.0, -0.5236 -1.9675 0.0039, -0.5232 -1.9678 0.0, -0.5232 -1.9678 0.0039, -0.5228 -1.9681 0.0, -0.5228 -1.9681 0.0039, -0.5225 -1.9685 0.0, -0.5225 -1.9685 0.0039, -0.5222 -1.9692 0.0, -0.5222 -1.9692 0.0039, -0.522 -1.9701 0.0, -0.522 -1.9701 0.0039, -0.5217 -1.9715 0.0, -0.5217 -1.9715 0.0039, -0.5214 -1.9736 0.0, -0.5214 -1.9736 0.0039, -0.5313 -1.9941 0.0039, -0.5313 -1.9941 0.0, -0.5647 -2.1317 0.0039, -0.5647 -2.1317 0.0, -0.6021 -2.2993 0.0039, -0.639 -2.1329 0.0039, -0.5659 -2.1403 0.0039, -0.5812 -2.1549 0.0039, -0.5953 -2.1453 0.0039, -0.6001 -2.1427 0.0039, -0.6167 -2.1375 0.0039, -0.639 -2.1329 0.0, -0.6021 -2.2993 0.0, -0.5953 -2.1453 0.0, -0.6001 -2.1427 0.0, -0.6167 -2.1375 0.0, -0.5812 -2.1549 0.0, -0.5659 -2.1403 0.0, -0.8871 -2.318 0.0039, -0.8871 -2.318 0.0, -0.877 -2.3095 0.0039, -0.877 -2.3095 0.0, -0.89 -2.3305 0.0039, -0.89 -2.3305 0.0, -0.8907 -2.3299 0.0, -0.8907 -2.3299 0.0039, -0.8915 -2.3291 0.0, -0.8915 -2.3291 0.0039, -0.892 -2.3282 0.0, -0.892 -2.3282 0.0039, -0.8924 -2.3267 0.0, -0.8924 -2.3267 0.0039, -0.8924 -2.3254 0.0, -0.8924 -2.3254 0.0039, -0.8921 -2.324 0.0, -0.8921 -2.324 0.0039, -0.8911 -2.322 0.0, -0.8911 -2.322 0.0039, -0.8896 -2.32 0.0, -0.8896 -2.32 0.0039, -0.8797 -2.3288 0.0039, -0.8797 -2.3288 0.0, -0.8679 -2.3288 0.0039, -0.8679 -2.3288 0.0, -0.8583 -2.3305 0.0039, -0.8583 -2.3305 0.0, -0.8631 -2.3296 0.0, -0.8631 -2.3296 0.0039, -0.8463 -2.3316 0.0039, -0.8463 -2.3316 0.0, -0.8249 -2.3378 0.0039, -0.8249 -2.3378 0.0, -0.8 -2.3413 0.0039, -0.8 -2.3413 0.0, -0.8125 -2.3402 0.0, -0.8125 -2.3402 0.0039, -0.7212 -2.1453 0.0039, -0.7212 -2.1453 0.0, -0.7238 -2.2238 0.0, -0.7238 -2.2238 0.0039, -0.732 -2.2872 0.0, -0.732 -2.2872 0.0039, -0.7408 -2.3103 0.0, -0.7408 -2.3103 0.0039, -0.7499 -2.3234 0.0, -0.7499 -2.3234 0.0039, -0.7592 -2.3317 0.0, -0.7592 -2.3317 0.0039, -0.7696 -2.3371 0.0, -0.7696 -2.3371 0.0039, -0.7823 -2.3401 0.0, -0.7823 -2.3401 0.0039, -0.822 -1.9896 0.0039, -0.822 -1.9896 0.0, -0.7905 -1.9939 0.0, -0.7905 -1.9939 0.0039, -0.7753 -1.9978 0.0, -0.7753 -1.9978 0.0039, -0.7641 -2.0042 0.0, -0.7641 -2.0042 0.0039, -0.7544 -2.0136 0.0, -0.7544 -2.0136 0.0039, -0.7439 -2.0287 0.0, -0.7439 -2.0287 0.0039, -0.7359 -2.0452 0.0, -0.7359 -2.0452 0.0039, -0.7261 -2.0831 0.0, -0.7261 -2.0831 0.0039, -0.8469 -1.9867 0.0039, -0.8469 -1.9867 0.0, -0.8645 -1.9794 0.0039, -0.8645 -1.9794 0.0, -0.864 -1.9796 0.0, -0.864 -1.9796 0.0039, -0.8621 -1.9807 0.0, -0.8621 -1.9807 0.0039, -0.8562 -1.9843 0.0, -0.8562 -1.9843 0.0039, -0.8815 -1.993 0.0039, -0.8815 -1.993 0.0, -0.8789 -1.9902 0.0, -0.8789 -1.9902 0.0039, -0.8708 -1.9826 0.0, -0.8708 -1.9826 0.0039, -0.8671 -1.98 0.0, -0.8671 -1.98 0.0039, -0.866 -1.9795 0.0, -0.866 -1.9795 0.0039, -0.8883 -2.0003 0.0039, -0.8883 -2.0003 0.0, -0.8865 -2.0089 0.0039, -0.8865 -2.0089 0.0, -0.8885 -2.0091 0.0, -0.8885 -2.0091 0.0039, -0.8899 -2.009 0.0, -0.8899 -2.009 0.0039, -0.8904 -2.0088 0.0, -0.8904 -2.0088 0.0039, -0.8908 -2.0086 0.0, -0.8908 -2.0086 0.0039, -0.891 -2.0083 0.0, -0.891 -2.0083 0.0039, -0.8913 -2.0078 0.0, -0.8913 -2.0078 0.0039, -0.8918 -2.0067 0.0, -0.8918 -2.0067 0.0039, -0.8919 -2.0059 0.0, -0.8919 -2.0059 0.0039, -0.8919 -2.0053 0.0, -0.8919 -2.0053 0.0039, -0.8917 -2.0047 0.0, -0.8917 -2.0047 0.0039, -0.8913 -2.004 0.0, -0.8913 -2.004 0.0039, -0.8907 -2.0031 0.0, -0.8907 -2.0031 0.0039, -0.8897 -2.0019 0.0, -0.8897 -2.0019 0.0039, -0.8786 -2.0089 0.0039, -0.8786 -2.0089 0.0, -0.8696 -2.0089 0.0039, -0.8696 -2.0089 0.0, -0.8696 -2.3056 0.0039, -0.8696 -2.3056 0.0, -0.8734 -2.3074 0.0, -0.8734 -2.3074 0.0039, -0.8537 -2.3095 0.0039, -0.8537 -2.01 0.0039, -0.7812 -2.0183 0.0039, -0.7938 -2.0151 0.0039, -0.8113 -2.0128 0.0039, -0.8362 -2.01 0.0039, -0.772 -2.0224 0.0039, -0.845 -2.0096 0.0039, -0.843 -2.3141 0.0039, -0.8189 -2.3196 0.0039, -0.7943 -2.3215 0.0039, -0.7793 -2.3186 0.0039, -0.7652 -2.0278 0.0039, -0.7586 -2.0363 0.0039, -0.7474 -2.0614 0.0039, -0.7384 -2.1117 0.0039, -0.7684 -2.3143 0.0039, -0.7617 -2.3094 0.0039, -0.7549 -2.3013 0.0039, -0.7486 -2.2891 0.0039, -0.7437 -2.2721 0.0039, -0.737 -2.1951 0.0039, -0.8113 -2.0128 0.0, -0.8362 -2.01 0.0, -0.737 -2.1951 0.0, -0.7384 -2.1117 0.0, -0.7474 -2.0614 0.0, -0.7586 -2.0363 0.0, -0.7652 -2.0278 0.0, -0.772 -2.0224 0.0, -0.7812 -2.0183 0.0, -0.7938 -2.0151 0.0, -0.7943 -2.3215 0.0, -0.7793 -2.3186 0.0, -0.7684 -2.3143 0.0, -0.7617 -2.3094 0.0, -0.7549 -2.3013 0.0, -0.7486 -2.2891 0.0, -0.7437 -2.2721 0.0, -0.843 -2.3141 0.0, -0.8189 -2.3196 0.0, -0.8537 -2.3095 0.0, -0.8537 -2.01 0.0, -0.845 -2.0096 0.0, -1.0096 -2.1883 0.0039, -1.0096 -2.1883 0.0, -1.0572 -2.1821 0.0039, -1.0572 -2.1821 0.0, -0.9717 -2.2002 0.0039, -0.9717 -2.2002 0.0, -0.9774 -2.1968 0.0, -0.9774 -2.1968 0.0039, -0.99 -2.1923 0.0, -0.99 -2.1923 0.0039, -0.9666 -2.2031 0.0039, -0.9666 -2.2031 0.0, -0.9501 -2.1866 0.0039, -0.9501 -2.1866 0.0, -0.953 -2.177 0.0039, -0.953 -2.177 0.0, -0.9516 -2.1771 0.0, -0.9516 -2.1771 0.0039, -0.9505 -2.1774 0.0, -0.9505 -2.1774 0.0039, -0.9495 -2.178 0.0, -0.9495 -2.178 0.0039, -0.9487 -2.1788 0.0, -0.9487 -2.1788 0.0039, -0.948 -2.1799 0.0, -0.948 -2.1799 0.0039, -0.9477 -2.1809 0.0, -0.9477 -2.1809 0.0039, -0.9476 -2.1817 0.0, -0.9476 -2.1817 0.0039, -0.9478 -2.1827 0.0, -0.9478 -2.1827 0.0039, -0.9482 -2.1838 0.0, -0.9482 -2.1838 0.0039, -0.949 -2.1851 0.0, -0.949 -2.1851 0.0039, -1.0572 -2.1623 0.0039, -1.0572 -2.1623 0.0, -1.0572 -2.0089 0.0039, -1.0572 -2.0089 0.0, -0.9728 -2.0207 0.0039, -0.9728 -2.0207 0.0, -0.9569 -2.0264 0.0039, -0.9569 -2.0264 0.0, -0.9646 -2.0228 0.0, -0.9646 -2.0228 0.0039, -0.9519 -2.0293 0.0039, -0.9519 -2.0293 0.0, -0.936 -2.0117 0.0039, -0.936 -2.0117 0.0, -0.9394 -2.0026 0.0039, -0.9394 -2.0026 0.0, -0.9376 -2.0027 0.0, -0.9376 -2.0027 0.0039, -0.9361 -2.003 0.0, -0.9361 -2.003 0.0039, -0.936 -2.003 0.0, -0.936 -2.003 0.0039, -0.9354 -2.0033 0.0, -0.9354 -2.0033 0.0039, -0.935 -2.0036 0.0, -0.935 -2.0036 0.0039, -0.9346 -2.0042 0.0, -0.9346 -2.0042 0.0039, -0.934 -2.0052 0.0, -0.934 -2.0052 0.0039, -0.9337 -2.0062 0.0, -0.9337 -2.0062 0.0039, -0.9336 -2.007 0.0, -0.9336 -2.007 0.0039, -0.9338 -2.008 0.0, -0.9338 -2.008 0.0039, -0.9343 -2.0093 0.0, -0.9343 -2.0093 0.0039, -0.9479 -2.0021 0.0039, -0.9479 -2.0021 0.0, -1.0334 -1.9902 0.0039, -1.0334 -1.9902 0.0, -0.9907 -1.9968 0.0, -0.9907 -1.9968 0.0039, -1.0594 -1.9856 0.0039, -1.0594 -1.9856 0.0, -1.0787 -1.9935 0.0039, -1.0787 -1.9935 0.0, -1.0789 -1.9924 0.0, -1.0789 -1.9924 0.0039, -1.079 -1.9891 0.0, -1.079 -1.9891 0.0039, -1.0786 -1.9869 0.0, -1.0786 -1.9869 0.0039, -1.078 -1.9856 0.0, -1.078 -1.9856 0.0039, -1.0768 -1.9842 0.0, -1.0768 -1.9842 0.0039, -1.0754 -1.9831 0.0, -1.0754 -1.9831 0.0039, -1.0741 -1.9825 0.0, -1.0741 -1.9825 0.0039, -1.0726 -1.9822 0.0, -1.0726 -1.9822 0.0039, -1.0697 -1.9824 0.0, -1.0697 -1.9824 0.0039, -1.0657 -1.9833 0.0, -1.0657 -1.9833 0.0039, -1.0736 -2.0225 0.0039, -1.0736 -2.0225 0.0, -1.0751 -2.0078 0.0, -1.0751 -2.0078 0.0039, -1.0736 -2.0332 0.0039, -1.0736 -2.0332 0.0, -1.073 -2.0474 0.0039, -1.073 -2.0474 0.0, -1.0733 -2.0403 0.0, -1.0733 -2.0403 0.0039, -1.0736 -2.3067 0.0039, -1.0736 -2.3067 0.0, -1.0827 -2.3316 0.0039, -1.0827 -2.3316 0.0, -1.0843 -2.3318 0.0, -1.0843 -2.3318 0.0039, -1.0858 -2.3317 0.0, -1.0858 -2.3317 0.0039, -1.0866 -2.3314 0.0, -1.0866 -2.3314 0.0039, -1.0869 -2.3313 0.0, -1.0869 -2.3313 0.0039, -1.0871 -2.3311 0.0, -1.0871 -2.3311 0.0039, -1.0873 -2.3308 0.0, -1.0873 -2.3308 0.0039, -1.0875 -2.3304 0.0, -1.0875 -2.3304 0.0039, -1.0876 -2.3299 0.0, -1.0876 -2.3299 0.0039, -1.0876 -2.3286 0.0, -1.0876 -2.3286 0.0039, -1.0875 -2.3269 0.0, -1.0875 -2.3269 0.0039, -1.087 -2.3242 0.0, -1.087 -2.3242 0.0039, -1.0861 -2.3223 0.0, -1.0861 -2.3223 0.0039, -1.0838 -2.3189 0.0, -1.0838 -2.3189 0.0039, -1.08 -2.3142 0.0, -1.08 -2.3142 0.0039, -1.0719 -2.3299 0.0039, -1.0719 -2.3299 0.0, -1.0526 -2.3288 0.0039, -1.0526 -2.3288 0.0, -1.0623 -2.3287 0.0, -1.0623 -2.3287 0.0039, -1.051 -2.3288 0.0039, -1.051 -2.3288 0.0, -1.0289 -2.3305 0.0039, -1.0289 -2.3305 0.0, -1.0399 -2.329 0.0, -1.0399 -2.329 0.0039, -1.0067 -2.3345 0.0039, -1.0067 -2.3345 0.0, -0.9688 -2.3458 0.0039, -0.9688 -2.3458 0.0, -0.9718 -2.344 0.0, -0.9718 -2.344 0.0039, -0.9872 -2.3384 0.0, -0.9872 -2.3384 0.0039, -0.9637 -2.3491 0.0039, -0.9637 -2.3491 0.0, -0.9474 -2.3322 0.0039, -0.9474 -2.3322 0.0, -0.9501 -2.3231 0.0039, -0.9501 -2.3231 0.0, -0.9488 -2.3232 0.0, -0.9488 -2.3232 0.0039, -0.9477 -2.3235 0.0, -0.9477 -2.3235 0.0039, -0.9467 -2.3241 0.0, -0.9467 -2.3241 0.0039, -0.9459 -2.3249 0.0, -0.9459 -2.3249 0.0039, -0.9454 -2.3256 0.0, -0.9454 -2.3256 0.0039, -0.9452 -2.3263 0.0, -0.9452 -2.3263 0.0039, -0.9451 -2.3271 0.0, -0.9451 -2.3271 0.0039, -0.9452 -2.328 0.0, -0.9452 -2.328 0.0039, -0.9456 -2.329 0.0, -0.9456 -2.329 0.0039, -0.9463 -2.3303 0.0, -0.9463 -2.3303 0.0039, -0.9592 -2.322 0.0039, -0.9592 -2.322 0.0, -0.9859 -2.3186 0.0039, -0.9859 -2.3186 0.0, -0.9725 -2.3202 0.0, -0.9725 -2.3202 0.0039, -1.0572 -2.3067 0.0039, -1.0572 -2.3067 0.0, -1.1434 -2.3407 0.0039, -1.1434 -2.3407 0.0, -1.1519 -2.3407 0.0039, -1.1519 -2.3407 0.0, -1.1434 -2.1895 0.0039, -1.1434 -2.1895 0.0, -1.1541 -2.1895 0.0039, -1.1541 -2.1895 0.0, -1.204 -2.3283 0.0039, -1.204 -2.3283 0.0, -1.1954 -2.3264 0.0, -1.1954 -2.3264 0.0039, -1.1874 -2.3228 0.0, -1.1874 -2.3228 0.0039, -1.1799 -2.3171 0.0, -1.1799 -2.3171 0.0039, -1.173 -2.3089 0.0, -1.173 -2.3089 0.0039, -1.1659 -2.2949 0.0, -1.1659 -2.2949 0.0039, -1.1589 -2.2693 0.0, -1.1589 -2.2693 0.0039, -1.2748 -2.1362 0.0039, -1.2748 -2.1362 0.0, -1.2727 -2.2263 0.0, -1.2727 -2.2263 0.0039, -1.2676 -2.2558 0.0, -1.2676 -2.2558 0.0039, -1.2544 -2.2939 0.0, -1.2544 -2.2939 0.0039, -1.2446 -2.3092 0.0, -1.2446 -2.3092 0.0039, -1.2355 -2.3182 0.0, -1.2355 -2.3182 0.0039, -1.2259 -2.3241 0.0, -1.2259 -2.3241 0.0039, -1.2158 -2.3275 0.0, -1.2158 -2.3275 0.0039, -1.2085 -1.9992 0.0039, -1.2085 -1.9992 0.0, -1.2164 -2.0 0.0, -1.2164 -2.0 0.0039, -1.2239 -2.0023 0.0, -1.2239 -2.0023 0.0039, -1.2311 -2.0065 0.0, -1.2311 -2.0065 0.0039, -1.2393 -2.014 0.0, -1.2393 -2.014 0.0039, -1.2522 -2.0323 0.0, -1.2522 -2.0323 0.0039, -1.2608 -2.0553 0.0, -1.2608 -2.0553 0.0039, -1.1468 -2.0904 0.0039, -1.1468 -2.0904 0.0, -1.1493 -2.0737 0.0, -1.1493 -2.0737 0.0039, -1.1574 -2.0363 0.0, -1.1574 -2.0363 0.0039, -1.1648 -2.0216 0.0, -1.1648 -2.0216 0.0039, -1.1732 -2.012 0.0, -1.1732 -2.012 0.0039, -1.1833 -2.0049 0.0, -1.1833 -2.0049 0.0039, -1.1958 -2.0002 0.0, -1.1958 -2.0002 0.0039, -1.144 -2.1204 0.0039, -1.144 -2.1204 0.0, -1.1349 -2.1199 0.0039, -1.1349 -2.1199 0.0, -1.2006 -1.9805 0.0039, -1.2006 -1.9805 0.0, -1.1877 -1.9827 0.0, -1.1877 -1.9827 0.0039, -1.174 -1.9889 0.0, -1.174 -1.9889 0.0039, -1.1628 -1.9979 0.0, -1.1628 -1.9979 0.0039, -1.1549 -2.0081 0.0, -1.1549 -2.0081 0.0039, -1.145 -2.0287 0.0, -1.145 -2.0287 0.0039, -1.1387 -2.0564 0.0, -1.1387 -2.0564 0.0039, -1.2878 -2.2241 0.0039, -1.2878 -2.2241 0.0, -1.2906 -2.1956 0.0, -1.2906 -2.1956 0.0039, -1.2876 -2.1099 0.0, -1.2876 -2.1099 0.0039, -1.2814 -2.0715 0.0, -1.2814 -2.0715 0.0039, -1.2656 -2.0241 0.0, -1.2656 -2.0241 0.0039, -1.2526 -2.003 0.0, -1.2526 -2.003 0.0039, -1.2432 -1.9933 0.0, -1.2432 -1.9933 0.0039, -1.2301 -1.9857 0.0, -1.2301 -1.9857 0.0039, -1.2151 -1.981 0.0, -1.2151 -1.981 0.0039, -1.2085 -2.3469 0.0039, -1.2085 -2.3469 0.0, -1.2165 -2.3468 0.0, -1.2165 -2.3468 0.0039, -1.2246 -2.3452 0.0, -1.2246 -2.3452 0.0039, -1.233 -2.341 0.0, -1.233 -2.341 0.0039, -1.2506 -2.3274 0.0, -1.2506 -2.3274 0.0039, -1.2621 -2.3124 0.0, -1.2621 -2.3124 0.0039, -1.2741 -2.2854 0.0, -1.2741 -2.2854 0.0039, -1.1609 -2.3163 0.0039, -1.1609 -2.3163 0.0, -1.1675 -2.3251 0.0, -1.1675 -2.3251 0.0039, -1.1788 -2.3354 0.0, -1.1788 -2.3354 0.0039, -1.1919 -2.3426 0.0, -1.1919 -2.3426 0.0039, -1.1559 -2.3073 0.0039, -1.1559 -2.3073 0.0, -1.4571 -2.3616 0.0, -1.4571 -2.3616 0.0039, -1.4489 -2.3514 0.0, -1.4322 -2.3305 0.0039, -1.4322 -2.3305 0.0, -1.4406 -2.2948 0.0039, -1.4406 -2.2948 0.0, -1.4405 -2.3021 0.0, -1.4405 -2.3021 0.0039, -1.438 -2.3181 0.0, -1.438 -2.3181 0.0039, -1.4406 -2.006 0.0039, -1.4406 -2.006 0.0, -1.3563 -2.023 0.0039, -1.3563 -2.023 0.0, -1.3582 -2.0222 0.0, -1.3582 -2.0222 0.0039, -1.36 -2.0209 0.0, -1.36 -2.0209 0.0039, -1.3652 -2.0164 0.0, -1.3652 -2.0164 0.0039, -1.3693 -2.0145 0.0, -1.3693 -2.0145 0.0039, -1.3763 -2.0129 0.0, -1.3763 -2.0129 0.0039, -1.397 -2.0097 0.0, -1.397 -2.0097 0.0039, -1.3331 -1.9976 0.0039, -1.3331 -1.9976 0.0, -1.3333 -1.9996 0.0, -1.3333 -1.9996 0.0039, -1.3338 -2.0016 0.0, -1.3338 -2.0016 0.0039, -1.3348 -2.0033 0.0, -1.3348 -2.0033 0.0039, -1.3369 -2.0056 0.0, -1.3369 -2.0056 0.0039, -1.3431 -2.0113 0.0, -1.3431 -2.0113 0.0039, -1.4124 -1.9873 0.0039, -1.4124 -1.9873 0.0, -1.4001 -1.9883 0.0, -1.4001 -1.9883 0.0039, -1.3628 -1.9922 0.0, -1.3628 -1.9922 0.0039, -1.3484 -1.9942 0.0, -1.3484 -1.9942 0.0039, -1.3385 -1.9945 0.0, -1.3385 -1.9945 0.0039, -1.3364 -1.9947 0.0, -1.3364 -1.9947 0.0039, -1.335 -1.9953 0.0, -1.335 -1.9953 0.0039, -1.3342 -1.9958 0.0, -1.3342 -1.9958 0.0039, -1.3337 -1.9963 0.0, -1.3337 -1.9963 0.0039, -1.4361 -1.9851 0.0039, -1.4361 -1.9851 0.0, -1.4492 -1.984 0.0039, -1.4492 -1.984 0.0, -1.4565 -2.0083 0.0039, -1.4565 -2.0083 0.0, -1.4568 -2.0049 0.0, -1.4568 -2.0049 0.0039, -1.4583 -1.9911 0.0, -1.4583 -1.9911 0.0039, -1.4583 -1.9879 0.0, -1.4583 -1.9879 0.0039, -1.4579 -1.9864 0.0, -1.4579 -1.9864 0.0039, -1.4571 -1.9848 0.0, -1.4571 -1.9848 0.0039, -1.4563 -1.984 0.0, -1.4563 -1.984 0.0039, -1.4556 -1.9835 0.0, -1.4556 -1.9835 0.0039, -1.4548 -1.9831 0.0, -1.4548 -1.9831 0.0039, -1.4537 -1.983 0.0, -1.4537 -1.983 0.0039, -1.4521 -1.9831 0.0, -1.4521 -1.9831 0.0039, -1.4554 -2.0417 0.0039, -1.4554 -2.0417 0.0, -1.4554 -2.2965 0.0039, -1.4554 -2.2965 0.0, -1.4599 -2.3514 0.0039, -1.4599 -2.3514 0.0, -1.4557 -2.3242 0.0, -1.4557 -2.3242 0.0039, -1.461 -2.3571 0.0039, -1.461 -2.3571 0.0
            ]
        }
        coordIndex [
            0,1,2,-1,2,1,3,-1,4,1,5,-1,5,1,0,-1,5,0,6,-1,7,8,9,-1,10,11,12,-1,12,11,13,-1,12,13,9,-1,9,13,14,-1,9,14,7,-1,15,16,17,-1,17,16,18,-1,19,17,20,-1,20,17,18,-1,20,18,21,-1,21,18,22,-1,23,24,25,-1,26,27,28,-1,28,27,29,-1,28,29,25,-1,25,29,30,-1,25,30,23,-1,31,32,33,-1,34,35,36,-1,36,35,37,-1,36,37,38,-1,39,40,41,-1,41,31,39,-1,39,31,33,-1,39,33,38,-1,38,33,42,-1,38,42,36,-1,32,6,0,-1,32,0,33,-1,33,0,2,-1,33,2,43,-1,44,45,46,-1,46,45,47,-1,48,47,45,-1,49,50,51,-1,51,50,52,-1,51,52,45,-1,45,52,53,-1,45,53,48,-1,53,54,48,-1,48,54,55,-1,54,56,55,-1,55,56,57,-1,56,52,57,-1,57,52,50,-1,51,23,49,-1,49,23,30,-1,58,59,60,-1,60,59,61,-1,59,62,61,-1,61,62,63,-1,62,59,64,-1,64,59,58,-1,61,63,60,-1,60,63,65,-1,66,67,68,-1,68,67,69,-1,68,69,70,-1,70,69,71,-1,70,71,72,-1,72,71,73,-1,72,73,74,-1,74,73,75,-1,74,75,76,-1,76,75,77,-1,76,77,78,-1,78,77,79,-1,78,79,80,-1,80,79,81,-1,80,81,82,-1,82,81,83,-1,82,83,84,-1,84,83,85,-1,84,85,86,-1,86,85,87,-1,86,87,88,-1,88,87,89,-1,88,89,90,-1,90,89,91,-1,90,91,92,-1,92,91,93,-1,92,93,94,-1,94,93,95,-1,94,95,96,-1,96,95,97,-1,96,97,98,-1,98,97,99,-1,98,99,100,-1,100,99,101,-1,100,101,102,-1,102,101,103,-1,102,103,104,-1,104,103,105,-1,104,105,106,-1,106,105,107,-1,106,107,108,-1,108,107,109,-1,108,109,110,-1,110,109,111,-1,110,111,112,-1,112,111,113,-1,112,113,66,-1,66,113,67,-1,93,91,114,-1,114,91,89,-1,114,89,87,-1,99,97,114,-1,114,97,95,-1,114,95,93,-1,105,103,114,-1,114,103,101,-1,114,101,99,-1,111,109,114,-1,114,109,107,-1,114,107,105,-1,69,67,114,-1,114,67,113,-1,114,113,111,-1,75,73,114,-1,114,73,71,-1,114,71,69,-1,81,79,114,-1,114,79,77,-1,114,77,75,-1,87,85,114,-1,114,85,83,-1,114,83,81,-1,39,115,40,-1,40,115,116,-1,115,117,116,-1,116,117,118,-1,38,117,39,-1,39,117,115,-1,119,31,120,-1,120,31,41,-1,121,122,123,-1,123,122,124,-1,125,25,126,-1,126,25,24,-1,127,125,128,-1,128,125,126,-1,28,25,127,-1,127,25,125,-1,129,130,131,-1,132,133,134,-1,132,134,131,-1,131,134,135,-1,131,135,129,-1,27,136,29,-1,29,136,137,-1,138,137,136,-1,139,140,141,-1,141,140,142,-1,141,142,136,-1,136,142,143,-1,136,143,138,-1,143,144,138,-1,138,144,145,-1,144,146,145,-1,145,146,147,-1,146,142,147,-1,147,142,140,-1,141,132,139,-1,139,132,131,-1,148,149,150,-1,150,149,151,-1,149,152,151,-1,151,152,153,-1,152,149,154,-1,154,149,148,-1,151,153,150,-1,150,153,155,-1,156,157,158,-1,158,157,159,-1,158,159,160,-1,160,159,161,-1,160,161,162,-1,162,161,163,-1,162,163,164,-1,164,163,165,-1,164,165,166,-1,166,165,167,-1,166,167,168,-1,168,167,169,-1,168,169,170,-1,170,169,171,-1,170,171,172,-1,172,171,173,-1,172,173,174,-1,174,173,175,-1,174,175,176,-1,176,175,177,-1,176,177,178,-1,178,177,179,-1,178,179,180,-1,180,179,181,-1,180,181,182,-1,182,181,183,-1,182,183,184,-1,184,183,185,-1,184,185,186,-1,186,185,187,-1,186,187,188,-1,188,187,189,-1,188,189,190,-1,190,189,191,-1,190,191,192,-1,192,191,193,-1,192,193,194,-1,194,193,195,-1,194,195,196,-1,196,195,197,-1,196,197,198,-1,198,197,199,-1,198,199,200,-1,200,199,201,-1,200,201,202,-1,202,201,203,-1,202,203,156,-1,156,203,157,-1,183,181,204,-1,204,181,179,-1,204,179,177,-1,189,187,204,-1,204,187,185,-1,204,185,183,-1,195,193,204,-1,204,193,191,-1,204,191,189,-1,201,199,204,-1,204,199,197,-1,204,197,195,-1,159,157,204,-1,204,157,203,-1,204,203,201,-1,165,163,204,-1,204,163,161,-1,204,161,159,-1,171,169,204,-1,204,169,167,-1,204,167,165,-1,177,175,204,-1,204,175,173,-1,204,173,171,-1,205,206,34,-1,34,206,207,-1,34,207,35,-1,206,208,207,-1,207,208,209,-1,210,208,205,-1,205,208,206,-1,117,38,118,-1,118,38,37,-1,28,127,26,-1,26,127,128,-1,211,134,212,-1,212,134,133,-1,213,211,214,-1,214,211,212,-1,134,211,135,-1,135,211,213,-1,210,205,215,-1,215,205,34,-1,216,217,218,-1,218,217,219,-1,218,219,220,-1,221,219,42,-1,42,219,217,-1,42,217,36,-1,36,217,34,-1,34,217,216,-1,34,216,215,-1,33,43,42,-1,42,43,221,-1,130,129,220,-1,220,129,218,-1,15,222,223,-1,223,222,224,-1,17,225,15,-1,15,225,222,-1,226,227,12,-1,12,227,10,-1,228,229,8,-1,8,229,9,-1,229,226,9,-1,9,226,12,-1,229,228,226,-1,226,228,227,-1,230,231,232,-1,232,231,233,-1,231,234,233,-1,233,234,235,-1,236,230,237,-1,237,230,232,-1,236,234,230,-1,230,234,231,-1,238,239,240,-1,241,242,243,-1,238,240,244,-1,244,240,245,-1,244,245,246,-1,246,245,247,-1,246,247,248,-1,248,247,249,-1,248,249,250,-1,250,249,241,-1,250,241,251,-1,251,241,243,-1,251,243,252,-1,253,254,255,-1,253,255,256,-1,256,255,257,-1,256,257,258,-1,258,257,259,-1,258,259,260,-1,260,259,261,-1,260,261,262,-1,262,261,263,-1,262,263,264,-1,264,263,265,-1,264,265,266,-1,267,268,269,-1,270,271,272,-1,272,271,273,-1,272,273,274,-1,274,273,275,-1,274,275,276,-1,276,275,277,-1,276,277,278,-1,278,277,13,-1,278,13,11,-1,279,267,270,-1,270,267,269,-1,270,269,271,-1,7,14,280,-1,7,280,281,-1,281,280,282,-1,281,282,283,-1,283,282,284,-1,283,284,285,-1,285,284,286,-1,285,286,287,-1,287,286,288,-1,287,288,289,-1,289,288,290,-1,289,290,291,-1,292,293,294,-1,294,293,295,-1,296,297,292,-1,292,297,293,-1,298,299,296,-1,296,299,297,-1,300,301,302,-1,300,302,303,-1,303,302,304,-1,303,304,305,-1,305,304,306,-1,305,306,307,-1,307,306,308,-1,307,308,309,-1,309,308,310,-1,309,310,311,-1,311,310,312,-1,311,312,313,-1,313,312,314,-1,313,314,315,-1,315,314,316,-1,315,316,317,-1,317,316,318,-1,317,318,319,-1,319,318,320,-1,319,320,321,-1,321,320,322,-1,321,322,323,-1,323,322,324,-1,323,324,325,-1,325,324,326,-1,325,326,327,-1,327,326,328,-1,327,328,329,-1,329,328,299,-1,329,299,298,-1,330,331,300,-1,300,331,301,-1,332,333,334,-1,332,334,335,-1,335,334,336,-1,335,336,337,-1,337,336,338,-1,337,338,339,-1,339,338,331,-1,339,331,330,-1,340,341,332,-1,332,341,333,-1,342,343,344,-1,342,344,345,-1,345,344,341,-1,345,341,340,-1,343,342,346,-1,346,342,347,-1,346,347,348,-1,349,350,347,-1,347,350,348,-1,351,352,349,-1,349,352,353,-1,349,353,350,-1,354,355,351,-1,351,355,352,-1,356,357,358,-1,356,358,359,-1,359,358,355,-1,359,355,354,-1,360,361,356,-1,356,361,357,-1,362,363,364,-1,362,364,365,-1,365,364,366,-1,365,366,367,-1,367,366,368,-1,367,368,369,-1,369,368,370,-1,369,370,371,-1,371,370,372,-1,371,372,373,-1,373,372,374,-1,373,374,375,-1,375,374,376,-1,375,376,377,-1,377,376,378,-1,377,378,379,-1,379,378,361,-1,379,361,360,-1,380,381,362,-1,362,381,363,-1,382,383,380,-1,380,383,381,-1,384,385,386,-1,384,386,387,-1,387,386,388,-1,387,388,389,-1,389,388,390,-1,389,390,391,-1,391,390,392,-1,391,392,393,-1,393,392,394,-1,393,394,395,-1,395,394,396,-1,395,396,397,-1,397,396,398,-1,397,398,399,-1,399,398,400,-1,399,400,401,-1,401,400,402,-1,401,402,403,-1,403,402,404,-1,403,404,405,-1,405,404,406,-1,405,406,407,-1,407,406,408,-1,407,408,409,-1,409,408,410,-1,409,410,411,-1,411,410,412,-1,411,412,413,-1,413,412,414,-1,413,414,415,-1,415,414,383,-1,415,383,382,-1,416,417,384,-1,384,417,385,-1,418,419,416,-1,416,419,417,-1,418,294,419,-1,419,294,295,-1,420,347,421,-1,421,347,342,-1,298,296,303,-1,418,422,423,-1,377,379,416,-1,416,379,360,-1,423,424,418,-1,418,424,425,-1,418,425,294,-1,294,425,426,-1,345,292,342,-1,342,292,294,-1,342,294,421,-1,421,294,426,-1,360,356,416,-1,416,356,359,-1,416,359,418,-1,418,359,354,-1,418,354,422,-1,422,354,351,-1,422,351,420,-1,420,351,349,-1,420,349,347,-1,292,330,296,-1,296,330,300,-1,296,300,303,-1,413,415,384,-1,384,415,382,-1,384,382,416,-1,416,382,380,-1,380,362,416,-1,416,362,365,-1,416,365,377,-1,377,365,367,-1,377,367,375,-1,345,340,292,-1,292,340,332,-1,292,332,335,-1,305,327,303,-1,303,327,329,-1,303,329,298,-1,335,337,292,-1,292,337,339,-1,292,339,330,-1,369,371,367,-1,367,371,373,-1,367,373,375,-1,389,407,387,-1,387,407,409,-1,387,409,384,-1,384,409,411,-1,384,411,413,-1,389,391,407,-1,407,391,393,-1,407,393,405,-1,307,323,305,-1,305,323,325,-1,305,325,327,-1,307,309,323,-1,323,309,311,-1,323,311,313,-1,319,321,317,-1,317,321,323,-1,317,323,315,-1,315,323,313,-1,397,399,395,-1,395,399,401,-1,395,401,393,-1,393,401,403,-1,393,403,405,-1,421,427,420,-1,420,427,428,-1,424,429,430,-1,424,430,425,-1,425,430,431,-1,425,431,426,-1,426,431,427,-1,426,427,421,-1,423,432,424,-1,424,432,429,-1,422,433,423,-1,423,433,432,-1,428,433,420,-1,420,433,422,-1,434,435,436,-1,436,435,437,-1,438,439,440,-1,438,440,441,-1,441,440,442,-1,441,442,443,-1,443,442,444,-1,443,444,445,-1,445,444,446,-1,445,446,447,-1,447,446,448,-1,447,448,449,-1,449,448,450,-1,449,450,451,-1,451,450,452,-1,451,452,453,-1,453,452,454,-1,453,454,455,-1,455,454,435,-1,455,435,434,-1,456,457,438,-1,438,457,439,-1,458,459,456,-1,456,459,457,-1,460,461,462,-1,460,462,463,-1,463,462,459,-1,463,459,458,-1,464,465,460,-1,460,465,461,-1,466,467,464,-1,464,467,465,-1,468,469,470,-1,468,470,471,-1,471,470,467,-1,471,467,466,-1,472,473,474,-1,472,474,475,-1,475,474,476,-1,475,476,477,-1,477,476,478,-1,477,478,479,-1,479,478,480,-1,479,480,481,-1,481,480,482,-1,481,482,483,-1,483,482,484,-1,483,484,485,-1,485,484,486,-1,485,486,487,-1,487,486,469,-1,487,469,468,-1,488,489,490,-1,488,490,491,-1,491,490,492,-1,491,492,493,-1,493,492,494,-1,493,494,495,-1,495,494,496,-1,495,496,497,-1,497,496,498,-1,497,498,499,-1,499,498,500,-1,499,500,501,-1,501,500,502,-1,501,502,503,-1,503,502,473,-1,503,473,472,-1,504,505,488,-1,488,505,489,-1,506,507,508,-1,506,508,509,-1,509,508,510,-1,509,510,511,-1,511,510,512,-1,511,512,513,-1,513,512,505,-1,513,505,504,-1,514,515,516,-1,514,516,517,-1,517,516,518,-1,517,518,519,-1,519,518,520,-1,519,520,521,-1,521,520,522,-1,521,522,523,-1,523,522,507,-1,523,507,506,-1,524,525,514,-1,514,525,515,-1,526,527,528,-1,526,528,529,-1,529,528,530,-1,529,530,531,-1,531,530,532,-1,531,532,533,-1,533,532,534,-1,533,534,535,-1,535,534,536,-1,535,536,537,-1,537,536,538,-1,537,538,539,-1,539,538,540,-1,539,540,541,-1,541,540,542,-1,541,542,543,-1,543,542,544,-1,543,544,545,-1,545,544,546,-1,545,546,547,-1,547,546,548,-1,547,548,549,-1,549,548,550,-1,549,550,551,-1,551,550,552,-1,551,552,553,-1,553,552,525,-1,553,525,524,-1,554,555,526,-1,526,555,527,-1,556,557,554,-1,554,557,555,-1,558,559,556,-1,556,559,557,-1,436,437,560,-1,436,560,561,-1,561,560,559,-1,561,559,558,-1,549,551,526,-1,458,456,562,-1,456,438,434,-1,434,438,441,-1,434,441,455,-1,434,436,456,-1,456,436,561,-1,456,561,562,-1,562,561,558,-1,562,558,563,-1,564,565,517,-1,517,565,566,-1,517,566,567,-1,551,553,526,-1,526,553,524,-1,526,524,554,-1,554,524,514,-1,554,514,556,-1,556,514,517,-1,517,519,564,-1,564,519,513,-1,564,513,568,-1,558,556,563,-1,563,556,517,-1,563,517,569,-1,569,517,567,-1,570,571,466,-1,466,571,471,-1,471,571,572,-1,471,572,468,-1,533,535,537,-1,466,464,570,-1,570,464,460,-1,570,460,562,-1,562,460,463,-1,562,463,458,-1,468,572,487,-1,487,572,573,-1,487,573,485,-1,526,541,543,-1,443,451,441,-1,441,451,453,-1,441,453,455,-1,443,445,451,-1,451,445,447,-1,451,447,449,-1,541,526,539,-1,539,526,529,-1,539,529,537,-1,537,529,531,-1,537,531,533,-1,543,545,526,-1,526,545,547,-1,526,547,549,-1,523,506,521,-1,521,506,509,-1,521,509,519,-1,519,509,511,-1,519,511,513,-1,513,504,568,-1,568,504,488,-1,568,488,491,-1,491,493,568,-1,568,493,495,-1,568,495,574,-1,574,495,497,-1,574,497,575,-1,575,497,499,-1,575,499,576,-1,576,499,501,-1,576,501,577,-1,485,573,483,-1,483,573,578,-1,483,578,481,-1,481,578,579,-1,481,579,479,-1,479,579,580,-1,479,580,477,-1,580,581,477,-1,477,581,582,-1,477,582,475,-1,475,582,583,-1,475,583,472,-1,472,583,577,-1,472,577,503,-1,503,577,501,-1,566,584,567,-1,567,584,585,-1,583,586,587,-1,583,587,577,-1,577,587,588,-1,577,588,576,-1,576,588,589,-1,576,589,575,-1,575,589,590,-1,575,590,574,-1,574,590,591,-1,574,591,568,-1,568,591,592,-1,568,592,564,-1,564,592,593,-1,564,593,565,-1,565,593,584,-1,565,584,566,-1,572,594,595,-1,572,595,573,-1,573,595,596,-1,573,596,578,-1,578,596,597,-1,578,597,579,-1,579,597,598,-1,579,598,580,-1,580,598,599,-1,580,599,581,-1,581,599,600,-1,581,600,582,-1,582,600,586,-1,582,586,583,-1,570,601,602,-1,570,602,571,-1,571,602,594,-1,571,594,572,-1,562,603,570,-1,570,603,601,-1,563,604,562,-1,562,604,603,-1,567,585,605,-1,567,605,569,-1,569,605,604,-1,569,604,563,-1,606,607,608,-1,608,607,609,-1,610,611,612,-1,610,612,613,-1,613,612,614,-1,613,614,615,-1,615,614,607,-1,615,607,606,-1,616,617,610,-1,610,617,611,-1,618,619,616,-1,616,619,617,-1,620,621,622,-1,620,622,623,-1,623,622,624,-1,623,624,625,-1,625,624,626,-1,625,626,627,-1,627,626,628,-1,627,628,629,-1,629,628,630,-1,629,630,631,-1,631,630,632,-1,631,632,633,-1,633,632,634,-1,633,634,635,-1,635,634,636,-1,635,636,637,-1,637,636,638,-1,637,638,639,-1,639,638,640,-1,639,640,641,-1,641,640,619,-1,641,619,618,-1,642,643,620,-1,620,643,621,-1,644,645,642,-1,642,645,643,-1,646,647,644,-1,644,647,645,-1,648,649,650,-1,648,650,651,-1,651,650,647,-1,651,647,646,-1,652,653,648,-1,648,653,649,-1,654,655,652,-1,652,655,653,-1,656,657,658,-1,656,658,659,-1,659,658,660,-1,659,660,661,-1,661,660,662,-1,661,662,663,-1,663,662,664,-1,663,664,665,-1,665,664,666,-1,665,666,667,-1,667,666,668,-1,667,668,669,-1,669,668,670,-1,669,670,671,-1,671,670,672,-1,671,672,673,-1,673,672,674,-1,673,674,675,-1,675,674,676,-1,675,676,677,-1,677,676,678,-1,677,678,679,-1,679,678,655,-1,679,655,654,-1,680,681,656,-1,656,681,657,-1,682,683,684,-1,682,684,685,-1,685,684,681,-1,685,681,680,-1,686,687,682,-1,682,687,683,-1,688,689,690,-1,688,690,691,-1,691,690,692,-1,691,692,693,-1,693,692,694,-1,693,694,695,-1,695,694,696,-1,695,696,697,-1,697,696,698,-1,697,698,699,-1,699,698,700,-1,699,700,701,-1,701,700,702,-1,701,702,703,-1,703,702,704,-1,703,704,705,-1,705,704,706,-1,705,706,707,-1,707,706,708,-1,707,708,709,-1,709,708,687,-1,709,687,686,-1,710,711,712,-1,710,712,713,-1,713,712,689,-1,713,689,688,-1,714,715,710,-1,710,715,711,-1,716,717,718,-1,716,718,719,-1,719,718,715,-1,719,715,714,-1,720,721,716,-1,716,721,717,-1,722,723,724,-1,722,724,725,-1,725,724,726,-1,725,726,727,-1,727,726,728,-1,727,728,729,-1,729,728,730,-1,729,730,731,-1,731,730,732,-1,731,732,733,-1,733,732,734,-1,733,734,735,-1,735,734,736,-1,735,736,737,-1,737,736,738,-1,737,738,739,-1,739,738,740,-1,739,740,741,-1,741,740,742,-1,741,742,743,-1,743,742,744,-1,743,744,745,-1,745,744,746,-1,745,746,747,-1,747,746,748,-1,747,748,749,-1,749,748,750,-1,749,750,751,-1,751,750,721,-1,751,721,720,-1,752,753,722,-1,722,753,723,-1,754,755,756,-1,754,756,757,-1,757,756,753,-1,757,753,752,-1,758,759,754,-1,754,759,755,-1,760,761,762,-1,760,762,763,-1,763,762,759,-1,763,759,758,-1,764,765,760,-1,760,765,761,-1,766,767,768,-1,766,768,769,-1,769,768,770,-1,769,770,771,-1,771,770,765,-1,771,765,764,-1,772,773,766,-1,766,773,767,-1,774,775,772,-1,772,775,773,-1,776,777,778,-1,776,778,779,-1,779,778,780,-1,779,780,781,-1,781,780,782,-1,781,782,783,-1,783,782,784,-1,783,784,785,-1,785,784,786,-1,785,786,787,-1,787,786,788,-1,787,788,789,-1,789,788,790,-1,789,790,791,-1,791,790,792,-1,791,792,793,-1,793,792,794,-1,793,794,795,-1,795,794,796,-1,795,796,797,-1,797,796,775,-1,797,775,774,-1,798,799,776,-1,776,799,777,-1,800,801,802,-1,800,802,803,-1,803,802,799,-1,803,799,798,-1,804,805,800,-1,800,805,801,-1,804,608,805,-1,805,608,609,-1,707,709,644,-1,648,651,680,-1,680,651,646,-1,610,613,620,-1,709,686,644,-1,644,686,682,-1,644,682,646,-1,646,682,685,-1,646,685,680,-1,716,719,644,-1,719,714,644,-1,644,714,710,-1,644,710,713,-1,713,688,644,-1,644,688,691,-1,644,691,693,-1,608,642,606,-1,606,642,620,-1,606,620,615,-1,615,620,613,-1,648,680,652,-1,652,680,656,-1,652,656,654,-1,654,656,659,-1,654,659,661,-1,644,699,701,-1,749,751,804,-1,804,751,720,-1,804,720,608,-1,608,720,716,-1,608,716,642,-1,642,716,644,-1,693,695,644,-1,644,695,697,-1,644,697,699,-1,637,639,623,-1,623,639,620,-1,616,610,618,-1,618,610,620,-1,618,620,641,-1,641,620,639,-1,737,739,804,-1,804,739,741,-1,804,741,743,-1,661,663,654,-1,654,663,665,-1,654,665,667,-1,701,703,644,-1,644,703,705,-1,644,705,707,-1,791,793,779,-1,779,793,795,-1,779,795,776,-1,776,795,797,-1,776,797,774,-1,763,758,804,-1,804,758,754,-1,804,754,757,-1,757,752,804,-1,804,752,722,-1,804,722,725,-1,677,671,675,-1,675,671,673,-1,667,669,654,-1,654,669,671,-1,654,671,679,-1,679,671,677,-1,731,733,804,-1,804,733,735,-1,804,735,737,-1,743,745,804,-1,804,745,747,-1,804,747,749,-1,774,772,776,-1,776,772,766,-1,776,766,798,-1,798,766,769,-1,798,769,803,-1,803,769,771,-1,803,771,800,-1,800,771,764,-1,800,764,804,-1,804,764,760,-1,804,760,763,-1,725,727,804,-1,804,727,729,-1,804,729,731,-1,631,633,623,-1,623,633,635,-1,623,635,637,-1,785,779,783,-1,783,779,781,-1,785,787,779,-1,779,787,789,-1,779,789,791,-1,625,627,623,-1,623,627,629,-1,623,629,631,-1,806,807,808,-1,808,807,809,-1,810,811,806,-1,806,811,807,-1,812,813,810,-1,810,813,811,-1,814,815,816,-1,814,816,817,-1,817,816,818,-1,817,818,819,-1,819,818,820,-1,819,820,821,-1,821,820,822,-1,821,822,823,-1,823,822,824,-1,823,824,825,-1,825,824,826,-1,825,826,827,-1,827,826,813,-1,827,813,812,-1,828,829,830,-1,828,830,831,-1,831,830,832,-1,831,832,833,-1,833,832,834,-1,833,834,835,-1,835,834,836,-1,835,836,837,-1,837,836,838,-1,837,838,839,-1,839,838,840,-1,839,840,841,-1,841,840,842,-1,841,842,843,-1,843,842,815,-1,843,815,814,-1,844,845,846,-1,844,846,847,-1,847,846,848,-1,847,848,849,-1,849,848,850,-1,849,850,851,-1,851,850,852,-1,851,852,853,-1,853,852,854,-1,853,854,855,-1,855,854,856,-1,855,856,857,-1,857,856,829,-1,857,829,828,-1,858,859,860,-1,858,860,861,-1,861,860,862,-1,861,862,863,-1,863,862,864,-1,863,864,865,-1,865,864,866,-1,865,866,867,-1,867,866,868,-1,867,868,869,-1,869,868,870,-1,869,870,871,-1,871,870,845,-1,871,845,844,-1,872,873,858,-1,858,873,859,-1,874,875,872,-1,872,875,873,-1,876,877,878,-1,876,878,879,-1,879,878,880,-1,879,880,881,-1,881,880,882,-1,881,882,883,-1,883,882,884,-1,883,884,885,-1,885,884,886,-1,885,886,887,-1,887,886,888,-1,887,888,889,-1,889,888,875,-1,889,875,874,-1,890,891,892,-1,890,892,893,-1,893,892,894,-1,893,894,895,-1,895,894,896,-1,895,896,897,-1,897,896,898,-1,897,898,899,-1,899,898,900,-1,899,900,901,-1,901,900,902,-1,901,902,903,-1,903,902,904,-1,903,904,905,-1,905,904,906,-1,905,906,907,-1,907,906,877,-1,907,877,876,-1,908,909,910,-1,908,910,911,-1,911,910,912,-1,911,912,913,-1,913,912,914,-1,913,914,915,-1,915,914,916,-1,915,916,917,-1,917,916,918,-1,917,918,919,-1,919,918,920,-1,919,920,921,-1,921,920,891,-1,921,891,890,-1,922,923,924,-1,922,924,925,-1,925,924,926,-1,925,926,927,-1,927,926,928,-1,927,928,929,-1,929,928,909,-1,929,909,908,-1,930,931,922,-1,922,931,923,-1,930,808,931,-1,931,808,809,-1,810,806,930,-1,930,806,808,-1,889,874,872,-1,922,819,930,-1,930,819,821,-1,930,821,823,-1,812,810,827,-1,827,810,930,-1,827,930,825,-1,825,930,823,-1,922,925,819,-1,819,925,927,-1,819,927,817,-1,817,927,929,-1,817,929,814,-1,814,929,908,-1,814,908,843,-1,831,833,921,-1,921,833,919,-1,908,911,843,-1,843,911,913,-1,843,913,841,-1,841,913,915,-1,841,915,839,-1,839,915,917,-1,839,917,837,-1,837,917,919,-1,837,919,835,-1,835,919,833,-1,872,858,889,-1,889,858,861,-1,889,861,887,-1,887,861,863,-1,887,863,885,-1,885,863,865,-1,885,865,883,-1,883,865,867,-1,883,867,881,-1,881,867,869,-1,881,869,879,-1,879,869,871,-1,879,871,876,-1,876,871,844,-1,876,844,907,-1,907,844,847,-1,907,847,905,-1,905,847,849,-1,905,849,903,-1,903,849,851,-1,903,851,901,-1,901,851,853,-1,901,853,899,-1,899,853,855,-1,899,855,897,-1,897,855,857,-1,897,857,895,-1,895,857,828,-1,895,828,893,-1,893,828,831,-1,893,831,890,-1,890,831,921,-1,932,933,934,-1,934,933,935,-1,934,935,936,-1,937,938,939,-1,937,939,940,-1,940,939,941,-1,940,941,942,-1,942,941,936,-1,942,936,935,-1,943,944,937,-1,937,944,938,-1,945,946,947,-1,945,947,948,-1,948,947,949,-1,948,949,950,-1,950,949,951,-1,950,951,952,-1,952,951,953,-1,952,953,954,-1,954,953,955,-1,954,955,956,-1,956,955,957,-1,956,957,958,-1,958,957,944,-1,958,944,943,-1,959,960,961,-1,959,961,962,-1,962,961,963,-1,962,963,964,-1,964,963,965,-1,964,965,966,-1,966,965,967,-1,966,967,968,-1,968,967,969,-1,968,969,970,-1,970,969,946,-1,970,946,945,-1,971,972,973,-1,971,973,974,-1,974,973,975,-1,974,975,976,-1,976,975,977,-1,976,977,978,-1,978,977,979,-1,978,979,980,-1,980,979,981,-1,980,981,982,-1,982,981,983,-1,982,983,984,-1,984,983,985,-1,984,985,986,-1,986,985,987,-1,986,987,988,-1,988,987,960,-1,988,960,959,-1,989,990,971,-1,971,990,972,-1,991,992,989,-1,989,992,990,-1,993,994,995,-1,993,995,996,-1,996,995,997,-1,996,997,998,-1,998,997,999,-1,998,999,1000,-1,1000,999,1001,-1,1000,1001,1002,-1,1002,1001,1003,-1,1002,1003,1004,-1,1004,1003,1005,-1,1004,1005,1006,-1,1006,1005,1007,-1,1006,1007,1008,-1,1008,1007,1009,-1,1008,1009,1010,-1,1010,1009,1011,-1,1010,1011,1012,-1,1012,1011,1013,-1,1012,1013,1014,-1,1014,1013,992,-1,1014,992,991,-1,1015,1016,993,-1,993,1016,994,-1,1017,1018,1015,-1,1015,1018,1016,-1,1019,1020,1021,-1,1019,1021,1022,-1,1022,1021,1018,-1,1022,1018,1017,-1,1023,1024,1019,-1,1019,1024,1020,-1,1023,933,1024,-1,1024,933,932,-1,948,950,978,-1,978,950,952,-1,978,952,976,-1,945,948,970,-1,970,948,978,-1,970,978,968,-1,968,978,980,-1,968,980,966,-1,1017,1015,943,-1,943,1015,993,-1,943,993,996,-1,952,954,976,-1,976,954,956,-1,976,956,974,-1,974,956,958,-1,933,1023,935,-1,935,1023,1019,-1,935,1019,942,-1,942,1019,1022,-1,942,1022,940,-1,940,1022,1017,-1,940,1017,937,-1,937,1017,943,-1,996,998,943,-1,943,998,1000,-1,943,1000,1002,-1,962,982,984,-1,982,962,980,-1,980,962,964,-1,980,964,966,-1,1002,1004,943,-1,943,1004,1006,-1,943,1006,1008,-1,1008,1010,943,-1,943,1010,1012,-1,943,1012,1014,-1,1014,991,943,-1,943,991,989,-1,943,989,958,-1,958,989,971,-1,958,971,974,-1,984,986,962,-1,962,986,988,-1,962,988,959,-1,432,433,428,-1,428,427,431,-1,431,430,428,-1,428,430,429,-1,428,429,432,-1,603,604,601,-1,601,604,605,-1,605,585,601,-1,601,585,584,-1,601,584,593,-1,594,602,586,-1,586,602,601,-1,586,601,587,-1,594,586,595,-1,595,586,600,-1,595,600,599,-1,593,592,601,-1,601,592,591,-1,601,591,590,-1,599,598,595,-1,595,598,597,-1,595,597,596,-1,590,589,601,-1,601,589,588,-1,601,588,587,-1,
        ]
    }
}
Shape{
    appearance Appearance {
        material  Material 	{
            diffuseColor 0.6470588235294118 0.6196078431372549 0.5882352941176471
            specularColor 0.45098039215686275 0.43529411764705883 0.4117647058823529
            ambientIntensity 0.6242
            transparency 0.0
            shininess 0.5
        }
    }
    geometry IndexedFaceSet {
        ccw TRUE
        solid FALSE
        coord DEF co Coordinate {
            point [
                0.1575 -0.1772 -0.9842, 0.1575 -0.1772 0.9449, -0.1575 -0.1772 -0.9842, -0.1575 -0.1772 0.9449, -0.0787 -0.0984 -1.378, -0.0787 0.0591 -1.378, 0.0787 -0.0984 -1.378, 0.0787 0.0591 -1.378, -0.1575 0.1378 -0.9842, -0.1575 0.1378 0.9449, 0.1575 0.1378 -0.9842, 0.1575 0.1378 0.9449, -0.1575 0.1291 1.0557, 0.1575 0.1291 1.0557, -0.1575 0.1031 1.1639, 0.1575 0.1031 1.1639, -0.1575 0.0606 1.2666, 0.1575 0.0606 1.2666, -0.1575 0.0025 1.3614, 0.1575 0.0025 1.3614, -0.1575 -0.0698 1.446, 0.1575 -0.0698 1.446, -0.1575 -0.1543 1.5182, 0.1575 -0.1543 1.5182, -0.1575 -0.2491 1.5763, 0.1575 -0.2491 1.5763, -0.1575 -0.3519 1.6189, 0.1575 -0.3519 1.6189, -0.1575 -0.46 1.6448, 0.1575 -0.46 1.6448, -0.1575 -0.5709 1.6535, 0.1575 -0.5709 1.6535, 0.1575 -2.5394 1.6535, -0.1575 -2.5394 1.6535, -0.0787 -2.9331 1.5748, -0.0787 -2.9331 1.4173, 0.0787 -2.9331 1.5748, 0.0787 -2.9331 1.4173, -0.1575 -2.5394 1.3386, -0.1575 -0.5709 1.3386, 0.1575 -2.5394 1.3386, 0.1575 -0.5709 1.3386, 0.1575 -0.4833 1.3287, -0.1575 -0.4833 1.3287, 0.1575 -0.4 1.2996, -0.1575 -0.4 1.2996, 0.1575 -0.3254 1.2527, -0.1575 -0.3254 1.2527, 0.1575 -0.2631 1.1904, -0.1575 -0.2631 1.1904, 0.1575 -0.2162 1.1157, -0.1575 -0.2162 1.1157, 0.1575 -0.187 1.0325, -0.1575 -0.187 1.0325, 1.1575 -0.1772 -0.9842, 1.1575 -0.1772 0.9449, 0.8425 -0.1772 -0.9842, 0.8425 -0.1772 0.9449, 0.9213 -0.0984 -1.378, 0.9213 0.0591 -1.378, 1.0787 -0.0984 -1.378, 1.0787 0.0591 -1.378, 0.8425 0.1378 -0.9842, 0.8425 0.1378 0.9449, 1.1575 0.1378 -0.9842, 1.1575 0.1378 0.9449, 0.8425 0.1291 1.0557, 1.1575 0.1291 1.0557, 0.8425 0.1031 1.1639, 1.1575 0.1031 1.1639, 0.8425 0.0606 1.2666, 1.1575 0.0606 1.2666, 0.8425 0.0025 1.3614, 1.1575 0.0025 1.3614, 0.8425 -0.0698 1.446, 1.1575 -0.0698 1.446, 0.8425 -0.1543 1.5182, 1.1575 -0.1543 1.5182, 0.8425 -0.2491 1.5763, 1.1575 -0.2491 1.5763, 0.8425 -0.3519 1.6189, 1.1575 -0.3519 1.6189, 0.8425 -0.46 1.6448, 1.1575 -0.46 1.6448, 0.8425 -0.5709 1.6535, 1.1575 -0.5709 1.6535, 1.1575 -2.5394 1.6535, 0.8425 -2.5394 1.6535, 0.9213 -2.9331 1.5748, 0.9213 -2.9331 1.4173, 1.0787 -2.9331 1.5748, 1.0787 -2.9331 1.4173, 0.8425 -2.5394 1.3386, 0.8425 -0.5709 1.3386, 1.1575 -2.5394 1.3386, 1.1575 -0.5709 1.3386, 1.1575 -0.4833 1.3287, 0.8425 -0.4833 1.3287, 1.1575 -0.4 1.2996, 0.8425 -0.4 1.2996, 1.1575 -0.3254 1.2527, 0.8425 -0.3254 1.2527, 1.1575 -0.2631 1.1904, 0.8425 -0.2631 1.1904, 1.1575 -0.2162 1.1157, 0.8425 -0.2162 1.1157, 1.1575 -0.187 1.0325, 0.8425 -0.187 1.0325
            ]
        }
        coordIndex [
            0,1,2,-1,2,1,3,-1,4,5,6,-1,6,5,7,-1,8,9,10,-1,10,9,11,-1,11,9,12,-1,11,12,13,-1,13,12,14,-1,13,14,15,-1,15,14,16,-1,15,16,17,-1,17,16,18,-1,17,18,19,-1,19,18,20,-1,19,20,21,-1,21,20,22,-1,21,22,23,-1,23,22,24,-1,23,24,25,-1,25,24,26,-1,25,26,27,-1,27,26,28,-1,27,28,29,-1,29,28,30,-1,29,30,31,-1,32,31,33,-1,33,31,30,-1,34,35,36,-1,36,35,37,-1,38,39,40,-1,40,39,41,-1,41,39,42,-1,42,39,43,-1,42,43,44,-1,44,43,45,-1,44,45,46,-1,46,45,47,-1,46,47,48,-1,48,47,49,-1,48,49,50,-1,50,49,51,-1,50,51,52,-1,52,51,53,-1,52,53,1,-1,1,53,3,-1,32,40,31,-1,31,40,41,-1,31,41,29,-1,29,41,42,-1,29,42,27,-1,27,42,44,-1,52,15,50,-1,50,15,17,-1,50,17,48,-1,0,10,1,-1,1,10,11,-1,1,11,52,-1,52,11,13,-1,52,13,15,-1,17,19,48,-1,48,19,21,-1,48,21,46,-1,46,21,23,-1,46,23,44,-1,44,23,25,-1,44,25,27,-1,38,33,39,-1,39,33,30,-1,39,30,43,-1,51,14,53,-1,53,14,12,-1,53,12,3,-1,3,12,9,-1,3,9,2,-1,2,9,8,-1,30,28,43,-1,43,28,26,-1,43,26,45,-1,45,26,24,-1,45,24,47,-1,24,22,47,-1,47,22,20,-1,47,20,49,-1,49,20,18,-1,49,18,51,-1,51,18,16,-1,51,16,14,-1,10,7,8,-1,8,7,5,-1,0,6,10,-1,10,6,7,-1,4,2,5,-1,5,2,8,-1,2,4,0,-1,0,4,6,-1,40,37,38,-1,38,37,35,-1,32,36,40,-1,40,36,37,-1,34,33,35,-1,35,33,38,-1,33,34,32,-1,32,34,36,-1,54,55,56,-1,56,55,57,-1,58,59,60,-1,60,59,61,-1,62,63,64,-1,64,63,65,-1,65,63,66,-1,65,66,67,-1,67,66,68,-1,67,68,69,-1,69,68,70,-1,69,70,71,-1,71,70,72,-1,71,72,73,-1,73,72,74,-1,73,74,75,-1,75,74,76,-1,75,76,77,-1,77,76,78,-1,77,78,79,-1,79,78,80,-1,79,80,81,-1,81,80,82,-1,81,82,83,-1,83,82,84,-1,83,84,85,-1,86,85,87,-1,87,85,84,-1,88,89,90,-1,90,89,91,-1,92,93,94,-1,94,93,95,-1,95,93,96,-1,96,93,97,-1,96,97,98,-1,98,97,99,-1,98,99,100,-1,100,99,101,-1,100,101,102,-1,102,101,103,-1,102,103,104,-1,104,103,105,-1,104,105,106,-1,106,105,107,-1,106,107,55,-1,55,107,57,-1,86,94,85,-1,85,94,95,-1,85,95,83,-1,83,95,96,-1,83,96,81,-1,81,96,98,-1,106,69,104,-1,104,69,71,-1,104,71,102,-1,54,64,55,-1,55,64,65,-1,55,65,106,-1,106,65,67,-1,106,67,69,-1,71,73,102,-1,102,73,75,-1,102,75,100,-1,100,75,77,-1,100,77,98,-1,98,77,79,-1,98,79,81,-1,92,87,93,-1,93,87,84,-1,93,84,97,-1,105,68,107,-1,107,68,66,-1,107,66,57,-1,57,66,63,-1,57,63,56,-1,56,63,62,-1,84,82,97,-1,97,82,80,-1,97,80,99,-1,99,80,78,-1,99,78,101,-1,78,76,101,-1,101,76,74,-1,101,74,103,-1,103,74,72,-1,103,72,105,-1,105,72,70,-1,105,70,68,-1,64,61,62,-1,62,61,59,-1,54,60,64,-1,64,60,61,-1,58,56,59,-1,59,56,62,-1,56,58,54,-1,54,58,60,-1,94,91,92,-1,92,91,89,-1,86,90,94,-1,94,90,91,-1,88,87,89,-1,89,87,92,-1,87,88,86,-1,86,88,90,-1,
        ]
    }
}