#VRML V2.0 utf8
# 3D model generated by easyeda2kicad.py (https://github.com/uPesy/easyeda2kicad.py)

Shape{
    appearance Appearance {
        material  Material 	{
            diffuseColor 1.0 1.0 1.0
            specularColor 0.5019607843137255 0.5019607843137255 0.5019607843137255
            ambientIntensity 1.0
            transparency 0.0
            shininess 0.5
        }
    }
    geometry IndexedFaceSet {
        ccw TRUE
        solid FALSE
        coord DEF co Coordinate {
            point [
                0.3635 -0.0394 -0.9449, 0.4239 -0.0394 -0.9449, 0.2953 -0.0394 -0.8268, 0.4921 -0.0394 -0.8268, 0.2953 -0.0394 0.205, 0.4921 -0.0394 0.205, 0.3635 0.0394 -0.9449, 0.4239 0.0394 -0.9449, 0.2953 0.0394 0.1515, 0.4921 0.0394 0.1515, 0.2953 0.0394 -0.8268, 0.4921 0.0394 -0.8268, 0.4921 0.1969 0.2138, 0.2953 0.1969 0.2138, 0.4921 0.1969 1.1024, 0.2953 0.1969 1.1024, 0.2953 0.1928 1.1329, 0.4921 0.1928 1.1329, 0.2953 0.181 1.1614, 0.4921 0.181 1.1614, 0.2953 0.1623 1.1859, 0.4921 0.1623 1.1859, 0.2953 0.1378 1.2047, 0.4921 0.1378 1.2047, 0.2953 0.1093 1.2164, 0.4921 0.1093 1.2164, 0.2953 0.0787 1.2205, 0.4921 0.0787 1.2205, 0.4921 -0.0984 1.2205, 0.2953 -0.0984 1.2205, 0.2953 -0.129 1.2164, 0.4921 -0.129 1.2164, 0.2953 -0.1575 1.2047, 0.4921 -0.1575 1.2047, 0.2953 -0.1819 1.1859, 0.4921 -0.1819 1.1859, 0.2953 -0.2007 1.1614, 0.4921 -0.2007 1.1614, 0.2953 -0.2125 1.1329, 0.4921 -0.2125 1.1329, 0.2953 -0.2165 1.1024, 0.4921 -0.2165 1.1024, 0.4921 -0.2165 0.1181, 0.2953 -0.2165 0.1181, 0.4921 -0.1378 0.1181, 0.2953 -0.1378 0.1181, 0.4921 -0.1378 1.1024, 0.2953 -0.1378 1.1024, 0.4921 -0.1365 1.1126, 0.2953 -0.1365 1.1126, 0.4921 -0.1325 1.122, 0.2953 -0.1325 1.122, 0.4921 -0.1263 1.1302, 0.2953 -0.1263 1.1302, 0.4921 -0.1181 1.1365, 0.2953 -0.1181 1.1365, 0.4921 -0.1086 1.1404, 0.2953 -0.1086 1.1404, 0.4921 -0.0984 1.1417, 0.2953 -0.0984 1.1417, 0.4921 0.0787 1.1417, 0.2953 0.0787 1.1417, 0.4921 0.0889 1.1404, 0.2953 0.0889 1.1404, 0.4921 0.0984 1.1365, 0.2953 0.0984 1.1365, 0.4921 0.1066 1.1302, 0.2953 0.1066 1.1302, 0.4921 0.1128 1.122, 0.2953 0.1128 1.122, 0.4921 0.1168 1.1126, 0.2953 0.1168 1.1126, 0.4921 0.1181 1.1024, 0.2953 0.1181 1.1024, 0.4921 0.1181 0.2673, 0.2953 0.1181 0.2673, 0.4921 0.0394 0.205, 0.2953 0.0394 0.205, 0.4921 -0.0394 0.1515, 0.2953 -0.0394 0.1515, 0.4921 -0.1969 0.2138, 0.2953 -0.1969 0.2138, 0.4921 -0.1969 1.1024, 0.2953 -0.1969 1.1024, 0.4921 -0.0787 1.2205, 0.2953 -0.0787 1.2205, 0.2953 -0.1093 1.2164, 0.4921 -0.1093 1.2164, 0.2953 -0.1378 1.2047, 0.4921 -0.1378 1.2047, 0.2953 -0.1623 1.1859, 0.4921 -0.1623 1.1859, 0.2953 -0.181 1.1614, 0.4921 -0.181 1.1614, 0.2953 -0.1928 1.1329, 0.4921 -0.1928 1.1329, 0.4921 0.0984 1.2205, 0.2953 0.0984 1.2205, 0.4921 0.2165 1.1024, 0.2953 0.2165 1.1024, 0.2953 0.2125 1.1329, 0.4921 0.2125 1.1329, 0.2953 0.2007 1.1614, 0.4921 0.2007 1.1614, 0.2953 0.1819 1.1859, 0.4921 0.1819 1.1859, 0.2953 0.1575 1.2047, 0.4921 0.1575 1.2047, 0.2953 0.129 1.2164, 0.4921 0.129 1.2164, 0.4921 0.2165 0.1181, 0.2953 0.2165 0.1181, 0.4921 0.1378 0.1181, 0.2953 0.1378 0.1181, 0.4921 0.1378 1.1024, 0.2953 0.1378 1.1024, 0.4921 0.0984 1.1417, 0.2953 0.0984 1.1417, 0.4921 0.1086 1.1404, 0.2953 0.1086 1.1404, 0.4921 0.1181 1.1365, 0.2953 0.1181 1.1365, 0.4921 0.1263 1.1302, 0.2953 0.1263 1.1302, 0.4921 0.1325 1.122, 0.2953 0.1325 1.122, 0.4921 0.1365 1.1126, 0.2953 0.1365 1.1126, 0.4921 -0.0787 1.1417, 0.2953 -0.0787 1.1417, 0.4921 -0.1181 1.1024, 0.2953 -0.1181 1.1024, 0.4921 -0.1168 1.1126, 0.2953 -0.1168 1.1126, 0.4921 -0.1128 1.122, 0.2953 -0.1128 1.122, 0.4921 -0.1066 1.1302, 0.2953 -0.1066 1.1302, 0.4921 -0.0984 1.1365, 0.2953 -0.0984 1.1365, 0.4921 -0.0889 1.1404, 0.2953 -0.0889 1.1404, 0.4921 -0.1181 0.2673, 0.2953 -0.1181 0.2673, -0.4239 -0.0394 -0.9449, -0.3635 -0.0394 -0.9449, -0.4921 -0.0394 -0.8268, -0.2953 -0.0394 -0.8268, -0.4921 -0.0394 0.205, -0.2953 -0.0394 0.205, -0.4239 0.0394 -0.9449, -0.3635 0.0394 -0.9449, -0.4921 0.0394 0.1515, -0.2953 0.0394 0.1515, -0.4921 0.0394 -0.8268, -0.2953 0.0394 -0.8268, -0.2953 0.1969 0.2138, -0.4921 0.1969 0.2138, -0.2953 0.1969 1.1024, -0.4921 0.1969 1.1024, -0.4921 0.1928 1.1329, -0.2953 0.1928 1.1329, -0.4921 0.181 1.1614, -0.2953 0.181 1.1614, -0.4921 0.1623 1.1859, -0.2953 0.1623 1.1859, -0.4921 0.1378 1.2047, -0.2953 0.1378 1.2047, -0.4921 0.1093 1.2164, -0.2953 0.1093 1.2164, -0.4921 0.0787 1.2205, -0.2953 0.0787 1.2205, -0.2953 -0.0984 1.2205, -0.4921 -0.0984 1.2205, -0.4921 -0.129 1.2164, -0.2953 -0.129 1.2164, -0.4921 -0.1575 1.2047, -0.2953 -0.1575 1.2047, -0.4921 -0.1819 1.1859, -0.2953 -0.1819 1.1859, -0.4921 -0.2007 1.1614, -0.2953 -0.2007 1.1614, -0.4921 -0.2125 1.1329, -0.2953 -0.2125 1.1329, -0.4921 -0.2165 1.1024, -0.2953 -0.2165 1.1024, -0.2953 -0.2165 0.1181, -0.4921 -0.2165 0.1181, -0.2953 -0.1378 0.1181, -0.4921 -0.1378 0.1181, -0.2953 -0.1378 1.1024, -0.4921 -0.1378 1.1024, -0.2953 -0.1365 1.1126, -0.4921 -0.1365 1.1126, -0.2953 -0.1325 1.122, -0.4921 -0.1325 1.122, -0.2953 -0.1263 1.1302, -0.4921 -0.1263 1.1302, -0.2953 -0.1181 1.1365, -0.4921 -0.1181 1.1365, -0.2953 -0.1086 1.1404, -0.4921 -0.1086 1.1404, -0.2953 -0.0984 1.1417, -0.4921 -0.0984 1.1417, -0.2953 0.0787 1.1417, -0.4921 0.0787 1.1417, -0.2953 0.0889 1.1404, -0.4921 0.0889 1.1404, -0.2953 0.0984 1.1365, -0.4921 0.0984 1.1365, -0.2953 0.1066 1.1302, -0.4921 0.1066 1.1302, -0.2953 0.1128 1.122, -0.4921 0.1128 1.122, -0.2953 0.1168 1.1126, -0.4921 0.1168 1.1126, -0.2953 0.1181 1.1024, -0.4921 0.1181 1.1024, -0.2953 0.1181 0.2673, -0.4921 0.1181 0.2673, -1.2113 -0.0394 -0.9449, -1.1509 -0.0394 -0.9449, -1.2795 -0.0394 -0.8268, -1.0827 -0.0394 -0.8268, -1.2795 -0.0394 0.205, -1.0827 -0.0394 0.205, -1.2113 0.0394 -0.9449, -1.1509 0.0394 -0.9449, -1.2795 0.0394 0.1515, -1.0827 0.0394 0.1515, -1.2795 0.0394 -0.8268, -1.0827 0.0394 -0.8268, -1.0827 0.1969 0.2138, -1.2795 0.1969 0.2138, -1.0827 0.1969 1.1024, -1.2795 0.1969 1.1024, -1.2795 0.1928 1.1329, -1.0827 0.1928 1.1329, -1.2795 0.181 1.1614, -1.0827 0.181 1.1614, -1.2795 0.1623 1.1859, -1.0827 0.1623 1.1859, -1.2795 0.1378 1.2047, -1.0827 0.1378 1.2047, -1.2795 0.1093 1.2164, -1.0827 0.1093 1.2164, -1.2795 0.0787 1.2205, -1.0827 0.0787 1.2205, -1.0827 -0.0984 1.2205, -1.2795 -0.0984 1.2205, -1.2795 -0.129 1.2164, -1.0827 -0.129 1.2164, -1.2795 -0.1575 1.2047, -1.0827 -0.1575 1.2047, -1.2795 -0.1819 1.1859, -1.0827 -0.1819 1.1859, -1.2795 -0.2007 1.1614, -1.0827 -0.2007 1.1614, -1.2795 -0.2125 1.1329, -1.0827 -0.2125 1.1329, -1.2795 -0.2165 1.1024, -1.0827 -0.2165 1.1024, -1.0827 -0.2165 0.1181, -1.2795 -0.2165 0.1181, -1.0827 -0.1378 0.1181, -1.2795 -0.1378 0.1181, -1.0827 -0.1378 1.1024, -1.2795 -0.1378 1.1024, -1.0827 -0.1365 1.1126, -1.2795 -0.1365 1.1126, -1.0827 -0.1325 1.122, -1.2795 -0.1325 1.122, -1.0827 -0.1263 1.1302, -1.2795 -0.1263 1.1302, -1.0827 -0.1181 1.1365, -1.2795 -0.1181 1.1365, -1.0827 -0.1086 1.1404, -1.2795 -0.1086 1.1404, -1.0827 -0.0984 1.1417, -1.2795 -0.0984 1.1417, -1.0827 0.0787 1.1417, -1.2795 0.0787 1.1417, -1.0827 0.0889 1.1404, -1.2795 0.0889 1.1404, -1.0827 0.0984 1.1365, -1.2795 0.0984 1.1365, -1.0827 0.1066 1.1302, -1.2795 0.1066 1.1302, -1.0827 0.1128 1.122, -1.2795 0.1128 1.122, -1.0827 0.1168 1.1126, -1.2795 0.1168 1.1126, -1.0827 0.1181 1.1024, -1.2795 0.1181 1.1024, -1.0827 0.1181 0.2673, -1.2795 0.1181 0.2673, -1.9987 -0.0394 -0.9449, -1.9383 -0.0394 -0.9449, -2.0669 -0.0394 -0.8268, -1.8701 -0.0394 -0.8268, -2.0669 -0.0394 0.205, -1.8701 -0.0394 0.205, -1.9987 0.0394 -0.9449, -1.9383 0.0394 -0.9449, -2.0669 0.0394 0.1515, -1.8701 0.0394 0.1515, -2.0669 0.0394 -0.8268, -1.8701 0.0394 -0.8268, -1.8701 0.1969 0.2138, -2.0669 0.1969 0.2138, -1.8701 0.1969 1.1024, -2.0669 0.1969 1.1024, -2.0669 0.1928 1.1329, -1.8701 0.1928 1.1329, -2.0669 0.181 1.1614, -1.8701 0.181 1.1614, -2.0669 0.1623 1.1859, -1.8701 0.1623 1.1859, -2.0669 0.1378 1.2047, -1.8701 0.1378 1.2047, -2.0669 0.1093 1.2164, -1.8701 0.1093 1.2164, -2.0669 0.0787 1.2205, -1.8701 0.0787 1.2205, -1.8701 -0.0984 1.2205, -2.0669 -0.0984 1.2205, -2.0669 -0.129 1.2164, -1.8701 -0.129 1.2164, -2.0669 -0.1575 1.2047, -1.8701 -0.1575 1.2047, -2.0669 -0.1819 1.1859, -1.8701 -0.1819 1.1859, -2.0669 -0.2007 1.1614, -1.8701 -0.2007 1.1614, -2.0669 -0.2125 1.1329, -1.8701 -0.2125 1.1329, -2.0669 -0.2165 1.1024, -1.8701 -0.2165 1.1024, -1.8701 -0.2165 0.1181, -2.0669 -0.2165 0.1181, -1.8701 -0.1378 0.1181, -2.0669 -0.1378 0.1181, -1.8701 -0.1378 1.1024, -2.0669 -0.1378 1.1024, -1.8701 -0.1365 1.1126, -2.0669 -0.1365 1.1126, -1.8701 -0.1325 1.122, -2.0669 -0.1325 1.122, -1.8701 -0.1263 1.1302, -2.0669 -0.1263 1.1302, -1.8701 -0.1181 1.1365, -2.0669 -0.1181 1.1365, -1.8701 -0.1086 1.1404, -2.0669 -0.1086 1.1404, -1.8701 -0.0984 1.1417, -2.0669 -0.0984 1.1417, -1.8701 0.0787 1.1417, -2.0669 0.0787 1.1417, -1.8701 0.0889 1.1404, -2.0669 0.0889 1.1404, -1.8701 0.0984 1.1365, -2.0669 0.0984 1.1365, -1.8701 0.1066 1.1302, -2.0669 0.1066 1.1302, -1.8701 0.1128 1.122, -2.0669 0.1128 1.122, -1.8701 0.1168 1.1126, -2.0669 0.1168 1.1126, -1.8701 0.1181 1.1024, -2.0669 0.1181 1.1024, -1.8701 0.1181 0.2673, -2.0669 0.1181 0.2673, -2.7861 -0.0394 -0.9449, -2.7257 -0.0394 -0.9449, -2.8543 -0.0394 -0.8268, -2.6575 -0.0394 -0.8268, -2.8543 -0.0394 0.205, -2.6575 -0.0394 0.205, -2.7861 0.0394 -0.9449, -2.7257 0.0394 -0.9449, -2.8543 0.0394 0.1515, -2.6575 0.0394 0.1515, -2.8543 0.0394 -0.8268, -2.6575 0.0394 -0.8268, -2.6575 0.1969 0.2138, -2.8543 0.1969 0.2138, -2.6575 0.1969 1.1024, -2.8543 0.1969 1.1024, -2.8543 0.1928 1.1329, -2.6575 0.1928 1.1329, -2.8543 0.181 1.1614, -2.6575 0.181 1.1614, -2.8543 0.1623 1.1859, -2.6575 0.1623 1.1859, -2.8543 0.1378 1.2047, -2.6575 0.1378 1.2047, -2.8543 0.1093 1.2164, -2.6575 0.1093 1.2164, -2.8543 0.0787 1.2205, -2.6575 0.0787 1.2205, -2.6575 -0.0984 1.2205, -2.8543 -0.0984 1.2205, -2.8543 -0.129 1.2164, -2.6575 -0.129 1.2164, -2.8543 -0.1575 1.2047, -2.6575 -0.1575 1.2047, -2.8543 -0.1819 1.1859, -2.6575 -0.1819 1.1859, -2.8543 -0.2007 1.1614, -2.6575 -0.2007 1.1614, -2.8543 -0.2125 1.1329, -2.6575 -0.2125 1.1329, -2.8543 -0.2165 1.1024, -2.6575 -0.2165 1.1024, -2.6575 -0.2165 0.1181, -2.8543 -0.2165 0.1181, -2.6575 -0.1378 0.1181, -2.8543 -0.1378 0.1181, -2.6575 -0.1378 1.1024, -2.8543 -0.1378 1.1024, -2.6575 -0.1365 1.1126, -2.8543 -0.1365 1.1126, -2.6575 -0.1325 1.122, -2.8543 -0.1325 1.122, -2.6575 -0.1263 1.1302, -2.8543 -0.1263 1.1302, -2.6575 -0.1181 1.1365, -2.8543 -0.1181 1.1365, -2.6575 -0.1086 1.1404, -2.8543 -0.1086 1.1404, -2.6575 -0.0984 1.1417, -2.8543 -0.0984 1.1417, -2.6575 0.0787 1.1417, -2.8543 0.0787 1.1417, -2.6575 0.0889 1.1404, -2.8543 0.0889 1.1404, -2.6575 0.0984 1.1365, -2.8543 0.0984 1.1365, -2.6575 0.1066 1.1302, -2.8543 0.1066 1.1302, -2.6575 0.1128 1.122, -2.8543 0.1128 1.122, -2.6575 0.1168 1.1126, -2.8543 0.1168 1.1126, -2.6575 0.1181 1.1024, -2.8543 0.1181 1.1024, -2.6575 0.1181 0.2673, -2.8543 0.1181 0.2673, 1.1509 -0.0394 -0.9449, 1.2113 -0.0394 -0.9449, 1.0827 -0.0394 -0.8268, 1.2795 -0.0394 -0.8268, 1.0827 -0.0394 0.205, 1.2795 -0.0394 0.205, 1.1509 0.0394 -0.9449, 1.2113 0.0394 -0.9449, 1.0827 0.0394 0.1515, 1.2795 0.0394 0.1515, 1.0827 0.0394 -0.8268, 1.2795 0.0394 -0.8268, 1.2795 0.1969 0.2138, 1.0827 0.1969 0.2138, 1.2795 0.1969 1.1024, 1.0827 0.1969 1.1024, 1.0827 0.1928 1.1329, 1.2795 0.1928 1.1329, 1.0827 0.181 1.1614, 1.2795 0.181 1.1614, 1.0827 0.1623 1.1859, 1.2795 0.1623 1.1859, 1.0827 0.1378 1.2047, 1.2795 0.1378 1.2047, 1.0827 0.1093 1.2164, 1.2795 0.1093 1.2164, 1.0827 0.0787 1.2205, 1.2795 0.0787 1.2205, 1.2795 -0.0984 1.2205, 1.0827 -0.0984 1.2205, 1.0827 -0.129 1.2164, 1.2795 -0.129 1.2164, 1.0827 -0.1575 1.2047, 1.2795 -0.1575 1.2047, 1.0827 -0.1819 1.1859, 1.2795 -0.1819 1.1859, 1.0827 -0.2007 1.1614, 1.2795 -0.2007 1.1614, 1.0827 -0.2125 1.1329, 1.2795 -0.2125 1.1329, 1.0827 -0.2165 1.1024, 1.2795 -0.2165 1.1024, 1.2795 -0.2165 0.1181, 1.0827 -0.2165 0.1181, 1.2795 -0.1378 0.1181, 1.0827 -0.1378 0.1181, 1.2795 -0.1378 1.1024, 1.0827 -0.1378 1.1024, 1.2795 -0.1365 1.1126, 1.0827 -0.1365 1.1126, 1.2795 -0.1325 1.122, 1.0827 -0.1325 1.122, 1.2795 -0.1263 1.1302, 1.0827 -0.1263 1.1302, 1.2795 -0.1181 1.1365, 1.0827 -0.1181 1.1365, 1.2795 -0.1086 1.1404, 1.0827 -0.1086 1.1404, 1.2795 -0.0984 1.1417, 1.0827 -0.0984 1.1417, 1.2795 0.0787 1.1417, 1.0827 0.0787 1.1417, 1.2795 0.0889 1.1404, 1.0827 0.0889 1.1404, 1.2795 0.0984 1.1365, 1.0827 0.0984 1.1365, 1.2795 0.1066 1.1302, 1.0827 0.1066 1.1302, 1.2795 0.1128 1.122, 1.0827 0.1128 1.122, 1.2795 0.1168 1.1126, 1.0827 0.1168 1.1126, 1.2795 0.1181 1.1024, 1.0827 0.1181 1.1024, 1.2795 0.1181 0.2673, 1.0827 0.1181 0.2673, 1.9383 -0.0394 -0.9449, 1.9987 -0.0394 -0.9449, 1.8701 -0.0394 -0.8268, 2.0669 -0.0394 -0.8268, 1.8701 -0.0394 0.205, 2.0669 -0.0394 0.205, 1.9383 0.0394 -0.9449, 1.9987 0.0394 -0.9449, 1.8701 0.0394 0.1515, 2.0669 0.0394 0.1515, 1.8701 0.0394 -0.8268, 2.0669 0.0394 -0.8268, 2.0669 0.1969 0.2138, 1.8701 0.1969 0.2138, 2.0669 0.1969 1.1024, 1.8701 0.1969 1.1024, 1.8701 0.1928 1.1329, 2.0669 0.1928 1.1329, 1.8701 0.181 1.1614, 2.0669 0.181 1.1614, 1.8701 0.1623 1.1859, 2.0669 0.1623 1.1859, 1.8701 0.1378 1.2047, 2.0669 0.1378 1.2047, 1.8701 0.1093 1.2164, 2.0669 0.1093 1.2164, 1.8701 0.0787 1.2205, 2.0669 0.0787 1.2205, 2.0669 -0.0984 1.2205, 1.8701 -0.0984 1.2205, 1.8701 -0.129 1.2164, 2.0669 -0.129 1.2164, 1.8701 -0.1575 1.2047, 2.0669 -0.1575 1.2047, 1.8701 -0.1819 1.1859, 2.0669 -0.1819 1.1859, 1.8701 -0.2007 1.1614, 2.0669 -0.2007 1.1614, 1.8701 -0.2125 1.1329, 2.0669 -0.2125 1.1329, 1.8701 -0.2165 1.1024, 2.0669 -0.2165 1.1024, 2.0669 -0.2165 0.1181, 1.8701 -0.2165 0.1181, 2.0669 -0.1378 0.1181, 1.8701 -0.1378 0.1181, 2.0669 -0.1378 1.1024, 1.8701 -0.1378 1.1024, 2.0669 -0.1365 1.1126, 1.8701 -0.1365 1.1126, 2.0669 -0.1325 1.122, 1.8701 -0.1325 1.122, 2.0669 -0.1263 1.1302, 1.8701 -0.1263 1.1302, 2.0669 -0.1181 1.1365, 1.8701 -0.1181 1.1365, 2.0669 -0.1086 1.1404, 1.8701 -0.1086 1.1404, 2.0669 -0.0984 1.1417, 1.8701 -0.0984 1.1417, 2.0669 0.0787 1.1417, 1.8701 0.0787 1.1417, 2.0669 0.0889 1.1404, 1.8701 0.0889 1.1404, 2.0669 0.0984 1.1365, 1.8701 0.0984 1.1365, 2.0669 0.1066 1.1302, 1.8701 0.1066 1.1302, 2.0669 0.1128 1.122, 1.8701 0.1128 1.122, 2.0669 0.1168 1.1126, 1.8701 0.1168 1.1126, 2.0669 0.1181 1.1024, 1.8701 0.1181 1.1024, 2.0669 0.1181 0.2673, 1.8701 0.1181 0.2673, 2.7257 -0.0394 -0.9449, 2.7861 -0.0394 -0.9449, 2.6575 -0.0394 -0.8268, 2.8543 -0.0394 -0.8268, 2.6575 -0.0394 0.205, 2.8543 -0.0394 0.205, 2.7257 0.0394 -0.9449, 2.7861 0.0394 -0.9449, 2.6575 0.0394 0.1515, 2.8543 0.0394 0.1515, 2.6575 0.0394 -0.8268, 2.8543 0.0394 -0.8268, 2.8543 0.1969 0.2138, 2.6575 0.1969 0.2138, 2.8543 0.1969 1.1024, 2.6575 0.1969 1.1024, 2.6575 0.1928 1.1329, 2.8543 0.1928 1.1329, 2.6575 0.181 1.1614, 2.8543 0.181 1.1614, 2.6575 0.1623 1.1859, 2.8543 0.1623 1.1859, 2.6575 0.1378 1.2047, 2.8543 0.1378 1.2047, 2.6575 0.1093 1.2164, 2.8543 0.1093 1.2164, 2.6575 0.0787 1.2205, 2.8543 0.0787 1.2205, 2.8543 -0.0984 1.2205, 2.6575 -0.0984 1.2205, 2.6575 -0.129 1.2164, 2.8543 -0.129 1.2164, 2.6575 -0.1575 1.2047, 2.8543 -0.1575 1.2047, 2.6575 -0.1819 1.1859, 2.8543 -0.1819 1.1859, 2.6575 -0.2007 1.1614, 2.8543 -0.2007 1.1614, 2.6575 -0.2125 1.1329, 2.8543 -0.2125 1.1329, 2.6575 -0.2165 1.1024, 2.8543 -0.2165 1.1024, 2.8543 -0.2165 0.1181, 2.6575 -0.2165 0.1181, 2.8543 -0.1378 0.1181, 2.6575 -0.1378 0.1181, 2.8543 -0.1378 1.1024, 2.6575 -0.1378 1.1024, 2.8543 -0.1365 1.1126, 2.6575 -0.1365 1.1126, 2.8543 -0.1325 1.122, 2.6575 -0.1325 1.122, 2.8543 -0.1263 1.1302, 2.6575 -0.1263 1.1302, 2.8543 -0.1181 1.1365, 2.6575 -0.1181 1.1365, 2.8543 -0.1086 1.1404, 2.6575 -0.1086 1.1404, 2.8543 -0.0984 1.1417, 2.6575 -0.0984 1.1417, 2.8543 0.0787 1.1417, 2.6575 0.0787 1.1417, 2.8543 0.0889 1.1404, 2.6575 0.0889 1.1404, 2.8543 0.0984 1.1365, 2.6575 0.0984 1.1365, 2.8543 0.1066 1.1302, 2.6575 0.1066 1.1302, 2.8543 0.1128 1.122, 2.6575 0.1128 1.122, 2.8543 0.1168 1.1126, 2.6575 0.1168 1.1126, 2.8543 0.1181 1.1024, 2.6575 0.1181 1.1024, 2.8543 0.1181 0.2673, 2.6575 0.1181 0.2673, -0.2953 0.0394 0.205, -0.4921 0.0394 0.205, -0.2953 -0.0394 0.1515, -0.4921 -0.0394 0.1515, -0.2953 -0.1969 0.2138, -0.4921 -0.1969 0.2138, -0.2953 -0.1969 1.1024, -0.4921 -0.1969 1.1024, -0.2953 -0.0787 1.2205, -0.4921 -0.0787 1.2205, -0.4921 -0.1093 1.2164, -0.2953 -0.1093 1.2164, -0.4921 -0.1378 1.2047, -0.2953 -0.1378 1.2047, -0.4921 -0.1623 1.1859, -0.2953 -0.1623 1.1859, -0.4921 -0.181 1.1614, -0.2953 -0.181 1.1614, -0.4921 -0.1928 1.1329, -0.2953 -0.1928 1.1329, -0.2953 0.0984 1.2205, -0.4921 0.0984 1.2205, -0.2953 0.2165 1.1024, -0.4921 0.2165 1.1024, -0.4921 0.2125 1.1329, -0.2953 0.2125 1.1329, -0.4921 0.2007 1.1614, -0.2953 0.2007 1.1614, -0.4921 0.1819 1.1859, -0.2953 0.1819 1.1859, -0.4921 0.1575 1.2047, -0.2953 0.1575 1.2047, -0.4921 0.129 1.2164, -0.2953 0.129 1.2164, -0.2953 0.2165 0.1181, -0.4921 0.2165 0.1181, -0.2953 0.1378 0.1181, -0.4921 0.1378 0.1181, -0.2953 0.1378 1.1024, -0.4921 0.1378 1.1024, -0.2953 0.0984 1.1417, -0.4921 0.0984 1.1417, -0.2953 0.1086 1.1404, -0.4921 0.1086 1.1404, -0.2953 0.1181 1.1365, -0.4921 0.1181 1.1365, -0.2953 0.1263 1.1302, -0.4921 0.1263 1.1302, -0.2953 0.1325 1.122, -0.4921 0.1325 1.122, -0.2953 0.1365 1.1126, -0.4921 0.1365 1.1126, -0.2953 -0.0787 1.1417, -0.4921 -0.0787 1.1417, -0.2953 -0.1181 1.1024, -0.4921 -0.1181 1.1024, -0.2953 -0.1168 1.1126, -0.4921 -0.1168 1.1126, -0.2953 -0.1128 1.122, -0.4921 -0.1128 1.122, -0.2953 -0.1066 1.1302, -0.4921 -0.1066 1.1302, -0.2953 -0.0984 1.1365, -0.4921 -0.0984 1.1365, -0.2953 -0.0889 1.1404, -0.4921 -0.0889 1.1404, -0.2953 -0.1181 0.2673, -0.4921 -0.1181 0.2673, -1.0827 0.0394 0.205, -1.2795 0.0394 0.205, -1.0827 -0.0394 0.1515, -1.2795 -0.0394 0.1515, -1.0827 -0.1969 0.2138, -1.2795 -0.1969 0.2138, -1.0827 -0.1969 1.1024, -1.2795 -0.1969 1.1024, -1.0827 -0.0787 1.2205, -1.2795 -0.0787 1.2205, -1.2795 -0.1093 1.2164, -1.0827 -0.1093 1.2164, -1.2795 -0.1378 1.2047, -1.0827 -0.1378 1.2047, -1.2795 -0.1623 1.1859, -1.0827 -0.1623 1.1859, -1.2795 -0.181 1.1614, -1.0827 -0.181 1.1614, -1.2795 -0.1928 1.1329, -1.0827 -0.1928 1.1329, -1.0827 0.0984 1.2205, -1.2795 0.0984 1.2205, -1.0827 0.2165 1.1024, -1.2795 0.2165 1.1024, -1.2795 0.2125 1.1329, -1.0827 0.2125 1.1329, -1.2795 0.2007 1.1614, -1.0827 0.2007 1.1614, -1.2795 0.1819 1.1859, -1.0827 0.1819 1.1859, -1.2795 0.1575 1.2047, -1.0827 0.1575 1.2047, -1.2795 0.129 1.2164, -1.0827 0.129 1.2164, -1.0827 0.2165 0.1181, -1.2795 0.2165 0.1181, -1.0827 0.1378 0.1181, -1.2795 0.1378 0.1181, -1.0827 0.1378 1.1024, -1.2795 0.1378 1.1024, -1.0827 0.0984 1.1417, -1.2795 0.0984 1.1417, -1.0827 0.1086 1.1404, -1.2795 0.1086 1.1404, -1.0827 0.1181 1.1365, -1.2795 0.1181 1.1365, -1.0827 0.1263 1.1302, -1.2795 0.1263 1.1302, -1.0827 0.1325 1.122, -1.2795 0.1325 1.122, -1.0827 0.1365 1.1126, -1.2795 0.1365 1.1126, -1.0827 -0.0787 1.1417, -1.2795 -0.0787 1.1417, -1.0827 -0.1181 1.1024, -1.2795 -0.1181 1.1024, -1.0827 -0.1168 1.1126, -1.2795 -0.1168 1.1126, -1.0827 -0.1128 1.122, -1.2795 -0.1128 1.122, -1.0827 -0.1066 1.1302, -1.2795 -0.1066 1.1302, -1.0827 -0.0984 1.1365, -1.2795 -0.0984 1.1365, -1.0827 -0.0889 1.1404, -1.2795 -0.0889 1.1404, -1.0827 -0.1181 0.2673, -1.2795 -0.1181 0.2673, -1.8701 0.0394 0.205, -2.0669 0.0394 0.205, -1.8701 -0.0394 0.1515, -2.0669 -0.0394 0.1515, -1.8701 -0.1969 0.2138, -2.0669 -0.1969 0.2138, -1.8701 -0.1969 1.1024, -2.0669 -0.1969 1.1024, -1.8701 -0.0787 1.2205, -2.0669 -0.0787 1.2205, -2.0669 -0.1093 1.2164, -1.8701 -0.1093 1.2164, -2.0669 -0.1378 1.2047, -1.8701 -0.1378 1.2047, -2.0669 -0.1623 1.1859, -1.8701 -0.1623 1.1859, -2.0669 -0.181 1.1614, -1.8701 -0.181 1.1614, -2.0669 -0.1928 1.1329, -1.8701 -0.1928 1.1329, -1.8701 0.0984 1.2205, -2.0669 0.0984 1.2205, -1.8701 0.2165 1.1024, -2.0669 0.2165 1.1024, -2.0669 0.2125 1.1329, -1.8701 0.2125 1.1329, -2.0669 0.2007 1.1614, -1.8701 0.2007 1.1614, -2.0669 0.1819 1.1859, -1.8701 0.1819 1.1859, -2.0669 0.1575 1.2047, -1.8701 0.1575 1.2047, -2.0669 0.129 1.2164, -1.8701 0.129 1.2164, -1.8701 0.2165 0.1181, -2.0669 0.2165 0.1181, -1.8701 0.1378 0.1181, -2.0669 0.1378 0.1181, -1.8701 0.1378 1.1024, -2.0669 0.1378 1.1024, -1.8701 0.0984 1.1417, -2.0669 0.0984 1.1417, -1.8701 0.1086 1.1404, -2.0669 0.1086 1.1404, -1.8701 0.1181 1.1365, -2.0669 0.1181 1.1365, -1.8701 0.1263 1.1302, -2.0669 0.1263 1.1302, -1.8701 0.1325 1.122, -2.0669 0.1325 1.122, -1.8701 0.1365 1.1126, -2.0669 0.1365 1.1126, -1.8701 -0.0787 1.1417, -2.0669 -0.0787 1.1417, -1.8701 -0.1181 1.1024, -2.0669 -0.1181 1.1024, -1.8701 -0.1168 1.1126, -2.0669 -0.1168 1.1126, -1.8701 -0.1128 1.122, -2.0669 -0.1128 1.122, -1.8701 -0.1066 1.1302, -2.0669 -0.1066 1.1302, -1.8701 -0.0984 1.1365, -2.0669 -0.0984 1.1365, -1.8701 -0.0889 1.1404, -2.0669 -0.0889 1.1404, -1.8701 -0.1181 0.2673, -2.0669 -0.1181 0.2673, -2.6575 0.0394 0.205, -2.8543 0.0394 0.205, -2.6575 -0.0394 0.1515, -2.8543 -0.0394 0.1515, -2.6575 -0.1969 0.2138, -2.8543 -0.1969 0.2138, -2.6575 -0.1969 1.1024, -2.8543 -0.1969 1.1024, -2.6575 -0.0787 1.2205, -2.8543 -0.0787 1.2205, -2.8543 -0.1093 1.2164, -2.6575 -0.1093 1.2164, -2.8543 -0.1378 1.2047, -2.6575 -0.1378 1.2047, -2.8543 -0.1623 1.1859, -2.6575 -0.1623 1.1859, -2.8543 -0.181 1.1614, -2.6575 -0.181 1.1614, -2.8543 -0.1928 1.1329, -2.6575 -0.1928 1.1329, -2.6575 0.0984 1.2205, -2.8543 0.0984 1.2205, -2.6575 0.2165 1.1024, -2.8543 0.2165 1.1024, -2.8543 0.2125 1.1329, -2.6575 0.2125 1.1329, -2.8543 0.2007 1.1614, -2.6575 0.2007 1.1614, -2.8543 0.1819 1.1859, -2.6575 0.1819 1.1859, -2.8543 0.1575 1.2047, -2.6575 0.1575 1.2047, -2.8543 0.129 1.2164, -2.6575 0.129 1.2164, -2.6575 0.2165 0.1181, -2.8543 0.2165 0.1181, -2.6575 0.1378 0.1181, -2.8543 0.1378 0.1181, -2.6575 0.1378 1.1024, -2.8543 0.1378 1.1024, -2.6575 0.0984 1.1417, -2.8543 0.0984 1.1417, -2.6575 0.1086 1.1404, -2.8543 0.1086 1.1404, -2.6575 0.1181 1.1365, -2.8543 0.1181 1.1365, -2.6575 0.1263 1.1302, -2.8543 0.1263 1.1302, -2.6575 0.1325 1.122, -2.8543 0.1325 1.122, -2.6575 0.1365 1.1126, -2.8543 0.1365 1.1126, -2.6575 -0.0787 1.1417, -2.8543 -0.0787 1.1417, -2.6575 -0.1181 1.1024, -2.8543 -0.1181 1.1024, -2.6575 -0.1168 1.1126, -2.8543 -0.1168 1.1126, -2.6575 -0.1128 1.122, -2.8543 -0.1128 1.122, -2.6575 -0.1066 1.1302, -2.8543 -0.1066 1.1302, -2.6575 -0.0984 1.1365, -2.8543 -0.0984 1.1365, -2.6575 -0.0889 1.1404, -2.8543 -0.0889 1.1404, -2.6575 -0.1181 0.2673, -2.8543 -0.1181 0.2673, 1.2795 0.0394 0.205, 1.0827 0.0394 0.205, 1.2795 -0.0394 0.1515, 1.0827 -0.0394 0.1515, 1.2795 -0.1969 0.2138, 1.0827 -0.1969 0.2138, 1.2795 -0.1969 1.1024, 1.0827 -0.1969 1.1024, 1.2795 -0.0787 1.2205, 1.0827 -0.0787 1.2205, 1.0827 -0.1093 1.2164, 1.2795 -0.1093 1.2164, 1.0827 -0.1378 1.2047, 1.2795 -0.1378 1.2047, 1.0827 -0.1623 1.1859, 1.2795 -0.1623 1.1859, 1.0827 -0.181 1.1614, 1.2795 -0.181 1.1614, 1.0827 -0.1928 1.1329, 1.2795 -0.1928 1.1329, 1.2795 0.0984 1.2205, 1.0827 0.0984 1.2205, 1.2795 0.2165 1.1024, 1.0827 0.2165 1.1024, 1.0827 0.2125 1.1329, 1.2795 0.2125 1.1329, 1.0827 0.2007 1.1614, 1.2795 0.2007 1.1614, 1.0827 0.1819 1.1859, 1.2795 0.1819 1.1859, 1.0827 0.1575 1.2047, 1.2795 0.1575 1.2047, 1.0827 0.129 1.2164, 1.2795 0.129 1.2164, 1.2795 0.2165 0.1181, 1.0827 0.2165 0.1181, 1.2795 0.1378 0.1181, 1.0827 0.1378 0.1181, 1.2795 0.1378 1.1024, 1.0827 0.1378 1.1024, 1.2795 0.0984 1.1417, 1.0827 0.0984 1.1417, 1.2795 0.1086 1.1404, 1.0827 0.1086 1.1404, 1.2795 0.1181 1.1365, 1.0827 0.1181 1.1365, 1.2795 0.1263 1.1302, 1.0827 0.1263 1.1302, 1.2795 0.1325 1.122, 1.0827 0.1325 1.122, 1.2795 0.1365 1.1126, 1.0827 0.1365 1.1126, 1.2795 -0.0787 1.1417, 1.0827 -0.0787 1.1417, 1.2795 -0.1181 1.1024, 1.0827 -0.1181 1.1024, 1.2795 -0.1168 1.1126, 1.0827 -0.1168 1.1126, 1.2795 -0.1128 1.122, 1.0827 -0.1128 1.122, 1.2795 -0.1066 1.1302, 1.0827 -0.1066 1.1302, 1.2795 -0.0984 1.1365, 1.0827 -0.0984 1.1365, 1.2795 -0.0889 1.1404, 1.0827 -0.0889 1.1404, 1.2795 -0.1181 0.2673, 1.0827 -0.1181 0.2673, 2.0669 0.0394 0.205, 1.8701 0.0394 0.205, 2.0669 -0.0394 0.1515, 1.8701 -0.0394 0.1515, 2.0669 -0.1969 0.2138, 1.8701 -0.1969 0.2138, 2.0669 -0.1969 1.1024, 1.8701 -0.1969 1.1024, 2.0669 -0.0787 1.2205, 1.8701 -0.0787 1.2205, 1.8701 -0.1093 1.2164, 2.0669 -0.1093 1.2164, 1.8701 -0.1378 1.2047, 2.0669 -0.1378 1.2047, 1.8701 -0.1623 1.1859, 2.0669 -0.1623 1.1859, 1.8701 -0.181 1.1614, 2.0669 -0.181 1.1614, 1.8701 -0.1928 1.1329, 2.0669 -0.1928 1.1329, 2.0669 0.0984 1.2205, 1.8701 0.0984 1.2205, 2.0669 0.2165 1.1024, 1.8701 0.2165 1.1024, 1.8701 0.2125 1.1329, 2.0669 0.2125 1.1329, 1.8701 0.2007 1.1614, 2.0669 0.2007 1.1614, 1.8701 0.1819 1.1859, 2.0669 0.1819 1.1859, 1.8701 0.1575 1.2047, 2.0669 0.1575 1.2047, 1.8701 0.129 1.2164, 2.0669 0.129 1.2164, 2.0669 0.2165 0.1181, 1.8701 0.2165 0.1181, 2.0669 0.1378 0.1181, 1.8701 0.1378 0.1181, 2.0669 0.1378 1.1024, 1.8701 0.1378 1.1024, 2.0669 0.0984 1.1417, 1.8701 0.0984 1.1417, 2.0669 0.1086 1.1404, 1.8701 0.1086 1.1404, 2.0669 0.1181 1.1365, 1.8701 0.1181 1.1365, 2.0669 0.1263 1.1302, 1.8701 0.1263 1.1302, 2.0669 0.1325 1.122, 1.8701 0.1325 1.122, 2.0669 0.1365 1.1126, 1.8701 0.1365 1.1126, 2.0669 -0.0787 1.1417, 1.8701 -0.0787 1.1417, 2.0669 -0.1181 1.1024, 1.8701 -0.1181 1.1024, 2.0669 -0.1168 1.1126, 1.8701 -0.1168 1.1126, 2.0669 -0.1128 1.122, 1.8701 -0.1128 1.122, 2.0669 -0.1066 1.1302, 1.8701 -0.1066 1.1302, 2.0669 -0.0984 1.1365, 1.8701 -0.0984 1.1365, 2.0669 -0.0889 1.1404, 1.8701 -0.0889 1.1404, 2.0669 -0.1181 0.2673, 1.8701 -0.1181 0.2673, 2.8543 0.0394 0.205, 2.6575 0.0394 0.205, 2.8543 -0.0394 0.1515, 2.6575 -0.0394 0.1515, 2.8543 -0.1969 0.2138, 2.6575 -0.1969 0.2138, 2.8543 -0.1969 1.1024, 2.6575 -0.1969 1.1024, 2.8543 -0.0787 1.2205, 2.6575 -0.0787 1.2205, 2.6575 -0.1093 1.2164, 2.8543 -0.1093 1.2164, 2.6575 -0.1378 1.2047, 2.8543 -0.1378 1.2047, 2.6575 -0.1623 1.1859, 2.8543 -0.1623 1.1859, 2.6575 -0.181 1.1614, 2.8543 -0.181 1.1614, 2.6575 -0.1928 1.1329, 2.8543 -0.1928 1.1329, 2.8543 0.0984 1.2205, 2.6575 0.0984 1.2205, 2.8543 0.2165 1.1024, 2.6575 0.2165 1.1024, 2.6575 0.2125 1.1329, 2.8543 0.2125 1.1329, 2.6575 0.2007 1.1614, 2.8543 0.2007 1.1614, 2.6575 0.1819 1.1859, 2.8543 0.1819 1.1859, 2.6575 0.1575 1.2047, 2.8543 0.1575 1.2047, 2.6575 0.129 1.2164, 2.8543 0.129 1.2164, 2.8543 0.2165 0.1181, 2.6575 0.2165 0.1181, 2.8543 0.1378 0.1181, 2.6575 0.1378 0.1181, 2.8543 0.1378 1.1024, 2.6575 0.1378 1.1024, 2.8543 0.0984 1.1417, 2.6575 0.0984 1.1417, 2.8543 0.1086 1.1404, 2.6575 0.1086 1.1404, 2.8543 0.1181 1.1365, 2.6575 0.1181 1.1365, 2.8543 0.1263 1.1302, 2.6575 0.1263 1.1302, 2.8543 0.1325 1.122, 2.6575 0.1325 1.122, 2.8543 0.1365 1.1126, 2.6575 0.1365 1.1126, 2.8543 -0.0787 1.1417, 2.6575 -0.0787 1.1417, 2.8543 -0.1181 1.1024, 2.6575 -0.1181 1.1024, 2.8543 -0.1168 1.1126, 2.6575 -0.1168 1.1126, 2.8543 -0.1128 1.122, 2.6575 -0.1128 1.122, 2.8543 -0.1066 1.1302, 2.6575 -0.1066 1.1302, 2.8543 -0.0984 1.1365, 2.6575 -0.0984 1.1365, 2.8543 -0.0889 1.1404, 2.6575 -0.0889 1.1404, 2.8543 -0.1181 0.2673, 2.6575 -0.1181 0.2673
            ]
        }
        coordIndex [
            0,1,2,-1,2,1,3,-1,2,3,4,-1,4,3,5,-1,6,7,0,-1,0,7,1,-1,8,9,10,-1,10,9,11,-1,10,11,6,-1,6,11,7,-1,12,9,13,-1,13,9,8,-1,14,12,15,-1,15,12,13,-1,14,15,16,-1,14,16,17,-1,17,16,18,-1,17,18,19,-1,19,18,20,-1,19,20,21,-1,21,20,22,-1,21,22,23,-1,23,22,24,-1,23,24,25,-1,25,24,26,-1,25,26,27,-1,28,27,29,-1,29,27,26,-1,28,29,30,-1,28,30,31,-1,31,30,32,-1,31,32,33,-1,33,32,34,-1,33,34,35,-1,35,34,36,-1,35,36,37,-1,37,36,38,-1,37,38,39,-1,39,38,40,-1,39,40,41,-1,42,41,43,-1,43,41,40,-1,44,42,45,-1,45,42,43,-1,46,44,47,-1,47,44,45,-1,46,47,48,-1,48,47,49,-1,48,49,50,-1,50,49,51,-1,50,51,52,-1,52,51,53,-1,52,53,54,-1,54,53,55,-1,54,55,56,-1,56,55,57,-1,56,57,58,-1,58,57,59,-1,60,58,61,-1,61,58,59,-1,60,61,62,-1,62,61,63,-1,62,63,64,-1,64,63,65,-1,64,65,66,-1,66,65,67,-1,66,67,68,-1,68,67,69,-1,68,69,70,-1,70,69,71,-1,70,71,72,-1,72,71,73,-1,74,72,75,-1,75,72,73,-1,5,74,4,-1,4,74,75,-1,3,11,5,-1,5,11,9,-1,5,9,74,-1,74,9,12,-1,74,12,72,-1,72,12,14,-1,72,14,70,-1,70,14,17,-1,70,17,68,-1,68,17,19,-1,68,19,66,-1,66,19,21,-1,66,21,64,-1,64,21,23,-1,64,23,62,-1,62,23,25,-1,62,25,60,-1,60,25,27,-1,60,27,58,-1,58,27,28,-1,58,28,56,-1,56,28,31,-1,56,31,54,-1,54,31,33,-1,54,33,52,-1,52,33,35,-1,52,35,50,-1,50,35,37,-1,50,37,48,-1,48,37,39,-1,48,39,46,-1,46,39,41,-1,46,41,44,-1,44,41,42,-1,45,43,47,-1,47,43,40,-1,47,40,49,-1,49,40,38,-1,49,38,51,-1,51,38,36,-1,51,36,53,-1,53,36,34,-1,53,34,55,-1,55,34,32,-1,55,32,57,-1,57,32,30,-1,57,30,59,-1,59,30,29,-1,59,29,61,-1,61,29,26,-1,61,26,63,-1,63,26,24,-1,63,24,65,-1,65,24,22,-1,65,22,67,-1,67,22,20,-1,67,20,69,-1,69,20,18,-1,69,18,71,-1,71,18,16,-1,71,16,73,-1,73,16,15,-1,73,15,75,-1,75,15,13,-1,75,13,4,-1,4,13,8,-1,4,8,2,-1,2,8,10,-1,0,2,6,-1,6,2,10,-1,3,1,11,-1,11,1,7,-1,7,6,11,-1,11,6,10,-1,11,10,76,-1,76,10,77,-1,1,0,7,-1,7,0,6,-1,78,79,3,-1,3,79,2,-1,3,2,1,-1,1,2,0,-1,78,80,79,-1,79,80,81,-1,80,82,81,-1,81,82,83,-1,84,85,86,-1,84,86,87,-1,87,86,88,-1,87,88,89,-1,89,88,90,-1,89,90,91,-1,91,90,92,-1,91,92,93,-1,93,92,94,-1,93,94,95,-1,95,94,83,-1,95,83,82,-1,84,96,85,-1,85,96,97,-1,98,99,100,-1,98,100,101,-1,101,100,102,-1,101,102,103,-1,103,102,104,-1,103,104,105,-1,105,104,106,-1,105,106,107,-1,107,106,108,-1,107,108,109,-1,109,108,97,-1,109,97,96,-1,98,110,99,-1,99,110,111,-1,110,112,111,-1,111,112,113,-1,112,114,113,-1,113,114,115,-1,116,117,118,-1,118,117,119,-1,118,119,120,-1,120,119,121,-1,120,121,122,-1,122,121,123,-1,122,123,124,-1,124,123,125,-1,124,125,126,-1,126,125,127,-1,126,127,114,-1,114,127,115,-1,116,128,117,-1,117,128,129,-1,130,131,132,-1,132,131,133,-1,132,133,134,-1,134,133,135,-1,134,135,136,-1,136,135,137,-1,136,137,138,-1,138,137,139,-1,138,139,140,-1,140,139,141,-1,140,141,128,-1,128,141,129,-1,130,142,131,-1,131,142,143,-1,142,76,143,-1,143,76,77,-1,112,110,114,-1,114,110,98,-1,114,98,126,-1,126,98,101,-1,126,101,124,-1,124,101,103,-1,124,103,122,-1,122,103,105,-1,122,105,120,-1,120,105,107,-1,120,107,118,-1,118,107,109,-1,118,109,116,-1,116,109,96,-1,116,96,128,-1,128,96,84,-1,128,84,140,-1,140,84,87,-1,140,87,138,-1,138,87,89,-1,138,89,136,-1,136,89,91,-1,136,91,134,-1,134,91,93,-1,134,93,132,-1,132,93,95,-1,132,95,130,-1,130,95,82,-1,130,82,142,-1,142,82,80,-1,142,80,76,-1,76,80,78,-1,76,78,11,-1,11,78,3,-1,10,2,77,-1,77,2,79,-1,77,79,143,-1,143,79,81,-1,143,81,131,-1,131,81,83,-1,131,83,133,-1,133,83,94,-1,133,94,135,-1,135,94,92,-1,135,92,137,-1,137,92,90,-1,137,90,139,-1,139,90,88,-1,139,88,141,-1,141,88,86,-1,141,86,129,-1,129,86,85,-1,129,85,117,-1,117,85,97,-1,117,97,119,-1,119,97,108,-1,119,108,121,-1,121,108,106,-1,121,106,123,-1,123,106,104,-1,123,104,125,-1,125,104,102,-1,125,102,127,-1,127,102,100,-1,127,100,115,-1,115,100,99,-1,115,99,113,-1,113,99,111,-1,10,6,2,-1,2,6,0,-1,7,11,1,-1,1,11,3,-1,144,145,146,-1,146,145,147,-1,146,147,148,-1,148,147,149,-1,150,151,144,-1,144,151,145,-1,152,153,154,-1,154,153,155,-1,154,155,150,-1,150,155,151,-1,156,153,157,-1,157,153,152,-1,158,156,159,-1,159,156,157,-1,158,159,160,-1,158,160,161,-1,161,160,162,-1,161,162,163,-1,163,162,164,-1,163,164,165,-1,165,164,166,-1,165,166,167,-1,167,166,168,-1,167,168,169,-1,169,168,170,-1,169,170,171,-1,172,171,173,-1,173,171,170,-1,172,173,174,-1,172,174,175,-1,175,174,176,-1,175,176,177,-1,177,176,178,-1,177,178,179,-1,179,178,180,-1,179,180,181,-1,181,180,182,-1,181,182,183,-1,183,182,184,-1,183,184,185,-1,186,185,187,-1,187,185,184,-1,188,186,189,-1,189,186,187,-1,190,188,191,-1,191,188,189,-1,190,191,192,-1,192,191,193,-1,192,193,194,-1,194,193,195,-1,194,195,196,-1,196,195,197,-1,196,197,198,-1,198,197,199,-1,198,199,200,-1,200,199,201,-1,200,201,202,-1,202,201,203,-1,204,202,205,-1,205,202,203,-1,204,205,206,-1,206,205,207,-1,206,207,208,-1,208,207,209,-1,208,209,210,-1,210,209,211,-1,210,211,212,-1,212,211,213,-1,212,213,214,-1,214,213,215,-1,214,215,216,-1,216,215,217,-1,218,216,219,-1,219,216,217,-1,149,218,148,-1,148,218,219,-1,147,155,149,-1,149,155,153,-1,149,153,218,-1,218,153,156,-1,218,156,216,-1,216,156,158,-1,216,158,214,-1,214,158,161,-1,214,161,212,-1,212,161,163,-1,212,163,210,-1,210,163,165,-1,210,165,208,-1,208,165,167,-1,208,167,206,-1,206,167,169,-1,206,169,204,-1,204,169,171,-1,204,171,202,-1,202,171,172,-1,202,172,200,-1,200,172,175,-1,200,175,198,-1,198,175,177,-1,198,177,196,-1,196,177,179,-1,196,179,194,-1,194,179,181,-1,194,181,192,-1,192,181,183,-1,192,183,190,-1,190,183,185,-1,190,185,188,-1,188,185,186,-1,189,187,191,-1,191,187,184,-1,191,184,193,-1,193,184,182,-1,193,182,195,-1,195,182,180,-1,195,180,197,-1,197,180,178,-1,197,178,199,-1,199,178,176,-1,199,176,201,-1,201,176,174,-1,201,174,203,-1,203,174,173,-1,203,173,205,-1,205,173,170,-1,205,170,207,-1,207,170,168,-1,207,168,209,-1,209,168,166,-1,209,166,211,-1,211,166,164,-1,211,164,213,-1,213,164,162,-1,213,162,215,-1,215,162,160,-1,215,160,217,-1,217,160,159,-1,217,159,219,-1,219,159,157,-1,219,157,148,-1,148,157,152,-1,148,152,146,-1,146,152,154,-1,144,146,150,-1,150,146,154,-1,147,145,155,-1,155,145,151,-1,220,221,222,-1,222,221,223,-1,222,223,224,-1,224,223,225,-1,226,227,220,-1,220,227,221,-1,228,229,230,-1,230,229,231,-1,230,231,226,-1,226,231,227,-1,232,229,233,-1,233,229,228,-1,234,232,235,-1,235,232,233,-1,234,235,236,-1,234,236,237,-1,237,236,238,-1,237,238,239,-1,239,238,240,-1,239,240,241,-1,241,240,242,-1,241,242,243,-1,243,242,244,-1,243,244,245,-1,245,244,246,-1,245,246,247,-1,248,247,249,-1,249,247,246,-1,248,249,250,-1,248,250,251,-1,251,250,252,-1,251,252,253,-1,253,252,254,-1,253,254,255,-1,255,254,256,-1,255,256,257,-1,257,256,258,-1,257,258,259,-1,259,258,260,-1,259,260,261,-1,262,261,263,-1,263,261,260,-1,264,262,265,-1,265,262,263,-1,266,264,267,-1,267,264,265,-1,266,267,268,-1,268,267,269,-1,268,269,270,-1,270,269,271,-1,270,271,272,-1,272,271,273,-1,272,273,274,-1,274,273,275,-1,274,275,276,-1,276,275,277,-1,276,277,278,-1,278,277,279,-1,280,278,281,-1,281,278,279,-1,280,281,282,-1,282,281,283,-1,282,283,284,-1,284,283,285,-1,284,285,286,-1,286,285,287,-1,286,287,288,-1,288,287,289,-1,288,289,290,-1,290,289,291,-1,290,291,292,-1,292,291,293,-1,294,292,295,-1,295,292,293,-1,225,294,224,-1,224,294,295,-1,223,231,225,-1,225,231,229,-1,225,229,294,-1,294,229,232,-1,294,232,292,-1,292,232,234,-1,292,234,290,-1,290,234,237,-1,290,237,288,-1,288,237,239,-1,288,239,286,-1,286,239,241,-1,286,241,284,-1,284,241,243,-1,284,243,282,-1,282,243,245,-1,282,245,280,-1,280,245,247,-1,280,247,278,-1,278,247,248,-1,278,248,276,-1,276,248,251,-1,276,251,274,-1,274,251,253,-1,274,253,272,-1,272,253,255,-1,272,255,270,-1,270,255,257,-1,270,257,268,-1,268,257,259,-1,268,259,266,-1,266,259,261,-1,266,261,264,-1,264,261,262,-1,265,263,267,-1,267,263,260,-1,267,260,269,-1,269,260,258,-1,269,258,271,-1,271,258,256,-1,271,256,273,-1,273,256,254,-1,273,254,275,-1,275,254,252,-1,275,252,277,-1,277,252,250,-1,277,250,279,-1,279,250,249,-1,279,249,281,-1,281,249,246,-1,281,246,283,-1,283,246,244,-1,283,244,285,-1,285,244,242,-1,285,242,287,-1,287,242,240,-1,287,240,289,-1,289,240,238,-1,289,238,291,-1,291,238,236,-1,291,236,293,-1,293,236,235,-1,293,235,295,-1,295,235,233,-1,295,233,224,-1,224,233,228,-1,224,228,222,-1,222,228,230,-1,220,222,226,-1,226,222,230,-1,223,221,231,-1,231,221,227,-1,296,297,298,-1,298,297,299,-1,298,299,300,-1,300,299,301,-1,302,303,296,-1,296,303,297,-1,304,305,306,-1,306,305,307,-1,306,307,302,-1,302,307,303,-1,308,305,309,-1,309,305,304,-1,310,308,311,-1,311,308,309,-1,310,311,312,-1,310,312,313,-1,313,312,314,-1,313,314,315,-1,315,314,316,-1,315,316,317,-1,317,316,318,-1,317,318,319,-1,319,318,320,-1,319,320,321,-1,321,320,322,-1,321,322,323,-1,324,323,325,-1,325,323,322,-1,324,325,326,-1,324,326,327,-1,327,326,328,-1,327,328,329,-1,329,328,330,-1,329,330,331,-1,331,330,332,-1,331,332,333,-1,333,332,334,-1,333,334,335,-1,335,334,336,-1,335,336,337,-1,338,337,339,-1,339,337,336,-1,340,338,341,-1,341,338,339,-1,342,340,343,-1,343,340,341,-1,342,343,344,-1,344,343,345,-1,344,345,346,-1,346,345,347,-1,346,347,348,-1,348,347,349,-1,348,349,350,-1,350,349,351,-1,350,351,352,-1,352,351,353,-1,352,353,354,-1,354,353,355,-1,356,354,357,-1,357,354,355,-1,356,357,358,-1,358,357,359,-1,358,359,360,-1,360,359,361,-1,360,361,362,-1,362,361,363,-1,362,363,364,-1,364,363,365,-1,364,365,366,-1,366,365,367,-1,366,367,368,-1,368,367,369,-1,370,368,371,-1,371,368,369,-1,301,370,300,-1,300,370,371,-1,299,307,301,-1,301,307,305,-1,301,305,370,-1,370,305,308,-1,370,308,368,-1,368,308,310,-1,368,310,366,-1,366,310,313,-1,366,313,364,-1,364,313,315,-1,364,315,362,-1,362,315,317,-1,362,317,360,-1,360,317,319,-1,360,319,358,-1,358,319,321,-1,358,321,356,-1,356,321,323,-1,356,323,354,-1,354,323,324,-1,354,324,352,-1,352,324,327,-1,352,327,350,-1,350,327,329,-1,350,329,348,-1,348,329,331,-1,348,331,346,-1,346,331,333,-1,346,333,344,-1,344,333,335,-1,344,335,342,-1,342,335,337,-1,342,337,340,-1,340,337,338,-1,341,339,343,-1,343,339,336,-1,343,336,345,-1,345,336,334,-1,345,334,347,-1,347,334,332,-1,347,332,349,-1,349,332,330,-1,349,330,351,-1,351,330,328,-1,351,328,353,-1,353,328,326,-1,353,326,355,-1,355,326,325,-1,355,325,357,-1,357,325,322,-1,357,322,359,-1,359,322,320,-1,359,320,361,-1,361,320,318,-1,361,318,363,-1,363,318,316,-1,363,316,365,-1,365,316,314,-1,365,314,367,-1,367,314,312,-1,367,312,369,-1,369,312,311,-1,369,311,371,-1,371,311,309,-1,371,309,300,-1,300,309,304,-1,300,304,298,-1,298,304,306,-1,296,298,302,-1,302,298,306,-1,299,297,307,-1,307,297,303,-1,372,373,374,-1,374,373,375,-1,374,375,376,-1,376,375,377,-1,378,379,372,-1,372,379,373,-1,380,381,382,-1,382,381,383,-1,382,383,378,-1,378,383,379,-1,384,381,385,-1,385,381,380,-1,386,384,387,-1,387,384,385,-1,386,387,388,-1,386,388,389,-1,389,388,390,-1,389,390,391,-1,391,390,392,-1,391,392,393,-1,393,392,394,-1,393,394,395,-1,395,394,396,-1,395,396,397,-1,397,396,398,-1,397,398,399,-1,400,399,401,-1,401,399,398,-1,400,401,402,-1,400,402,403,-1,403,402,404,-1,403,404,405,-1,405,404,406,-1,405,406,407,-1,407,406,408,-1,407,408,409,-1,409,408,410,-1,409,410,411,-1,411,410,412,-1,411,412,413,-1,414,413,415,-1,415,413,412,-1,416,414,417,-1,417,414,415,-1,418,416,419,-1,419,416,417,-1,418,419,420,-1,420,419,421,-1,420,421,422,-1,422,421,423,-1,422,423,424,-1,424,423,425,-1,424,425,426,-1,426,425,427,-1,426,427,428,-1,428,427,429,-1,428,429,430,-1,430,429,431,-1,432,430,433,-1,433,430,431,-1,432,433,434,-1,434,433,435,-1,434,435,436,-1,436,435,437,-1,436,437,438,-1,438,437,439,-1,438,439,440,-1,440,439,441,-1,440,441,442,-1,442,441,443,-1,442,443,444,-1,444,443,445,-1,446,444,447,-1,447,444,445,-1,377,446,376,-1,376,446,447,-1,375,383,377,-1,377,383,381,-1,377,381,446,-1,446,381,384,-1,446,384,444,-1,444,384,386,-1,444,386,442,-1,442,386,389,-1,442,389,440,-1,440,389,391,-1,440,391,438,-1,438,391,393,-1,438,393,436,-1,436,393,395,-1,436,395,434,-1,434,395,397,-1,434,397,432,-1,432,397,399,-1,432,399,430,-1,430,399,400,-1,430,400,428,-1,428,400,403,-1,428,403,426,-1,426,403,405,-1,426,405,424,-1,424,405,407,-1,424,407,422,-1,422,407,409,-1,422,409,420,-1,420,409,411,-1,420,411,418,-1,418,411,413,-1,418,413,416,-1,416,413,414,-1,417,415,419,-1,419,415,412,-1,419,412,421,-1,421,412,410,-1,421,410,423,-1,423,410,408,-1,423,408,425,-1,425,408,406,-1,425,406,427,-1,427,406,404,-1,427,404,429,-1,429,404,402,-1,429,402,431,-1,431,402,401,-1,431,401,433,-1,433,401,398,-1,433,398,435,-1,435,398,396,-1,435,396,437,-1,437,396,394,-1,437,394,439,-1,439,394,392,-1,439,392,441,-1,441,392,390,-1,441,390,443,-1,443,390,388,-1,443,388,445,-1,445,388,387,-1,445,387,447,-1,447,387,385,-1,447,385,376,-1,376,385,380,-1,376,380,374,-1,374,380,382,-1,372,374,378,-1,378,374,382,-1,375,373,383,-1,383,373,379,-1,448,449,450,-1,450,449,451,-1,450,451,452,-1,452,451,453,-1,454,455,448,-1,448,455,449,-1,456,457,458,-1,458,457,459,-1,458,459,454,-1,454,459,455,-1,460,457,461,-1,461,457,456,-1,462,460,463,-1,463,460,461,-1,462,463,464,-1,462,464,465,-1,465,464,466,-1,465,466,467,-1,467,466,468,-1,467,468,469,-1,469,468,470,-1,469,470,471,-1,471,470,472,-1,471,472,473,-1,473,472,474,-1,473,474,475,-1,476,475,477,-1,477,475,474,-1,476,477,478,-1,476,478,479,-1,479,478,480,-1,479,480,481,-1,481,480,482,-1,481,482,483,-1,483,482,484,-1,483,484,485,-1,485,484,486,-1,485,486,487,-1,487,486,488,-1,487,488,489,-1,490,489,491,-1,491,489,488,-1,492,490,493,-1,493,490,491,-1,494,492,495,-1,495,492,493,-1,494,495,496,-1,496,495,497,-1,496,497,498,-1,498,497,499,-1,498,499,500,-1,500,499,501,-1,500,501,502,-1,502,501,503,-1,502,503,504,-1,504,503,505,-1,504,505,506,-1,506,505,507,-1,508,506,509,-1,509,506,507,-1,508,509,510,-1,510,509,511,-1,510,511,512,-1,512,511,513,-1,512,513,514,-1,514,513,515,-1,514,515,516,-1,516,515,517,-1,516,517,518,-1,518,517,519,-1,518,519,520,-1,520,519,521,-1,522,520,523,-1,523,520,521,-1,453,522,452,-1,452,522,523,-1,451,459,453,-1,453,459,457,-1,453,457,522,-1,522,457,460,-1,522,460,520,-1,520,460,462,-1,520,462,518,-1,518,462,465,-1,518,465,516,-1,516,465,467,-1,516,467,514,-1,514,467,469,-1,514,469,512,-1,512,469,471,-1,512,471,510,-1,510,471,473,-1,510,473,508,-1,508,473,475,-1,508,475,506,-1,506,475,476,-1,506,476,504,-1,504,476,479,-1,504,479,502,-1,502,479,481,-1,502,481,500,-1,500,481,483,-1,500,483,498,-1,498,483,485,-1,498,485,496,-1,496,485,487,-1,496,487,494,-1,494,487,489,-1,494,489,492,-1,492,489,490,-1,493,491,495,-1,495,491,488,-1,495,488,497,-1,497,488,486,-1,497,486,499,-1,499,486,484,-1,499,484,501,-1,501,484,482,-1,501,482,503,-1,503,482,480,-1,503,480,505,-1,505,480,478,-1,505,478,507,-1,507,478,477,-1,507,477,509,-1,509,477,474,-1,509,474,511,-1,511,474,472,-1,511,472,513,-1,513,472,470,-1,513,470,515,-1,515,470,468,-1,515,468,517,-1,517,468,466,-1,517,466,519,-1,519,466,464,-1,519,464,521,-1,521,464,463,-1,521,463,523,-1,523,463,461,-1,523,461,452,-1,452,461,456,-1,452,456,450,-1,450,456,458,-1,448,450,454,-1,454,450,458,-1,451,449,459,-1,459,449,455,-1,524,525,526,-1,526,525,527,-1,526,527,528,-1,528,527,529,-1,530,531,524,-1,524,531,525,-1,532,533,534,-1,534,533,535,-1,534,535,530,-1,530,535,531,-1,536,533,537,-1,537,533,532,-1,538,536,539,-1,539,536,537,-1,538,539,540,-1,538,540,541,-1,541,540,542,-1,541,542,543,-1,543,542,544,-1,543,544,545,-1,545,544,546,-1,545,546,547,-1,547,546,548,-1,547,548,549,-1,549,548,550,-1,549,550,551,-1,552,551,553,-1,553,551,550,-1,552,553,554,-1,552,554,555,-1,555,554,556,-1,555,556,557,-1,557,556,558,-1,557,558,559,-1,559,558,560,-1,559,560,561,-1,561,560,562,-1,561,562,563,-1,563,562,564,-1,563,564,565,-1,566,565,567,-1,567,565,564,-1,568,566,569,-1,569,566,567,-1,570,568,571,-1,571,568,569,-1,570,571,572,-1,572,571,573,-1,572,573,574,-1,574,573,575,-1,574,575,576,-1,576,575,577,-1,576,577,578,-1,578,577,579,-1,578,579,580,-1,580,579,581,-1,580,581,582,-1,582,581,583,-1,584,582,585,-1,585,582,583,-1,584,585,586,-1,586,585,587,-1,586,587,588,-1,588,587,589,-1,588,589,590,-1,590,589,591,-1,590,591,592,-1,592,591,593,-1,592,593,594,-1,594,593,595,-1,594,595,596,-1,596,595,597,-1,598,596,599,-1,599,596,597,-1,529,598,528,-1,528,598,599,-1,527,535,529,-1,529,535,533,-1,529,533,598,-1,598,533,536,-1,598,536,596,-1,596,536,538,-1,596,538,594,-1,594,538,541,-1,594,541,592,-1,592,541,543,-1,592,543,590,-1,590,543,545,-1,590,545,588,-1,588,545,547,-1,588,547,586,-1,586,547,549,-1,586,549,584,-1,584,549,551,-1,584,551,582,-1,582,551,552,-1,582,552,580,-1,580,552,555,-1,580,555,578,-1,578,555,557,-1,578,557,576,-1,576,557,559,-1,576,559,574,-1,574,559,561,-1,574,561,572,-1,572,561,563,-1,572,563,570,-1,570,563,565,-1,570,565,568,-1,568,565,566,-1,569,567,571,-1,571,567,564,-1,571,564,573,-1,573,564,562,-1,573,562,575,-1,575,562,560,-1,575,560,577,-1,577,560,558,-1,577,558,579,-1,579,558,556,-1,579,556,581,-1,581,556,554,-1,581,554,583,-1,583,554,553,-1,583,553,585,-1,585,553,550,-1,585,550,587,-1,587,550,548,-1,587,548,589,-1,589,548,546,-1,589,546,591,-1,591,546,544,-1,591,544,593,-1,593,544,542,-1,593,542,595,-1,595,542,540,-1,595,540,597,-1,597,540,539,-1,597,539,599,-1,599,539,537,-1,599,537,528,-1,528,537,532,-1,528,532,526,-1,526,532,534,-1,524,526,530,-1,530,526,534,-1,527,525,535,-1,535,525,531,-1,600,601,602,-1,602,601,603,-1,602,603,604,-1,604,603,605,-1,606,607,600,-1,600,607,601,-1,608,609,610,-1,610,609,611,-1,610,611,606,-1,606,611,607,-1,612,609,613,-1,613,609,608,-1,614,612,615,-1,615,612,613,-1,614,615,616,-1,614,616,617,-1,617,616,618,-1,617,618,619,-1,619,618,620,-1,619,620,621,-1,621,620,622,-1,621,622,623,-1,623,622,624,-1,623,624,625,-1,625,624,626,-1,625,626,627,-1,628,627,629,-1,629,627,626,-1,628,629,630,-1,628,630,631,-1,631,630,632,-1,631,632,633,-1,633,632,634,-1,633,634,635,-1,635,634,636,-1,635,636,637,-1,637,636,638,-1,637,638,639,-1,639,638,640,-1,639,640,641,-1,642,641,643,-1,643,641,640,-1,644,642,645,-1,645,642,643,-1,646,644,647,-1,647,644,645,-1,646,647,648,-1,648,647,649,-1,648,649,650,-1,650,649,651,-1,650,651,652,-1,652,651,653,-1,652,653,654,-1,654,653,655,-1,654,655,656,-1,656,655,657,-1,656,657,658,-1,658,657,659,-1,660,658,661,-1,661,658,659,-1,660,661,662,-1,662,661,663,-1,662,663,664,-1,664,663,665,-1,664,665,666,-1,666,665,667,-1,666,667,668,-1,668,667,669,-1,668,669,670,-1,670,669,671,-1,670,671,672,-1,672,671,673,-1,674,672,675,-1,675,672,673,-1,605,674,604,-1,604,674,675,-1,603,611,605,-1,605,611,609,-1,605,609,674,-1,674,609,612,-1,674,612,672,-1,672,612,614,-1,672,614,670,-1,670,614,617,-1,670,617,668,-1,668,617,619,-1,668,619,666,-1,666,619,621,-1,666,621,664,-1,664,621,623,-1,664,623,662,-1,662,623,625,-1,662,625,660,-1,660,625,627,-1,660,627,658,-1,658,627,628,-1,658,628,656,-1,656,628,631,-1,656,631,654,-1,654,631,633,-1,654,633,652,-1,652,633,635,-1,652,635,650,-1,650,635,637,-1,650,637,648,-1,648,637,639,-1,648,639,646,-1,646,639,641,-1,646,641,644,-1,644,641,642,-1,645,643,647,-1,647,643,640,-1,647,640,649,-1,649,640,638,-1,649,638,651,-1,651,638,636,-1,651,636,653,-1,653,636,634,-1,653,634,655,-1,655,634,632,-1,655,632,657,-1,657,632,630,-1,657,630,659,-1,659,630,629,-1,659,629,661,-1,661,629,626,-1,661,626,663,-1,663,626,624,-1,663,624,665,-1,665,624,622,-1,665,622,667,-1,667,622,620,-1,667,620,669,-1,669,620,618,-1,669,618,671,-1,671,618,616,-1,671,616,673,-1,673,616,615,-1,673,615,675,-1,675,615,613,-1,675,613,604,-1,604,613,608,-1,604,608,602,-1,602,608,610,-1,600,602,606,-1,606,602,610,-1,603,601,611,-1,611,601,607,-1,151,150,155,-1,155,150,154,-1,155,154,676,-1,676,154,677,-1,145,144,151,-1,151,144,150,-1,678,679,147,-1,147,679,146,-1,147,146,145,-1,145,146,144,-1,678,680,679,-1,679,680,681,-1,680,682,681,-1,681,682,683,-1,684,685,686,-1,684,686,687,-1,687,686,688,-1,687,688,689,-1,689,688,690,-1,689,690,691,-1,691,690,692,-1,691,692,693,-1,693,692,694,-1,693,694,695,-1,695,694,683,-1,695,683,682,-1,684,696,685,-1,685,696,697,-1,698,699,700,-1,698,700,701,-1,701,700,702,-1,701,702,703,-1,703,702,704,-1,703,704,705,-1,705,704,706,-1,705,706,707,-1,707,706,708,-1,707,708,709,-1,709,708,697,-1,709,697,696,-1,698,710,699,-1,699,710,711,-1,710,712,711,-1,711,712,713,-1,712,714,713,-1,713,714,715,-1,716,717,718,-1,718,717,719,-1,718,719,720,-1,720,719,721,-1,720,721,722,-1,722,721,723,-1,722,723,724,-1,724,723,725,-1,724,725,726,-1,726,725,727,-1,726,727,714,-1,714,727,715,-1,716,728,717,-1,717,728,729,-1,730,731,732,-1,732,731,733,-1,732,733,734,-1,734,733,735,-1,734,735,736,-1,736,735,737,-1,736,737,738,-1,738,737,739,-1,738,739,740,-1,740,739,741,-1,740,741,728,-1,728,741,729,-1,730,742,731,-1,731,742,743,-1,742,676,743,-1,743,676,677,-1,712,710,714,-1,714,710,698,-1,714,698,726,-1,726,698,701,-1,726,701,724,-1,724,701,703,-1,724,703,722,-1,722,703,705,-1,722,705,720,-1,720,705,707,-1,720,707,718,-1,718,707,709,-1,718,709,716,-1,716,709,696,-1,716,696,728,-1,728,696,684,-1,728,684,740,-1,740,684,687,-1,740,687,738,-1,738,687,689,-1,738,689,736,-1,736,689,691,-1,736,691,734,-1,734,691,693,-1,734,693,732,-1,732,693,695,-1,732,695,730,-1,730,695,682,-1,730,682,742,-1,742,682,680,-1,742,680,676,-1,676,680,678,-1,676,678,155,-1,155,678,147,-1,154,146,677,-1,677,146,679,-1,677,679,743,-1,743,679,681,-1,743,681,731,-1,731,681,683,-1,731,683,733,-1,733,683,694,-1,733,694,735,-1,735,694,692,-1,735,692,737,-1,737,692,690,-1,737,690,739,-1,739,690,688,-1,739,688,741,-1,741,688,686,-1,741,686,729,-1,729,686,685,-1,729,685,717,-1,717,685,697,-1,717,697,719,-1,719,697,708,-1,719,708,721,-1,721,708,706,-1,721,706,723,-1,723,706,704,-1,723,704,725,-1,725,704,702,-1,725,702,727,-1,727,702,700,-1,727,700,715,-1,715,700,699,-1,715,699,713,-1,713,699,711,-1,154,150,146,-1,146,150,144,-1,151,155,145,-1,145,155,147,-1,227,226,231,-1,231,226,230,-1,231,230,744,-1,744,230,745,-1,221,220,227,-1,227,220,226,-1,746,747,223,-1,223,747,222,-1,223,222,221,-1,221,222,220,-1,746,748,747,-1,747,748,749,-1,748,750,749,-1,749,750,751,-1,752,753,754,-1,752,754,755,-1,755,754,756,-1,755,756,757,-1,757,756,758,-1,757,758,759,-1,759,758,760,-1,759,760,761,-1,761,760,762,-1,761,762,763,-1,763,762,751,-1,763,751,750,-1,752,764,753,-1,753,764,765,-1,766,767,768,-1,766,768,769,-1,769,768,770,-1,769,770,771,-1,771,770,772,-1,771,772,773,-1,773,772,774,-1,773,774,775,-1,775,774,776,-1,775,776,777,-1,777,776,765,-1,777,765,764,-1,766,778,767,-1,767,778,779,-1,778,780,779,-1,779,780,781,-1,780,782,781,-1,781,782,783,-1,784,785,786,-1,786,785,787,-1,786,787,788,-1,788,787,789,-1,788,789,790,-1,790,789,791,-1,790,791,792,-1,792,791,793,-1,792,793,794,-1,794,793,795,-1,794,795,782,-1,782,795,783,-1,784,796,785,-1,785,796,797,-1,798,799,800,-1,800,799,801,-1,800,801,802,-1,802,801,803,-1,802,803,804,-1,804,803,805,-1,804,805,806,-1,806,805,807,-1,806,807,808,-1,808,807,809,-1,808,809,796,-1,796,809,797,-1,798,810,799,-1,799,810,811,-1,810,744,811,-1,811,744,745,-1,780,778,782,-1,782,778,766,-1,782,766,794,-1,794,766,769,-1,794,769,792,-1,792,769,771,-1,792,771,790,-1,790,771,773,-1,790,773,788,-1,788,773,775,-1,788,775,786,-1,786,775,777,-1,786,777,784,-1,784,777,764,-1,784,764,796,-1,796,764,752,-1,796,752,808,-1,808,752,755,-1,808,755,806,-1,806,755,757,-1,806,757,804,-1,804,757,759,-1,804,759,802,-1,802,759,761,-1,802,761,800,-1,800,761,763,-1,800,763,798,-1,798,763,750,-1,798,750,810,-1,810,750,748,-1,810,748,744,-1,744,748,746,-1,744,746,231,-1,231,746,223,-1,230,222,745,-1,745,222,747,-1,745,747,811,-1,811,747,749,-1,811,749,799,-1,799,749,751,-1,799,751,801,-1,801,751,762,-1,801,762,803,-1,803,762,760,-1,803,760,805,-1,805,760,758,-1,805,758,807,-1,807,758,756,-1,807,756,809,-1,809,756,754,-1,809,754,797,-1,797,754,753,-1,797,753,785,-1,785,753,765,-1,785,765,787,-1,787,765,776,-1,787,776,789,-1,789,776,774,-1,789,774,791,-1,791,774,772,-1,791,772,793,-1,793,772,770,-1,793,770,795,-1,795,770,768,-1,795,768,783,-1,783,768,767,-1,783,767,781,-1,781,767,779,-1,230,226,222,-1,222,226,220,-1,227,231,221,-1,221,231,223,-1,303,302,307,-1,307,302,306,-1,307,306,812,-1,812,306,813,-1,297,296,303,-1,303,296,302,-1,814,815,299,-1,299,815,298,-1,299,298,297,-1,297,298,296,-1,814,816,815,-1,815,816,817,-1,816,818,817,-1,817,818,819,-1,820,821,822,-1,820,822,823,-1,823,822,824,-1,823,824,825,-1,825,824,826,-1,825,826,827,-1,827,826,828,-1,827,828,829,-1,829,828,830,-1,829,830,831,-1,831,830,819,-1,831,819,818,-1,820,832,821,-1,821,832,833,-1,834,835,836,-1,834,836,837,-1,837,836,838,-1,837,838,839,-1,839,838,840,-1,839,840,841,-1,841,840,842,-1,841,842,843,-1,843,842,844,-1,843,844,845,-1,845,844,833,-1,845,833,832,-1,834,846,835,-1,835,846,847,-1,846,848,847,-1,847,848,849,-1,848,850,849,-1,849,850,851,-1,852,853,854,-1,854,853,855,-1,854,855,856,-1,856,855,857,-1,856,857,858,-1,858,857,859,-1,858,859,860,-1,860,859,861,-1,860,861,862,-1,862,861,863,-1,862,863,850,-1,850,863,851,-1,852,864,853,-1,853,864,865,-1,866,867,868,-1,868,867,869,-1,868,869,870,-1,870,869,871,-1,870,871,872,-1,872,871,873,-1,872,873,874,-1,874,873,875,-1,874,875,876,-1,876,875,877,-1,876,877,864,-1,864,877,865,-1,866,878,867,-1,867,878,879,-1,878,812,879,-1,879,812,813,-1,848,846,850,-1,850,846,834,-1,850,834,862,-1,862,834,837,-1,862,837,860,-1,860,837,839,-1,860,839,858,-1,858,839,841,-1,858,841,856,-1,856,841,843,-1,856,843,854,-1,854,843,845,-1,854,845,852,-1,852,845,832,-1,852,832,864,-1,864,832,820,-1,864,820,876,-1,876,820,823,-1,876,823,874,-1,874,823,825,-1,874,825,872,-1,872,825,827,-1,872,827,870,-1,870,827,829,-1,870,829,868,-1,868,829,831,-1,868,831,866,-1,866,831,818,-1,866,818,878,-1,878,818,816,-1,878,816,812,-1,812,816,814,-1,812,814,307,-1,307,814,299,-1,306,298,813,-1,813,298,815,-1,813,815,879,-1,879,815,817,-1,879,817,867,-1,867,817,819,-1,867,819,869,-1,869,819,830,-1,869,830,871,-1,871,830,828,-1,871,828,873,-1,873,828,826,-1,873,826,875,-1,875,826,824,-1,875,824,877,-1,877,824,822,-1,877,822,865,-1,865,822,821,-1,865,821,853,-1,853,821,833,-1,853,833,855,-1,855,833,844,-1,855,844,857,-1,857,844,842,-1,857,842,859,-1,859,842,840,-1,859,840,861,-1,861,840,838,-1,861,838,863,-1,863,838,836,-1,863,836,851,-1,851,836,835,-1,851,835,849,-1,849,835,847,-1,306,302,298,-1,298,302,296,-1,303,307,297,-1,297,307,299,-1,379,378,383,-1,383,378,382,-1,383,382,880,-1,880,382,881,-1,373,372,379,-1,379,372,378,-1,882,883,375,-1,375,883,374,-1,375,374,373,-1,373,374,372,-1,882,884,883,-1,883,884,885,-1,884,886,885,-1,885,886,887,-1,888,889,890,-1,888,890,891,-1,891,890,892,-1,891,892,893,-1,893,892,894,-1,893,894,895,-1,895,894,896,-1,895,896,897,-1,897,896,898,-1,897,898,899,-1,899,898,887,-1,899,887,886,-1,888,900,889,-1,889,900,901,-1,902,903,904,-1,902,904,905,-1,905,904,906,-1,905,906,907,-1,907,906,908,-1,907,908,909,-1,909,908,910,-1,909,910,911,-1,911,910,912,-1,911,912,913,-1,913,912,901,-1,913,901,900,-1,902,914,903,-1,903,914,915,-1,914,916,915,-1,915,916,917,-1,916,918,917,-1,917,918,919,-1,920,921,922,-1,922,921,923,-1,922,923,924,-1,924,923,925,-1,924,925,926,-1,926,925,927,-1,926,927,928,-1,928,927,929,-1,928,929,930,-1,930,929,931,-1,930,931,918,-1,918,931,919,-1,920,932,921,-1,921,932,933,-1,934,935,936,-1,936,935,937,-1,936,937,938,-1,938,937,939,-1,938,939,940,-1,940,939,941,-1,940,941,942,-1,942,941,943,-1,942,943,944,-1,944,943,945,-1,944,945,932,-1,932,945,933,-1,934,946,935,-1,935,946,947,-1,946,880,947,-1,947,880,881,-1,916,914,918,-1,918,914,902,-1,918,902,930,-1,930,902,905,-1,930,905,928,-1,928,905,907,-1,928,907,926,-1,926,907,909,-1,926,909,924,-1,924,909,911,-1,924,911,922,-1,922,911,913,-1,922,913,920,-1,920,913,900,-1,920,900,932,-1,932,900,888,-1,932,888,944,-1,944,888,891,-1,944,891,942,-1,942,891,893,-1,942,893,940,-1,940,893,895,-1,940,895,938,-1,938,895,897,-1,938,897,936,-1,936,897,899,-1,936,899,934,-1,934,899,886,-1,934,886,946,-1,946,886,884,-1,946,884,880,-1,880,884,882,-1,880,882,383,-1,383,882,375,-1,382,374,881,-1,881,374,883,-1,881,883,947,-1,947,883,885,-1,947,885,935,-1,935,885,887,-1,935,887,937,-1,937,887,898,-1,937,898,939,-1,939,898,896,-1,939,896,941,-1,941,896,894,-1,941,894,943,-1,943,894,892,-1,943,892,945,-1,945,892,890,-1,945,890,933,-1,933,890,889,-1,933,889,921,-1,921,889,901,-1,921,901,923,-1,923,901,912,-1,923,912,925,-1,925,912,910,-1,925,910,927,-1,927,910,908,-1,927,908,929,-1,929,908,906,-1,929,906,931,-1,931,906,904,-1,931,904,919,-1,919,904,903,-1,919,903,917,-1,917,903,915,-1,382,378,374,-1,374,378,372,-1,379,383,373,-1,373,383,375,-1,455,454,459,-1,459,454,458,-1,459,458,948,-1,948,458,949,-1,449,448,455,-1,455,448,454,-1,950,951,451,-1,451,951,450,-1,451,450,449,-1,449,450,448,-1,950,952,951,-1,951,952,953,-1,952,954,953,-1,953,954,955,-1,956,957,958,-1,956,958,959,-1,959,958,960,-1,959,960,961,-1,961,960,962,-1,961,962,963,-1,963,962,964,-1,963,964,965,-1,965,964,966,-1,965,966,967,-1,967,966,955,-1,967,955,954,-1,956,968,957,-1,957,968,969,-1,970,971,972,-1,970,972,973,-1,973,972,974,-1,973,974,975,-1,975,974,976,-1,975,976,977,-1,977,976,978,-1,977,978,979,-1,979,978,980,-1,979,980,981,-1,981,980,969,-1,981,969,968,-1,970,982,971,-1,971,982,983,-1,982,984,983,-1,983,984,985,-1,984,986,985,-1,985,986,987,-1,988,989,990,-1,990,989,991,-1,990,991,992,-1,992,991,993,-1,992,993,994,-1,994,993,995,-1,994,995,996,-1,996,995,997,-1,996,997,998,-1,998,997,999,-1,998,999,986,-1,986,999,987,-1,988,1000,989,-1,989,1000,1001,-1,1002,1003,1004,-1,1004,1003,1005,-1,1004,1005,1006,-1,1006,1005,1007,-1,1006,1007,1008,-1,1008,1007,1009,-1,1008,1009,1010,-1,1010,1009,1011,-1,1010,1011,1012,-1,1012,1011,1013,-1,1012,1013,1000,-1,1000,1013,1001,-1,1002,1014,1003,-1,1003,1014,1015,-1,1014,948,1015,-1,1015,948,949,-1,984,982,986,-1,986,982,970,-1,986,970,998,-1,998,970,973,-1,998,973,996,-1,996,973,975,-1,996,975,994,-1,994,975,977,-1,994,977,992,-1,992,977,979,-1,992,979,990,-1,990,979,981,-1,990,981,988,-1,988,981,968,-1,988,968,1000,-1,1000,968,956,-1,1000,956,1012,-1,1012,956,959,-1,1012,959,1010,-1,1010,959,961,-1,1010,961,1008,-1,1008,961,963,-1,1008,963,1006,-1,1006,963,965,-1,1006,965,1004,-1,1004,965,967,-1,1004,967,1002,-1,1002,967,954,-1,1002,954,1014,-1,1014,954,952,-1,1014,952,948,-1,948,952,950,-1,948,950,459,-1,459,950,451,-1,458,450,949,-1,949,450,951,-1,949,951,1015,-1,1015,951,953,-1,1015,953,1003,-1,1003,953,955,-1,1003,955,1005,-1,1005,955,966,-1,1005,966,1007,-1,1007,966,964,-1,1007,964,1009,-1,1009,964,962,-1,1009,962,1011,-1,1011,962,960,-1,1011,960,1013,-1,1013,960,958,-1,1013,958,1001,-1,1001,958,957,-1,1001,957,989,-1,989,957,969,-1,989,969,991,-1,991,969,980,-1,991,980,993,-1,993,980,978,-1,993,978,995,-1,995,978,976,-1,995,976,997,-1,997,976,974,-1,997,974,999,-1,999,974,972,-1,999,972,987,-1,987,972,971,-1,987,971,985,-1,985,971,983,-1,458,454,450,-1,450,454,448,-1,455,459,449,-1,449,459,451,-1,531,530,535,-1,535,530,534,-1,535,534,1016,-1,1016,534,1017,-1,525,524,531,-1,531,524,530,-1,1018,1019,527,-1,527,1019,526,-1,527,526,525,-1,525,526,524,-1,1018,1020,1019,-1,1019,1020,1021,-1,1020,1022,1021,-1,1021,1022,1023,-1,1024,1025,1026,-1,1024,1026,1027,-1,1027,1026,1028,-1,1027,1028,1029,-1,1029,1028,1030,-1,1029,1030,1031,-1,1031,1030,1032,-1,1031,1032,1033,-1,1033,1032,1034,-1,1033,1034,1035,-1,1035,1034,1023,-1,1035,1023,1022,-1,1024,1036,1025,-1,1025,1036,1037,-1,1038,1039,1040,-1,1038,1040,1041,-1,1041,1040,1042,-1,1041,1042,1043,-1,1043,1042,1044,-1,1043,1044,1045,-1,1045,1044,1046,-1,1045,1046,1047,-1,1047,1046,1048,-1,1047,1048,1049,-1,1049,1048,1037,-1,1049,1037,1036,-1,1038,1050,1039,-1,1039,1050,1051,-1,1050,1052,1051,-1,1051,1052,1053,-1,1052,1054,1053,-1,1053,1054,1055,-1,1056,1057,1058,-1,1058,1057,1059,-1,1058,1059,1060,-1,1060,1059,1061,-1,1060,1061,1062,-1,1062,1061,1063,-1,1062,1063,1064,-1,1064,1063,1065,-1,1064,1065,1066,-1,1066,1065,1067,-1,1066,1067,1054,-1,1054,1067,1055,-1,1056,1068,1057,-1,1057,1068,1069,-1,1070,1071,1072,-1,1072,1071,1073,-1,1072,1073,1074,-1,1074,1073,1075,-1,1074,1075,1076,-1,1076,1075,1077,-1,1076,1077,1078,-1,1078,1077,1079,-1,1078,1079,1080,-1,1080,1079,1081,-1,1080,1081,1068,-1,1068,1081,1069,-1,1070,1082,1071,-1,1071,1082,1083,-1,1082,1016,1083,-1,1083,1016,1017,-1,1052,1050,1054,-1,1054,1050,1038,-1,1054,1038,1066,-1,1066,1038,1041,-1,1066,1041,1064,-1,1064,1041,1043,-1,1064,1043,1062,-1,1062,1043,1045,-1,1062,1045,1060,-1,1060,1045,1047,-1,1060,1047,1058,-1,1058,1047,1049,-1,1058,1049,1056,-1,1056,1049,1036,-1,1056,1036,1068,-1,1068,1036,1024,-1,1068,1024,1080,-1,1080,1024,1027,-1,1080,1027,1078,-1,1078,1027,1029,-1,1078,1029,1076,-1,1076,1029,1031,-1,1076,1031,1074,-1,1074,1031,1033,-1,1074,1033,1072,-1,1072,1033,1035,-1,1072,1035,1070,-1,1070,1035,1022,-1,1070,1022,1082,-1,1082,1022,1020,-1,1082,1020,1016,-1,1016,1020,1018,-1,1016,1018,535,-1,535,1018,527,-1,534,526,1017,-1,1017,526,1019,-1,1017,1019,1083,-1,1083,1019,1021,-1,1083,1021,1071,-1,1071,1021,1023,-1,1071,1023,1073,-1,1073,1023,1034,-1,1073,1034,1075,-1,1075,1034,1032,-1,1075,1032,1077,-1,1077,1032,1030,-1,1077,1030,1079,-1,1079,1030,1028,-1,1079,1028,1081,-1,1081,1028,1026,-1,1081,1026,1069,-1,1069,1026,1025,-1,1069,1025,1057,-1,1057,1025,1037,-1,1057,1037,1059,-1,1059,1037,1048,-1,1059,1048,1061,-1,1061,1048,1046,-1,1061,1046,1063,-1,1063,1046,1044,-1,1063,1044,1065,-1,1065,1044,1042,-1,1065,1042,1067,-1,1067,1042,1040,-1,1067,1040,1055,-1,1055,1040,1039,-1,1055,1039,1053,-1,1053,1039,1051,-1,534,530,526,-1,526,530,524,-1,531,535,525,-1,525,535,527,-1,607,606,611,-1,611,606,610,-1,611,610,1084,-1,1084,610,1085,-1,601,600,607,-1,607,600,606,-1,1086,1087,603,-1,603,1087,602,-1,603,602,601,-1,601,602,600,-1,1086,1088,1087,-1,1087,1088,1089,-1,1088,1090,1089,-1,1089,1090,1091,-1,1092,1093,1094,-1,1092,1094,1095,-1,1095,1094,1096,-1,1095,1096,1097,-1,1097,1096,1098,-1,1097,1098,1099,-1,1099,1098,1100,-1,1099,1100,1101,-1,1101,1100,1102,-1,1101,1102,1103,-1,1103,1102,1091,-1,1103,1091,1090,-1,1092,1104,1093,-1,1093,1104,1105,-1,1106,1107,1108,-1,1106,1108,1109,-1,1109,1108,1110,-1,1109,1110,1111,-1,1111,1110,1112,-1,1111,1112,1113,-1,1113,1112,1114,-1,1113,1114,1115,-1,1115,1114,1116,-1,1115,1116,1117,-1,1117,1116,1105,-1,1117,1105,1104,-1,1106,1118,1107,-1,1107,1118,1119,-1,1118,1120,1119,-1,1119,1120,1121,-1,1120,1122,1121,-1,1121,1122,1123,-1,1124,1125,1126,-1,1126,1125,1127,-1,1126,1127,1128,-1,1128,1127,1129,-1,1128,1129,1130,-1,1130,1129,1131,-1,1130,1131,1132,-1,1132,1131,1133,-1,1132,1133,1134,-1,1134,1133,1135,-1,1134,1135,1122,-1,1122,1135,1123,-1,1124,1136,1125,-1,1125,1136,1137,-1,1138,1139,1140,-1,1140,1139,1141,-1,1140,1141,1142,-1,1142,1141,1143,-1,1142,1143,1144,-1,1144,1143,1145,-1,1144,1145,1146,-1,1146,1145,1147,-1,1146,1147,1148,-1,1148,1147,1149,-1,1148,1149,1136,-1,1136,1149,1137,-1,1138,1150,1139,-1,1139,1150,1151,-1,1150,1084,1151,-1,1151,1084,1085,-1,1120,1118,1122,-1,1122,1118,1106,-1,1122,1106,1134,-1,1134,1106,1109,-1,1134,1109,1132,-1,1132,1109,1111,-1,1132,1111,1130,-1,1130,1111,1113,-1,1130,1113,1128,-1,1128,1113,1115,-1,1128,1115,1126,-1,1126,1115,1117,-1,1126,1117,1124,-1,1124,1117,1104,-1,1124,1104,1136,-1,1136,1104,1092,-1,1136,1092,1148,-1,1148,1092,1095,-1,1148,1095,1146,-1,1146,1095,1097,-1,1146,1097,1144,-1,1144,1097,1099,-1,1144,1099,1142,-1,1142,1099,1101,-1,1142,1101,1140,-1,1140,1101,1103,-1,1140,1103,1138,-1,1138,1103,1090,-1,1138,1090,1150,-1,1150,1090,1088,-1,1150,1088,1084,-1,1084,1088,1086,-1,1084,1086,611,-1,611,1086,603,-1,610,602,1085,-1,1085,602,1087,-1,1085,1087,1151,-1,1151,1087,1089,-1,1151,1089,1139,-1,1139,1089,1091,-1,1139,1091,1141,-1,1141,1091,1102,-1,1141,1102,1143,-1,1143,1102,1100,-1,1143,1100,1145,-1,1145,1100,1098,-1,1145,1098,1147,-1,1147,1098,1096,-1,1147,1096,1149,-1,1149,1096,1094,-1,1149,1094,1137,-1,1137,1094,1093,-1,1137,1093,1125,-1,1125,1093,1105,-1,1125,1105,1127,-1,1127,1105,1116,-1,1127,1116,1129,-1,1129,1116,1114,-1,1129,1114,1131,-1,1131,1114,1112,-1,1131,1112,1133,-1,1133,1112,1110,-1,1133,1110,1135,-1,1135,1110,1108,-1,1135,1108,1123,-1,1123,1108,1107,-1,1123,1107,1121,-1,1121,1107,1119,-1,610,606,602,-1,602,606,600,-1,607,611,601,-1,601,611,603,-1,
        ]
    }
}
Shape{
    appearance Appearance {
        material  Material 	{
            diffuseColor 0.25098039215686274 0.25098039215686274 0.25098039215686274
            specularColor 0.12549019607843137 0.12549019607843137 0.12549019607843137
            ambientIntensity 0.251
            transparency 0.0
            shininess 0.5
        }
    }
    geometry IndexedFaceSet {
        ccw TRUE
        solid FALSE
        coord DEF co Coordinate {
            point [
                -3.0906 -0.4724 0.0, -3.1496 -0.4724 0.0, -3.1496 -0.4529 0.0, -0.1932 -0.2841 0.0, -0.5052 -0.2841 0.0, -0.5052 -0.2756 0.0, -0.6693 -0.2756 0.0, -0.7874 -0.2841 0.0, -0.6693 0.2756 0.0, -0.7874 0.4724 0.0, -0.5052 0.2756 0.0, -0.5052 0.4724 0.0, -0.1932 0.2756 0.0, -0.1932 0.4724 0.0, -0.1181 0.2756 0.0, -0.0453 0.4724 0.0, -0.1181 -0.2756 0.0, 0.7874 -0.2841 0.0, 0.2092 -0.2841 0.0, 0.6693 -0.2756 0.0, 0.2092 -0.2756 0.0, 0.7874 0.4724 0.0, 0.6693 0.2756 0.0, 0.2092 0.4724 0.0, 0.2092 0.2756 0.0, 0.1017 0.4724 0.0, 0.1181 -0.2756 0.0, 0.1017 -0.2841 0.0, 0.1181 0.2756 0.0, 0.0853 -0.2988 0.0, 0.07 -0.2841 0.0, 0.1017 -0.2943 0.0, 0.1035 -0.2938 0.0, 0.0853 -0.4265 0.0, 0.0853 -0.3199 0.0, 0.0881 -0.428 0.0, 0.1017 -0.3129 0.0, 0.1017 -0.4331 0.0, 0.1048 -0.4342 0.0, 0.1806 -0.3626 0.0, 0.1377 -0.3115 0.0, 0.1495 -0.3158 0.0, 0.1031 -0.3123 0.0, 0.1222 -0.3098 0.0, 0.1813 -0.3749 0.0, 0.1798 -0.3919 0.0, 0.1755 -0.4055 0.0, 0.169 -0.4164 0.0, 0.1616 -0.4242 0.0, 0.1519 -0.4307 0.0, 0.1604 -0.3231 0.0, 0.1699 -0.3336 0.0, 0.1764 -0.3457 0.0, 0.1404 -0.4349 0.0, 0.1257 -0.4366 0.0, 0.176 -0.4385 0.0, 0.1878 -0.426 0.0, 0.2092 -0.4529 0.0, 0.1962 -0.4111 0.0, 0.1942 -0.3359 0.0, 0.1849 -0.3212 0.0, 0.1707 -0.3075 0.0, 0.1379 -0.4529 0.0, 0.1481 -0.4518 0.0, 0.1633 -0.4466 0.0, 0.2009 -0.3944 0.0, 0.2025 -0.3762 0.0, 0.2002 -0.3538 0.0, 0.1558 -0.2989 0.0, 0.1382 -0.2938 0.0, 0.1224 -0.2925 0.0, 0.118 -0.4529 0.0, 0.1243 -0.4538 0.0, 0.1017 -0.4724 0.0, 0.2092 -0.4724 0.0, 0.1287 -0.4538 0.0, 0.07 -0.4529 0.0, 0.0853 -0.4438 0.0, 0.1017 -0.4529 0.0, 0.1017 -0.4505 0.0, 0.1021 -0.4507 0.0, 0.7874 -0.4724 0.0, 0.7874 -0.4529 0.0, 1.5748 -0.4724 0.0, 1.5748 -0.4529 0.0, 2.3622 -0.4724 0.0, 2.3622 -0.4529 0.0, -2.3622 -0.4724 0.0, -2.3622 -0.4529 0.0, -1.5748 -0.4724 0.0, -1.5748 -0.4529 0.0, -0.7874 -0.4724 0.0, -0.7874 -0.4529 0.0, -0.5052 -0.4724 0.0, -0.5052 -0.4529 0.0, -0.1932 -0.4724 0.0, -0.1932 -0.4529 0.0, -0.0453 -0.4724 0.0, -0.0453 -0.4529 0.0, 0.07 -0.4724 0.0, 1.5748 -0.2841 0.0, 2.3622 -0.2841 0.0, 0.2159 -0.4346 0.0, 0.2159 -0.4519 0.0, 0.2966 -0.4519 0.0, 0.2754 -0.4346 0.0, 0.2754 -0.2944 0.0, 0.2966 -0.2944 0.0, -0.0261 -0.2944 0.0, -0.0453 -0.2841 0.0, 0.0546 -0.2944 0.0, 0.0546 -0.4519 0.0, -0.0299 -0.4519 0.0, -0.0299 -0.4346 0.0, -0.0261 -0.3117 0.0, 0.0335 -0.3809 0.0, 0.0335 -0.4346 0.0, -0.0222 -0.3809 0.0, -0.0222 -0.3636 0.0, 0.0335 -0.3636 0.0, 0.0335 -0.3117 0.0, -0.1795 -0.4088 0.0, -0.1852 -0.3923 0.0, -0.1874 -0.3712 0.0, -0.1705 -0.4228 0.0, -0.1575 -0.4353 0.0, -0.1411 -0.4448 0.0, -0.1278 -0.2969 0.0, -0.1051 -0.2944 0.0, -0.1463 -0.3033 0.0, -0.1634 -0.3148 0.0, -0.1636 -0.315 0.0, -0.1747 -0.3273 0.0, -0.182 -0.3409 0.0, -0.1862 -0.3564 0.0, -0.1229 -0.4502 0.0, -0.1035 -0.4519 0.0, -0.0606 -0.4519 0.0, -0.0606 -0.2944 0.0, -0.318 -0.4519 0.0, -0.302 -0.4077 0.0, -0.237 -0.4077 0.0, -0.222 -0.4519 0.0, -0.1989 -0.4519 0.0, -0.341 -0.4519 0.0, -0.2796 -0.2944 0.0, -2.3622 -0.2841 0.0, -1.5748 -0.2841 0.0, -0.2584 -0.2944 0.0, 2.4803 -0.2756 0.0, 3.0315 -0.2756 0.0, 2.4803 0.2756 0.0, 2.3622 0.4724 0.0, 3.0315 0.2756 0.0, 3.1496 0.4724 0.0, 3.1496 -0.2841 0.0, 3.1496 -0.4529 0.0, 3.1496 -0.4724 0.0, 2.2441 0.2756 0.0, 2.2441 -0.2756 0.0, 1.6929 -0.2756 0.0, 1.6929 0.2756 0.0, 1.5748 0.4724 0.0, 1.4567 0.2756 0.0, 1.4567 -0.2756 0.0, 0.9055 -0.2756 0.0, 0.9055 0.2756 0.0, -0.1932 -0.2756 0.0, 0.07 0.4724 0.0, -0.9055 0.2756 0.0, -0.9055 -0.2756 0.0, -1.4567 -0.2756 0.0, -1.4567 0.2756 0.0, -1.5748 0.4724 0.0, -1.6929 0.2756 0.0, -1.6929 -0.2756 0.0, -2.2441 -0.2756 0.0, -2.2441 0.2756 0.0, -2.3622 0.4724 0.0, -3.0906 -0.2841 0.0, -3.0315 -0.2756 0.0, -2.4803 -0.2756 0.0, -3.0315 0.2756 0.0, -3.0906 0.4724 0.0, -2.4803 0.2756 0.0, -3.0906 -0.4529 0.0, -3.1496 -0.2841 0.0, -3.1496 0.4724 0.0, 3.1496 0.4724 1.6929, 3.1496 -0.374 1.6929, 3.1496 -0.4724 1.6929, 2.3622 0.4724 1.6929, 1.5748 0.4724 1.6929, 0.7874 0.4724 1.6929, 0.0 0.4724 1.6929, -0.7874 0.4724 1.6929, -3.1496 0.4724 1.6929, -3.0906 0.4724 1.6929, -2.3622 0.4724 1.6929, -1.5748 0.4724 1.6929, -3.1496 -0.374 1.6929, -3.1496 -0.4724 1.6929, -3.0906 -0.4724 1.6929, -2.3622 -0.4724 1.6929, -1.5748 -0.4724 1.6929, -0.7874 -0.4724 1.6929, 0.0 -0.4724 1.6929, 2.3622 -0.4724 1.6929, 1.5748 -0.4724 1.6929, 0.7874 -0.4724 1.6929, 2.3622 -0.374 1.6929, 2.4803 0.2756 1.6929, 2.4803 -0.2756 1.6929, 3.0315 -0.2756 1.6929, 3.0315 0.2756 1.6929, 1.6929 0.2756 1.6929, 1.6929 -0.2756 1.6929, 1.5748 -0.374 1.6929, 2.2441 -0.2756 1.6929, 2.2441 0.2756 1.6929, 0.9055 0.2756 1.6929, 0.9055 -0.2756 1.6929, 0.7874 -0.374 1.6929, 1.4567 -0.2756 1.6929, 1.4567 0.2756 1.6929, 0.1181 0.2756 1.6929, 0.1181 -0.2756 1.6929, 0.0 -0.374 1.6929, 0.6693 -0.2756 1.6929, 0.6693 0.2756 1.6929, -0.6693 0.2756 1.6929, -0.6693 -0.2756 1.6929, -0.7874 -0.374 1.6929, -0.1181 -0.2756 1.6929, -0.1181 0.2756 1.6929, -1.4567 0.2756 1.6929, -1.4567 -0.2756 1.6929, -1.5748 -0.374 1.6929, -0.9055 -0.2756 1.6929, -0.9055 0.2756 1.6929, -2.2441 0.2756 1.6929, -2.2441 -0.2756 1.6929, -2.3622 -0.374 1.6929, -1.6929 -0.2756 1.6929, -1.6929 0.2756 1.6929, -3.0906 -0.374 1.6929, -3.0315 -0.2756 1.6929, -3.0315 0.2756 1.6929, -2.4803 -0.2756 1.6929, -2.4803 0.2756 1.6929, 0.315 0.0787 1.4961, 0.4724 0.0787 1.4961, 0.315 -0.0787 1.4961, 0.4724 -0.0787 1.4961, 0.6693 0.2756 1.4961, 0.6693 -0.2756 1.4961, 0.1181 -0.2756 1.4961, 0.1181 0.2756 1.4961, 1.1024 0.0787 1.4961, 1.2598 0.0787 1.4961, 1.1024 -0.0787 1.4961, 1.2598 -0.0787 1.4961, 1.8898 0.0787 1.4961, 2.0472 0.0787 1.4961, 1.8898 -0.0787 1.4961, 2.0472 -0.0787 1.4961, 2.6772 0.0787 1.4961, 2.8346 0.0787 1.4961, 2.6772 -0.0787 1.4961, 2.8346 -0.0787 1.4961, -0.4724 0.0787 1.4961, -0.315 0.0787 1.4961, -0.4724 -0.0787 1.4961, -0.315 -0.0787 1.4961, -1.2598 0.0787 1.4961, -1.1024 0.0787 1.4961, -1.2598 -0.0787 1.4961, -1.1024 -0.0787 1.4961, -2.0472 0.0787 1.4961, -1.8898 0.0787 1.4961, -2.0472 -0.0787 1.4961, -1.8898 -0.0787 1.4961, -2.8346 0.0787 1.4961, -2.6772 0.0787 1.4961, -2.8346 -0.0787 1.4961, -2.6772 -0.0787 1.4961, 1.4567 0.2756 1.4961, 1.4567 -0.2756 1.4961, 0.9055 -0.2756 1.4961, 0.9055 0.2756 1.4961, 1.6929 0.2756 1.4961, 2.2441 0.2756 1.4961, 2.2441 -0.2756 1.4961, 1.6929 -0.2756 1.4961, 2.4803 0.2756 1.4961, 3.0315 0.2756 1.4961, 3.0315 -0.2756 1.4961, 2.4803 -0.2756 1.4961, -0.1181 0.2756 1.4961, -0.1181 -0.2756 1.4961, -0.6693 -0.2756 1.4961, -0.6693 0.2756 1.4961, -0.9055 0.2756 1.4961, -0.9055 -0.2756 1.4961, -1.4567 -0.2756 1.4961, -1.4567 0.2756 1.4961, -2.2441 0.2756 1.4961, -1.6929 0.2756 1.4961, -1.6929 -0.2756 1.4961, -2.2441 -0.2756 1.4961, -3.0315 0.2756 1.4961, -2.4803 0.2756 1.4961, -2.4803 -0.2756 1.4961, -3.0315 -0.2756 1.4961
            ]
        }
        coordIndex [
            0,1,2,-1,3,4,5,-1,5,4,6,-1,6,4,7,-1,6,7,8,-1,8,7,9,-1,8,9,10,-1,10,9,11,-1,10,11,12,-1,12,11,13,-1,12,13,14,-1,14,13,15,-1,14,15,16,-1,17,18,19,-1,19,18,20,-1,17,19,21,-1,21,19,22,-1,21,22,23,-1,23,22,24,-1,23,24,25,-1,20,18,26,-1,26,18,27,-1,26,27,28,-1,29,30,31,-1,31,30,27,-1,31,27,32,-1,33,34,35,-1,35,34,36,-1,35,36,37,-1,37,36,38,-1,39,40,41,-1,36,42,39,-1,39,42,43,-1,39,43,40,-1,39,44,36,-1,36,44,45,-1,36,45,46,-1,46,47,36,-1,36,47,48,-1,36,48,49,-1,41,50,39,-1,39,50,51,-1,39,51,52,-1,49,53,36,-1,36,53,54,-1,36,54,38,-1,55,56,57,-1,57,56,58,-1,59,60,18,-1,18,60,61,-1,62,63,57,-1,57,63,64,-1,57,64,55,-1,58,65,57,-1,57,65,66,-1,57,66,18,-1,18,66,67,-1,18,67,59,-1,61,68,18,-1,18,68,69,-1,18,69,27,-1,27,69,70,-1,27,70,32,-1,71,72,73,-1,57,74,62,-1,62,74,73,-1,62,73,75,-1,75,73,72,-1,29,34,30,-1,30,34,33,-1,30,33,76,-1,76,33,77,-1,76,77,78,-1,78,77,79,-1,78,79,80,-1,81,82,83,-1,83,82,84,-1,83,84,85,-1,85,84,86,-1,87,88,89,-1,89,88,90,-1,89,90,91,-1,91,90,92,-1,91,92,93,-1,93,92,94,-1,93,94,95,-1,95,94,96,-1,95,96,97,-1,97,96,98,-1,97,98,99,-1,99,98,76,-1,99,76,73,-1,73,76,78,-1,73,78,71,-1,71,78,80,-1,82,17,84,-1,84,17,100,-1,84,100,86,-1,86,100,101,-1,18,102,57,-1,57,102,103,-1,57,103,104,-1,105,102,106,-1,106,102,18,-1,106,18,107,-1,107,18,17,-1,107,17,104,-1,104,17,82,-1,104,82,57,-1,57,82,81,-1,57,81,74,-1,108,109,110,-1,110,109,30,-1,110,30,111,-1,111,30,76,-1,111,76,112,-1,112,76,98,-1,112,98,113,-1,113,98,109,-1,113,109,114,-1,114,109,108,-1,115,116,117,-1,117,116,113,-1,117,113,118,-1,118,113,114,-1,118,114,119,-1,119,114,120,-1,121,96,122,-1,122,96,123,-1,121,124,96,-1,96,124,125,-1,96,125,126,-1,127,3,128,-1,128,3,109,-1,127,129,3,-1,3,129,130,-1,3,130,131,-1,131,132,3,-1,3,132,133,-1,3,133,134,-1,126,135,96,-1,96,135,136,-1,96,136,98,-1,98,136,137,-1,98,137,109,-1,109,137,138,-1,109,138,128,-1,139,140,141,-1,142,143,96,-1,96,143,3,-1,96,3,123,-1,123,3,134,-1,141,142,139,-1,139,142,96,-1,139,96,144,-1,144,96,94,-1,144,94,145,-1,88,146,90,-1,90,146,147,-1,90,147,92,-1,92,147,7,-1,92,7,94,-1,94,7,4,-1,94,4,145,-1,145,4,3,-1,145,3,148,-1,148,3,143,-1,101,149,150,-1,149,101,151,-1,151,101,152,-1,151,152,153,-1,153,152,154,-1,153,154,150,-1,150,154,155,-1,150,155,101,-1,101,155,156,-1,101,156,86,-1,86,156,157,-1,86,157,85,-1,158,152,159,-1,159,152,101,-1,159,101,160,-1,160,101,100,-1,160,100,161,-1,161,100,162,-1,161,162,158,-1,158,162,152,-1,163,162,164,-1,164,162,100,-1,164,100,165,-1,165,100,17,-1,165,17,166,-1,166,17,21,-1,166,21,163,-1,163,21,162,-1,5,167,3,-1,3,167,16,-1,3,16,109,-1,109,16,15,-1,109,15,30,-1,30,15,168,-1,30,168,27,-1,27,168,25,-1,27,25,28,-1,28,25,24,-1,169,9,170,-1,170,9,7,-1,170,7,171,-1,171,7,147,-1,171,147,172,-1,172,147,173,-1,172,173,169,-1,169,173,9,-1,174,173,175,-1,175,173,147,-1,175,147,176,-1,176,147,146,-1,176,146,177,-1,177,146,178,-1,177,178,174,-1,174,178,173,-1,179,180,181,-1,180,179,182,-1,182,179,183,-1,182,183,184,-1,184,183,178,-1,184,178,181,-1,181,178,146,-1,181,146,179,-1,179,146,88,-1,179,88,185,-1,185,88,87,-1,185,87,0,-1,0,2,185,-1,185,2,186,-1,185,186,179,-1,179,186,187,-1,179,187,183,-1,154,188,155,-1,155,188,189,-1,155,189,156,-1,156,189,190,-1,156,190,157,-1,188,154,191,-1,191,154,152,-1,191,152,192,-1,192,152,162,-1,192,162,193,-1,193,162,21,-1,193,21,194,-1,21,23,194,-1,194,23,25,-1,194,25,168,-1,168,15,194,-1,194,15,13,-1,194,13,195,-1,187,196,183,-1,183,196,197,-1,183,197,178,-1,178,197,198,-1,178,198,173,-1,173,198,199,-1,173,199,9,-1,9,199,195,-1,9,195,11,-1,11,195,13,-1,200,196,187,-1,1,201,2,-1,2,201,200,-1,2,200,186,-1,186,200,187,-1,201,1,202,-1,202,1,0,-1,202,0,203,-1,203,0,87,-1,203,87,204,-1,204,87,89,-1,204,89,205,-1,89,91,205,-1,205,91,93,-1,205,93,206,-1,93,95,206,-1,206,95,97,-1,206,97,99,-1,157,190,85,-1,85,190,207,-1,85,207,83,-1,83,207,208,-1,83,208,81,-1,81,208,209,-1,81,209,74,-1,74,209,206,-1,74,206,73,-1,73,206,99,-1,190,189,210,-1,211,191,212,-1,212,191,210,-1,212,210,213,-1,213,210,189,-1,213,189,214,-1,214,189,188,-1,214,188,211,-1,211,188,191,-1,215,192,216,-1,216,192,217,-1,216,217,218,-1,218,217,210,-1,218,210,219,-1,219,210,191,-1,219,191,215,-1,215,191,192,-1,220,193,221,-1,221,193,222,-1,221,222,223,-1,223,222,217,-1,223,217,224,-1,224,217,192,-1,224,192,220,-1,220,192,193,-1,225,194,226,-1,226,194,227,-1,226,227,228,-1,228,227,222,-1,228,222,229,-1,229,222,193,-1,229,193,225,-1,225,193,194,-1,230,195,231,-1,231,195,232,-1,231,232,233,-1,233,232,227,-1,233,227,234,-1,234,227,194,-1,234,194,230,-1,230,194,195,-1,235,199,236,-1,236,199,237,-1,236,237,238,-1,238,237,232,-1,238,232,239,-1,239,232,195,-1,239,195,235,-1,235,195,199,-1,240,198,241,-1,241,198,242,-1,241,242,243,-1,243,242,237,-1,243,237,244,-1,244,237,199,-1,244,199,240,-1,240,199,198,-1,245,246,247,-1,246,245,248,-1,248,245,242,-1,248,242,249,-1,249,242,198,-1,249,198,247,-1,247,198,197,-1,247,197,245,-1,245,197,196,-1,245,196,200,-1,190,210,207,-1,207,210,217,-1,207,217,208,-1,208,217,222,-1,208,222,209,-1,209,222,227,-1,209,227,206,-1,206,227,232,-1,206,232,205,-1,205,232,237,-1,205,237,204,-1,204,237,242,-1,204,242,203,-1,203,242,245,-1,203,245,202,-1,202,245,200,-1,202,200,201,-1,225,250,229,-1,229,250,251,-1,226,252,225,-1,225,252,250,-1,253,228,251,-1,251,228,229,-1,228,253,226,-1,226,253,252,-1,251,254,253,-1,253,254,255,-1,253,255,252,-1,252,255,256,-1,252,256,250,-1,250,256,257,-1,250,257,251,-1,251,257,254,-1,22,254,24,-1,24,254,257,-1,24,257,28,-1,257,256,28,-1,28,256,26,-1,26,256,20,-1,20,256,255,-1,20,255,19,-1,255,254,19,-1,19,254,22,-1,220,258,224,-1,224,258,259,-1,221,260,220,-1,220,260,258,-1,261,223,259,-1,259,223,224,-1,223,261,221,-1,221,261,260,-1,215,262,219,-1,219,262,263,-1,216,264,215,-1,215,264,262,-1,265,218,263,-1,263,218,219,-1,218,265,216,-1,216,265,264,-1,211,266,214,-1,214,266,267,-1,212,268,211,-1,211,268,266,-1,269,213,267,-1,267,213,214,-1,213,269,212,-1,212,269,268,-1,230,270,234,-1,234,270,271,-1,231,272,230,-1,230,272,270,-1,273,233,271,-1,271,233,234,-1,233,273,231,-1,231,273,272,-1,235,274,239,-1,239,274,275,-1,236,276,235,-1,235,276,274,-1,277,238,275,-1,275,238,239,-1,238,277,236,-1,236,277,276,-1,240,278,244,-1,244,278,279,-1,241,280,240,-1,240,280,278,-1,281,243,279,-1,279,243,244,-1,243,281,241,-1,241,281,280,-1,247,282,249,-1,249,282,283,-1,246,284,247,-1,247,284,282,-1,285,248,283,-1,283,248,249,-1,248,285,246,-1,246,285,284,-1,259,286,261,-1,261,286,287,-1,261,287,260,-1,260,287,288,-1,260,288,258,-1,258,288,289,-1,258,289,259,-1,259,289,286,-1,286,289,163,-1,163,289,166,-1,289,288,166,-1,166,288,165,-1,288,287,165,-1,165,287,164,-1,287,286,164,-1,164,286,163,-1,262,290,263,-1,263,290,291,-1,263,291,265,-1,265,291,292,-1,265,292,264,-1,264,292,293,-1,264,293,262,-1,262,293,290,-1,291,290,158,-1,158,290,161,-1,290,293,161,-1,161,293,160,-1,293,292,160,-1,160,292,159,-1,292,291,159,-1,159,291,158,-1,266,294,267,-1,267,294,295,-1,267,295,269,-1,269,295,296,-1,269,296,268,-1,268,296,297,-1,268,297,266,-1,266,297,294,-1,295,294,153,-1,153,294,151,-1,294,297,151,-1,151,297,149,-1,297,296,149,-1,149,296,150,-1,296,295,150,-1,150,295,153,-1,271,298,273,-1,273,298,299,-1,273,299,272,-1,272,299,300,-1,272,300,270,-1,270,300,301,-1,270,301,271,-1,271,301,298,-1,14,298,12,-1,12,298,301,-1,12,301,10,-1,10,301,8,-1,301,300,8,-1,8,300,6,-1,6,300,5,-1,5,300,299,-1,5,299,167,-1,167,299,16,-1,299,298,16,-1,16,298,14,-1,275,302,277,-1,277,302,303,-1,277,303,276,-1,276,303,304,-1,276,304,274,-1,274,304,305,-1,274,305,275,-1,275,305,302,-1,302,305,169,-1,169,305,172,-1,305,304,172,-1,172,304,171,-1,304,303,171,-1,171,303,170,-1,303,302,170,-1,170,302,169,-1,278,306,279,-1,279,306,307,-1,279,307,281,-1,281,307,308,-1,281,308,280,-1,280,308,309,-1,280,309,278,-1,278,309,306,-1,307,306,174,-1,174,306,177,-1,306,309,177,-1,177,309,176,-1,309,308,176,-1,176,308,175,-1,308,307,175,-1,175,307,174,-1,282,310,283,-1,283,310,311,-1,283,311,285,-1,285,311,312,-1,285,312,284,-1,284,312,313,-1,284,313,282,-1,282,313,310,-1,311,310,184,-1,184,310,182,-1,310,313,182,-1,182,313,180,-1,313,312,180,-1,180,312,181,-1,312,311,181,-1,181,311,184,-1,
        ]
    }
}
Shape{
    appearance Appearance {
        material  Material 	{
            diffuseColor 0.7529411764705882 0.7529411764705882 0.7529411764705882
            specularColor 0.3764705882352941 0.3764705882352941 0.3764705882352941
            ambientIntensity 0.7529
            transparency 0.0
            shininess 0.5
        }
    }
    geometry IndexedFaceSet {
        ccw TRUE
        solid FALSE
        coord DEF co Coordinate {
            point [
                -0.2796 -0.2944 0.0004, -0.341 -0.4519 0.0004, -0.2796 -0.2944 0.0, -0.341 -0.4519 0.0, -0.318 -0.4519 0.0004, -0.318 -0.4519 0.0, -0.302 -0.4077 0.0004, -0.302 -0.4077 0.0, -0.237 -0.4077 0.0004, -0.237 -0.4077 0.0, -0.222 -0.4519 0.0004, -0.222 -0.4519 0.0, -0.1989 -0.4519 0.0004, -0.1989 -0.4519 0.0, -0.2584 -0.2944 0.0004, -0.2584 -0.2944 0.0, -0.2423 -0.3905 0.0004, -0.295 -0.3905 0.0004, -0.2658 -0.3247 0.0004, -0.2673 -0.3192 0.0004, -0.2683 -0.3136 0.0004, -0.2688 -0.3136 0.0004, -0.2699 -0.3192 0.0004, -0.2713 -0.3247 0.0004, -0.2423 -0.3905 0.0, -0.295 -0.3905 0.0, -0.2658 -0.3247 0.0, -0.2673 -0.3192 0.0, -0.2683 -0.3136 0.0, -0.2688 -0.3136 0.0, -0.2699 -0.3192 0.0, -0.2713 -0.3247 0.0, -0.1035 -0.4519 0.0004, -0.0606 -0.4519 0.0004, -0.1035 -0.4519 0.0, -0.0606 -0.4519 0.0, -0.0606 -0.2944 0.0004, -0.0606 -0.2944 0.0, -0.1051 -0.2944 0.0004, -0.1051 -0.2944 0.0, -0.1874 -0.3712 0.0004, -0.1874 -0.3712 0.0, -0.1862 -0.3564 0.0, -0.1862 -0.3564 0.0004, -0.182 -0.3409 0.0, -0.182 -0.3409 0.0004, -0.1747 -0.3273 0.0, -0.1747 -0.3273 0.0004, -0.1636 -0.315 0.0, -0.1636 -0.315 0.0004, -0.1634 -0.3148 0.0, -0.1634 -0.3148 0.0004, -0.1463 -0.3033 0.0, -0.1463 -0.3033 0.0004, -0.1278 -0.2969 0.0, -0.1278 -0.2969 0.0004, -0.1229 -0.4502 0.0, -0.1229 -0.4502 0.0004, -0.1411 -0.4448 0.0, -0.1411 -0.4448 0.0004, -0.1575 -0.4353 0.0, -0.1575 -0.4353 0.0004, -0.1705 -0.4228 0.0, -0.1705 -0.4228 0.0004, -0.1795 -0.4088 0.0, -0.1795 -0.4088 0.0004, -0.1852 -0.3923 0.0, -0.1852 -0.3923 0.0004, -0.1558 -0.3338 0.0004, -0.1481 -0.3257 0.0004, -0.1366 -0.3183 0.0004, -0.1236 -0.3137 0.0004, -0.105 -0.3117 0.0004, -0.0818 -0.3117 0.0004, -0.0818 -0.4346 0.0004, -0.1041 -0.4346 0.0004, -0.1207 -0.4331 0.0004, -0.134 -0.429 0.0004, -0.1447 -0.4226 0.0004, -0.1536 -0.4139 0.0004, -0.1602 -0.403 0.0004, -0.1648 -0.3882 0.0004, -0.1663 -0.3716 0.0004, -0.1649 -0.356 0.0004, -0.1613 -0.3435 0.0004, -0.105 -0.3117 0.0, -0.0818 -0.3117 0.0, -0.1236 -0.3137 0.0, -0.1366 -0.3183 0.0, -0.1481 -0.3257 0.0, -0.1558 -0.3338 0.0, -0.1613 -0.3435 0.0, -0.1649 -0.356 0.0, -0.1663 -0.3716 0.0, -0.1648 -0.3882 0.0, -0.1602 -0.403 0.0, -0.1536 -0.4139 0.0, -0.1447 -0.4226 0.0, -0.134 -0.429 0.0, -0.1207 -0.4331 0.0, -0.1041 -0.4346 0.0, -0.0818 -0.4346 0.0, -0.0299 -0.4346 0.0004, -0.0299 -0.4519 0.0004, -0.0299 -0.4346 0.0, -0.0299 -0.4519 0.0, 0.0546 -0.4519 0.0004, 0.0546 -0.4519 0.0, 0.0546 -0.2944 0.0004, 0.0546 -0.2944 0.0, -0.0261 -0.2944 0.0004, -0.0261 -0.2944 0.0, -0.0261 -0.3117 0.0004, -0.0261 -0.3117 0.0, 0.0335 -0.3117 0.0004, 0.0335 -0.3117 0.0, 0.0335 -0.3636 0.0004, 0.0335 -0.3636 0.0, -0.0222 -0.3636 0.0004, -0.0222 -0.3636 0.0, -0.0222 -0.3809 0.0004, -0.0222 -0.3809 0.0, 0.0335 -0.3809 0.0004, 0.0335 -0.3809 0.0, 0.0335 -0.4346 0.0004, 0.0335 -0.4346 0.0, 0.0853 -0.4265 0.0004, 0.0853 -0.4438 0.0004, 0.0853 -0.4265 0.0, 0.0853 -0.4438 0.0, 0.1287 -0.4538 0.0004, 0.1287 -0.4538 0.0, 0.1243 -0.4538 0.0, 0.1243 -0.4538 0.0004, 0.118 -0.4529 0.0, 0.1021 -0.4507 0.0004, 0.1017 -0.4505 0.0, 0.1021 -0.4507 0.0, 0.1379 -0.4529 0.0, 0.1481 -0.4518 0.0004, 0.1481 -0.4518 0.0, 0.1633 -0.4466 0.0004, 0.1633 -0.4466 0.0, 0.176 -0.4385 0.0004, 0.176 -0.4385 0.0, 0.1878 -0.426 0.0004, 0.1878 -0.426 0.0, 0.1962 -0.4111 0.0004, 0.1962 -0.4111 0.0, 0.2009 -0.3944 0.0004, 0.2009 -0.3944 0.0, 0.2025 -0.3762 0.0004, 0.2025 -0.3762 0.0, 0.1224 -0.2925 0.0004, 0.1224 -0.2925 0.0, 0.1382 -0.2938 0.0, 0.1382 -0.2938 0.0004, 0.1558 -0.2989 0.0, 0.1558 -0.2989 0.0004, 0.1707 -0.3075 0.0, 0.1707 -0.3075 0.0004, 0.1849 -0.3212 0.0, 0.1849 -0.3212 0.0004, 0.1942 -0.3359 0.0, 0.1942 -0.3359 0.0004, 0.2002 -0.3538 0.0, 0.2002 -0.3538 0.0004, 0.1035 -0.2938 0.0004, 0.0853 -0.2988 0.0004, 0.0853 -0.2988 0.0, 0.1017 -0.2943 0.0, 0.1035 -0.2938 0.0, 0.0853 -0.3199 0.0004, 0.0853 -0.3199 0.0, 0.1017 -0.3129 0.0, 0.1031 -0.3123 0.0004, 0.1031 -0.3123 0.0, 0.1222 -0.3098 0.0004, 0.1222 -0.3098 0.0, 0.1813 -0.3749 0.0004, 0.1813 -0.3749 0.0, 0.1806 -0.3626 0.0, 0.1806 -0.3626 0.0004, 0.1764 -0.3457 0.0, 0.1764 -0.3457 0.0004, 0.1699 -0.3336 0.0, 0.1699 -0.3336 0.0004, 0.1604 -0.3231 0.0, 0.1604 -0.3231 0.0004, 0.1495 -0.3158 0.0, 0.1495 -0.3158 0.0004, 0.1377 -0.3115 0.0, 0.1377 -0.3115 0.0004, 0.1257 -0.4366 0.0004, 0.1257 -0.4366 0.0, 0.1404 -0.4349 0.0, 0.1404 -0.4349 0.0004, 0.1519 -0.4307 0.0, 0.1519 -0.4307 0.0004, 0.1616 -0.4242 0.0, 0.1616 -0.4242 0.0004, 0.169 -0.4164 0.0, 0.169 -0.4164 0.0004, 0.1755 -0.4055 0.0, 0.1755 -0.4055 0.0004, 0.1798 -0.3919 0.0, 0.1798 -0.3919 0.0004, 0.1048 -0.4342 0.0004, 0.0881 -0.428 0.0, 0.0881 -0.428 0.0004, 0.1017 -0.4331 0.0, 0.1048 -0.4342 0.0, 0.2159 -0.4346 0.0004, 0.2159 -0.4519 0.0004, 0.2159 -0.4346 0.0, 0.2159 -0.4519 0.0, 0.2966 -0.4519 0.0004, 0.2966 -0.4519 0.0, 0.2966 -0.2944 0.0004, 0.2966 -0.2944 0.0, 0.2754 -0.2944 0.0004, 0.2754 -0.2944 0.0, 0.2754 -0.4346 0.0004, 0.2754 -0.4346 0.0
            ]
        }
        coordIndex [
            0,1,2,-1,2,1,3,-1,1,4,3,-1,3,4,5,-1,4,6,5,-1,5,6,7,-1,6,8,7,-1,7,8,9,-1,8,10,9,-1,9,10,11,-1,10,12,11,-1,11,12,13,-1,12,14,13,-1,13,14,15,-1,14,0,15,-1,15,0,2,-1,16,8,17,-1,17,8,6,-1,18,14,16,-1,16,14,12,-1,16,12,8,-1,8,12,10,-1,18,19,14,-1,14,19,20,-1,14,20,0,-1,0,20,21,-1,0,21,22,-1,22,23,0,-1,0,23,17,-1,0,17,1,-1,1,17,6,-1,1,6,4,-1,16,17,24,-1,24,17,25,-1,18,16,26,-1,26,16,24,-1,18,26,27,-1,18,27,19,-1,19,27,28,-1,19,28,20,-1,21,20,29,-1,29,20,28,-1,21,29,30,-1,21,30,22,-1,22,30,31,-1,22,31,23,-1,17,23,25,-1,25,23,31,-1,32,33,34,-1,34,33,35,-1,33,36,35,-1,35,36,37,-1,36,38,37,-1,37,38,39,-1,40,41,42,-1,40,42,43,-1,43,42,44,-1,43,44,45,-1,45,44,46,-1,45,46,47,-1,47,46,48,-1,47,48,49,-1,49,48,50,-1,49,50,51,-1,51,50,52,-1,51,52,53,-1,53,52,54,-1,53,54,55,-1,55,54,39,-1,55,39,38,-1,32,34,56,-1,32,56,57,-1,57,56,58,-1,57,58,59,-1,59,58,60,-1,59,60,61,-1,61,60,62,-1,61,62,63,-1,63,62,64,-1,63,64,65,-1,65,64,66,-1,65,66,67,-1,67,66,41,-1,67,41,40,-1,45,47,68,-1,68,47,49,-1,68,49,69,-1,69,49,51,-1,69,51,70,-1,70,51,53,-1,70,53,71,-1,71,53,55,-1,71,55,72,-1,72,55,38,-1,72,38,73,-1,73,38,36,-1,73,36,74,-1,74,36,33,-1,74,33,75,-1,75,33,32,-1,75,32,76,-1,76,32,57,-1,76,57,77,-1,77,57,59,-1,77,59,78,-1,78,59,61,-1,78,61,79,-1,79,61,63,-1,79,63,80,-1,80,63,65,-1,80,65,81,-1,81,65,67,-1,81,67,82,-1,82,67,40,-1,82,40,83,-1,83,40,43,-1,83,43,84,-1,84,43,45,-1,84,45,68,-1,72,73,85,-1,85,73,86,-1,72,85,87,-1,72,87,71,-1,71,87,88,-1,71,88,70,-1,70,88,89,-1,70,89,69,-1,69,89,90,-1,69,90,68,-1,68,90,91,-1,68,91,84,-1,84,91,92,-1,84,92,83,-1,83,92,93,-1,83,93,82,-1,82,93,94,-1,82,94,81,-1,81,94,95,-1,81,95,80,-1,80,95,96,-1,80,96,79,-1,79,96,97,-1,79,97,78,-1,78,97,98,-1,78,98,77,-1,77,98,99,-1,77,99,76,-1,76,99,100,-1,76,100,75,-1,74,75,101,-1,101,75,100,-1,73,74,86,-1,86,74,101,-1,102,103,104,-1,104,103,105,-1,103,106,105,-1,105,106,107,-1,106,108,107,-1,107,108,109,-1,108,110,109,-1,109,110,111,-1,110,112,111,-1,111,112,113,-1,112,114,113,-1,113,114,115,-1,114,116,115,-1,115,116,117,-1,116,118,117,-1,117,118,119,-1,118,120,119,-1,119,120,121,-1,120,122,121,-1,121,122,123,-1,122,124,123,-1,123,124,125,-1,124,102,125,-1,125,102,104,-1,106,103,102,-1,102,124,106,-1,106,124,122,-1,106,122,108,-1,112,110,114,-1,114,110,108,-1,114,108,116,-1,116,108,122,-1,116,122,118,-1,118,122,120,-1,126,127,128,-1,128,127,129,-1,130,131,132,-1,130,132,133,-1,133,132,134,-1,133,134,135,-1,129,127,136,-1,136,127,135,-1,136,135,137,-1,137,135,134,-1,131,130,138,-1,138,130,139,-1,138,139,140,-1,140,139,141,-1,140,141,142,-1,142,141,143,-1,142,143,144,-1,144,143,145,-1,144,145,146,-1,146,145,147,-1,146,147,148,-1,148,147,149,-1,148,149,150,-1,150,149,151,-1,150,151,152,-1,153,154,155,-1,153,155,156,-1,156,155,157,-1,156,157,158,-1,158,157,159,-1,158,159,160,-1,160,159,161,-1,160,161,162,-1,162,161,163,-1,162,163,164,-1,164,163,165,-1,164,165,166,-1,166,165,152,-1,166,152,151,-1,154,153,167,-1,168,169,170,-1,168,170,167,-1,167,170,171,-1,167,171,154,-1,168,172,169,-1,169,172,173,-1,173,172,174,-1,174,172,175,-1,174,175,176,-1,176,175,177,-1,176,177,178,-1,179,180,181,-1,179,181,182,-1,182,181,183,-1,182,183,184,-1,184,183,185,-1,184,185,186,-1,186,185,187,-1,186,187,188,-1,188,187,189,-1,188,189,190,-1,190,189,191,-1,190,191,192,-1,192,191,178,-1,192,178,177,-1,193,194,195,-1,193,195,196,-1,196,195,197,-1,196,197,198,-1,198,197,199,-1,198,199,200,-1,200,199,201,-1,200,201,202,-1,202,201,203,-1,202,203,204,-1,204,203,205,-1,204,205,206,-1,206,205,180,-1,206,180,179,-1,194,193,207,-1,126,128,208,-1,126,208,209,-1,209,208,210,-1,209,210,207,-1,207,210,211,-1,207,211,194,-1,196,130,193,-1,193,130,133,-1,193,133,207,-1,207,133,135,-1,207,135,209,-1,209,135,127,-1,209,127,126,-1,172,168,175,-1,175,168,167,-1,175,167,177,-1,177,167,153,-1,177,153,192,-1,192,153,156,-1,192,156,190,-1,190,156,158,-1,190,158,188,-1,188,158,160,-1,188,160,186,-1,186,160,162,-1,186,162,184,-1,184,162,164,-1,184,164,182,-1,182,164,166,-1,182,166,179,-1,179,166,151,-1,179,151,206,-1,206,151,149,-1,206,149,204,-1,204,149,147,-1,204,147,202,-1,202,147,145,-1,202,145,200,-1,200,145,143,-1,200,143,198,-1,198,143,141,-1,198,141,196,-1,196,141,139,-1,196,139,130,-1,212,213,214,-1,214,213,215,-1,213,216,215,-1,215,216,217,-1,216,218,217,-1,217,218,219,-1,218,220,219,-1,219,220,221,-1,220,222,221,-1,221,222,223,-1,222,212,223,-1,223,212,214,-1,220,218,222,-1,222,218,216,-1,222,216,212,-1,212,216,213,-1,
        ]
    }
}
Shape{
    appearance Appearance {
        material  Material 	{
            diffuseColor 0.25098039215686274 0.25098039215686274 0.25098039215686274
            specularColor 0.12549019607843137 0.12549019607843137 0.12549019607843137
            ambientIntensity 0.251
            transparency 0.0
            shininess 0.5
        }
    }
    geometry IndexedFaceSet {
        ccw TRUE
        solid FALSE
        coord DEF co Coordinate {
            point [
                -0.2423 -0.3905 0.0, -0.295 -0.3905 0.0, -0.2658 -0.3247 0.0, -0.2713 -0.3247 0.0, -0.2673 -0.3192 0.0, -0.2699 -0.3192 0.0, -0.2683 -0.3136 0.0, -0.2688 -0.3136 0.0, -0.0818 -0.3117 0.0, -0.0818 -0.4346 0.0, -0.105 -0.3117 0.0, -0.1041 -0.4346 0.0, -0.1207 -0.4331 0.0, -0.1663 -0.3716 0.0, -0.1649 -0.356 0.0, -0.1613 -0.3435 0.0, -0.1236 -0.3137 0.0, -0.134 -0.429 0.0, -0.1447 -0.4226 0.0, -0.1536 -0.4139 0.0, -0.1602 -0.403 0.0, -0.1648 -0.3882 0.0, -0.1558 -0.3338 0.0, -0.1481 -0.3257 0.0, -0.1366 -0.3183 0.0
            ]
        }
        coordIndex [
            0,1,2,-1,2,1,3,-1,2,3,4,-1,4,3,5,-1,4,5,6,-1,6,5,7,-1,8,9,10,-1,10,9,11,-1,10,11,12,-1,13,14,10,-1,10,14,15,-1,10,15,16,-1,12,17,10,-1,10,17,18,-1,10,18,19,-1,19,20,10,-1,10,20,21,-1,10,21,13,-1,22,23,15,-1,15,23,24,-1,15,24,16,-1,
        ]
    }
}