#VRML V2.0 utf8
# 3D model generated by easyeda2kicad.py (https://github.com/uPesy/easyeda2kicad.py)

Shape{
    appearance Appearance {
        material  Material 	{
            diffuseColor 0.25098039215686274 0.25098039215686274 0.25098039215686274
            specularColor 0.12549019607843137 0.12549019607843137 0.12549019607843137
            ambientIntensity 0.251
            transparency 0.0
            shininess 0.5
        }
    }
    geometry IndexedFaceSet {
        ccw TRUE
        solid FALSE
        coord DEF co Coordinate {
            point [
                0.6496 0.9646 0.0039, 0.4429 0.9646 0.0039, 0.6496 0.9646 0.3189, 0.4429 0.9646 0.0787, 0.0689 0.9646 0.0787, 0.0689 0.9646 0.0039, -0.0689 0.9646 0.0039, 0.3248 0.9646 0.0039, 0.187 0.9646 0.0039, 0.3248 0.9646 0.0787, 0.187 0.9646 0.0787, -0.0689 0.9646 0.0787, -0.187 0.9646 0.0787, -0.6496 0.9646 0.3189, -0.4429 0.9646 0.0039, -0.6496 0.9646 0.0039, -0.4429 0.9646 0.0787, -0.3248 0.9646 0.0787, -0.3248 0.9646 0.0039, -0.187 0.9646 0.0039, 0.3248 0.8469 0.0039, 0.187 0.8469 0.0039, 0.0689 0.8469 0.0039, -0.0689 0.8469 0.0039, -0.187 0.8469 0.0039, -0.3248 0.8469 0.0039, 0.5879 -0.3346 0.3189, 0.6496 -0.3346 0.3189, 0.6496 0.7086 0.3189, 0.3153 0.7248 0.3189, 0.3153 0.7594 0.3189, 0.2989 0.7594 0.3189, 0.3837 0.7246 0.3189, 0.382 0.7244 0.3189, 0.392 0.7244 0.3189, 0.4262 0.7248 0.3189, 0.4262 0.7594 0.3189, 0.4235 0.7594 0.3189, 0.179 0.7579 0.3189, 0.184 0.7534 0.3189, 0.1956 0.7594 0.3189, 0.2644 0.7969 0.3189, 0.2721 0.7904 0.3189, 0.2989 0.8286 0.3189, 0.2989 0.7879 0.3189, 0.2263 0.8328 0.3189, 0.2324 0.8286 0.3189, 0.2389 0.8242 0.3189, 0.2482 0.8135 0.3189, 0.2543 0.8017 0.3189, 0.2559 0.8012 0.3189, 0.173 0.8322 0.3189, 0.1861 0.8373 0.3189, -0.1175 0.9646 0.3189, 0.2989 0.9646 0.3189, 0.2002 0.839 0.3189, 0.212 0.8378 0.3189, -0.1175 0.8286 0.3189, -0.1175 0.7879 0.3189, 0.1049 0.7879 0.3189, 0.1672 0.8286 0.3189, 0.1661 0.8279 0.3189, 0.108 0.7945 0.3189, 0.1143 0.8023 0.3189, 0.1168 0.8046 0.3189, 0.1263 0.811 0.3189, 0.1369 0.8149 0.3189, 0.147 0.816 0.3189, 0.1594 0.8222 0.3189, 0.1503 0.8158 0.3189, 0.1536 0.8154 0.3189, 0.1009 0.7699 0.3189, 0.101 0.7731 0.3189, 0.1032 0.7844 0.3189, 0.1308 0.7267 0.3189, 0.1207 0.732 0.3189, -0.1175 0.7244 0.3189, 0.1129 0.7388 0.3189, 0.1118 0.74 0.3189, 0.1058 0.7492 0.3189, -0.1175 0.7594 0.3189, 0.1022 0.7594 0.3189, 0.102 0.7598 0.3189, 0.1356 0.7252 0.3189, 0.136 0.7244 0.3189, 0.1385 0.7191 0.3189, 0.1427 0.7139 0.3189, 0.1745 0.7086 0.3189, 0.1695 0.7067 0.3189, 0.2989 -0.3346 0.3189, 0.1627 0.7058 0.3189, -0.1175 -0.3346 0.3189, 0.1616 0.7058 0.3189, 0.1548 0.7069 0.3189, -0.1175 0.7086 0.3189, 0.1509 0.7086 0.3189, 0.1483 0.7097 0.3189, 0.1893 0.7244 0.3189, 0.1893 0.7243 0.3189, 0.2989 0.7086 0.3189, 0.186 0.718 0.3189, 0.1816 0.713 0.3189, 0.1759 0.7091 0.3189, 0.2775 0.745 0.3189, 0.272 0.7374 0.3189, 0.2989 0.7244 0.3189, 0.2811 0.754 0.3189, 0.2277 0.742 0.3189, 0.231 0.7582 0.3189, 0.2258 0.7413 0.3189, 0.224 0.74 0.3189, 0.2639 0.7307 0.3189, 0.2552 0.7265 0.3189, 0.2461 0.7246 0.3189, 0.2298 0.7423 0.3189, 0.2301 0.7422 0.3189, 0.231 0.742 0.3189, 0.2293 0.7246 0.3189, 0.2278 0.7248 0.3189, 0.2259 0.7255 0.3189, 0.2241 0.7268 0.3189, 0.2232 0.7276 0.3189, 0.221 0.7334 0.3189, 0.2211 0.7342 0.3189, 0.1911 0.7371 0.3189, 0.2215 0.7364 0.3189, 0.2226 0.7384 0.3189, 0.2591 0.7491 0.3189, 0.2622 0.7536 0.3189, 0.222 0.7294 0.3189, 0.2213 0.7314 0.3189, 0.191 0.7314 0.3189, 0.1911 0.7343 0.3189, 0.2315 0.742 0.3189, 0.2444 0.742 0.3189, 0.2494 0.7429 0.3189, 0.2545 0.7453 0.3189, 0.2587 0.7487 0.3189, 0.1661 0.7628 0.3189, 0.173 0.7611 0.3189, 0.2401 0.7879 0.3189, 0.1627 0.763 0.3189, 0.2642 0.7586 0.3189, 0.2643 0.7594 0.3189, 0.2303 0.7594 0.3189, 0.2648 0.7642 0.3189, 0.2647 0.7666 0.3189, 0.1559 0.7622 0.3189, 0.1251 0.7879 0.3189, 0.1496 0.7598 0.3189, 0.1221 0.7837 0.3189, 0.1197 0.7773 0.3189, 0.1211 0.7594 0.3189, 0.149 0.7594 0.3189, 0.1192 0.7661 0.3189, 0.1188 0.7704 0.3189, 0.2574 0.7807 0.3189, 0.253 0.7838 0.3189, 0.2634 0.7721 0.3189, 0.2607 0.777 0.3189, 0.2404 0.7864 0.3189, 0.2222 0.7733 0.3189, 0.2426 0.7864 0.3189, 0.2481 0.7857 0.3189, 0.1762 0.7594 0.3189, 0.1212 0.7591 0.3189, 0.1391 0.7504 0.3189, 0.1438 0.7558 0.3189, 0.1246 0.7533 0.3189, 0.1297 0.7481 0.3189, 0.1359 0.7443 0.3189, 0.2287 0.8103 0.3189, 0.2268 0.8121 0.3189, 0.1624 0.7946 0.3189, 0.2349 0.8024 0.3189, 0.1603 0.7958 0.3189, 0.239 0.7931 0.3189, 0.2187 0.8175 0.3189, 0.2098 0.8209 0.3189, 0.1665 0.8032 0.3189, 0.2005 0.822 0.3189, 0.1539 0.7981 0.3189, 0.1473 0.7989 0.3189, 0.1444 0.7988 0.3189, 0.1899 0.8206 0.3189, 0.1806 0.8168 0.3189, 0.1727 0.8109 0.3189, 0.1373 0.7971 0.3189, 0.131 0.7937 0.3189, 0.1261 0.7893 0.3189, 0.2738 0.7879 0.3189, 0.2778 0.7822 0.3189, 0.2813 0.7735 0.3189, 0.2825 0.7645 0.3189, 0.2825 0.7633 0.3189, 0.2819 0.7594 0.3189, 0.489 0.7879 0.3189, 0.5053 0.7648 0.3189, 0.5108 0.7648 0.3189, 0.5033 0.7594 0.3189, 0.489 0.7594 0.3189, 0.4901 0.7248 0.3189, 0.489 0.7244 0.3189, 0.4958 0.7248 0.3189, 0.5204 0.7248 0.3189, 0.5163 0.7357 0.3189, 0.4996 0.7357 0.3189, 0.4832 0.7581 0.3189, 0.4857 0.7546 0.3189, 0.4868 0.738 0.3189, 0.4848 0.7339 0.3189, 0.4818 0.7304 0.3189, 0.4777 0.7274 0.3189, 0.4731 0.7256 0.3189, 0.4663 0.7248 0.3189, 0.4515 0.7244 0.3189, 0.4872 0.7508 0.3189, 0.4878 0.7453 0.3189, 0.4877 0.7427 0.3189, 0.4553 0.7248 0.3189, 0.4553 0.7594 0.3189, 0.4515 0.7594 0.3189, 0.4553 0.7648 0.3189, 0.4515 0.7879 0.3189, 0.4667 0.7648 0.3189, 0.4728 0.7641 0.3189, 0.4776 0.7623 0.3189, 0.4818 0.7595 0.3189, 0.4819 0.7594 0.3189, 0.4477 0.7293 0.3189, 0.4477 0.7248 0.3189, 0.4388 0.7244 0.3189, 0.4456 0.7428 0.3189, 0.4388 0.7293 0.3189, 0.4388 0.7428 0.3189, 0.4313 0.7293 0.3189, 0.4313 0.7428 0.3189, 0.4313 0.7594 0.3189, 0.4313 0.7474 0.3189, 0.4388 0.7594 0.3189, 0.4388 0.7474 0.3189, 0.4456 0.7474 0.3189, 0.4313 0.7602 0.3189, 0.4388 0.7602 0.3189, 0.4468 0.7602 0.3189, 0.4468 0.7648 0.3189, 0.4388 0.7648 0.3189, 0.4388 0.7879 0.3189, 0.4262 0.7648 0.3189, 0.4235 0.7879 0.3189, 0.4388 0.7248 0.3189, 0.4235 0.7244 0.3189, 0.3721 0.7489 0.3189, 0.373 0.7502 0.3189, 0.3697 0.7594 0.3189, 0.3737 0.7594 0.3189, 0.3732 0.7298 0.3189, 0.3737 0.7296 0.3189, 0.3737 0.7402 0.3189, 0.3728 0.7411 0.3189, 0.3722 0.7421 0.3189, 0.3714 0.7309 0.3189, 0.3737 0.7402 0.3189, 0.3716 0.7437 0.3189, 0.3714 0.7456 0.3189, 0.3716 0.7472 0.3189, 0.3714 0.7258 0.3189, 0.3697 0.7244 0.3189, 0.3737 0.7249 0.3189, 0.3737 0.7244 0.3189, 0.3749 0.7245 0.3189, 0.3759 0.7244 0.3189, 0.3791 0.7241 0.3189, 0.3737 0.7086 0.3189, 0.392 0.7086 0.3189, 0.392 0.7594 0.3189, 0.3893 0.7479 0.3189, 0.3893 0.7527 0.3189, 0.3737 0.7509 0.3189, 0.3746 0.7517 0.3189, 0.3759 0.7525 0.3189, 0.3905 0.7305 0.3189, 0.3898 0.7289 0.3189, 0.3889 0.7276 0.3189, 0.3785 0.7535 0.3189, 0.3826 0.754 0.3189, 0.3861 0.7537 0.3189, 0.389 0.7373 0.3189, 0.39 0.7359 0.3189, 0.3905 0.7344 0.3189, 0.3907 0.7325 0.3189, 0.3875 0.7263 0.3189, 0.3863 0.7256 0.3189, 0.3821 0.7499 0.3189, 0.3806 0.7498 0.3189, 0.3766 0.7461 0.3189, 0.3792 0.7495 0.3189, 0.3781 0.7489 0.3189, 0.3766 0.7454 0.3189, 0.3768 0.7446 0.3189, 0.3772 0.744 0.3189, 0.3777 0.7434 0.3189, 0.3794 0.7423 0.3189, 0.3856 0.7495 0.3189, 0.3826 0.741 0.3189, 0.3884 0.7484 0.3189, 0.3845 0.7402 0.3189, 0.3878 0.7383 0.3189, 0.3774 0.7482 0.3189, 0.3769 0.7476 0.3189, 0.3767 0.7469 0.3189, 0.3763 0.7286 0.3189, 0.379 0.7373 0.3189, 0.376 0.7387 0.3189, 0.3796 0.7282 0.3189, 0.3799 0.7282 0.3189, 0.3823 0.7359 0.3189, 0.3824 0.7285 0.3189, 0.3856 0.732 0.3189, 0.3855 0.7327 0.3189, 0.3837 0.7289 0.3189, 0.3842 0.7292 0.3189, 0.3848 0.7297 0.3189, 0.3852 0.7304 0.3189, 0.3854 0.7311 0.3189, 0.3853 0.7334 0.3189, 0.3849 0.7341 0.3189, 0.3843 0.7348 0.3189, 0.476 0.7883 0.3189, 0.4702 0.7883 0.3189, 0.4662 0.7992 0.3189, 0.4515 0.7992 0.3189, 0.4607 0.8283 0.3189, 0.489 0.8286 0.3189, 0.4515 0.8286 0.3189, 0.4495 0.7992 0.3189, 0.4456 0.7883 0.3189, 0.4399 0.7883 0.3189, 0.4388 0.8286 0.3189, 0.4515 0.8186 0.3189, 0.4552 0.8283 0.3189, 0.4051 0.7883 0.3189, 0.4051 0.8283 0.3189, 0.3966 0.8237 0.3189, 0.3966 0.8283 0.3189, 0.4165 0.8283 0.3189, 0.4235 0.8286 0.3189, 0.392 0.8286 0.3189, 0.392 0.8283 0.3189, 0.392 0.7879 0.3189, 0.3976 0.7883 0.3189, 0.423 0.7891 0.3189, 0.4161 0.7883 0.3189, 0.3976 0.7928 0.3189, 0.4366 0.8016 0.3189, 0.4347 0.7974 0.3189, 0.4331 0.8216 0.3189, 0.4355 0.8182 0.3189, 0.4317 0.7939 0.3189, 0.4275 0.7909 0.3189, 0.4235 0.7893 0.3189, 0.4317 0.823 0.3189, 0.4227 0.8276 0.3189, 0.4235 0.8273 0.3189, 0.4275 0.8259 0.3189, 0.437 0.8143 0.3189, 0.4377 0.8088 0.3189, 0.4376 0.8062 0.3189, 0.3812 0.8063 0.3189, 0.3812 0.7928 0.3189, 0.392 0.8063 0.3189, 0.392 0.7928 0.3189, 0.3955 0.8063 0.3189, 0.3955 0.8109 0.3189, 0.392 0.8109 0.3189, 0.392 0.8237 0.3189, 0.3812 0.8109 0.3189, 0.3812 0.8237 0.3189, 0.376 0.8283 0.3189, 0.3737 0.8286 0.3189, 0.376 0.7883 0.3189, 0.3697 0.7879 0.3189, 0.368 0.8219 0.3189, 0.368 0.7949 0.3189, 0.3676 0.8222 0.3189, 0.3663 0.7941 0.3189, 0.3663 0.8227 0.3189, 0.3641 0.7931 0.3189, 0.3596 0.7923 0.3189, 0.3635 0.8237 0.3189, 0.3586 0.8243 0.3189, 0.3435 0.8078 0.3189, 0.3482 0.7956 0.3189, 0.3508 0.7938 0.3189, 0.3477 0.8199 0.3189, 0.3455 0.8168 0.3189, 0.3504 0.8221 0.3189, 0.3535 0.8236 0.3189, 0.357 0.8242 0.3189, 0.3441 0.8134 0.3189, 0.3435 0.8064 0.3189, 0.3441 0.8023 0.3189, 0.3536 0.7927 0.3189, 0.3577 0.7922 0.3189, 0.3454 0.7991 0.3189, 0.3474 0.7964 0.3189, 0.368 0.8273 0.3189, 0.3697 0.8286 0.3189, 0.3663 0.8278 0.3189, 0.3663 0.8286 0.3189, 0.3638 0.8286 0.3189, 0.3628 0.8286 0.3189, 0.3586 0.829 0.3189, 0.3663 0.9646 0.3189, 0.3585 0.829 0.3189, 0.3374 0.9646 0.3189, 0.3558 0.8286 0.3189, 0.3464 0.7904 0.3189, 0.3374 0.7879 0.3189, 0.3502 0.7886 0.3189, 0.3534 0.7879 0.3189, 0.3432 0.7931 0.3189, 0.3405 0.7968 0.3189, 0.3388 0.8009 0.3189, 0.3374 0.8286 0.3189, 0.3409 0.8193 0.3189, 0.3438 0.8231 0.3189, 0.338 0.8075 0.3189, 0.3381 0.8096 0.3189, 0.339 0.8148 0.3189, 0.3448 0.824 0.3189, 0.3485 0.8266 0.3189, 0.3527 0.8283 0.3189, 0.3545 0.7877 0.3189, 0.3374 0.7594 0.3189, 0.3569 0.7876 0.3189, 0.3663 0.7594 0.3189, 0.3605 0.7879 0.3189, 0.368 0.7899 0.3189, 0.3673 0.7896 0.3189, 0.3663 0.7879 0.3189, 0.3663 0.7892 0.3189, 0.363 0.7882 0.3189, 0.3366 0.7293 0.3189, 0.3368 0.7293 0.3189, 0.3374 0.7244 0.3189, 0.3368 0.7248 0.3189, 0.3366 0.7244 0.3189, 0.3205 0.7474 0.3189, 0.3348 0.7474 0.3189, 0.3366 0.7594 0.3189, 0.3348 0.7428 0.3189, 0.3205 0.7428 0.3189, 0.3205 0.7293 0.3189, 0.3153 0.7648 0.3189, 0.3359 0.7648 0.3189, 0.3359 0.7602 0.3189, 0.3205 0.7594 0.3189, 0.3205 0.7602 0.3189, 0.3366 0.7248 0.3189, 0.3478 0.7244 0.3189, 0.3477 0.7244 0.3189, 0.3646 0.7432 0.3189, 0.3646 0.7248 0.3189, 0.3663 0.7244 0.3189, 0.3596 0.7248 0.3189, 0.3458 0.7251 0.3189, 0.3441 0.7263 0.3189, 0.3436 0.7268 0.3189, 0.3444 0.7465 0.3189, 0.3444 0.7513 0.3189, 0.3454 0.7519 0.3189, 0.3425 0.7283 0.3189, 0.3419 0.73 0.3189, 0.3416 0.7324 0.3189, 0.3555 0.7497 0.3189, 0.3538 0.7499 0.3189, 0.3511 0.7417 0.3189, 0.3596 0.7292 0.3189, 0.3594 0.7292 0.3189, 0.3587 0.728 0.3189, 0.3571 0.7263 0.3189, 0.3416 0.733 0.3189, 0.3419 0.7352 0.3189, 0.3426 0.7369 0.3189, 0.3436 0.7384 0.3189, 0.3452 0.7397 0.3189, 0.3473 0.7408 0.3189, 0.3479 0.7486 0.3189, 0.351 0.7497 0.3189, 0.3578 0.7536 0.3189, 0.3598 0.7529 0.3189, 0.3614 0.7519 0.3189, 0.3491 0.7534 0.3189, 0.3543 0.754 0.3189, 0.3543 0.754 0.3189, 0.3622 0.7511 0.3189, 0.3633 0.7495 0.3189, 0.3641 0.7474 0.3189, 0.3596 0.7429 0.3189, 0.3594 0.7451 0.3189, 0.3589 0.7469 0.3189, 0.3583 0.7479 0.3189, 0.3575 0.7488 0.3189, 0.3567 0.7493 0.3189, 0.3507 0.7241 0.3189, 0.3374 0.7086 0.3189, 0.3532 0.7243 0.3189, 0.3663 0.7086 0.3189, 0.3534 0.7244 0.3189, 0.4044 0.7244 0.3189, 0.4045 0.7248 0.3189, 0.3933 0.7533 0.3189, 0.3989 0.7533 0.3189, 0.4064 0.7319 0.3189, 0.407 0.7295 0.3189, 0.4071 0.7295 0.3189, 0.4074 0.7305 0.3189, 0.4077 0.7318 0.3189, 0.4156 0.7533 0.3189, 0.4208 0.7533 0.3189, 0.4034 0.7136 0.3189, 0.4017 0.7123 0.3189, 0.4235 0.7086 0.3189, 0.3998 0.7116 0.3189, 0.3976 0.7113 0.3189, 0.3965 0.7113 0.3189, 0.3943 0.7117 0.3189, 0.3943 0.7162 0.3189, 0.3954 0.7158 0.3189, 0.3972 0.7156 0.3189, 0.3981 0.7157 0.3189, 0.3992 0.716 0.3189, 0.4002 0.7166 0.3189, 0.4012 0.7176 0.3189, 0.4023 0.7196 0.3189, 0.4093 0.7244 0.3189, 0.4078 0.7204 0.3189, 0.4055 0.716 0.3189, -0.3734 -0.1799 0.3189, -0.3914 -0.1873 0.3189, -0.6496 0.7086 0.3189, -0.4755 -0.0777 0.3189, -0.4636 -0.0622 0.3189, -0.6496 -0.3346 0.3189, -0.4108 -0.1899 0.3189, -0.4301 -0.1873 0.3189, -0.4755 -0.1525 0.3189, -0.483 -0.1345 0.3189, -0.4855 -0.1151 0.3189, -0.483 -0.0958 0.3189, -0.4481 -0.0504 0.3189, -0.4301 -0.0429 0.3189, -0.4108 -0.0403 0.3189, -0.3385 -0.1345 0.3189, -0.346 -0.1525 0.3189, -0.3579 -0.168 0.3189, -0.4481 -0.1799 0.3189, -0.4636 -0.168 0.3189, -0.3914 -0.0429 0.3189, -0.3734 -0.0504 0.3189, -0.3579 -0.0622 0.3189, -0.346 -0.0777 0.3189, -0.3385 -0.0958 0.3189, -0.336 -0.1151 0.3189, 0.5879 0.7086 0.3189, 0.489 -0.3346 0.3189, 0.489 0.7086 0.3189, 0.4515 -0.3346 0.3189, 0.4515 0.7086 0.3189, 0.4388 -0.3346 0.3189, 0.4388 0.7086 0.3189, 0.4235 -0.3346 0.3189, 0.392 -0.3346 0.3189, 0.3737 -0.3346 0.3189, 0.3697 -0.3346 0.3189, 0.3697 0.7086 0.3189, 0.3663 -0.3346 0.3189, 0.3374 -0.3346 0.3189, 0.3366 -0.3346 0.3189, 0.3366 0.7086 0.3189, 0.3553 0.7251 0.3189, 0.5879 0.7244 0.3189, 0.3366 0.7879 0.3189, 0.3737 0.7879 0.3189, 0.3364 0.7928 0.3189, 0.3364 0.7883 0.3189, 0.3153 0.7883 0.3189, 0.3205 0.8283 0.3189, 0.3366 0.8286 0.3189, 0.3153 0.8283 0.3189, 0.3205 0.7928 0.3189, 0.392 0.7883 0.3189, 0.5261 0.7248 0.3189, 0.5129 0.7594 0.3189, 0.5879 0.7594 0.3189, 0.5879 0.7879 0.3189, 0.5879 0.8286 0.3189, 0.6496 0.7244 0.3189, 0.6496 0.7594 0.3189, 0.6496 0.7879 0.3189, 0.6496 0.8286 0.3189, -0.6496 0.7244 0.3189, -0.6496 0.7594 0.3189, -0.6496 0.7879 0.3189, -0.6496 0.8286 0.3189, 0.3366 0.9646 0.3189, 0.5879 0.9646 0.3189, 0.489 0.9646 0.3189, 0.4515 0.9646 0.3189, 0.4388 0.9646 0.3189, 0.4235 0.9646 0.3189, 0.392 0.9646 0.3189, 0.3737 0.9646 0.3189, 0.3697 0.9646 0.3189, 0.6496 -0.3346 0.0039, -0.6496 -0.3346 0.0039, -0.4429 -0.3346 0.0039, -0.4429 -0.3346 0.0787, -0.3248 -0.3346 0.0787, -0.0689 -0.3346 0.0787, -0.0689 -0.3346 0.0039, 0.0689 -0.3346 0.0039, 0.0689 -0.3346 0.0787, 0.187 -0.3346 0.0787, -0.187 -0.3346 0.0787, -0.187 -0.3346 0.0039, -0.3248 -0.3346 0.0039, 0.4429 -0.3346 0.0039, 0.4429 -0.3346 0.0787, 0.3248 -0.3346 0.0787, 0.3248 -0.3346 0.0039, 0.187 -0.3346 0.0039, -0.4429 -0.2169 0.0039, 0.4134 -0.1658 0.0039, 0.3992 -0.1599 0.0039, 0.4256 -0.1752 0.0039, 0.3421 -0.1752 0.0039, 0.3327 -0.1874 0.0039, 0.185 -0.2016 0.0039, 0.4429 -0.2169 0.0039, 0.4409 -0.2016 0.0039, 0.435 -0.1874 0.0039, 0.3992 0.1402 0.0039, 0.4134 0.1461 0.0039, 0.4256 0.1555 0.0039, 0.3544 -0.1658 0.0039, 0.435 0.1677 0.0039, 0.4409 0.182 0.0039, 0.4429 0.1973 0.0039, 0.3686 -0.1599 0.0039, 0.1791 -0.1874 0.0039, 0.3839 0.1382 0.0039, 0.1697 -0.1752 0.0039, 0.1575 -0.1658 0.0039, 0.3839 -0.1579 0.0039, 0.3248 -0.2169 0.0039, 0.1433 -0.1599 0.0039, 0.128 -0.1579 0.0039, -0.283 0.1382 0.0039, 0.1127 -0.1599 0.0039, 0.0984 -0.1658 0.0039, -0.3126 0.1461 0.0039, -0.2983 0.1402 0.0039, 0.3268 -0.2016 0.0039, 0.187 -0.2169 0.0039, 0.0768 -0.1874 0.0039, -0.0862 -0.1752 0.0039, -0.0984 -0.1658 0.0039, -0.3991 -0.1599 0.0039, -0.4134 -0.1658 0.0039, 0.0862 -0.1752 0.0039, -0.3248 0.1555 0.0039, -0.4256 0.2563 0.0039, -0.1126 -0.1599 0.0039, -0.4329 0.2653 0.0039, -0.1279 -0.1579 0.0039, -0.1432 -0.1599 0.0039, -0.1575 -0.1658 0.0039, -0.3268 -0.2016 0.0039, -0.1697 -0.1752 0.0039, -0.1791 -0.1874 0.0039, -0.4256 -0.1752 0.0039, -0.435 -0.1874 0.0039, -0.4409 -0.2016 0.0039, 0.0689 -0.2169 0.0039, -0.0689 -0.2169 0.0039, 0.0709 -0.2016 0.0039, -0.0709 -0.2016 0.0039, -0.0768 -0.1874 0.0039, -0.187 -0.2169 0.0039, -0.3838 -0.1579 0.0039, -0.4418 0.2866 0.0039, -0.3686 -0.1599 0.0039, -0.4384 0.2755 0.0039, -0.3543 -0.1658 0.0039, -0.3421 -0.1752 0.0039, -0.3327 -0.1874 0.0039, -0.4429 0.2981 0.0039, -0.185 -0.2016 0.0039, -0.3248 -0.2169 0.0039
            ]
        }
        coordIndex [
            0,1,2,-1,2,1,3,-1,4,5,6,-1,7,8,9,-1,9,8,10,-1,11,12,13,-1,6,11,4,-1,4,11,13,-1,4,13,10,-1,10,13,2,-1,10,2,9,-1,9,2,3,-1,14,15,16,-1,16,15,13,-1,16,13,17,-1,17,13,12,-1,17,12,18,-1,18,12,19,-1,20,21,7,-1,7,21,8,-1,22,23,5,-1,5,23,6,-1,24,25,19,-1,19,25,18,-1,26,27,28,-1,29,30,31,-1,32,33,34,-1,35,36,37,-1,38,39,40,-1,41,42,43,-1,43,42,44,-1,45,46,43,-1,43,46,47,-1,43,47,48,-1,48,49,43,-1,43,49,50,-1,43,50,41,-1,51,52,53,-1,53,52,54,-1,54,52,55,-1,54,55,56,-1,57,58,59,-1,51,53,60,-1,60,53,57,-1,60,57,61,-1,59,62,57,-1,57,62,63,-1,57,63,64,-1,64,65,57,-1,57,65,66,-1,57,66,61,-1,61,66,67,-1,61,67,68,-1,68,67,69,-1,68,69,70,-1,71,72,58,-1,58,72,73,-1,58,73,59,-1,74,75,76,-1,76,75,77,-1,77,78,76,-1,76,78,79,-1,76,79,80,-1,80,79,81,-1,80,81,58,-1,58,81,82,-1,58,82,71,-1,83,74,84,-1,84,74,76,-1,84,76,85,-1,85,76,86,-1,87,88,89,-1,89,88,90,-1,89,90,91,-1,90,92,91,-1,91,92,93,-1,91,93,94,-1,94,93,95,-1,94,95,76,-1,76,95,96,-1,76,96,86,-1,97,98,99,-1,98,100,99,-1,99,100,101,-1,99,101,102,-1,103,104,105,-1,103,105,106,-1,107,108,109,-1,109,108,110,-1,104,111,105,-1,105,111,112,-1,105,112,113,-1,107,114,108,-1,108,114,115,-1,108,115,116,-1,117,118,97,-1,118,119,97,-1,97,119,120,-1,97,120,121,-1,122,123,124,-1,124,123,125,-1,124,125,108,-1,108,125,126,-1,108,126,110,-1,108,127,128,-1,121,129,97,-1,97,129,130,-1,97,130,131,-1,131,130,122,-1,131,122,132,-1,132,122,124,-1,116,133,108,-1,108,133,134,-1,108,134,135,-1,135,136,108,-1,108,136,137,-1,108,137,127,-1,138,139,140,-1,138,140,141,-1,128,142,108,-1,108,142,143,-1,108,143,144,-1,144,143,145,-1,144,145,146,-1,147,148,149,-1,149,148,150,-1,149,150,151,-1,152,153,154,-1,154,153,149,-1,154,149,155,-1,155,149,151,-1,144,156,157,-1,146,158,144,-1,144,158,159,-1,144,159,156,-1,160,161,162,-1,162,161,144,-1,162,144,163,-1,163,144,157,-1,160,140,161,-1,161,140,139,-1,161,139,40,-1,40,139,164,-1,40,164,38,-1,165,166,152,-1,152,166,167,-1,152,167,153,-1,165,168,166,-1,166,168,169,-1,166,169,170,-1,171,172,173,-1,171,173,174,-1,148,173,175,-1,147,141,148,-1,148,141,140,-1,148,140,173,-1,173,140,176,-1,173,176,174,-1,172,177,173,-1,173,177,178,-1,173,178,179,-1,179,178,180,-1,175,181,148,-1,148,181,182,-1,148,182,183,-1,184,185,180,-1,180,185,186,-1,180,186,179,-1,187,188,183,-1,183,188,189,-1,183,189,148,-1,42,190,44,-1,44,190,191,-1,44,191,192,-1,192,193,31,-1,31,193,194,-1,31,194,195,-1,196,197,198,-1,197,196,199,-1,199,196,200,-1,199,200,201,-1,201,200,202,-1,201,202,203,-1,204,205,206,-1,207,208,200,-1,209,210,202,-1,202,210,211,-1,202,211,212,-1,212,213,202,-1,202,213,214,-1,202,214,215,-1,208,216,200,-1,200,216,217,-1,200,217,202,-1,202,217,218,-1,202,218,209,-1,219,220,221,-1,221,220,222,-1,221,222,223,-1,223,222,224,-1,225,226,196,-1,196,226,227,-1,196,227,200,-1,200,227,228,-1,200,228,207,-1,229,230,215,-1,215,230,231,-1,214,219,215,-1,215,219,221,-1,215,221,229,-1,229,221,232,-1,229,232,233,-1,233,232,234,-1,233,234,235,-1,235,234,236,-1,237,238,239,-1,239,238,240,-1,239,240,221,-1,221,240,241,-1,221,241,232,-1,242,237,243,-1,243,237,239,-1,243,239,244,-1,244,239,221,-1,244,221,245,-1,245,221,223,-1,245,223,246,-1,246,223,247,-1,246,247,248,-1,248,247,249,-1,230,250,231,-1,231,250,35,-1,231,35,251,-1,251,35,37,-1,252,253,254,-1,254,253,255,-1,256,257,258,-1,259,260,261,-1,256,258,261,-1,261,258,262,-1,261,262,259,-1,260,263,261,-1,261,263,264,-1,261,264,254,-1,254,264,265,-1,254,265,252,-1,266,267,268,-1,268,267,269,-1,268,269,270,-1,270,269,271,-1,272,273,33,-1,33,273,274,-1,33,274,34,-1,34,275,276,-1,276,275,277,-1,253,278,255,-1,255,278,279,-1,255,279,280,-1,281,282,34,-1,34,282,283,-1,280,284,255,-1,255,284,285,-1,255,285,275,-1,275,285,286,-1,275,286,277,-1,287,288,276,-1,276,288,289,-1,276,289,34,-1,34,289,290,-1,34,290,281,-1,283,291,34,-1,34,291,292,-1,34,292,32,-1,293,294,295,-1,295,294,296,-1,295,296,297,-1,295,298,293,-1,293,298,299,-1,293,299,300,-1,300,301,293,-1,293,301,302,-1,293,302,303,-1,303,302,304,-1,303,304,305,-1,305,304,306,-1,305,306,276,-1,276,306,307,-1,276,307,287,-1,308,309,297,-1,297,309,310,-1,297,310,295,-1,311,312,257,-1,257,312,313,-1,257,313,258,-1,311,314,312,-1,312,314,315,-1,312,315,316,-1,316,315,317,-1,316,318,319,-1,317,320,316,-1,316,320,321,-1,316,321,322,-1,322,323,316,-1,316,323,324,-1,316,324,318,-1,319,325,316,-1,316,325,326,-1,316,326,327,-1,196,328,329,-1,330,331,329,-1,329,331,223,-1,329,223,196,-1,196,223,224,-1,196,224,225,-1,328,196,332,-1,332,196,333,-1,332,333,334,-1,331,335,223,-1,223,335,336,-1,223,336,247,-1,247,336,337,-1,247,337,338,-1,338,337,339,-1,338,339,334,-1,334,339,340,-1,334,340,332,-1,341,342,343,-1,343,342,344,-1,345,346,342,-1,342,346,347,-1,342,347,344,-1,344,347,348,-1,349,249,350,-1,351,352,249,-1,249,352,341,-1,249,341,350,-1,350,341,353,-1,354,355,247,-1,356,357,338,-1,355,358,247,-1,247,358,359,-1,247,359,249,-1,249,359,360,-1,249,360,351,-1,356,338,361,-1,345,362,346,-1,346,362,363,-1,346,363,338,-1,338,363,364,-1,338,364,361,-1,357,365,338,-1,338,365,366,-1,338,366,247,-1,247,366,367,-1,247,367,354,-1,368,369,370,-1,370,369,371,-1,370,371,372,-1,371,353,372,-1,372,353,341,-1,372,341,373,-1,373,341,343,-1,373,343,374,-1,374,343,375,-1,374,375,376,-1,376,375,377,-1,348,347,378,-1,378,347,379,-1,378,379,380,-1,381,382,383,-1,383,382,384,-1,383,384,385,-1,385,384,386,-1,385,386,387,-1,387,386,388,-1,389,390,391,-1,386,392,393,-1,394,395,396,-1,396,395,397,-1,390,398,391,-1,391,398,397,-1,391,397,399,-1,399,397,395,-1,389,391,386,-1,386,391,400,-1,386,400,401,-1,393,402,386,-1,386,402,403,-1,386,403,388,-1,401,404,386,-1,386,404,405,-1,386,405,392,-1,406,407,408,-1,408,407,409,-1,408,409,410,-1,410,409,411,-1,412,413,414,-1,414,413,415,-1,414,415,416,-1,417,418,419,-1,419,418,420,-1,417,421,418,-1,418,421,422,-1,418,422,423,-1,424,425,426,-1,427,428,424,-1,424,428,429,-1,424,429,425,-1,426,430,424,-1,424,430,431,-1,424,431,432,-1,433,434,435,-1,435,434,436,-1,435,436,437,-1,383,438,381,-1,381,438,439,-1,381,439,440,-1,440,439,441,-1,440,441,442,-1,443,444,434,-1,434,444,445,-1,445,444,446,-1,445,446,447,-1,448,449,450,-1,450,449,451,-1,452,453,451,-1,451,453,443,-1,451,443,450,-1,450,443,434,-1,192,31,44,-1,44,31,30,-1,44,30,454,-1,455,456,450,-1,448,450,457,-1,457,450,456,-1,457,456,458,-1,446,459,447,-1,447,459,29,-1,447,29,105,-1,105,29,31,-1,105,31,106,-1,106,31,195,-1,445,460,461,-1,462,463,464,-1,464,463,465,-1,461,466,445,-1,445,466,467,-1,445,467,468,-1,445,469,434,-1,434,469,470,-1,434,470,471,-1,468,472,445,-1,445,472,473,-1,445,473,474,-1,475,476,477,-1,478,479,465,-1,465,479,480,-1,465,480,481,-1,474,482,445,-1,445,482,483,-1,445,483,469,-1,469,483,484,-1,469,484,485,-1,485,486,469,-1,469,486,487,-1,469,487,488,-1,488,487,477,-1,488,477,489,-1,489,477,476,-1,490,491,436,-1,436,491,492,-1,471,493,434,-1,434,493,494,-1,434,494,436,-1,436,494,495,-1,436,495,490,-1,492,496,436,-1,436,496,497,-1,436,497,498,-1,499,500,477,-1,477,500,501,-1,477,501,502,-1,502,503,477,-1,477,503,504,-1,477,504,475,-1,505,506,507,-1,507,506,508,-1,507,508,509,-1,510,511,34,-1,34,511,512,-1,34,512,275,-1,275,512,513,-1,275,513,37,-1,514,515,516,-1,516,517,514,-1,514,517,518,-1,514,518,513,-1,513,518,519,-1,513,519,37,-1,37,519,520,-1,37,520,251,-1,521,522,523,-1,523,522,524,-1,523,524,274,-1,274,524,525,-1,274,525,526,-1,526,527,274,-1,274,527,528,-1,274,528,34,-1,34,528,529,-1,34,529,530,-1,530,531,34,-1,34,531,532,-1,34,532,533,-1,533,534,34,-1,34,534,535,-1,34,535,510,-1,536,537,523,-1,523,537,538,-1,523,538,521,-1,539,540,91,-1,541,542,543,-1,91,540,544,-1,544,540,545,-1,544,545,546,-1,547,548,544,-1,544,548,549,-1,544,549,541,-1,541,549,550,-1,541,550,542,-1,543,551,541,-1,541,551,552,-1,541,552,553,-1,554,555,91,-1,91,555,556,-1,91,556,539,-1,546,557,544,-1,544,557,558,-1,544,558,547,-1,553,559,94,-1,94,559,560,-1,94,560,561,-1,561,562,94,-1,94,562,563,-1,94,563,91,-1,91,563,564,-1,91,564,554,-1,26,565,566,-1,566,565,567,-1,566,567,568,-1,568,567,569,-1,568,569,570,-1,570,569,571,-1,570,571,572,-1,572,571,523,-1,572,523,573,-1,573,523,274,-1,573,274,574,-1,574,274,273,-1,574,273,575,-1,575,273,576,-1,575,576,577,-1,577,576,508,-1,577,508,578,-1,578,508,506,-1,578,506,579,-1,579,506,580,-1,579,580,89,-1,89,580,99,-1,89,99,87,-1,87,99,102,-1,505,460,506,-1,506,460,445,-1,506,445,580,-1,580,445,447,-1,580,447,99,-1,99,447,105,-1,99,105,97,-1,97,105,113,-1,97,113,117,-1,272,271,273,-1,273,271,269,-1,273,269,576,-1,576,269,267,-1,576,267,508,-1,508,267,464,-1,508,464,509,-1,509,464,465,-1,509,465,581,-1,581,465,481,-1,565,582,567,-1,567,582,202,-1,567,202,569,-1,569,202,215,-1,569,215,571,-1,571,215,231,-1,571,231,523,-1,523,231,251,-1,523,251,536,-1,536,251,520,-1,266,261,267,-1,267,261,254,-1,267,254,464,-1,464,254,436,-1,464,436,462,-1,462,436,498,-1,433,420,434,-1,434,420,418,-1,434,418,450,-1,450,418,583,-1,450,583,455,-1,36,248,37,-1,37,248,249,-1,37,249,275,-1,275,249,349,-1,275,349,255,-1,255,349,584,-1,255,584,254,-1,254,584,381,-1,254,381,436,-1,436,381,440,-1,436,440,437,-1,437,440,442,-1,585,586,583,-1,583,586,587,-1,588,589,590,-1,590,589,43,-1,590,43,587,-1,587,43,44,-1,587,44,583,-1,583,44,454,-1,583,454,455,-1,423,427,418,-1,418,427,424,-1,418,424,583,-1,583,424,589,-1,583,589,585,-1,585,589,588,-1,585,588,591,-1,350,592,349,-1,349,592,380,-1,349,380,584,-1,584,380,379,-1,584,379,381,-1,381,379,407,-1,381,407,382,-1,382,407,406,-1,206,203,204,-1,204,203,202,-1,204,202,593,-1,593,202,582,-1,593,582,594,-1,594,582,595,-1,594,595,198,-1,198,595,596,-1,198,596,196,-1,196,596,597,-1,196,597,333,-1,26,28,565,-1,565,28,598,-1,565,598,582,-1,582,598,599,-1,582,599,595,-1,595,599,600,-1,595,600,596,-1,596,600,601,-1,596,601,597,-1,553,94,541,-1,541,94,76,-1,541,76,602,-1,602,76,80,-1,602,80,603,-1,603,80,58,-1,603,58,604,-1,604,58,57,-1,604,57,605,-1,605,57,53,-1,605,53,13,-1,432,416,424,-1,424,416,415,-1,424,415,589,-1,589,415,606,-1,589,606,43,-1,43,606,54,-1,43,54,45,-1,45,54,56,-1,601,2,597,-1,597,2,607,-1,597,607,333,-1,333,607,608,-1,333,608,334,-1,334,608,609,-1,334,609,338,-1,338,609,610,-1,338,610,346,-1,346,610,611,-1,346,611,347,-1,347,611,612,-1,347,612,379,-1,379,612,613,-1,379,613,407,-1,407,613,614,-1,407,614,409,-1,409,614,413,-1,409,413,411,-1,411,413,412,-1,2,601,0,-1,0,601,600,-1,0,600,599,-1,27,615,28,-1,28,615,0,-1,28,0,598,-1,598,0,599,-1,15,616,544,-1,544,541,15,-1,15,541,602,-1,15,602,603,-1,603,604,15,-1,15,604,605,-1,15,605,13,-1,544,616,617,-1,617,618,544,-1,544,618,619,-1,544,619,27,-1,620,621,622,-1,623,624,27,-1,622,623,620,-1,620,623,27,-1,620,27,625,-1,625,27,619,-1,625,619,626,-1,626,619,627,-1,628,615,629,-1,629,615,27,-1,629,27,630,-1,630,27,624,-1,630,624,631,-1,631,624,632,-1,633,617,616,-1,634,635,0,-1,634,0,636,-1,637,638,639,-1,628,640,615,-1,615,640,641,-1,615,641,0,-1,0,641,642,-1,0,642,636,-1,643,644,635,-1,635,644,645,-1,637,639,646,-1,645,647,635,-1,635,647,648,-1,635,648,0,-1,0,648,649,-1,0,649,1,-1,646,639,650,-1,650,639,651,-1,650,651,652,-1,652,651,653,-1,652,653,654,-1,643,635,652,-1,652,635,655,-1,652,655,650,-1,656,631,632,-1,654,657,652,-1,652,657,658,-1,652,658,659,-1,659,658,660,-1,661,662,660,-1,660,662,663,-1,660,663,659,-1,638,664,639,-1,639,664,656,-1,639,656,665,-1,665,656,632,-1,666,667,668,-1,15,669,670,-1,661,671,662,-1,662,671,666,-1,662,666,672,-1,672,666,668,-1,672,668,673,-1,673,668,674,-1,673,674,675,-1,675,674,676,-1,675,676,677,-1,677,678,679,-1,679,678,680,-1,679,680,681,-1,670,682,15,-1,15,682,683,-1,15,683,616,-1,616,683,684,-1,616,684,633,-1,622,621,685,-1,685,621,686,-1,685,686,687,-1,687,686,688,-1,687,688,666,-1,666,688,689,-1,666,689,667,-1,690,626,627,-1,691,692,693,-1,693,692,694,-1,693,694,695,-1,695,694,675,-1,695,675,696,-1,696,675,677,-1,696,677,697,-1,697,677,679,-1,14,698,15,-1,15,698,692,-1,15,692,669,-1,669,692,691,-1,681,699,679,-1,679,699,690,-1,679,690,700,-1,700,690,627,-1,
        ]
    }
}
Shape{
    appearance Appearance {
        material  Material 	{
            diffuseColor 0.8509803921568627 0.8509803921568627 0.8509803921568627
            specularColor 0.4235294117647059 0.4235294117647059 0.4235294117647059
            ambientIntensity 0.851
            transparency 0.0
            shininess 0.5
        }
    }
    geometry IndexedFaceSet {
        ccw TRUE
        solid FALSE
        coord DEF co Coordinate {
            point [
                -0.336 -0.1151 0.311, -0.336 -0.1151 0.3189, -0.3385 -0.0958 0.311, -0.3385 -0.0958 0.3189, -0.346 -0.0777 0.311, -0.346 -0.0777 0.3189, -0.3579 -0.0622 0.311, -0.3579 -0.0622 0.3189, -0.3734 -0.0504 0.311, -0.3734 -0.0504 0.3189, -0.3914 -0.0429 0.311, -0.3914 -0.0429 0.3189, -0.4108 -0.0403 0.311, -0.4108 -0.0403 0.3189, -0.4301 -0.0429 0.311, -0.4301 -0.0429 0.3189, -0.4481 -0.0504 0.311, -0.4481 -0.0504 0.3189, -0.4636 -0.0622 0.311, -0.4636 -0.0622 0.3189, -0.4755 -0.0777 0.311, -0.4755 -0.0777 0.3189, -0.483 -0.0958 0.311, -0.483 -0.0958 0.3189, -0.4855 -0.1151 0.311, -0.4855 -0.1151 0.3189, -0.483 -0.1345 0.311, -0.483 -0.1345 0.3189, -0.4755 -0.1525 0.311, -0.4755 -0.1525 0.3189, -0.4636 -0.168 0.311, -0.4636 -0.168 0.3189, -0.4481 -0.1799 0.311, -0.4481 -0.1799 0.3189, -0.4301 -0.1873 0.311, -0.4301 -0.1873 0.3189, -0.4108 -0.1899 0.311, -0.4108 -0.1899 0.3189, -0.3914 -0.1873 0.311, -0.3914 -0.1873 0.3189, -0.3734 -0.1799 0.311, -0.3734 -0.1799 0.3189, -0.3579 -0.168 0.311, -0.3579 -0.168 0.3189, -0.346 -0.1525 0.311, -0.346 -0.1525 0.3189, -0.3385 -0.1345 0.311, -0.3385 -0.1345 0.3189, -0.4108 -0.1151 0.311
            ]
        }
        coordIndex [
            0,1,2,-1,2,1,3,-1,2,3,4,-1,4,3,5,-1,4,5,6,-1,6,5,7,-1,6,7,8,-1,8,7,9,-1,8,9,10,-1,10,9,11,-1,10,11,12,-1,12,11,13,-1,12,13,14,-1,14,13,15,-1,14,15,16,-1,16,15,17,-1,16,17,18,-1,18,17,19,-1,18,19,20,-1,20,19,21,-1,20,21,22,-1,22,21,23,-1,22,23,24,-1,24,23,25,-1,24,25,26,-1,26,25,27,-1,26,27,28,-1,28,27,29,-1,28,29,30,-1,30,29,31,-1,30,31,32,-1,32,31,33,-1,32,33,34,-1,34,33,35,-1,34,35,36,-1,36,35,37,-1,36,37,38,-1,38,37,39,-1,38,39,40,-1,40,39,41,-1,40,41,42,-1,42,41,43,-1,42,43,44,-1,44,43,45,-1,44,45,46,-1,46,45,47,-1,46,47,0,-1,0,47,1,-1,44,46,48,-1,48,46,0,-1,48,0,2,-1,38,40,48,-1,48,40,42,-1,48,42,44,-1,32,34,48,-1,48,34,36,-1,48,36,38,-1,26,28,48,-1,48,28,30,-1,48,30,32,-1,20,22,48,-1,48,22,24,-1,48,24,26,-1,14,16,48,-1,48,16,18,-1,48,18,20,-1,8,10,48,-1,48,10,12,-1,48,12,14,-1,2,4,48,-1,48,4,6,-1,48,6,8,-1,
        ]
    }
}
Shape{
    appearance Appearance {
        material  Material 	{
            diffuseColor 1.0 1.0 1.0
            specularColor 0.5019607843137255 0.5019607843137255 0.5019607843137255
            ambientIntensity 1.0
            transparency 0.0
            shininess 0.5
        }
    }
    geometry IndexedFaceSet {
        ccw TRUE
        solid FALSE
        coord DEF co Coordinate {
            point [
                0.3364 0.7928 0.3193, 0.3364 0.7883 0.3193, 0.3364 0.7928 0.3189, 0.3364 0.7883 0.3189, 0.3205 0.7928 0.3193, 0.3205 0.7928 0.3189, 0.3205 0.8283 0.3193, 0.3205 0.8283 0.3189, 0.3153 0.8283 0.3193, 0.3153 0.8283 0.3189, 0.3153 0.7883 0.3193, 0.3153 0.7883 0.3189, 0.3663 0.7892 0.3189, 0.3673 0.7896 0.3193, 0.363 0.7882 0.3189, 0.363 0.7882 0.3193, 0.3605 0.7879 0.3189, 0.3569 0.7876 0.3193, 0.3569 0.7876 0.3189, 0.3673 0.7896 0.3189, 0.368 0.7899 0.3189, 0.368 0.7899 0.3193, 0.368 0.7949 0.3193, 0.368 0.7949 0.3189, 0.3663 0.7941 0.3189, 0.3641 0.7931 0.3193, 0.3641 0.7931 0.3189, 0.3596 0.7923 0.3189, 0.3596 0.7923 0.3193, 0.3577 0.7922 0.3189, 0.3577 0.7922 0.3193, 0.3536 0.7927 0.3189, 0.3536 0.7927 0.3193, 0.3508 0.7938 0.3189, 0.3508 0.7938 0.3193, 0.3482 0.7956 0.3189, 0.3482 0.7956 0.3193, 0.3474 0.7964 0.3189, 0.3474 0.7964 0.3193, 0.3454 0.7991 0.3189, 0.3454 0.7991 0.3193, 0.3441 0.8023 0.3189, 0.3441 0.8023 0.3193, 0.3435 0.8064 0.3189, 0.3435 0.8064 0.3193, 0.3435 0.8078 0.3189, 0.3435 0.8078 0.3193, 0.3441 0.8134 0.3189, 0.3441 0.8134 0.3193, 0.3455 0.8168 0.3189, 0.3455 0.8168 0.3193, 0.3477 0.8199 0.3189, 0.3477 0.8199 0.3193, 0.3504 0.8221 0.3189, 0.3504 0.8221 0.3193, 0.3535 0.8236 0.3189, 0.3535 0.8236 0.3193, 0.357 0.8242 0.3189, 0.357 0.8242 0.3193, 0.3586 0.8243 0.3189, 0.3586 0.8243 0.3193, 0.368 0.8219 0.3189, 0.368 0.8219 0.3193, 0.3676 0.8222 0.3193, 0.3635 0.8237 0.3189, 0.3635 0.8237 0.3193, 0.3663 0.8227 0.3189, 0.3676 0.8222 0.3189, 0.368 0.8273 0.3193, 0.368 0.8273 0.3189, 0.3585 0.829 0.3189, 0.3585 0.829 0.3193, 0.3586 0.829 0.3193, 0.3663 0.8278 0.3189, 0.3638 0.8286 0.3193, 0.3638 0.8286 0.3189, 0.3628 0.8286 0.3189, 0.3586 0.829 0.3189, 0.3558 0.8286 0.3189, 0.3527 0.8283 0.3193, 0.3527 0.8283 0.3189, 0.3485 0.8266 0.3189, 0.3485 0.8266 0.3193, 0.3448 0.824 0.3189, 0.3448 0.824 0.3193, 0.3438 0.8231 0.3189, 0.3438 0.8231 0.3193, 0.3409 0.8193 0.3189, 0.3409 0.8193 0.3193, 0.339 0.8148 0.3189, 0.339 0.8148 0.3193, 0.3381 0.8096 0.3189, 0.3381 0.8096 0.3193, 0.338 0.8075 0.3189, 0.338 0.8075 0.3193, 0.3388 0.8009 0.3189, 0.3388 0.8009 0.3193, 0.3405 0.7968 0.3189, 0.3405 0.7968 0.3193, 0.3432 0.7931 0.3189, 0.3432 0.7931 0.3193, 0.3502 0.7886 0.3189, 0.3464 0.7904 0.3193, 0.3464 0.7904 0.3189, 0.3534 0.7879 0.3189, 0.3545 0.7877 0.3193, 0.3502 0.7886 0.3193, 0.3545 0.7877 0.3189, 0.3976 0.7928 0.3193, 0.3976 0.7883 0.3193, 0.3976 0.7928 0.3189, 0.3976 0.7883 0.3189, 0.3812 0.7928 0.3189, 0.3812 0.7928 0.3193, 0.392 0.7928 0.3189, 0.3812 0.8063 0.3193, 0.3812 0.8063 0.3189, 0.3955 0.8063 0.3189, 0.3955 0.8063 0.3193, 0.392 0.8063 0.3189, 0.3955 0.8109 0.3193, 0.3955 0.8109 0.3189, 0.3812 0.8109 0.3189, 0.3812 0.8109 0.3193, 0.392 0.8109 0.3189, 0.3812 0.8237 0.3193, 0.3812 0.8237 0.3189, 0.3966 0.8237 0.3189, 0.3966 0.8237 0.3193, 0.392 0.8237 0.3189, 0.3966 0.8283 0.3193, 0.3966 0.8283 0.3189, 0.376 0.8283 0.3189, 0.376 0.8283 0.3193, 0.392 0.8283 0.3189, 0.376 0.7883 0.3193, 0.376 0.7883 0.3189, 0.392 0.7883 0.3189, 0.43 0.7995 0.3193, 0.428 0.797 0.3193, 0.4317 0.7939 0.3193, 0.4273 0.7963 0.3193, 0.4275 0.7909 0.3193, 0.4246 0.7946 0.3193, 0.423 0.7891 0.3193, 0.4212 0.7934 0.3193, 0.4161 0.7883 0.3193, 0.4161 0.7928 0.3193, 0.4051 0.7883 0.3193, 0.4103 0.7928 0.3193, 0.4051 0.8283 0.3193, 0.4103 0.8237 0.3193, 0.4165 0.8283 0.3193, 0.4163 0.8237 0.3193, 0.4227 0.8276 0.3193, 0.4215 0.8231 0.3193, 0.4275 0.8259 0.3193, 0.425 0.8219 0.3193, 0.4317 0.823 0.3193, 0.4279 0.8199 0.3193, 0.4331 0.8216 0.3193, 0.429 0.8189 0.3193, 0.4355 0.8182 0.3193, 0.4305 0.8166 0.3193, 0.437 0.8143 0.3193, 0.4317 0.8137 0.3193, 0.4377 0.8088 0.3193, 0.4323 0.8086 0.3193, 0.4376 0.8062 0.3193, 0.4321 0.8061 0.3193, 0.4366 0.8016 0.3193, 0.4314 0.8025 0.3193, 0.4347 0.7974 0.3193, 0.4161 0.7883 0.3189, 0.4051 0.7883 0.3189, 0.4317 0.7939 0.3189, 0.423 0.7891 0.3189, 0.4235 0.7893 0.3189, 0.4275 0.7909 0.3189, 0.4347 0.7974 0.3189, 0.4366 0.8016 0.3189, 0.4376 0.8062 0.3189, 0.4377 0.8088 0.3189, 0.437 0.8143 0.3189, 0.4355 0.8182 0.3189, 0.4331 0.8216 0.3189, 0.4317 0.823 0.3189, 0.4275 0.8259 0.3189, 0.4235 0.8273 0.3189, 0.4227 0.8276 0.3189, 0.4165 0.8283 0.3189, 0.4051 0.8283 0.3189, 0.4163 0.8237 0.3189, 0.4103 0.8237 0.3189, 0.4103 0.7928 0.3189, 0.4161 0.7928 0.3189, 0.428 0.797 0.3189, 0.4273 0.7963 0.3189, 0.4246 0.7946 0.3189, 0.4212 0.7934 0.3189, 0.4323 0.8086 0.3189, 0.4321 0.8061 0.3189, 0.4314 0.8025 0.3189, 0.43 0.7995 0.3189, 0.4279 0.8199 0.3189, 0.429 0.8189 0.3189, 0.4305 0.8166 0.3189, 0.4317 0.8137 0.3189, 0.4215 0.8231 0.3189, 0.425 0.8219 0.3189
            ]
        }
        coordIndex [
            0,1,2,-1,2,1,3,-1,4,0,5,-1,5,0,2,-1,6,4,7,-1,7,4,5,-1,8,6,9,-1,9,6,7,-1,10,8,11,-1,11,8,9,-1,1,10,3,-1,3,10,11,-1,6,8,4,-1,4,8,10,-1,4,10,0,-1,0,10,1,-1,12,13,14,-1,14,13,15,-1,14,15,16,-1,16,15,17,-1,16,17,18,-1,12,19,13,-1,13,19,20,-1,13,20,21,-1,22,21,23,-1,23,21,20,-1,22,23,24,-1,22,24,25,-1,24,26,25,-1,25,26,27,-1,25,27,28,-1,28,27,29,-1,28,29,30,-1,30,29,31,-1,30,31,32,-1,32,31,33,-1,32,33,34,-1,34,33,35,-1,34,35,36,-1,36,35,37,-1,36,37,38,-1,38,37,39,-1,38,39,40,-1,40,39,41,-1,40,41,42,-1,42,41,43,-1,42,43,44,-1,44,43,45,-1,44,45,46,-1,46,45,47,-1,46,47,48,-1,48,47,49,-1,48,49,50,-1,50,49,51,-1,50,51,52,-1,52,51,53,-1,52,53,54,-1,54,53,55,-1,54,55,56,-1,56,55,57,-1,56,57,58,-1,58,57,59,-1,58,59,60,-1,61,62,63,-1,60,59,64,-1,60,64,65,-1,65,64,66,-1,65,66,63,-1,63,66,67,-1,63,67,61,-1,68,62,69,-1,69,62,61,-1,70,71,72,-1,68,69,73,-1,68,73,74,-1,73,75,74,-1,74,75,76,-1,74,76,72,-1,72,76,77,-1,72,77,70,-1,71,70,78,-1,71,78,79,-1,78,80,79,-1,79,80,81,-1,79,81,82,-1,82,81,83,-1,82,83,84,-1,84,83,85,-1,84,85,86,-1,86,85,87,-1,86,87,88,-1,88,87,89,-1,88,89,90,-1,90,89,91,-1,90,91,92,-1,92,91,93,-1,92,93,94,-1,94,93,95,-1,94,95,96,-1,96,95,97,-1,96,97,98,-1,98,97,99,-1,98,99,100,-1,101,102,103,-1,103,102,100,-1,103,100,99,-1,104,105,101,-1,101,105,106,-1,101,106,102,-1,104,107,105,-1,105,107,18,-1,105,18,17,-1,63,62,68,-1,54,84,52,-1,52,84,86,-1,52,86,50,-1,50,86,88,-1,50,88,48,-1,63,68,65,-1,65,68,74,-1,65,74,60,-1,60,74,72,-1,60,72,58,-1,58,72,71,-1,58,71,56,-1,56,71,79,-1,56,79,54,-1,54,79,82,-1,54,82,84,-1,94,46,92,-1,92,46,48,-1,92,48,90,-1,90,48,88,-1,21,22,13,-1,13,22,25,-1,13,25,15,-1,15,25,28,-1,15,28,17,-1,17,28,30,-1,17,30,105,-1,105,30,32,-1,105,32,106,-1,106,32,34,-1,106,34,102,-1,102,34,36,-1,102,36,100,-1,100,36,38,-1,100,38,98,-1,98,38,40,-1,98,40,96,-1,96,40,42,-1,96,42,94,-1,94,42,44,-1,94,44,46,-1,108,109,110,-1,110,109,111,-1,112,113,114,-1,114,113,108,-1,114,108,110,-1,115,113,116,-1,116,113,112,-1,117,118,119,-1,119,118,115,-1,119,115,116,-1,120,118,121,-1,121,118,117,-1,122,123,124,-1,124,123,120,-1,124,120,121,-1,125,123,126,-1,126,123,122,-1,127,128,129,-1,129,128,125,-1,129,125,126,-1,130,128,131,-1,131,128,127,-1,132,133,134,-1,134,133,130,-1,134,130,131,-1,135,133,136,-1,136,133,132,-1,111,109,137,-1,137,109,135,-1,137,135,136,-1,135,109,108,-1,108,113,135,-1,135,113,115,-1,135,115,133,-1,128,130,125,-1,125,130,133,-1,125,133,123,-1,123,133,115,-1,123,115,120,-1,120,115,118,-1,138,139,140,-1,140,139,141,-1,140,141,142,-1,142,141,143,-1,142,143,144,-1,144,143,145,-1,144,145,146,-1,146,145,147,-1,146,147,148,-1,148,147,149,-1,148,149,150,-1,150,149,151,-1,150,151,152,-1,152,151,153,-1,152,153,154,-1,154,153,155,-1,154,155,156,-1,156,155,157,-1,156,157,158,-1,158,157,159,-1,158,159,160,-1,160,159,161,-1,160,161,162,-1,162,161,163,-1,162,163,164,-1,164,163,165,-1,164,165,166,-1,166,165,167,-1,166,167,168,-1,168,167,169,-1,168,169,170,-1,170,169,171,-1,170,171,172,-1,172,171,138,-1,172,138,140,-1,146,148,173,-1,173,148,174,-1,175,140,142,-1,146,173,176,-1,146,176,144,-1,144,176,177,-1,144,177,142,-1,142,177,178,-1,142,178,175,-1,140,175,179,-1,140,179,172,-1,172,179,180,-1,172,180,170,-1,170,180,181,-1,170,181,168,-1,168,181,182,-1,168,182,166,-1,166,182,183,-1,166,183,164,-1,164,183,184,-1,164,184,162,-1,162,184,185,-1,162,185,160,-1,160,185,186,-1,160,186,158,-1,158,186,187,-1,188,154,187,-1,187,154,156,-1,187,156,158,-1,188,189,154,-1,154,189,190,-1,154,190,152,-1,150,152,191,-1,191,152,190,-1,148,150,174,-1,174,150,191,-1,153,151,192,-1,192,151,193,-1,151,149,193,-1,193,149,194,-1,149,147,194,-1,194,147,195,-1,139,196,197,-1,139,197,141,-1,141,197,198,-1,141,198,143,-1,143,198,199,-1,143,199,145,-1,145,199,195,-1,145,195,147,-1,167,200,201,-1,167,201,169,-1,169,201,202,-1,169,202,171,-1,171,202,203,-1,171,203,138,-1,138,203,196,-1,138,196,139,-1,159,204,205,-1,159,205,161,-1,161,205,206,-1,161,206,163,-1,163,206,207,-1,163,207,165,-1,165,207,200,-1,165,200,167,-1,153,192,208,-1,153,208,155,-1,155,208,209,-1,155,209,157,-1,157,209,204,-1,157,204,159,-1,
        ]
    }
}
Shape{
    appearance Appearance {
        material  Material 	{
            diffuseColor 0.25098039215686274 0.25098039215686274 0.25098039215686274
            specularColor 0.12549019607843137 0.12549019607843137 0.12549019607843137
            ambientIntensity 0.251
            transparency 0.0
            shininess 0.5
        }
    }
    geometry IndexedFaceSet {
        ccw TRUE
        solid FALSE
        coord DEF co Coordinate {
            point [
                0.4103 0.8237 0.3189, 0.4103 0.7928 0.3189, 0.4163 0.8237 0.3189, 0.4161 0.7928 0.3189, 0.4212 0.7934 0.3189, 0.4246 0.7946 0.3189, 0.4273 0.7963 0.3189, 0.428 0.797 0.3189, 0.43 0.7995 0.3189, 0.4314 0.8025 0.3189, 0.4321 0.8061 0.3189, 0.4323 0.8086 0.3189, 0.4317 0.8137 0.3189, 0.4305 0.8166 0.3189, 0.429 0.8189 0.3189, 0.4279 0.8199 0.3189, 0.4215 0.8231 0.3189, 0.425 0.8219 0.3189
            ]
        }
        coordIndex [
            0,1,2,-1,2,1,3,-1,2,3,4,-1,4,5,2,-1,2,5,6,-1,2,6,7,-1,7,8,2,-1,2,8,9,-1,2,9,10,-1,10,11,2,-1,2,11,12,-1,2,12,13,-1,13,14,2,-1,2,14,15,-1,2,15,16,-1,16,15,17,-1,
        ]
    }
}
Shape{
    appearance Appearance {
        material  Material 	{
            diffuseColor 1.0 1.0 1.0
            specularColor 0.5019607843137255 0.5019607843137255 0.5019607843137255
            ambientIntensity 1.0
            transparency 0.0
            shininess 0.5
        }
    }
    geometry IndexedFaceSet {
        ccw TRUE
        solid FALSE
        coord DEF co Coordinate {
            point [
                0.4511 0.8037 0.3193, 0.4495 0.7992 0.3193, 0.4646 0.8037 0.3193, 0.4662 0.7992 0.3193, 0.4571 0.8204 0.3193, 0.4552 0.8283 0.3193, 0.4399 0.7883 0.3193, 0.4456 0.7883 0.3193, 0.4575 0.8216 0.3193, 0.4578 0.8232 0.3193, 0.4607 0.8283 0.3193, 0.4579 0.8232 0.3193, 0.4582 0.8215 0.3193, 0.4585 0.8204 0.3193, 0.476 0.7883 0.3193, 0.4702 0.7883 0.3193, 0.4607 0.8283 0.3189, 0.476 0.7883 0.3189, 0.4552 0.8283 0.3189, 0.4399 0.7883 0.3189, 0.4515 0.8186 0.3189, 0.4456 0.7883 0.3189, 0.4495 0.7992 0.3189, 0.4662 0.7992 0.3189, 0.4515 0.7992 0.3189, 0.4702 0.7883 0.3189, 0.4511 0.8037 0.3189, 0.4646 0.8037 0.3189, 0.4585 0.8204 0.3189, 0.4579 0.8232 0.3189, 0.4582 0.8215 0.3189, 0.4578 0.8232 0.3189, 0.4571 0.8204 0.3189, 0.4575 0.8216 0.3189
            ]
        }
        coordIndex [
            0,1,2,-1,2,1,3,-1,4,5,0,-1,0,5,6,-1,0,6,1,-1,1,6,7,-1,4,8,5,-1,5,8,9,-1,5,9,10,-1,10,9,11,-1,10,11,12,-1,12,13,10,-1,10,13,2,-1,10,2,14,-1,14,2,3,-1,14,3,15,-1,10,14,16,-1,16,14,17,-1,5,10,18,-1,18,10,16,-1,19,6,20,-1,20,6,5,-1,20,5,18,-1,7,6,21,-1,21,6,19,-1,1,7,22,-1,22,7,21,-1,23,3,24,-1,24,3,1,-1,24,1,22,-1,15,3,25,-1,25,3,23,-1,14,15,17,-1,17,15,25,-1,0,2,26,-1,26,2,27,-1,2,13,27,-1,27,13,28,-1,11,29,30,-1,11,30,12,-1,12,30,28,-1,12,28,13,-1,11,9,29,-1,29,9,31,-1,4,32,33,-1,4,33,8,-1,8,33,31,-1,8,31,9,-1,4,0,32,-1,32,0,26,-1,
        ]
    }
}
Shape{
    appearance Appearance {
        material  Material 	{
            diffuseColor 0.25098039215686274 0.25098039215686274 0.25098039215686274
            specularColor 0.12549019607843137 0.12549019607843137 0.12549019607843137
            ambientIntensity 0.251
            transparency 0.0
            shininess 0.5
        }
    }
    geometry IndexedFaceSet {
        ccw TRUE
        solid FALSE
        coord DEF co Coordinate {
            point [
                0.4579 0.8232 0.3189, 0.4578 0.8232 0.3189, 0.4582 0.8215 0.3189, 0.4575 0.8216 0.3189, 0.4585 0.8204 0.3189, 0.4571 0.8204 0.3189, 0.4646 0.8037 0.3189, 0.4511 0.8037 0.3189
            ]
        }
        coordIndex [
            0,1,2,-1,2,1,3,-1,2,3,4,-1,4,3,5,-1,4,5,6,-1,6,5,7,-1,
        ]
    }
}
Shape{
    appearance Appearance {
        material  Material 	{
            diffuseColor 1.0 1.0 1.0
            specularColor 0.5019607843137255 0.5019607843137255 0.5019607843137255
            ambientIntensity 1.0
            transparency 0.0
            shininess 0.5
        }
    }
    geometry IndexedFaceSet {
        ccw TRUE
        solid FALSE
        coord DEF co Coordinate {
            point [
                0.3368 0.7293 0.3193, 0.3368 0.7248 0.3193, 0.3368 0.7293 0.3189, 0.3368 0.7248 0.3189, 0.3205 0.7293 0.3189, 0.3205 0.7293 0.3193, 0.3366 0.7293 0.3189, 0.3205 0.7428 0.3193, 0.3205 0.7428 0.3189, 0.3348 0.7428 0.3193, 0.3348 0.7428 0.3189, 0.3348 0.7474 0.3193, 0.3348 0.7474 0.3189, 0.3205 0.7474 0.3193, 0.3205 0.7474 0.3189, 0.3205 0.7602 0.3193, 0.3205 0.7594 0.3189, 0.3205 0.7602 0.3189, 0.3359 0.7602 0.3193, 0.3359 0.7602 0.3189, 0.3359 0.7648 0.3193, 0.3359 0.7648 0.3189, 0.3153 0.7648 0.3193, 0.3153 0.7648 0.3189, 0.3153 0.7248 0.3189, 0.3153 0.7248 0.3193, 0.3153 0.7594 0.3189, 0.3366 0.7248 0.3189, 0.3596 0.7248 0.3193, 0.3646 0.7248 0.3193, 0.3596 0.7292 0.3193, 0.3646 0.7432 0.3193, 0.3596 0.7429 0.3193, 0.3486 0.7369 0.3193, 0.3498 0.7375 0.3193, 0.3594 0.7292 0.3193, 0.3568 0.7299 0.3193, 0.3587 0.728 0.3193, 0.3554 0.729 0.3193, 0.3529 0.7382 0.3193, 0.3596 0.7391 0.3193, 0.3596 0.7364 0.3193, 0.3596 0.736 0.3193, 0.3592 0.7338 0.3193, 0.3585 0.732 0.3193, 0.3574 0.7305 0.3193, 0.3594 0.7451 0.3193, 0.3641 0.7474 0.3193, 0.3589 0.7469 0.3193, 0.3633 0.7495 0.3193, 0.3583 0.7479 0.3193, 0.3622 0.7511 0.3193, 0.3575 0.7488 0.3193, 0.3444 0.7513 0.3193, 0.3444 0.7465 0.3193, 0.3454 0.7519 0.3193, 0.3479 0.7486 0.3193, 0.3491 0.7534 0.3193, 0.351 0.7497 0.3193, 0.3543 0.754 0.3193, 0.3538 0.7499 0.3193, 0.3543 0.754 0.3193, 0.3555 0.7497 0.3193, 0.3578 0.7536 0.3193, 0.3567 0.7493 0.3193, 0.3598 0.7529 0.3193, 0.3614 0.7519 0.3193, 0.3477 0.7299 0.3193, 0.3441 0.7263 0.3193, 0.3482 0.7295 0.3193, 0.3458 0.7251 0.3193, 0.3492 0.7288 0.3193, 0.3477 0.7244 0.3193, 0.3503 0.7284 0.3193, 0.3507 0.7241 0.3193, 0.352 0.7282 0.3193, 0.3532 0.7243 0.3193, 0.3539 0.7284 0.3193, 0.3553 0.7251 0.3193, 0.3571 0.7263 0.3193, 0.3467 0.7336 0.3193, 0.3416 0.733 0.3193, 0.3467 0.7328 0.3193, 0.3416 0.7324 0.3193, 0.3468 0.7317 0.3193, 0.3419 0.73 0.3193, 0.3472 0.7308 0.3193, 0.3425 0.7283 0.3193, 0.3436 0.7268 0.3193, 0.3511 0.7417 0.3193, 0.3473 0.7408 0.3193, 0.348 0.7364 0.3193, 0.3452 0.7397 0.3193, 0.3474 0.7357 0.3193, 0.3436 0.7384 0.3193, 0.347 0.7348 0.3193, 0.3426 0.7369 0.3193, 0.3419 0.7352 0.3193, 0.3543 0.754 0.3189, 0.3491 0.7534 0.3189, 0.3454 0.7519 0.3189, 0.3444 0.7513 0.3189, 0.3444 0.7465 0.3189, 0.3479 0.7486 0.3189, 0.351 0.7497 0.3189, 0.3538 0.7499 0.3189, 0.3555 0.7497 0.3189, 0.3567 0.7493 0.3189, 0.3575 0.7488 0.3189, 0.3583 0.7479 0.3189, 0.3589 0.7469 0.3189, 0.3594 0.7451 0.3189, 0.3596 0.7429 0.3189, 0.3511 0.7417 0.3189, 0.3473 0.7408 0.3189, 0.3452 0.7397 0.3189, 0.3436 0.7384 0.3189, 0.3426 0.7369 0.3189, 0.3419 0.7352 0.3189, 0.3416 0.733 0.3189, 0.3416 0.7324 0.3189, 0.3419 0.73 0.3189, 0.3425 0.7283 0.3189, 0.3436 0.7268 0.3189, 0.3441 0.7263 0.3189, 0.3507 0.7241 0.3189, 0.3478 0.7244 0.3189, 0.3477 0.7244 0.3189, 0.3458 0.7251 0.3189, 0.3532 0.7243 0.3189, 0.3534 0.7244 0.3189, 0.3553 0.7251 0.3189, 0.3571 0.7263 0.3189, 0.3587 0.728 0.3189, 0.3594 0.7292 0.3189, 0.3596 0.7292 0.3189, 0.3596 0.7248 0.3189, 0.3646 0.7248 0.3189, 0.3646 0.7432 0.3189, 0.3641 0.7474 0.3189, 0.3633 0.7495 0.3189, 0.3622 0.7511 0.3189, 0.3614 0.7519 0.3189, 0.3598 0.7529 0.3189, 0.3578 0.7536 0.3189, 0.3543 0.754 0.3189, 0.348 0.7364 0.3189, 0.3486 0.7369 0.3189, 0.3498 0.7375 0.3189, 0.3529 0.7382 0.3189, 0.3467 0.7328 0.3189, 0.3467 0.7336 0.3189, 0.347 0.7348 0.3189, 0.3474 0.7357 0.3189, 0.3482 0.7295 0.3189, 0.3477 0.7299 0.3189, 0.3472 0.7308 0.3189, 0.3468 0.7317 0.3189, 0.352 0.7282 0.3189, 0.3503 0.7284 0.3189, 0.3492 0.7288 0.3189, 0.3574 0.7305 0.3189, 0.3568 0.7299 0.3189, 0.3554 0.729 0.3189, 0.3539 0.7284 0.3189, 0.3596 0.7364 0.3189, 0.3596 0.736 0.3189, 0.3592 0.7338 0.3189, 0.3585 0.732 0.3189, 0.3596 0.7391 0.3189
            ]
        }
        coordIndex [
            0,1,2,-1,2,1,3,-1,4,5,6,-1,6,5,0,-1,6,0,2,-1,7,5,8,-1,8,5,4,-1,9,7,10,-1,10,7,8,-1,11,9,12,-1,12,9,10,-1,13,11,14,-1,14,11,12,-1,13,14,15,-1,15,14,16,-1,15,16,17,-1,18,15,19,-1,19,15,17,-1,20,18,21,-1,21,18,19,-1,22,20,23,-1,23,20,21,-1,24,25,26,-1,26,25,22,-1,26,22,23,-1,3,1,27,-1,27,1,25,-1,27,25,24,-1,25,1,0,-1,0,5,25,-1,25,5,7,-1,25,7,22,-1,18,20,15,-1,15,20,22,-1,15,22,13,-1,13,22,7,-1,13,7,11,-1,11,7,9,-1,28,29,30,-1,30,29,31,-1,32,33,34,-1,35,36,37,-1,37,36,38,-1,39,40,31,-1,31,40,41,-1,41,42,31,-1,31,42,43,-1,31,43,30,-1,30,43,44,-1,30,44,35,-1,35,44,45,-1,35,45,36,-1,34,39,32,-1,32,39,31,-1,32,31,46,-1,46,31,47,-1,46,47,48,-1,48,47,49,-1,48,49,50,-1,50,49,51,-1,50,51,52,-1,53,54,55,-1,55,54,56,-1,55,56,57,-1,57,56,58,-1,57,58,59,-1,59,58,60,-1,59,60,61,-1,61,60,62,-1,61,62,63,-1,63,62,64,-1,63,64,65,-1,65,64,52,-1,65,52,66,-1,66,52,51,-1,67,68,69,-1,69,68,70,-1,69,70,71,-1,71,70,72,-1,71,72,73,-1,73,72,74,-1,73,74,75,-1,75,74,76,-1,75,76,77,-1,77,76,78,-1,77,78,38,-1,38,78,79,-1,38,79,37,-1,80,81,82,-1,82,81,83,-1,82,83,84,-1,84,83,85,-1,84,85,86,-1,86,85,87,-1,86,87,67,-1,67,87,88,-1,67,88,68,-1,32,89,33,-1,33,89,90,-1,33,90,91,-1,91,90,92,-1,91,92,93,-1,93,92,94,-1,93,94,95,-1,95,94,96,-1,95,96,80,-1,80,96,97,-1,80,97,81,-1,59,98,99,-1,59,99,57,-1,57,99,100,-1,57,100,55,-1,55,100,101,-1,55,101,53,-1,54,53,102,-1,102,53,101,-1,54,102,103,-1,54,103,56,-1,56,103,104,-1,56,104,58,-1,58,104,105,-1,58,105,60,-1,60,105,106,-1,60,106,62,-1,62,106,107,-1,62,107,64,-1,64,107,108,-1,64,108,52,-1,52,108,109,-1,52,109,50,-1,50,109,110,-1,50,110,48,-1,48,110,111,-1,48,111,46,-1,46,111,112,-1,46,112,32,-1,89,32,113,-1,113,32,112,-1,89,113,114,-1,89,114,90,-1,90,114,115,-1,90,115,92,-1,92,115,116,-1,92,116,94,-1,94,116,117,-1,94,117,96,-1,96,117,118,-1,96,118,97,-1,97,118,119,-1,97,119,81,-1,81,119,120,-1,81,120,83,-1,83,120,121,-1,83,121,85,-1,85,121,122,-1,85,122,87,-1,87,122,123,-1,87,123,88,-1,88,123,124,-1,88,124,68,-1,125,74,126,-1,126,74,72,-1,126,72,127,-1,127,72,70,-1,127,70,128,-1,128,70,68,-1,128,68,124,-1,74,125,129,-1,74,129,76,-1,76,129,130,-1,76,130,78,-1,130,131,78,-1,78,131,132,-1,78,132,79,-1,79,132,133,-1,79,133,37,-1,37,133,134,-1,37,134,35,-1,30,35,135,-1,135,35,134,-1,28,30,136,-1,136,30,135,-1,29,28,137,-1,137,28,136,-1,31,29,138,-1,138,29,137,-1,31,138,139,-1,31,139,47,-1,47,139,140,-1,47,140,49,-1,49,140,141,-1,49,141,51,-1,51,141,142,-1,51,142,66,-1,66,142,143,-1,66,143,65,-1,65,143,144,-1,65,144,63,-1,63,144,145,-1,63,145,61,-1,61,145,98,-1,61,98,59,-1,91,146,147,-1,91,147,33,-1,33,147,148,-1,33,148,34,-1,34,148,149,-1,34,149,39,-1,82,150,151,-1,82,151,80,-1,80,151,152,-1,80,152,95,-1,95,152,153,-1,95,153,93,-1,93,153,146,-1,93,146,91,-1,69,154,155,-1,69,155,67,-1,67,155,156,-1,67,156,86,-1,86,156,157,-1,86,157,84,-1,84,157,150,-1,84,150,82,-1,75,158,159,-1,75,159,73,-1,73,159,160,-1,73,160,71,-1,71,160,154,-1,71,154,69,-1,45,161,162,-1,45,162,36,-1,36,162,163,-1,36,163,38,-1,38,163,164,-1,38,164,77,-1,77,164,158,-1,77,158,75,-1,41,165,166,-1,41,166,42,-1,42,166,167,-1,42,167,43,-1,43,167,168,-1,43,168,44,-1,44,168,161,-1,44,161,45,-1,41,40,165,-1,165,40,169,-1,40,39,169,-1,169,39,149,-1,
        ]
    }
}
Shape{
    appearance Appearance {
        material  Material 	{
            diffuseColor 0.25098039215686274 0.25098039215686274 0.25098039215686274
            specularColor 0.12549019607843137 0.12549019607843137 0.12549019607843137
            ambientIntensity 0.251
            transparency 0.0
            shininess 0.5
        }
    }
    geometry IndexedFaceSet {
        ccw TRUE
        solid FALSE
        coord DEF co Coordinate {
            point [
                0.3596 0.736 0.3189, 0.3596 0.7364 0.3189, 0.348 0.7364 0.3189, 0.3596 0.7391 0.3189, 0.3529 0.7382 0.3189, 0.3498 0.7375 0.3189, 0.3486 0.7369 0.3189, 0.3592 0.7338 0.3189, 0.3474 0.7357 0.3189, 0.3585 0.732 0.3189, 0.3477 0.7299 0.3189, 0.3482 0.7295 0.3189, 0.3568 0.7299 0.3189, 0.3472 0.7308 0.3189, 0.3554 0.729 0.3189, 0.3539 0.7284 0.3189, 0.352 0.7282 0.3189, 0.347 0.7348 0.3189, 0.3467 0.7336 0.3189, 0.3574 0.7305 0.3189, 0.3467 0.7328 0.3189, 0.3468 0.7317 0.3189, 0.3492 0.7288 0.3189, 0.3503 0.7284 0.3189
            ]
        }
        coordIndex [
            0,1,2,-1,1,3,4,-1,4,5,1,-1,1,5,6,-1,1,6,2,-1,0,2,7,-1,7,2,8,-1,7,8,9,-1,10,11,12,-1,10,12,13,-1,14,12,15,-1,15,12,16,-1,8,17,9,-1,9,17,18,-1,9,18,19,-1,19,18,20,-1,19,20,12,-1,12,20,21,-1,12,21,13,-1,11,22,12,-1,12,22,23,-1,12,23,16,-1,
        ]
    }
}
Shape{
    appearance Appearance {
        material  Material 	{
            diffuseColor 1.0 1.0 1.0
            specularColor 0.5019607843137255 0.5019607843137255 0.5019607843137255
            ambientIntensity 1.0
            transparency 0.0
            shininess 0.5
        }
    }
    geometry IndexedFaceSet {
        ccw TRUE
        solid FALSE
        coord DEF co Coordinate {
            point [
                0.3796 0.7282 0.3193, 0.3796 0.7282 0.3189, 0.3763 0.7286 0.3189, 0.3737 0.7296 0.3189, 0.3732 0.7298 0.3193, 0.3763 0.7286 0.3193, 0.3732 0.7298 0.3189, 0.3714 0.7309 0.3189, 0.3714 0.7309 0.3193, 0.3714 0.7258 0.3193, 0.3714 0.7258 0.3189, 0.3749 0.7245 0.3193, 0.3737 0.7249 0.3189, 0.3791 0.7241 0.3189, 0.3791 0.7241 0.3193, 0.3759 0.7244 0.3189, 0.3749 0.7245 0.3189, 0.3837 0.7246 0.3193, 0.382 0.7244 0.3189, 0.3837 0.7246 0.3189, 0.3863 0.7256 0.3189, 0.3863 0.7256 0.3193, 0.3875 0.7263 0.3189, 0.3875 0.7263 0.3193, 0.3889 0.7276 0.3189, 0.3889 0.7276 0.3193, 0.3898 0.7289 0.3189, 0.3898 0.7289 0.3193, 0.3905 0.7305 0.3189, 0.3905 0.7305 0.3193, 0.3907 0.7325 0.3189, 0.3907 0.7325 0.3193, 0.3905 0.7344 0.3189, 0.3905 0.7344 0.3193, 0.39 0.7359 0.3189, 0.39 0.7359 0.3193, 0.389 0.7373 0.3189, 0.389 0.7373 0.3193, 0.3878 0.7383 0.3189, 0.3878 0.7383 0.3193, 0.3845 0.7402 0.3189, 0.3845 0.7402 0.3193, 0.3826 0.741 0.3189, 0.3826 0.741 0.3193, 0.3794 0.7423 0.3189, 0.3794 0.7423 0.3193, 0.3777 0.7434 0.3189, 0.3777 0.7434 0.3193, 0.3772 0.744 0.3189, 0.3772 0.744 0.3193, 0.3768 0.7446 0.3189, 0.3768 0.7446 0.3193, 0.3766 0.7454 0.3189, 0.3766 0.7454 0.3193, 0.3766 0.7461 0.3189, 0.3766 0.7461 0.3193, 0.3767 0.7469 0.3189, 0.3767 0.7469 0.3193, 0.3769 0.7476 0.3189, 0.3769 0.7476 0.3193, 0.3774 0.7482 0.3189, 0.3774 0.7482 0.3193, 0.3781 0.7489 0.3189, 0.3781 0.7489 0.3193, 0.3792 0.7495 0.3189, 0.3792 0.7495 0.3193, 0.3806 0.7498 0.3189, 0.3806 0.7498 0.3193, 0.3821 0.7499 0.3189, 0.3821 0.7499 0.3193, 0.3856 0.7495 0.3189, 0.3856 0.7495 0.3193, 0.3884 0.7484 0.3189, 0.3884 0.7484 0.3193, 0.3893 0.7479 0.3189, 0.3893 0.7479 0.3193, 0.3893 0.7527 0.3193, 0.3893 0.7527 0.3189, 0.3861 0.7537 0.3189, 0.3861 0.7537 0.3193, 0.3826 0.754 0.3189, 0.3826 0.754 0.3193, 0.3785 0.7535 0.3189, 0.3785 0.7535 0.3193, 0.3759 0.7525 0.3189, 0.3759 0.7525 0.3193, 0.3746 0.7517 0.3189, 0.3746 0.7517 0.3193, 0.373 0.7502 0.3193, 0.3737 0.7509 0.3189, 0.373 0.7502 0.3189, 0.3721 0.7489 0.3189, 0.3721 0.7489 0.3193, 0.3716 0.7472 0.3189, 0.3716 0.7472 0.3193, 0.3714 0.7456 0.3189, 0.3714 0.7456 0.3193, 0.3716 0.7437 0.3189, 0.3716 0.7437 0.3193, 0.3722 0.7421 0.3189, 0.3722 0.7421 0.3193, 0.3728 0.7411 0.3189, 0.3728 0.7411 0.3193, 0.379 0.7373 0.3189, 0.379 0.7373 0.3193, 0.376 0.7387 0.3193, 0.3737 0.7402 0.3189, 0.3737 0.7402 0.3193, 0.3737 0.7402 0.3189, 0.376 0.7387 0.3189, 0.3823 0.7359 0.3189, 0.3823 0.7359 0.3193, 0.3843 0.7348 0.3189, 0.3843 0.7348 0.3193, 0.3849 0.7341 0.3189, 0.3849 0.7341 0.3193, 0.3853 0.7334 0.3189, 0.3853 0.7334 0.3193, 0.3855 0.7327 0.3189, 0.3855 0.7327 0.3193, 0.3856 0.732 0.3189, 0.3856 0.732 0.3193, 0.3854 0.7311 0.3189, 0.3854 0.7311 0.3193, 0.3852 0.7304 0.3189, 0.3852 0.7304 0.3193, 0.3848 0.7297 0.3189, 0.3848 0.7297 0.3193, 0.3842 0.7292 0.3189, 0.3842 0.7292 0.3193, 0.3837 0.7289 0.3189, 0.3837 0.7289 0.3193, 0.3824 0.7285 0.3189, 0.3824 0.7285 0.3193, 0.3799 0.7282 0.3189, 0.3799 0.7282 0.3193, 0.4156 0.7533 0.3193, 0.4208 0.7533 0.3193, 0.4156 0.7533 0.3189, 0.4208 0.7533 0.3189, 0.4077 0.7318 0.3193, 0.4077 0.7318 0.3189, 0.4074 0.7305 0.3189, 0.4074 0.7305 0.3193, 0.4071 0.7295 0.3189, 0.4071 0.7295 0.3193, 0.407 0.7295 0.3193, 0.407 0.7295 0.3189, 0.4064 0.7319 0.3193, 0.4064 0.7319 0.3189, 0.3989 0.7533 0.3193, 0.3989 0.7533 0.3189, 0.3933 0.7533 0.3193, 0.3933 0.7533 0.3189, 0.4045 0.7248 0.3193, 0.4045 0.7248 0.3189, 0.4023 0.7196 0.3189, 0.4023 0.7196 0.3193, 0.4044 0.7244 0.3189, 0.4012 0.7176 0.3189, 0.4012 0.7176 0.3193, 0.4002 0.7166 0.3189, 0.4002 0.7166 0.3193, 0.3992 0.716 0.3189, 0.3992 0.716 0.3193, 0.3981 0.7157 0.3189, 0.3981 0.7157 0.3193, 0.3972 0.7156 0.3189, 0.3972 0.7156 0.3193, 0.3954 0.7158 0.3189, 0.3954 0.7158 0.3193, 0.3943 0.7162 0.3189, 0.3943 0.7162 0.3193, 0.3943 0.7117 0.3193, 0.3943 0.7117 0.3189, 0.3965 0.7113 0.3189, 0.3965 0.7113 0.3193, 0.3976 0.7113 0.3189, 0.3976 0.7113 0.3193, 0.3998 0.7116 0.3189, 0.3998 0.7116 0.3193, 0.4017 0.7123 0.3189, 0.4017 0.7123 0.3193, 0.4034 0.7136 0.3189, 0.4034 0.7136 0.3193, 0.4055 0.716 0.3189, 0.4055 0.716 0.3193, 0.4078 0.7204 0.3189, 0.4078 0.7204 0.3193, 0.4093 0.7244 0.3189, 0.4477 0.7293 0.3193, 0.4477 0.7248 0.3193, 0.4477 0.7293 0.3189, 0.4477 0.7248 0.3189, 0.4313 0.7293 0.3189, 0.4313 0.7293 0.3193, 0.4388 0.7293 0.3189, 0.4313 0.7428 0.3193, 0.4313 0.7428 0.3189, 0.4456 0.7428 0.3189, 0.4456 0.7428 0.3193, 0.4388 0.7428 0.3189, 0.4456 0.7474 0.3193, 0.4456 0.7474 0.3189, 0.4313 0.7474 0.3189, 0.4313 0.7474 0.3193, 0.4388 0.7474 0.3189, 0.4313 0.7602 0.3193, 0.4313 0.7594 0.3189, 0.4313 0.7602 0.3189, 0.4468 0.7602 0.3189, 0.4468 0.7602 0.3193, 0.4388 0.7602 0.3189, 0.4468 0.7648 0.3193, 0.4468 0.7648 0.3189, 0.4262 0.7648 0.3189, 0.4262 0.7648 0.3193, 0.4388 0.7648 0.3189, 0.4262 0.7248 0.3189, 0.4262 0.7248 0.3193, 0.4262 0.7594 0.3189, 0.4388 0.7248 0.3189, 0.4801 0.736 0.3193, 0.4781 0.7335 0.3193, 0.4818 0.7304 0.3193, 0.4774 0.7328 0.3193, 0.4777 0.7274 0.3193, 0.4747 0.7311 0.3193, 0.4731 0.7256 0.3193, 0.4713 0.7299 0.3193, 0.4663 0.7248 0.3193, 0.4662 0.7293 0.3193, 0.4553 0.7248 0.3193, 0.4604 0.7293 0.3193, 0.4553 0.7648 0.3193, 0.4604 0.7602 0.3193, 0.4667 0.7648 0.3193, 0.4665 0.7602 0.3193, 0.4728 0.7641 0.3193, 0.4716 0.7596 0.3193, 0.4776 0.7623 0.3193, 0.4751 0.7584 0.3193, 0.4818 0.7595 0.3193, 0.478 0.7564 0.3193, 0.4832 0.7581 0.3193, 0.4791 0.7553 0.3193, 0.4857 0.7546 0.3193, 0.4807 0.7531 0.3193, 0.4872 0.7508 0.3193, 0.4818 0.7502 0.3193, 0.4878 0.7453 0.3193, 0.4824 0.7451 0.3193, 0.4877 0.7427 0.3193, 0.4823 0.7426 0.3193, 0.4868 0.738 0.3193, 0.4815 0.7389 0.3193, 0.4848 0.7339 0.3193, 0.4663 0.7248 0.3189, 0.4553 0.7248 0.3189, 0.4731 0.7256 0.3189, 0.4777 0.7274 0.3189, 0.4818 0.7304 0.3189, 0.4848 0.7339 0.3189, 0.4868 0.738 0.3189, 0.4877 0.7427 0.3189, 0.4878 0.7453 0.3189, 0.4818 0.7595 0.3189, 0.4819 0.7594 0.3189, 0.4832 0.7581 0.3189, 0.4857 0.7546 0.3189, 0.4872 0.7508 0.3189, 0.4776 0.7623 0.3189, 0.4728 0.7641 0.3189, 0.4667 0.7648 0.3189, 0.4553 0.7648 0.3189, 0.4553 0.7594 0.3189, 0.4665 0.7602 0.3189, 0.4604 0.7602 0.3189, 0.4604 0.7293 0.3189, 0.4662 0.7293 0.3189, 0.4781 0.7335 0.3189, 0.4774 0.7328 0.3189, 0.4747 0.7311 0.3189, 0.4713 0.7299 0.3189, 0.4824 0.7451 0.3189, 0.4823 0.7426 0.3189, 0.4815 0.7389 0.3189, 0.4801 0.736 0.3189, 0.478 0.7564 0.3189, 0.4791 0.7553 0.3189, 0.4807 0.7531 0.3189, 0.4818 0.7502 0.3189, 0.4716 0.7596 0.3189, 0.4751 0.7584 0.3189
            ]
        }
        coordIndex [
            0,1,2,-1,3,4,2,-1,2,4,5,-1,2,5,0,-1,3,6,4,-1,4,6,7,-1,4,7,8,-1,9,8,10,-1,10,8,7,-1,11,9,12,-1,12,9,10,-1,13,14,15,-1,15,14,11,-1,15,11,16,-1,16,11,12,-1,17,14,18,-1,18,14,13,-1,18,19,17,-1,17,19,20,-1,17,20,21,-1,21,20,22,-1,21,22,23,-1,23,22,24,-1,23,24,25,-1,25,24,26,-1,25,26,27,-1,27,26,28,-1,27,28,29,-1,29,28,30,-1,29,30,31,-1,31,30,32,-1,31,32,33,-1,33,32,34,-1,33,34,35,-1,35,34,36,-1,35,36,37,-1,37,36,38,-1,37,38,39,-1,39,38,40,-1,39,40,41,-1,41,40,42,-1,41,42,43,-1,43,42,44,-1,43,44,45,-1,45,44,46,-1,45,46,47,-1,47,46,48,-1,47,48,49,-1,49,48,50,-1,49,50,51,-1,51,50,52,-1,51,52,53,-1,53,52,54,-1,53,54,55,-1,55,54,56,-1,55,56,57,-1,57,56,58,-1,57,58,59,-1,59,58,60,-1,59,60,61,-1,61,60,62,-1,61,62,63,-1,63,62,64,-1,63,64,65,-1,65,64,66,-1,65,66,67,-1,67,66,68,-1,67,68,69,-1,69,68,70,-1,69,70,71,-1,71,70,72,-1,71,72,73,-1,73,72,74,-1,73,74,75,-1,76,75,77,-1,77,75,74,-1,76,77,78,-1,76,78,79,-1,79,78,80,-1,79,80,81,-1,81,80,82,-1,81,82,83,-1,83,82,84,-1,83,84,85,-1,85,84,86,-1,85,86,87,-1,87,86,88,-1,88,86,89,-1,89,90,88,-1,88,90,91,-1,88,91,92,-1,92,91,93,-1,92,93,94,-1,94,93,95,-1,94,95,96,-1,96,95,97,-1,96,97,98,-1,98,97,99,-1,98,99,100,-1,100,99,101,-1,100,101,102,-1,103,104,105,-1,102,101,106,-1,102,106,107,-1,107,106,108,-1,107,108,105,-1,105,108,109,-1,105,109,103,-1,104,103,110,-1,104,110,111,-1,111,110,112,-1,111,112,113,-1,113,112,114,-1,113,114,115,-1,115,114,116,-1,115,116,117,-1,117,116,118,-1,117,118,119,-1,119,118,120,-1,119,120,121,-1,121,120,122,-1,121,122,123,-1,123,122,124,-1,123,124,125,-1,125,124,126,-1,125,126,127,-1,127,126,128,-1,127,128,129,-1,129,128,130,-1,129,130,131,-1,131,130,132,-1,131,132,133,-1,133,132,134,-1,133,134,135,-1,135,134,1,-1,135,1,0,-1,59,61,87,-1,87,61,85,-1,85,61,63,-1,85,63,83,-1,125,25,27,-1,111,43,104,-1,104,43,45,-1,125,27,123,-1,123,27,29,-1,123,29,121,-1,121,29,31,-1,121,31,119,-1,119,31,33,-1,119,33,117,-1,117,33,35,-1,117,35,115,-1,115,35,37,-1,115,37,113,-1,113,37,39,-1,113,39,111,-1,111,39,41,-1,111,41,43,-1,25,125,23,-1,23,125,127,-1,23,127,21,-1,14,0,11,-1,11,0,5,-1,11,5,9,-1,9,5,4,-1,9,4,8,-1,63,65,83,-1,83,65,67,-1,83,67,81,-1,81,67,69,-1,81,69,79,-1,79,69,71,-1,79,71,76,-1,76,71,73,-1,76,73,75,-1,127,129,21,-1,21,129,131,-1,21,131,17,-1,17,131,133,-1,17,133,14,-1,14,133,135,-1,14,135,0,-1,87,88,59,-1,59,88,92,-1,59,92,57,-1,57,92,94,-1,57,94,55,-1,55,94,96,-1,55,96,53,-1,53,96,98,-1,53,98,51,-1,51,98,100,-1,51,100,49,-1,49,100,102,-1,49,102,47,-1,47,102,107,-1,47,107,45,-1,45,107,105,-1,45,105,104,-1,136,137,138,-1,138,137,139,-1,140,136,141,-1,141,136,138,-1,140,141,142,-1,140,142,143,-1,143,142,144,-1,143,144,145,-1,146,145,147,-1,147,145,144,-1,148,146,149,-1,149,146,147,-1,150,148,151,-1,151,148,149,-1,152,150,153,-1,153,150,151,-1,154,152,155,-1,155,152,153,-1,156,157,158,-1,158,157,154,-1,158,154,155,-1,157,156,159,-1,157,159,160,-1,160,159,161,-1,160,161,162,-1,162,161,163,-1,162,163,164,-1,164,163,165,-1,164,165,166,-1,166,165,167,-1,166,167,168,-1,168,167,169,-1,168,169,170,-1,170,169,171,-1,170,171,172,-1,173,172,174,-1,174,172,171,-1,173,174,175,-1,173,175,176,-1,176,175,177,-1,176,177,178,-1,178,177,179,-1,178,179,180,-1,180,179,181,-1,180,181,182,-1,182,181,183,-1,182,183,184,-1,184,183,185,-1,184,185,186,-1,186,185,187,-1,186,187,188,-1,139,137,189,-1,189,137,188,-1,189,188,187,-1,143,145,188,-1,137,136,188,-1,188,136,140,-1,188,140,143,-1,150,152,148,-1,148,152,154,-1,148,154,146,-1,145,146,188,-1,188,146,154,-1,188,154,186,-1,154,157,186,-1,186,157,160,-1,186,160,184,-1,184,160,162,-1,184,162,182,-1,182,162,164,-1,182,164,180,-1,180,164,166,-1,180,166,178,-1,178,166,168,-1,178,168,176,-1,176,168,170,-1,176,170,173,-1,173,170,172,-1,190,191,192,-1,192,191,193,-1,194,195,196,-1,196,195,190,-1,196,190,192,-1,197,195,198,-1,198,195,194,-1,199,200,201,-1,201,200,197,-1,201,197,198,-1,202,200,203,-1,203,200,199,-1,204,205,206,-1,206,205,202,-1,206,202,203,-1,205,204,207,-1,207,204,208,-1,207,208,209,-1,210,211,212,-1,212,211,207,-1,212,207,209,-1,213,211,214,-1,214,211,210,-1,215,216,217,-1,217,216,213,-1,217,213,214,-1,218,219,220,-1,220,219,216,-1,220,216,215,-1,193,191,221,-1,221,191,219,-1,221,219,218,-1,219,191,190,-1,190,195,219,-1,219,195,197,-1,219,197,216,-1,211,213,207,-1,207,213,216,-1,207,216,205,-1,205,216,197,-1,205,197,202,-1,202,197,200,-1,222,223,224,-1,224,223,225,-1,224,225,226,-1,226,225,227,-1,226,227,228,-1,228,227,229,-1,228,229,230,-1,230,229,231,-1,230,231,232,-1,232,231,233,-1,232,233,234,-1,234,233,235,-1,234,235,236,-1,236,235,237,-1,236,237,238,-1,238,237,239,-1,238,239,240,-1,240,239,241,-1,240,241,242,-1,242,241,243,-1,242,243,244,-1,244,243,245,-1,244,245,246,-1,246,245,247,-1,246,247,248,-1,248,247,249,-1,248,249,250,-1,250,249,251,-1,250,251,252,-1,252,251,253,-1,252,253,254,-1,254,253,255,-1,254,255,256,-1,256,255,222,-1,256,222,224,-1,230,232,257,-1,257,232,258,-1,230,257,259,-1,230,259,228,-1,228,259,260,-1,228,260,226,-1,226,260,261,-1,226,261,224,-1,224,261,262,-1,224,262,256,-1,256,262,263,-1,256,263,254,-1,254,263,264,-1,254,264,252,-1,252,264,265,-1,252,265,250,-1,266,242,267,-1,267,242,244,-1,267,244,268,-1,268,244,246,-1,268,246,269,-1,269,246,248,-1,269,248,270,-1,270,248,250,-1,270,250,265,-1,242,266,271,-1,242,271,240,-1,240,271,272,-1,240,272,238,-1,238,272,273,-1,238,273,236,-1,234,236,274,-1,274,236,273,-1,258,232,275,-1,275,232,234,-1,275,234,274,-1,237,235,276,-1,276,235,277,-1,235,233,277,-1,277,233,278,-1,233,231,278,-1,278,231,279,-1,223,280,281,-1,223,281,225,-1,225,281,282,-1,225,282,227,-1,227,282,283,-1,227,283,229,-1,229,283,279,-1,229,279,231,-1,251,284,285,-1,251,285,253,-1,253,285,286,-1,253,286,255,-1,255,286,287,-1,255,287,222,-1,222,287,280,-1,222,280,223,-1,243,288,289,-1,243,289,245,-1,245,289,290,-1,245,290,247,-1,247,290,291,-1,247,291,249,-1,249,291,284,-1,249,284,251,-1,237,276,292,-1,237,292,239,-1,239,292,293,-1,239,293,241,-1,241,293,288,-1,241,288,243,-1,
        ]
    }
}
Shape{
    appearance Appearance {
        material  Material 	{
            diffuseColor 0.25098039215686274 0.25098039215686274 0.25098039215686274
            specularColor 0.12549019607843137 0.12549019607843137 0.12549019607843137
            ambientIntensity 0.251
            transparency 0.0
            shininess 0.5
        }
    }
    geometry IndexedFaceSet {
        ccw TRUE
        solid FALSE
        coord DEF co Coordinate {
            point [
                0.4604 0.7602 0.3189, 0.4604 0.7293 0.3189, 0.4665 0.7602 0.3189, 0.4662 0.7293 0.3189, 0.4713 0.7299 0.3189, 0.4747 0.7311 0.3189, 0.4774 0.7328 0.3189, 0.4781 0.7335 0.3189, 0.4801 0.736 0.3189, 0.4815 0.7389 0.3189, 0.4823 0.7426 0.3189, 0.4824 0.7451 0.3189, 0.4818 0.7502 0.3189, 0.4807 0.7531 0.3189, 0.4791 0.7553 0.3189, 0.478 0.7564 0.3189, 0.4716 0.7596 0.3189, 0.4751 0.7584 0.3189
            ]
        }
        coordIndex [
            0,1,2,-1,2,1,3,-1,2,3,4,-1,4,5,2,-1,2,5,6,-1,2,6,7,-1,7,8,2,-1,2,8,9,-1,2,9,10,-1,10,11,2,-1,2,11,12,-1,2,12,13,-1,13,14,2,-1,2,14,15,-1,2,15,16,-1,16,15,17,-1,
        ]
    }
}
Shape{
    appearance Appearance {
        material  Material 	{
            diffuseColor 1.0 1.0 1.0
            specularColor 0.5019607843137255 0.5019607843137255 0.5019607843137255
            ambientIntensity 1.0
            transparency 0.0
            shininess 0.5
        }
    }
    geometry IndexedFaceSet {
        ccw TRUE
        solid FALSE
        coord DEF co Coordinate {
            point [
                0.5013 0.7402 0.3193, 0.4996 0.7357 0.3193, 0.5147 0.7402 0.3193, 0.5163 0.7357 0.3193, 0.5073 0.7569 0.3193, 0.5053 0.7648 0.3193, 0.4901 0.7248 0.3193, 0.4958 0.7248 0.3193, 0.5076 0.7581 0.3193, 0.5079 0.7597 0.3193, 0.5108 0.7648 0.3193, 0.508 0.7597 0.3193, 0.5084 0.758 0.3193, 0.5087 0.7569 0.3193, 0.5261 0.7248 0.3193, 0.5204 0.7248 0.3193, 0.5108 0.7648 0.3189, 0.5129 0.7594 0.3189, 0.5261 0.7248 0.3189, 0.5053 0.7648 0.3189, 0.4901 0.7248 0.3189, 0.5033 0.7594 0.3189, 0.4958 0.7248 0.3189, 0.4996 0.7357 0.3189, 0.5163 0.7357 0.3189, 0.5204 0.7248 0.3189, 0.5013 0.7402 0.3189, 0.5147 0.7402 0.3189, 0.5087 0.7569 0.3189, 0.508 0.7597 0.3189, 0.5084 0.758 0.3189, 0.5079 0.7597 0.3189, 0.5073 0.7569 0.3189, 0.5076 0.7581 0.3189
            ]
        }
        coordIndex [
            0,1,2,-1,2,1,3,-1,4,5,0,-1,0,5,6,-1,0,6,1,-1,1,6,7,-1,4,8,5,-1,5,8,9,-1,5,9,10,-1,10,9,11,-1,10,11,12,-1,12,13,10,-1,10,13,2,-1,10,2,14,-1,14,2,3,-1,14,3,15,-1,16,10,17,-1,17,10,14,-1,17,14,18,-1,5,10,19,-1,19,10,16,-1,20,6,21,-1,21,6,5,-1,21,5,19,-1,7,6,22,-1,22,6,20,-1,1,7,23,-1,23,7,22,-1,3,1,24,-1,24,1,23,-1,15,3,25,-1,25,3,24,-1,14,15,18,-1,18,15,25,-1,0,2,26,-1,26,2,27,-1,2,13,27,-1,27,13,28,-1,11,29,30,-1,11,30,12,-1,12,30,28,-1,12,28,13,-1,11,9,29,-1,29,9,31,-1,4,32,33,-1,4,33,8,-1,8,33,31,-1,8,31,9,-1,4,0,32,-1,32,0,26,-1,
        ]
    }
}
Shape{
    appearance Appearance {
        material  Material 	{
            diffuseColor 0.25098039215686274 0.25098039215686274 0.25098039215686274
            specularColor 0.12549019607843137 0.12549019607843137 0.12549019607843137
            ambientIntensity 0.251
            transparency 0.0
            shininess 0.5
        }
    }
    geometry IndexedFaceSet {
        ccw TRUE
        solid FALSE
        coord DEF co Coordinate {
            point [
                0.508 0.7597 0.3189, 0.5079 0.7597 0.3189, 0.5084 0.758 0.3189, 0.5076 0.7581 0.3189, 0.5087 0.7569 0.3189, 0.5073 0.7569 0.3189, 0.5147 0.7402 0.3189, 0.5013 0.7402 0.3189
            ]
        }
        coordIndex [
            0,1,2,-1,2,1,3,-1,2,3,4,-1,4,3,5,-1,4,5,6,-1,6,5,7,-1,
        ]
    }
}
Shape{
    appearance Appearance {
        material  Material 	{
            diffuseColor 1.0 1.0 1.0
            specularColor 0.5019607843137255 0.5019607843137255 0.5019607843137255
            ambientIntensity 1.0
            transparency 0.0
            shininess 0.5
        }
    }
    geometry IndexedFaceSet {
        ccw TRUE
        solid FALSE
        coord DEF co Coordinate {
            point [
                0.1385 0.7191 0.3193, 0.1427 0.7139 0.3193, 0.1359 0.7443 0.3193, 0.231 0.7582 0.3193, 0.2222 0.7733 0.3193, 0.1911 0.7371 0.3193, 0.184 0.7534 0.3193, 0.2648 0.7642 0.3193, 0.2642 0.7586 0.3193, 0.2811 0.754 0.3193, 0.1674 0.7439 0.3193, 0.1697 0.7424 0.3193, 0.1715 0.7403 0.3193, 0.155 0.7257 0.3193, 0.1572 0.7242 0.3193, 0.1483 0.7097 0.3193, 0.1599 0.7232 0.3193, 0.1297 0.7481 0.3193, 0.1308 0.7267 0.3193, 0.1356 0.7252 0.3193, 0.1727 0.738 0.3193, 0.1734 0.7353 0.3193, 0.1911 0.7343 0.3193, 0.1734 0.7327 0.3193, 0.2404 0.7864 0.3193, 0.2426 0.7864 0.3193, 0.2543 0.8017 0.3193, 0.2481 0.7857 0.3193, 0.2559 0.8012 0.3193, 0.253 0.7838 0.3193, 0.2644 0.7969 0.3193, 0.2721 0.7904 0.3193, 0.1603 0.7958 0.3193, 0.1624 0.7946 0.3193, 0.1536 0.8154 0.3193, 0.1665 0.8032 0.3193, 0.1594 0.8222 0.3193, 0.1727 0.8109 0.3193, 0.1661 0.8279 0.3193, 0.1806 0.8168 0.3193, 0.173 0.8322 0.3193, 0.173 0.7611 0.3193, 0.1661 0.7628 0.3193, 0.1624 0.7451 0.3193, 0.1627 0.763 0.3193, 0.16 0.7448 0.3193, 0.1559 0.7622 0.3193, 0.1575 0.744 0.3193, 0.1496 0.7598 0.3193, 0.1552 0.7425 0.3193, 0.1438 0.7558 0.3193, 0.1533 0.7404 0.3193, 0.1391 0.7504 0.3193, 0.152 0.738 0.3193, 0.1513 0.7352 0.3193, 0.2775 0.745 0.3193, 0.2622 0.7536 0.3193, 0.272 0.7374 0.3193, 0.2389 0.8242 0.3193, 0.2287 0.8103 0.3193, 0.2482 0.8135 0.3193, 0.2349 0.8024 0.3193, 0.239 0.7931 0.3193, 0.1246 0.7533 0.3193, 0.1129 0.7388 0.3193, 0.1207 0.732 0.3193, 0.1197 0.7773 0.3193, 0.101 0.7731 0.3193, 0.1188 0.7704 0.3193, 0.1009 0.7699 0.3193, 0.1192 0.7661 0.3193, 0.102 0.7598 0.3193, 0.1212 0.7591 0.3193, 0.1058 0.7492 0.3193, 0.1118 0.74 0.3193, 0.2574 0.7807 0.3193, 0.2607 0.777 0.3193, 0.2778 0.7822 0.3193, 0.2634 0.7721 0.3193, 0.2813 0.7735 0.3193, 0.2647 0.7666 0.3193, 0.2825 0.7645 0.3193, 0.2825 0.7633 0.3193, 0.2591 0.7491 0.3193, 0.2587 0.7487 0.3193, 0.2639 0.7307 0.3193, 0.2545 0.7453 0.3193, 0.2552 0.7265 0.3193, 0.2494 0.7429 0.3193, 0.2461 0.7246 0.3193, 0.2444 0.742 0.3193, 0.2293 0.7246 0.3193, 0.2315 0.742 0.3193, 0.2278 0.7248 0.3193, 0.1861 0.8373 0.3193, 0.1899 0.8206 0.3193, 0.2002 0.839 0.3193, 0.2005 0.822 0.3193, 0.212 0.8378 0.3193, 0.2098 0.8209 0.3193, 0.2263 0.8328 0.3193, 0.2187 0.8175 0.3193, 0.2268 0.8121 0.3193, 0.1539 0.7981 0.3193, 0.1503 0.8158 0.3193, 0.1473 0.7989 0.3193, 0.147 0.816 0.3193, 0.1444 0.7988 0.3193, 0.1369 0.8149 0.3193, 0.1373 0.7971 0.3193, 0.1263 0.811 0.3193, 0.131 0.7937 0.3193, 0.1168 0.8046 0.3193, 0.1261 0.7893 0.3193, 0.1143 0.8023 0.3193, 0.1221 0.7837 0.3193, 0.108 0.7945 0.3193, 0.1032 0.7844 0.3193, 0.1532 0.7278 0.3193, 0.152 0.7302 0.3193, 0.1513 0.7328 0.3193, 0.1647 0.7449 0.3193, 0.179 0.7579 0.3193, 0.1548 0.7069 0.3193, 0.1616 0.7058 0.3193, 0.1624 0.7229 0.3193, 0.1627 0.7058 0.3193, 0.1648 0.7232 0.3193, 0.1695 0.7067 0.3193, 0.1673 0.7241 0.3193, 0.1759 0.7091 0.3193, 0.1695 0.7255 0.3193, 0.1816 0.713 0.3193, 0.1714 0.7275 0.3193, 0.186 0.718 0.3193, 0.1727 0.73 0.3193, 0.1893 0.7243 0.3193, 0.191 0.7314 0.3193, 0.2301 0.7422 0.3193, 0.2232 0.7276 0.3193, 0.2241 0.7268 0.3193, 0.2277 0.742 0.3193, 0.2258 0.7413 0.3193, 0.2211 0.7342 0.3193, 0.221 0.7334 0.3193, 0.2213 0.7314 0.3193, 0.222 0.7294 0.3193, 0.231 0.742 0.3193, 0.2259 0.7255 0.3193, 0.2298 0.7423 0.3193, 0.224 0.74 0.3193, 0.2226 0.7384 0.3193, 0.2215 0.7364 0.3193, 0.2825 0.7645 0.3189, 0.2813 0.7735 0.3189, 0.2778 0.7822 0.3189, 0.2738 0.7879 0.3189, 0.2721 0.7904 0.3189, 0.2644 0.7969 0.3189, 0.2559 0.8012 0.3189, 0.2543 0.8017 0.3189, 0.2482 0.8135 0.3189, 0.2389 0.8242 0.3189, 0.2324 0.8286 0.3189, 0.2263 0.8328 0.3189, 0.212 0.8378 0.3189, 0.2002 0.839 0.3189, 0.1661 0.8279 0.3189, 0.1672 0.8286 0.3189, 0.173 0.8322 0.3189, 0.1861 0.8373 0.3189, 0.1594 0.8222 0.3189, 0.1536 0.8154 0.3189, 0.1503 0.8158 0.3189, 0.147 0.816 0.3189, 0.1369 0.8149 0.3189, 0.1263 0.811 0.3189, 0.1168 0.8046 0.3189, 0.1143 0.8023 0.3189, 0.108 0.7945 0.3189, 0.1049 0.7879 0.3189, 0.1032 0.7844 0.3189, 0.101 0.7731 0.3189, 0.1009 0.7699 0.3189, 0.102 0.7598 0.3189, 0.1022 0.7594 0.3189, 0.1058 0.7492 0.3189, 0.1118 0.74 0.3189, 0.1129 0.7388 0.3189, 0.1207 0.732 0.3189, 0.1308 0.7267 0.3189, 0.1356 0.7252 0.3189, 0.136 0.7244 0.3189, 0.1385 0.7191 0.3189, 0.1427 0.7139 0.3189, 0.1483 0.7097 0.3189, 0.1509 0.7086 0.3189, 0.1548 0.7069 0.3189, 0.1616 0.7058 0.3189, 0.1627 0.7058 0.3189, 0.1911 0.7343 0.3189, 0.1695 0.7067 0.3189, 0.1745 0.7086 0.3189, 0.1759 0.7091 0.3189, 0.1816 0.713 0.3189, 0.186 0.718 0.3189, 0.1893 0.7243 0.3189, 0.1893 0.7244 0.3189, 0.191 0.7314 0.3189, 0.1911 0.7371 0.3189, 0.231 0.7582 0.3189, 0.2222 0.7733 0.3189, 0.2303 0.7594 0.3189, 0.184 0.7534 0.3189, 0.1956 0.7594 0.3189, 0.179 0.7579 0.3189, 0.1762 0.7594 0.3189, 0.173 0.7611 0.3189, 0.1661 0.7628 0.3189, 0.1627 0.763 0.3189, 0.1559 0.7622 0.3189, 0.1496 0.7598 0.3189, 0.149 0.7594 0.3189, 0.1438 0.7558 0.3189, 0.1391 0.7504 0.3189, 0.1359 0.7443 0.3189, 0.1188 0.7704 0.3189, 0.1297 0.7481 0.3189, 0.1246 0.7533 0.3189, 0.1212 0.7591 0.3189, 0.1211 0.7594 0.3189, 0.1192 0.7661 0.3189, 0.1197 0.7773 0.3189, 0.1221 0.7837 0.3189, 0.1251 0.7879 0.3189, 0.1261 0.7893 0.3189, 0.131 0.7937 0.3189, 0.1373 0.7971 0.3189, 0.1444 0.7988 0.3189, 0.1473 0.7989 0.3189, 0.1539 0.7981 0.3189, 0.1603 0.7958 0.3189, 0.1624 0.7946 0.3189, 0.1665 0.8032 0.3189, 0.1727 0.8109 0.3189, 0.1806 0.8168 0.3189, 0.1899 0.8206 0.3189, 0.2005 0.822 0.3189, 0.2404 0.7864 0.3189, 0.2401 0.7879 0.3189, 0.239 0.7931 0.3189, 0.2349 0.8024 0.3189, 0.2287 0.8103 0.3189, 0.2268 0.8121 0.3189, 0.2187 0.8175 0.3189, 0.2098 0.8209 0.3189, 0.2426 0.7864 0.3189, 0.2481 0.7857 0.3189, 0.253 0.7838 0.3189, 0.2574 0.7807 0.3189, 0.2607 0.777 0.3189, 0.2634 0.7721 0.3189, 0.2647 0.7666 0.3189, 0.2648 0.7642 0.3189, 0.2643 0.7594 0.3189, 0.2642 0.7586 0.3189, 0.2622 0.7536 0.3189, 0.2591 0.7491 0.3189, 0.2587 0.7487 0.3189, 0.2545 0.7453 0.3189, 0.2494 0.7429 0.3189, 0.2444 0.742 0.3189, 0.2315 0.742 0.3189, 0.231 0.742 0.3189, 0.2301 0.7422 0.3189, 0.2298 0.7423 0.3189, 0.2277 0.742 0.3189, 0.2258 0.7413 0.3189, 0.224 0.74 0.3189, 0.2226 0.7384 0.3189, 0.2215 0.7364 0.3189, 0.2211 0.7342 0.3189, 0.221 0.7334 0.3189, 0.2213 0.7314 0.3189, 0.222 0.7294 0.3189, 0.2232 0.7276 0.3189, 0.2241 0.7268 0.3189, 0.2259 0.7255 0.3189, 0.2278 0.7248 0.3189, 0.2293 0.7246 0.3189, 0.2461 0.7246 0.3189, 0.2552 0.7265 0.3189, 0.2639 0.7307 0.3189, 0.272 0.7374 0.3189, 0.2775 0.745 0.3189, 0.2811 0.754 0.3189, 0.2819 0.7594 0.3189, 0.2825 0.7633 0.3189, 0.1624 0.7451 0.3189, 0.1647 0.7449 0.3189, 0.1674 0.7439 0.3189, 0.1697 0.7424 0.3189, 0.1715 0.7403 0.3189, 0.1727 0.738 0.3189, 0.1734 0.7353 0.3189, 0.1734 0.7327 0.3189, 0.1727 0.73 0.3189, 0.1714 0.7275 0.3189, 0.1695 0.7255 0.3189, 0.1673 0.7241 0.3189, 0.1648 0.7232 0.3189, 0.1624 0.7229 0.3189, 0.1599 0.7232 0.3189, 0.1572 0.7242 0.3189, 0.155 0.7257 0.3189, 0.1532 0.7278 0.3189, 0.152 0.7302 0.3189, 0.1513 0.7328 0.3189, 0.1513 0.7352 0.3189, 0.152 0.738 0.3189, 0.1533 0.7404 0.3189, 0.1552 0.7425 0.3189, 0.1575 0.744 0.3189, 0.16 0.7448 0.3189
            ]
        }
        coordIndex [
            0,1,2,-1,3,4,5,-1,5,4,6,-1,7,8,9,-1,10,11,5,-1,5,11,12,-1,13,1,14,-1,14,1,15,-1,14,15,16,-1,17,18,2,-1,2,18,19,-1,2,19,0,-1,12,20,5,-1,5,20,21,-1,5,21,22,-1,22,21,23,-1,24,25,26,-1,26,25,27,-1,26,27,28,-1,28,27,29,-1,28,29,30,-1,30,29,31,-1,32,33,34,-1,34,33,35,-1,34,35,36,-1,36,35,37,-1,36,37,38,-1,38,37,39,-1,38,39,40,-1,41,42,43,-1,43,42,44,-1,43,44,45,-1,45,44,46,-1,45,46,47,-1,47,46,48,-1,47,48,49,-1,49,48,50,-1,49,50,51,-1,51,50,52,-1,51,52,53,-1,53,52,2,-1,53,2,54,-1,9,8,55,-1,55,8,56,-1,55,56,57,-1,58,59,60,-1,60,59,61,-1,60,61,26,-1,26,61,62,-1,26,62,24,-1,63,64,17,-1,17,64,65,-1,17,65,18,-1,66,67,68,-1,68,67,69,-1,68,69,70,-1,70,69,71,-1,70,71,72,-1,72,71,73,-1,72,73,63,-1,63,73,74,-1,63,74,64,-1,29,75,31,-1,31,75,76,-1,31,76,77,-1,77,76,78,-1,77,78,79,-1,79,78,80,-1,79,80,81,-1,81,80,7,-1,81,7,82,-1,82,7,9,-1,56,83,57,-1,57,83,84,-1,57,84,85,-1,85,84,86,-1,85,86,87,-1,87,86,88,-1,87,88,89,-1,89,88,90,-1,89,90,91,-1,91,90,92,-1,91,92,93,-1,40,39,94,-1,94,39,95,-1,94,95,96,-1,96,95,97,-1,96,97,98,-1,98,97,99,-1,98,99,100,-1,100,99,101,-1,100,101,58,-1,58,101,102,-1,58,102,59,-1,32,34,103,-1,103,34,104,-1,103,104,105,-1,105,104,106,-1,105,106,107,-1,107,106,108,-1,107,108,109,-1,109,108,110,-1,109,110,111,-1,111,110,112,-1,111,112,113,-1,113,112,114,-1,113,114,115,-1,115,114,116,-1,115,116,66,-1,66,116,117,-1,66,117,67,-1,13,118,1,-1,1,118,119,-1,1,119,2,-1,2,119,120,-1,2,120,54,-1,10,5,121,-1,121,5,6,-1,121,6,43,-1,43,6,122,-1,43,122,41,-1,15,123,16,-1,16,123,124,-1,16,124,125,-1,125,124,126,-1,125,126,127,-1,127,126,128,-1,127,128,129,-1,129,128,130,-1,129,130,131,-1,131,130,132,-1,131,132,133,-1,133,132,134,-1,133,134,135,-1,135,134,136,-1,135,136,23,-1,23,136,137,-1,23,137,22,-1,138,139,140,-1,141,142,143,-1,144,145,138,-1,138,145,146,-1,138,146,139,-1,92,147,93,-1,93,147,138,-1,93,138,148,-1,148,138,140,-1,144,138,143,-1,143,138,149,-1,143,149,141,-1,142,150,143,-1,143,150,151,-1,143,151,152,-1,81,153,154,-1,81,154,79,-1,79,154,155,-1,79,155,77,-1,77,155,156,-1,77,156,31,-1,156,157,31,-1,31,157,158,-1,31,158,30,-1,30,158,159,-1,30,159,28,-1,28,159,160,-1,28,160,26,-1,26,160,161,-1,26,161,60,-1,60,161,162,-1,60,162,58,-1,100,58,163,-1,163,58,162,-1,163,164,100,-1,100,164,165,-1,100,165,98,-1,98,165,166,-1,98,166,96,-1,167,38,168,-1,168,38,40,-1,168,40,169,-1,169,40,94,-1,169,94,170,-1,170,94,96,-1,170,96,166,-1,38,167,171,-1,38,171,36,-1,36,171,172,-1,36,172,34,-1,34,172,173,-1,34,173,104,-1,104,173,174,-1,104,174,106,-1,106,174,175,-1,106,175,108,-1,108,175,176,-1,108,176,110,-1,110,176,177,-1,110,177,112,-1,112,177,178,-1,112,178,114,-1,114,178,179,-1,114,179,116,-1,116,179,180,-1,116,180,117,-1,180,181,117,-1,117,181,182,-1,117,182,67,-1,67,182,183,-1,67,183,69,-1,69,183,184,-1,69,184,71,-1,71,184,185,-1,71,185,73,-1,185,186,73,-1,73,186,187,-1,73,187,74,-1,74,187,188,-1,74,188,64,-1,64,188,189,-1,64,189,65,-1,65,189,190,-1,65,190,18,-1,18,190,191,-1,18,191,19,-1,19,191,192,-1,19,192,0,-1,192,193,0,-1,0,193,194,-1,0,194,1,-1,1,194,195,-1,1,195,15,-1,15,195,196,-1,15,196,123,-1,196,197,123,-1,123,197,198,-1,123,198,124,-1,124,198,199,-1,124,199,126,-1,200,22,137,-1,126,199,201,-1,126,201,128,-1,128,201,202,-1,128,202,130,-1,202,203,130,-1,130,203,204,-1,130,204,132,-1,132,204,205,-1,132,205,134,-1,134,205,206,-1,134,206,136,-1,136,206,207,-1,136,207,137,-1,137,207,208,-1,137,208,200,-1,5,22,209,-1,209,22,200,-1,3,5,210,-1,210,5,209,-1,211,4,212,-1,212,4,3,-1,212,3,210,-1,213,6,214,-1,214,6,4,-1,214,4,211,-1,6,213,215,-1,6,215,122,-1,122,215,216,-1,122,216,41,-1,216,217,41,-1,41,217,218,-1,41,218,42,-1,42,218,219,-1,42,219,44,-1,44,219,220,-1,44,220,46,-1,46,220,221,-1,46,221,48,-1,48,221,222,-1,48,222,50,-1,222,223,50,-1,50,223,224,-1,50,224,52,-1,52,224,225,-1,52,225,2,-1,226,68,70,-1,2,225,227,-1,2,227,17,-1,17,227,228,-1,17,228,63,-1,63,228,229,-1,63,229,72,-1,72,229,230,-1,72,230,70,-1,70,230,231,-1,70,231,226,-1,68,226,232,-1,68,232,66,-1,66,232,233,-1,66,233,115,-1,115,233,234,-1,115,234,113,-1,234,235,113,-1,113,235,236,-1,113,236,111,-1,111,236,237,-1,111,237,109,-1,109,237,238,-1,109,238,107,-1,107,238,239,-1,107,239,105,-1,105,239,240,-1,105,240,103,-1,103,240,241,-1,103,241,32,-1,32,241,242,-1,32,242,33,-1,33,242,243,-1,33,243,35,-1,35,243,244,-1,35,244,37,-1,37,244,245,-1,37,245,39,-1,39,245,246,-1,39,246,95,-1,95,246,247,-1,95,247,97,-1,248,24,249,-1,249,24,62,-1,249,62,250,-1,250,62,61,-1,250,61,251,-1,251,61,59,-1,251,59,252,-1,252,59,102,-1,252,102,253,-1,253,102,101,-1,253,101,254,-1,254,101,99,-1,254,99,255,-1,255,99,97,-1,255,97,247,-1,25,24,256,-1,256,24,248,-1,25,256,257,-1,25,257,27,-1,27,257,258,-1,27,258,29,-1,29,258,259,-1,29,259,75,-1,75,259,260,-1,75,260,76,-1,76,260,261,-1,76,261,78,-1,78,261,262,-1,78,262,80,-1,80,262,263,-1,80,263,7,-1,7,263,8,-1,8,263,264,-1,264,265,8,-1,8,265,266,-1,8,266,56,-1,56,266,267,-1,56,267,83,-1,83,267,268,-1,83,268,84,-1,84,268,269,-1,84,269,86,-1,86,269,270,-1,86,270,88,-1,88,270,271,-1,88,271,90,-1,92,90,272,-1,272,90,271,-1,92,272,273,-1,92,273,147,-1,147,273,274,-1,147,274,138,-1,138,274,275,-1,138,275,149,-1,149,275,276,-1,149,276,141,-1,141,276,277,-1,141,277,142,-1,142,277,278,-1,142,278,150,-1,150,278,279,-1,150,279,151,-1,151,279,280,-1,151,280,152,-1,152,280,281,-1,152,281,143,-1,143,281,282,-1,143,282,144,-1,144,282,283,-1,144,283,145,-1,145,283,284,-1,145,284,146,-1,146,284,285,-1,146,285,139,-1,139,285,286,-1,139,286,140,-1,140,286,287,-1,140,287,148,-1,148,287,288,-1,148,288,93,-1,93,288,289,-1,93,289,91,-1,89,91,290,-1,290,91,289,-1,89,290,291,-1,89,291,87,-1,87,291,292,-1,87,292,85,-1,85,292,293,-1,85,293,57,-1,153,81,82,-1,57,293,294,-1,57,294,55,-1,55,294,295,-1,55,295,9,-1,9,295,296,-1,9,296,82,-1,82,296,297,-1,82,297,153,-1,43,298,299,-1,43,299,121,-1,121,299,300,-1,121,300,10,-1,10,300,301,-1,10,301,11,-1,11,301,302,-1,11,302,12,-1,12,302,303,-1,12,303,20,-1,20,303,304,-1,20,304,21,-1,21,304,305,-1,21,305,23,-1,23,305,306,-1,23,306,135,-1,135,306,307,-1,135,307,133,-1,133,307,308,-1,133,308,131,-1,131,308,309,-1,131,309,129,-1,129,309,310,-1,129,310,127,-1,127,310,311,-1,127,311,125,-1,125,311,312,-1,125,312,16,-1,16,312,313,-1,16,313,14,-1,14,313,314,-1,14,314,13,-1,13,314,315,-1,13,315,118,-1,118,315,316,-1,118,316,119,-1,119,316,317,-1,119,317,120,-1,120,317,318,-1,120,318,54,-1,54,318,319,-1,54,319,53,-1,53,319,320,-1,53,320,51,-1,51,320,321,-1,51,321,49,-1,49,321,322,-1,49,322,47,-1,47,322,323,-1,47,323,45,-1,45,323,298,-1,45,298,43,-1,
        ]
    }
}
Shape{
    appearance Appearance {
        material  Material 	{
            diffuseColor 0.25098039215686274 0.25098039215686274 0.25098039215686274
            specularColor 0.12549019607843137 0.12549019607843137 0.12549019607843137
            ambientIntensity 0.251
            transparency 0.0
            shininess 0.5
        }
    }
    geometry IndexedFaceSet {
        ccw TRUE
        solid FALSE
        coord DEF co Coordinate {
            point [
                0.1624 0.7451 0.3189, 0.1624 0.7229 0.3189, 0.1648 0.7232 0.3189, 0.1575 0.744 0.3189, 0.1513 0.7352 0.3189, 0.16 0.7448 0.3189, 0.1513 0.7328 0.3189, 0.1734 0.7353 0.3189, 0.1727 0.738 0.3189, 0.1715 0.7403 0.3189, 0.1697 0.7424 0.3189, 0.152 0.7302 0.3189, 0.1532 0.7278 0.3189, 0.155 0.7257 0.3189, 0.1674 0.7439 0.3189, 0.1647 0.7449 0.3189, 0.1552 0.7425 0.3189, 0.1533 0.7404 0.3189, 0.152 0.738 0.3189, 0.1572 0.7242 0.3189, 0.1599 0.7232 0.3189, 0.1673 0.7241 0.3189, 0.1695 0.7255 0.3189, 0.1734 0.7327 0.3189, 0.1714 0.7275 0.3189, 0.1727 0.73 0.3189
            ]
        }
        coordIndex [
            0,1,2,-1,3,4,5,-1,5,4,6,-1,5,6,0,-1,7,8,2,-1,2,8,9,-1,2,9,10,-1,6,11,0,-1,0,11,12,-1,0,12,13,-1,10,14,2,-1,2,14,15,-1,2,15,0,-1,3,16,4,-1,4,16,17,-1,4,17,18,-1,13,19,0,-1,0,19,20,-1,0,20,1,-1,2,21,7,-1,7,21,22,-1,7,22,23,-1,23,22,24,-1,23,24,25,-1,
        ]
    }
}
Shape{
    appearance Appearance {
        material  Material 	{
            diffuseColor 0.8509803921568627 0.8509803921568627 0.8509803921568627
            specularColor 0.4235294117647059 0.4235294117647059 0.4235294117647059
            ambientIntensity 0.851
            transparency 0.0
            shininess 0.5
        }
    }
    geometry IndexedFaceSet {
        ccw TRUE
        solid FALSE
        coord DEF co Coordinate {
            point [
                0.4429 0.965 0.0787, 0.3248 0.965 0.0787, 0.4429 0.9646 0.0787, 0.3248 0.9646 0.0787, 0.187 0.965 0.0787, 0.0689 0.965 0.0787, 0.187 0.9646 0.0787, 0.0689 0.9646 0.0787, -0.0689 0.965 0.0787, -0.187 0.965 0.0787, -0.0689 0.9646 0.0787, -0.187 0.9646 0.0787, -0.3248 0.965 0.0787, -0.4429 0.965 0.0787, -0.3248 0.9646 0.0787, -0.4429 0.9646 0.0787, 0.3248 0.9646 0.0039, 0.3248 0.965 0.0, 0.3248 0.8469 0.0039, 0.3248 0.8469 0.0, 0.187 0.9646 0.0039, 0.187 0.8469 0.0039, 0.187 0.8469 0.0, 0.187 0.965 0.0, 0.0689 0.9646 0.0039, 0.0689 0.965 0.0, 0.0689 0.8469 0.0039, 0.0689 0.8469 0.0, -0.0689 0.9646 0.0039, -0.0689 0.8469 0.0039, -0.0689 0.8469 0.0, -0.0689 0.965 0.0, -0.187 0.9646 0.0039, -0.187 0.965 0.0, -0.187 0.8469 0.0039, -0.187 0.8469 0.0, -0.3248 0.9646 0.0039, -0.3248 0.8469 0.0039, -0.3248 0.8469 0.0, -0.3248 0.965 0.0, -0.4429 0.9646 0.0039, -0.4429 0.965 0.0, -0.4429 0.2981 0.0039, -0.4429 0.2981 0.0, 0.4429 0.9646 0.0039, 0.4429 0.1973 0.0039, 0.4429 0.1973 0.0, 0.4429 0.965 0.0, -0.4418 0.2866 0.0, -0.4418 0.2866 0.0039, -0.4384 0.2755 0.0, -0.4384 0.2755 0.0039, -0.4329 0.2653 0.0, -0.4329 0.2653 0.0039, -0.4256 0.2563 0.0, -0.4256 0.2563 0.0039, -0.3248 0.1555 0.0039, -0.3248 0.1555 0.0, -0.3126 0.1461 0.0, -0.3126 0.1461 0.0039, -0.2983 0.1402 0.0, -0.2983 0.1402 0.0039, -0.283 0.1382 0.0, -0.283 0.1382 0.0039, 0.3839 0.1382 0.0039, 0.3839 0.1382 0.0, 0.3992 0.1402 0.0, 0.3992 0.1402 0.0039, 0.4134 0.1461 0.0, 0.4134 0.1461 0.0039, 0.4256 0.1555 0.0, 0.4256 0.1555 0.0039, 0.435 0.1677 0.0, 0.435 0.1677 0.0039, 0.4409 0.182 0.0, 0.4409 0.182 0.0039, -0.187 -0.335 0.0787, -0.0689 -0.335 0.0787, -0.187 -0.3346 0.0787, -0.0689 -0.3346 0.0787, -0.187 -0.3346 0.0039, -0.187 -0.2169 0.0039, -0.187 -0.2169 0.0, -0.187 -0.335 0.0, -0.0689 -0.3346 0.0039, -0.0689 -0.335 0.0, -0.0689 -0.2169 0.0039, -0.0689 -0.2169 0.0, -0.0709 -0.2016 0.0, -0.0709 -0.2016 0.0039, -0.0768 -0.1874 0.0, -0.0768 -0.1874 0.0039, -0.0862 -0.1752 0.0, -0.0862 -0.1752 0.0039, -0.0984 -0.1658 0.0, -0.0984 -0.1658 0.0039, -0.1126 -0.1599 0.0, -0.1126 -0.1599 0.0039, -0.1279 -0.1579 0.0, -0.1279 -0.1579 0.0039, -0.1432 -0.1599 0.0, -0.1432 -0.1599 0.0039, -0.1575 -0.1658 0.0, -0.1575 -0.1658 0.0039, -0.1697 -0.1752 0.0, -0.1697 -0.1752 0.0039, -0.1791 -0.1874 0.0, -0.1791 -0.1874 0.0039, -0.185 -0.2016 0.0, -0.185 -0.2016 0.0039, 0.0689 -0.335 0.0787, 0.187 -0.335 0.0787, 0.0689 -0.3346 0.0787, 0.187 -0.3346 0.0787, 0.0689 -0.3346 0.0039, 0.0689 -0.2169 0.0039, 0.0689 -0.2169 0.0, 0.0689 -0.335 0.0, 0.187 -0.3346 0.0039, 0.187 -0.335 0.0, 0.187 -0.2169 0.0039, 0.187 -0.2169 0.0, 0.185 -0.2016 0.0, 0.185 -0.2016 0.0039, 0.1791 -0.1874 0.0, 0.1791 -0.1874 0.0039, 0.1697 -0.1752 0.0, 0.1697 -0.1752 0.0039, 0.1575 -0.1658 0.0, 0.1575 -0.1658 0.0039, 0.1433 -0.1599 0.0, 0.1433 -0.1599 0.0039, 0.128 -0.1579 0.0, 0.128 -0.1579 0.0039, 0.1127 -0.1599 0.0, 0.1127 -0.1599 0.0039, 0.0984 -0.1658 0.0, 0.0984 -0.1658 0.0039, 0.0862 -0.1752 0.0, 0.0862 -0.1752 0.0039, 0.0768 -0.1874 0.0, 0.0768 -0.1874 0.0039, 0.0709 -0.2016 0.0, 0.0709 -0.2016 0.0039, 0.3248 -0.335 0.0787, 0.4429 -0.335 0.0787, 0.3248 -0.3346 0.0787, 0.4429 -0.3346 0.0787, 0.3248 -0.3346 0.0039, 0.3248 -0.2169 0.0039, 0.3248 -0.2169 0.0, 0.3248 -0.335 0.0, 0.4429 -0.3346 0.0039, 0.4429 -0.335 0.0, 0.4429 -0.2169 0.0039, 0.4429 -0.2169 0.0, 0.4409 -0.2016 0.0, 0.4409 -0.2016 0.0039, 0.435 -0.1874 0.0, 0.435 -0.1874 0.0039, 0.4256 -0.1752 0.0, 0.4256 -0.1752 0.0039, 0.4134 -0.1658 0.0, 0.4134 -0.1658 0.0039, 0.3992 -0.1599 0.0, 0.3992 -0.1599 0.0039, 0.3839 -0.1579 0.0, 0.3839 -0.1579 0.0039, 0.3686 -0.1599 0.0, 0.3686 -0.1599 0.0039, 0.3544 -0.1658 0.0, 0.3544 -0.1658 0.0039, 0.3421 -0.1752 0.0, 0.3421 -0.1752 0.0039, 0.3327 -0.1874 0.0, 0.3327 -0.1874 0.0039, 0.3268 -0.2016 0.0, 0.3268 -0.2016 0.0039, -0.4429 -0.335 0.0787, -0.3248 -0.335 0.0787, -0.4429 -0.3346 0.0787, -0.3248 -0.3346 0.0787, -0.4429 -0.3346 0.0039, -0.4429 -0.2169 0.0039, -0.4429 -0.2169 0.0, -0.4429 -0.335 0.0, -0.3248 -0.3346 0.0039, -0.3248 -0.335 0.0, -0.3248 -0.2169 0.0039, -0.3248 -0.2169 0.0, -0.3268 -0.2016 0.0, -0.3268 -0.2016 0.0039, -0.3327 -0.1874 0.0, -0.3327 -0.1874 0.0039, -0.3421 -0.1752 0.0, -0.3421 -0.1752 0.0039, -0.3543 -0.1658 0.0, -0.3543 -0.1658 0.0039, -0.3686 -0.1599 0.0, -0.3686 -0.1599 0.0039, -0.3838 -0.1579 0.0, -0.3838 -0.1579 0.0039, -0.3991 -0.1599 0.0, -0.3991 -0.1599 0.0039, -0.4134 -0.1658 0.0, -0.4134 -0.1658 0.0039, -0.4256 -0.1752 0.0, -0.4256 -0.1752 0.0039, -0.435 -0.1874 0.0, -0.435 -0.1874 0.0039, -0.4409 -0.2016 0.0, -0.4409 -0.2016 0.0039
            ]
        }
        coordIndex [
            0,1,2,-1,2,1,3,-1,4,5,6,-1,6,5,7,-1,8,9,10,-1,10,9,11,-1,12,13,14,-1,14,13,15,-1,3,1,16,-1,16,1,17,-1,16,17,18,-1,18,17,19,-1,4,6,20,-1,21,22,20,-1,20,22,23,-1,20,23,4,-1,7,5,24,-1,24,5,25,-1,24,25,26,-1,26,25,27,-1,8,10,28,-1,29,30,28,-1,28,30,31,-1,28,31,8,-1,11,9,32,-1,32,9,33,-1,32,33,34,-1,34,33,35,-1,12,14,36,-1,37,38,36,-1,36,38,39,-1,36,39,12,-1,15,13,40,-1,40,13,41,-1,40,41,42,-1,42,41,43,-1,0,2,44,-1,45,46,44,-1,44,46,47,-1,44,47,0,-1,19,22,18,-1,18,22,21,-1,5,4,25,-1,25,4,23,-1,27,30,26,-1,26,30,29,-1,9,8,33,-1,33,8,31,-1,35,38,34,-1,34,38,37,-1,13,12,41,-1,41,12,39,-1,42,43,48,-1,42,48,49,-1,49,48,50,-1,49,50,51,-1,51,50,52,-1,51,52,53,-1,53,52,54,-1,53,54,55,-1,55,54,56,-1,56,54,57,-1,56,57,58,-1,56,58,59,-1,59,58,60,-1,59,60,61,-1,61,60,62,-1,61,62,63,-1,63,62,64,-1,64,62,65,-1,64,65,66,-1,64,66,67,-1,67,66,68,-1,67,68,69,-1,69,68,70,-1,69,70,71,-1,71,70,72,-1,71,72,73,-1,73,72,74,-1,73,74,75,-1,75,74,46,-1,75,46,45,-1,1,0,17,-1,17,0,47,-1,33,31,35,-1,35,31,30,-1,30,27,46,-1,65,62,35,-1,35,62,60,-1,54,52,35,-1,35,52,50,-1,50,48,35,-1,35,48,43,-1,35,43,38,-1,38,43,41,-1,38,41,39,-1,60,58,35,-1,35,58,57,-1,35,57,54,-1,17,47,19,-1,19,47,46,-1,19,46,22,-1,22,46,27,-1,22,27,23,-1,23,27,25,-1,72,70,35,-1,30,46,35,-1,35,46,74,-1,35,74,72,-1,70,68,35,-1,35,68,66,-1,35,66,65,-1,76,77,78,-1,78,77,79,-1,76,78,80,-1,81,82,80,-1,80,82,83,-1,80,83,76,-1,79,77,84,-1,84,77,85,-1,84,85,86,-1,86,85,87,-1,86,87,88,-1,86,88,89,-1,89,88,90,-1,89,90,91,-1,91,90,92,-1,91,92,93,-1,93,92,94,-1,93,94,95,-1,95,94,96,-1,95,96,97,-1,97,96,98,-1,97,98,99,-1,99,98,100,-1,99,100,101,-1,101,100,102,-1,101,102,103,-1,103,102,104,-1,103,104,105,-1,105,104,106,-1,105,106,107,-1,107,106,108,-1,107,108,109,-1,109,108,82,-1,109,82,81,-1,77,76,85,-1,85,76,83,-1,85,83,87,-1,87,83,82,-1,87,82,108,-1,102,100,87,-1,87,100,98,-1,87,98,96,-1,96,94,87,-1,87,94,92,-1,87,92,88,-1,88,92,90,-1,108,106,87,-1,87,106,104,-1,87,104,102,-1,110,111,112,-1,112,111,113,-1,110,112,114,-1,115,116,114,-1,114,116,117,-1,114,117,110,-1,113,111,118,-1,118,111,119,-1,118,119,120,-1,120,119,121,-1,120,121,122,-1,120,122,123,-1,123,122,124,-1,123,124,125,-1,125,124,126,-1,125,126,127,-1,127,126,128,-1,127,128,129,-1,129,128,130,-1,129,130,131,-1,131,130,132,-1,131,132,133,-1,133,132,134,-1,133,134,135,-1,135,134,136,-1,135,136,137,-1,137,136,138,-1,137,138,139,-1,139,138,140,-1,139,140,141,-1,141,140,142,-1,141,142,143,-1,143,142,116,-1,143,116,115,-1,111,110,119,-1,119,110,117,-1,121,136,134,-1,134,132,121,-1,121,132,130,-1,121,130,128,-1,119,117,121,-1,121,117,116,-1,121,116,142,-1,128,126,121,-1,121,126,124,-1,121,124,122,-1,142,140,121,-1,121,140,138,-1,121,138,136,-1,144,145,146,-1,146,145,147,-1,144,146,148,-1,149,150,148,-1,148,150,151,-1,148,151,144,-1,147,145,152,-1,152,145,153,-1,152,153,154,-1,154,153,155,-1,154,155,156,-1,154,156,157,-1,157,156,158,-1,157,158,159,-1,159,158,160,-1,159,160,161,-1,161,160,162,-1,161,162,163,-1,163,162,164,-1,163,164,165,-1,165,164,166,-1,165,166,167,-1,167,166,168,-1,167,168,169,-1,169,168,170,-1,169,170,171,-1,171,170,172,-1,171,172,173,-1,173,172,174,-1,173,174,175,-1,175,174,176,-1,175,176,177,-1,177,176,150,-1,177,150,149,-1,145,144,153,-1,153,144,151,-1,153,151,155,-1,155,151,150,-1,166,150,168,-1,168,150,170,-1,170,150,172,-1,172,150,176,-1,172,176,174,-1,160,158,150,-1,150,158,156,-1,150,156,155,-1,166,164,150,-1,150,164,162,-1,150,162,160,-1,178,179,180,-1,180,179,181,-1,178,180,182,-1,183,184,182,-1,182,184,185,-1,182,185,178,-1,181,179,186,-1,186,179,187,-1,186,187,188,-1,188,187,189,-1,188,189,190,-1,188,190,191,-1,191,190,192,-1,191,192,193,-1,193,192,194,-1,193,194,195,-1,195,194,196,-1,195,196,197,-1,197,196,198,-1,197,198,199,-1,199,198,200,-1,199,200,201,-1,201,200,202,-1,201,202,203,-1,203,202,204,-1,203,204,205,-1,205,204,206,-1,205,206,207,-1,207,206,208,-1,207,208,209,-1,209,208,210,-1,209,210,211,-1,211,210,184,-1,211,184,183,-1,179,178,187,-1,187,178,185,-1,187,185,189,-1,189,185,184,-1,184,210,189,-1,189,210,208,-1,189,208,206,-1,190,189,192,-1,192,189,194,-1,206,204,189,-1,189,204,202,-1,189,202,200,-1,200,198,189,-1,189,198,196,-1,189,196,194,-1,
        ]
    }
}