#VRML V2.0 utf8
# 3D model generated by easyeda2kicad.py (https://github.com/uPesy/easyeda2kicad.py)

Shape{
    appearance Appearance {
        material  Material 	{
            diffuseColor 0.14901960784313725 0.14901960784313725 0.14901960784313725
            specularColor 0.07450980392156863 0.07450980392156863 0.07450980392156863
            ambientIntensity 0.149
            transparency 0.0
            shininess 0.5
        }
    }
    geometry IndexedFaceSet {
        ccw TRUE
        solid FALSE
        coord DEF co Coordinate {
            point [
                -3.0 -0.1895 0.1969, -3.0 0.1994 0.1969, -2.0 0.1994 0.1969, -0.2075 0.1953 0.1969, -0.2248 0.1994 0.1969, -0.13 0.1994 0.1969, 0.0 -0.7087 0.1969, -0.0675 -0.7874 0.1969, -0.13 -0.7874 0.1969, -1.0 -0.7087 0.1969, -1.0675 -0.7874 0.1969, -1.1337 -0.7874 0.1969, 0.0675 0.7874 0.1969, 0.1744 0.7874 0.1969, 0.0 0.7087 0.1969, 0.1744 0.7067 0.1969, -1.0675 0.7874 0.1969, -1.0 0.7087 0.1969, -1.1337 0.7067 0.1969, -0.694 0.7067 0.1969, -1.1337 0.7874 0.1969, -2.0 0.7087 0.1969, -1.9325 0.7874 0.1969, -2.9325 0.7874 0.1969, -2.0675 0.7874 0.1969, -3.0 0.7087 0.1969, -3.9325 0.7874 0.1969, -3.0675 0.7874 0.1969, -4.0 0.7087 0.1969, -4.9325 0.7874 0.1969, -4.0675 0.7874 0.1969, -5.0 0.7087 0.1969, -5.9325 0.7874 0.1969, -5.813 0.7874 0.1969, -6.0 0.7087 0.1969, -5.813 0.7067 0.1969, -6.0 0.7067 0.1969, -4.626 -0.626 0.1969, -5.0 -0.7087 0.1969, -4.626 -0.374 0.1969, -5.0 -0.1895 0.1969, -4.374 -0.374 0.1969, -3.626 -0.626 0.1969, -4.0 -0.7087 0.1969, -3.626 -0.374 0.1969, -4.0 -0.1895 0.1969, -3.374 -0.374 0.1969, -2.374 -0.374 0.1969, -2.626 -0.374 0.1969, -3.0 -0.7087 0.1969, -2.626 -0.626 0.1969, -2.9325 -0.7874 0.1969, -2.0675 -0.7874 0.1969, -2.374 -0.626 0.1969, -2.0 -0.7087 0.1969, -2.0 -0.1895 0.1969, -1.9325 -0.7874 0.1969, -1.626 -0.626 0.1969, -1.626 -0.374 0.1969, -1.374 -0.374 0.1969, -0.694 -0.7874 0.1969, -0.9325 -0.7874 0.1969, -0.694 -0.1895 0.1969, -1.1337 -0.1895 0.1969, -1.374 -0.626 0.1969, 0.1744 -0.1895 0.1969, 0.1744 -0.7874 0.1969, 0.0675 -0.7874 0.1969, 1.626 -0.374 0.1969, 1.374 -0.374 0.1969, 1.0 -0.1895 0.1969, 0.626 -0.374 0.1969, 1.0 -0.7087 0.1969, 0.626 -0.626 0.1969, 0.9325 -0.7874 0.1969, 0.374 -0.626 0.1969, 0.374 -0.374 0.1969, 1.374 -0.626 0.1969, 2.0 -0.1895 0.1969, 2.0 -0.7087 0.1969, 1.626 -0.626 0.1969, 1.9325 -0.7874 0.1969, 1.0675 -0.7874 0.1969, 2.626 -0.374 0.1969, 3.0 -0.7087 0.1969, 2.626 -0.626 0.1969, 2.9325 -0.7874 0.1969, 2.374 -0.626 0.1969, 3.626 -0.374 0.1969, 3.374 -0.374 0.1969, 3.0 -0.1895 0.1969, 2.0675 -0.7874 0.1969, 2.374 -0.374 0.1969, 3.374 -0.626 0.1969, 4.0 -0.1895 0.1969, 4.0 -0.7087 0.1969, 3.626 -0.626 0.1969, 3.9325 -0.7874 0.1969, 3.0675 -0.7874 0.1969, 4.626 -0.374 0.1969, 5.0 -0.7087 0.1969, 4.626 -0.626 0.1969, 4.9325 -0.7874 0.1969, 4.374 -0.626 0.1969, 5.626 -0.374 0.1969, 5.374 -0.374 0.1969, 5.0 -0.1895 0.1969, 4.0675 -0.7874 0.1969, 4.374 -0.374 0.1969, 5.374 -0.626 0.1969, 6.0 -0.1895 0.1969, 6.0 -0.7087 0.1969, 5.626 -0.626 0.1969, 5.9325 -0.7874 0.1969, 5.0675 -0.7874 0.1969, 5.0675 0.7874 0.1969, 5.9325 0.7874 0.1969, 5.0 0.7087 0.1969, 6.0 0.7087 0.1969, 4.0675 0.7874 0.1969, 4.9325 0.7874 0.1969, 4.0 0.7087 0.1969, 3.0675 0.7874 0.1969, 3.9325 0.7874 0.1969, 3.0 0.7087 0.1969, 2.0675 0.7874 0.1969, 2.9325 0.7874 0.1969, 2.0 0.7087 0.1969, 1.0675 0.7874 0.1969, 1.9325 0.7874 0.1969, 1.0 0.7087 0.1969, 0.9325 0.7874 0.1969, 1.0 0.7067 0.1969, 2.0 0.7067 0.1969, 3.0 0.7067 0.1969, 4.0 0.7067 0.1969, -0.6537 0.7067 0.1969, -0.626 0.626 0.1969, -0.626 0.374 0.1969, -0.6575 0.0274 0.1969, -0.6537 0.0241 0.1969, -0.6537 -0.1895 0.1969, -0.6428 0.0144 0.1969, -0.628 0.0068 0.1969, -0.5912 0.1956 0.1969, -0.6221 0.1898 0.1969, -0.6537 0.1994 0.1969, -0.5199 0.0 0.1969, -0.5022 -0.1895 0.1969, -0.5809 0.0 0.1969, -0.604 0.0013 0.1969, -0.5596 0.1969 0.1969, -0.5022 0.1994 0.1969, -0.5199 0.1969 0.1969, -0.642 0.1797 0.1969, -0.6537 0.1695 0.1969, -0.694 0.1994 0.1969, -0.6564 0.1672 0.1969, -0.6689 0.1494 0.1969, -0.6772 0.1289 0.1969, -0.6811 0.1051 0.1969, -0.6814 0.0959 0.1969, -0.6786 0.0696 0.1969, -0.6709 0.0477 0.1969, -0.13 0.7067 0.1969, -0.2315 0.201 0.1969, -0.3533 0.7067 0.1969, -0.2472 0.2019 0.1969, -0.2692 0.1994 0.1969, -0.3533 0.1994 0.1969, -0.2759 0.1986 0.1969, -0.2168 -0.0015 0.1969, -0.1932 0.0075 0.1969, -0.13 -0.1895 0.1969, -0.2938 0.1924 0.1969, -0.3153 0.1794 0.1969, -0.3273 0.168 0.1969, -0.1594 0.1075 0.1969, -0.159 0.0982 0.1969, -0.2461 0.1817 0.1969, -0.3177 0.048 0.1969, -0.3331 0.0362 0.1969, -0.3331 0.1607 0.1969, -0.3533 -0.1895 0.1969, -0.3158 0.018 0.1969, -0.2954 0.0052 0.1969, -0.1637 0.1266 0.1969, -0.1742 0.0212 0.1969, -0.1663 0.0294 0.1969, -0.152 0.051 0.1969, -0.1526 0.1473 0.1969, -0.1661 0.1667 0.1969, -0.1866 0.1847 0.1969, -0.1784 0.0448 0.1969, -0.1926 0.0318 0.1969, -0.3177 0.1489 0.1969, -0.3019 0.1642 0.1969, -0.3068 0.037 0.1969, -0.2834 0.1746 0.1969, -0.2894 0.025 0.1969, -0.2704 0.0179 0.1969, -0.2229 0.1788 0.1969, -0.2028 0.1711 0.1969, -0.1616 0.0765 0.1969, -0.1678 0.0602 0.1969, -0.2747 0.1777 0.1969, -0.253 0.1815 0.1969, -0.2317 0.0162 0.1969, -0.2117 0.0214 0.1969, -0.1441 0.0736 0.1969, -0.1413 0.0996 0.1969, -0.1446 0.1265 0.1969, -0.2474 0.0151 0.1969, -0.1847 0.1583 0.1969, -0.1724 0.1441 0.1969, -0.273 -0.0024 0.1969, -0.2573 -0.0047 0.1969, -0.2475 -0.005 0.1969, -6.0 0.1994 0.1969, -5.813 0.1994 0.1969, -6.0 -0.1895 0.1969, -5.813 -0.1895 0.1969, -6.0 -0.7087 0.1969, -5.813 -0.7874 0.1969, -5.9325 -0.7874 0.1969, -5.0 0.1994 0.1969, -5.374 -0.374 0.1969, -5.374 -0.626 0.1969, -5.0675 -0.7874 0.1969, -5.626 -0.626 0.1969, -5.626 -0.374 0.1969, -5.374 0.626 0.1969, -5.0 0.7067 0.1969, -5.374 0.374 0.1969, -5.626 0.374 0.1969, -5.626 0.626 0.1969, -4.0 0.1994 0.1969, -4.374 -0.626 0.1969, -4.0675 -0.7874 0.1969, -4.9325 -0.7874 0.1969, -4.374 0.626 0.1969, -4.0 0.7067 0.1969, -4.374 0.374 0.1969, -4.626 0.374 0.1969, -4.626 0.626 0.1969, -3.374 -0.626 0.1969, -3.0675 -0.7874 0.1969, -3.9325 -0.7874 0.1969, -3.374 0.626 0.1969, -3.0 0.7067 0.1969, -3.374 0.374 0.1969, -3.626 0.374 0.1969, -3.626 0.626 0.1969, -2.374 0.374 0.1969, -2.626 0.374 0.1969, -2.626 0.626 0.1969, -2.374 0.626 0.1969, -2.0 0.7067 0.1969, -1.1337 0.1994 0.1969, -1.626 0.626 0.1969, -1.626 0.374 0.1969, -1.374 0.374 0.1969, -5.0675 0.7874 0.1969, -1.374 0.626 0.1969, -0.7259 0.0 0.1969, -0.7066 0.0 0.1969, -0.8025 0.1969 0.1969, -0.8 0.1969 0.1969, -0.8934 0.0 0.1969, -0.8742 0.0 0.1969, -0.8451 0.0631 0.1969, -0.7559 0.0631 0.1969, -0.6537 -0.7874 0.1969, -0.5022 0.626 0.1969, -0.5022 0.7067 0.1969, -0.374 0.626 0.1969, -0.374 0.374 0.1969, -0.5022 0.374 0.1969, -0.4846 0.1767 0.1969, -0.3912 0.1767 0.1969, -0.3912 0.1161 0.1969, -0.4846 0.1161 0.1969, -0.4846 0.0959 0.1969, -0.3912 0.0959 0.1969, -0.3912 0.0202 0.1969, -0.4846 0.0202 0.1969, -0.4846 0.0 0.1969, -0.3735 0.0 0.1969, -0.3735 0.1969 0.1969, -0.4846 0.1969 0.1969, -0.3533 -0.7874 0.1969, -0.374 -0.374 0.1969, -0.5022 -0.374 0.1969, -0.626 -0.374 0.1969, -0.626 -0.626 0.1969, -0.5022 -0.7874 0.1969, -0.5022 -0.626 0.1969, -0.374 -0.626 0.1969, -0.0675 0.7874 0.1969, -0.13 0.7874 0.1969, -0.3533 0.7874 0.1969, -0.5022 0.7874 0.1969, -0.6537 0.7874 0.1969, -0.694 0.7874 0.1969, -0.9325 0.7874 0.1969, -0.1186 0.0 0.1969, -0.0252 0.0 0.1969, -0.0252 0.1969 0.1969, -0.0429 0.1969 0.1969, -0.0429 0.0202 0.1969, -0.1186 0.0202 0.1969, 0.1744 0.1994 0.1969, 0.626 0.626 0.1969, 0.626 0.374 0.1969, 1.0 0.1994 0.1969, 0.374 0.374 0.1969, 0.374 0.626 0.1969, 1.626 0.626 0.1969, 1.626 0.374 0.1969, 2.0 0.1994 0.1969, 1.374 0.374 0.1969, 1.374 0.626 0.1969, 2.626 0.626 0.1969, 2.626 0.374 0.1969, 3.0 0.1994 0.1969, 2.374 0.374 0.1969, 2.374 0.626 0.1969, 3.626 0.626 0.1969, 3.626 0.374 0.1969, 4.0 0.1994 0.1969, 3.374 0.374 0.1969, 3.374 0.626 0.1969, 6.0 0.7067 0.1969, 5.0 0.7067 0.1969, 4.374 0.626 0.1969, 4.374 0.374 0.1969, 5.0 0.1994 0.1969, 4.626 0.374 0.1969, 4.626 0.626 0.1969, 6.0 0.1994 0.1969, 5.626 0.626 0.1969, 5.626 0.374 0.1969, 5.374 0.374 0.1969, 5.374 0.626 0.1969, -5.813 -0.9268 1.0, -5.813 -0.8051 1.0, -5.9173 -0.8051 1.0, 1.374 0.626 1.0, 1.626 0.626 1.0, 1.7638 0.9843 1.0, 1.2362 0.9843 1.0, 1.0 0.7087 1.0, 1.374 0.374 1.0, 1.0 -0.0 1.0, 1.626 0.374 1.0, 2.0 -0.0 1.0, 2.0 0.7087 1.0, 2.374 0.626 1.0, 2.626 0.626 1.0, 2.7638 0.9843 1.0, 2.2362 0.9843 1.0, 2.374 0.374 1.0, 2.626 0.374 1.0, 3.0 -0.0 1.0, 3.0 0.7087 1.0, 3.374 0.626 1.0, 3.626 0.626 1.0, 3.7638 0.9843 1.0, 3.2362 0.9843 1.0, 3.374 0.374 1.0, 3.626 0.374 1.0, 4.0 -0.0 1.0, 4.0 0.7087 1.0, 4.374 0.626 1.0, 4.626 0.626 1.0, 4.7638 0.9843 1.0, 4.2362 0.9843 1.0, 4.374 0.374 1.0, 4.626 0.374 1.0, 5.0 -0.0 1.0, 5.0 0.7087 1.0, 5.374 0.626 1.0, 5.626 0.626 1.0, 5.7638 0.9843 1.0, 5.2362 0.9843 1.0, 5.374 0.374 1.0, 5.626 0.374 1.0, 6.0 -0.0 1.0, 6.0 0.7087 1.0, 5.626 -0.626 1.0, 5.374 -0.626 1.0, 5.0827 -0.8051 1.0, 5.9173 -0.8051 1.0, 6.0 -0.7087 1.0, 5.626 -0.374 1.0, 5.374 -0.374 1.0, 5.0 -0.7087 1.0, 5.2362 -0.9843 1.0, 5.7638 -0.9843 1.0, 4.626 -0.626 1.0, 4.374 -0.626 1.0, 4.0827 -0.8051 1.0, 4.9173 -0.8051 1.0, 4.626 -0.374 1.0, 4.374 -0.374 1.0, 4.0 -0.7087 1.0, 4.2362 -0.9843 1.0, 4.7638 -0.9843 1.0, 3.626 -0.626 1.0, 3.374 -0.626 1.0, 3.0827 -0.8051 1.0, 3.9173 -0.8051 1.0, 3.626 -0.374 1.0, 3.374 -0.374 1.0, 3.0 -0.7087 1.0, 3.2362 -0.9843 1.0, 3.7638 -0.9843 1.0, 2.626 -0.626 1.0, 2.374 -0.626 1.0, 2.0827 -0.8051 1.0, 2.9173 -0.8051 1.0, 2.626 -0.374 1.0, 2.374 -0.374 1.0, 2.0 -0.7087 1.0, 2.2362 -0.9843 1.0, 2.7638 -0.9843 1.0, 1.626 -0.626 1.0, 1.374 -0.626 1.0, 1.0827 -0.8051 1.0, 1.9173 -0.8051 1.0, 1.626 -0.374 1.0, 1.374 -0.374 1.0, 1.0 -0.7087 1.0, 1.2362 -0.9843 1.0, 1.7638 -0.9843 1.0, 0.626 -0.626 1.0, 0.374 -0.626 1.0, 0.0827 -0.8051 1.0, 0.9173 -0.8051 1.0, 0.626 -0.374 1.0, 0.374 -0.374 1.0, 0.0 -0.0 1.0, 0.0 -0.7087 1.0, 0.2362 -0.9843 1.0, 0.7638 -0.9843 1.0, -1.0 -0.7087 1.0, -1.374 -0.374 1.0, -1.0827 -0.8051 1.0, -1.374 -0.626 1.0, -1.626 -0.626 1.0, -1.9173 -0.8051 1.0, -0.374 -0.626 1.0, -0.626 -0.626 1.0, -0.9173 -0.8051 1.0, -0.626 -0.374 1.0, -1.626 -0.374 1.0, -2.0 -0.0 1.0, -2.0 -0.7087 1.0, -0.374 -0.374 1.0, -0.0827 -0.8051 1.0, -0.7638 -0.9843 1.0, -0.2362 -0.9843 1.0, -1.7638 -0.9843 1.0, -1.2362 -0.9843 1.0, -2.374 -0.626 1.0, -2.626 -0.626 1.0, -2.9173 -0.8051 1.0, -2.0827 -0.8051 1.0, -2.374 -0.374 1.0, -2.626 -0.374 1.0, -3.0 -0.0 1.0, -3.0 -0.7087 1.0, -2.7638 -0.9843 1.0, -2.2362 -0.9843 1.0, -3.374 -0.626 1.0, -3.626 -0.626 1.0, -3.9173 -0.8051 1.0, -3.0827 -0.8051 1.0, -3.374 -0.374 1.0, -3.626 -0.374 1.0, -4.0 -0.0 1.0, -4.0 -0.7087 1.0, -3.7638 -0.9843 1.0, -3.2362 -0.9843 1.0, -4.374 -0.626 1.0, -4.626 -0.626 1.0, -4.9173 -0.8051 1.0, -4.0827 -0.8051 1.0, -4.374 -0.374 1.0, -4.626 -0.374 1.0, -5.0 -0.0 1.0, -5.0 -0.7087 1.0, -4.7638 -0.9843 1.0, -4.2362 -0.9843 1.0, -5.626 -0.626 1.0, -5.626 -0.374 1.0, -5.813 -0.0 1.0, -5.374 -0.374 1.0, -5.374 -0.626 1.0, -5.0827 -0.8051 1.0, -5.7638 -0.9843 1.0, -5.2362 -0.9843 1.0, -6.0 -0.7087 1.0, -5.813 0.9268 1.0, -6.0 0.7087 1.0, -6.0 -0.0 1.0, -5.0 0.7087 1.0, -5.2362 0.9843 1.0, -5.374 0.626 1.0, -5.7638 0.9843 1.0, -5.626 0.626 1.0, -5.626 0.374 1.0, -5.374 0.374 1.0, -4.626 0.626 1.0, -4.374 0.626 1.0, -4.2362 0.9843 1.0, -4.7638 0.9843 1.0, -4.626 0.374 1.0, -4.374 0.374 1.0, -4.0 0.7087 1.0, -3.626 0.626 1.0, -3.374 0.626 1.0, -3.2362 0.9843 1.0, -3.7638 0.9843 1.0, -3.626 0.374 1.0, -3.374 0.374 1.0, -3.0 0.7087 1.0, -2.626 0.626 1.0, -2.374 0.626 1.0, -2.2362 0.9843 1.0, -2.7638 0.9843 1.0, -2.626 0.374 1.0, -2.374 0.374 1.0, -2.0 0.7087 1.0, -0.374 0.626 1.0, -0.374 0.374 1.0, -1.2362 0.9843 1.0, -1.626 0.626 1.0, -1.0 0.7087 1.0, -1.374 0.626 1.0, -0.626 0.374 1.0, -1.374 0.374 1.0, -1.626 0.374 1.0, -1.7638 0.9843 1.0, -0.7638 0.9843 1.0, -0.626 0.626 1.0, -0.2362 0.9843 1.0, 0.0 0.7087 1.0, 0.374 0.626 1.0, 0.626 0.626 1.0, 0.7638 0.9843 1.0, 0.2362 0.9843 1.0, 0.374 0.374 1.0, 0.626 0.374 1.0, 0.9325 0.7874 0.0, 0.0675 0.7874 0.0, 0.7638 0.9843 0.0, 0.2362 0.9843 0.0, -0.0675 0.7874 0.0, -0.9325 0.7874 0.0, -0.2362 0.9843 0.0, -0.7638 0.9843 0.0, 2.9325 0.7874 0.0, 2.0675 0.7874 0.0, 2.7638 0.9843 0.0, 2.2362 0.9843 0.0, 1.2362 0.9843 0.0, 1.7638 0.9843 0.0, 1.0675 0.7874 0.0, 1.9325 0.7874 0.0, -3.0675 0.7874 0.0, -3.9325 0.7874 0.0, -3.2362 0.9843 0.0, -3.7638 0.9843 0.0, -4.0675 0.7874 0.0, -4.9325 0.7874 0.0, -4.2362 0.9843 0.0, -4.7638 0.9843 0.0, -1.0675 0.7874 0.0, -1.9325 0.7874 0.0, -1.2362 0.9843 0.0, -1.7638 0.9843 0.0, -2.7638 0.9843 0.0, -2.2362 0.9843 0.0, -2.9325 0.7874 0.0, -2.0675 0.7874 0.0, 3.2362 0.9843 0.0, 3.7638 0.9843 0.0, 3.0675 0.7874 0.0, 3.9325 0.7874 0.0, 4.2362 0.9843 0.0, 4.7638 0.9843 0.0, 4.0675 0.7874 0.0, 4.9325 0.7874 0.0, 0.7638 -0.9843 0.0, 0.2362 -0.9843 0.0, -0.2362 -0.9843 0.0, -0.7638 -0.9843 0.0, 2.7638 -0.9843 0.0, 2.2362 -0.9843 0.0, 1.2362 -0.9843 0.0, 1.7638 -0.9843 0.0, -3.2362 -0.9843 0.0, -3.7638 -0.9843 0.0, -4.2362 -0.9843 0.0, -4.7638 -0.9843 0.0, -1.2362 -0.9843 0.0, -1.7638 -0.9843 0.0, -2.7638 -0.9843 0.0, -2.2362 -0.9843 0.0, 3.2362 -0.9843 0.0, 3.7638 -0.9843 0.0, 4.2362 -0.9843 0.0, 4.7638 -0.9843 0.0, 0.9325 -0.7874 0.0, 0.0675 -0.7874 0.0, -0.0675 -0.7874 0.0, -0.9325 -0.7874 0.0, 2.9325 -0.7874 0.0, 2.0675 -0.7874 0.0, 1.0675 -0.7874 0.0, 1.9325 -0.7874 0.0, -3.0675 -0.7874 0.0, -3.9325 -0.7874 0.0, -4.0675 -0.7874 0.0, -4.9325 -0.7874 0.0, -1.0675 -0.7874 0.0, -1.9325 -0.7874 0.0, -2.9325 -0.7874 0.0, -2.0675 -0.7874 0.0, 3.0675 -0.7874 0.0, 3.9325 -0.7874 0.0, 4.0675 -0.7874 0.0, 4.9325 -0.7874 0.0, 5.9325 0.7874 0.0, 5.0675 0.7874 0.0, 5.7638 0.9843 0.0, 5.2362 0.9843 0.0, -5.9325 0.7874 0.0, -5.7638 0.9843 0.0, -5.0675 0.7874 0.0, -5.2362 0.9843 0.0, -5.0675 -0.7874 0.0, -5.2362 -0.9843 0.0, -5.9325 -0.7874 0.0, -5.7638 -0.9843 0.0, 5.7638 -0.9843 0.0, 5.2362 -0.9843 0.0, 5.9325 -0.7874 0.0, 5.0675 -0.7874 0.0
            ]
        }
        coordIndex [
            0,1,2,-1,3,4,5,-1,6,7,8,-1,9,10,11,-1,12,13,14,-1,14,13,15,-1,16,17,18,-1,18,17,19,-1,16,18,20,-1,20,18,21,-1,20,21,22,-1,23,24,25,-1,25,24,21,-1,26,27,28,-1,28,27,25,-1,29,30,31,-1,31,30,28,-1,32,33,34,-1,34,33,35,-1,34,35,36,-1,37,38,39,-1,39,38,40,-1,39,40,41,-1,42,43,44,-1,44,43,45,-1,44,45,46,-1,47,48,0,-1,0,48,49,-1,49,48,50,-1,49,50,51,-1,51,50,52,-1,52,50,53,-1,52,53,54,-1,54,53,47,-1,54,47,55,-1,11,56,57,-1,57,56,54,-1,57,54,58,-1,58,54,55,-1,58,55,59,-1,60,61,62,-1,62,61,9,-1,62,9,63,-1,63,9,11,-1,63,11,64,-1,64,11,57,-1,65,66,67,-1,68,69,70,-1,71,72,73,-1,73,72,74,-1,73,74,75,-1,75,74,66,-1,75,66,76,-1,76,66,65,-1,76,65,71,-1,71,65,70,-1,71,70,72,-1,72,70,69,-1,72,69,77,-1,70,78,68,-1,68,78,79,-1,68,79,80,-1,80,79,81,-1,80,81,77,-1,77,81,82,-1,77,82,72,-1,83,84,85,-1,85,84,86,-1,85,86,87,-1,88,89,90,-1,86,91,87,-1,87,91,79,-1,87,79,92,-1,92,79,78,-1,92,78,83,-1,83,78,90,-1,83,90,84,-1,84,90,89,-1,84,89,93,-1,90,94,88,-1,88,94,95,-1,88,95,96,-1,96,95,97,-1,96,97,93,-1,93,97,98,-1,93,98,84,-1,99,100,101,-1,101,100,102,-1,101,102,103,-1,104,105,106,-1,102,107,103,-1,103,107,95,-1,103,95,108,-1,108,95,94,-1,108,94,99,-1,99,94,106,-1,99,106,100,-1,100,106,105,-1,100,105,109,-1,106,110,104,-1,104,110,111,-1,104,111,112,-1,112,111,113,-1,112,113,109,-1,109,113,114,-1,109,114,100,-1,115,116,117,-1,117,116,118,-1,119,120,121,-1,121,120,117,-1,122,123,124,-1,124,123,121,-1,125,126,127,-1,127,126,124,-1,128,129,130,-1,130,129,127,-1,13,131,15,-1,15,131,130,-1,15,130,132,-1,132,130,127,-1,132,127,133,-1,133,127,124,-1,133,124,134,-1,134,124,121,-1,134,121,135,-1,135,121,117,-1,136,137,138,-1,139,140,141,-1,141,140,142,-1,141,142,143,-1,144,145,146,-1,147,148,149,-1,149,148,141,-1,149,141,150,-1,150,141,143,-1,144,146,151,-1,151,146,152,-1,151,152,153,-1,145,154,146,-1,146,154,155,-1,146,155,156,-1,155,157,156,-1,156,157,158,-1,156,158,159,-1,159,160,156,-1,156,160,161,-1,156,161,62,-1,62,161,162,-1,62,162,163,-1,5,4,164,-1,164,4,165,-1,164,165,166,-1,165,167,166,-1,166,167,168,-1,166,168,169,-1,169,168,170,-1,171,172,173,-1,170,174,169,-1,169,174,175,-1,169,175,176,-1,177,178,179,-1,180,181,182,-1,176,182,169,-1,169,182,181,-1,169,181,183,-1,183,181,184,-1,183,184,185,-1,177,179,186,-1,172,187,173,-1,173,187,188,-1,173,188,189,-1,190,191,5,-1,5,191,192,-1,5,192,3,-1,179,193,194,-1,182,195,180,-1,180,195,196,-1,180,196,197,-1,197,196,198,-1,197,198,199,-1,199,198,200,-1,179,201,202,-1,178,203,179,-1,179,203,204,-1,179,204,193,-1,205,206,207,-1,207,206,179,-1,207,179,208,-1,208,179,194,-1,189,209,173,-1,173,209,210,-1,173,210,5,-1,5,210,211,-1,5,211,190,-1,205,207,198,-1,198,207,212,-1,198,212,200,-1,202,213,179,-1,179,213,214,-1,179,214,186,-1,185,215,183,-1,183,215,216,-1,183,216,173,-1,173,216,217,-1,173,217,171,-1,36,35,218,-1,218,35,219,-1,218,219,220,-1,220,219,221,-1,220,221,222,-1,222,221,223,-1,222,223,224,-1,219,225,221,-1,221,225,40,-1,221,40,226,-1,226,40,38,-1,226,38,227,-1,227,38,228,-1,227,228,229,-1,229,228,223,-1,229,223,230,-1,230,223,221,-1,230,221,226,-1,231,232,233,-1,233,232,225,-1,233,225,234,-1,234,225,219,-1,234,219,235,-1,235,219,35,-1,235,35,231,-1,231,35,232,-1,225,236,40,-1,40,236,45,-1,40,45,41,-1,41,45,43,-1,41,43,237,-1,237,43,238,-1,237,238,37,-1,37,238,239,-1,37,239,38,-1,240,241,242,-1,242,241,236,-1,242,236,243,-1,243,236,225,-1,243,225,244,-1,244,225,232,-1,244,232,240,-1,240,232,241,-1,236,1,45,-1,45,1,0,-1,45,0,46,-1,46,0,49,-1,46,49,245,-1,245,49,246,-1,245,246,42,-1,42,246,247,-1,42,247,43,-1,248,249,250,-1,250,249,1,-1,250,1,251,-1,251,1,236,-1,251,236,252,-1,252,236,241,-1,252,241,248,-1,248,241,249,-1,253,2,254,-1,254,2,1,-1,254,1,255,-1,255,1,249,-1,255,249,256,-1,256,249,257,-1,256,257,253,-1,64,59,63,-1,63,59,55,-1,63,55,258,-1,253,257,2,-1,2,257,259,-1,2,259,260,-1,47,0,55,-1,55,0,2,-1,55,2,258,-1,258,2,260,-1,258,260,261,-1,33,262,35,-1,35,262,31,-1,35,31,232,-1,232,31,28,-1,232,28,241,-1,241,28,25,-1,241,25,249,-1,249,25,21,-1,249,21,257,-1,257,21,18,-1,257,18,259,-1,259,18,263,-1,264,265,62,-1,266,258,156,-1,62,265,156,-1,156,265,267,-1,156,267,266,-1,258,266,63,-1,63,266,268,-1,63,268,62,-1,62,268,269,-1,62,269,264,-1,264,269,270,-1,264,270,271,-1,163,139,62,-1,62,139,141,-1,62,141,60,-1,60,141,272,-1,137,136,273,-1,273,136,274,-1,273,274,275,-1,275,274,166,-1,275,166,276,-1,276,166,169,-1,276,169,277,-1,277,169,152,-1,277,152,138,-1,138,152,146,-1,138,146,136,-1,136,146,156,-1,136,156,19,-1,19,156,258,-1,19,258,18,-1,18,258,261,-1,18,261,263,-1,278,279,280,-1,281,282,148,-1,280,281,278,-1,278,281,148,-1,278,148,152,-1,152,148,147,-1,152,147,153,-1,283,284,282,-1,282,284,285,-1,282,285,148,-1,148,285,286,-1,148,286,183,-1,183,286,287,-1,183,287,169,-1,169,287,288,-1,169,288,152,-1,152,288,289,-1,152,289,278,-1,6,8,173,-1,173,8,290,-1,173,290,183,-1,183,290,291,-1,183,291,148,-1,148,291,292,-1,148,292,141,-1,141,292,293,-1,141,293,272,-1,272,293,294,-1,272,294,295,-1,295,294,296,-1,295,296,290,-1,290,296,297,-1,290,297,291,-1,298,164,299,-1,299,164,166,-1,299,166,300,-1,300,166,274,-1,300,274,301,-1,301,274,136,-1,301,136,302,-1,302,136,19,-1,302,19,303,-1,303,19,17,-1,303,17,304,-1,305,306,65,-1,307,308,5,-1,5,308,309,-1,309,310,5,-1,5,310,305,-1,5,305,173,-1,173,305,65,-1,173,65,6,-1,6,65,67,-1,298,14,164,-1,164,14,15,-1,164,15,5,-1,5,15,311,-1,5,311,307,-1,307,311,306,-1,312,132,313,-1,313,132,314,-1,313,314,315,-1,315,314,311,-1,315,311,316,-1,316,311,15,-1,316,15,312,-1,312,15,132,-1,317,133,318,-1,318,133,319,-1,318,319,320,-1,320,319,314,-1,320,314,321,-1,321,314,132,-1,321,132,317,-1,317,132,133,-1,322,134,323,-1,323,134,324,-1,323,324,325,-1,325,324,319,-1,325,319,326,-1,326,319,133,-1,326,133,322,-1,322,133,134,-1,327,135,328,-1,328,135,329,-1,328,329,330,-1,330,329,324,-1,330,324,331,-1,331,324,134,-1,331,134,327,-1,327,134,135,-1,118,332,117,-1,117,332,333,-1,117,333,135,-1,135,333,334,-1,135,334,329,-1,329,334,335,-1,329,335,336,-1,336,335,337,-1,336,337,333,-1,333,337,338,-1,333,338,334,-1,306,311,65,-1,65,311,314,-1,65,314,70,-1,70,314,319,-1,70,319,78,-1,78,319,324,-1,78,324,90,-1,90,324,329,-1,90,329,94,-1,94,329,336,-1,94,336,106,-1,106,336,339,-1,106,339,110,-1,340,332,341,-1,341,332,339,-1,341,339,342,-1,342,339,336,-1,342,336,343,-1,343,336,333,-1,343,333,340,-1,340,333,332,-1,344,345,346,-1,347,348,349,-1,349,350,347,-1,347,350,351,-1,347,351,352,-1,352,351,353,-1,352,353,354,-1,354,353,355,-1,354,355,348,-1,348,355,356,-1,348,356,349,-1,357,358,359,-1,359,360,357,-1,357,360,356,-1,357,356,361,-1,361,356,355,-1,361,355,362,-1,362,355,363,-1,362,363,358,-1,358,363,364,-1,358,364,359,-1,365,366,367,-1,367,368,365,-1,365,368,364,-1,365,364,369,-1,369,364,363,-1,369,363,370,-1,370,363,371,-1,370,371,366,-1,366,371,372,-1,366,372,367,-1,373,374,375,-1,375,376,373,-1,373,376,372,-1,373,372,377,-1,377,372,371,-1,377,371,378,-1,378,371,379,-1,378,379,374,-1,374,379,380,-1,374,380,375,-1,381,382,383,-1,383,384,381,-1,381,384,380,-1,381,380,385,-1,385,380,379,-1,385,379,386,-1,386,379,387,-1,386,387,382,-1,382,387,388,-1,382,388,383,-1,389,390,391,-1,389,392,393,-1,389,393,394,-1,394,393,387,-1,394,387,395,-1,395,387,379,-1,395,379,390,-1,390,379,396,-1,390,396,391,-1,389,391,392,-1,392,391,397,-1,392,397,398,-1,399,400,401,-1,399,402,396,-1,399,396,403,-1,403,396,379,-1,403,379,404,-1,404,379,371,-1,404,371,400,-1,400,371,405,-1,400,405,401,-1,399,401,402,-1,402,401,406,-1,402,406,407,-1,408,409,410,-1,408,411,405,-1,408,405,412,-1,412,405,371,-1,412,371,413,-1,413,371,363,-1,413,363,409,-1,409,363,414,-1,409,414,410,-1,408,410,411,-1,411,410,415,-1,411,415,416,-1,417,418,419,-1,417,420,414,-1,417,414,421,-1,421,414,363,-1,421,363,422,-1,422,363,355,-1,422,355,418,-1,418,355,423,-1,418,423,419,-1,417,419,420,-1,420,419,424,-1,420,424,425,-1,426,427,428,-1,426,429,423,-1,426,423,430,-1,430,423,355,-1,430,355,431,-1,431,355,353,-1,431,353,427,-1,427,353,432,-1,427,432,428,-1,426,428,429,-1,429,428,433,-1,429,433,434,-1,435,436,437,-1,435,438,432,-1,435,432,439,-1,439,432,353,-1,439,353,440,-1,440,353,441,-1,440,441,436,-1,436,441,442,-1,436,442,437,-1,435,437,438,-1,438,437,443,-1,438,443,444,-1,445,446,447,-1,447,446,448,-1,448,449,450,-1,451,452,453,-1,454,446,452,-1,452,446,445,-1,452,445,453,-1,455,456,449,-1,449,456,457,-1,449,457,450,-1,455,446,456,-1,456,446,454,-1,456,454,441,-1,441,454,458,-1,441,458,442,-1,442,458,451,-1,442,451,459,-1,451,453,459,-1,459,453,460,-1,459,460,461,-1,448,450,447,-1,447,450,462,-1,447,462,463,-1,464,465,466,-1,464,467,457,-1,464,457,468,-1,468,457,456,-1,468,456,469,-1,469,456,470,-1,469,470,465,-1,465,470,471,-1,465,471,466,-1,464,466,467,-1,467,466,472,-1,467,472,473,-1,474,475,476,-1,474,477,471,-1,474,471,478,-1,478,471,470,-1,478,470,479,-1,479,470,480,-1,479,480,475,-1,475,480,481,-1,475,481,476,-1,474,476,477,-1,477,476,482,-1,477,482,483,-1,484,485,486,-1,484,487,481,-1,484,481,488,-1,488,481,480,-1,488,480,489,-1,489,480,490,-1,489,490,485,-1,485,490,491,-1,485,491,486,-1,484,486,487,-1,487,486,492,-1,487,492,493,-1,494,495,496,-1,496,495,490,-1,490,495,497,-1,490,497,491,-1,491,497,498,-1,491,498,499,-1,500,501,344,-1,344,501,499,-1,344,499,345,-1,345,499,498,-1,345,498,494,-1,494,496,345,-1,345,496,502,-1,345,502,346,-1,503,504,496,-1,496,504,505,-1,496,505,502,-1,506,507,508,-1,508,507,509,-1,508,509,510,-1,510,509,503,-1,510,503,511,-1,511,503,496,-1,511,496,512,-1,512,496,490,-1,512,490,508,-1,508,490,506,-1,513,514,515,-1,515,516,513,-1,513,516,506,-1,513,506,517,-1,517,506,490,-1,517,490,518,-1,518,490,480,-1,518,480,514,-1,514,480,519,-1,514,519,515,-1,520,521,522,-1,522,523,520,-1,520,523,519,-1,520,519,524,-1,524,519,480,-1,524,480,525,-1,525,480,470,-1,525,470,521,-1,521,470,526,-1,521,526,522,-1,527,528,529,-1,529,530,527,-1,527,530,526,-1,527,526,531,-1,531,526,470,-1,531,470,532,-1,532,470,456,-1,532,456,528,-1,528,456,533,-1,528,533,529,-1,534,535,441,-1,536,537,538,-1,538,537,539,-1,535,540,441,-1,441,540,541,-1,441,541,456,-1,456,541,542,-1,456,542,533,-1,533,542,537,-1,533,537,543,-1,543,537,536,-1,539,541,538,-1,538,541,540,-1,538,540,544,-1,544,540,545,-1,544,545,546,-1,546,545,534,-1,546,534,547,-1,547,534,441,-1,548,549,550,-1,550,551,548,-1,548,551,547,-1,548,547,552,-1,552,547,441,-1,552,441,553,-1,553,441,353,-1,553,353,549,-1,549,353,351,-1,549,351,550,-1,554,555,556,-1,556,555,557,-1,558,559,560,-1,560,559,561,-1,562,563,564,-1,564,563,565,-1,566,567,568,-1,568,567,569,-1,570,571,572,-1,572,571,573,-1,574,575,576,-1,576,575,577,-1,578,579,580,-1,580,579,581,-1,582,583,584,-1,584,583,585,-1,586,587,588,-1,588,587,589,-1,590,591,592,-1,592,591,593,-1,444,443,594,-1,594,443,595,-1,461,460,596,-1,596,460,597,-1,425,424,598,-1,598,424,599,-1,600,601,433,-1,433,601,434,-1,483,482,602,-1,602,482,603,-1,493,492,604,-1,604,492,605,-1,463,462,606,-1,606,462,607,-1,608,609,472,-1,472,609,473,-1,610,611,415,-1,415,611,416,-1,612,613,406,-1,406,613,407,-1,556,557,550,-1,550,557,551,-1,560,561,546,-1,546,561,544,-1,564,565,359,-1,359,565,360,-1,350,349,566,-1,566,349,567,-1,572,573,522,-1,522,573,523,-1,576,577,515,-1,515,577,516,-1,580,581,536,-1,536,581,543,-1,530,529,582,-1,582,529,583,-1,368,367,586,-1,586,367,587,-1,376,375,590,-1,590,375,591,-1,594,595,614,-1,614,595,615,-1,596,597,616,-1,616,597,617,-1,598,599,618,-1,618,599,619,-1,620,621,600,-1,600,621,601,-1,602,603,622,-1,622,603,623,-1,604,605,624,-1,624,605,625,-1,606,607,626,-1,626,607,627,-1,628,629,608,-1,608,629,609,-1,630,631,610,-1,610,631,611,-1,632,633,612,-1,612,633,613,-1,12,555,13,-1,13,555,554,-1,13,554,131,-1,298,299,558,-1,558,299,300,-1,558,300,559,-1,559,300,301,-1,301,302,559,-1,559,302,303,-1,559,303,304,-1,126,125,562,-1,562,125,563,-1,568,569,128,-1,128,569,129,-1,27,26,570,-1,570,26,571,-1,30,29,574,-1,574,29,575,-1,22,579,20,-1,20,579,578,-1,20,578,16,-1,584,585,23,-1,23,585,24,-1,588,589,122,-1,122,589,123,-1,592,593,119,-1,119,593,120,-1,74,614,66,-1,66,614,615,-1,66,615,67,-1,8,7,616,-1,617,61,60,-1,60,272,617,-1,617,272,295,-1,617,295,616,-1,616,295,290,-1,616,290,8,-1,618,619,86,-1,86,619,91,-1,82,81,620,-1,620,81,621,-1,622,623,246,-1,246,623,247,-1,624,625,238,-1,238,625,239,-1,10,626,11,-1,11,626,627,-1,11,627,56,-1,51,52,628,-1,628,52,629,-1,98,97,630,-1,630,97,631,-1,107,102,632,-1,632,102,633,-1,634,635,636,-1,636,635,637,-1,638,639,640,-1,640,639,641,-1,642,643,644,-1,644,643,645,-1,641,639,507,-1,507,639,509,-1,398,397,646,-1,646,397,647,-1,393,111,387,-1,387,111,110,-1,118,388,332,-1,332,388,387,-1,332,387,339,-1,339,387,110,-1,636,637,383,-1,383,637,384,-1,222,502,34,-1,34,502,504,-1,645,643,500,-1,500,643,501,-1,646,647,648,-1,648,647,649,-1,639,638,32,-1,34,504,32,-1,32,504,509,-1,32,509,639,-1,640,641,262,-1,262,641,507,-1,262,507,31,-1,31,507,506,-1,501,643,228,-1,228,643,642,-1,501,228,499,-1,499,228,38,-1,499,38,491,-1,644,645,224,-1,224,645,500,-1,224,500,222,-1,222,500,502,-1,262,32,640,-1,640,32,638,-1,116,115,634,-1,634,115,635,-1,648,649,113,-1,113,649,114,-1,224,228,644,-1,644,228,642,-1,
        ]
    }
}
Shape{
    appearance Appearance {
        material  Material 	{
            diffuseColor 0.7529411764705882 0.7529411764705882 0.7529411764705882
            specularColor 0.3764705882352941 0.3764705882352941 0.3764705882352941
            ambientIntensity 0.7529
            transparency 0.0
            shininess 0.5
        }
    }
    geometry IndexedFaceSet {
        ccw TRUE
        solid FALSE
        coord DEF co Coordinate {
            point [
                -5.626 -0.4724 -1.1811, -5.626 -0.374 -1.0827, -5.374 -0.4724 -1.1811, -5.374 -0.374 -1.0827, -5.626 -0.5276 -1.1811, -5.374 -0.5276 -1.1811, -5.626 -0.626 -1.0827, -5.374 -0.626 -1.0827, -5.374 -0.626 0.1969, -5.374 -0.374 0.1969, -5.626 -0.374 0.1969, -5.626 -0.626 0.1969, -5.374 -0.626 3.2638, -5.626 -0.626 3.2638, -5.374 -0.626 1.0, -5.626 -0.626 1.0, -5.626 -0.5276 3.3622, -5.374 -0.5276 3.3622, -5.626 -0.4724 3.3622, -5.374 -0.4724 3.3622, -5.626 -0.374 3.2638, -5.374 -0.374 3.2638, -5.626 -0.374 1.0, -5.374 -0.374 1.0, -5.626 0.5276 -1.1811, -5.626 0.626 -1.0827, -5.374 0.5276 -1.1811, -5.374 0.626 -1.0827, -5.626 0.4724 -1.1811, -5.374 0.4724 -1.1811, -5.626 0.374 -1.0827, -5.374 0.374 -1.0827, -5.374 0.626 0.1969, -5.374 0.374 0.1969, -5.626 0.626 0.1969, -5.626 0.374 0.1969, -5.374 0.374 3.2638, -5.626 0.374 3.2638, -5.374 0.374 1.0, -5.626 0.374 1.0, -5.626 0.4724 3.3622, -5.374 0.4724 3.3622, -5.626 0.5276 3.3622, -5.374 0.5276 3.3622, -5.626 0.626 3.2638, -5.374 0.626 3.2638, -5.626 0.626 1.0, -5.374 0.626 1.0
            ]
        }
        coordIndex [
            0,1,2,-1,2,1,3,-1,4,0,5,-1,5,0,2,-1,6,4,7,-1,7,4,5,-1,5,2,7,-1,7,2,3,-1,7,3,8,-1,8,3,9,-1,0,4,1,-1,1,4,6,-1,1,6,10,-1,10,6,11,-1,9,3,10,-1,10,3,1,-1,11,6,8,-1,8,6,7,-1,12,13,14,-1,14,13,15,-1,16,13,17,-1,17,13,12,-1,18,16,19,-1,19,16,17,-1,20,18,21,-1,21,18,19,-1,20,21,22,-1,22,21,23,-1,16,18,13,-1,13,18,20,-1,13,20,15,-1,15,20,22,-1,19,17,21,-1,21,17,12,-1,21,12,23,-1,23,12,14,-1,24,25,26,-1,26,25,27,-1,28,24,29,-1,29,24,26,-1,30,28,31,-1,31,28,29,-1,32,33,27,-1,27,33,31,-1,27,31,26,-1,26,31,29,-1,24,28,25,-1,25,28,30,-1,25,30,34,-1,34,30,35,-1,32,27,34,-1,34,27,25,-1,35,30,33,-1,33,30,31,-1,36,37,38,-1,38,37,39,-1,40,37,41,-1,41,37,36,-1,42,40,43,-1,43,40,41,-1,44,42,45,-1,45,42,43,-1,44,45,46,-1,46,45,47,-1,40,42,37,-1,37,42,44,-1,37,44,39,-1,39,44,46,-1,43,41,45,-1,45,41,36,-1,45,36,47,-1,47,36,38,-1,
        ]
    }
}
Shape{
    appearance Appearance {
        material  Material 	{
            diffuseColor 0.14901960784313725 0.14901960784313725 0.14901960784313725
            specularColor 0.07450980392156863 0.07450980392156863 0.07450980392156863
            ambientIntensity 0.149
            transparency 0.0
            shininess 0.5
        }
    }
    geometry IndexedFaceSet {
        ccw TRUE
        solid FALSE
        coord DEF co Coordinate {
            point [
                4.7638 -0.9843 1.0, 4.7638 -0.9843 0.0, 4.9325 -0.7874 0.1969, 4.9325 -0.7874 0.0, 4.9173 -0.8051 1.0, 5.0 -0.7087 0.1969, 5.0 -0.7087 1.0, 5.0675 -0.7874 0.1969, 5.0675 -0.7874 0.0, 5.2362 -0.9843 0.0, 5.0827 -0.8051 1.0, 5.2362 -0.9843 1.0, 3.7638 -0.9843 1.0, 3.7638 -0.9843 0.0, 3.9325 -0.7874 0.1969, 3.9325 -0.7874 0.0, 3.9173 -0.8051 1.0, 4.0 -0.7087 0.1969, 4.0 -0.7087 1.0, 4.0675 -0.7874 0.1969, 4.0675 -0.7874 0.0, 4.2362 -0.9843 0.0, 4.0827 -0.8051 1.0, 4.2362 -0.9843 1.0, 5.7638 -0.9843 1.0, 5.7638 -0.9843 0.0, 5.9325 -0.7874 0.1969, 5.9325 -0.7874 0.0, 5.9173 -0.8051 1.0, 6.0 -0.7087 0.1969, 6.0 -0.7087 1.0, -2.2362 -0.9843 1.0, -2.2362 -0.9843 0.0, -2.0675 -0.7874 0.1969, -2.0675 -0.7874 0.0, -2.0827 -0.8051 1.0, -2.0 -0.7087 0.1969, -2.0 -0.7087 1.0, -1.9325 -0.7874 0.1969, -1.9325 -0.7874 0.0, -1.7638 -0.9843 0.0, -1.9173 -0.8051 1.0, -1.7638 -0.9843 1.0, -1.2362 -0.9843 1.0, -1.2362 -0.9843 0.0, -1.0675 -0.7874 0.1969, -1.0675 -0.7874 0.0, -1.0827 -0.8051 1.0, -1.0 -0.7087 0.1969, -1.0 -0.7087 1.0, -0.9325 -0.7874 0.1969, -0.9325 -0.7874 0.0, -0.7638 -0.9843 0.0, -0.9173 -0.8051 1.0, -0.7638 -0.9843 1.0, -4.9325 -0.7874 0.1969, -4.9325 -0.7874 0.0, -4.7638 -0.9843 0.0, -5.0 -0.7087 1.0, -5.0 -0.7087 0.1969, -4.9173 -0.8051 1.0, -4.7638 -0.9843 1.0, -4.2362 -0.9843 1.0, -4.2362 -0.9843 0.0, -4.0675 -0.7874 0.1969, -4.0675 -0.7874 0.0, -4.0827 -0.8051 1.0, -4.0 -0.7087 0.1969, -4.0 -0.7087 1.0, -3.9325 -0.7874 0.1969, -3.9325 -0.7874 0.0, -3.7638 -0.9843 0.0, -3.9173 -0.8051 1.0, -3.7638 -0.9843 1.0, -3.2362 -0.9843 1.0, -3.2362 -0.9843 0.0, -3.0675 -0.7874 0.1969, -3.0675 -0.7874 0.0, -3.0827 -0.8051 1.0, -3.0 -0.7087 0.1969, -3.0 -0.7087 1.0, -2.9325 -0.7874 0.1969, -2.9325 -0.7874 0.0, -2.7638 -0.9843 0.0, -2.9173 -0.8051 1.0, -2.7638 -0.9843 1.0, 1.7638 -0.9843 1.0, 1.7638 -0.9843 0.0, 1.9325 -0.7874 0.1969, 1.9325 -0.7874 0.0, 1.9173 -0.8051 1.0, 2.0 -0.7087 0.1969, 2.0 -0.7087 1.0, 2.0675 -0.7874 0.1969, 2.0675 -0.7874 0.0, 2.2362 -0.9843 0.0, 2.0827 -0.8051 1.0, 2.2362 -0.9843 1.0, 2.7638 -0.9843 1.0, 2.7638 -0.9843 0.0, 2.9325 -0.7874 0.1969, 2.9325 -0.7874 0.0, 2.9173 -0.8051 1.0, 3.0 -0.7087 0.1969, 3.0 -0.7087 1.0, 3.0675 -0.7874 0.1969, 3.0675 -0.7874 0.0, 3.2362 -0.9843 0.0, 3.0827 -0.8051 1.0, 3.2362 -0.9843 1.0, -0.2362 -0.9843 1.0, -0.2362 -0.9843 0.0, -0.0675 -0.7874 0.1969, -0.0675 -0.7874 0.0, -0.0827 -0.8051 1.0, 0.0 -0.7087 0.1969, 0.0 -0.7087 1.0, 0.0675 -0.7874 0.1969, 0.0675 -0.7874 0.0, 0.2362 -0.9843 0.0, 0.0827 -0.8051 1.0, 0.2362 -0.9843 1.0, 0.7638 -0.9843 1.0, 0.7638 -0.9843 0.0, 0.9325 -0.7874 0.1969, 0.9325 -0.7874 0.0, 0.9173 -0.8051 1.0, 1.0 -0.7087 0.1969, 1.0 -0.7087 1.0, 1.0675 -0.7874 0.1969, 1.0675 -0.7874 0.0, 1.2362 -0.9843 0.0, 1.0827 -0.8051 1.0, 1.2362 -0.9843 1.0, -4.7638 0.9843 0.0, -4.9325 0.7874 0.0, -4.9325 0.7874 0.1969, -5.0 0.7087 0.1969, -5.0 0.7087 1.0, -4.7638 0.9843 1.0, 4.9325 0.7874 0.0, 4.7638 0.9843 0.0, 4.9325 0.7874 0.1969, 4.7638 0.9843 1.0, 5.0 0.7087 0.1969, 5.0 0.7087 1.0, 5.2362 0.9843 0.0, 5.0675 0.7874 0.0, 5.0675 0.7874 0.1969, 5.2362 0.9843 1.0, 3.9325 0.7874 0.0, 3.7638 0.9843 0.0, 3.9325 0.7874 0.1969, 3.7638 0.9843 1.0, 4.0 0.7087 0.1969, 4.0 0.7087 1.0, 4.2362 0.9843 0.0, 4.0675 0.7874 0.0, 4.0675 0.7874 0.1969, 4.2362 0.9843 1.0, 5.9325 0.7874 0.0, 5.7638 0.9843 0.0, 5.9325 0.7874 0.1969, 5.7638 0.9843 1.0, 6.0 0.7087 0.1969, 6.0 0.7087 1.0, -2.0675 0.7874 0.0, -2.2362 0.9843 0.0, -2.0675 0.7874 0.1969, -2.2362 0.9843 1.0, -2.0 0.7087 0.1969, -2.0 0.7087 1.0, -1.7638 0.9843 0.0, -1.9325 0.7874 0.0, -1.9325 0.7874 0.1969, -1.7638 0.9843 1.0, -1.0675 0.7874 0.0, -1.2362 0.9843 0.0, -1.0675 0.7874 0.1969, -1.2362 0.9843 1.0, -1.0 0.7087 0.1969, -1.0 0.7087 1.0, -0.7638 0.9843 0.0, -0.9325 0.7874 0.0, -0.9325 0.7874 0.1969, -0.7638 0.9843 1.0, -4.0675 0.7874 0.0, -4.2362 0.9843 0.0, -4.0675 0.7874 0.1969, -4.2362 0.9843 1.0, -4.0 0.7087 0.1969, -4.0 0.7087 1.0, -3.7638 0.9843 0.0, -3.9325 0.7874 0.0, -3.9325 0.7874 0.1969, -3.7638 0.9843 1.0, -3.0675 0.7874 0.0, -3.2362 0.9843 0.0, -3.0675 0.7874 0.1969, -3.2362 0.9843 1.0, -3.0 0.7087 0.1969, -3.0 0.7087 1.0, -2.7638 0.9843 0.0, -2.9325 0.7874 0.0, -2.9325 0.7874 0.1969, -2.7638 0.9843 1.0, 1.9325 0.7874 0.0, 1.7638 0.9843 0.0, 1.9325 0.7874 0.1969, 1.7638 0.9843 1.0, 2.0 0.7087 0.1969, 2.0 0.7087 1.0, 2.2362 0.9843 0.0, 2.0675 0.7874 0.0, 2.0675 0.7874 0.1969, 2.2362 0.9843 1.0, 2.9325 0.7874 0.0, 2.7638 0.9843 0.0, 2.9325 0.7874 0.1969, 2.7638 0.9843 1.0, 3.0 0.7087 0.1969, 3.0 0.7087 1.0, 3.2362 0.9843 0.0, 3.0675 0.7874 0.0, 3.0675 0.7874 0.1969, 3.2362 0.9843 1.0, -0.0675 0.7874 0.0, -0.2362 0.9843 0.0, -0.0675 0.7874 0.1969, -0.2362 0.9843 1.0, 0.0 0.7087 0.1969, 0.0 0.7087 1.0, 0.2362 0.9843 0.0, 0.0675 0.7874 0.0, 0.0675 0.7874 0.1969, 0.2362 0.9843 1.0, 0.9325 0.7874 0.0, 0.7638 0.9843 0.0, 0.9325 0.7874 0.1969, 0.7638 0.9843 1.0, 1.0 0.7087 0.1969, 1.0 0.7087 1.0, 1.2362 0.9843 0.0, 1.0675 0.7874 0.0, 1.0675 0.7874 0.1969, 1.2362 0.9843 1.0
            ]
        }
        coordIndex [
            0,1,2,-1,2,1,3,-1,0,2,4,-1,4,2,5,-1,4,5,6,-1,7,8,9,-1,6,5,10,-1,10,5,7,-1,10,7,11,-1,11,7,9,-1,12,13,14,-1,14,13,15,-1,12,14,16,-1,16,14,17,-1,16,17,18,-1,19,20,21,-1,18,17,22,-1,22,17,19,-1,22,19,23,-1,23,19,21,-1,24,25,26,-1,26,25,27,-1,24,26,28,-1,28,26,29,-1,28,29,30,-1,31,32,33,-1,33,32,34,-1,31,33,35,-1,35,33,36,-1,35,36,37,-1,38,39,40,-1,37,36,41,-1,41,36,38,-1,41,38,42,-1,42,38,40,-1,43,44,45,-1,45,44,46,-1,43,45,47,-1,47,45,48,-1,47,48,49,-1,50,51,52,-1,49,48,53,-1,53,48,50,-1,53,50,54,-1,54,50,52,-1,55,56,57,-1,58,59,60,-1,60,59,55,-1,60,55,61,-1,61,55,57,-1,62,63,64,-1,64,63,65,-1,62,64,66,-1,66,64,67,-1,66,67,68,-1,69,70,71,-1,68,67,72,-1,72,67,69,-1,72,69,73,-1,73,69,71,-1,74,75,76,-1,76,75,77,-1,74,76,78,-1,78,76,79,-1,78,79,80,-1,81,82,83,-1,80,79,84,-1,84,79,81,-1,84,81,85,-1,85,81,83,-1,86,87,88,-1,88,87,89,-1,86,88,90,-1,90,88,91,-1,90,91,92,-1,93,94,95,-1,92,91,96,-1,96,91,93,-1,96,93,97,-1,97,93,95,-1,98,99,100,-1,100,99,101,-1,98,100,102,-1,102,100,103,-1,102,103,104,-1,105,106,107,-1,104,103,108,-1,108,103,105,-1,108,105,109,-1,109,105,107,-1,110,111,112,-1,112,111,113,-1,110,112,114,-1,114,112,115,-1,114,115,116,-1,117,118,119,-1,116,115,120,-1,120,115,117,-1,120,117,121,-1,121,117,119,-1,122,123,124,-1,124,123,125,-1,122,124,126,-1,126,124,127,-1,126,127,128,-1,129,130,131,-1,128,127,132,-1,132,127,129,-1,132,129,133,-1,133,129,131,-1,134,135,136,-1,137,138,136,-1,136,138,139,-1,136,139,134,-1,140,141,142,-1,142,141,143,-1,142,143,144,-1,144,143,145,-1,146,147,148,-1,144,145,148,-1,148,145,149,-1,148,149,146,-1,150,151,152,-1,152,151,153,-1,152,153,154,-1,154,153,155,-1,156,157,158,-1,154,155,158,-1,158,155,159,-1,158,159,156,-1,160,161,162,-1,162,161,163,-1,162,163,164,-1,164,163,165,-1,166,167,168,-1,168,167,169,-1,168,169,170,-1,170,169,171,-1,172,173,174,-1,170,171,174,-1,174,171,175,-1,174,175,172,-1,176,177,178,-1,178,177,179,-1,178,179,180,-1,180,179,181,-1,182,183,184,-1,180,181,184,-1,184,181,185,-1,184,185,182,-1,186,187,188,-1,188,187,189,-1,188,189,190,-1,190,189,191,-1,192,193,194,-1,190,191,194,-1,194,191,195,-1,194,195,192,-1,196,197,198,-1,198,197,199,-1,198,199,200,-1,200,199,201,-1,202,203,204,-1,200,201,204,-1,204,201,205,-1,204,205,202,-1,206,207,208,-1,208,207,209,-1,208,209,210,-1,210,209,211,-1,212,213,214,-1,210,211,214,-1,214,211,215,-1,214,215,212,-1,216,217,218,-1,218,217,219,-1,218,219,220,-1,220,219,221,-1,222,223,224,-1,220,221,224,-1,224,221,225,-1,224,225,222,-1,226,227,228,-1,228,227,229,-1,228,229,230,-1,230,229,231,-1,232,233,234,-1,230,231,234,-1,234,231,235,-1,234,235,232,-1,236,237,238,-1,238,237,239,-1,238,239,240,-1,240,239,241,-1,242,243,244,-1,240,241,244,-1,244,241,245,-1,244,245,242,-1,
        ]
    }
}
Shape{
    appearance Appearance {
        material  Material 	{
            diffuseColor 0.7529411764705882 0.7529411764705882 0.7529411764705882
            specularColor 0.3764705882352941 0.3764705882352941 0.3764705882352941
            ambientIntensity 0.7529
            transparency 0.0
            shininess 0.5
        }
    }
    geometry IndexedFaceSet {
        ccw TRUE
        solid FALSE
        coord DEF co Coordinate {
            point [
                -4.626 -0.4724 -1.1811, -4.626 -0.374 -1.0827, -4.374 -0.4724 -1.1811, -4.374 -0.374 -1.0827, -4.626 -0.5276 -1.1811, -4.374 -0.5276 -1.1811, -4.626 -0.626 -1.0827, -4.374 -0.626 -1.0827, -4.374 -0.626 0.1969, -4.374 -0.374 0.1969, -4.626 -0.374 0.1969, -4.626 -0.626 0.1969, -4.374 -0.626 3.2638, -4.626 -0.626 3.2638, -4.374 -0.626 1.0, -4.626 -0.626 1.0, -4.626 -0.5276 3.3622, -4.374 -0.5276 3.3622, -4.626 -0.4724 3.3622, -4.374 -0.4724 3.3622, -4.626 -0.374 3.2638, -4.374 -0.374 3.2638, -4.626 -0.374 1.0, -4.374 -0.374 1.0, -4.626 0.5276 -1.1811, -4.626 0.626 -1.0827, -4.374 0.5276 -1.1811, -4.374 0.626 -1.0827, -4.626 0.4724 -1.1811, -4.374 0.4724 -1.1811, -4.626 0.374 -1.0827, -4.374 0.374 -1.0827, -4.374 0.626 0.1969, -4.374 0.374 0.1969, -4.626 0.626 0.1969, -4.626 0.374 0.1969, -4.374 0.374 3.2638, -4.626 0.374 3.2638, -4.374 0.374 1.0, -4.626 0.374 1.0, -4.626 0.4724 3.3622, -4.374 0.4724 3.3622, -4.626 0.5276 3.3622, -4.374 0.5276 3.3622, -4.626 0.626 3.2638, -4.374 0.626 3.2638, -4.626 0.626 1.0, -4.374 0.626 1.0, -3.626 -0.4724 -1.1811, -3.626 -0.374 -1.0827, -3.374 -0.4724 -1.1811, -3.374 -0.374 -1.0827, -3.626 -0.5276 -1.1811, -3.374 -0.5276 -1.1811, -3.626 -0.626 -1.0827, -3.374 -0.626 -1.0827, -3.374 -0.374 0.1969, -3.374 -0.626 0.1969, -3.626 -0.374 0.1969, -3.626 -0.626 0.1969, -3.374 -0.626 3.2638, -3.626 -0.626 3.2638, -3.374 -0.626 1.0, -3.626 -0.626 1.0, -3.626 -0.5276 3.3622, -3.374 -0.5276 3.3622, -3.626 -0.4724 3.3622, -3.374 -0.4724 3.3622, -3.626 -0.374 3.2638, -3.374 -0.374 3.2638, -3.626 -0.374 1.0, -3.374 -0.374 1.0, -3.626 0.5276 -1.1811, -3.626 0.626 -1.0827, -3.374 0.5276 -1.1811, -3.374 0.626 -1.0827, -3.626 0.4724 -1.1811, -3.374 0.4724 -1.1811, -3.626 0.374 -1.0827, -3.374 0.374 -1.0827, -3.374 0.626 0.1969, -3.374 0.374 0.1969, -3.626 0.626 0.1969, -3.626 0.374 0.1969, -3.374 0.374 3.2638, -3.626 0.374 3.2638, -3.374 0.374 1.0, -3.626 0.374 1.0, -3.626 0.4724 3.3622, -3.374 0.4724 3.3622, -3.626 0.5276 3.3622, -3.374 0.5276 3.3622, -3.626 0.626 3.2638, -3.374 0.626 3.2638, -3.626 0.626 1.0, -3.374 0.626 1.0, -2.626 -0.4724 -1.1811, -2.626 -0.374 -1.0827, -2.374 -0.4724 -1.1811, -2.374 -0.374 -1.0827, -2.626 -0.5276 -1.1811, -2.374 -0.5276 -1.1811, -2.626 -0.626 -1.0827, -2.374 -0.626 -1.0827, -2.374 -0.626 0.1969, -2.374 -0.374 0.1969, -2.626 -0.626 0.1969, -2.626 -0.374 0.1969, -2.374 -0.626 3.2638, -2.626 -0.626 3.2638, -2.374 -0.626 1.0, -2.626 -0.626 1.0, -2.626 -0.5276 3.3622, -2.374 -0.5276 3.3622, -2.626 -0.4724 3.3622, -2.374 -0.4724 3.3622, -2.626 -0.374 3.2638, -2.374 -0.374 3.2638, -2.626 -0.374 1.0, -2.374 -0.374 1.0, -2.626 0.5276 -1.1811, -2.626 0.626 -1.0827, -2.374 0.5276 -1.1811, -2.374 0.626 -1.0827, -2.626 0.4724 -1.1811, -2.374 0.4724 -1.1811, -2.626 0.374 -1.0827, -2.374 0.374 -1.0827, -2.374 0.374 0.1969, -2.374 0.626 0.1969, -2.626 0.374 0.1969, -2.626 0.626 0.1969, -2.374 0.374 3.2638, -2.626 0.374 3.2638, -2.374 0.374 1.0, -2.626 0.374 1.0, -2.626 0.4724 3.3622, -2.374 0.4724 3.3622, -2.626 0.5276 3.3622, -2.374 0.5276 3.3622, -2.626 0.626 3.2638, -2.374 0.626 3.2638, -2.626 0.626 1.0, -2.374 0.626 1.0, -1.626 -0.4724 -1.1811, -1.626 -0.374 -1.0827, -1.374 -0.4724 -1.1811, -1.374 -0.374 -1.0827, -1.626 -0.5276 -1.1811, -1.374 -0.5276 -1.1811, -1.626 -0.626 -1.0827, -1.374 -0.626 -1.0827, -1.374 -0.626 0.1969, -1.374 -0.374 0.1969, -1.626 -0.626 0.1969, -1.626 -0.374 0.1969, -1.374 -0.626 3.2638, -1.626 -0.626 3.2638, -1.374 -0.626 1.0, -1.626 -0.626 1.0, -1.626 -0.5276 3.3622, -1.374 -0.5276 3.3622, -1.626 -0.4724 3.3622, -1.374 -0.4724 3.3622, -1.626 -0.374 3.2638, -1.374 -0.374 3.2638, -1.626 -0.374 1.0, -1.374 -0.374 1.0, -1.626 0.5276 -1.1811, -1.626 0.626 -1.0827, -1.374 0.5276 -1.1811, -1.374 0.626 -1.0827, -1.626 0.4724 -1.1811, -1.374 0.4724 -1.1811, -1.626 0.374 -1.0827, -1.374 0.374 -1.0827, -1.374 0.374 0.1969, -1.374 0.626 0.1969, -1.626 0.374 0.1969, -1.626 0.626 0.1969, -1.374 0.374 3.2638, -1.626 0.374 3.2638, -1.374 0.374 1.0, -1.626 0.374 1.0, -1.626 0.4724 3.3622, -1.374 0.4724 3.3622, -1.626 0.5276 3.3622, -1.374 0.5276 3.3622, -1.626 0.626 3.2638, -1.374 0.626 3.2638, -1.626 0.626 1.0, -1.374 0.626 1.0, -0.626 -0.4724 -1.1811, -0.626 -0.374 -1.0827, -0.374 -0.4724 -1.1811, -0.374 -0.374 -1.0827, -0.626 -0.5276 -1.1811, -0.374 -0.5276 -1.1811, -0.626 -0.626 -1.0827, -0.374 -0.626 -1.0827, -0.374 -0.626 0.1969, -0.374 -0.374 0.1969, -0.626 -0.626 0.1969, -0.626 -0.374 0.1969, -0.5022 -0.374 0.1969, -0.5022 -0.626 0.1969, -0.374 -0.626 3.2638, -0.626 -0.626 3.2638, -0.374 -0.626 1.0, -0.626 -0.626 1.0, -0.626 -0.5276 3.3622, -0.374 -0.5276 3.3622, -0.626 -0.4724 3.3622, -0.374 -0.4724 3.3622, -0.626 -0.374 3.2638, -0.374 -0.374 3.2638, -0.626 -0.374 1.0, -0.374 -0.374 1.0, -0.626 0.5276 -1.1811, -0.626 0.626 -1.0827, -0.374 0.5276 -1.1811, -0.374 0.626 -1.0827, -0.626 0.4724 -1.1811, -0.374 0.4724 -1.1811, -0.626 0.374 -1.0827, -0.374 0.374 -1.0827, -0.374 0.626 0.1969, -0.374 0.374 0.1969, -0.626 0.626 0.1969, -0.626 0.374 0.1969, -0.5022 0.626 0.1969, -0.5022 0.374 0.1969, -0.374 0.374 3.2638, -0.626 0.374 3.2638, -0.374 0.374 1.0, -0.626 0.374 1.0, -0.626 0.4724 3.3622, -0.374 0.4724 3.3622, -0.626 0.5276 3.3622, -0.374 0.5276 3.3622, -0.626 0.626 3.2638, -0.374 0.626 3.2638, -0.626 0.626 1.0, -0.374 0.626 1.0, 0.374 -0.4724 -1.1811, 0.374 -0.374 -1.0827, 0.626 -0.4724 -1.1811, 0.626 -0.374 -1.0827, 0.374 -0.5276 -1.1811, 0.626 -0.5276 -1.1811, 0.374 -0.626 -1.0827, 0.626 -0.626 -1.0827, 0.626 -0.626 0.1969, 0.626 -0.374 0.1969, 0.374 -0.626 0.1969, 0.374 -0.374 0.1969, 0.626 -0.626 3.2638, 0.374 -0.626 3.2638, 0.626 -0.626 1.0, 0.374 -0.626 1.0, 0.374 -0.5276 3.3622, 0.626 -0.5276 3.3622, 0.374 -0.4724 3.3622, 0.626 -0.4724 3.3622, 0.374 -0.374 3.2638, 0.626 -0.374 3.2638, 0.374 -0.374 1.0, 0.626 -0.374 1.0, 0.374 0.5276 -1.1811, 0.374 0.626 -1.0827, 0.626 0.5276 -1.1811, 0.626 0.626 -1.0827, 0.374 0.4724 -1.1811, 0.626 0.4724 -1.1811, 0.374 0.374 -1.0827, 0.626 0.374 -1.0827, 0.626 0.626 0.1969, 0.626 0.374 0.1969, 0.374 0.626 0.1969, 0.374 0.374 0.1969, 0.626 0.374 3.2638, 0.374 0.374 3.2638, 0.626 0.374 1.0, 0.374 0.374 1.0, 0.374 0.4724 3.3622, 0.626 0.4724 3.3622, 0.374 0.5276 3.3622, 0.626 0.5276 3.3622, 0.374 0.626 3.2638, 0.626 0.626 3.2638, 0.374 0.626 1.0, 0.626 0.626 1.0, 1.374 -0.4724 -1.1811, 1.374 -0.374 -1.0827, 1.626 -0.4724 -1.1811, 1.626 -0.374 -1.0827, 1.374 -0.5276 -1.1811, 1.626 -0.5276 -1.1811, 1.374 -0.626 -1.0827, 1.626 -0.626 -1.0827, 1.626 -0.374 0.1969, 1.626 -0.626 0.1969, 1.374 -0.374 0.1969, 1.374 -0.626 0.1969, 1.626 -0.626 3.2638, 1.374 -0.626 3.2638, 1.626 -0.626 1.0, 1.374 -0.626 1.0, 1.374 -0.5276 3.3622, 1.626 -0.5276 3.3622, 1.374 -0.4724 3.3622, 1.626 -0.4724 3.3622, 1.374 -0.374 3.2638, 1.626 -0.374 3.2638, 1.374 -0.374 1.0, 1.626 -0.374 1.0, 1.374 0.5276 -1.1811, 1.374 0.626 -1.0827, 1.626 0.5276 -1.1811, 1.626 0.626 -1.0827, 1.374 0.4724 -1.1811, 1.626 0.4724 -1.1811, 1.374 0.374 -1.0827, 1.626 0.374 -1.0827, 1.626 0.626 0.1969, 1.626 0.374 0.1969, 1.374 0.626 0.1969, 1.374 0.374 0.1969, 1.626 0.374 3.2638, 1.374 0.374 3.2638, 1.626 0.374 1.0, 1.374 0.374 1.0, 1.374 0.4724 3.3622, 1.626 0.4724 3.3622, 1.374 0.5276 3.3622, 1.626 0.5276 3.3622, 1.374 0.626 3.2638, 1.626 0.626 3.2638, 1.374 0.626 1.0, 1.626 0.626 1.0, 2.374 -0.4724 -1.1811, 2.374 -0.374 -1.0827, 2.626 -0.4724 -1.1811, 2.626 -0.374 -1.0827, 2.374 -0.5276 -1.1811, 2.626 -0.5276 -1.1811, 2.374 -0.626 -1.0827, 2.626 -0.626 -1.0827, 2.626 -0.374 0.1969, 2.626 -0.626 0.1969, 2.374 -0.374 0.1969, 2.374 -0.626 0.1969, 2.626 -0.626 3.2638, 2.374 -0.626 3.2638, 2.626 -0.626 1.0, 2.374 -0.626 1.0, 2.374 -0.5276 3.3622, 2.626 -0.5276 3.3622, 2.374 -0.4724 3.3622, 2.626 -0.4724 3.3622, 2.374 -0.374 3.2638, 2.626 -0.374 3.2638, 2.374 -0.374 1.0, 2.626 -0.374 1.0, 2.374 0.5276 -1.1811, 2.374 0.626 -1.0827, 2.626 0.5276 -1.1811, 2.626 0.626 -1.0827, 2.374 0.4724 -1.1811, 2.626 0.4724 -1.1811, 2.374 0.374 -1.0827, 2.626 0.374 -1.0827, 2.626 0.626 0.1969, 2.626 0.374 0.1969, 2.374 0.626 0.1969, 2.374 0.374 0.1969, 2.626 0.374 3.2638, 2.374 0.374 3.2638, 2.626 0.374 1.0, 2.374 0.374 1.0, 2.374 0.4724 3.3622, 2.626 0.4724 3.3622, 2.374 0.5276 3.3622, 2.626 0.5276 3.3622, 2.374 0.626 3.2638, 2.626 0.626 3.2638, 2.374 0.626 1.0, 2.626 0.626 1.0, 3.374 -0.4724 -1.1811, 3.374 -0.374 -1.0827, 3.626 -0.4724 -1.1811, 3.626 -0.374 -1.0827, 3.374 -0.5276 -1.1811, 3.626 -0.5276 -1.1811, 3.374 -0.626 -1.0827, 3.626 -0.626 -1.0827, 3.626 -0.626 0.1969, 3.626 -0.374 0.1969, 3.374 -0.374 0.1969, 3.374 -0.626 0.1969, 3.626 -0.626 3.2638, 3.374 -0.626 3.2638, 3.626 -0.626 1.0, 3.374 -0.626 1.0, 3.374 -0.5276 3.3622, 3.626 -0.5276 3.3622, 3.374 -0.4724 3.3622, 3.626 -0.4724 3.3622, 3.374 -0.374 3.2638, 3.626 -0.374 3.2638, 3.374 -0.374 1.0, 3.626 -0.374 1.0, 3.374 0.5276 -1.1811, 3.374 0.626 -1.0827, 3.626 0.5276 -1.1811, 3.626 0.626 -1.0827, 3.374 0.4724 -1.1811, 3.626 0.4724 -1.1811, 3.374 0.374 -1.0827, 3.626 0.374 -1.0827, 3.626 0.374 0.1969, 3.626 0.626 0.1969, 3.374 0.374 0.1969, 3.374 0.626 0.1969, 3.626 0.374 3.2638, 3.374 0.374 3.2638, 3.626 0.374 1.0, 3.374 0.374 1.0, 3.374 0.4724 3.3622, 3.626 0.4724 3.3622, 3.374 0.5276 3.3622, 3.626 0.5276 3.3622, 3.374 0.626 3.2638, 3.626 0.626 3.2638, 3.374 0.626 1.0, 3.626 0.626 1.0, 4.374 -0.4724 -1.1811, 4.374 -0.374 -1.0827, 4.626 -0.4724 -1.1811, 4.626 -0.374 -1.0827, 4.374 -0.5276 -1.1811, 4.626 -0.5276 -1.1811, 4.374 -0.626 -1.0827, 4.626 -0.626 -1.0827, 4.626 -0.626 0.1969, 4.626 -0.374 0.1969, 4.374 -0.374 0.1969, 4.374 -0.626 0.1969, 4.626 -0.626 3.2638, 4.374 -0.626 3.2638, 4.626 -0.626 1.0, 4.374 -0.626 1.0, 4.374 -0.5276 3.3622, 4.626 -0.5276 3.3622, 4.374 -0.4724 3.3622, 4.626 -0.4724 3.3622, 4.374 -0.374 3.2638, 4.626 -0.374 3.2638, 4.374 -0.374 1.0, 4.626 -0.374 1.0, 4.374 0.5276 -1.1811, 4.374 0.626 -1.0827, 4.626 0.5276 -1.1811, 4.626 0.626 -1.0827, 4.374 0.4724 -1.1811, 4.626 0.4724 -1.1811, 4.374 0.374 -1.0827, 4.626 0.374 -1.0827, 4.626 0.626 0.1969, 4.626 0.374 0.1969, 4.374 0.626 0.1969, 4.374 0.374 0.1969, 4.626 0.374 3.2638, 4.374 0.374 3.2638, 4.626 0.374 1.0, 4.374 0.374 1.0, 4.374 0.4724 3.3622, 4.626 0.4724 3.3622, 4.374 0.5276 3.3622, 4.626 0.5276 3.3622, 4.374 0.626 3.2638, 4.626 0.626 3.2638, 4.374 0.626 1.0, 4.626 0.626 1.0, 5.374 -0.4724 -1.1811, 5.374 -0.374 -1.0827, 5.626 -0.4724 -1.1811, 5.626 -0.374 -1.0827, 5.374 -0.5276 -1.1811, 5.626 -0.5276 -1.1811, 5.374 -0.626 -1.0827, 5.626 -0.626 -1.0827, 5.626 -0.626 0.1969, 5.626 -0.374 0.1969, 5.374 -0.374 0.1969, 5.374 -0.626 0.1969, 5.626 -0.626 3.2638, 5.374 -0.626 3.2638, 5.626 -0.626 1.0, 5.374 -0.626 1.0, 5.374 -0.5276 3.3622, 5.626 -0.5276 3.3622, 5.374 -0.4724 3.3622, 5.626 -0.4724 3.3622, 5.374 -0.374 3.2638, 5.626 -0.374 3.2638, 5.374 -0.374 1.0, 5.626 -0.374 1.0, 5.374 0.5276 -1.1811, 5.374 0.626 -1.0827, 5.626 0.5276 -1.1811, 5.626 0.626 -1.0827, 5.374 0.4724 -1.1811, 5.626 0.4724 -1.1811, 5.374 0.374 -1.0827, 5.626 0.374 -1.0827, 5.626 0.626 0.1969, 5.626 0.374 0.1969, 5.374 0.626 0.1969, 5.374 0.374 0.1969, 5.626 0.374 3.2638, 5.374 0.374 3.2638, 5.626 0.374 1.0, 5.374 0.374 1.0, 5.374 0.4724 3.3622, 5.626 0.4724 3.3622, 5.374 0.5276 3.3622, 5.626 0.5276 3.3622, 5.374 0.626 3.2638, 5.626 0.626 3.2638, 5.374 0.626 1.0, 5.626 0.626 1.0, -0.8 0.1969 0.2362, -0.8025 0.1969 0.2362, -0.8 0.1969 0.1969, -0.8025 0.1969 0.1969, -0.8934 0.0 0.2362, -0.8934 0.0 0.1969, -0.8742 0.0 0.2362, -0.8742 0.0 0.1969, -0.8451 0.0631 0.2362, -0.8451 0.0631 0.1969, -0.7559 0.0631 0.2362, -0.7559 0.0631 0.1969, -0.7259 0.0 0.2362, -0.7259 0.0 0.1969, -0.7066 0.0 0.2362, -0.7066 0.0 0.1969, -0.8358 0.0833 0.2362, -0.7654 0.0833 0.2362, -0.8011 0.1585 0.2362, -0.8358 0.0833 0.1969, -0.8011 0.1585 0.1969, -0.7654 0.0833 0.1969, -0.5809 0.0 0.2362, -0.5199 0.0 0.2362, -0.5809 0.0 0.1969, -0.5199 0.0 0.1969, -0.5199 0.1969 0.2362, -0.5199 0.1969 0.1969, -0.5596 0.1969 0.2362, -0.5596 0.1969 0.1969, -0.6221 0.1898 0.2362, -0.6221 0.1898 0.1969, -0.5912 0.1956 0.1969, -0.5912 0.1956 0.2362, -0.642 0.1797 0.2362, -0.6814 0.0959 0.2362, -0.6814 0.0959 0.1969, -0.6811 0.1051 0.1969, -0.6811 0.1051 0.2362, -0.6772 0.1289 0.1969, -0.6772 0.1289 0.2362, -0.6689 0.1494 0.1969, -0.6689 0.1494 0.2362, -0.6564 0.1672 0.1969, -0.6564 0.1672 0.2362, -0.6537 0.1695 0.1969, -0.642 0.1797 0.1969, -0.604 0.0013 0.1969, -0.604 0.0013 0.2362, -0.628 0.0068 0.1969, -0.628 0.0068 0.2362, -0.6428 0.0144 0.1969, -0.6428 0.0144 0.2362, -0.6537 0.0241 0.1969, -0.6575 0.0274 0.2362, -0.6575 0.0274 0.1969, -0.6709 0.0477 0.1969, -0.6709 0.0477 0.2362, -0.6786 0.0696 0.1969, -0.6786 0.0696 0.2362, -0.5818 0.1757 0.2362, -0.6119 0.1711 0.2362, -0.6207 0.1679 0.2362, -0.6354 0.1593 0.2362, -0.6468 0.1482 0.2362, -0.6558 0.1338 0.2362, -0.6616 0.1169 0.2362, -0.6637 0.096 0.2362, -0.6636 0.0905 0.2362, -0.6601 0.0697 0.2362, -0.6536 0.0548 0.2362, -0.6438 0.0419 0.2362, -0.6321 0.0324 0.2362, -0.6164 0.0252 0.2362, -0.5885 0.021 0.2362, -0.5601 0.0202 0.2362, -0.5376 0.0202 0.2362, -0.5376 0.1767 0.2362, -0.5514 0.1767 0.2362, -0.5376 0.1767 0.1969, -0.5376 0.0202 0.1969, -0.5514 0.1767 0.1969, -0.5818 0.1757 0.1969, -0.6119 0.1711 0.1969, -0.6207 0.1679 0.1969, -0.6354 0.1593 0.1969, -0.6468 0.1482 0.1969, -0.6558 0.1338 0.1969, -0.6616 0.1169 0.1969, -0.6637 0.096 0.1969, -0.6636 0.0905 0.1969, -0.6601 0.0697 0.1969, -0.6536 0.0548 0.1969, -0.6438 0.0419 0.1969, -0.6321 0.0324 0.1969, -0.6164 0.0252 0.1969, -0.5885 0.021 0.1969, -0.5601 0.0202 0.1969, -0.3735 0.0 0.2362, -0.3735 0.1969 0.2362, -0.3735 0.0 0.1969, -0.3735 0.1969 0.1969, -0.4846 0.1969 0.2362, -0.4846 0.1969 0.1969, -0.4846 0.1767 0.2362, -0.4846 0.1767 0.1969, -0.3912 0.1767 0.2362, -0.3912 0.1767 0.1969, -0.3912 0.1161 0.2362, -0.3912 0.1161 0.1969, -0.4846 0.1161 0.2362, -0.4846 0.1161 0.1969, -0.4846 0.0959 0.2362, -0.4846 0.0959 0.1969, -0.3912 0.0959 0.2362, -0.3912 0.0959 0.1969, -0.3912 0.0202 0.2362, -0.3912 0.0202 0.1969, -0.4846 0.0202 0.2362, -0.4846 0.0202 0.1969, -0.4846 0.0 0.2362, -0.4846 0.0 0.1969, -0.2472 0.2019 0.1969, -0.2472 0.2019 0.2362, -0.2692 0.1994 0.1969, -0.2759 0.1986 0.2362, -0.2759 0.1986 0.1969, -0.2938 0.1924 0.2362, -0.2938 0.1924 0.1969, -0.3153 0.1794 0.2362, -0.3153 0.1794 0.1969, -0.3273 0.168 0.2362, -0.3273 0.168 0.1969, -0.3331 0.1607 0.2362, -0.3331 0.1607 0.1969, -0.3177 0.1489 0.2362, -0.3177 0.1489 0.1969, -0.2461 0.1817 0.2362, -0.2461 0.1817 0.1969, -0.253 0.1815 0.1969, -0.253 0.1815 0.2362, -0.2747 0.1777 0.1969, -0.2747 0.1777 0.2362, -0.2834 0.1746 0.1969, -0.2834 0.1746 0.2362, -0.3019 0.1642 0.1969, -0.3019 0.1642 0.2362, -0.159 0.0982 0.2362, -0.159 0.0982 0.1969, -0.1594 0.1075 0.1969, -0.1594 0.1075 0.2362, -0.1637 0.1266 0.1969, -0.1637 0.1266 0.2362, -0.1724 0.1441 0.1969, -0.1724 0.1441 0.2362, -0.1847 0.1583 0.1969, -0.1847 0.1583 0.2362, -0.2028 0.1711 0.1969, -0.2028 0.1711 0.2362, -0.2229 0.1788 0.1969, -0.2229 0.1788 0.2362, -0.2474 0.0151 0.2362, -0.2474 0.0151 0.1969, -0.2317 0.0162 0.1969, -0.2317 0.0162 0.2362, -0.2117 0.0214 0.1969, -0.2117 0.0214 0.2362, -0.1926 0.0318 0.1969, -0.1926 0.0318 0.2362, -0.1784 0.0448 0.1969, -0.1784 0.0448 0.2362, -0.1678 0.0602 0.1969, -0.1678 0.0602 0.2362, -0.1616 0.0765 0.1969, -0.1616 0.0765 0.2362, -0.3177 0.048 0.2362, -0.3177 0.048 0.1969, -0.3068 0.037 0.1969, -0.3068 0.037 0.2362, -0.2894 0.025 0.1969, -0.2894 0.025 0.2362, -0.2704 0.0179 0.1969, -0.2704 0.0179 0.2362, -0.3331 0.0362 0.2362, -0.3331 0.0362 0.1969, -0.2475 -0.005 0.2362, -0.2475 -0.005 0.1969, -0.2573 -0.0047 0.1969, -0.2573 -0.0047 0.2362, -0.273 -0.0024 0.1969, -0.273 -0.0024 0.2362, -0.2954 0.0052 0.1969, -0.2954 0.0052 0.2362, -0.3158 0.018 0.1969, -0.3158 0.018 0.2362, -0.1663 0.0294 0.2362, -0.1663 0.0294 0.1969, -0.1742 0.0212 0.1969, -0.1742 0.0212 0.2362, -0.1932 0.0075 0.1969, -0.1932 0.0075 0.2362, -0.2168 -0.0015 0.1969, -0.2168 -0.0015 0.2362, -0.1413 0.0996 0.2362, -0.1413 0.0996 0.1969, -0.1441 0.0736 0.1969, -0.1441 0.0736 0.2362, -0.152 0.051 0.1969, -0.152 0.051 0.2362, -0.2315 0.201 0.1969, -0.2315 0.201 0.2362, -0.2248 0.1994 0.1969, -0.2075 0.1953 0.2362, -0.2075 0.1953 0.1969, -0.1866 0.1847 0.1969, -0.1866 0.1847 0.2362, -0.1661 0.1667 0.1969, -0.1661 0.1667 0.2362, -0.1526 0.1473 0.1969, -0.1526 0.1473 0.2362, -0.1446 0.1265 0.1969, -0.1446 0.1265 0.2362, -0.0252 0.0 0.2362, -0.0252 0.1969 0.2362, -0.0252 0.0 0.1969, -0.0252 0.1969 0.1969, -0.0429 0.1969 0.2362, -0.0429 0.1969 0.1969, -0.0429 0.0202 0.2362, -0.0429 0.0202 0.1969, -0.1186 0.0202 0.2362, -0.1186 0.0202 0.1969, -0.1186 0.0 0.2362, -0.1186 0.0 0.1969
            ]
        }
        coordIndex [
            0,1,2,-1,2,1,3,-1,4,0,5,-1,5,0,2,-1,6,4,7,-1,7,4,5,-1,5,2,7,-1,7,2,3,-1,7,3,8,-1,8,3,9,-1,0,4,1,-1,1,4,6,-1,1,6,10,-1,10,6,11,-1,9,3,10,-1,10,3,1,-1,11,6,8,-1,8,6,7,-1,12,13,14,-1,14,13,15,-1,16,13,17,-1,17,13,12,-1,18,16,19,-1,19,16,17,-1,20,18,21,-1,21,18,19,-1,20,21,22,-1,22,21,23,-1,16,18,13,-1,13,18,20,-1,13,20,15,-1,15,20,22,-1,19,17,21,-1,21,17,12,-1,21,12,23,-1,23,12,14,-1,24,25,26,-1,26,25,27,-1,28,24,29,-1,29,24,26,-1,30,28,31,-1,31,28,29,-1,32,33,27,-1,27,33,31,-1,27,31,26,-1,26,31,29,-1,24,28,25,-1,25,28,30,-1,25,30,34,-1,34,30,35,-1,32,27,34,-1,34,27,25,-1,35,30,33,-1,33,30,31,-1,36,37,38,-1,38,37,39,-1,40,37,41,-1,41,37,36,-1,42,40,43,-1,43,40,41,-1,44,42,45,-1,45,42,43,-1,44,45,46,-1,46,45,47,-1,40,42,37,-1,37,42,44,-1,37,44,39,-1,39,44,46,-1,43,41,45,-1,45,41,36,-1,45,36,47,-1,47,36,38,-1,48,49,50,-1,50,49,51,-1,52,48,53,-1,53,48,50,-1,54,52,55,-1,55,52,53,-1,56,57,51,-1,51,57,55,-1,51,55,50,-1,50,55,53,-1,48,52,49,-1,49,52,54,-1,49,54,58,-1,58,54,59,-1,56,51,58,-1,58,51,49,-1,59,54,57,-1,57,54,55,-1,60,61,62,-1,62,61,63,-1,64,61,65,-1,65,61,60,-1,66,64,67,-1,67,64,65,-1,68,66,69,-1,69,66,67,-1,68,69,70,-1,70,69,71,-1,70,63,68,-1,68,63,61,-1,68,61,66,-1,66,61,64,-1,67,65,69,-1,69,65,60,-1,69,60,71,-1,71,60,62,-1,72,73,74,-1,74,73,75,-1,76,72,77,-1,77,72,74,-1,78,76,79,-1,79,76,77,-1,80,81,75,-1,75,81,79,-1,75,79,74,-1,74,79,77,-1,72,76,73,-1,73,76,78,-1,73,78,82,-1,82,78,83,-1,80,75,82,-1,82,75,73,-1,83,78,81,-1,81,78,79,-1,84,85,86,-1,86,85,87,-1,88,85,89,-1,89,85,84,-1,90,88,91,-1,91,88,89,-1,92,90,93,-1,93,90,91,-1,92,93,94,-1,94,93,95,-1,88,90,85,-1,85,90,92,-1,85,92,87,-1,87,92,94,-1,91,89,93,-1,93,89,84,-1,93,84,95,-1,95,84,86,-1,96,97,98,-1,98,97,99,-1,100,96,101,-1,101,96,98,-1,102,100,103,-1,103,100,101,-1,101,98,103,-1,103,98,99,-1,103,99,104,-1,104,99,105,-1,106,107,102,-1,102,107,97,-1,102,97,100,-1,100,97,96,-1,105,99,107,-1,107,99,97,-1,106,102,104,-1,104,102,103,-1,108,109,110,-1,110,109,111,-1,112,109,113,-1,113,109,108,-1,114,112,115,-1,115,112,113,-1,116,114,117,-1,117,114,115,-1,116,117,118,-1,118,117,119,-1,112,114,109,-1,109,114,116,-1,109,116,111,-1,111,116,118,-1,115,113,117,-1,117,113,108,-1,117,108,119,-1,119,108,110,-1,120,121,122,-1,122,121,123,-1,124,120,125,-1,125,120,122,-1,126,124,127,-1,127,124,125,-1,125,122,127,-1,127,122,123,-1,127,123,128,-1,128,123,129,-1,130,131,126,-1,126,131,121,-1,126,121,124,-1,124,121,120,-1,129,123,131,-1,131,123,121,-1,130,126,128,-1,128,126,127,-1,132,133,134,-1,134,133,135,-1,136,133,137,-1,137,133,132,-1,138,136,139,-1,139,136,137,-1,140,138,141,-1,141,138,139,-1,140,141,142,-1,142,141,143,-1,136,138,133,-1,133,138,140,-1,133,140,135,-1,135,140,142,-1,134,143,132,-1,132,143,141,-1,132,141,137,-1,137,141,139,-1,144,145,146,-1,146,145,147,-1,148,144,149,-1,149,144,146,-1,150,148,151,-1,151,148,149,-1,149,146,151,-1,151,146,147,-1,151,147,152,-1,152,147,153,-1,154,155,150,-1,150,155,145,-1,150,145,148,-1,148,145,144,-1,153,147,155,-1,155,147,145,-1,154,150,152,-1,152,150,151,-1,156,157,158,-1,158,157,159,-1,160,157,161,-1,161,157,156,-1,162,160,163,-1,163,160,161,-1,164,162,165,-1,165,162,163,-1,164,165,166,-1,166,165,167,-1,160,162,157,-1,157,162,164,-1,157,164,159,-1,159,164,166,-1,163,161,165,-1,165,161,156,-1,165,156,167,-1,167,156,158,-1,168,169,170,-1,170,169,171,-1,172,168,173,-1,173,168,170,-1,174,172,175,-1,175,172,173,-1,173,170,175,-1,175,170,171,-1,175,171,176,-1,176,171,177,-1,178,179,174,-1,174,179,169,-1,174,169,172,-1,172,169,168,-1,177,171,179,-1,179,171,169,-1,178,174,176,-1,176,174,175,-1,180,181,182,-1,182,181,183,-1,184,181,185,-1,185,181,180,-1,186,184,187,-1,187,184,185,-1,188,186,189,-1,189,186,187,-1,188,189,190,-1,190,189,191,-1,184,186,181,-1,181,186,188,-1,181,188,183,-1,183,188,190,-1,182,191,180,-1,180,191,189,-1,180,189,185,-1,185,189,187,-1,192,193,194,-1,194,193,195,-1,196,192,197,-1,197,192,194,-1,198,196,199,-1,199,196,197,-1,197,194,199,-1,199,194,195,-1,199,195,200,-1,200,195,201,-1,202,203,198,-1,198,203,193,-1,198,193,196,-1,196,193,192,-1,201,195,204,-1,204,195,193,-1,204,193,203,-1,202,198,205,-1,205,198,199,-1,205,199,200,-1,206,207,208,-1,208,207,209,-1,210,207,211,-1,211,207,206,-1,212,210,213,-1,213,210,211,-1,214,212,215,-1,215,212,213,-1,214,215,216,-1,216,215,217,-1,210,212,207,-1,207,212,214,-1,207,214,209,-1,209,214,216,-1,213,211,215,-1,215,211,206,-1,215,206,217,-1,217,206,208,-1,218,219,220,-1,220,219,221,-1,222,218,223,-1,223,218,220,-1,224,222,225,-1,225,222,223,-1,226,227,221,-1,221,227,225,-1,221,225,220,-1,220,225,223,-1,218,222,219,-1,219,222,224,-1,219,224,228,-1,228,224,229,-1,226,221,230,-1,230,221,219,-1,230,219,228,-1,229,224,231,-1,231,224,225,-1,231,225,227,-1,232,233,234,-1,234,233,235,-1,236,233,237,-1,237,233,232,-1,238,236,239,-1,239,236,237,-1,240,238,241,-1,241,238,239,-1,240,241,242,-1,242,241,243,-1,236,238,233,-1,233,238,240,-1,233,240,235,-1,235,240,242,-1,239,237,241,-1,241,237,232,-1,241,232,243,-1,243,232,234,-1,244,245,246,-1,246,245,247,-1,248,244,249,-1,249,244,246,-1,250,248,251,-1,251,248,249,-1,249,246,251,-1,251,246,247,-1,251,247,252,-1,252,247,253,-1,254,255,250,-1,250,255,245,-1,250,245,248,-1,248,245,244,-1,253,247,255,-1,255,247,245,-1,254,250,252,-1,252,250,251,-1,256,257,258,-1,258,257,259,-1,260,257,261,-1,261,257,256,-1,262,260,263,-1,263,260,261,-1,264,262,265,-1,265,262,263,-1,264,265,266,-1,266,265,267,-1,260,262,257,-1,257,262,264,-1,257,264,259,-1,259,264,266,-1,263,261,265,-1,265,261,256,-1,265,256,267,-1,267,256,258,-1,268,269,270,-1,270,269,271,-1,272,268,273,-1,273,268,270,-1,274,272,275,-1,275,272,273,-1,276,277,271,-1,271,277,275,-1,271,275,270,-1,270,275,273,-1,268,272,269,-1,269,272,274,-1,269,274,278,-1,278,274,279,-1,276,271,278,-1,278,271,269,-1,279,274,277,-1,277,274,275,-1,280,281,282,-1,282,281,283,-1,284,281,285,-1,285,281,280,-1,286,284,287,-1,287,284,285,-1,288,286,289,-1,289,286,287,-1,288,289,290,-1,290,289,291,-1,284,286,281,-1,281,286,288,-1,281,288,283,-1,283,288,290,-1,287,285,289,-1,289,285,280,-1,289,280,291,-1,291,280,282,-1,292,293,294,-1,294,293,295,-1,296,292,297,-1,297,292,294,-1,298,296,299,-1,299,296,297,-1,300,301,295,-1,295,301,299,-1,295,299,294,-1,294,299,297,-1,292,296,293,-1,293,296,298,-1,293,298,302,-1,302,298,303,-1,300,295,302,-1,302,295,293,-1,303,298,301,-1,301,298,299,-1,304,305,306,-1,306,305,307,-1,308,305,309,-1,309,305,304,-1,310,308,311,-1,311,308,309,-1,312,310,313,-1,313,310,311,-1,312,313,314,-1,314,313,315,-1,314,307,312,-1,312,307,305,-1,312,305,310,-1,310,305,308,-1,311,309,313,-1,313,309,304,-1,313,304,315,-1,315,304,306,-1,316,317,318,-1,318,317,319,-1,320,316,321,-1,321,316,318,-1,322,320,323,-1,323,320,321,-1,324,325,319,-1,319,325,323,-1,319,323,318,-1,318,323,321,-1,316,320,317,-1,317,320,322,-1,317,322,326,-1,326,322,327,-1,324,319,326,-1,326,319,317,-1,327,322,325,-1,325,322,323,-1,328,329,330,-1,330,329,331,-1,332,329,333,-1,333,329,328,-1,334,332,335,-1,335,332,333,-1,336,334,337,-1,337,334,335,-1,336,337,338,-1,338,337,339,-1,332,334,329,-1,329,334,336,-1,329,336,331,-1,331,336,338,-1,335,333,337,-1,337,333,328,-1,337,328,339,-1,339,328,330,-1,340,341,342,-1,342,341,343,-1,344,340,345,-1,345,340,342,-1,346,344,347,-1,347,344,345,-1,348,349,343,-1,343,349,347,-1,343,347,342,-1,342,347,345,-1,340,344,341,-1,341,344,346,-1,341,346,350,-1,350,346,351,-1,348,343,350,-1,350,343,341,-1,351,346,349,-1,349,346,347,-1,352,353,354,-1,354,353,355,-1,356,353,357,-1,357,353,352,-1,358,356,359,-1,359,356,357,-1,360,358,361,-1,361,358,359,-1,360,361,362,-1,362,361,363,-1,362,355,360,-1,360,355,353,-1,360,353,358,-1,358,353,356,-1,359,357,361,-1,361,357,352,-1,361,352,363,-1,363,352,354,-1,364,365,366,-1,366,365,367,-1,368,364,369,-1,369,364,366,-1,370,368,371,-1,371,368,369,-1,372,373,367,-1,367,373,371,-1,367,371,366,-1,366,371,369,-1,364,368,365,-1,365,368,370,-1,365,370,374,-1,374,370,375,-1,372,367,374,-1,374,367,365,-1,375,370,373,-1,373,370,371,-1,376,377,378,-1,378,377,379,-1,380,377,381,-1,381,377,376,-1,382,380,383,-1,383,380,381,-1,384,382,385,-1,385,382,383,-1,384,385,386,-1,386,385,387,-1,380,382,377,-1,377,382,384,-1,377,384,379,-1,379,384,386,-1,383,381,385,-1,385,381,376,-1,385,376,387,-1,387,376,378,-1,388,389,390,-1,390,389,391,-1,392,388,393,-1,393,388,390,-1,394,392,395,-1,395,392,393,-1,393,390,395,-1,395,390,391,-1,395,391,396,-1,396,391,397,-1,388,392,389,-1,389,392,394,-1,389,394,398,-1,398,394,399,-1,397,391,398,-1,398,391,389,-1,399,394,396,-1,396,394,395,-1,400,401,402,-1,402,401,403,-1,404,401,405,-1,405,401,400,-1,406,404,407,-1,407,404,405,-1,408,406,409,-1,409,406,407,-1,408,409,410,-1,410,409,411,-1,404,406,401,-1,401,406,408,-1,401,408,403,-1,403,408,410,-1,407,405,409,-1,409,405,400,-1,409,400,411,-1,411,400,402,-1,412,413,414,-1,414,413,415,-1,416,412,417,-1,417,412,414,-1,418,416,419,-1,419,416,417,-1,417,414,419,-1,419,414,415,-1,419,415,420,-1,420,415,421,-1,422,423,418,-1,418,423,413,-1,418,413,416,-1,416,413,412,-1,421,415,423,-1,423,415,413,-1,422,418,420,-1,420,418,419,-1,424,425,426,-1,426,425,427,-1,428,425,429,-1,429,425,424,-1,430,428,431,-1,431,428,429,-1,432,430,433,-1,433,430,431,-1,432,433,434,-1,434,433,435,-1,428,430,425,-1,425,430,432,-1,425,432,427,-1,427,432,434,-1,426,435,424,-1,424,435,433,-1,424,433,429,-1,429,433,431,-1,436,437,438,-1,438,437,439,-1,440,436,441,-1,441,436,438,-1,442,440,443,-1,443,440,441,-1,441,438,443,-1,443,438,439,-1,443,439,444,-1,444,439,445,-1,436,440,437,-1,437,440,442,-1,437,442,446,-1,446,442,447,-1,445,439,446,-1,446,439,437,-1,447,442,444,-1,444,442,443,-1,448,449,450,-1,450,449,451,-1,452,449,453,-1,453,449,448,-1,454,452,455,-1,455,452,453,-1,456,454,457,-1,457,454,455,-1,456,457,458,-1,458,457,459,-1,452,454,449,-1,449,454,456,-1,449,456,451,-1,451,456,458,-1,455,453,457,-1,457,453,448,-1,457,448,459,-1,459,448,450,-1,460,461,462,-1,462,461,463,-1,464,460,465,-1,465,460,462,-1,466,464,467,-1,467,464,465,-1,468,469,463,-1,463,469,467,-1,463,467,462,-1,462,467,465,-1,460,464,461,-1,461,464,466,-1,461,466,470,-1,470,466,471,-1,468,463,470,-1,470,463,461,-1,471,466,469,-1,469,466,467,-1,472,473,474,-1,474,473,475,-1,476,473,477,-1,477,473,472,-1,478,476,479,-1,479,476,477,-1,480,478,481,-1,481,478,479,-1,480,481,482,-1,482,481,483,-1,476,478,473,-1,473,478,480,-1,473,480,475,-1,475,480,482,-1,479,477,481,-1,481,477,472,-1,481,472,483,-1,483,472,474,-1,484,485,486,-1,486,485,487,-1,488,484,489,-1,489,484,486,-1,490,488,491,-1,491,488,489,-1,489,486,491,-1,491,486,487,-1,491,487,492,-1,492,487,493,-1,484,488,485,-1,485,488,490,-1,485,490,494,-1,494,490,495,-1,493,487,494,-1,494,487,485,-1,495,490,492,-1,492,490,491,-1,496,497,498,-1,498,497,499,-1,500,497,501,-1,501,497,496,-1,502,500,503,-1,503,500,501,-1,504,502,505,-1,505,502,503,-1,504,505,506,-1,506,505,507,-1,500,502,497,-1,497,502,504,-1,497,504,499,-1,499,504,506,-1,503,501,505,-1,505,501,496,-1,505,496,507,-1,507,496,498,-1,508,509,510,-1,510,509,511,-1,512,508,513,-1,513,508,510,-1,514,512,515,-1,515,512,513,-1,516,517,511,-1,511,517,515,-1,511,515,510,-1,510,515,513,-1,508,512,509,-1,509,512,514,-1,509,514,518,-1,518,514,519,-1,516,511,518,-1,518,511,509,-1,519,514,517,-1,517,514,515,-1,520,521,522,-1,522,521,523,-1,524,521,525,-1,525,521,520,-1,526,524,527,-1,527,524,525,-1,528,526,529,-1,529,526,527,-1,528,529,530,-1,530,529,531,-1,524,526,521,-1,521,526,528,-1,521,528,523,-1,523,528,530,-1,527,525,529,-1,529,525,520,-1,529,520,531,-1,531,520,522,-1,532,533,534,-1,534,533,535,-1,533,536,535,-1,535,536,537,-1,536,538,537,-1,537,538,539,-1,538,540,539,-1,539,540,541,-1,540,542,541,-1,541,542,543,-1,542,544,543,-1,543,544,545,-1,544,546,545,-1,545,546,547,-1,546,532,547,-1,547,532,534,-1,548,536,533,-1,532,549,533,-1,533,549,550,-1,533,550,548,-1,546,544,542,-1,538,536,540,-1,540,536,548,-1,540,548,542,-1,542,548,549,-1,542,549,546,-1,546,549,532,-1,548,550,551,-1,551,550,552,-1,549,548,553,-1,553,548,551,-1,550,549,552,-1,552,549,553,-1,554,555,556,-1,556,555,557,-1,555,558,557,-1,557,558,559,-1,558,560,559,-1,559,560,561,-1,562,563,564,-1,562,564,565,-1,565,564,561,-1,565,561,560,-1,563,562,566,-1,567,568,569,-1,567,569,570,-1,570,569,571,-1,570,571,572,-1,572,571,573,-1,572,573,574,-1,574,573,575,-1,574,575,576,-1,576,575,577,-1,576,577,566,-1,566,577,578,-1,566,578,563,-1,554,556,579,-1,554,579,580,-1,580,579,581,-1,580,581,582,-1,582,581,583,-1,582,583,584,-1,584,583,585,-1,584,585,586,-1,585,587,586,-1,586,587,588,-1,586,588,589,-1,589,588,590,-1,589,590,591,-1,591,590,568,-1,591,568,567,-1,592,593,562,-1,562,593,594,-1,562,594,566,-1,566,594,595,-1,566,595,576,-1,576,595,596,-1,576,596,574,-1,574,596,597,-1,574,597,572,-1,572,597,598,-1,572,598,570,-1,570,598,599,-1,570,599,567,-1,567,599,600,-1,567,600,591,-1,591,600,601,-1,591,601,589,-1,589,601,602,-1,589,602,586,-1,586,602,603,-1,586,603,584,-1,584,603,604,-1,584,604,582,-1,582,604,605,-1,582,605,580,-1,580,605,606,-1,580,606,554,-1,554,606,607,-1,554,607,555,-1,555,607,608,-1,555,608,558,-1,558,608,609,-1,558,609,560,-1,560,609,610,-1,560,610,565,-1,565,610,592,-1,565,592,562,-1,609,608,611,-1,611,608,612,-1,610,609,613,-1,613,609,611,-1,610,613,614,-1,610,614,592,-1,592,614,615,-1,592,615,593,-1,593,615,616,-1,593,616,594,-1,594,616,617,-1,594,617,595,-1,595,617,618,-1,595,618,596,-1,596,618,619,-1,596,619,597,-1,597,619,620,-1,597,620,598,-1,598,620,621,-1,598,621,599,-1,599,621,622,-1,599,622,600,-1,600,622,623,-1,600,623,601,-1,601,623,624,-1,601,624,602,-1,602,624,625,-1,602,625,603,-1,603,625,626,-1,603,626,604,-1,604,626,627,-1,604,627,605,-1,605,627,628,-1,605,628,606,-1,606,628,629,-1,606,629,607,-1,608,607,612,-1,612,607,629,-1,630,631,632,-1,632,631,633,-1,631,634,633,-1,633,634,635,-1,634,636,635,-1,635,636,637,-1,636,638,637,-1,637,638,639,-1,638,640,639,-1,639,640,641,-1,640,642,641,-1,641,642,643,-1,642,644,643,-1,643,644,645,-1,644,646,645,-1,645,646,647,-1,646,648,647,-1,647,648,649,-1,648,650,649,-1,649,650,651,-1,650,652,651,-1,651,652,653,-1,652,630,653,-1,653,630,632,-1,630,652,650,-1,650,648,630,-1,630,648,646,-1,630,646,631,-1,636,634,638,-1,638,634,631,-1,638,631,640,-1,640,631,646,-1,640,646,642,-1,642,646,644,-1,654,655,656,-1,656,655,657,-1,656,657,658,-1,658,657,659,-1,658,659,660,-1,660,659,661,-1,660,661,662,-1,662,661,663,-1,662,663,664,-1,664,663,665,-1,664,665,666,-1,665,667,666,-1,666,667,668,-1,669,670,671,-1,669,671,672,-1,672,671,673,-1,672,673,674,-1,674,673,675,-1,674,675,676,-1,676,675,677,-1,676,677,678,-1,678,677,668,-1,678,668,667,-1,679,680,681,-1,679,681,682,-1,682,681,683,-1,682,683,684,-1,684,683,685,-1,684,685,686,-1,686,685,687,-1,686,687,688,-1,688,687,689,-1,688,689,690,-1,690,689,691,-1,690,691,692,-1,692,691,670,-1,692,670,669,-1,693,694,695,-1,693,695,696,-1,696,695,697,-1,696,697,698,-1,698,697,699,-1,698,699,700,-1,700,699,701,-1,700,701,702,-1,702,701,703,-1,702,703,704,-1,704,703,705,-1,704,705,706,-1,706,705,680,-1,706,680,679,-1,707,708,709,-1,707,709,710,-1,710,709,711,-1,710,711,712,-1,712,711,713,-1,712,713,714,-1,714,713,694,-1,714,694,693,-1,707,715,708,-1,708,715,716,-1,717,718,719,-1,717,719,720,-1,720,719,721,-1,720,721,722,-1,722,721,723,-1,722,723,724,-1,724,723,725,-1,724,725,726,-1,726,725,716,-1,726,716,715,-1,727,728,729,-1,727,729,730,-1,730,729,731,-1,730,731,732,-1,732,731,733,-1,732,733,734,-1,734,733,718,-1,734,718,717,-1,735,736,737,-1,735,737,738,-1,738,737,739,-1,738,739,740,-1,740,739,728,-1,740,728,727,-1,655,654,741,-1,655,741,742,-1,742,741,743,-1,742,743,744,-1,743,745,744,-1,744,745,746,-1,744,746,747,-1,747,746,748,-1,747,748,749,-1,749,748,750,-1,749,750,751,-1,751,750,752,-1,751,752,753,-1,753,752,736,-1,753,736,735,-1,667,665,663,-1,715,707,726,-1,726,707,710,-1,726,710,724,-1,724,710,712,-1,724,712,722,-1,722,712,714,-1,722,714,720,-1,720,714,693,-1,667,663,678,-1,678,663,661,-1,678,661,676,-1,676,661,659,-1,676,659,674,-1,674,659,657,-1,674,657,672,-1,672,657,655,-1,672,655,669,-1,669,655,742,-1,669,742,692,-1,692,742,744,-1,692,744,690,-1,690,744,747,-1,690,747,688,-1,688,747,749,-1,688,749,686,-1,686,749,751,-1,686,751,684,-1,684,751,753,-1,684,753,682,-1,682,753,735,-1,682,735,679,-1,679,735,706,-1,706,735,738,-1,706,738,704,-1,704,738,740,-1,704,740,702,-1,702,740,727,-1,702,727,700,-1,700,727,730,-1,700,730,698,-1,698,730,732,-1,698,732,696,-1,696,732,734,-1,696,734,693,-1,693,734,717,-1,693,717,720,-1,754,755,756,-1,756,755,757,-1,755,758,757,-1,757,758,759,-1,758,760,759,-1,759,760,761,-1,760,762,761,-1,761,762,763,-1,762,764,763,-1,763,764,765,-1,764,754,765,-1,765,754,756,-1,758,755,760,-1,760,755,754,-1,760,754,762,-1,762,754,764,-1,
        ]
    }
}
Shape{
    appearance Appearance {
        material  Material 	{
            diffuseColor 0.14901960784313725 0.14901960784313725 0.14901960784313725
            specularColor 0.07450980392156863 0.07450980392156863 0.07450980392156863
            ambientIntensity 0.149
            transparency 0.0
            shininess 0.5
        }
    }
    geometry IndexedFaceSet {
        ccw TRUE
        solid FALSE
        coord DEF co Coordinate {
            point [
                -0.8011 0.1585 0.1969, -0.7654 0.0833 0.1969, -0.8358 0.0833 0.1969, -0.5376 0.1767 0.1969, -0.5376 0.0202 0.1969, -0.5514 0.1767 0.1969, -0.5601 0.0202 0.1969, -0.5818 0.1757 0.1969, -0.5885 0.021 0.1969, -0.6119 0.1711 0.1969, -0.6536 0.0548 0.1969, -0.6601 0.0697 0.1969, -0.6636 0.0905 0.1969, -0.6637 0.096 0.1969, -0.6164 0.0252 0.1969, -0.6321 0.0324 0.1969, -0.6438 0.0419 0.1969, -0.6616 0.1169 0.1969, -0.6558 0.1338 0.1969, -0.6468 0.1482 0.1969, -0.6354 0.1593 0.1969, -0.6207 0.1679 0.1969
            ]
        }
        coordIndex [
            0,1,2,-1,3,4,5,-1,5,4,6,-1,5,6,7,-1,7,6,8,-1,7,8,9,-1,10,11,8,-1,8,11,12,-1,8,12,13,-1,14,15,8,-1,8,15,16,-1,8,16,10,-1,13,17,8,-1,8,17,18,-1,8,18,19,-1,19,20,8,-1,8,20,21,-1,8,21,9,-1,
        ]
    }
}