#VRML V2.0 utf8
# 3D model generated by easyeda2kicad.py (https://github.com/uPesy/easyeda2kicad.py)

Shape{
    appearance Appearance {
        material  Material 	{
            diffuseColor 0.25098039215686274 0.25098039215686274 0.25098039215686274
            specularColor 0.12549019607843137 0.12549019607843137 0.12549019607843137
            ambientIntensity 0.251
            transparency 0.0
            shininess 0.5
        }
    }
    geometry IndexedFaceSet {
        ccw TRUE
        solid FALSE
        coord DEF co Coordinate {
            point [
                0.6299 0.0826 0.0039, 0.6299 0.0826 0.2795, 0.6299 -0.0364 0.0039, 0.6299 -0.0826 0.2795, 0.6299 -0.0826 0.0039, 0.6299 0.4429 0.2795, 0.6299 0.1716 0.2795, 0.6299 0.4429 0.1417, 0.6299 0.1716 0.0039, 0.6299 0.4469 0.1417, 0.6299 0.374 0.0039, 0.6299 0.4469 0.0, 0.6299 0.374 0.0, -0.6299 -0.0826 0.0039, -0.6299 -0.0826 0.2795, -0.6299 -0.0364 0.0039, -0.6299 0.0826 0.2795, -0.6299 0.0826 0.0039, -0.6299 -0.4429 0.2795, -0.6299 -0.1716 0.2795, -0.6299 -0.4429 0.1417, -0.6299 -0.1716 0.0039, -0.6299 -0.4469 0.1417, -0.6299 -0.374 0.0039, -0.6299 -0.4469 0.0, -0.6299 -0.374 0.0
            ]
        }
        coordIndex [
            0,1,2,-1,2,1,3,-1,2,3,4,-1,5,6,7,-1,7,6,8,-1,7,8,9,-1,9,8,10,-1,9,10,11,-1,11,10,12,-1,13,14,15,-1,15,14,16,-1,15,16,17,-1,18,19,20,-1,20,19,21,-1,20,21,22,-1,22,21,23,-1,22,23,24,-1,24,23,25,-1,
        ]
    }
}
Shape{
    appearance Appearance {
        material  Material 	{
            diffuseColor 1.0 1.0 0.0
            specularColor 0.5019607843137255 0.5019607843137255 0.0
            ambientIntensity 0.886
            transparency 0.0
            shininess 0.5
        }
    }
    geometry IndexedFaceSet {
        ccw TRUE
        solid FALSE
        coord DEF co Coordinate {
            point [
                0.6299 -0.0826 0.2795, 0.6299 0.0826 0.2795, 0.6193 -0.0839 0.2795, 0.6193 0.0839 0.2795, 0.6102 -0.0872 0.2795, 0.6102 0.0872 0.2795
            ]
        }
        coordIndex [
            0,1,2,-1,2,1,3,-1,2,3,4,-1,4,3,5,-1,
        ]
    }
}
Shape{
    appearance Appearance {
        material  Material 	{
            diffuseColor 0.25098039215686274 0.25098039215686274 0.25098039215686274
            specularColor 0.12549019607843137 0.12549019607843137 0.12549019607843137
            ambientIntensity 0.251
            transparency 0.0
            shininess 0.5
        }
    }
    geometry IndexedFaceSet {
        ccw TRUE
        solid FALSE
        coord DEF co Coordinate {
            point [
                0.6102 0.3543 0.2795, 0.6102 0.167 0.2795, 0.6193 0.1703 0.2795, 0.5873 0.4675 0.2795, 0.568 0.4448 0.2795, 0.5951 0.4573 0.2795, 0.5826 0.4303 0.2795, 0.6053 0.4495 0.2795, 0.5944 0.4134 0.2795, 0.6172 0.4446 0.2795, 0.6031 0.3947 0.2795, 0.6299 0.4429 0.2795, 0.5807 0.4921 0.2795, 0.5126 0.4706 0.2795, 0.5824 0.4794 0.2795, 0.5325 0.4653 0.2795, 0.5512 0.4566 0.2795, -0.5873 0.4675 0.2795, -0.5512 0.4566 0.2795, -0.5824 0.4794 0.2795, -0.5325 0.4653 0.2795, -0.5807 0.4921 0.2795, -0.6299 0.4429 0.2795, -0.6299 0.1716 0.2795, -0.6172 0.4446 0.2795, -0.6184 0.1701 0.2795, -0.6102 0.3543 0.2795, -0.6102 0.167 0.2795, 0.6299 0.1716 0.2795, 0.6084 0.3748 0.2795, -0.6084 0.3748 0.2795, -0.6031 0.3947 0.2795, -0.6053 0.4495 0.2795, -0.5944 0.4134 0.2795, -0.5951 0.4573 0.2795, -0.5826 0.4303 0.2795, -0.568 0.4448 0.2795, -0.5126 0.4706 0.2795, -0.4921 0.4724 0.2795, 0.4921 0.4724 0.2795, 0.6193 -0.1703 0.2795, 0.6102 -0.167 0.2795, 0.6102 -0.3543 0.2795, -0.6102 -0.3543 0.2795, -0.6102 -0.167 0.2795, -0.6184 -0.1701 0.2795, -0.6053 -0.4495 0.2795, -0.5944 -0.4134 0.2795, -0.6172 -0.4446 0.2795, -0.6031 -0.3947 0.2795, -0.6299 -0.4429 0.2795, -0.5824 -0.4794 0.2795, 0.4921 -0.4724 0.2795, -0.4921 -0.4724 0.2795, -0.6299 -0.1716 0.2795, -0.6084 -0.3748 0.2795, -0.5126 -0.4706 0.2795, -0.5325 -0.4653 0.2795, -0.5873 -0.4675 0.2795, -0.5512 -0.4566 0.2795, -0.5951 -0.4573 0.2795, -0.568 -0.4448 0.2795, -0.5826 -0.4303 0.2795, -0.5807 -0.4921 0.2795, 0.5807 -0.4921 0.2795, 0.5126 -0.4706 0.2795, 0.5819 -0.4812 0.2795, 0.6299 -0.1716 0.2795, 0.6299 -0.4429 0.2795, 0.6084 -0.3748 0.2795, 0.619 -0.4441 0.2795, 0.6031 -0.3947 0.2795, 0.6086 -0.4478 0.2795, 0.5944 -0.4134 0.2795, 0.5992 -0.4536 0.2795, 0.5826 -0.4303 0.2795, 0.5914 -0.4614 0.2795, 0.568 -0.4448 0.2795, 0.5856 -0.4708 0.2795, 0.5512 -0.4566 0.2795, 0.5325 -0.4653 0.2795, -0.5906 -0.2264 0.0039, -0.5906 -0.374 0.0039, -0.6299 -0.374 0.0039, 0.2362 -0.4528 0.0039, 0.5118 -0.4528 0.0039, 0.5118 -0.4921 0.0039, 0.5933 -0.1018 0.0039, 0.5883 -0.1113 0.0039, 0.0515 -0.0364 0.0039, 0.0416 -0.0364 0.0039, 0.0447 -0.0368 0.0039, -0.0401 -0.4921 0.0039, 0.0469 -0.0369 0.0039, 0.6299 -0.374 0.0039, 0.5906 -0.374 0.0039, 0.6299 -0.1716 0.0039, 0.5906 -0.2264 0.0039, 0.6193 -0.1703 0.0039, 0.584 -0.2256 0.0039, 0.6092 -0.1665 0.0039, 0.5777 -0.2235 0.0039, 0.5721 -0.2199 0.0039, 0.5675 -0.2153 0.0039, 0.5857 -0.1217 0.0039, 0.2362 -0.1969 0.0039, 0.561 -0.1969 0.0039, 0.6004 -0.1604 0.0039, 0.5618 -0.2034 0.0039, 0.5639 -0.2097 0.0039, 0.6299 -0.0826 0.0039, 0.6193 -0.0839 0.0039, 0.6299 -0.0364 0.0039, 0.6092 -0.0877 0.0039, 0.6004 -0.0938 0.0039, 0.5857 -0.1324 0.0039, 0.5883 -0.1429 0.0039, 0.5933 -0.1524 0.0039, -0.0305 0.0428 0.0039, -0.0305 0.0342 0.0039, -0.0324 -0.0273 0.0039, -0.0401 0.4921 0.0039, 0.5118 0.4921 0.0039, 0.2362 0.4528 0.0039, 0.5118 0.4528 0.0039, 0.0252 -0.0318 0.0039, 0.0098 -0.0359 0.0039, 0.0252 -0.0232 0.0039, 0.0098 0.0428 0.0039, -0.0401 -0.0364 0.0039, 0.0336 -0.0353 0.0039, -0.0324 -0.0359 0.0039, 0.2362 0.1969 0.0039, 0.075 0.0295 0.0039, 0.0679 0.0363 0.0039, -0.0007 -0.0004 0.0039, -0.0007 -0.0273 0.0039, -0.0286 -0.0004 0.0039, -0.0286 0.0083 0.0039, -0.0007 0.0083 0.0039, -0.0007 0.0342 0.0039, 0.0514 0.0343 0.0039, 0.0573 0.0322 0.0039, 0.0266 -0.024 0.0039, 0.0627 0.0285 0.0039, 0.0675 0.0233 0.0039, 0.0732 0.0026 0.0039, 0.0724 -0.0059 0.0039, 0.0703 -0.0127 0.0039, 0.0528 -0.0274 0.0039, 0.0454 -0.0282 0.0039, 0.0585 -0.0253 0.0039, 0.0633 -0.022 0.0039, 0.067 -0.0181 0.0039, 0.035 -0.0271 0.0039, 0.0707 0.0172 0.0039, 0.0728 0.0088 0.0039, 0.0796 0.0221 0.0039, 0.1203 0.0428 0.0039, 0.1308 0.0428 0.0039, 0.561 0.1969 0.0039, 0.1308 -0.0359 0.0039, 0.0604 0.0406 0.0039, 0.0516 0.0432 0.0039, 0.0437 0.0438 0.0039, 0.0343 0.0432 0.0039, 0.0252 0.0407 0.0039, 0.0252 0.0301 0.0039, 0.0341 0.0339 0.0039, 0.0436 0.0352 0.0039, 0.5906 0.374 0.0039, 0.6299 0.374 0.0039, 0.5906 0.2264 0.0039, 0.6299 0.1716 0.0039, 0.6193 0.1703 0.0039, 0.0642 -0.0332 0.0039, 0.0705 -0.0292 0.0039, 0.0905 -0.0359 0.0039, 0.0765 -0.0229 0.0039, 0.0905 -0.0273 0.0039, 0.0806 -0.0155 0.0039, 0.1203 -0.0273 0.0039, 0.6004 0.1604 0.0039, 0.5933 0.1524 0.0039, 0.565 0.2116 0.0039, 0.5697 0.2177 0.0039, 0.083 -0.0071 0.0039, 0.0838 0.002 0.0039, 0.0826 0.0132 0.0039, 0.6092 0.1665 0.0039, 0.562 0.2045 0.0039, 0.5758 0.2224 0.0039, 0.5829 0.2254 0.0039, 0.5883 0.1429 0.0039, 0.5857 0.1324 0.0039, 0.5857 0.1217 0.0039, 0.5883 0.1113 0.0039, 0.5933 0.1018 0.0039, 0.6004 0.0938 0.0039, 0.6092 0.0877 0.0039, 0.6193 0.0839 0.0039, 0.6299 0.0826 0.0039, 0.0566 -0.0358 0.0039, -0.1284 -0.0359 0.0039, -0.1169 -0.0359 0.0039, -0.1764 -0.0359 0.0039, -0.1685 -0.0138 0.0039, -0.136 -0.0138 0.0039, -0.1072 -0.0143 0.0039, -0.1027 -0.0214 0.0039, -0.0962 -0.0276 0.0039, -0.088 -0.0323 0.0039, -0.0478 0.0428 0.0039, -0.07 0.0428 0.0039, -0.0814 0.0416 0.0039, -0.5118 0.4528 0.0039, -0.5118 0.4921 0.0039, -0.2362 0.4528 0.0039, -0.2362 0.1969 0.0039, -0.0789 -0.035 0.0039, -0.0692 -0.0359 0.0039, -0.0478 -0.0359 0.0039, -0.6299 0.374 0.0039, -0.5906 0.374 0.0039, -0.6299 0.1716 0.0039, -0.5906 0.2264 0.0039, -0.6184 0.1701 0.0039, -0.5829 0.2254 0.0039, -0.6077 0.1656 0.0039, -0.5758 0.2224 0.0039, -0.5697 0.2177 0.0039, -0.0906 0.0384 0.0039, -0.1467 0.0428 0.0039, -0.0992 0.0327 0.0039, -0.6299 -0.0364 0.0039, -0.6299 0.0826 0.0039, -0.6184 0.0841 0.0039, -0.0992 0.0326 0.0039, -0.1048 0.0264 0.0039, -0.1085 0.0196 0.0039, -0.1106 0.0119 0.0039, -0.1111 0.0045 0.0039, -0.11 -0.0061 0.0039, -0.1572 0.0428 0.0039, -0.5854 0.1271 0.0039, -0.565 0.2116 0.0039, -0.562 0.2045 0.0039, -0.5985 0.1585 0.0039, -0.561 0.1969 0.0039, -0.5914 0.1493 0.0039, -0.5869 0.1386 0.0039, -0.6077 0.0885 0.0039, -0.188 -0.0359 0.0039, -0.5985 0.0956 0.0039, -0.5914 0.1048 0.0039, -0.5869 0.1156 0.0039, -0.5118 -0.4921 0.0039, -0.2362 -0.4528 0.0039, -0.5118 -0.4528 0.0039, -0.6184 -0.0841 0.0039, -0.6299 -0.0826 0.0039, -0.2362 -0.2756 0.0039, -0.315 -0.1969 0.0039, -0.6077 -0.1656 0.0039, -0.562 -0.2045 0.0039, -0.565 -0.2116 0.0039, -0.561 -0.1969 0.0039, -0.5985 -0.1585 0.0039, -0.6299 -0.1716 0.0039, -0.6184 -0.1701 0.0039, -0.5829 -0.2254 0.0039, -0.5697 -0.2177 0.0039, -0.5758 -0.2224 0.0039, -0.5914 -0.1493 0.0039, -0.5869 -0.1386 0.0039, -0.5854 -0.1271 0.0039, -0.5869 -0.1156 0.0039, -0.5914 -0.1048 0.0039, -0.5985 -0.0956 0.0039, -0.6077 -0.0885 0.0039, -0.5807 -0.4921 0.1417, -0.5824 -0.4794 0.1417, -0.5873 -0.4675 0.1417, -0.5951 -0.4573 0.1417, -0.6053 -0.4495 0.1417, -0.6172 -0.4446 0.1417, -0.6299 -0.4429 0.1417, 0.5807 0.4921 0.1417, 0.5824 0.4794 0.1417, 0.5873 0.4675 0.1417, 0.5951 0.4573 0.1417, 0.6053 0.4495 0.1417, 0.6172 0.4446 0.1417, 0.6299 0.4429 0.1417, 0.6299 -0.4429 0.1417, 0.6299 -0.4469 0.1417, 0.6299 -0.374 0.0, 0.6299 -0.4469 0.0, -0.5118 0.4921 0.0, -0.5846 0.4921 0.0, 0.5846 0.4921 0.1417, 0.5846 0.4921 0.0, 0.5118 0.4921 0.0, -0.5807 0.4921 0.1417, -0.5846 0.4921 0.1417, -0.6299 0.4429 0.1417, -0.6299 0.4469 0.1417, -0.6299 0.374 0.0, -0.6299 0.4469 0.0, 0.5118 -0.4921 0.0, 0.5846 -0.4921 0.0, 0.5846 -0.4921 0.1417, 0.5807 -0.4921 0.1417, -0.5846 -0.4921 0.0, -0.5118 -0.4921 0.0, -0.5846 -0.4921 0.1417
            ]
        }
        coordIndex [
            0,1,2,-1,3,4,5,-1,5,4,6,-1,5,6,7,-1,7,6,8,-1,7,8,9,-1,9,8,10,-1,9,10,11,-1,12,13,14,-1,14,13,15,-1,14,15,3,-1,3,15,16,-1,3,16,4,-1,17,18,19,-1,19,18,20,-1,19,20,21,-1,22,23,24,-1,24,23,25,-1,24,25,26,-1,26,25,27,-1,2,28,0,-1,0,28,11,-1,0,11,29,-1,29,11,10,-1,26,30,24,-1,24,30,31,-1,24,31,32,-1,32,31,33,-1,32,33,34,-1,34,33,35,-1,34,35,17,-1,17,35,36,-1,17,36,18,-1,20,37,21,-1,21,37,38,-1,21,38,12,-1,12,38,39,-1,12,39,13,-1,40,41,42,-1,43,44,45,-1,46,47,48,-1,48,47,49,-1,48,49,50,-1,51,52,53,-1,45,54,43,-1,43,54,50,-1,43,50,55,-1,55,50,49,-1,53,56,51,-1,51,56,57,-1,51,57,58,-1,58,57,59,-1,58,59,60,-1,60,59,61,-1,60,61,46,-1,46,61,62,-1,46,62,47,-1,51,63,52,-1,52,63,64,-1,52,64,65,-1,65,64,66,-1,40,42,67,-1,67,42,68,-1,68,42,69,-1,68,69,70,-1,70,69,71,-1,70,71,72,-1,72,71,73,-1,72,73,74,-1,74,73,75,-1,74,75,76,-1,76,75,77,-1,76,77,78,-1,78,77,79,-1,78,79,66,-1,66,79,80,-1,66,80,65,-1,81,82,83,-1,84,85,86,-1,87,88,89,-1,90,91,92,-1,92,91,93,-1,94,95,96,-1,96,95,97,-1,96,97,98,-1,98,97,99,-1,98,99,100,-1,99,101,100,-1,100,101,102,-1,100,102,103,-1,88,104,89,-1,89,104,105,-1,89,105,93,-1,93,105,84,-1,93,84,92,-1,92,84,86,-1,106,107,108,-1,108,107,100,-1,108,100,109,-1,109,100,103,-1,110,111,112,-1,112,111,113,-1,112,113,89,-1,89,113,114,-1,89,114,87,-1,104,115,105,-1,105,115,116,-1,105,116,106,-1,106,116,117,-1,106,117,107,-1,118,119,120,-1,121,122,123,-1,123,122,124,-1,125,126,127,-1,127,126,128,-1,92,129,90,-1,90,129,126,-1,90,126,130,-1,130,126,125,-1,128,118,121,-1,121,118,120,-1,121,120,129,-1,129,120,131,-1,129,131,126,-1,132,133,134,-1,135,136,137,-1,137,136,120,-1,137,120,138,-1,138,120,119,-1,138,119,139,-1,139,119,140,-1,132,134,123,-1,141,142,143,-1,143,142,144,-1,143,144,145,-1,146,147,143,-1,143,147,148,-1,149,150,151,-1,151,150,152,-1,148,153,143,-1,143,153,152,-1,143,152,154,-1,154,152,150,-1,145,155,143,-1,143,155,156,-1,143,156,146,-1,157,133,158,-1,158,133,132,-1,158,132,159,-1,159,132,160,-1,159,160,161,-1,134,162,123,-1,123,162,163,-1,123,163,121,-1,121,163,164,-1,164,165,121,-1,121,165,166,-1,121,166,128,-1,128,166,167,-1,128,167,127,-1,127,167,168,-1,127,168,143,-1,143,168,169,-1,143,169,141,-1,170,171,172,-1,172,171,173,-1,172,173,174,-1,175,176,177,-1,177,176,178,-1,177,178,179,-1,179,178,180,-1,179,180,181,-1,182,183,161,-1,184,185,174,-1,180,186,181,-1,181,186,187,-1,181,187,158,-1,158,187,188,-1,158,188,157,-1,182,161,189,-1,189,161,160,-1,189,160,174,-1,174,160,190,-1,174,190,184,-1,185,191,174,-1,174,191,192,-1,174,192,172,-1,183,193,161,-1,161,193,194,-1,161,194,195,-1,195,196,161,-1,161,196,197,-1,161,197,198,-1,198,199,161,-1,161,199,200,-1,161,200,201,-1,201,112,161,-1,161,112,89,-1,161,89,177,-1,177,89,202,-1,177,202,175,-1,203,204,129,-1,205,206,207,-1,208,209,204,-1,204,209,210,-1,204,210,211,-1,129,212,121,-1,121,212,213,-1,121,213,214,-1,215,216,217,-1,217,216,121,-1,217,121,218,-1,218,121,214,-1,211,219,204,-1,204,219,220,-1,204,220,129,-1,129,220,221,-1,129,221,212,-1,222,223,224,-1,224,223,225,-1,224,225,226,-1,226,225,227,-1,226,227,228,-1,228,227,229,-1,228,229,230,-1,214,231,232,-1,232,231,233,-1,234,235,236,-1,233,237,232,-1,232,237,238,-1,232,238,239,-1,239,240,232,-1,232,240,241,-1,232,241,204,-1,204,241,242,-1,204,242,208,-1,214,232,218,-1,218,232,243,-1,218,243,244,-1,230,245,228,-1,228,245,246,-1,228,246,247,-1,247,246,248,-1,247,248,249,-1,249,248,218,-1,249,218,250,-1,250,218,244,-1,236,251,234,-1,234,251,252,-1,234,252,129,-1,129,252,205,-1,129,205,203,-1,203,205,207,-1,251,253,252,-1,252,253,254,-1,252,254,243,-1,243,254,255,-1,243,255,244,-1,92,256,257,-1,257,256,258,-1,259,260,234,-1,92,257,129,-1,129,257,261,-1,129,261,262,-1,263,264,265,-1,264,263,266,-1,266,263,267,-1,266,267,262,-1,83,268,81,-1,81,268,269,-1,81,269,270,-1,270,269,263,-1,265,271,263,-1,263,271,272,-1,263,272,270,-1,267,273,262,-1,262,273,274,-1,262,274,129,-1,129,274,275,-1,129,275,276,-1,276,277,129,-1,129,277,278,-1,129,278,234,-1,234,278,279,-1,234,279,259,-1,280,63,281,-1,281,63,51,-1,281,51,282,-1,282,51,58,-1,282,58,283,-1,283,58,60,-1,283,60,284,-1,284,60,46,-1,284,46,285,-1,285,46,48,-1,285,48,286,-1,286,48,50,-1,287,12,288,-1,288,12,14,-1,288,14,289,-1,289,14,3,-1,289,3,290,-1,290,3,5,-1,290,5,291,-1,291,5,7,-1,291,7,292,-1,292,7,9,-1,292,9,293,-1,293,9,11,-1,67,68,96,-1,96,68,294,-1,96,294,94,-1,94,294,295,-1,94,295,296,-1,296,295,297,-1,216,298,299,-1,287,122,121,-1,287,300,122,-1,122,300,301,-1,122,301,302,-1,12,287,21,-1,21,287,121,-1,21,121,303,-1,303,121,216,-1,303,216,304,-1,304,216,299,-1,23,22,224,-1,224,22,305,-1,224,305,222,-1,222,305,306,-1,222,306,307,-1,307,306,308,-1,309,310,86,-1,86,310,311,-1,312,64,63,-1,313,314,315,-1,315,314,256,-1,315,256,280,-1,280,256,63,-1,311,312,86,-1,86,312,63,-1,86,63,92,-1,92,63,256,-1,
        ]
    }
}
Shape{
    appearance Appearance {
        material  Material 	{
            diffuseColor 1.0 1.0 0.0
            specularColor 0.5019607843137255 0.5019607843137255 0.0
            ambientIntensity 0.886
            transparency 0.0
            shininess 0.5
        }
    }
    geometry IndexedFaceSet {
        ccw TRUE
        solid FALSE
        coord DEF co Coordinate {
            point [
                -0.6299 0.0826 0.2795, -0.6299 -0.0826 0.2795, -0.6184 0.0841 0.2795, -0.6184 -0.0841 0.2795, -0.6102 0.0872 0.2795, -0.6102 -0.0872 0.2795, -0.4921 0.4331 0.3189, -0.5058 0.4319 0.3189, -0.4921 0.4331 0.3386, -0.5125 0.4304 0.3386, -0.5124 0.4301 0.3189, -0.5191 0.4283 0.3189, -0.5315 0.4225 0.3386, -0.5315 0.4225 0.3189, -0.5427 0.4146 0.3189, -0.5478 0.41 0.3386, -0.5476 0.4098 0.3189, -0.5524 0.4049 0.3189, -0.5603 0.3937 0.3386, -0.5603 0.3937 0.3189, -0.5661 0.3813 0.3189, -0.5682 0.3747 0.3386, -0.5709 0.3543 0.3189, -0.5709 0.3543 0.3386, -0.5697 0.368 0.3189, -0.5679 0.3746 0.3189, -0.5709 -0.3543 0.3189, -0.5709 -0.3543 0.3386, -0.5697 -0.368 0.3189, -0.5682 -0.3747 0.3386, -0.5679 -0.3746 0.3189, -0.5661 -0.3813 0.3189, -0.5603 -0.3937 0.3386, -0.5603 -0.3937 0.3189, -0.5524 -0.4049 0.3189, -0.5478 -0.41 0.3386, -0.5476 -0.4098 0.3189, -0.5427 -0.4146 0.3189, -0.5315 -0.4225 0.3386, -0.5315 -0.4225 0.3189, -0.5191 -0.4283 0.3189, -0.5125 -0.4304 0.3386, -0.4921 -0.4331 0.3189, -0.4921 -0.4331 0.3386, -0.5058 -0.4319 0.3189, -0.5124 -0.4301 0.3189, 0.4921 -0.4331 0.3189, 0.4921 -0.4331 0.3386, 0.5058 -0.4319 0.3189, 0.5125 -0.4304 0.3386, 0.5124 -0.4301 0.3189, 0.5191 -0.4283 0.3189, 0.5315 -0.4225 0.3386, 0.5315 -0.4225 0.3189, 0.5427 -0.4146 0.3189, 0.5478 -0.41 0.3386, 0.5476 -0.4098 0.3189, 0.5524 -0.4049 0.3189, 0.5603 -0.3937 0.3386, 0.5603 -0.3937 0.3189, 0.5661 -0.3813 0.3189, 0.5682 -0.3747 0.3386, 0.5709 -0.3543 0.3189, 0.5709 -0.3543 0.3386, 0.5697 -0.368 0.3189, 0.5679 -0.3746 0.3189, 0.5709 0.3543 0.3189, 0.5709 0.3543 0.3386, 0.5697 0.368 0.3189, 0.5682 0.3747 0.3386, 0.5679 0.3746 0.3189, 0.5661 0.3813 0.3189, 0.5603 0.3937 0.3386, 0.5603 0.3937 0.3189, 0.5524 0.4049 0.3189, 0.5478 0.41 0.3386, 0.5476 0.4098 0.3189, 0.5427 0.4146 0.3189, 0.5315 0.4225 0.3386, 0.5315 0.4225 0.3189, 0.5191 0.4283 0.3189, 0.5125 0.4304 0.3386, 0.4921 0.4331 0.3189, 0.4921 0.4331 0.3386, 0.5058 0.4319 0.3189, 0.5124 0.4301 0.3189, -0.5512 -0.3543 0.3386, -0.5492 -0.3696 0.3386, -0.5433 -0.3839 0.3386, -0.5339 -0.3961 0.3386, -0.5217 -0.4055 0.3386, -0.5074 -0.4114 0.3386, -0.4921 -0.4134 0.3386, 0.4921 -0.4134 0.3386, 0.5074 -0.4114 0.3386, 0.5217 -0.4055 0.3386, 0.5339 -0.3961 0.3386, 0.5433 -0.3839 0.3386, 0.5492 -0.3696 0.3386, 0.5512 -0.3543 0.3386, 0.5512 0.3543 0.3386, 0.5492 0.3696 0.3386, 0.5433 0.3839 0.3386, 0.5339 0.3961 0.3386, 0.5217 0.4055 0.3386, 0.5074 0.4114 0.3386, 0.4921 0.4134 0.3386, -0.4921 0.4134 0.3386, -0.5074 0.4114 0.3386, -0.5217 0.4055 0.3386, -0.5339 0.3961 0.3386, -0.5433 0.3839 0.3386, -0.5492 0.3696 0.3386, -0.5512 0.3543 0.3386
            ]
        }
        coordIndex [
            0,1,2,-1,2,1,3,-1,2,3,4,-1,4,3,5,-1,6,7,8,-1,8,7,9,-1,7,10,9,-1,9,10,11,-1,9,11,12,-1,11,13,12,-1,12,13,14,-1,12,14,15,-1,14,16,15,-1,15,16,17,-1,15,17,18,-1,17,19,18,-1,18,19,20,-1,18,20,21,-1,22,23,24,-1,24,23,21,-1,24,21,25,-1,25,21,20,-1,26,27,22,-1,22,27,23,-1,26,28,27,-1,27,28,29,-1,28,30,29,-1,29,30,31,-1,29,31,32,-1,31,33,32,-1,32,33,34,-1,32,34,35,-1,34,36,35,-1,35,36,37,-1,35,37,38,-1,37,39,38,-1,38,39,40,-1,38,40,41,-1,42,43,44,-1,44,43,41,-1,44,41,45,-1,45,41,40,-1,46,47,42,-1,42,47,43,-1,46,48,47,-1,47,48,49,-1,48,50,49,-1,49,50,51,-1,49,51,52,-1,51,53,52,-1,52,53,54,-1,52,54,55,-1,54,56,55,-1,55,56,57,-1,55,57,58,-1,57,59,58,-1,58,59,60,-1,58,60,61,-1,62,63,64,-1,64,63,61,-1,64,61,65,-1,65,61,60,-1,66,67,62,-1,62,67,63,-1,66,68,67,-1,67,68,69,-1,68,70,69,-1,69,70,71,-1,69,71,72,-1,71,73,72,-1,72,73,74,-1,72,74,75,-1,74,76,75,-1,75,76,77,-1,75,77,78,-1,77,79,78,-1,78,79,80,-1,78,80,81,-1,82,83,84,-1,84,83,81,-1,84,81,85,-1,85,81,80,-1,6,8,82,-1,82,8,83,-1,86,27,87,-1,87,27,29,-1,87,29,88,-1,88,29,32,-1,88,32,89,-1,89,32,35,-1,89,35,90,-1,90,35,38,-1,90,38,91,-1,91,38,41,-1,91,41,92,-1,92,41,43,-1,92,43,93,-1,93,43,47,-1,93,47,94,-1,94,47,49,-1,94,49,95,-1,95,49,52,-1,95,52,96,-1,96,52,55,-1,96,55,97,-1,97,55,58,-1,97,58,98,-1,98,58,61,-1,98,61,99,-1,99,61,63,-1,99,63,100,-1,100,63,67,-1,100,67,101,-1,101,67,69,-1,101,69,102,-1,102,69,72,-1,102,72,103,-1,103,72,75,-1,103,75,104,-1,104,75,78,-1,104,78,105,-1,105,78,81,-1,105,81,106,-1,106,81,83,-1,106,83,107,-1,107,83,8,-1,107,8,108,-1,108,8,9,-1,108,9,109,-1,109,9,12,-1,109,12,110,-1,110,12,15,-1,110,15,111,-1,111,15,18,-1,111,18,112,-1,112,18,21,-1,112,21,113,-1,113,21,23,-1,113,23,86,-1,86,23,27,-1,
        ]
    }
}
Shape{
    appearance Appearance {
        material  Material 	{
            diffuseColor 0.7529411764705882 0.7529411764705882 0.7529411764705882
            specularColor 0.3764705882352941 0.3764705882352941 0.3764705882352941
            ambientIntensity 0.7529
            transparency 0.0
            shininess 0.5
        }
    }
    geometry IndexedFaceSet {
        ccw TRUE
        solid FALSE
        coord DEF co Coordinate {
            point [
                0.4921 -0.4134 0.3583, 0.4921 -0.4134 0.3386, 0.5074 -0.4114 0.3386, 0.5074 -0.4114 0.3583, 0.5217 -0.4055 0.3386, 0.5217 -0.4055 0.3583, 0.5339 -0.3961 0.3386, 0.5339 -0.3961 0.3583, 0.5433 -0.3839 0.3386, 0.5433 -0.3839 0.3583, 0.5492 -0.3696 0.3386, 0.5492 -0.3696 0.3583, 0.5512 -0.3543 0.3386, 0.5512 -0.3543 0.3583, 0.5512 0.3543 0.3583, 0.5512 0.3543 0.3386, 0.5492 0.3696 0.3386, 0.5492 0.3696 0.3583, 0.5433 0.3839 0.3386, 0.5433 0.3839 0.3583, 0.5339 0.3961 0.3386, 0.5339 0.3961 0.3583, 0.5217 0.4055 0.3386, 0.5217 0.4055 0.3583, 0.5074 0.4114 0.3386, 0.5074 0.4114 0.3583, 0.4921 0.4134 0.3386, 0.4921 0.4134 0.3583, -0.4921 0.4134 0.3583, -0.4921 0.4134 0.3386, -0.5074 0.4114 0.3386, -0.5074 0.4114 0.3583, -0.5217 0.4055 0.3386, -0.5217 0.4055 0.3583, -0.5339 0.3961 0.3386, -0.5339 0.3961 0.3583, -0.5433 0.3839 0.3386, -0.5433 0.3839 0.3583, -0.5492 0.3696 0.3386, -0.5492 0.3696 0.3583, -0.5512 0.3543 0.3386, -0.5512 0.3543 0.3583, -0.5512 -0.3543 0.3583, -0.5512 -0.3543 0.3386, -0.5492 -0.3696 0.3386, -0.5492 -0.3696 0.3583, -0.5433 -0.3839 0.3386, -0.5433 -0.3839 0.3583, -0.5339 -0.3961 0.3386, -0.5339 -0.3961 0.3583, -0.5217 -0.4055 0.3386, -0.5217 -0.4055 0.3583, -0.5074 -0.4114 0.3386, -0.5074 -0.4114 0.3583, -0.4921 -0.4134 0.3386, -0.4921 -0.4134 0.3583, 0.5315 -0.3543 0.378, -0.4079 -0.3342 0.378, -0.4098 -0.3489 0.378, -0.4245 -0.3743 0.378, -0.4362 -0.3833 0.378, 0.4921 -0.3937 0.378, 0.5023 -0.3924 0.378, 0.5262 -0.374 0.378, 0.5302 -0.3645 0.378, 0.52 -0.3822 0.378, 0.5118 -0.3884 0.378, -0.4155 -0.3625 0.378, -0.5136 -0.3059 0.378, -0.5315 0.3543 0.378, -0.5193 -0.3195 0.378, -0.5315 -0.3543 0.378, -0.4646 -0.2776 0.378, -0.4499 -0.2795 0.378, -0.4921 0.3937 0.378, 0.4921 0.3937 0.378, 0.5315 0.3543 0.378, -0.4155 -0.3059 0.378, -0.4098 -0.3195 0.378, -0.4499 -0.3889 0.378, -0.4646 -0.3909 0.378, -0.4921 -0.3937 0.378, -0.4792 -0.3889 0.378, -0.5023 -0.3924 0.378, -0.4929 -0.3833 0.378, -0.5118 -0.3884 0.378, -0.5046 -0.3743 0.378, -0.52 -0.3822 0.378, -0.5262 -0.374 0.378, -0.5136 -0.3625 0.378, -0.5302 -0.3645 0.378, -0.5193 -0.3489 0.378, -0.5212 -0.3342 0.378, -0.5046 -0.2942 0.378, -0.4929 -0.2851 0.378, -0.4792 -0.2795 0.378, -0.5023 0.3924 0.378, -0.5118 0.3884 0.378, -0.52 0.3822 0.378, -0.5262 0.374 0.378, 0.5302 0.3645 0.378, 0.5262 0.374 0.378, 0.52 0.3822 0.378, -0.4362 -0.2851 0.378, -0.4245 -0.2942 0.378, 0.5023 0.3924 0.378, 0.5118 0.3884 0.378, -0.5302 0.3645 0.378
            ]
        }
        coordIndex [
            0,1,2,-1,0,2,3,-1,3,2,4,-1,3,4,5,-1,5,4,6,-1,5,6,7,-1,7,6,8,-1,7,8,9,-1,9,8,10,-1,9,10,11,-1,11,10,12,-1,11,12,13,-1,13,12,14,-1,14,12,15,-1,14,15,16,-1,14,16,17,-1,17,16,18,-1,17,18,19,-1,19,18,20,-1,19,20,21,-1,21,20,22,-1,21,22,23,-1,23,22,24,-1,23,24,25,-1,25,24,26,-1,25,26,27,-1,27,26,28,-1,28,26,29,-1,28,29,30,-1,28,30,31,-1,31,30,32,-1,31,32,33,-1,33,32,34,-1,33,34,35,-1,35,34,36,-1,35,36,37,-1,37,36,38,-1,37,38,39,-1,39,38,40,-1,39,40,41,-1,41,40,42,-1,42,40,43,-1,42,43,44,-1,42,44,45,-1,45,44,46,-1,45,46,47,-1,47,46,48,-1,47,48,49,-1,49,48,50,-1,49,50,51,-1,51,50,52,-1,51,52,53,-1,53,52,54,-1,53,54,55,-1,55,54,0,-1,0,54,1,-1,56,57,58,-1,59,60,61,-1,56,61,62,-1,63,64,65,-1,65,64,56,-1,65,56,66,-1,66,56,62,-1,56,58,61,-1,61,58,67,-1,61,67,59,-1,68,69,70,-1,70,69,71,-1,72,73,74,-1,74,73,75,-1,76,77,56,-1,56,77,78,-1,56,78,57,-1,60,79,61,-1,61,79,80,-1,61,80,81,-1,81,80,82,-1,81,82,83,-1,83,82,84,-1,83,84,85,-1,85,84,86,-1,85,86,87,-1,87,86,88,-1,88,86,89,-1,88,89,90,-1,90,89,91,-1,90,91,71,-1,71,91,92,-1,71,92,70,-1,68,93,69,-1,69,93,94,-1,69,94,95,-1,96,97,74,-1,74,97,98,-1,74,98,99,-1,76,100,77,-1,77,100,101,-1,77,101,102,-1,73,103,75,-1,75,103,104,-1,75,104,105,-1,105,104,77,-1,105,77,106,-1,106,77,102,-1,95,72,69,-1,69,72,74,-1,69,74,107,-1,107,74,99,-1,
        ]
    }
}
Shape{
    appearance Appearance {
        material  Material 	{
            diffuseColor 0.25098039215686274 0.25098039215686274 0.25098039215686274
            specularColor 0.12549019607843137 0.12549019607843137 0.12549019607843137
            ambientIntensity 0.251
            transparency 0.0
            shininess 0.5
        }
    }
    geometry IndexedFaceSet {
        ccw TRUE
        solid FALSE
        coord DEF co Coordinate {
            point [
                -0.6299 0.4429 0.1417, -0.6299 0.4429 0.2795, -0.6172 0.4446 0.1417, -0.6172 0.4446 0.2795, -0.6053 0.4495 0.1417, -0.6053 0.4495 0.2795, -0.5951 0.4573 0.1417, -0.5951 0.4573 0.2795, -0.5873 0.4675 0.1417, -0.5873 0.4675 0.2795, -0.5824 0.4794 0.1417, -0.5824 0.4794 0.2795, -0.5807 0.4921 0.1417, -0.5807 0.4921 0.2795, 0.6299 -0.4429 0.1417, 0.6299 -0.4429 0.2795, 0.619 -0.4441 0.1417, 0.619 -0.4441 0.2795, 0.6086 -0.4478 0.1417, 0.6086 -0.4478 0.2795, 0.5992 -0.4536 0.1417, 0.5992 -0.4536 0.2795, 0.5914 -0.4614 0.1417, 0.5914 -0.4614 0.2795, 0.5856 -0.4708 0.1417, 0.5856 -0.4708 0.2795, 0.5819 -0.4812 0.1417, 0.5819 -0.4812 0.2795, 0.5807 -0.4921 0.1417, 0.5807 -0.4921 0.2795
            ]
        }
        coordIndex [
            0,1,2,-1,2,1,3,-1,2,3,4,-1,4,3,5,-1,4,5,6,-1,6,5,7,-1,6,7,8,-1,8,7,9,-1,8,9,10,-1,10,9,11,-1,10,11,12,-1,12,11,13,-1,14,15,16,-1,16,15,17,-1,16,17,18,-1,18,17,19,-1,18,19,20,-1,20,19,21,-1,20,21,22,-1,22,21,23,-1,22,23,24,-1,24,23,25,-1,24,25,26,-1,26,25,27,-1,26,27,28,-1,28,27,29,-1,
        ]
    }
}
Shape{
    appearance Appearance {
        material  Material 	{
            diffuseColor 0.0 0.0 0.0
            specularColor 0.0 0.0 0.0
            ambientIntensity 0.0
            transparency 0.0
            shininess 0.5
        }
    }
    geometry IndexedFaceSet {
        ccw TRUE
        solid FALSE
        coord DEF co Coordinate {
            point [
                -0.4189 -0.3606 0.3776, -0.4136 -0.3479 0.3776, -0.4646 -0.3342 0.3776, -0.4118 -0.3342 0.3776, -0.4136 -0.3206 0.3776, -0.4509 -0.3852 0.3776, -0.4382 -0.3799 0.3776, -0.4273 -0.3715 0.3776, -0.4909 -0.3799 0.3776, -0.4782 -0.3852 0.3776, -0.4646 -0.3869 0.3776, -0.5155 -0.3479 0.3776, -0.5102 -0.3606 0.3776, -0.5018 -0.3715 0.3776, -0.5102 -0.3078 0.3776, -0.5155 -0.3206 0.3776, -0.5173 -0.3342 0.3776, -0.4782 -0.2833 0.3776, -0.4909 -0.2885 0.3776, -0.5018 -0.2969 0.3776, -0.4382 -0.2885 0.3776, -0.4509 -0.2833 0.3776, -0.4646 -0.2815 0.3776, -0.4189 -0.3078 0.3776, -0.4273 -0.2969 0.3776
            ]
        }
        coordIndex [
            0,1,2,-1,2,1,3,-1,2,3,4,-1,5,6,2,-1,2,6,7,-1,2,7,0,-1,8,9,2,-1,2,9,10,-1,2,10,5,-1,11,12,2,-1,2,12,13,-1,2,13,8,-1,14,15,2,-1,2,15,16,-1,2,16,11,-1,17,18,2,-1,2,18,19,-1,2,19,14,-1,20,21,2,-1,2,21,22,-1,2,22,17,-1,4,23,2,-1,2,23,24,-1,2,24,20,-1,
        ]
    }
}
Shape{
    appearance Appearance {
        material  Material 	{
            diffuseColor 1.0 1.0 0.0
            specularColor 0.5019607843137255 0.5019607843137255 0.0
            ambientIntensity 0.886
            transparency 0.0
            shininess 0.5
        }
    }
    geometry IndexedFaceSet {
        ccw TRUE
        solid FALSE
        coord DEF co Coordinate {
            point [
                0.5118 0.4921 0.0, 0.5118 0.4528 0.0, 0.5118 0.4921 0.0039, 0.5118 0.4528 0.0039, 0.2362 0.4528 0.0, 0.2362 0.4528 0.0039, 0.2362 0.1969 0.0, 0.2362 0.1969 0.0039, 0.561 0.1969 0.0039, 0.561 0.1969 0.0, 0.5906 0.374 0.0, 0.5906 0.374 0.0039, 0.5906 0.2264 0.0, 0.5906 0.2264 0.0039, 0.6299 0.374 0.0, 0.6299 0.374 0.0039, 0.6299 0.4429 0.1417, 0.6299 0.4469 0.1417, 0.6172 0.4446 0.1417, 0.6198 0.448 0.1417, 0.6053 0.4495 0.1417, 0.6103 0.4513 0.1417, 0.5951 0.4573 0.1417, 0.5846 0.4921 0.1417, 0.5807 0.4921 0.1417, 0.5858 0.4821 0.1417, 0.5824 0.4794 0.1417, 0.5891 0.4725 0.1417, 0.5873 0.4675 0.1417, 0.5945 0.4639 0.1417, 0.6017 0.4567 0.1417, 0.6299 0.4469 0.0, 0.6198 0.448 0.0, 0.6103 0.4513 0.0, 0.6017 0.4567 0.0, 0.5945 0.4639 0.0, 0.5891 0.4725 0.0, 0.5858 0.4821 0.0, 0.5846 0.4921 0.0, 0.565 0.2116 0.0, 0.562 0.2045 0.0, 0.5829 0.2254 0.0, 0.5758 0.2224 0.0, 0.5697 0.2177 0.0, -0.6299 0.374 0.0, -0.5906 0.374 0.0, -0.6299 0.374 0.0039, -0.5906 0.374 0.0039, -0.5906 0.2264 0.0039, -0.5906 0.2264 0.0, -0.2362 0.1969 0.0, -0.2362 0.1969 0.0039, -0.561 0.1969 0.0, -0.561 0.1969 0.0039, -0.2362 0.4528 0.0, -0.2362 0.4528 0.0039, -0.5118 0.4528 0.0, -0.5118 0.4528 0.0039, -0.5118 0.4921 0.0, -0.5118 0.4921 0.0039, -0.5807 0.4921 0.1417, -0.5846 0.4921 0.1417, -0.5824 0.4794 0.1417, -0.5858 0.4821 0.1417, -0.5873 0.4675 0.1417, -0.5891 0.4725 0.1417, -0.5951 0.4573 0.1417, -0.6299 0.4469 0.1417, -0.6299 0.4429 0.1417, -0.6198 0.448 0.1417, -0.6172 0.4446 0.1417, -0.6103 0.4513 0.1417, -0.6053 0.4495 0.1417, -0.6017 0.4567 0.1417, -0.5945 0.4639 0.1417, -0.5846 0.4921 0.0, -0.5858 0.4821 0.0, -0.5891 0.4725 0.0, -0.5945 0.4639 0.0, -0.6017 0.4567 0.0, -0.6103 0.4513 0.0, -0.6198 0.448 0.0, -0.6299 0.4469 0.0, -0.562 0.2045 0.0, -0.5829 0.2254 0.0, -0.565 0.2116 0.0, -0.5697 0.2177 0.0, -0.5758 0.2224 0.0, 0.6299 -0.374 0.0, 0.5906 -0.374 0.0, 0.6299 -0.374 0.0039, 0.5906 -0.374 0.0039, 0.5906 -0.2264 0.0039, 0.5906 -0.2264 0.0, 0.2362 -0.1969 0.0, 0.2362 -0.1969 0.0039, 0.561 -0.1969 0.0, 0.561 -0.1969 0.0039, 0.2362 -0.4528 0.0, 0.2362 -0.4528 0.0039, 0.5118 -0.4528 0.0, 0.5118 -0.4528 0.0039, 0.5118 -0.4921 0.0, 0.5118 -0.4921 0.0039, 0.6299 -0.4469 0.1417, 0.6299 -0.4429 0.1417, 0.6198 -0.448 0.1417, 0.619 -0.4441 0.1417, 0.6103 -0.4513 0.1417, 0.6086 -0.4478 0.1417, 0.6017 -0.4567 0.1417, 0.5992 -0.4536 0.1417, 0.5945 -0.4639 0.1417, 0.5914 -0.4614 0.1417, 0.5891 -0.4725 0.1417, 0.5856 -0.4708 0.1417, 0.5858 -0.4821 0.1417, 0.5819 -0.4812 0.1417, 0.5846 -0.4921 0.1417, 0.5807 -0.4921 0.1417, 0.5846 -0.4921 0.0, 0.5858 -0.4821 0.0, 0.5891 -0.4725 0.0, 0.5945 -0.4639 0.0, 0.6017 -0.4567 0.0, 0.6103 -0.4513 0.0, 0.6198 -0.448 0.0, 0.6299 -0.4469 0.0, 0.5639 -0.2097 0.0, 0.5618 -0.2034 0.0, 0.584 -0.2256 0.0, 0.5675 -0.2153 0.0, 0.5721 -0.2199 0.0, 0.5777 -0.2235 0.0, -0.5118 -0.4921 0.0, -0.5118 -0.4528 0.0, -0.5118 -0.4921 0.0039, -0.5118 -0.4528 0.0039, -0.2362 -0.4528 0.0, -0.2362 -0.4528 0.0039, -0.2362 -0.2756 0.0039, -0.2362 -0.2756 0.0, -0.315 -0.1969 0.0039, -0.315 -0.1969 0.0, -0.561 -0.1969 0.0039, -0.561 -0.1969 0.0, -0.5906 -0.374 0.0, -0.5906 -0.374 0.0039, -0.5906 -0.2264 0.0, -0.5906 -0.2264 0.0039, -0.6299 -0.374 0.0, -0.6299 -0.374 0.0039, -0.6299 -0.4429 0.1417, -0.6299 -0.4469 0.1417, -0.6172 -0.4446 0.1417, -0.6198 -0.448 0.1417, -0.6053 -0.4495 0.1417, -0.6103 -0.4513 0.1417, -0.5951 -0.4573 0.1417, -0.5846 -0.4921 0.1417, -0.5807 -0.4921 0.1417, -0.5858 -0.4821 0.1417, -0.5824 -0.4794 0.1417, -0.5891 -0.4725 0.1417, -0.5873 -0.4675 0.1417, -0.5945 -0.4639 0.1417, -0.6017 -0.4567 0.1417, -0.6299 -0.4469 0.0, -0.6198 -0.448 0.0, -0.6103 -0.4513 0.0, -0.6017 -0.4567 0.0, -0.5945 -0.4639 0.0, -0.5891 -0.4725 0.0, -0.5858 -0.4821 0.0, -0.5846 -0.4921 0.0, -0.5829 -0.2254 0.0, -0.5758 -0.2224 0.0, -0.562 -0.2045 0.0, -0.565 -0.2116 0.0, -0.5697 -0.2177 0.0, 0.571 -0.3682 0.3087, 0.5722 -0.3543 0.3087, 0.5709 -0.3543 0.3189, 0.5697 -0.368 0.3189, 0.5679 -0.3746 0.3189, 0.5674 -0.3817 0.3087, 0.5661 -0.3813 0.3189, 0.5615 -0.3944 0.3087, 0.5603 -0.3937 0.3189, 0.5535 -0.4058 0.3087, 0.5524 -0.4049 0.3189, 0.5476 -0.4098 0.3189, 0.5436 -0.4157 0.3087, 0.5427 -0.4146 0.3189, 0.5322 -0.4237 0.3087, 0.5315 -0.4225 0.3189, 0.5195 -0.4296 0.3087, 0.5191 -0.4283 0.3189, 0.506 -0.4332 0.3087, 0.4921 -0.4331 0.3189, 0.4921 -0.4344 0.3087, 0.5058 -0.4319 0.3189, 0.5124 -0.4301 0.3189, 0.4921 -0.4383 0.2992, 0.5067 -0.4371 0.2992, 0.5209 -0.4333 0.2992, 0.5341 -0.4271 0.2992, 0.5461 -0.4187 0.2992, 0.5565 -0.4083 0.2992, 0.5649 -0.3963 0.2992, 0.5711 -0.3831 0.2992, 0.5749 -0.3689 0.2992, 0.5761 -0.3543 0.2992, 0.4921 -0.4446 0.2911, 0.5078 -0.4432 0.2911, 0.523 -0.4392 0.2911, 0.5373 -0.4325 0.2911, 0.5502 -0.4235 0.2911, 0.5613 -0.4124 0.2911, 0.5703 -0.3995 0.2911, 0.577 -0.3852 0.2911, 0.581 -0.37 0.2911, 0.5824 -0.3543 0.2911, 0.4921 -0.4528 0.2848, 0.5092 -0.4513 0.2848, 0.5258 -0.4468 0.2848, 0.5413 -0.4396 0.2848, 0.5554 -0.4297 0.2848, 0.5675 -0.4176 0.2848, 0.5774 -0.4035 0.2848, 0.5846 -0.388 0.2848, 0.5891 -0.3714 0.2848, 0.5906 -0.3543 0.2848, 0.4921 -0.4623 0.2809, 0.5109 -0.4606 0.2809, 0.529 -0.4557 0.2809, 0.5461 -0.4478 0.2809, 0.5615 -0.437 0.2809, 0.5748 -0.4237 0.2809, 0.5856 -0.4083 0.2809, 0.5935 -0.3912 0.2809, 0.5984 -0.3731 0.2809, 0.6 -0.3543 0.2809, 0.4921 -0.4724 0.2795, 0.5126 -0.4706 0.2795, 0.5325 -0.4653 0.2795, 0.5512 -0.4566 0.2795, 0.568 -0.4448 0.2795, 0.5826 -0.4303 0.2795, 0.5944 -0.4134 0.2795, 0.6031 -0.3947 0.2795, 0.6084 -0.3748 0.2795, 0.6102 -0.3543 0.2795, 0.6102 0.167 0.2795, 0.6102 0.3543 0.2795, 0.6093 0.1664 0.2796, 0.6046 0.1637 0.2799, 0.5906 0.3543 0.2848, 0.5933 0.1524 0.2834, 0.6 0.3543 0.2809, 0.6001 0.16 0.2809, 0.6004 0.1604 0.2808, 0.5857 -0.1217 0.2881, 0.5867 -0.1164 0.2873, 0.5824 0.3543 0.2911, 0.5906 -0.1472 0.2849, 0.5883 -0.1429 0.2862, 0.5867 -0.1378 0.2873, 0.5857 -0.1324 0.2881, 0.5854 -0.1271 0.2883, 0.5857 0.1324 0.2881, 0.5854 0.1271 0.2883, 0.5857 0.1217 0.2881, 0.5867 0.1377 0.2873, 0.5886 0.1427 0.2861, 0.5906 0.1478 0.2848, 0.6004 -0.0938 0.2808, 0.6102 0.0872 0.2795, 0.6001 -0.0942 0.2809, 0.6092 0.0877 0.2795, 0.6046 0.0905 0.2799, 0.6004 0.0938 0.2808, 0.6 0.0941 0.2809, 0.5933 -0.1018 0.2834, 0.5933 0.1018 0.2834, 0.5906 -0.1063 0.2848, 0.5906 0.1069 0.2849, 0.5886 -0.1114 0.2861, 0.5883 0.1113 0.2862, 0.5867 0.1164 0.2873, 0.6046 -0.0905 0.2799, 0.6093 -0.0877 0.2796, 0.6102 -0.0872 0.2795, 0.6102 -0.167 0.2795, 0.6092 -0.1665 0.2795, 0.6046 -0.1637 0.2799, 0.6004 -0.1604 0.2808, 0.6 -0.1601 0.2809, 0.5933 -0.1524 0.2834, 0.5761 0.3543 0.2992, 0.5722 0.3543 0.3087, 0.5709 0.3543 0.3189, -0.4921 -0.4724 0.2795, -0.4921 -0.4623 0.2809, -0.4921 -0.4528 0.2848, -0.4921 -0.4446 0.2911, -0.4921 -0.4383 0.2992, -0.4921 -0.4344 0.3087, -0.4921 -0.4331 0.3189, 0.506 0.4332 0.3087, 0.4921 0.4344 0.3087, 0.4921 0.4331 0.3189, 0.5058 0.4319 0.3189, 0.5124 0.4301 0.3189, 0.5195 0.4296 0.3087, 0.5191 0.4283 0.3189, 0.5322 0.4237 0.3087, 0.5315 0.4225 0.3189, 0.5436 0.4157 0.3087, 0.5427 0.4146 0.3189, 0.5476 0.4098 0.3189, 0.5535 0.4058 0.3087, 0.5524 0.4049 0.3189, 0.5615 0.3944 0.3087, 0.5603 0.3937 0.3189, 0.5674 0.3817 0.3087, 0.5661 0.3813 0.3189, 0.571 0.3682 0.3087, 0.5697 0.368 0.3189, 0.5679 0.3746 0.3189, 0.5749 0.3689 0.2992, 0.5711 0.3831 0.2992, 0.5649 0.3963 0.2992, 0.5565 0.4083 0.2992, 0.5461 0.4187 0.2992, 0.5341 0.4271 0.2992, 0.5209 0.4333 0.2992, 0.5067 0.4371 0.2992, 0.4921 0.4383 0.2992, 0.581 0.37 0.2911, 0.577 0.3852 0.2911, 0.5703 0.3995 0.2911, 0.5613 0.4124 0.2911, 0.5502 0.4235 0.2911, 0.5373 0.4325 0.2911, 0.523 0.4392 0.2911, 0.5078 0.4432 0.2911, 0.4921 0.4446 0.2911, 0.5891 0.3714 0.2848, 0.5846 0.388 0.2848, 0.5774 0.4035 0.2848, 0.5675 0.4176 0.2848, 0.5554 0.4297 0.2848, 0.5413 0.4396 0.2848, 0.5258 0.4468 0.2848, 0.5092 0.4513 0.2848, 0.4921 0.4528 0.2848, 0.5984 0.3731 0.2809, 0.5935 0.3912 0.2809, 0.5856 0.4083 0.2809, 0.5748 0.4237 0.2809, 0.5615 0.437 0.2809, 0.5461 0.4478 0.2809, 0.529 0.4557 0.2809, 0.5109 0.4606 0.2809, 0.4921 0.4623 0.2809, 0.6084 0.3748 0.2795, 0.6031 0.3947 0.2795, 0.5944 0.4134 0.2795, 0.5826 0.4303 0.2795, 0.568 0.4448 0.2795, 0.5512 0.4566 0.2795, 0.5325 0.4653 0.2795, 0.5126 0.4706 0.2795, 0.4921 0.4724 0.2795, -0.506 -0.4332 0.3087, -0.5058 -0.4319 0.3189, -0.5124 -0.4301 0.3189, -0.5195 -0.4296 0.3087, -0.5191 -0.4283 0.3189, -0.5322 -0.4237 0.3087, -0.5315 -0.4225 0.3189, -0.5436 -0.4157 0.3087, -0.5427 -0.4146 0.3189, -0.5476 -0.4098 0.3189, -0.5535 -0.4058 0.3087, -0.5524 -0.4049 0.3189, -0.5615 -0.3944 0.3087, -0.5603 -0.3937 0.3189, -0.5674 -0.3817 0.3087, -0.5709 -0.3543 0.3189, -0.5722 -0.3543 0.3087, -0.5697 -0.368 0.3189, -0.571 -0.3682 0.3087, -0.5679 -0.3746 0.3189, -0.5661 -0.3813 0.3189, -0.5761 -0.3543 0.2992, -0.5749 -0.3689 0.2992, -0.5711 -0.3831 0.2992, -0.5649 -0.3963 0.2992, -0.5565 -0.4083 0.2992, -0.5461 -0.4187 0.2992, -0.5341 -0.4271 0.2992, -0.5209 -0.4333 0.2992, -0.5067 -0.4371 0.2992, -0.5824 -0.3543 0.2911, -0.581 -0.37 0.2911, -0.577 -0.3852 0.2911, -0.5703 -0.3995 0.2911, -0.5613 -0.4124 0.2911, -0.5502 -0.4235 0.2911, -0.5373 -0.4325 0.2911, -0.523 -0.4392 0.2911, -0.5078 -0.4432 0.2911, -0.5906 -0.3543 0.2848, -0.5891 -0.3714 0.2848, -0.5846 -0.388 0.2848, -0.5774 -0.4035 0.2848, -0.5675 -0.4176 0.2848, -0.5554 -0.4297 0.2848, -0.5413 -0.4396 0.2848, -0.5258 -0.4468 0.2848, -0.5092 -0.4513 0.2848, -0.6 -0.3543 0.2809, -0.5984 -0.3731 0.2809, -0.5935 -0.3912 0.2809, -0.5856 -0.4083 0.2809, -0.5748 -0.4237 0.2809, -0.5615 -0.437 0.2809, -0.5461 -0.4478 0.2809, -0.529 -0.4557 0.2809, -0.5109 -0.4606 0.2809, -0.6102 -0.3543 0.2795, -0.6084 -0.3748 0.2795, -0.6031 -0.3947 0.2795, -0.5944 -0.4134 0.2795, -0.5826 -0.4303 0.2795, -0.568 -0.4448 0.2795, -0.5512 -0.4566 0.2795, -0.5325 -0.4653 0.2795, -0.5126 -0.4706 0.2795, -0.4921 0.4724 0.2795, -0.4921 0.4623 0.2809, -0.4921 0.4528 0.2848, -0.4921 0.4446 0.2911, -0.4921 0.4383 0.2992, -0.4921 0.4344 0.3087, -0.4921 0.4331 0.3189, -0.5914 0.1493 0.2843, -0.5906 0.1478 0.2848, -0.5906 0.3543 0.2848, -0.6102 -0.167 0.2795, -0.6077 -0.1656 0.2796, -0.6 -0.1601 0.2809, -0.5985 -0.1585 0.2813, -0.5824 0.3543 0.2911, -0.5869 0.1386 0.2872, -0.5858 0.1329 0.288, -0.5854 0.1271 0.2883, -0.5869 -0.1156 0.2872, -0.5858 -0.1213 0.288, -0.5854 -0.1271 0.2883, -0.5858 -0.1329 0.288, -0.5869 -0.1386 0.2872, -0.5906 -0.1478 0.2848, -0.5914 -0.1493 0.2843, -0.5858 0.1212 0.288, -0.5869 0.1156 0.2872, -0.5906 -0.1063 0.2848, -0.5906 0.1063 0.2848, -0.5914 -0.1048 0.2843, -0.5914 0.1048 0.2843, -0.6 -0.0941 0.2809, -0.5985 -0.0956 0.2813, -0.6102 0.0872 0.2795, -0.6102 -0.0872 0.2795, -0.6077 0.0885 0.2796, -0.6077 -0.0885 0.2796, -0.6 0.0941 0.2809, -0.5985 0.0956 0.2813, -0.6 0.3543 0.2809, -0.6102 0.3543 0.2795, -0.6102 0.167 0.2795, -0.6077 0.1656 0.2796, -0.6 0.1601 0.2809, -0.5985 0.1585 0.2813, -0.5761 0.3543 0.2992, -0.5722 0.3543 0.3087, -0.5709 0.3543 0.3189, -0.571 0.3682 0.3087, -0.5697 0.368 0.3189, -0.5679 0.3746 0.3189, -0.5674 0.3817 0.3087, -0.5661 0.3813 0.3189, -0.5615 0.3944 0.3087, -0.5603 0.3937 0.3189, -0.5535 0.4058 0.3087, -0.5524 0.4049 0.3189, -0.5476 0.4098 0.3189, -0.5436 0.4157 0.3087, -0.5427 0.4146 0.3189, -0.5322 0.4237 0.3087, -0.5315 0.4225 0.3189, -0.5195 0.4296 0.3087, -0.5058 0.4319 0.3189, -0.506 0.4332 0.3087, -0.5124 0.4301 0.3189, -0.5191 0.4283 0.3189, -0.5067 0.4371 0.2992, -0.5209 0.4333 0.2992, -0.5341 0.4271 0.2992, -0.5461 0.4187 0.2992, -0.5565 0.4083 0.2992, -0.5649 0.3963 0.2992, -0.5711 0.3831 0.2992, -0.5749 0.3689 0.2992, -0.5078 0.4432 0.2911, -0.523 0.4392 0.2911, -0.5373 0.4325 0.2911, -0.5502 0.4235 0.2911, -0.5613 0.4124 0.2911, -0.5703 0.3995 0.2911, -0.577 0.3852 0.2911, -0.581 0.37 0.2911, -0.5092 0.4513 0.2848, -0.5258 0.4468 0.2848, -0.5413 0.4396 0.2848, -0.5554 0.4297 0.2848, -0.5675 0.4176 0.2848, -0.5774 0.4035 0.2848, -0.5846 0.388 0.2848, -0.5891 0.3714 0.2848, -0.5109 0.4606 0.2809, -0.529 0.4557 0.2809, -0.5461 0.4478 0.2809, -0.5615 0.437 0.2809, -0.5748 0.4237 0.2809, -0.5856 0.4083 0.2809, -0.5935 0.3912 0.2809, -0.5984 0.3731 0.2809, -0.5126 0.4706 0.2795, -0.5325 0.4653 0.2795, -0.5512 0.4566 0.2795, -0.568 0.4448 0.2795, -0.5826 0.4303 0.2795, -0.5944 0.4134 0.2795, -0.6031 0.3947 0.2795, -0.6084 0.3748 0.2795
            ]
        }
        coordIndex [
            0,1,2,-1,2,1,3,-1,1,4,3,-1,3,4,5,-1,4,6,5,-1,5,6,7,-1,7,6,8,-1,8,6,9,-1,10,11,12,-1,12,11,13,-1,10,14,11,-1,11,14,15,-1,16,17,18,-1,18,17,19,-1,18,19,20,-1,20,19,21,-1,20,21,22,-1,23,24,25,-1,25,24,26,-1,25,26,27,-1,27,26,28,-1,27,28,29,-1,29,28,22,-1,29,22,30,-1,30,22,21,-1,17,31,19,-1,19,31,32,-1,19,32,21,-1,21,32,33,-1,21,33,30,-1,30,33,34,-1,30,34,29,-1,29,34,35,-1,29,35,27,-1,27,35,36,-1,27,36,25,-1,25,36,37,-1,25,37,23,-1,23,37,38,-1,1,10,12,-1,4,39,6,-1,6,39,40,-1,6,40,9,-1,0,38,1,-1,1,38,37,-1,31,14,32,-1,32,14,10,-1,32,10,33,-1,12,41,1,-1,1,41,42,-1,1,42,4,-1,4,42,43,-1,4,43,39,-1,37,36,1,-1,1,36,35,-1,1,35,10,-1,10,35,34,-1,10,34,33,-1,44,45,46,-1,46,45,47,-1,47,45,48,-1,48,45,49,-1,50,51,52,-1,52,51,53,-1,50,54,51,-1,51,54,55,-1,54,56,55,-1,55,56,57,-1,56,58,57,-1,57,58,59,-1,60,61,62,-1,62,61,63,-1,62,63,64,-1,64,63,65,-1,64,65,66,-1,67,68,69,-1,69,68,70,-1,69,70,71,-1,71,70,72,-1,71,72,73,-1,73,72,66,-1,73,66,74,-1,74,66,65,-1,61,75,63,-1,63,75,76,-1,63,76,65,-1,65,76,77,-1,65,77,74,-1,74,77,78,-1,74,78,73,-1,73,78,79,-1,73,79,71,-1,71,79,80,-1,71,80,69,-1,69,80,81,-1,69,81,67,-1,67,81,82,-1,44,82,45,-1,45,82,81,-1,50,52,83,-1,49,45,84,-1,84,45,56,-1,50,83,54,-1,75,58,76,-1,76,58,56,-1,76,56,77,-1,83,85,54,-1,54,85,86,-1,54,86,56,-1,56,86,87,-1,56,87,84,-1,81,80,45,-1,45,80,79,-1,45,79,56,-1,56,79,78,-1,56,78,77,-1,88,89,90,-1,90,89,91,-1,91,89,92,-1,92,89,93,-1,94,95,96,-1,96,95,97,-1,94,98,95,-1,95,98,99,-1,98,100,99,-1,99,100,101,-1,100,102,101,-1,101,102,103,-1,104,105,106,-1,106,105,107,-1,106,107,108,-1,108,107,109,-1,108,109,110,-1,110,109,111,-1,110,111,112,-1,112,111,113,-1,112,113,114,-1,114,113,115,-1,114,115,116,-1,116,115,117,-1,116,117,118,-1,118,117,119,-1,118,120,116,-1,116,120,121,-1,116,121,114,-1,114,121,122,-1,114,122,112,-1,112,122,123,-1,112,123,110,-1,110,123,124,-1,110,124,108,-1,108,124,125,-1,108,125,106,-1,106,125,126,-1,106,126,104,-1,104,126,127,-1,88,127,89,-1,89,127,126,-1,128,98,129,-1,129,98,94,-1,129,94,96,-1,93,89,130,-1,130,89,100,-1,120,102,121,-1,121,102,100,-1,121,100,122,-1,128,131,98,-1,98,131,132,-1,98,132,100,-1,100,132,133,-1,100,133,130,-1,126,125,89,-1,89,125,124,-1,89,124,100,-1,100,124,123,-1,100,123,122,-1,134,135,136,-1,136,135,137,-1,135,138,137,-1,137,138,139,-1,140,139,141,-1,141,139,138,-1,142,143,144,-1,144,143,145,-1,146,147,148,-1,148,147,149,-1,146,150,147,-1,147,150,151,-1,152,153,154,-1,154,153,155,-1,154,155,156,-1,156,155,157,-1,156,157,158,-1,159,160,161,-1,161,160,162,-1,161,162,163,-1,163,162,164,-1,163,164,165,-1,165,164,158,-1,165,158,166,-1,166,158,157,-1,153,167,155,-1,155,167,168,-1,155,168,157,-1,157,168,169,-1,157,169,166,-1,166,169,170,-1,166,170,165,-1,165,170,171,-1,165,171,163,-1,163,171,172,-1,163,172,161,-1,161,172,173,-1,161,173,159,-1,159,173,174,-1,135,146,148,-1,167,150,168,-1,168,150,146,-1,168,146,169,-1,148,175,135,-1,135,175,176,-1,135,176,138,-1,134,174,135,-1,135,174,173,-1,145,143,177,-1,177,143,141,-1,177,141,178,-1,178,141,138,-1,178,138,179,-1,179,138,176,-1,173,172,135,-1,135,172,171,-1,135,171,146,-1,146,171,170,-1,146,170,169,-1,141,143,140,-1,140,143,142,-1,180,181,182,-1,182,183,180,-1,180,183,184,-1,180,184,185,-1,185,184,186,-1,185,186,187,-1,187,186,188,-1,187,188,189,-1,188,190,189,-1,189,190,191,-1,189,191,192,-1,192,191,193,-1,192,193,194,-1,194,193,195,-1,194,195,196,-1,196,195,197,-1,196,197,198,-1,199,200,201,-1,201,200,198,-1,201,198,202,-1,202,198,197,-1,200,203,198,-1,198,203,204,-1,198,204,196,-1,196,204,205,-1,196,205,194,-1,194,205,206,-1,194,206,192,-1,192,206,207,-1,192,207,189,-1,189,207,208,-1,189,208,187,-1,187,208,209,-1,187,209,185,-1,185,209,210,-1,185,210,180,-1,180,210,211,-1,180,211,181,-1,181,211,212,-1,203,213,204,-1,204,213,214,-1,204,214,205,-1,205,214,215,-1,205,215,206,-1,206,215,216,-1,206,216,207,-1,207,216,217,-1,207,217,208,-1,208,217,218,-1,208,218,209,-1,209,218,219,-1,209,219,210,-1,210,219,220,-1,210,220,211,-1,211,220,221,-1,211,221,212,-1,212,221,222,-1,213,223,214,-1,214,223,224,-1,214,224,215,-1,215,224,225,-1,215,225,216,-1,216,225,226,-1,216,226,217,-1,217,226,227,-1,217,227,218,-1,218,227,228,-1,218,228,219,-1,219,228,229,-1,219,229,220,-1,220,229,230,-1,220,230,221,-1,221,230,231,-1,221,231,222,-1,222,231,232,-1,223,233,224,-1,224,233,234,-1,224,234,225,-1,225,234,235,-1,225,235,226,-1,226,235,236,-1,226,236,227,-1,227,236,237,-1,227,237,228,-1,228,237,238,-1,228,238,229,-1,229,238,239,-1,229,239,230,-1,230,239,240,-1,230,240,231,-1,231,240,241,-1,231,241,232,-1,232,241,242,-1,233,243,234,-1,234,243,244,-1,234,244,235,-1,235,244,245,-1,235,245,236,-1,236,245,246,-1,236,246,237,-1,237,246,247,-1,237,247,238,-1,238,247,248,-1,238,248,239,-1,239,248,249,-1,239,249,240,-1,240,249,250,-1,240,250,241,-1,241,250,251,-1,241,251,242,-1,242,251,252,-1,253,254,255,-1,255,254,256,-1,257,258,259,-1,259,258,260,-1,259,260,254,-1,254,260,261,-1,254,261,256,-1,262,263,264,-1,222,232,265,-1,265,266,222,-1,222,266,267,-1,222,267,268,-1,262,264,269,-1,270,264,271,-1,271,264,263,-1,271,263,272,-1,270,273,264,-1,264,273,274,-1,264,274,257,-1,257,274,275,-1,257,275,258,-1,276,277,278,-1,278,277,279,-1,278,279,280,-1,280,281,278,-1,278,281,282,-1,278,282,283,-1,283,282,284,-1,283,284,285,-1,285,284,286,-1,285,286,287,-1,287,286,288,-1,287,288,263,-1,263,288,289,-1,263,289,272,-1,276,290,277,-1,277,290,291,-1,277,291,292,-1,252,293,242,-1,242,293,294,-1,242,294,295,-1,295,296,242,-1,242,296,297,-1,242,297,232,-1,232,297,298,-1,232,298,265,-1,268,269,222,-1,222,269,264,-1,222,264,212,-1,212,264,299,-1,212,299,181,-1,181,299,300,-1,181,300,182,-1,182,300,301,-1,302,243,303,-1,303,243,233,-1,303,233,304,-1,304,233,223,-1,304,223,305,-1,305,223,213,-1,305,213,306,-1,306,213,203,-1,306,203,307,-1,307,203,200,-1,307,200,308,-1,308,200,199,-1,309,310,311,-1,311,312,309,-1,309,312,313,-1,309,313,314,-1,314,313,315,-1,314,315,316,-1,316,315,317,-1,316,317,318,-1,317,319,318,-1,318,319,320,-1,318,320,321,-1,321,320,322,-1,321,322,323,-1,323,322,324,-1,323,324,325,-1,325,324,326,-1,325,326,327,-1,301,300,328,-1,328,300,327,-1,328,327,329,-1,329,327,326,-1,300,299,327,-1,327,299,330,-1,327,330,325,-1,325,330,331,-1,325,331,323,-1,323,331,332,-1,323,332,321,-1,321,332,333,-1,321,333,318,-1,318,333,334,-1,318,334,316,-1,316,334,335,-1,316,335,314,-1,314,335,336,-1,314,336,309,-1,309,336,337,-1,309,337,310,-1,310,337,338,-1,299,264,330,-1,330,264,339,-1,330,339,331,-1,331,339,340,-1,331,340,332,-1,332,340,341,-1,332,341,333,-1,333,341,342,-1,333,342,334,-1,334,342,343,-1,334,343,335,-1,335,343,344,-1,335,344,336,-1,336,344,345,-1,336,345,337,-1,337,345,346,-1,337,346,338,-1,338,346,347,-1,264,257,339,-1,339,257,348,-1,339,348,340,-1,340,348,349,-1,340,349,341,-1,341,349,350,-1,341,350,342,-1,342,350,351,-1,342,351,343,-1,343,351,352,-1,343,352,344,-1,344,352,353,-1,344,353,345,-1,345,353,354,-1,345,354,346,-1,346,354,355,-1,346,355,347,-1,347,355,356,-1,257,259,348,-1,348,259,357,-1,348,357,349,-1,349,357,358,-1,349,358,350,-1,350,358,359,-1,350,359,351,-1,351,359,360,-1,351,360,352,-1,352,360,361,-1,352,361,353,-1,353,361,362,-1,353,362,354,-1,354,362,363,-1,354,363,355,-1,355,363,364,-1,355,364,356,-1,356,364,365,-1,259,254,357,-1,357,254,366,-1,357,366,358,-1,358,366,367,-1,358,367,359,-1,359,367,368,-1,359,368,360,-1,360,368,369,-1,360,369,361,-1,361,369,370,-1,361,370,362,-1,362,370,371,-1,362,371,363,-1,363,371,372,-1,363,372,364,-1,364,372,373,-1,364,373,365,-1,365,373,374,-1,375,307,308,-1,308,376,375,-1,375,376,377,-1,375,377,378,-1,378,377,379,-1,378,379,380,-1,380,379,381,-1,380,381,382,-1,381,383,382,-1,382,383,384,-1,382,384,385,-1,385,384,386,-1,385,386,387,-1,387,386,388,-1,387,388,389,-1,390,391,392,-1,392,391,393,-1,392,393,394,-1,394,393,389,-1,394,389,395,-1,395,389,388,-1,391,396,393,-1,393,396,397,-1,393,397,389,-1,389,397,398,-1,389,398,387,-1,387,398,399,-1,387,399,385,-1,385,399,400,-1,385,400,382,-1,382,400,401,-1,382,401,380,-1,380,401,402,-1,380,402,378,-1,378,402,403,-1,378,403,375,-1,375,403,404,-1,375,404,307,-1,307,404,306,-1,396,405,397,-1,397,405,406,-1,397,406,398,-1,398,406,407,-1,398,407,399,-1,399,407,408,-1,399,408,400,-1,400,408,409,-1,400,409,401,-1,401,409,410,-1,401,410,402,-1,402,410,411,-1,402,411,403,-1,403,411,412,-1,403,412,404,-1,404,412,413,-1,404,413,306,-1,306,413,305,-1,405,414,406,-1,406,414,415,-1,406,415,407,-1,407,415,416,-1,407,416,408,-1,408,416,417,-1,408,417,409,-1,409,417,418,-1,409,418,410,-1,410,418,419,-1,410,419,411,-1,411,419,420,-1,411,420,412,-1,412,420,421,-1,412,421,413,-1,413,421,422,-1,413,422,305,-1,305,422,304,-1,414,423,415,-1,415,423,424,-1,415,424,416,-1,416,424,425,-1,416,425,417,-1,417,425,426,-1,417,426,418,-1,418,426,427,-1,418,427,419,-1,419,427,428,-1,419,428,420,-1,420,428,429,-1,420,429,421,-1,421,429,430,-1,421,430,422,-1,422,430,431,-1,422,431,304,-1,304,431,303,-1,423,432,424,-1,424,432,433,-1,424,433,425,-1,425,433,434,-1,425,434,426,-1,426,434,435,-1,426,435,427,-1,427,435,436,-1,427,436,428,-1,428,436,437,-1,428,437,429,-1,429,437,438,-1,429,438,430,-1,430,438,439,-1,430,439,431,-1,431,439,440,-1,431,440,303,-1,303,440,302,-1,374,441,365,-1,365,441,442,-1,365,442,356,-1,356,442,443,-1,356,443,347,-1,347,443,444,-1,347,444,338,-1,338,444,445,-1,338,445,310,-1,310,445,446,-1,310,446,311,-1,311,446,447,-1,448,449,450,-1,451,432,452,-1,452,432,423,-1,452,423,453,-1,453,423,454,-1,450,449,455,-1,455,449,456,-1,455,456,457,-1,457,458,455,-1,455,458,459,-1,455,459,460,-1,461,462,405,-1,405,462,463,-1,405,463,414,-1,414,463,464,-1,414,464,423,-1,423,464,465,-1,423,465,454,-1,458,466,459,-1,459,466,467,-1,459,467,468,-1,468,467,469,-1,468,469,470,-1,471,472,469,-1,469,472,473,-1,469,473,470,-1,474,475,476,-1,476,475,477,-1,476,477,478,-1,478,477,472,-1,478,472,479,-1,479,472,471,-1,480,481,482,-1,482,483,480,-1,480,483,484,-1,480,484,450,-1,450,484,485,-1,450,485,448,-1,460,461,455,-1,455,461,405,-1,455,405,486,-1,486,405,396,-1,486,396,487,-1,487,396,391,-1,487,391,488,-1,488,391,390,-1,489,487,488,-1,488,490,489,-1,489,490,491,-1,489,491,492,-1,492,491,493,-1,492,493,494,-1,494,493,495,-1,494,495,496,-1,495,497,496,-1,496,497,498,-1,496,498,499,-1,499,498,500,-1,499,500,501,-1,501,500,502,-1,501,502,503,-1,447,446,504,-1,504,446,505,-1,504,505,506,-1,506,505,503,-1,506,503,507,-1,507,503,502,-1,446,445,505,-1,505,445,508,-1,505,508,503,-1,503,508,509,-1,503,509,501,-1,501,509,510,-1,501,510,499,-1,499,510,511,-1,499,511,496,-1,496,511,512,-1,496,512,494,-1,494,512,513,-1,494,513,492,-1,492,513,514,-1,492,514,489,-1,489,514,515,-1,489,515,487,-1,487,515,486,-1,445,444,508,-1,508,444,516,-1,508,516,509,-1,509,516,517,-1,509,517,510,-1,510,517,518,-1,510,518,511,-1,511,518,519,-1,511,519,512,-1,512,519,520,-1,512,520,513,-1,513,520,521,-1,513,521,514,-1,514,521,522,-1,514,522,515,-1,515,522,523,-1,515,523,486,-1,486,523,455,-1,444,443,516,-1,516,443,524,-1,516,524,517,-1,517,524,525,-1,517,525,518,-1,518,525,526,-1,518,526,519,-1,519,526,527,-1,519,527,520,-1,520,527,528,-1,520,528,521,-1,521,528,529,-1,521,529,522,-1,522,529,530,-1,522,530,523,-1,523,530,531,-1,523,531,455,-1,455,531,450,-1,443,442,524,-1,524,442,532,-1,524,532,525,-1,525,532,533,-1,525,533,526,-1,526,533,534,-1,526,534,527,-1,527,534,535,-1,527,535,528,-1,528,535,536,-1,528,536,529,-1,529,536,537,-1,529,537,530,-1,530,537,538,-1,530,538,531,-1,531,538,539,-1,531,539,450,-1,450,539,480,-1,442,441,532,-1,532,441,540,-1,532,540,533,-1,533,540,541,-1,533,541,534,-1,534,541,542,-1,534,542,535,-1,535,542,543,-1,535,543,536,-1,536,543,544,-1,536,544,537,-1,537,544,545,-1,537,545,538,-1,538,545,546,-1,538,546,539,-1,539,546,547,-1,539,547,480,-1,480,547,481,-1,
        ]
    }
}
Shape{
    appearance Appearance {
        material  Material 	{
            diffuseColor 1.0 1.0 1.0
            specularColor 0.5019607843137255 0.5019607843137255 0.5019607843137255
            ambientIntensity 1.0
            transparency 0.0
            shininess 0.5
        }
    }
    geometry IndexedFaceSet {
        ccw TRUE
        solid FALSE
        coord DEF co Coordinate {
            point [
                -0.1572 0.0428 0.0043, -0.188 -0.0359 0.0043, -0.1572 0.0428 0.0039, -0.188 -0.0359 0.0039, -0.1764 -0.0359 0.0043, -0.1764 -0.0359 0.0039, -0.1685 -0.0138 0.0043, -0.1685 -0.0138 0.0039, -0.136 -0.0138 0.0043, -0.136 -0.0138 0.0039, -0.1284 -0.0359 0.0043, -0.1284 -0.0359 0.0039, -0.1169 -0.0359 0.0043, -0.1169 -0.0359 0.0039, -0.1467 0.0428 0.0043, -0.1467 0.0428 0.0039, -0.1386 -0.0052 0.0043, -0.1649 -0.0052 0.0043, -0.1504 0.0277 0.0043, -0.1511 0.0305 0.0043, -0.1516 0.0332 0.0043, -0.1519 0.0332 0.0043, -0.1524 0.0305 0.0043, -0.1531 0.0277 0.0043, -0.1386 -0.0052 0.0039, -0.1649 -0.0052 0.0039, -0.1504 0.0277 0.0039, -0.1511 0.0305 0.0039, -0.1516 0.0332 0.0039, -0.1519 0.0332 0.0039, -0.1524 0.0305 0.0039, -0.1531 0.0277 0.0039, -0.0692 -0.0359 0.0043, -0.0478 -0.0359 0.0043, -0.0692 -0.0359 0.0039, -0.0478 -0.0359 0.0039, -0.0478 0.0428 0.0043, -0.0478 0.0428 0.0039, -0.07 0.0428 0.0043, -0.07 0.0428 0.0039, -0.1111 0.0045 0.0043, -0.1111 0.0045 0.0039, -0.1106 0.0119 0.0039, -0.1106 0.0119 0.0043, -0.1085 0.0196 0.0039, -0.1085 0.0196 0.0043, -0.1048 0.0264 0.0039, -0.1048 0.0264 0.0043, -0.0992 0.0326 0.0039, -0.0992 0.0326 0.0043, -0.0992 0.0327 0.0039, -0.0992 0.0327 0.0043, -0.0906 0.0384 0.0039, -0.0906 0.0384 0.0043, -0.0814 0.0416 0.0039, -0.0814 0.0416 0.0043, -0.0789 -0.035 0.0039, -0.0789 -0.035 0.0043, -0.088 -0.0323 0.0039, -0.088 -0.0323 0.0043, -0.0962 -0.0276 0.0039, -0.0962 -0.0276 0.0043, -0.1027 -0.0214 0.0039, -0.1027 -0.0214 0.0043, -0.1072 -0.0143 0.0039, -0.1072 -0.0143 0.0043, -0.11 -0.0061 0.0039, -0.11 -0.0061 0.0043, -0.0953 0.0232 0.0043, -0.0915 0.0272 0.0043, -0.0858 0.0309 0.0043, -0.0793 0.0332 0.0043, -0.0699 0.0342 0.0043, -0.0583 0.0342 0.0043, -0.0583 -0.0273 0.0043, -0.0695 -0.0273 0.0043, -0.0778 -0.0265 0.0043, -0.0844 -0.0244 0.0043, -0.0898 -0.0212 0.0043, -0.0942 -0.0169 0.0043, -0.0976 -0.0114 0.0043, -0.0999 -0.004 0.0043, -0.1006 0.0042 0.0043, -0.0999 0.0121 0.0043, -0.0981 0.0183 0.0043, -0.0699 0.0342 0.0039, -0.0583 0.0342 0.0039, -0.0793 0.0332 0.0039, -0.0858 0.0309 0.0039, -0.0915 0.0272 0.0039, -0.0953 0.0232 0.0039, -0.0981 0.0183 0.0039, -0.0999 0.0121 0.0039, -0.1006 0.0042 0.0039, -0.0999 -0.004 0.0039, -0.0976 -0.0114 0.0039, -0.0942 -0.0169 0.0039, -0.0898 -0.0212 0.0039, -0.0844 -0.0244 0.0039, -0.0778 -0.0265 0.0039, -0.0695 -0.0273 0.0039, -0.0583 -0.0273 0.0039, -0.0324 -0.0273 0.0043, -0.0324 -0.0359 0.0043, -0.0324 -0.0273 0.0039, -0.0324 -0.0359 0.0039, 0.0098 -0.0359 0.0043, 0.0098 -0.0359 0.0039, 0.0098 0.0428 0.0043, 0.0098 0.0428 0.0039, -0.0305 0.0428 0.0043, -0.0305 0.0428 0.0039, -0.0305 0.0342 0.0043, -0.0305 0.0342 0.0039, -0.0007 0.0342 0.0043, -0.0007 0.0342 0.0039, -0.0007 0.0083 0.0043, -0.0007 0.0083 0.0039, -0.0286 0.0083 0.0043, -0.0286 0.0083 0.0039, -0.0286 -0.0004 0.0043, -0.0286 -0.0004 0.0039, -0.0007 -0.0004 0.0043, -0.0007 -0.0004 0.0039, -0.0007 -0.0273 0.0043, -0.0007 -0.0273 0.0039, 0.0252 -0.0232 0.0043, 0.0252 -0.0318 0.0043, 0.0252 -0.0232 0.0039, 0.0252 -0.0318 0.0039, 0.0336 -0.0353 0.0043, 0.0469 -0.0369 0.0043, 0.0469 -0.0369 0.0039, 0.0447 -0.0368 0.0039, 0.0447 -0.0368 0.0043, 0.0416 -0.0364 0.0039, 0.0336 -0.0353 0.0039, 0.0515 -0.0364 0.0039, 0.0566 -0.0358 0.0043, 0.0566 -0.0358 0.0039, 0.0642 -0.0332 0.0043, 0.0642 -0.0332 0.0039, 0.0705 -0.0292 0.0043, 0.0705 -0.0292 0.0039, 0.0765 -0.0229 0.0043, 0.0765 -0.0229 0.0039, 0.0806 -0.0155 0.0043, 0.0806 -0.0155 0.0039, 0.083 -0.0071 0.0043, 0.083 -0.0071 0.0039, 0.0838 0.002 0.0043, 0.0838 0.002 0.0039, 0.0437 0.0438 0.0043, 0.0437 0.0438 0.0039, 0.0516 0.0432 0.0039, 0.0516 0.0432 0.0043, 0.0604 0.0406 0.0039, 0.0604 0.0406 0.0043, 0.0679 0.0363 0.0039, 0.0679 0.0363 0.0043, 0.075 0.0295 0.0039, 0.075 0.0295 0.0043, 0.0796 0.0221 0.0039, 0.0796 0.0221 0.0043, 0.0826 0.0132 0.0039, 0.0826 0.0132 0.0043, 0.0252 0.0407 0.0043, 0.0252 0.0407 0.0039, 0.0343 0.0432 0.0039, 0.0343 0.0432 0.0043, 0.0252 0.0301 0.0043, 0.0252 0.0301 0.0039, 0.0436 0.0352 0.0043, 0.0436 0.0352 0.0039, 0.0341 0.0339 0.0039, 0.0341 0.0339 0.0043, 0.0732 0.0026 0.0043, 0.0732 0.0026 0.0039, 0.0728 0.0088 0.0039, 0.0728 0.0088 0.0043, 0.0707 0.0172 0.0039, 0.0707 0.0172 0.0043, 0.0675 0.0233 0.0039, 0.0675 0.0233 0.0043, 0.0627 0.0285 0.0039, 0.0627 0.0285 0.0043, 0.0573 0.0322 0.0039, 0.0573 0.0322 0.0043, 0.0514 0.0343 0.0039, 0.0514 0.0343 0.0043, 0.0454 -0.0282 0.0043, 0.0454 -0.0282 0.0039, 0.0528 -0.0274 0.0039, 0.0528 -0.0274 0.0043, 0.0585 -0.0253 0.0039, 0.0585 -0.0253 0.0043, 0.0633 -0.022 0.0039, 0.0633 -0.022 0.0043, 0.067 -0.0181 0.0039, 0.067 -0.0181 0.0043, 0.0703 -0.0127 0.0039, 0.0703 -0.0127 0.0043, 0.0724 -0.0059 0.0039, 0.0724 -0.0059 0.0043, 0.0266 -0.024 0.0039, 0.0266 -0.024 0.0043, 0.035 -0.0271 0.0039, 0.035 -0.0271 0.0043, 0.0905 -0.0273 0.0043, 0.0905 -0.0359 0.0043, 0.0905 -0.0273 0.0039, 0.0905 -0.0359 0.0039, 0.1308 -0.0359 0.0043, 0.1308 -0.0359 0.0039, 0.1308 0.0428 0.0043, 0.1308 0.0428 0.0039, 0.1203 0.0428 0.0043, 0.1203 0.0428 0.0039, 0.1203 -0.0273 0.0043, 0.1203 -0.0273 0.0039
            ]
        }
        coordIndex [
            0,1,2,-1,2,1,3,-1,1,4,3,-1,3,4,5,-1,4,6,5,-1,5,6,7,-1,6,8,7,-1,7,8,9,-1,8,10,9,-1,9,10,11,-1,10,12,11,-1,11,12,13,-1,12,14,13,-1,13,14,15,-1,14,0,15,-1,15,0,2,-1,16,8,17,-1,17,8,6,-1,18,14,16,-1,16,14,12,-1,16,12,8,-1,8,12,10,-1,18,19,14,-1,14,19,20,-1,14,20,0,-1,0,20,21,-1,0,21,22,-1,22,23,0,-1,0,23,17,-1,0,17,1,-1,1,17,6,-1,1,6,4,-1,16,17,24,-1,24,17,25,-1,18,16,26,-1,26,16,24,-1,18,26,27,-1,18,27,19,-1,19,27,28,-1,19,28,20,-1,21,20,29,-1,29,20,28,-1,21,29,30,-1,21,30,22,-1,22,30,31,-1,22,31,23,-1,17,23,25,-1,25,23,31,-1,32,33,34,-1,34,33,35,-1,33,36,35,-1,35,36,37,-1,36,38,37,-1,37,38,39,-1,40,41,42,-1,40,42,43,-1,43,42,44,-1,43,44,45,-1,45,44,46,-1,45,46,47,-1,47,46,48,-1,47,48,49,-1,49,48,50,-1,49,50,51,-1,51,50,52,-1,51,52,53,-1,53,52,54,-1,53,54,55,-1,55,54,39,-1,55,39,38,-1,32,34,56,-1,32,56,57,-1,57,56,58,-1,57,58,59,-1,59,58,60,-1,59,60,61,-1,61,60,62,-1,61,62,63,-1,63,62,64,-1,63,64,65,-1,65,64,66,-1,65,66,67,-1,67,66,41,-1,67,41,40,-1,45,47,68,-1,68,47,49,-1,68,49,69,-1,69,49,51,-1,69,51,70,-1,70,51,53,-1,70,53,71,-1,71,53,55,-1,71,55,72,-1,72,55,38,-1,72,38,73,-1,73,38,36,-1,73,36,74,-1,74,36,33,-1,74,33,75,-1,75,33,32,-1,75,32,76,-1,76,32,57,-1,76,57,77,-1,77,57,59,-1,77,59,78,-1,78,59,61,-1,78,61,79,-1,79,61,63,-1,79,63,80,-1,80,63,65,-1,80,65,81,-1,81,65,67,-1,81,67,82,-1,82,67,40,-1,82,40,83,-1,83,40,43,-1,83,43,84,-1,84,43,45,-1,84,45,68,-1,72,73,85,-1,85,73,86,-1,72,85,87,-1,72,87,71,-1,71,87,88,-1,71,88,70,-1,70,88,89,-1,70,89,69,-1,69,89,90,-1,69,90,68,-1,68,90,91,-1,68,91,84,-1,84,91,92,-1,84,92,83,-1,83,92,93,-1,83,93,82,-1,82,93,94,-1,82,94,81,-1,81,94,95,-1,81,95,80,-1,80,95,96,-1,80,96,79,-1,79,96,97,-1,79,97,78,-1,78,97,98,-1,78,98,77,-1,77,98,99,-1,77,99,76,-1,76,99,100,-1,76,100,75,-1,74,75,101,-1,101,75,100,-1,73,74,86,-1,86,74,101,-1,102,103,104,-1,104,103,105,-1,103,106,105,-1,105,106,107,-1,106,108,107,-1,107,108,109,-1,108,110,109,-1,109,110,111,-1,110,112,111,-1,111,112,113,-1,112,114,113,-1,113,114,115,-1,114,116,115,-1,115,116,117,-1,116,118,117,-1,117,118,119,-1,118,120,119,-1,119,120,121,-1,120,122,121,-1,121,122,123,-1,122,124,123,-1,123,124,125,-1,124,102,125,-1,125,102,104,-1,106,103,102,-1,102,124,106,-1,106,124,122,-1,106,122,108,-1,112,110,114,-1,114,110,108,-1,114,108,116,-1,116,108,122,-1,116,122,118,-1,118,122,120,-1,126,127,128,-1,128,127,129,-1,129,127,130,-1,131,132,133,-1,131,133,134,-1,134,133,135,-1,134,135,130,-1,130,135,136,-1,130,136,129,-1,132,131,137,-1,137,131,138,-1,137,138,139,-1,139,138,140,-1,139,140,141,-1,141,140,142,-1,141,142,143,-1,143,142,144,-1,143,144,145,-1,145,144,146,-1,145,146,147,-1,147,146,148,-1,147,148,149,-1,149,148,150,-1,149,150,151,-1,152,153,154,-1,152,154,155,-1,155,154,156,-1,155,156,157,-1,157,156,158,-1,157,158,159,-1,159,158,160,-1,159,160,161,-1,161,160,162,-1,161,162,163,-1,163,162,164,-1,163,164,165,-1,165,164,151,-1,165,151,150,-1,166,167,168,-1,166,168,169,-1,169,168,153,-1,169,153,152,-1,166,170,167,-1,167,170,171,-1,172,173,174,-1,172,174,175,-1,175,174,171,-1,175,171,170,-1,176,177,178,-1,176,178,179,-1,179,178,180,-1,179,180,181,-1,181,180,182,-1,181,182,183,-1,183,182,184,-1,183,184,185,-1,185,184,186,-1,185,186,187,-1,187,186,188,-1,187,188,189,-1,189,188,173,-1,189,173,172,-1,190,191,192,-1,190,192,193,-1,193,192,194,-1,193,194,195,-1,195,194,196,-1,195,196,197,-1,197,196,198,-1,197,198,199,-1,199,198,200,-1,199,200,201,-1,201,200,202,-1,201,202,203,-1,203,202,177,-1,203,177,176,-1,126,128,204,-1,126,204,205,-1,205,204,206,-1,205,206,207,-1,207,206,191,-1,207,191,190,-1,193,131,190,-1,190,131,134,-1,190,134,207,-1,207,134,130,-1,207,130,205,-1,205,130,127,-1,205,127,126,-1,170,166,175,-1,175,166,169,-1,175,169,172,-1,172,169,152,-1,172,152,189,-1,189,152,155,-1,189,155,187,-1,187,155,157,-1,187,157,185,-1,185,157,159,-1,185,159,183,-1,183,159,161,-1,183,161,181,-1,181,161,163,-1,181,163,179,-1,179,163,165,-1,179,165,176,-1,176,165,150,-1,176,150,203,-1,203,150,148,-1,203,148,201,-1,201,148,146,-1,201,146,199,-1,199,146,144,-1,199,144,197,-1,197,144,142,-1,197,142,195,-1,195,142,140,-1,195,140,193,-1,193,140,138,-1,193,138,131,-1,208,209,210,-1,210,209,211,-1,209,212,211,-1,211,212,213,-1,212,214,213,-1,213,214,215,-1,214,216,215,-1,215,216,217,-1,216,218,217,-1,217,218,219,-1,218,208,219,-1,219,208,210,-1,216,214,218,-1,218,214,212,-1,218,212,208,-1,208,212,209,-1,
        ]
    }
}
Shape{
    appearance Appearance {
        material  Material 	{
            diffuseColor 0.25098039215686274 0.25098039215686274 0.25098039215686274
            specularColor 0.12549019607843137 0.12549019607843137 0.12549019607843137
            ambientIntensity 0.251
            transparency 0.0
            shininess 0.5
        }
    }
    geometry IndexedFaceSet {
        ccw TRUE
        solid FALSE
        coord DEF co Coordinate {
            point [
                -0.1386 -0.0052 0.0039, -0.1649 -0.0052 0.0039, -0.1504 0.0277 0.0039, -0.1531 0.0277 0.0039, -0.1511 0.0305 0.0039, -0.1524 0.0305 0.0039, -0.1516 0.0332 0.0039, -0.1519 0.0332 0.0039, -0.0583 0.0342 0.0039, -0.0583 -0.0273 0.0039, -0.0699 0.0342 0.0039, -0.0695 -0.0273 0.0039, -0.0778 -0.0265 0.0039, -0.1006 0.0042 0.0039, -0.0999 0.0121 0.0039, -0.0981 0.0183 0.0039, -0.0793 0.0332 0.0039, -0.0844 -0.0244 0.0039, -0.0898 -0.0212 0.0039, -0.0942 -0.0169 0.0039, -0.0976 -0.0114 0.0039, -0.0999 -0.004 0.0039, -0.0953 0.0232 0.0039, -0.0915 0.0272 0.0039, -0.0858 0.0309 0.0039, -0.6299 -0.0826 0.2795, -0.6299 -0.0826 0.0039, -0.6184 -0.0841 0.2795, -0.6184 -0.0841 0.0039, -0.6102 -0.0872 0.2795, -0.6077 -0.0885 0.0039, -0.6077 -0.0885 0.2796, -0.6 -0.0941 0.2809, -0.5985 -0.0956 0.0039, -0.5985 -0.0956 0.2813, -0.5914 -0.1048 0.0039, -0.5914 -0.1048 0.2843, -0.5906 -0.1063 0.2848, -0.5869 -0.1156 0.0039, -0.5869 -0.1156 0.2872, -0.5858 -0.1213 0.288, -0.5854 -0.1271 0.0039, -0.5854 -0.1271 0.2883, -0.5858 -0.1329 0.288, -0.5869 -0.1386 0.0039, -0.5869 -0.1386 0.2872, -0.5906 -0.1478 0.2848, -0.5914 -0.1493 0.0039, -0.5914 -0.1493 0.2843, -0.5985 -0.1585 0.0039, -0.5985 -0.1585 0.2813, -0.6077 -0.1656 0.0039, -0.6077 -0.1656 0.2796, -0.6 -0.1601 0.2809, -0.6299 -0.1716 0.0039, -0.6299 -0.1716 0.2795, -0.6184 -0.1701 0.0039, -0.6184 -0.1701 0.2795, -0.6102 -0.167 0.2795, -0.6299 0.1716 0.2795, -0.6299 0.1716 0.0039, -0.6184 0.1701 0.2795, -0.6184 0.1701 0.0039, -0.6102 0.167 0.2795, -0.6077 0.1656 0.0039, -0.6077 0.1656 0.2796, -0.6 0.1601 0.2809, -0.5985 0.1585 0.0039, -0.5985 0.1585 0.2813, -0.5914 0.1493 0.0039, -0.5914 0.1493 0.2843, -0.5906 0.1478 0.2848, -0.5869 0.1386 0.0039, -0.5869 0.1386 0.2872, -0.5858 0.1329 0.288, -0.5854 0.1271 0.0039, -0.5854 0.1271 0.2883, -0.5858 0.1212 0.288, -0.5869 0.1156 0.0039, -0.5869 0.1156 0.2872, -0.5906 0.1063 0.2848, -0.5914 0.1048 0.0039, -0.5914 0.1048 0.2843, -0.5985 0.0956 0.0039, -0.5985 0.0956 0.2813, -0.6077 0.0885 0.0039, -0.6077 0.0885 0.2796, -0.6 0.0941 0.2809, -0.6299 0.0826 0.0039, -0.6299 0.0826 0.2795, -0.6184 0.0841 0.0039, -0.6184 0.0841 0.2795, -0.6102 0.0872 0.2795, 0.6299 0.0826 0.2795, 0.6299 0.0826 0.0039, 0.6193 0.0839 0.2795, 0.6193 0.0839 0.0039, 0.6102 0.0872 0.2795, 0.6092 0.0877 0.2795, 0.6092 0.0877 0.0039, 0.6046 0.0905 0.2799, 0.6004 0.0938 0.0039, 0.6004 0.0938 0.2808, 0.6 0.0941 0.2809, 0.5933 0.1018 0.0039, 0.5933 0.1018 0.2834, 0.5906 0.1069 0.2849, 0.5883 0.1113 0.0039, 0.5883 0.1113 0.2862, 0.5867 0.1164 0.2873, 0.5857 0.1217 0.0039, 0.5857 0.1217 0.2881, 0.5854 0.1271 0.2883, 0.5857 0.1324 0.0039, 0.5857 0.1324 0.2881, 0.5867 0.1377 0.2873, 0.5883 0.1429 0.0039, 0.5886 0.1427 0.2861, 0.5906 0.1478 0.2848, 0.5933 0.1524 0.0039, 0.5933 0.1524 0.2834, 0.6001 0.16 0.2809, 0.6004 0.1604 0.0039, 0.6004 0.1604 0.2808, 0.6092 0.1665 0.0039, 0.6093 0.1664 0.2796, 0.6046 0.1637 0.2799, 0.6299 0.1716 0.0039, 0.6299 0.1716 0.2795, 0.6193 0.1703 0.0039, 0.6193 0.1703 0.2795, 0.6102 0.167 0.2795, 0.6299 -0.1716 0.2795, 0.6299 -0.1716 0.0039, 0.6193 -0.1703 0.2795, 0.6193 -0.1703 0.0039, 0.6102 -0.167 0.2795, 0.6092 -0.1665 0.2795, 0.6092 -0.1665 0.0039, 0.6046 -0.1637 0.2799, 0.6004 -0.1604 0.0039, 0.6004 -0.1604 0.2808, 0.6 -0.1601 0.2809, 0.5933 -0.1524 0.0039, 0.5933 -0.1524 0.2834, 0.5906 -0.1472 0.2849, 0.5883 -0.1429 0.0039, 0.5883 -0.1429 0.2862, 0.5867 -0.1378 0.2873, 0.5857 -0.1324 0.0039, 0.5857 -0.1324 0.2881, 0.5854 -0.1271 0.2883, 0.5857 -0.1217 0.0039, 0.5857 -0.1217 0.2881, 0.5867 -0.1164 0.2873, 0.5883 -0.1113 0.0039, 0.5886 -0.1114 0.2861, 0.5906 -0.1063 0.2848, 0.5933 -0.1018 0.0039, 0.5933 -0.1018 0.2834, 0.6001 -0.0942 0.2809, 0.6004 -0.0938 0.0039, 0.6004 -0.0938 0.2808, 0.6092 -0.0877 0.0039, 0.6093 -0.0877 0.2796, 0.6046 -0.0905 0.2799, 0.6299 -0.0826 0.0039, 0.6299 -0.0826 0.2795, 0.6193 -0.0839 0.0039, 0.6193 -0.0839 0.2795, 0.6102 -0.0872 0.2795
            ]
        }
        coordIndex [
            0,1,2,-1,2,1,3,-1,2,3,4,-1,4,3,5,-1,4,5,6,-1,6,5,7,-1,8,9,10,-1,10,9,11,-1,10,11,12,-1,13,14,10,-1,10,14,15,-1,10,15,16,-1,12,17,10,-1,10,17,18,-1,10,18,19,-1,19,20,10,-1,10,20,21,-1,10,21,13,-1,22,23,15,-1,15,23,24,-1,15,24,16,-1,25,26,27,-1,27,26,28,-1,27,28,29,-1,29,28,30,-1,29,30,31,-1,31,30,32,-1,32,30,33,-1,32,33,34,-1,34,33,35,-1,34,35,36,-1,36,35,37,-1,37,35,38,-1,37,38,39,-1,39,38,40,-1,40,38,41,-1,40,41,42,-1,42,41,43,-1,43,41,44,-1,43,44,45,-1,45,44,46,-1,46,44,47,-1,46,47,48,-1,48,47,49,-1,48,49,50,-1,51,52,49,-1,49,52,53,-1,49,53,50,-1,54,55,56,-1,56,55,57,-1,56,57,51,-1,51,57,58,-1,51,58,52,-1,59,60,61,-1,61,60,62,-1,61,62,63,-1,63,62,64,-1,63,64,65,-1,65,64,66,-1,66,64,67,-1,66,67,68,-1,68,67,69,-1,68,69,70,-1,70,69,71,-1,71,69,72,-1,71,72,73,-1,73,72,74,-1,74,72,75,-1,74,75,76,-1,76,75,77,-1,77,75,78,-1,77,78,79,-1,79,78,80,-1,80,78,81,-1,80,81,82,-1,82,81,83,-1,82,83,84,-1,85,86,83,-1,83,86,87,-1,83,87,84,-1,88,89,90,-1,90,89,91,-1,90,91,85,-1,85,91,92,-1,85,92,86,-1,93,94,95,-1,95,94,96,-1,95,96,97,-1,97,96,98,-1,98,96,99,-1,98,99,100,-1,100,99,101,-1,100,101,102,-1,102,101,103,-1,103,101,104,-1,103,104,105,-1,105,104,106,-1,106,104,107,-1,106,107,108,-1,108,107,109,-1,109,107,110,-1,109,110,111,-1,111,110,112,-1,112,110,113,-1,112,113,114,-1,114,113,115,-1,115,113,116,-1,115,116,117,-1,117,116,118,-1,118,116,119,-1,118,119,120,-1,120,119,121,-1,121,119,122,-1,121,122,123,-1,124,125,122,-1,122,125,126,-1,122,126,123,-1,127,128,129,-1,129,128,130,-1,129,130,124,-1,124,130,131,-1,124,131,125,-1,132,133,134,-1,134,133,135,-1,134,135,136,-1,136,135,137,-1,137,135,138,-1,137,138,139,-1,139,138,140,-1,139,140,141,-1,141,140,142,-1,142,140,143,-1,142,143,144,-1,144,143,145,-1,145,143,146,-1,145,146,147,-1,147,146,148,-1,148,146,149,-1,148,149,150,-1,150,149,151,-1,151,149,152,-1,151,152,153,-1,153,152,154,-1,154,152,155,-1,154,155,156,-1,156,155,157,-1,157,155,158,-1,157,158,159,-1,159,158,160,-1,160,158,161,-1,160,161,162,-1,163,164,161,-1,161,164,165,-1,161,165,162,-1,166,167,168,-1,168,167,169,-1,168,169,163,-1,163,169,170,-1,163,170,164,-1,
        ]
    }
}
Shape{
    appearance Appearance {
        material  Material 	{
            diffuseColor 1.0 1.0 0.0
            specularColor 0.5019607843137255 0.5019607843137255 0.0
            ambientIntensity 0.886
            transparency 0.0
            shininess 0.5
        }
    }
    geometry IndexedFaceSet {
        ccw TRUE
        solid FALSE
        coord DEF co Coordinate {
            point [
                -0.561 -0.1969 0.0039, -0.561 -0.1969 0.0, -0.562 -0.2045 0.0039, -0.562 -0.2045 0.0, -0.565 -0.2116 0.0039, -0.565 -0.2116 0.0, -0.5697 -0.2177 0.0039, -0.5697 -0.2177 0.0, -0.5758 -0.2224 0.0039, -0.5758 -0.2224 0.0, -0.5829 -0.2254 0.0039, -0.5829 -0.2254 0.0, -0.5906 -0.2264 0.0039, -0.5906 -0.2264 0.0, 0.5906 -0.2264 0.0039, 0.5906 -0.2264 0.0, 0.584 -0.2256 0.0039, 0.584 -0.2256 0.0, 0.5777 -0.2235 0.0039, 0.5777 -0.2235 0.0, 0.5721 -0.2199 0.0039, 0.5721 -0.2199 0.0, 0.5675 -0.2153 0.0039, 0.5675 -0.2153 0.0, 0.5639 -0.2097 0.0039, 0.5639 -0.2097 0.0, 0.5618 -0.2034 0.0039, 0.5618 -0.2034 0.0, 0.561 -0.1969 0.0039, 0.561 -0.1969 0.0, -0.5906 0.2264 0.0039, -0.5906 0.2264 0.0, -0.5829 0.2254 0.0039, -0.5829 0.2254 0.0, -0.5758 0.2224 0.0039, -0.5758 0.2224 0.0, -0.5697 0.2177 0.0039, -0.5697 0.2177 0.0, -0.565 0.2116 0.0039, -0.565 0.2116 0.0, -0.562 0.2045 0.0039, -0.562 0.2045 0.0, -0.561 0.1969 0.0039, -0.561 0.1969 0.0, 0.561 0.1969 0.0039, 0.561 0.1969 0.0, 0.562 0.2045 0.0039, 0.562 0.2045 0.0, 0.565 0.2116 0.0039, 0.565 0.2116 0.0, 0.5697 0.2177 0.0039, 0.5697 0.2177 0.0, 0.5758 0.2224 0.0039, 0.5758 0.2224 0.0, 0.5829 0.2254 0.0039, 0.5829 0.2254 0.0, 0.5906 0.2264 0.0039, 0.5906 0.2264 0.0
            ]
        }
        coordIndex [
            0,1,2,-1,2,1,3,-1,2,3,4,-1,4,3,5,-1,4,5,6,-1,6,5,7,-1,6,7,8,-1,8,7,9,-1,8,9,10,-1,10,9,11,-1,10,11,12,-1,12,11,13,-1,14,15,16,-1,16,15,17,-1,16,17,18,-1,18,17,19,-1,18,19,20,-1,20,19,21,-1,20,21,22,-1,22,21,23,-1,22,23,24,-1,24,23,25,-1,24,25,26,-1,26,25,27,-1,26,27,28,-1,28,27,29,-1,30,31,32,-1,32,31,33,-1,32,33,34,-1,34,33,35,-1,34,35,36,-1,36,35,37,-1,36,37,38,-1,38,37,39,-1,38,39,40,-1,40,39,41,-1,40,41,42,-1,42,41,43,-1,44,45,46,-1,46,45,47,-1,46,47,48,-1,48,47,49,-1,48,49,50,-1,50,49,51,-1,50,51,52,-1,52,51,53,-1,52,53,54,-1,54,53,55,-1,54,55,56,-1,56,55,57,-1,
        ]
    }
}
Shape{
    appearance Appearance {
        material  Material 	{
            diffuseColor 0.7529411764705882 0.7529411764705882 0.7529411764705882
            specularColor 0.3764705882352941 0.3764705882352941 0.3764705882352941
            ambientIntensity 0.7529
            transparency 0.0
            shininess 0.5
        }
    }
    geometry IndexedFaceSet {
        ccw TRUE
        solid FALSE
        coord DEF co Coordinate {
            point [
                -0.4921 0.3937 0.378, 0.4921 0.3937 0.378, 0.4921 0.3988 0.3773, -0.4921 0.3988 0.3773, 0.4921 0.4035 0.3753, -0.4921 0.4035 0.3753, 0.4921 0.4076 0.3722, -0.4921 0.4076 0.3722, 0.4921 0.4107 0.3681, -0.4921 0.4107 0.3681, 0.4921 0.4127 0.3634, -0.4921 0.4127 0.3634, 0.4921 0.4134 0.3583, -0.4921 0.4134 0.3583, -0.5315 0.3543 0.378, -0.5302 0.3645 0.378, -0.5366 0.3543 0.3773, -0.5351 0.3658 0.3773, -0.5413 0.3543 0.3753, -0.5397 0.3671 0.3753, -0.5454 0.3543 0.3722, -0.5436 0.3681 0.3722, -0.5485 0.3543 0.3681, -0.5466 0.3689 0.3681, -0.5505 0.3543 0.3634, -0.5485 0.3694 0.3634, -0.5512 0.3543 0.3583, -0.5492 0.3696 0.3583, -0.5262 0.374 0.378, -0.5306 0.3766 0.3773, -0.5347 0.3789 0.3753, -0.5383 0.381 0.3722, -0.541 0.3825 0.3681, -0.5427 0.3835 0.3634, -0.5433 0.3839 0.3583, -0.52 0.3822 0.378, -0.5236 0.3858 0.3773, -0.5269 0.3891 0.3753, -0.5298 0.392 0.3722, -0.532 0.3942 0.3681, -0.5334 0.3956 0.3634, -0.5339 0.3961 0.3583, -0.5118 0.3884 0.378, -0.5144 0.3928 0.3773, -0.5167 0.397 0.3753, -0.5188 0.4005 0.3722, -0.5203 0.4032 0.3681, -0.5213 0.4049 0.3634, -0.5217 0.4055 0.3583, -0.5023 0.3924 0.378, -0.5036 0.3973 0.3773, -0.5049 0.4019 0.3753, -0.5059 0.4058 0.3722, -0.5067 0.4088 0.3681, -0.5072 0.4107 0.3634, -0.5074 0.4114 0.3583, 0.5023 0.3924 0.378, 0.5036 0.3973 0.3773, 0.5049 0.4019 0.3753, 0.5059 0.4058 0.3722, 0.5067 0.4088 0.3681, 0.5072 0.4107 0.3634, 0.5074 0.4114 0.3583, 0.5118 0.3884 0.378, 0.5144 0.3928 0.3773, 0.5167 0.397 0.3753, 0.5188 0.4005 0.3722, 0.5203 0.4032 0.3681, 0.5213 0.4049 0.3634, 0.5217 0.4055 0.3583, 0.52 0.3822 0.378, 0.5236 0.3858 0.3773, 0.5269 0.3891 0.3753, 0.5298 0.392 0.3722, 0.532 0.3942 0.3681, 0.5334 0.3956 0.3634, 0.5339 0.3961 0.3583, 0.5262 0.374 0.378, 0.5306 0.3766 0.3773, 0.5347 0.3789 0.3753, 0.5383 0.381 0.3722, 0.541 0.3825 0.3681, 0.5427 0.3835 0.3634, 0.5433 0.3839 0.3583, 0.5302 0.3645 0.378, 0.5351 0.3658 0.3773, 0.5397 0.3671 0.3753, 0.5436 0.3681 0.3722, 0.5466 0.3689 0.3681, 0.5485 0.3694 0.3634, 0.5492 0.3696 0.3583, 0.5315 0.3543 0.378, 0.5366 0.3543 0.3773, 0.5413 0.3543 0.3753, 0.5454 0.3543 0.3722, 0.5485 0.3543 0.3681, 0.5505 0.3543 0.3634, 0.5512 0.3543 0.3583, -0.5315 -0.3543 0.378, -0.5366 -0.3543 0.3773, -0.5413 -0.3543 0.3753, -0.5454 -0.3543 0.3722, -0.5485 -0.3543 0.3681, -0.5505 -0.3543 0.3634, -0.5512 -0.3543 0.3583, 0.5315 -0.3543 0.378, 0.5366 -0.3543 0.3773, 0.5413 -0.3543 0.3753, 0.5454 -0.3543 0.3722, 0.5485 -0.3543 0.3681, 0.5505 -0.3543 0.3634, 0.5512 -0.3543 0.3583, -0.4921 -0.3937 0.378, -0.5023 -0.3924 0.378, -0.4921 -0.3988 0.3773, -0.5036 -0.3973 0.3773, -0.4921 -0.4035 0.3753, -0.5049 -0.4019 0.3753, -0.4921 -0.4076 0.3722, -0.5059 -0.4058 0.3722, -0.4921 -0.4107 0.3681, -0.5067 -0.4088 0.3681, -0.4921 -0.4127 0.3634, -0.5072 -0.4107 0.3634, -0.4921 -0.4134 0.3583, -0.5074 -0.4114 0.3583, -0.5118 -0.3884 0.378, -0.5144 -0.3928 0.3773, -0.5167 -0.397 0.3753, -0.5188 -0.4005 0.3722, -0.5203 -0.4032 0.3681, -0.5213 -0.4049 0.3634, -0.5217 -0.4055 0.3583, -0.52 -0.3822 0.378, -0.5236 -0.3858 0.3773, -0.5269 -0.3891 0.3753, -0.5298 -0.392 0.3722, -0.532 -0.3942 0.3681, -0.5334 -0.3956 0.3634, -0.5339 -0.3961 0.3583, -0.5262 -0.374 0.378, -0.5306 -0.3766 0.3773, -0.5347 -0.3789 0.3753, -0.5383 -0.381 0.3722, -0.541 -0.3825 0.3681, -0.5427 -0.3835 0.3634, -0.5433 -0.3839 0.3583, -0.5302 -0.3645 0.378, -0.5351 -0.3658 0.3773, -0.5397 -0.3671 0.3753, -0.5436 -0.3681 0.3722, -0.5466 -0.3689 0.3681, -0.5485 -0.3694 0.3634, -0.5492 -0.3696 0.3583, 0.5302 -0.3645 0.378, 0.5351 -0.3658 0.3773, 0.5397 -0.3671 0.3753, 0.5436 -0.3681 0.3722, 0.5466 -0.3689 0.3681, 0.5485 -0.3694 0.3634, 0.5492 -0.3696 0.3583, 0.5262 -0.374 0.378, 0.5306 -0.3766 0.3773, 0.5347 -0.3789 0.3753, 0.5383 -0.381 0.3722, 0.541 -0.3825 0.3681, 0.5427 -0.3835 0.3634, 0.5433 -0.3839 0.3583, 0.52 -0.3822 0.378, 0.5236 -0.3858 0.3773, 0.5269 -0.3891 0.3753, 0.5298 -0.392 0.3722, 0.532 -0.3942 0.3681, 0.5334 -0.3956 0.3634, 0.5339 -0.3961 0.3583, 0.5118 -0.3884 0.378, 0.5144 -0.3928 0.3773, 0.5167 -0.397 0.3753, 0.5188 -0.4005 0.3722, 0.5203 -0.4032 0.3681, 0.5213 -0.4049 0.3634, 0.5217 -0.4055 0.3583, 0.5023 -0.3924 0.378, 0.5036 -0.3973 0.3773, 0.5049 -0.4019 0.3753, 0.5059 -0.4058 0.3722, 0.5067 -0.4088 0.3681, 0.5072 -0.4107 0.3634, 0.5074 -0.4114 0.3583, 0.4921 -0.3937 0.378, 0.4921 -0.3988 0.3773, 0.4921 -0.4035 0.3753, 0.4921 -0.4076 0.3722, 0.4921 -0.4107 0.3681, 0.4921 -0.4127 0.3634, 0.4921 -0.4134 0.3583, -0.4118 -0.3342 0.3776, -0.4098 -0.3195 0.378, -0.4136 -0.3206 0.3776, -0.4155 -0.3059 0.378, -0.4189 -0.3078 0.3776, -0.4245 -0.2942 0.378, -0.4273 -0.2969 0.3776, -0.4362 -0.2851 0.378, -0.4382 -0.2885 0.3776, -0.4499 -0.2795 0.378, -0.4509 -0.2833 0.3776, -0.4646 -0.2776 0.378, -0.4646 -0.2815 0.3776, -0.4792 -0.2795 0.378, -0.4782 -0.2833 0.3776, -0.4929 -0.2851 0.378, -0.4909 -0.2885 0.3776, -0.5046 -0.2942 0.378, -0.5018 -0.2969 0.3776, -0.5136 -0.3059 0.378, -0.5102 -0.3078 0.3776, -0.5193 -0.3195 0.378, -0.5155 -0.3206 0.3776, -0.5212 -0.3342 0.378, -0.5173 -0.3342 0.3776, -0.5193 -0.3489 0.378, -0.5155 -0.3479 0.3776, -0.5136 -0.3625 0.378, -0.5102 -0.3606 0.3776, -0.5046 -0.3743 0.378, -0.5018 -0.3715 0.3776, -0.4929 -0.3833 0.378, -0.4909 -0.3799 0.3776, -0.4792 -0.3889 0.378, -0.4782 -0.3852 0.3776, -0.4646 -0.3909 0.378, -0.4646 -0.3869 0.3776, -0.4499 -0.3889 0.378, -0.4509 -0.3852 0.3776, -0.4362 -0.3833 0.378, -0.4382 -0.3799 0.3776, -0.4245 -0.3743 0.378, -0.4273 -0.3715 0.3776, -0.4155 -0.3625 0.378, -0.4189 -0.3606 0.3776, -0.4098 -0.3489 0.378, -0.4136 -0.3479 0.3776, -0.4079 -0.3342 0.378
            ]
        }
        coordIndex [
            0,1,2,-1,0,2,3,-1,3,2,4,-1,3,4,5,-1,5,4,6,-1,5,6,7,-1,7,6,8,-1,7,8,9,-1,9,8,10,-1,9,10,11,-1,11,10,12,-1,11,12,13,-1,14,15,16,-1,16,15,17,-1,16,17,18,-1,18,17,19,-1,18,19,20,-1,20,19,21,-1,20,21,22,-1,22,21,23,-1,22,23,24,-1,24,23,25,-1,24,25,26,-1,26,25,27,-1,15,28,17,-1,17,28,29,-1,17,29,19,-1,19,29,30,-1,19,30,21,-1,21,30,31,-1,21,31,23,-1,23,31,32,-1,23,32,25,-1,25,32,33,-1,25,33,27,-1,27,33,34,-1,28,35,29,-1,29,35,36,-1,29,36,30,-1,30,36,37,-1,30,37,31,-1,31,37,38,-1,31,38,32,-1,32,38,39,-1,32,39,33,-1,33,39,40,-1,33,40,34,-1,34,40,41,-1,35,42,36,-1,36,42,43,-1,36,43,37,-1,37,43,44,-1,37,44,38,-1,38,44,45,-1,38,45,39,-1,39,45,46,-1,39,46,40,-1,40,46,47,-1,40,47,41,-1,41,47,48,-1,42,49,43,-1,43,49,50,-1,43,50,44,-1,44,50,51,-1,44,51,45,-1,45,51,52,-1,45,52,46,-1,46,52,53,-1,46,53,47,-1,47,53,54,-1,47,54,48,-1,48,54,55,-1,49,0,50,-1,50,0,3,-1,50,3,51,-1,51,3,5,-1,51,5,52,-1,52,5,7,-1,52,7,53,-1,53,7,9,-1,53,9,54,-1,54,9,11,-1,54,11,55,-1,55,11,13,-1,1,56,2,-1,2,56,57,-1,2,57,4,-1,4,57,58,-1,4,58,6,-1,6,58,59,-1,6,59,8,-1,8,59,60,-1,8,60,10,-1,10,60,61,-1,10,61,12,-1,12,61,62,-1,56,63,57,-1,57,63,64,-1,57,64,58,-1,58,64,65,-1,58,65,59,-1,59,65,66,-1,59,66,60,-1,60,66,67,-1,60,67,61,-1,61,67,68,-1,61,68,62,-1,62,68,69,-1,63,70,64,-1,64,70,71,-1,64,71,65,-1,65,71,72,-1,65,72,66,-1,66,72,73,-1,66,73,67,-1,67,73,74,-1,67,74,68,-1,68,74,75,-1,68,75,69,-1,69,75,76,-1,70,77,71,-1,71,77,78,-1,71,78,72,-1,72,78,79,-1,72,79,73,-1,73,79,80,-1,73,80,74,-1,74,80,81,-1,74,81,75,-1,75,81,82,-1,75,82,76,-1,76,82,83,-1,77,84,78,-1,78,84,85,-1,78,85,79,-1,79,85,86,-1,79,86,80,-1,80,86,87,-1,80,87,81,-1,81,87,88,-1,81,88,82,-1,82,88,89,-1,82,89,83,-1,83,89,90,-1,84,91,85,-1,85,91,92,-1,85,92,86,-1,86,92,93,-1,86,93,87,-1,87,93,94,-1,87,94,88,-1,88,94,95,-1,88,95,89,-1,89,95,96,-1,89,96,90,-1,90,96,97,-1,98,14,16,-1,98,16,99,-1,99,16,18,-1,99,18,100,-1,100,18,20,-1,100,20,101,-1,101,20,22,-1,101,22,102,-1,102,22,24,-1,102,24,103,-1,103,24,26,-1,103,26,104,-1,91,105,106,-1,91,106,92,-1,92,106,107,-1,92,107,93,-1,93,107,108,-1,93,108,94,-1,94,108,109,-1,94,109,95,-1,95,109,110,-1,95,110,96,-1,96,110,111,-1,96,111,97,-1,112,113,114,-1,114,113,115,-1,114,115,116,-1,116,115,117,-1,116,117,118,-1,118,117,119,-1,118,119,120,-1,120,119,121,-1,120,121,122,-1,122,121,123,-1,122,123,124,-1,124,123,125,-1,113,126,115,-1,115,126,127,-1,115,127,117,-1,117,127,128,-1,117,128,119,-1,119,128,129,-1,119,129,121,-1,121,129,130,-1,121,130,123,-1,123,130,131,-1,123,131,125,-1,125,131,132,-1,126,133,127,-1,127,133,134,-1,127,134,128,-1,128,134,135,-1,128,135,129,-1,129,135,136,-1,129,136,130,-1,130,136,137,-1,130,137,131,-1,131,137,138,-1,131,138,132,-1,132,138,139,-1,133,140,134,-1,134,140,141,-1,134,141,135,-1,135,141,142,-1,135,142,136,-1,136,142,143,-1,136,143,137,-1,137,143,144,-1,137,144,138,-1,138,144,145,-1,138,145,139,-1,139,145,146,-1,140,147,141,-1,141,147,148,-1,141,148,142,-1,142,148,149,-1,142,149,143,-1,143,149,150,-1,143,150,144,-1,144,150,151,-1,144,151,145,-1,145,151,152,-1,145,152,146,-1,146,152,153,-1,147,98,148,-1,148,98,99,-1,148,99,149,-1,149,99,100,-1,149,100,150,-1,150,100,101,-1,150,101,151,-1,151,101,102,-1,151,102,152,-1,152,102,103,-1,152,103,153,-1,153,103,104,-1,105,154,106,-1,106,154,155,-1,106,155,107,-1,107,155,156,-1,107,156,108,-1,108,156,157,-1,108,157,109,-1,109,157,158,-1,109,158,110,-1,110,158,159,-1,110,159,111,-1,111,159,160,-1,154,161,155,-1,155,161,162,-1,155,162,156,-1,156,162,163,-1,156,163,157,-1,157,163,164,-1,157,164,158,-1,158,164,165,-1,158,165,159,-1,159,165,166,-1,159,166,160,-1,160,166,167,-1,161,168,162,-1,162,168,169,-1,162,169,163,-1,163,169,170,-1,163,170,164,-1,164,170,171,-1,164,171,165,-1,165,171,172,-1,165,172,166,-1,166,172,173,-1,166,173,167,-1,167,173,174,-1,168,175,169,-1,169,175,176,-1,169,176,170,-1,170,176,177,-1,170,177,171,-1,171,177,178,-1,171,178,172,-1,172,178,179,-1,172,179,173,-1,173,179,180,-1,173,180,174,-1,174,180,181,-1,175,182,176,-1,176,182,183,-1,176,183,177,-1,177,183,184,-1,177,184,178,-1,178,184,185,-1,178,185,179,-1,179,185,186,-1,179,186,180,-1,180,186,187,-1,180,187,181,-1,181,187,188,-1,182,189,183,-1,183,189,190,-1,183,190,184,-1,184,190,191,-1,184,191,185,-1,185,191,192,-1,185,192,186,-1,186,192,193,-1,186,193,187,-1,187,193,194,-1,187,194,188,-1,188,194,195,-1,189,112,114,-1,189,114,190,-1,190,114,116,-1,190,116,191,-1,191,116,118,-1,191,118,192,-1,192,118,120,-1,192,120,193,-1,193,120,122,-1,193,122,194,-1,194,122,124,-1,194,124,195,-1,196,197,198,-1,198,197,199,-1,198,199,200,-1,200,199,201,-1,200,201,202,-1,202,201,203,-1,202,203,204,-1,204,203,205,-1,204,205,206,-1,206,205,207,-1,206,207,208,-1,208,207,209,-1,208,209,210,-1,210,209,211,-1,210,211,212,-1,212,211,213,-1,212,213,214,-1,214,213,215,-1,214,215,216,-1,216,215,217,-1,216,217,218,-1,218,217,219,-1,218,219,220,-1,220,219,221,-1,220,221,222,-1,222,221,223,-1,222,223,224,-1,224,223,225,-1,224,225,226,-1,226,225,227,-1,226,227,228,-1,228,227,229,-1,228,229,230,-1,230,229,231,-1,230,231,232,-1,232,231,233,-1,232,233,234,-1,234,233,235,-1,234,235,236,-1,236,235,237,-1,236,237,238,-1,238,237,239,-1,238,239,240,-1,240,239,241,-1,240,241,242,-1,242,241,243,-1,242,243,196,-1,196,243,197,-1,
        ]
    }
}