#VRML V2.0 utf8
# 3D model generated by easyeda2kicad.py (https://github.com/uPesy/easyeda2kicad.py)

Shape{
    appearance Appearance {
        material  Material 	{
            diffuseColor 0.20784313725490197 0.20784313725490197 0.20784313725490197
            specularColor 0.01568627450980392 0.01568627450980392 0.01568627450980392
            ambientIntensity 0.298
            transparency 0.0
            shininess 0.5
        }
    }
    geometry IndexedFaceSet {
        ccw TRUE
        solid FALSE
        coord DEF co Coordinate {
            point [
                1.0 0.3981 0.2362, 0.3793 0.3981 0.2362, 0.3793 0.7384 0.2362, 1.5984 0.0591 0.2362, 1.4016 0.0591 0.2362, 0.0737 -0.3543 0.2362, -0.0703 -0.3543 0.2362, -0.0703 -0.2067 0.2362, 0.3793 -0.3543 0.2362, 0.2477 -0.3543 0.2362, 0.2477 -0.2067 0.2362, -0.4112 0.7396 0.2362, -0.3913 0.7949 0.2362, -0.332 0.7949 0.2362, -0.4016 -0.0591 0.2362, -0.332 -0.2067 0.2362, -0.5192 -0.0591 0.2362, -0.5192 -0.2067 0.2362, -0.5984 -0.0591 0.2362, -1.0 -0.2067 0.2362, -0.5984 0.0591 0.2362, -1.0 0.3981 0.2362, -0.5192 0.0591 0.2362, -0.5192 0.3981 0.2362, -0.4016 0.0591 0.2362, -0.332 0.3981 0.2362, -0.3632 0.9365 0.2362, -0.44 0.7396 0.2362, -0.5192 0.7384 0.2362, -0.332 0.7384 0.2362, -0.31 0.7949 0.2362, -0.2912 0.7396 0.2362, -0.2552 0.7384 0.2362, -0.2624 0.7396 0.2362, -0.2552 2.0079 0.2362, -0.332 0.9237 0.2362, -0.332 2.0079 0.2362, -0.3368 0.9365 0.2362, -0.5192 2.0079 0.2362, 0.1157 0.9373 0.2362, 0.0929 0.9311 0.2362, 0.0737 2.0079 0.2362, 0.0929 0.9047 0.2362, 0.0929 0.7714 0.2362, 0.1151 0.9142 0.2362, 0.0964 0.7695 0.2362, 0.139 0.9173 0.2362, 0.1584 0.9151 0.2362, 0.1904 0.7463 0.2362, 0.2062 0.7564 0.2362, 0.2477 0.7384 0.2362, 0.221 0.772 0.2362, 0.2315 0.7907 0.2362, 0.2289 0.8846 0.2362, 0.2174 0.903 0.2362, 0.2477 2.0079 0.2362, 0.1996 0.9201 0.2362, 0.1731 0.9098 0.2362, 0.1867 0.9007 0.2362, 0.1986 0.8876 0.2362, 0.2129 0.836 0.2362, 0.2109 0.8147 0.2362, 0.2056 0.7977 0.2362, 0.1618 0.7609 0.2362, 0.1434 0.7588 0.2362, 0.1761 0.7662 0.2362, 0.1882 0.7743 0.2362, 0.1974 0.7841 0.2362, 0.1173 0.7617 0.2362, 0.2067 0.8724 0.2362, 0.212 0.8513 0.2362, 0.2374 0.8116 0.2362, 0.2393 0.8344 0.2362, 0.2365 0.8623 0.2362, 0.1809 0.9309 0.2362, 0.159 0.9373 0.2362, 0.1392 0.9389 0.2362, 0.1417 0.7373 0.2362, 0.0737 0.3981 0.2362, 0.1338 0.7384 0.2362, 0.0737 0.7384 0.2362, 0.1139 0.7412 0.2362, 0.0929 0.7498 0.2362, 0.1471 0.7372 0.2362, 0.2477 0.3981 0.2362, 0.1586 0.7384 0.2362, 0.1713 0.7398 0.2362, 0.3793 -0.2067 0.2362, 1.0 -0.3543 0.2362, 1.0 -0.2067 0.2362, 2.0866 -0.3543 0.2362, -2.0866 -0.3543 0.2362, -2.0866 -0.2067 0.2362, -1.8425 -0.3543 0.2362, -1.8425 -0.2067 0.2362, -1.0 -0.3543 0.2362, -0.5192 -0.3543 0.2362, -0.332 -0.3543 0.2362, -0.2552 -0.3543 0.2362, -0.2552 -0.2067 0.2362, 1.4016 -0.0591 0.2362, 1.5984 -0.0591 0.2362, 2.0866 -0.2067 0.2362, 2.0866 0.3981 0.2362, 0.5984 0.0591 0.2362, 0.5984 -0.0591 0.2362, 0.4016 -0.0591 0.2362, 0.4016 0.0591 0.2362, 0.0737 -0.2067 0.2362, -0.2552 0.3981 0.2362, -1.5984 0.0591 0.2362, -1.5984 -0.0591 0.2362, -1.4016 -0.0591 0.2362, -1.4016 0.0591 0.2362, -1.8425 0.3981 0.2362, -2.0866 0.3981 0.2362, 1.0 0.7384 0.2362, 2.0866 0.7384 0.2362, -0.0703 0.3981 0.2362, -0.0703 0.7384 0.2362, -2.0866 0.7384 0.2362, -1.8425 0.7384 0.2362, -1.0 0.7384 0.2362, 2.0866 2.0079 0.2362, 1.0 2.0079 0.2362, 0.3793 2.0079 0.2362, 0.357 0.7396 0.2362, 0.357 0.9365 0.2362, 0.3306 0.9365 0.2362, 0.3306 0.7612 0.2362, 0.2561 0.7612 0.2362, 0.2561 0.7396 0.2362, -0.0463 0.9365 0.2362, -0.0703 2.0079 0.2362, 0.0545 0.9365 0.2362, -0.0463 0.9149 0.2362, -0.0415 0.8285 0.2362, -0.0415 0.8501 0.2362, 0.0281 0.8501 0.2362, 0.0281 0.9149 0.2362, 0.0281 0.8285 0.2362, 0.0281 0.7612 0.2362, -0.0511 0.7612 0.2362, -0.0511 0.7396 0.2362, 0.0545 0.7396 0.2362, -0.0896 0.7396 0.2362, -0.0896 0.9365 0.2362, -0.1735 0.9335 0.2362, -0.1966 0.9254 0.2362, -0.218 0.911 0.2362, -0.2107 0.7605 0.2362, -0.2269 0.776 0.2362, -0.2382 0.7936 0.2362, -0.1451 0.9365 0.2362, -0.2182 0.9108 0.2362, -0.2321 0.8954 0.2362, -0.2413 0.8785 0.2362, -0.2466 0.8591 0.2362, -0.248 0.8405 0.2362, -0.2452 0.8142 0.2362, -0.1901 0.7485 0.2362, -0.1674 0.7418 0.2362, -0.1431 0.7396 0.2362, -2.0866 2.0079 0.2362, -1.8425 2.0079 0.2362, -1.0 2.0079 0.2362, -2.2808 -0.296 0.0394, -2.2835 -0.2756 0.0394, -2.2047 -0.3543 0.0394, -2.2835 1.9291 0.0394, -2.0866 2.0079 0.0394, -2.0866 -0.3543 0.0394, -2.2441 -0.3438 0.0394, -2.2604 -0.3313 0.0394, -2.2729 -0.315 0.0394, -2.2441 1.9973 0.0394, -2.2251 2.0052 0.0394, -2.2047 2.0079 0.0394, -2.2604 1.9848 0.0394, -2.2808 1.9495 0.0394, -2.2729 1.9685 0.0394, -2.2251 -0.3516 0.0394, -2.2835 1.9291 3.9606, -2.2835 -0.2756 3.9606, -2.2047 -0.3543 3.9606, 2.0866 -0.3543 0.0394, 2.2047 -0.3543 0.0394, 2.2047 -0.3543 3.9606, -1.4542 -0.3543 1.043, -1.4922 -0.3543 1.0273, -1.6443 -0.3543 1.068, -1.6693 -0.3543 1.1006, -1.3808 -0.3543 1.1386, -1.4216 -0.3543 1.068, -1.3966 -0.3543 1.1006, -1.5329 -0.3543 1.0219, -1.5737 -0.3543 1.0273, -1.6117 -0.3543 1.043, -1.6851 -0.3543 1.1386, -1.6904 -0.3543 1.1794, -1.6851 -0.3543 1.2201, -1.6693 -0.3543 1.2581, -1.4216 -0.3543 1.2907, -1.3966 -0.3543 1.2581, -1.3808 -0.3543 1.2201, -1.3755 -0.3543 1.1794, -1.6443 -0.3543 1.2907, -1.6117 -0.3543 1.3158, -1.5737 -0.3543 1.3315, -1.5329 -0.3543 1.3369, -1.4922 -0.3543 1.3315, -1.4542 -0.3543 1.3158, 2.2835 -0.2756 0.0394, 2.2835 1.9291 0.0394, 2.2835 -0.2756 3.9606, 2.2835 1.9291 3.9606, 2.2047 2.0079 0.0394, 2.0866 2.0079 0.0394, 2.2047 2.0079 3.9606, -2.2047 2.0079 3.9606, -2.2047 1.9291 4.0394, -2.2047 -0.2756 4.0394, 2.2047 1.9291 4.0394, 2.2047 -0.2756 4.0394, 2.2251 2.0052 0.0394, 2.2729 1.9685 0.0394, 2.2808 1.9495 0.0394, 2.2604 1.9848 0.0394, 2.2441 1.9973 0.0394, 2.2729 -0.315 0.0394, 2.2604 -0.3313 0.0394, 2.2808 -0.296 0.0394, 2.2441 -0.3438 0.0394, 2.2251 -0.3516 0.0394
            ]
        }
        coordIndex [
            0,1,2,-1,3,4,0,-1,5,6,7,-1,8,9,10,-1,11,12,13,-1,14,15,16,-1,16,15,17,-1,16,17,18,-1,18,17,19,-1,18,19,20,-1,20,19,21,-1,20,21,22,-1,22,21,23,-1,22,23,24,-1,24,23,25,-1,26,27,28,-1,28,27,11,-1,28,11,29,-1,29,11,13,-1,13,30,29,-1,29,30,31,-1,29,31,32,-1,32,31,33,-1,32,33,34,-1,34,33,35,-1,34,35,36,-1,36,35,37,-1,36,37,38,-1,39,40,41,-1,41,40,42,-1,41,42,43,-1,43,42,44,-1,43,44,45,-1,45,44,46,-1,45,46,47,-1,48,49,50,-1,50,49,51,-1,50,51,52,-1,53,54,55,-1,55,54,56,-1,47,57,45,-1,45,57,58,-1,45,58,59,-1,60,61,45,-1,45,61,62,-1,63,64,65,-1,65,64,66,-1,62,67,45,-1,45,67,66,-1,45,66,68,-1,68,66,64,-1,59,69,45,-1,45,69,70,-1,45,70,60,-1,52,71,50,-1,50,71,72,-1,50,72,55,-1,55,72,73,-1,55,73,53,-1,56,74,55,-1,55,74,75,-1,55,75,41,-1,41,75,76,-1,41,76,39,-1,77,78,79,-1,79,78,80,-1,79,80,81,-1,81,80,82,-1,77,83,84,-1,84,83,85,-1,84,85,50,-1,50,85,86,-1,50,86,48,-1,8,87,88,-1,88,87,89,-1,88,89,90,-1,91,92,93,-1,93,92,94,-1,93,94,95,-1,95,94,19,-1,95,19,96,-1,96,19,17,-1,96,17,97,-1,97,17,15,-1,97,15,98,-1,98,15,99,-1,98,99,6,-1,0,4,89,-1,89,4,100,-1,89,100,101,-1,90,89,102,-1,102,89,101,-1,102,101,103,-1,104,0,105,-1,105,0,89,-1,105,89,106,-1,106,89,87,-1,106,87,107,-1,107,87,1,-1,107,1,104,-1,104,1,0,-1,77,84,78,-1,78,84,10,-1,78,10,108,-1,108,10,9,-1,108,9,5,-1,14,24,15,-1,15,24,25,-1,15,25,99,-1,99,25,109,-1,110,111,94,-1,94,111,19,-1,19,111,112,-1,19,112,21,-1,21,112,113,-1,21,113,114,-1,92,115,94,-1,94,115,114,-1,94,114,110,-1,110,114,113,-1,116,117,103,-1,5,7,108,-1,108,7,118,-1,108,118,78,-1,78,118,119,-1,78,119,80,-1,115,120,114,-1,114,120,121,-1,114,121,21,-1,21,121,122,-1,21,122,23,-1,23,122,28,-1,23,28,25,-1,25,28,29,-1,25,29,109,-1,109,29,32,-1,123,117,124,-1,124,117,116,-1,124,116,125,-1,8,10,87,-1,87,10,84,-1,87,84,1,-1,1,84,50,-1,1,50,2,-1,2,50,126,-1,2,126,127,-1,101,3,103,-1,103,3,0,-1,103,0,116,-1,116,0,2,-1,116,2,125,-1,125,2,127,-1,125,127,55,-1,128,129,130,-1,127,128,55,-1,55,128,130,-1,55,130,50,-1,50,130,131,-1,50,131,126,-1,132,133,134,-1,134,133,41,-1,134,41,80,-1,80,41,43,-1,80,43,82,-1,132,135,119,-1,136,119,137,-1,137,119,135,-1,137,135,138,-1,138,135,139,-1,140,141,136,-1,136,141,142,-1,136,142,119,-1,119,142,143,-1,119,143,80,-1,80,143,144,-1,80,144,134,-1,119,145,146,-1,147,148,34,-1,34,148,149,-1,150,32,151,-1,151,32,152,-1,132,119,133,-1,133,119,146,-1,133,146,34,-1,34,146,153,-1,34,153,147,-1,149,154,34,-1,34,154,155,-1,34,155,156,-1,156,157,34,-1,34,157,158,-1,34,158,32,-1,32,158,159,-1,32,159,152,-1,150,160,32,-1,32,160,161,-1,32,161,162,-1,6,99,7,-1,7,99,109,-1,7,109,118,-1,118,109,32,-1,118,32,119,-1,119,32,162,-1,119,162,145,-1,120,163,121,-1,121,163,164,-1,121,164,122,-1,122,164,165,-1,122,165,28,-1,28,165,38,-1,28,38,26,-1,26,38,37,-1,166,167,168,-1,169,170,167,-1,167,170,171,-1,167,171,168,-1,172,173,174,-1,175,176,169,-1,169,176,177,-1,169,177,170,-1,175,169,178,-1,178,169,179,-1,178,179,180,-1,166,168,174,-1,174,168,181,-1,174,181,172,-1,169,167,182,-1,182,167,183,-1,184,168,91,-1,91,168,171,-1,185,186,90,-1,90,186,187,-1,95,188,189,-1,91,190,191,-1,95,189,93,-1,90,192,88,-1,88,192,8,-1,188,95,193,-1,193,95,96,-1,193,96,194,-1,194,96,97,-1,194,97,98,-1,189,195,93,-1,93,195,196,-1,93,196,91,-1,91,196,197,-1,91,197,190,-1,191,198,91,-1,91,198,199,-1,91,199,184,-1,184,199,200,-1,184,200,201,-1,98,6,194,-1,194,6,5,-1,194,5,192,-1,192,5,9,-1,192,9,8,-1,202,203,187,-1,187,203,204,-1,187,204,90,-1,90,204,205,-1,90,205,192,-1,201,206,184,-1,184,206,207,-1,184,207,208,-1,208,209,184,-1,184,209,210,-1,184,210,187,-1,187,210,211,-1,187,211,202,-1,212,213,214,-1,214,213,215,-1,216,217,123,-1,216,123,218,-1,218,123,124,-1,218,124,125,-1,125,55,218,-1,218,55,41,-1,218,41,219,-1,219,41,133,-1,219,133,34,-1,34,36,219,-1,219,36,38,-1,219,38,165,-1,170,177,163,-1,163,177,219,-1,163,219,164,-1,164,219,165,-1,220,221,222,-1,222,221,223,-1,186,185,212,-1,212,185,213,-1,185,217,213,-1,213,217,216,-1,213,216,224,-1,225,226,227,-1,227,226,213,-1,227,213,228,-1,228,213,224,-1,229,230,231,-1,231,230,232,-1,231,232,212,-1,212,232,233,-1,212,233,186,-1,92,91,171,-1,170,163,120,-1,170,120,171,-1,171,120,115,-1,171,115,92,-1,185,90,102,-1,123,217,117,-1,117,217,185,-1,117,185,103,-1,103,185,102,-1,
        ]
    }
}
Shape{
    appearance Appearance {
        material  Material 	{
            diffuseColor 0.8313725490196079 0.8313725490196079 0.8196078431372549
            specularColor 0.6666666666666666 0.6666666666666666 0.6549019607843137
            ambientIntensity 0.83
            transparency 0.0
            shininess 0.5
        }
    }
    geometry IndexedFaceSet {
        ccw TRUE
        solid FALSE
        coord DEF co Coordinate {
            point [
                -1.5984 0.0591 -1.5748, -1.5984 -0.0591 -1.5748, -1.5984 0.0591 0.2362, -1.5984 -0.0591 0.2362, -1.4016 0.0591 -1.5748, -1.4016 0.0591 0.2362, -1.4016 -0.0591 -1.5748, -1.4016 -0.0591 0.2362, -0.4016 0.0591 0.2362, -0.4016 0.0591 -1.5748, -0.5192 0.0591 0.2362, -0.5984 0.0591 -1.5748, -0.5984 0.0591 0.2362, -0.4016 -0.0591 -1.5748, -0.4016 -0.0591 0.2362, -0.5984 -0.0591 0.2362, -0.5984 -0.0591 -1.5748, -0.5192 -0.0591 0.2362, 0.5984 0.0591 -1.5748, 0.4016 0.0591 -1.5748, 0.5984 0.0591 0.2362, 0.4016 0.0591 0.2362, 0.5984 -0.0591 -1.5748, 0.5984 -0.0591 0.2362, 0.4016 -0.0591 -1.5748, 0.4016 -0.0591 0.2362, 1.5984 0.0591 -1.5748, 1.4016 0.0591 -1.5748, 1.5984 0.0591 0.2362, 1.4016 0.0591 0.2362, 1.5984 -0.0591 -1.5748, 1.5984 -0.0591 0.2362, 1.4016 -0.0591 -1.5748, 1.4016 -0.0591 0.2362
            ]
        }
        coordIndex [
            0,1,2,-1,2,1,3,-1,4,0,5,-1,5,0,2,-1,6,4,7,-1,7,4,5,-1,1,6,3,-1,3,6,7,-1,4,6,0,-1,0,6,1,-1,8,9,10,-1,10,9,11,-1,10,11,12,-1,13,9,14,-1,14,9,8,-1,15,16,17,-1,17,16,13,-1,17,13,14,-1,11,16,12,-1,12,16,15,-1,13,16,9,-1,9,16,11,-1,18,19,20,-1,20,19,21,-1,22,18,23,-1,23,18,20,-1,24,22,25,-1,25,22,23,-1,19,24,21,-1,21,24,25,-1,22,24,18,-1,18,24,19,-1,26,27,28,-1,28,27,29,-1,30,26,31,-1,31,26,28,-1,32,30,33,-1,33,30,31,-1,27,32,29,-1,29,32,33,-1,30,32,26,-1,26,32,27,-1,
        ]
    }
}
Shape{
    appearance Appearance {
        material  Material 	{
            diffuseColor 0.20784313725490197 0.20784313725490197 0.20784313725490197
            specularColor 0.01568627450980392 0.01568627450980392 0.01568627450980392
            ambientIntensity 0.298
            transparency 0.0
            shininess 0.5
        }
    }
    geometry IndexedFaceSet {
        ccw TRUE
        solid FALSE
        coord DEF co Coordinate {
            point [
                2.2047 -0.3543 3.9606, 2.2047 -0.3543 0.0394, 2.2251 -0.3516 0.0394, 2.2251 -0.3516 3.9606, 2.2441 -0.3438 0.0394, 2.2441 -0.3438 3.9606, 2.2604 -0.3313 0.0394, 2.2604 -0.3313 3.9606, 2.2729 -0.315 0.0394, 2.2729 -0.315 3.9606, 2.2808 -0.296 0.0394, 2.2808 -0.296 3.9606, 2.2835 -0.2756 0.0394, 2.2835 -0.2756 3.9606, 2.2047 -0.2756 4.0394, -2.2047 -0.2756 4.0394, -2.2047 -0.296 4.0367, 2.2047 -0.296 4.0367, -2.2047 -0.315 4.0288, 2.2047 -0.315 4.0288, -2.2047 -0.3313 4.0163, 2.2047 -0.3313 4.0163, -2.2047 -0.3438 4.0, 2.2047 -0.3438 4.0, -2.2047 -0.3516 3.981, 2.2047 -0.3516 3.981, -2.2047 -0.3543 3.9606, -2.2835 -0.2756 3.9606, -2.2835 -0.2756 0.0394, -2.2808 -0.296 0.0394, -2.2808 -0.296 3.9606, -2.2729 -0.315 0.0394, -2.2729 -0.315 3.9606, -2.2604 -0.3313 0.0394, -2.2604 -0.3313 3.9606, -2.2441 -0.3438 0.0394, -2.2441 -0.3438 3.9606, -2.2251 -0.3516 0.0394, -2.2251 -0.3516 3.9606, -2.2047 -0.3543 0.0394, 2.2808 -0.2756 3.981, 2.2782 -0.2953 3.981, 2.2388 -0.2953 4.0288, 2.2224 -0.2858 4.0367, 2.2191 -0.29 4.0367, 2.21 -0.2953 4.0367, 2.2244 -0.2809 4.0367, 2.2428 -0.2858 4.0288, 2.2585 -0.29 4.0163, 2.2251 -0.2756 4.0367, 2.2326 -0.3034 4.0288, 2.2149 -0.2932 4.0367, 2.2244 -0.3097 4.0288, 2.2149 -0.3136 4.0288, 2.2441 -0.2756 4.0288, 2.2604 -0.2756 4.0163, 2.2729 -0.2756 4.0, 2.2529 -0.3034 4.0163, 2.2441 -0.315 4.0163, 2.2326 -0.3238 4.0163, 2.2191 -0.3294 4.0163, 2.2706 -0.2932 4.0, 2.2638 -0.3097 4.0, 2.2529 -0.3238 4.0, 2.2388 -0.3346 4.0, 2.2224 -0.3415 4.0, 2.2706 -0.3136 3.981, 2.2585 -0.3294 3.981, 2.2428 -0.3415 3.981, 2.2244 -0.3491 3.981, -2.2244 -0.3491 3.981, -2.2244 -0.3097 4.0288, -2.2149 -0.2932 4.0367, -2.2191 -0.29 4.0367, -2.2251 -0.2756 4.0367, -2.2244 -0.2809 4.0367, -2.21 -0.2953 4.0367, -2.2149 -0.3136 4.0288, -2.2191 -0.3294 4.0163, -2.2326 -0.3034 4.0288, -2.2224 -0.2858 4.0367, -2.2388 -0.2953 4.0288, -2.2428 -0.2858 4.0288, -2.2441 -0.2756 4.0288, -2.2326 -0.3238 4.0163, -2.2441 -0.315 4.0163, -2.2529 -0.3034 4.0163, -2.2585 -0.29 4.0163, -2.2604 -0.2756 4.0163, -2.2224 -0.3415 4.0, -2.2388 -0.3346 4.0, -2.2529 -0.3238 4.0, -2.2638 -0.3097 4.0, -2.2706 -0.2932 4.0, -2.2729 -0.2756 4.0, -2.2428 -0.3415 3.981, -2.2585 -0.3294 3.981, -2.2706 -0.3136 3.981, -2.2782 -0.2953 3.981, -2.2808 -0.2756 3.981, 2.2835 1.9291 3.9606, 2.2835 1.9291 0.0394, 2.2808 1.9495 0.0394, 2.2808 1.9495 3.9606, 2.2729 1.9685 0.0394, 2.2729 1.9685 3.9606, 2.2604 1.9848 0.0394, 2.2604 1.9848 3.9606, 2.2441 1.9973 0.0394, 2.2441 1.9973 3.9606, 2.2251 2.0052 0.0394, 2.2251 2.0052 3.9606, 2.2047 2.0079 0.0394, 2.2047 2.0079 3.9606, 2.2047 1.9291 4.0394, 2.2251 1.9291 4.0367, 2.2441 1.9291 4.0288, 2.2604 1.9291 4.0163, 2.2729 1.9291 4.0, 2.2808 1.9291 3.981, -2.2047 1.9291 4.0394, -2.2251 1.9291 4.0367, -2.2441 1.9291 4.0288, -2.2604 1.9291 4.0163, -2.2729 1.9291 4.0, -2.2808 1.9291 3.981, -2.2835 1.9291 3.9606, -2.2047 2.0079 3.9606, -2.2047 2.0079 0.0394, -2.2251 2.0052 0.0394, -2.2251 2.0052 3.9606, -2.2441 1.9973 0.0394, -2.2441 1.9973 3.9606, -2.2604 1.9848 0.0394, -2.2604 1.9848 3.9606, -2.2729 1.9685 0.0394, -2.2729 1.9685 3.9606, -2.2808 1.9495 0.0394, -2.2808 1.9495 3.9606, -2.2835 1.9291 0.0394, 2.2047 2.0052 3.981, 2.2244 2.0026 3.981, 2.2244 1.9632 4.0288, 2.2149 1.9468 4.0367, 2.2191 1.9435 4.0367, 2.2244 1.9344 4.0367, 2.21 1.9488 4.0367, 2.2149 1.9672 4.0288, 2.2191 1.9829 4.0163, 2.2047 1.9495 4.0367, 2.2326 1.957 4.0288, 2.2224 1.9393 4.0367, 2.2388 1.9488 4.0288, 2.2428 1.9393 4.0288, 2.2047 1.9685 4.0288, 2.2047 1.9848 4.0163, 2.2047 1.9973 4.0, 2.2326 1.9774 4.0163, 2.2441 1.9685 4.0163, 2.2529 1.957 4.0163, 2.2585 1.9435 4.0163, 2.2224 1.995 4.0, 2.2388 1.9882 4.0, 2.2529 1.9774 4.0, 2.2638 1.9632 4.0, 2.2706 1.9468 4.0, 2.2428 1.995 3.981, 2.2585 1.9829 3.981, 2.2706 1.9672 3.981, 2.2782 1.9488 3.981, -2.2782 1.9488 3.981, -2.2388 1.9488 4.0288, -2.2224 1.9393 4.0367, -2.2191 1.9435 4.0367, -2.2047 1.9495 4.0367, -2.21 1.9488 4.0367, -2.2244 1.9344 4.0367, -2.2428 1.9393 4.0288, -2.2585 1.9435 4.0163, -2.2326 1.957 4.0288, -2.2149 1.9468 4.0367, -2.2244 1.9632 4.0288, -2.2149 1.9672 4.0288, -2.2047 1.9685 4.0288, -2.2529 1.957 4.0163, -2.2441 1.9685 4.0163, -2.2326 1.9774 4.0163, -2.2191 1.9829 4.0163, -2.2047 1.9848 4.0163, -2.2706 1.9468 4.0, -2.2638 1.9632 4.0, -2.2529 1.9774 4.0, -2.2388 1.9882 4.0, -2.2224 1.995 4.0, -2.2047 1.9973 4.0, -2.2706 1.9672 3.981, -2.2585 1.9829 3.981, -2.2428 1.995 3.981, -2.2244 2.0026 3.981, -2.2047 2.0052 3.981
            ]
        }
        coordIndex [
            0,1,2,-1,0,2,3,-1,3,2,4,-1,3,4,5,-1,5,4,6,-1,5,6,7,-1,7,6,8,-1,7,8,9,-1,9,8,10,-1,9,10,11,-1,11,10,12,-1,11,12,13,-1,14,15,16,-1,14,16,17,-1,17,16,18,-1,17,18,19,-1,19,18,20,-1,19,20,21,-1,21,20,22,-1,21,22,23,-1,23,22,24,-1,23,24,25,-1,25,24,26,-1,25,26,0,-1,27,28,29,-1,27,29,30,-1,30,29,31,-1,30,31,32,-1,32,31,33,-1,32,33,34,-1,34,33,35,-1,34,35,36,-1,36,35,37,-1,36,37,38,-1,38,37,39,-1,38,39,26,-1,13,40,41,-1,42,43,44,-1,14,17,45,-1,44,43,14,-1,46,14,43,-1,46,43,47,-1,47,43,42,-1,47,42,48,-1,49,14,46,-1,50,51,52,-1,52,51,45,-1,52,45,53,-1,53,45,17,-1,53,17,19,-1,49,46,54,-1,54,46,47,-1,54,47,55,-1,55,47,48,-1,55,48,56,-1,57,50,58,-1,58,50,52,-1,58,52,59,-1,59,52,53,-1,59,53,60,-1,60,53,19,-1,60,19,21,-1,61,57,62,-1,62,57,58,-1,62,58,63,-1,63,58,59,-1,63,59,64,-1,64,59,60,-1,64,60,65,-1,65,60,21,-1,65,21,23,-1,40,61,41,-1,41,61,62,-1,41,62,66,-1,66,62,63,-1,66,63,67,-1,67,63,64,-1,67,64,68,-1,68,64,65,-1,68,65,69,-1,69,65,23,-1,69,23,25,-1,13,41,11,-1,11,41,66,-1,11,66,9,-1,9,66,67,-1,9,67,7,-1,7,67,68,-1,7,68,5,-1,5,68,69,-1,5,69,3,-1,3,69,25,-1,3,25,0,-1,51,14,45,-1,40,56,61,-1,61,56,48,-1,61,48,57,-1,57,48,42,-1,57,42,50,-1,50,42,44,-1,50,44,51,-1,51,44,14,-1,26,24,70,-1,71,72,73,-1,15,74,75,-1,73,72,15,-1,76,15,72,-1,76,72,77,-1,77,72,71,-1,77,71,78,-1,16,15,76,-1,79,80,81,-1,81,80,75,-1,81,75,82,-1,82,75,74,-1,82,74,83,-1,16,76,18,-1,18,76,77,-1,18,77,20,-1,20,77,78,-1,20,78,22,-1,84,79,85,-1,85,79,81,-1,85,81,86,-1,86,81,82,-1,86,82,87,-1,87,82,83,-1,87,83,88,-1,89,84,90,-1,90,84,85,-1,90,85,91,-1,91,85,86,-1,91,86,92,-1,92,86,87,-1,92,87,93,-1,93,87,88,-1,93,88,94,-1,24,89,70,-1,70,89,90,-1,70,90,95,-1,95,90,91,-1,95,91,96,-1,96,91,92,-1,96,92,97,-1,97,92,93,-1,97,93,98,-1,98,93,94,-1,98,94,99,-1,26,70,38,-1,38,70,95,-1,38,95,36,-1,36,95,96,-1,36,96,34,-1,34,96,97,-1,34,97,32,-1,32,97,98,-1,32,98,30,-1,30,98,99,-1,30,99,27,-1,80,15,75,-1,24,22,89,-1,89,22,78,-1,89,78,84,-1,84,78,71,-1,84,71,79,-1,79,71,73,-1,79,73,80,-1,80,73,15,-1,100,101,102,-1,100,102,103,-1,103,102,104,-1,103,104,105,-1,105,104,106,-1,105,106,107,-1,107,106,108,-1,107,108,109,-1,109,108,110,-1,109,110,111,-1,111,110,112,-1,111,112,113,-1,114,14,49,-1,114,49,115,-1,115,49,54,-1,115,54,116,-1,116,54,55,-1,116,55,117,-1,117,55,56,-1,117,56,118,-1,118,56,40,-1,118,40,119,-1,119,40,13,-1,119,13,100,-1,15,120,121,-1,15,121,74,-1,74,121,122,-1,74,122,83,-1,83,122,123,-1,83,123,88,-1,88,123,124,-1,88,124,94,-1,94,124,125,-1,94,125,99,-1,99,125,126,-1,99,126,27,-1,127,128,129,-1,127,129,130,-1,130,129,131,-1,130,131,132,-1,132,131,133,-1,132,133,134,-1,134,133,135,-1,134,135,136,-1,136,135,137,-1,136,137,138,-1,138,137,139,-1,138,139,126,-1,113,140,141,-1,142,143,144,-1,114,115,145,-1,144,143,114,-1,146,114,143,-1,146,143,147,-1,147,143,142,-1,147,142,148,-1,149,114,146,-1,150,151,152,-1,152,151,145,-1,152,145,153,-1,153,145,115,-1,153,115,116,-1,149,146,154,-1,154,146,147,-1,154,147,155,-1,155,147,148,-1,155,148,156,-1,157,150,158,-1,158,150,152,-1,158,152,159,-1,159,152,153,-1,159,153,160,-1,160,153,116,-1,160,116,117,-1,161,157,162,-1,162,157,158,-1,162,158,163,-1,163,158,159,-1,163,159,164,-1,164,159,160,-1,164,160,165,-1,165,160,117,-1,165,117,118,-1,140,161,141,-1,141,161,162,-1,141,162,166,-1,166,162,163,-1,166,163,167,-1,167,163,164,-1,167,164,168,-1,168,164,165,-1,168,165,169,-1,169,165,118,-1,169,118,119,-1,113,141,111,-1,111,141,166,-1,111,166,109,-1,109,166,167,-1,109,167,107,-1,107,167,168,-1,107,168,105,-1,105,168,169,-1,105,169,103,-1,103,169,119,-1,103,119,100,-1,151,114,145,-1,140,156,161,-1,161,156,148,-1,161,148,157,-1,157,148,142,-1,157,142,150,-1,150,142,144,-1,150,144,151,-1,151,144,114,-1,126,125,170,-1,171,172,173,-1,120,174,175,-1,173,172,120,-1,176,120,172,-1,176,172,177,-1,177,172,171,-1,177,171,178,-1,121,120,176,-1,179,180,181,-1,181,180,175,-1,181,175,182,-1,182,175,174,-1,182,174,183,-1,121,176,122,-1,122,176,177,-1,122,177,123,-1,123,177,178,-1,123,178,124,-1,184,179,185,-1,185,179,181,-1,185,181,186,-1,186,181,182,-1,186,182,187,-1,187,182,183,-1,187,183,188,-1,189,184,190,-1,190,184,185,-1,190,185,191,-1,191,185,186,-1,191,186,192,-1,192,186,187,-1,192,187,193,-1,193,187,188,-1,193,188,194,-1,125,189,170,-1,170,189,190,-1,170,190,195,-1,195,190,191,-1,195,191,196,-1,196,191,192,-1,196,192,197,-1,197,192,193,-1,197,193,198,-1,198,193,194,-1,198,194,199,-1,126,170,138,-1,138,170,195,-1,138,195,136,-1,136,195,196,-1,136,196,134,-1,134,196,197,-1,134,197,132,-1,132,197,198,-1,132,198,130,-1,130,198,199,-1,130,199,127,-1,180,120,175,-1,125,124,189,-1,189,124,178,-1,189,178,184,-1,184,178,171,-1,184,171,179,-1,179,171,173,-1,179,173,180,-1,180,173,120,-1,120,114,149,-1,120,149,174,-1,174,149,154,-1,174,154,183,-1,183,154,155,-1,183,155,188,-1,188,155,156,-1,188,156,194,-1,194,156,140,-1,194,140,199,-1,199,140,113,-1,199,113,127,-1,
        ]
    }
}
Shape{
    appearance Appearance {
        material  Material 	{
            diffuseColor 0.8313725490196079 0.8313725490196079 0.8196078431372549
            specularColor 0.6666666666666666 0.6666666666666666 0.6549019607843137
            ambientIntensity 0.83
            transparency 0.0
            shininess 0.5
        }
    }
    geometry IndexedFaceSet {
        ccw TRUE
        solid FALSE
        coord DEF co Coordinate {
            point [
                -0.3166 0.8165 0.2402, -0.31 0.7949 0.2402, -0.3825 0.8165 0.2402, -0.3913 0.7949 0.2402, -0.346 0.8987 0.2402, -0.3368 0.9365 0.2402, -0.2624 0.7396 0.2402, -0.2912 0.7396 0.2402, -0.3479 0.9055 0.2402, -0.3492 0.9125 0.2402, -0.3632 0.9365 0.2402, -0.3498 0.9125 0.2402, -0.3511 0.9055 0.2402, -0.3528 0.8987 0.2402, -0.44 0.7396 0.2402, -0.4112 0.7396 0.2402, -0.3913 0.7949 0.2362, -0.4112 0.7396 0.2362, -0.332 0.7949 0.2362, -0.31 0.7949 0.2362, -0.2912 0.7396 0.2362, -0.2624 0.7396 0.2362, -0.332 0.9237 0.2362, -0.3368 0.9365 0.2362, -0.3632 0.9365 0.2362, -0.44 0.7396 0.2362, -0.3528 0.8987 0.2362, -0.3511 0.9055 0.2362, -0.3498 0.9125 0.2362, -0.3492 0.9125 0.2362, -0.3479 0.9055 0.2362, -0.346 0.8987 0.2362, -0.3166 0.8165 0.2362, -0.3825 0.8165 0.2362, -0.1451 0.9365 0.2402, -0.1451 0.9365 0.2362, -0.0896 0.9365 0.2402, -0.0896 0.9365 0.2362, -0.1735 0.9335 0.2402, -0.1735 0.9335 0.2362, -0.1966 0.9254 0.2402, -0.1966 0.9254 0.2362, -0.218 0.911 0.2402, -0.218 0.911 0.2362, -0.2182 0.9108 0.2402, -0.2182 0.9108 0.2362, -0.2321 0.8954 0.2402, -0.2321 0.8954 0.2362, -0.2413 0.8785 0.2402, -0.2413 0.8785 0.2362, -0.2466 0.8591 0.2402, -0.2466 0.8591 0.2362, -0.248 0.8405 0.2402, -0.248 0.8405 0.2362, -0.2452 0.8142 0.2402, -0.2452 0.8142 0.2362, -0.2382 0.7936 0.2402, -0.2382 0.7936 0.2362, -0.2269 0.776 0.2402, -0.2269 0.776 0.2362, -0.2107 0.7605 0.2402, -0.2107 0.7605 0.2362, -0.1901 0.7485 0.2402, -0.1901 0.7485 0.2362, -0.1674 0.7418 0.2402, -0.1674 0.7418 0.2362, -0.1431 0.7396 0.2402, -0.1431 0.7396 0.2362, -0.0896 0.7396 0.2402, -0.0896 0.7396 0.2362, -0.2085 0.8873 0.2402, -0.1989 0.8974 0.2402, -0.1845 0.9067 0.2402, -0.1683 0.9124 0.2402, -0.145 0.9149 0.2402, -0.116 0.9149 0.2402, -0.116 0.7612 0.2402, -0.1439 0.7612 0.2402, -0.1647 0.7632 0.2402, -0.1812 0.7684 0.2402, -0.1947 0.7763 0.2402, -0.2057 0.7872 0.2402, -0.214 0.8008 0.2402, -0.2198 0.8193 0.2402, -0.2216 0.84 0.2402, -0.2199 0.8596 0.2402, -0.2153 0.8751 0.2402, -0.1439 0.7612 0.2362, -0.116 0.7612 0.2362, -0.1647 0.7632 0.2362, -0.1812 0.7684 0.2362, -0.1947 0.7763 0.2362, -0.2057 0.7872 0.2362, -0.214 0.8008 0.2362, -0.2198 0.8193 0.2362, -0.2216 0.84 0.2362, -0.2199 0.8596 0.2362, -0.2153 0.8751 0.2362, -0.2085 0.8873 0.2362, -0.1989 0.8974 0.2362, -0.1845 0.9067 0.2362, -0.1683 0.9124 0.2362, -0.145 0.9149 0.2362, -0.116 0.9149 0.2362, 0.0545 0.9365 0.2402, 0.0545 0.9365 0.2362, 0.0545 0.7396 0.2402, 0.0545 0.7396 0.2362, -0.0463 0.9365 0.2402, -0.0463 0.9365 0.2362, -0.0463 0.9149 0.2402, -0.0463 0.9149 0.2362, 0.0281 0.9149 0.2402, 0.0281 0.9149 0.2362, 0.0281 0.8501 0.2402, 0.0281 0.8501 0.2362, -0.0415 0.8501 0.2402, -0.0415 0.8501 0.2362, -0.0415 0.8285 0.2402, -0.0415 0.8285 0.2362, 0.0281 0.8285 0.2402, 0.0281 0.8285 0.2362, 0.0281 0.7612 0.2402, 0.0281 0.7612 0.2362, -0.0511 0.7612 0.2402, -0.0511 0.7612 0.2362, -0.0511 0.7396 0.2402, -0.0511 0.7396 0.2362, 0.1586 0.7384 0.2362, 0.1471 0.7372 0.2362, 0.1471 0.7372 0.2402, 0.1713 0.7398 0.2362, 0.1713 0.7398 0.2402, 0.1904 0.7463 0.2402, 0.1904 0.7463 0.2362, 0.2062 0.7564 0.2402, 0.2062 0.7564 0.2362, 0.221 0.772 0.2402, 0.221 0.772 0.2362, 0.2315 0.7907 0.2402, 0.2315 0.7907 0.2362, 0.2374 0.8116 0.2402, 0.2374 0.8116 0.2362, 0.2393 0.8344 0.2402, 0.2393 0.8344 0.2362, 0.2365 0.8623 0.2402, 0.2365 0.8623 0.2362, 0.2289 0.8846 0.2402, 0.2289 0.8846 0.2362, 0.2174 0.903 0.2402, 0.2174 0.903 0.2362, 0.1996 0.9201 0.2402, 0.1996 0.9201 0.2362, 0.1809 0.9309 0.2402, 0.1809 0.9309 0.2362, 0.159 0.9373 0.2402, 0.159 0.9373 0.2362, 0.1392 0.9389 0.2402, 0.1392 0.9389 0.2362, 0.1157 0.9373 0.2402, 0.1157 0.9373 0.2362, 0.0929 0.9311 0.2402, 0.0929 0.9311 0.2362, 0.0929 0.9047 0.2402, 0.0929 0.9047 0.2362, 0.1151 0.9142 0.2402, 0.1151 0.9142 0.2362, 0.139 0.9173 0.2402, 0.139 0.9173 0.2362, 0.1584 0.9151 0.2402, 0.1584 0.9151 0.2362, 0.1731 0.9098 0.2402, 0.1731 0.9098 0.2362, 0.1867 0.9007 0.2402, 0.1867 0.9007 0.2362, 0.1986 0.8876 0.2402, 0.1986 0.8876 0.2362, 0.2067 0.8724 0.2402, 0.2067 0.8724 0.2362, 0.212 0.8513 0.2402, 0.212 0.8513 0.2362, 0.2129 0.836 0.2402, 0.2129 0.836 0.2362, 0.2109 0.8147 0.2402, 0.2109 0.8147 0.2362, 0.2056 0.7977 0.2402, 0.2056 0.7977 0.2362, 0.1974 0.7841 0.2402, 0.1974 0.7841 0.2362, 0.1882 0.7743 0.2402, 0.1882 0.7743 0.2362, 0.1761 0.7662 0.2402, 0.1761 0.7662 0.2362, 0.1618 0.7609 0.2402, 0.1618 0.7609 0.2362, 0.1434 0.7588 0.2402, 0.1434 0.7588 0.2362, 0.1173 0.7617 0.2402, 0.1173 0.7617 0.2362, 0.0964 0.7695 0.2402, 0.0964 0.7695 0.2362, 0.0929 0.7714 0.2402, 0.0929 0.7714 0.2362, 0.0929 0.7498 0.2402, 0.0929 0.7498 0.2362, 0.1139 0.7412 0.2362, 0.1139 0.7412 0.2402, 0.1338 0.7384 0.2362, 0.1417 0.7373 0.2402, 0.1417 0.7373 0.2362, 0.357 0.9365 0.2402, 0.357 0.9365 0.2362, 0.357 0.7396 0.2402, 0.357 0.7396 0.2362, 0.3306 0.9365 0.2402, 0.3306 0.9365 0.2362, 0.3306 0.7612 0.2402, 0.3306 0.7612 0.2362, 0.2561 0.7612 0.2402, 0.2561 0.7612 0.2362, 0.2561 0.7396 0.2402, 0.2561 0.7396 0.2362
            ]
        }
        coordIndex [
            0,1,2,-1,2,1,3,-1,4,5,0,-1,0,5,6,-1,0,6,1,-1,1,6,7,-1,4,8,5,-1,5,8,9,-1,5,9,10,-1,10,9,11,-1,10,11,12,-1,12,13,10,-1,10,13,2,-1,10,2,14,-1,14,2,3,-1,14,3,15,-1,3,16,15,-1,15,16,17,-1,16,3,18,-1,18,3,1,-1,18,1,19,-1,7,20,1,-1,1,20,19,-1,6,21,7,-1,7,21,20,-1,21,6,22,-1,22,6,5,-1,22,5,23,-1,10,24,5,-1,5,24,23,-1,14,25,10,-1,10,25,24,-1,14,15,25,-1,25,15,17,-1,26,13,12,-1,26,12,27,-1,27,12,11,-1,27,11,28,-1,9,29,11,-1,11,29,28,-1,29,9,8,-1,29,8,30,-1,30,8,4,-1,30,4,31,-1,0,32,4,-1,4,32,31,-1,2,33,0,-1,0,33,32,-1,26,33,13,-1,13,33,2,-1,34,35,36,-1,36,35,37,-1,35,34,38,-1,35,38,39,-1,39,38,40,-1,39,40,41,-1,41,40,42,-1,41,42,43,-1,43,42,44,-1,43,44,45,-1,45,44,46,-1,45,46,47,-1,47,46,48,-1,47,48,49,-1,49,48,50,-1,49,50,51,-1,51,50,52,-1,51,52,53,-1,53,52,54,-1,53,54,55,-1,55,54,56,-1,55,56,57,-1,57,56,58,-1,57,58,59,-1,59,58,60,-1,59,60,61,-1,61,60,62,-1,61,62,63,-1,63,62,64,-1,63,64,65,-1,65,64,66,-1,65,66,67,-1,68,69,66,-1,66,69,67,-1,68,36,69,-1,69,36,37,-1,48,46,70,-1,70,46,44,-1,70,44,71,-1,71,44,42,-1,71,42,72,-1,72,42,40,-1,72,40,73,-1,73,40,38,-1,73,38,74,-1,74,38,34,-1,74,34,75,-1,75,34,36,-1,75,36,76,-1,76,36,68,-1,76,68,77,-1,77,68,66,-1,77,66,78,-1,78,66,64,-1,78,64,79,-1,79,64,62,-1,79,62,80,-1,80,62,60,-1,80,60,81,-1,81,60,58,-1,81,58,82,-1,82,58,56,-1,82,56,83,-1,83,56,54,-1,83,54,84,-1,84,54,52,-1,84,52,85,-1,85,52,50,-1,85,50,86,-1,86,50,48,-1,86,48,70,-1,77,87,76,-1,76,87,88,-1,87,77,78,-1,87,78,89,-1,89,78,79,-1,89,79,90,-1,90,79,80,-1,90,80,91,-1,91,80,81,-1,91,81,92,-1,92,81,82,-1,92,82,93,-1,93,82,83,-1,93,83,94,-1,94,83,84,-1,94,84,95,-1,95,84,85,-1,95,85,96,-1,96,85,86,-1,96,86,97,-1,97,86,70,-1,97,70,98,-1,98,70,71,-1,98,71,99,-1,99,71,72,-1,99,72,100,-1,100,72,73,-1,100,73,101,-1,101,73,74,-1,101,74,102,-1,75,103,74,-1,74,103,102,-1,88,103,76,-1,76,103,75,-1,104,105,106,-1,106,105,107,-1,108,109,104,-1,104,109,105,-1,110,111,108,-1,108,111,109,-1,112,113,110,-1,110,113,111,-1,114,115,112,-1,112,115,113,-1,116,117,114,-1,114,117,115,-1,118,119,116,-1,116,119,117,-1,120,121,118,-1,118,121,119,-1,122,123,120,-1,120,123,121,-1,124,125,122,-1,122,125,123,-1,126,127,124,-1,124,127,125,-1,126,106,127,-1,127,106,107,-1,106,126,124,-1,124,122,106,-1,106,122,120,-1,106,120,104,-1,110,108,112,-1,112,108,104,-1,112,104,114,-1,114,104,120,-1,114,120,116,-1,116,120,118,-1,128,129,130,-1,128,130,131,-1,130,132,131,-1,131,132,133,-1,131,133,134,-1,134,133,135,-1,134,135,136,-1,136,135,137,-1,136,137,138,-1,138,137,139,-1,138,139,140,-1,140,139,141,-1,140,141,142,-1,142,141,143,-1,142,143,144,-1,144,143,145,-1,144,145,146,-1,146,145,147,-1,146,147,148,-1,148,147,149,-1,148,149,150,-1,150,149,151,-1,150,151,152,-1,152,151,153,-1,152,153,154,-1,154,153,155,-1,154,155,156,-1,156,155,157,-1,156,157,158,-1,158,157,159,-1,158,159,160,-1,160,159,161,-1,160,161,162,-1,163,164,161,-1,161,164,162,-1,164,163,165,-1,164,165,166,-1,166,165,167,-1,166,167,168,-1,168,167,169,-1,168,169,170,-1,170,169,171,-1,170,171,172,-1,172,171,173,-1,172,173,174,-1,174,173,175,-1,174,175,176,-1,176,175,177,-1,176,177,178,-1,178,177,179,-1,178,179,180,-1,180,179,181,-1,180,181,182,-1,182,181,183,-1,182,183,184,-1,184,183,185,-1,184,185,186,-1,186,185,187,-1,186,187,188,-1,188,187,189,-1,188,189,190,-1,190,189,191,-1,190,191,192,-1,192,191,193,-1,192,193,194,-1,194,193,195,-1,194,195,196,-1,196,195,197,-1,196,197,198,-1,198,197,199,-1,198,199,200,-1,200,199,201,-1,200,201,202,-1,203,204,201,-1,201,204,202,-1,205,204,206,-1,206,204,203,-1,205,206,207,-1,207,206,208,-1,207,208,209,-1,209,208,130,-1,209,130,129,-1,193,130,195,-1,195,130,208,-1,195,208,197,-1,197,208,206,-1,197,206,199,-1,199,206,203,-1,199,203,201,-1,163,161,165,-1,165,161,159,-1,165,159,167,-1,167,159,157,-1,167,157,169,-1,169,157,155,-1,169,155,171,-1,171,155,153,-1,171,153,173,-1,173,153,151,-1,173,151,175,-1,175,151,149,-1,175,149,177,-1,177,149,147,-1,177,147,179,-1,179,147,145,-1,179,145,181,-1,181,145,143,-1,181,143,183,-1,183,143,141,-1,183,141,185,-1,185,141,139,-1,185,139,187,-1,187,139,137,-1,187,137,189,-1,189,137,135,-1,189,135,191,-1,191,135,133,-1,191,133,193,-1,193,133,132,-1,193,132,130,-1,210,211,212,-1,212,211,213,-1,214,215,210,-1,210,215,211,-1,216,217,214,-1,214,217,215,-1,218,219,216,-1,216,219,217,-1,220,221,218,-1,218,221,219,-1,220,212,221,-1,221,212,213,-1,214,210,216,-1,216,210,212,-1,216,212,218,-1,218,212,220,-1,
        ]
    }
}
Shape{
    appearance Appearance {
        material  Material 	{
            diffuseColor 0.20784313725490197 0.20784313725490197 0.20784313725490197
            specularColor 0.01568627450980392 0.01568627450980392 0.01568627450980392
            ambientIntensity 0.298
            transparency 0.0
            shininess 0.5
        }
    }
    geometry IndexedFaceSet {
        ccw TRUE
        solid FALSE
        coord DEF co Coordinate {
            point [
                -0.3166 0.8165 0.2362, -0.3825 0.8165 0.2362, -0.346 0.8987 0.2362, -0.3528 0.8987 0.2362, -0.3479 0.9055 0.2362, -0.3511 0.9055 0.2362, -0.3492 0.9125 0.2362, -0.3498 0.9125 0.2362, -0.116 0.9149 0.2362, -0.116 0.7612 0.2362, -0.145 0.9149 0.2362, -0.1439 0.7612 0.2362, -0.1647 0.7632 0.2362, -0.2216 0.84 0.2362, -0.2199 0.8596 0.2362, -0.2153 0.8751 0.2362, -0.1683 0.9124 0.2362, -0.1812 0.7684 0.2362, -0.1947 0.7763 0.2362, -0.2057 0.7872 0.2362, -0.214 0.8008 0.2362, -0.2198 0.8193 0.2362, -0.2085 0.8873 0.2362, -0.1989 0.8974 0.2362, -0.1845 0.9067 0.2362
            ]
        }
        coordIndex [
            0,1,2,-1,2,1,3,-1,2,3,4,-1,4,3,5,-1,4,5,6,-1,6,5,7,-1,8,9,10,-1,10,9,11,-1,10,11,12,-1,13,14,10,-1,10,14,15,-1,10,15,16,-1,12,17,10,-1,10,17,18,-1,10,18,19,-1,19,20,10,-1,10,20,21,-1,10,21,13,-1,22,23,15,-1,15,23,24,-1,15,24,16,-1,
        ]
    }
}
Shape{
    appearance Appearance {
        material  Material 	{
            diffuseColor 0.8313725490196079 0.8313725490196079 0.8196078431372549
            specularColor 0.6666666666666666 0.6666666666666666 0.6549019607843137
            ambientIntensity 0.83
            transparency 0.0
            shininess 0.5
        }
    }
    geometry IndexedFaceSet {
        ccw TRUE
        solid FALSE
        coord DEF co Coordinate {
            point [
                -1.3755 -0.3465 1.1794, -1.3755 -0.3543 1.1794, -1.3808 -0.3465 1.2201, -1.3808 -0.3543 1.2201, -1.3966 -0.3465 1.2581, -1.3966 -0.3543 1.2581, -1.4216 -0.3465 1.2907, -1.4216 -0.3543 1.2907, -1.4542 -0.3465 1.3158, -1.4542 -0.3543 1.3158, -1.4922 -0.3465 1.3315, -1.4922 -0.3543 1.3315, -1.5329 -0.3465 1.3369, -1.5329 -0.3543 1.3369, -1.5737 -0.3465 1.3315, -1.5737 -0.3543 1.3315, -1.6117 -0.3465 1.3158, -1.6117 -0.3543 1.3158, -1.6443 -0.3465 1.2907, -1.6443 -0.3543 1.2907, -1.6693 -0.3465 1.2581, -1.6693 -0.3543 1.2581, -1.6851 -0.3465 1.2201, -1.6851 -0.3543 1.2201, -1.6904 -0.3465 1.1794, -1.6904 -0.3543 1.1794, -1.6851 -0.3465 1.1386, -1.6851 -0.3543 1.1386, -1.6693 -0.3465 1.1006, -1.6693 -0.3543 1.1006, -1.6443 -0.3465 1.068, -1.6443 -0.3543 1.068, -1.6117 -0.3465 1.043, -1.6117 -0.3543 1.043, -1.5737 -0.3465 1.0273, -1.5737 -0.3543 1.0273, -1.5329 -0.3465 1.0219, -1.5329 -0.3543 1.0219, -1.4922 -0.3465 1.0273, -1.4922 -0.3543 1.0273, -1.4542 -0.3465 1.043, -1.4542 -0.3543 1.043, -1.4216 -0.3465 1.068, -1.4216 -0.3543 1.068, -1.3966 -0.3465 1.1006, -1.3966 -0.3543 1.1006, -1.3808 -0.3465 1.1386, -1.3808 -0.3543 1.1386, -1.5329 -0.3465 1.1794
            ]
        }
        coordIndex [
            0,1,2,-1,2,1,3,-1,2,3,4,-1,4,3,5,-1,4,5,6,-1,6,5,7,-1,6,7,8,-1,8,7,9,-1,8,9,10,-1,10,9,11,-1,10,11,12,-1,12,11,13,-1,12,13,14,-1,14,13,15,-1,14,15,16,-1,16,15,17,-1,16,17,18,-1,18,17,19,-1,18,19,20,-1,20,19,21,-1,20,21,22,-1,22,21,23,-1,22,23,24,-1,24,23,25,-1,24,25,26,-1,26,25,27,-1,26,27,28,-1,28,27,29,-1,28,29,30,-1,30,29,31,-1,30,31,32,-1,32,31,33,-1,32,33,34,-1,34,33,35,-1,34,35,36,-1,36,35,37,-1,36,37,38,-1,38,37,39,-1,38,39,40,-1,40,39,41,-1,40,41,42,-1,42,41,43,-1,42,43,44,-1,44,43,45,-1,44,45,46,-1,46,45,47,-1,46,47,0,-1,0,47,1,-1,20,22,48,-1,48,22,24,-1,48,24,26,-1,14,16,48,-1,48,16,18,-1,48,18,20,-1,8,10,48,-1,48,10,12,-1,48,12,14,-1,2,4,48,-1,48,4,6,-1,48,6,8,-1,44,46,48,-1,48,46,0,-1,48,0,2,-1,38,40,48,-1,48,40,42,-1,48,42,44,-1,32,34,48,-1,48,34,36,-1,48,36,38,-1,26,28,48,-1,48,28,30,-1,48,30,32,-1,
        ]
    }
}