#VRML V2.0 utf8
# 3D model generated by easyeda2kicad.py (https://github.com/uPesy/easyeda2kicad.py)

Shape{
    appearance Appearance {
        material  Material 	{
            diffuseColor 0.20784313725490197 0.20784313725490197 0.20784313725490197
            specularColor 0.01568627450980392 0.01568627450980392 0.01568627450980392
            ambientIntensity 0.298
            transparency 0.0
            shininess 0.5
        }
    }
    geometry IndexedFaceSet {
        ccw TRUE
        solid FALSE
        coord DEF co Coordinate {
            point [
                1.2458 -0.2736 0.6505, 1.2458 -0.2736 0.6006, 1.3672 -0.2736 0.6006, 1.5127 -0.2736 0.6511, 1.5076 -0.2736 0.6505, 1.5391 -0.2736 0.6505, 1.4478 -0.2736 0.8513, 1.4397 -0.2736 0.8506, 1.4815 -0.2736 0.8506, 1.7727 -0.2736 0.8861, 1.7264 -0.2736 0.8861, 1.7855 -0.2736 0.8516, 1.7264 -0.2736 0.8506, 1.8035 -0.2736 0.8516, 2.185 -0.2736 0.8506, 2.185 -0.2736 3.8976, 1.7555 -0.2736 0.9777, 1.7202 -0.2736 0.8861, 1.708 -0.2736 0.8516, 1.6865 -0.2736 0.8506, 1.69 -0.2736 0.8516, 1.7264 -0.2736 0.947, 1.4635 -0.2736 0.8724, 1.4635 -0.2736 0.9577, 1.4621 -0.2736 0.9584, 1.4614 -0.2736 0.8558, 1.4635 -0.2736 0.8568, 1.4154 -0.2736 0.9776, 1.4336 -0.2736 0.9798, 1.4815 -0.2736 3.8976, 1.4501 -0.2736 0.9785, 1.4635 -0.2736 0.9747, 1.3873 -0.2736 0.9613, 1.3904 -0.2736 0.9643, 1.4022 -0.2736 0.9725, 1.4493 -0.2736 0.9633, 1.4338 -0.2736 0.9651, 1.4278 -0.2736 0.9648, 1.417 -0.2736 0.9625, 1.4071 -0.2736 0.9577, 1.3994 -0.2736 0.9512, 1.3986 -0.2736 0.9502, 1.3925 -0.2736 0.9415, 1.3883 -0.2736 0.9306, 1.3862 -0.2736 0.9133, 1.3864 -0.2736 0.9075, 1.4511 -0.2736 0.8669, 1.4368 -0.2736 0.8642, 1.431 -0.2736 0.864, 1.3886 -0.2736 0.8951, 1.3928 -0.2736 0.8851, 1.3986 -0.2736 0.8773, 1.4022 -0.2736 0.8738, 1.42 -0.2736 0.8651, 1.4107 -0.2736 0.8683, 1.3747 -0.2736 0.8837, 1.3716 -0.2736 0.8918, 1.3672 -0.2736 0.8506, 1.3691 -0.2736 0.9123, 1.3693 -0.2736 0.9189, 1.3722 -0.2736 0.9353, 1.3747 -0.2736 3.8976, 1.3747 -0.2736 0.9413, 1.3782 -0.2736 0.9493, 1.3954 -0.2736 0.8583, 1.3853 -0.2736 0.8667, 1.3747 -0.2736 0.8506, 1.3842 -0.2736 0.8679, 1.3767 -0.2736 0.8786, 1.4286 -0.2736 0.8495, 1.421 -0.2736 0.8499, 1.3747 -0.2736 0.8136, 1.4176 -0.2736 0.8506, 1.4073 -0.2736 0.8527, 1.6133 -0.2736 0.7416, 1.6296 -0.2736 0.7416, 1.6382 -0.2736 0.8136, 1.5844 -0.2736 0.674, 1.5863 -0.2736 0.6665, 1.5867 -0.2736 0.6665, 1.5685 -0.2736 0.8136, 1.5685 -0.2736 0.7197, 1.5887 -0.2736 0.6738, 1.5875 -0.2736 0.6696, 1.5685 -0.2736 0.6505, 1.5685 -0.2736 0.6773, 1.5432 -0.2736 0.7416, 1.5391 -0.2736 0.8136, 1.5609 -0.2736 0.7416, 1.5785 -0.2736 0.6518, 1.578 -0.2736 0.6505, 1.5716 -0.2736 0.6354, 1.5391 -0.2736 0.6006, 1.5464 -0.2736 0.6105, 1.5464 -0.2736 0.6245, 1.5655 -0.2736 0.6264, 1.5684 -0.2736 0.6297, 1.5685 -0.2736 0.6297, 1.5685 -0.2736 0.612, 1.563 -0.2736 0.6099, 1.5685 -0.2736 0.6006, 1.5566 -0.2736 0.6092, 1.5531 -0.2736 0.6093, 1.5554 -0.2736 0.6227, 1.5594 -0.2736 0.6232, 1.5628 -0.2736 0.6245, 1.5888 -0.2736 0.638, 1.5816 -0.2736 0.6241, 1.6382 -0.2736 0.6006, 1.5937 -0.2736 0.6505, 1.5758 -0.2736 0.6171, 1.5748 -0.2736 0.6161, 1.5692 -0.2736 0.6123, -2.185 -0.2736 0.6006, -2.185 -0.2736 0.0394, -2.0669 -0.2736 0.2362, -2.0669 -0.2736 0.0394, -1.7983 -0.2736 0.5005, -1.8425 -0.2736 0.5188, -1.8805 -0.2736 0.5479, -1.9096 -0.2736 0.5859, -1.6213 -0.2736 0.5479, -1.6592 -0.2736 0.5188, -0.4727 -0.2736 0.2362, -1.7034 -0.2736 0.5005, -1.7509 -0.2736 0.4943, -0.4727 -0.2736 0.6006, -0.4727 -0.2736 0.6505, -1.5711 -0.2736 0.6505, -1.5738 -0.2736 0.6301, -1.5861 -0.2736 0.6006, -1.5921 -0.2736 0.5859, -1.6213 -0.2736 0.8072, -1.5921 -0.2736 0.7692, -0.4727 -0.2736 0.8136, -1.5738 -0.2736 0.725, -1.5676 -0.2736 0.6776, -0.4727 -0.2736 0.8506, -1.6592 -0.2736 0.8363, -1.6296 -0.2736 0.8136, -2.185 -0.2736 3.8976, -2.185 -0.2736 0.8506, -1.8081 -0.2736 0.8506, -1.7983 -0.2736 0.8546, -1.7509 -0.2736 0.8609, -0.4727 -0.2736 3.8976, -1.7034 -0.2736 0.8546, -1.6936 -0.2736 0.8506, -1.9096 -0.2736 0.7692, -1.8805 -0.2736 0.8072, -2.185 -0.2736 0.8136, -1.8721 -0.2736 0.8136, -1.8425 -0.2736 0.8363, -2.185 -0.2736 0.6505, -1.9342 -0.2736 0.6776, -1.9279 -0.2736 0.725, -1.9157 -0.2736 0.6006, -1.9279 -0.2736 0.6301, -1.9306 -0.2736 0.6505, 2.0669 -0.2736 0.0394, 2.185 -0.2736 0.0394, 2.0669 -0.2736 0.2362, 2.185 -0.2736 0.6006, 1.7264 -0.2736 0.2362, 1.5297 -0.2736 0.691, 1.5326 -0.2736 0.6866, 1.5307 -0.2736 0.7244, 1.4797 -0.2736 0.7323, 1.4815 -0.2736 0.7339, 1.4815 -0.2736 0.8136, 1.4844 -0.2736 0.7366, 1.4895 -0.2736 0.7396, 1.5343 -0.2736 0.682, 1.535 -0.2736 0.6761, 1.5342 -0.2736 0.6697, 1.5323 -0.2736 0.6647, 1.5293 -0.2736 0.6606, 1.4983 -0.2736 0.7426, 1.5093 -0.2736 0.7437, 1.5307 -0.2736 0.7397, 1.5204 -0.2736 0.7427, 1.5248 -0.2736 0.6566, 1.5211 -0.2736 0.6543, 1.5078 -0.2736 0.7309, 1.5031 -0.2736 0.7305, 1.4905 -0.2736 0.7188, 1.4989 -0.2736 0.7294, 1.4953 -0.2736 0.7275, 1.4907 -0.2736 0.7167, 1.4913 -0.2736 0.7142, 1.4924 -0.2736 0.7121, 1.494 -0.2736 0.7104, 1.4995 -0.2736 0.7069, 1.5178 -0.2736 0.7298, 1.5093 -0.2736 0.7026, 1.5268 -0.2736 0.7266, 1.5154 -0.2736 0.7002, 1.5259 -0.2736 0.6943, 1.4929 -0.2736 0.7254, 1.4916 -0.2736 0.7234, 1.4908 -0.2736 0.7213, 1.4179 -0.2736 0.6506, 1.4176 -0.2736 0.6505, 1.437 -0.2736 0.6516, 1.387 -0.2736 0.6948, 1.3892 -0.2736 0.72, 1.3838 -0.2736 0.6903, 1.3815 -0.2736 0.6848, 1.4527 -0.2736 0.6516, 1.4742 -0.2736 0.6711, 1.4527 -0.2736 0.7095, 1.4742 -0.2736 0.6547, 1.3995 -0.2736 0.6506, 1.3934 -0.2736 0.6528, 1.3747 -0.2736 0.6505, 1.3831 -0.2736 0.6632, 1.3812 -0.2736 0.6685, 1.4042 -0.2736 0.7418, 1.3925 -0.2736 0.7372, 1.3892 -0.2736 0.7353, 1.392 -0.2736 0.699, 1.3989 -0.2736 0.7024, 1.3984 -0.2736 0.726, 1.4103 -0.2736 0.7051, 1.4241 -0.2736 0.7303, 1.4187 -0.2736 0.7309, 1.4083 -0.2736 0.7297, 1.437 -0.2736 0.6655, 1.4365 -0.2736 0.6655, 1.4325 -0.2736 0.6598, 1.3881 -0.2736 0.6566, 1.3864 -0.2736 0.6583, 1.4273 -0.2736 0.655, 1.4241 -0.2736 0.653, 1.3804 -0.2736 0.6757, 1.3805 -0.2736 0.6781, 1.4805 -0.2736 0.6671, 1.4815 -0.2736 0.6668, 1.4815 -0.2736 0.7003, 1.4749 -0.2736 0.723, 1.4768 -0.2736 0.7281, 1.446 -0.2736 0.7336, 1.4202 -0.2736 0.7437, 1.43 -0.2736 0.7428, 1.4366 -0.2736 0.7407, 1.437 -0.2736 0.7088, 1.4364 -0.2736 0.7158, 1.4348 -0.2736 0.7214, 1.4329 -0.2736 0.7247, 1.4516 -0.2736 0.7211, 1.4749 -0.2736 0.7112, 1.4418 -0.2736 0.7377, 1.4492 -0.2736 0.7284, 1.4742 -0.2736 0.7173, 1.4305 -0.2736 0.7272, 1.4277 -0.2736 0.729, 1.4813 -0.2736 0.7004, 1.4787 -0.2736 0.7031, 1.4767 -0.2736 0.7064, 1.4905 -0.2736 0.6635, 1.4982 -0.2736 0.6912, 1.4888 -0.2736 0.6955, 1.5001 -0.2736 0.6624, 1.5008 -0.2736 0.6624, 1.5085 -0.2736 0.6868, 1.5089 -0.2736 0.6633, 1.5188 -0.2736 0.6745, 1.5186 -0.2736 0.6765, 1.513 -0.2736 0.6648, 1.5144 -0.2736 0.6656, 1.5163 -0.2736 0.6672, 1.5176 -0.2736 0.6693, 1.5184 -0.2736 0.6715, 1.5179 -0.2736 0.679, 1.5167 -0.2736 0.6811, 1.5147 -0.2736 0.6831, 1.4815 -0.2736 0.6521, 1.4815 -0.2736 0.6505, 1.4837 -0.2736 0.6512, 1.4896 -0.2736 0.6505, 1.4986 -0.2736 0.6495, 1.4815 -0.2736 0.6006, 1.5497 -0.2736 0.6235, 1.3747 -0.2736 0.6006, 1.3998 -0.2736 0.6505, 1.4089 -0.2736 0.6495, 1.1365 -0.2736 0.8794, 1.1608 -0.2736 0.8588, 1.2458 -0.2736 3.8976, 0.6349 -0.2736 0.8506, 0.6428 -0.2736 0.8683, 0.9778 -0.2736 1.0064, 1.0223 -0.2736 0.9891, 1.057 -0.2736 0.9649, 1.0882 -0.2736 0.9284, 0.6704 -0.2736 0.9016, 0.6989 -0.2736 0.9217, 0.8948 -0.2736 1.0071, 0.9351 -0.2736 1.0116, 1.1054 -0.2736 0.8941, 1.1099 -0.2736 0.8926, 0.6643 -0.2736 0.8959, 0.8064 -0.2736 0.9585, 0.8275 -0.2736 0.9766, 0.8532 -0.2736 0.9921, 0.7321 -0.2736 0.9346, 0.7674 -0.2736 0.9389, 0.7778 -0.2736 0.9384, 0.7881 -0.2736 0.9371, 0.6879 -0.2736 0.6721, 0.6599 -0.2736 0.696, 0.7203 -0.2736 0.6563, 0.6394 -0.2736 0.7252, 0.6265 -0.2736 0.7586, 0.6222 -0.2736 0.7937, 0.6225 -0.2736 0.8023, 0.6245 -0.2736 0.8136, 0.6285 -0.2736 0.836, 0.8384 -0.2736 0.5947, 0.8168 -0.2736 0.592, 1.2458 -0.2736 0.2362, 0.8133 -0.2736 0.592, 0.7921 -0.2736 0.5953, 0.7797 -0.2736 0.6006, 0.7714 -0.2736 0.604, 0.7539 -0.2736 0.6173, 0.7316 -0.2736 0.6529, 0.7327 -0.2736 0.6505, 0.7406 -0.2736 0.6337, 0.9008 -0.2736 0.6505, 0.9007 -0.2736 0.6502, 0.8901 -0.2736 0.6302, 0.8763 -0.2736 0.6148, 0.8584 -0.2736 0.6023, 0.8539 -0.2736 0.6006, 1.0152 -0.2736 0.7034, 1.0214 -0.2736 0.7058, 1.0319 -0.2736 0.7569, 1.161 -0.2736 0.6915, 1.1366 -0.2736 0.6708, 0.884 -0.2736 0.7417, 1.0041 -0.2736 0.8045, 0.8683 -0.2736 0.756, 0.8493 -0.2736 0.7662, 1.0097 -0.2736 0.6995, 1.1788 -0.2736 0.7163, 1.1382 -0.2736 0.7836, 1.134 -0.2736 0.8008, 1.1271 -0.2736 0.8136, 0.6809 -0.2736 0.8136, 1.187 -0.2736 0.8136, 1.1901 -0.2736 0.8059, 1.2458 -0.2736 0.8136, 1.1942 -0.2736 0.7767, 1.1901 -0.2736 0.7447, 1.0283 -0.2736 0.7067, 1.0292 -0.2736 0.7067, 1.0319 -0.2736 0.7061, 0.6862 -0.2736 0.7598, 0.6969 -0.2736 0.7416, 0.7424 -0.2736 0.7323, 0.7129 -0.2736 0.725, 0.7325 -0.2736 0.713, 0.7755 -0.2736 0.762, 0.7572 -0.2736 0.7492, 0.6787 -0.2736 0.7955, 0.6798 -0.2736 0.7817, 0.7954 -0.2736 0.7695, 0.8168 -0.2736 0.7722, 0.8277 -0.2736 0.7715, 1.0005 -0.2736 0.6789, 1.0008 -0.2736 0.6825, 0.9064 -0.2736 0.6906, 1.0026 -0.2736 0.6893, 1.006 -0.2736 0.6954, 1.1204 -0.2736 0.7284, 1.1303 -0.2736 0.7423, 1.1364 -0.2736 0.7583, 1.1386 -0.2736 0.7758, 1.0215 -0.2736 0.652, 1.0156 -0.2736 0.6543, 1.0097 -0.2736 0.6584, 1.0077 -0.2736 0.6606, 1.0037 -0.2736 0.6662, 1.0014 -0.2736 0.6723, 0.9059 -0.2736 0.6723, 0.9064 -0.2736 0.6816, 1.1093 -0.2736 0.6575, 1.0794 -0.2736 0.6512, 1.0265 -0.2736 0.6512, 1.0337 -0.2736 0.7058, 1.0741 -0.2736 0.7058, 1.0901 -0.2736 0.7089, 1.106 -0.2736 0.7162, 1.1192 -0.2736 0.7271, 1.0615 -0.2736 0.8457, 0.689 -0.2736 0.8372, 0.6814 -0.2736 0.8172, 1.0687 -0.2736 0.8457, 1.1256 -0.2736 0.8163, 1.1153 -0.2736 0.8279, 1.1014 -0.2736 0.8376, 1.0857 -0.2736 0.8436, 1.0422 -0.2736 0.8995, 1.022 -0.2736 0.9237, 0.8159 -0.2736 0.8717, 1.0197 -0.2736 0.9258, 0.9945 -0.2736 0.9433, 0.8295 -0.2736 0.9, 0.6983 -0.2736 0.8506, 0.8094 -0.2736 0.8752, 1.0604 -0.2736 0.8506, 1.056 -0.2736 0.8706, 0.7893 -0.2736 0.8825, 0.7683 -0.2736 0.8851, 0.759 -0.2736 0.8847, 0.8497 -0.2736 0.9241, 0.9664 -0.2736 0.954, 0.8737 -0.2736 0.9416, 0.936 -0.2736 0.9578, 0.903 -0.2736 0.9535, 0.7369 -0.2736 0.8794, 0.7169 -0.2736 0.8688, 0.7015 -0.2736 0.855, 1.1791 -0.2736 0.8333, 1.2458 -0.2736 0.8506, 1.1668 -0.2736 0.8506, 1.6796 -0.2736 0.8935, 1.6734 -0.2736 0.8804, 1.6827 -0.2736 0.9082, 1.6382 -0.2736 0.8549, 1.6382 -0.2736 0.8506, 1.6508 -0.2736 0.8598, 1.664 -0.2736 0.8693, 1.6763 -0.2736 0.9457, 1.681 -0.2736 0.9336, 1.6865 -0.2736 3.8976, 1.6831 -0.2736 0.9163, 1.7381 -0.2736 0.9777, 1.7264 -0.2736 3.8976, 1.6508 -0.2736 0.97, 1.664 -0.2736 0.961, 1.6685 -0.2736 0.9567, 1.6382 -0.2736 0.9747, 1.6382 -0.2736 3.8976, 1.6356 -0.2736 0.9756, 1.6365 -0.2736 0.8542, 1.6151 -0.2736 0.8516, 1.5685 -0.2736 0.8506, 1.5804 -0.2736 0.8516, 1.5804 -0.2736 0.9777, 1.5685 -0.2736 3.8976, 1.6164 -0.2736 0.9777, 1.6629 -0.2736 0.666, 1.6865 -0.2736 0.666, 1.6629 -0.2736 0.7084, 1.6865 -0.2736 0.7084, 1.7145 -0.2736 0.666, 1.7145 -0.2736 0.6516, 1.7264 -0.2736 0.6505, 1.6865 -0.2736 0.6505, 1.7264 -0.2736 0.8136, 1.7116 -0.2736 0.7777, 1.7116 -0.2736 0.7632, 1.708 -0.2736 0.7084, 1.708 -0.2736 0.7228, 1.6865 -0.2736 0.7632, 1.6865 -0.2736 0.7228, 1.6629 -0.2736 0.7632, 1.6629 -0.2736 0.7228, 1.6865 -0.2736 0.6516, 1.6467 -0.2736 0.6516, 1.6382 -0.2736 0.6505, 1.6467 -0.2736 0.7777, 1.6865 -0.2736 0.7777, 1.6865 -0.2736 0.8136, 1.505 -0.2736 0.866, 1.5391 -0.2736 0.866, 1.505 -0.2736 0.9084, 1.5391 -0.2736 0.9084, 1.5566 -0.2736 0.866, 1.5566 -0.2736 0.8516, 1.5391 -0.2736 0.8506, 1.5501 -0.2736 0.9084, 1.5501 -0.2736 0.9229, 1.5537 -0.2736 0.9632, 1.5391 -0.2736 0.9632, 1.5391 -0.2736 0.9229, 1.505 -0.2736 0.9632, 1.505 -0.2736 0.9229, 1.5391 -0.2736 0.8516, 1.4888 -0.2736 0.8516, 1.4888 -0.2736 0.9777, 1.5537 -0.2736 0.9777, 1.5391 -0.2736 0.9777, 1.5391 -0.2736 3.8976, 1.3672 -0.2736 3.8976, 1.3639 -0.2736 0.866, 1.3639 -0.2736 0.8516, 1.2975 -0.2736 0.8516, 1.2975 -0.2736 0.9777, 1.3137 -0.2736 0.866, 1.3137 -0.2736 0.9777, 1.3672 -0.2736 0.8136, 1.3672 -0.2736 0.6505, 1.3653 -0.2736 0.6516, 1.2975 -0.2736 0.6516, 1.3653 -0.2736 0.666, 1.3624 -0.2736 0.7632, 1.3137 -0.2736 0.7084, 1.3137 -0.2736 0.666, 1.3588 -0.2736 0.7084, 1.3588 -0.2736 0.7228, 1.3137 -0.2736 0.7228, 1.3137 -0.2736 0.7632, 1.2975 -0.2736 0.7777, 1.3624 -0.2736 0.7777, 1.6865 -0.2736 0.6006, 1.7264 -0.2736 0.6006, 1.7383 -0.2736 0.6516, 1.7383 -0.2736 0.7777, 1.9614 -0.2736 0.6516, 1.9434 -0.2736 0.6516, 1.773 -0.2736 0.6516, 2.185 -0.2736 0.6505, 2.185 -0.2736 0.8136, 1.9134 -0.2736 0.7777, 1.9306 -0.2736 0.6861, 1.8781 -0.2736 0.6861, 1.8659 -0.2736 0.6516, 1.848 -0.2736 0.6516, 1.896 -0.2736 0.7777, 1.8313 -0.2736 0.6804, 1.8219 -0.2736 0.6693, 1.8087 -0.2736 0.6598, 1.7944 -0.2736 0.6542, 1.8219 -0.2736 0.761, 1.8264 -0.2736 0.7566, 1.8342 -0.2736 0.7456, 1.8389 -0.2736 0.7336, 1.7743 -0.2736 0.7777, 1.7935 -0.2736 0.7756, 1.8087 -0.2736 0.77, 1.841 -0.2736 0.7162, 1.8406 -0.2736 0.7082, 1.8375 -0.2736 0.6934, 1.6865 -0.2736 0.2362, 1.6382 -0.2736 0.2362, 1.5685 -0.2736 0.2362, 1.5391 -0.2736 0.2362, 1.4815 -0.2736 0.2362, 1.3747 -0.2736 0.2362, 1.3672 -0.2736 0.2362
            ]
        }
        coordIndex [
            0,1,2,-1,3,4,5,-1,6,7,8,-1,9,10,11,-1,11,10,12,-1,11,12,13,-1,14,15,16,-1,10,17,12,-1,12,17,18,-1,12,18,19,-1,19,18,20,-1,19,20,21,-1,22,23,24,-1,6,8,25,-1,23,22,8,-1,8,22,26,-1,8,26,25,-1,27,28,29,-1,29,28,30,-1,29,30,31,-1,32,33,29,-1,29,33,34,-1,29,34,27,-1,24,35,22,-1,22,35,36,-1,22,36,37,-1,37,38,22,-1,22,38,39,-1,22,39,40,-1,40,41,22,-1,22,41,42,-1,22,42,43,-1,43,44,22,-1,22,44,45,-1,22,45,46,-1,46,45,47,-1,47,45,48,-1,48,45,49,-1,48,49,50,-1,50,51,48,-1,48,51,52,-1,48,52,53,-1,53,52,54,-1,55,56,57,-1,57,56,58,-1,59,60,61,-1,61,60,62,-1,61,62,29,-1,29,62,63,-1,29,63,32,-1,64,65,66,-1,66,65,67,-1,66,67,68,-1,69,70,71,-1,71,70,72,-1,71,72,66,-1,66,72,73,-1,66,73,64,-1,74,75,76,-1,77,78,79,-1,76,80,74,-1,74,80,81,-1,74,81,82,-1,82,81,77,-1,82,77,83,-1,83,77,79,-1,84,85,5,-1,5,85,86,-1,5,86,87,-1,87,86,80,-1,80,86,88,-1,80,88,81,-1,89,85,90,-1,90,85,84,-1,90,84,91,-1,92,93,94,-1,95,96,84,-1,84,96,97,-1,84,97,91,-1,98,99,100,-1,100,99,101,-1,100,101,92,-1,92,101,102,-1,92,102,93,-1,103,104,84,-1,84,104,105,-1,84,105,95,-1,106,107,108,-1,106,108,109,-1,107,110,108,-1,108,110,111,-1,108,111,100,-1,100,111,112,-1,100,112,98,-1,113,114,115,-1,115,114,116,-1,117,118,115,-1,115,118,119,-1,115,119,113,-1,113,119,120,-1,121,122,123,-1,123,122,124,-1,123,124,115,-1,115,124,125,-1,115,125,117,-1,126,127,128,-1,128,129,126,-1,126,129,130,-1,126,130,123,-1,123,130,131,-1,123,131,121,-1,132,133,134,-1,134,133,135,-1,134,135,127,-1,127,135,136,-1,127,136,128,-1,137,138,134,-1,134,138,139,-1,134,139,132,-1,140,141,142,-1,142,143,140,-1,140,143,144,-1,140,144,145,-1,145,144,146,-1,145,146,137,-1,137,146,147,-1,137,147,138,-1,148,149,150,-1,150,149,151,-1,150,151,141,-1,141,151,152,-1,141,152,142,-1,153,154,150,-1,150,154,155,-1,150,155,148,-1,120,156,113,-1,113,156,157,-1,113,157,153,-1,153,157,158,-1,153,158,154,-1,159,160,161,-1,161,160,162,-1,161,162,163,-1,164,165,166,-1,167,168,169,-1,169,168,170,-1,169,170,171,-1,172,173,5,-1,173,174,5,-1,5,174,175,-1,5,175,176,-1,171,177,169,-1,169,177,178,-1,169,178,87,-1,165,172,166,-1,166,172,5,-1,166,5,179,-1,179,5,87,-1,179,87,180,-1,180,87,178,-1,176,181,5,-1,5,181,182,-1,5,182,3,-1,183,184,185,-1,185,184,186,-1,185,186,187,-1,185,188,183,-1,183,188,189,-1,183,189,190,-1,190,191,183,-1,183,191,192,-1,183,192,193,-1,193,192,194,-1,193,194,195,-1,195,194,196,-1,195,196,166,-1,166,196,197,-1,166,197,164,-1,198,199,187,-1,187,199,200,-1,187,200,185,-1,201,202,203,-1,204,205,206,-1,206,205,207,-1,203,202,208,-1,209,210,211,-1,211,210,208,-1,212,213,214,-1,214,215,216,-1,217,71,218,-1,218,71,219,-1,204,220,205,-1,205,220,221,-1,205,221,222,-1,222,221,223,-1,224,225,223,-1,223,225,226,-1,223,226,222,-1,227,228,203,-1,203,228,229,-1,213,230,214,-1,214,230,231,-1,214,231,215,-1,229,232,203,-1,203,232,233,-1,203,233,201,-1,216,234,214,-1,214,234,235,-1,214,235,71,-1,71,235,207,-1,71,207,219,-1,219,207,205,-1,236,237,238,-1,239,240,241,-1,217,242,71,-1,71,242,243,-1,71,243,244,-1,245,246,223,-1,223,246,247,-1,223,247,248,-1,249,210,250,-1,7,69,169,-1,169,69,71,-1,169,71,167,-1,167,71,244,-1,167,244,240,-1,240,244,251,-1,240,251,241,-1,236,238,209,-1,241,252,239,-1,239,252,249,-1,239,249,253,-1,253,249,250,-1,248,254,223,-1,223,254,255,-1,223,255,224,-1,238,256,209,-1,209,256,257,-1,209,257,210,-1,210,257,258,-1,210,258,250,-1,259,260,237,-1,237,260,261,-1,237,261,238,-1,259,262,260,-1,260,262,263,-1,260,263,264,-1,264,263,265,-1,264,266,267,-1,265,268,264,-1,264,268,269,-1,264,269,270,-1,270,271,264,-1,264,271,272,-1,264,272,266,-1,267,273,264,-1,264,273,274,-1,264,274,275,-1,276,277,278,-1,278,277,279,-1,280,281,4,-1,4,281,92,-1,4,92,5,-1,5,92,94,-1,5,94,84,-1,84,94,282,-1,84,282,103,-1,280,279,281,-1,281,279,277,-1,281,277,283,-1,212,214,284,-1,284,214,283,-1,284,283,285,-1,285,283,202,-1,202,283,277,-1,202,277,208,-1,208,277,276,-1,208,276,211,-1,286,287,288,-1,137,289,290,-1,291,292,288,-1,288,292,293,-1,288,293,294,-1,295,296,145,-1,145,297,288,-1,288,297,298,-1,288,298,291,-1,294,299,288,-1,288,299,300,-1,288,300,286,-1,137,290,145,-1,145,290,301,-1,145,301,295,-1,302,303,145,-1,145,303,304,-1,145,304,297,-1,296,305,145,-1,145,305,306,-1,145,306,302,-1,302,306,307,-1,302,307,308,-1,309,310,127,-1,309,127,311,-1,310,312,127,-1,127,312,313,-1,127,313,134,-1,134,313,314,-1,314,315,134,-1,134,315,316,-1,134,316,137,-1,137,316,317,-1,137,317,289,-1,318,319,320,-1,320,319,321,-1,320,321,123,-1,123,321,322,-1,123,322,126,-1,126,322,323,-1,126,323,127,-1,127,323,324,-1,127,324,325,-1,326,311,327,-1,327,311,127,-1,327,127,328,-1,328,127,325,-1,0,329,1,-1,1,329,330,-1,1,330,331,-1,331,332,1,-1,1,332,333,-1,1,333,334,-1,335,336,337,-1,338,339,0,-1,340,341,342,-1,342,341,343,-1,335,337,344,-1,338,0,345,-1,346,347,341,-1,341,347,348,-1,341,348,349,-1,350,351,352,-1,352,351,353,-1,352,353,0,-1,0,353,354,-1,0,354,345,-1,336,355,337,-1,337,355,356,-1,337,356,357,-1,358,359,360,-1,360,359,361,-1,360,361,362,-1,363,349,364,-1,364,349,365,-1,364,365,360,-1,360,365,366,-1,360,366,358,-1,363,367,349,-1,349,367,368,-1,349,368,341,-1,341,368,369,-1,341,369,343,-1,370,371,372,-1,372,371,373,-1,372,373,337,-1,337,373,374,-1,337,374,344,-1,375,376,337,-1,337,376,377,-1,337,377,341,-1,341,377,378,-1,341,378,346,-1,379,380,329,-1,329,380,381,-1,329,381,382,-1,382,383,329,-1,329,383,384,-1,329,384,385,-1,385,384,370,-1,385,370,386,-1,386,370,372,-1,339,387,0,-1,0,387,388,-1,0,388,329,-1,329,388,389,-1,329,389,379,-1,357,390,337,-1,337,390,391,-1,337,391,392,-1,392,393,337,-1,337,393,394,-1,337,394,375,-1,395,396,397,-1,397,349,395,-1,395,349,348,-1,395,348,398,-1,398,348,399,-1,399,400,398,-1,398,400,401,-1,398,401,402,-1,403,404,405,-1,404,406,405,-1,405,406,407,-1,405,407,408,-1,409,405,410,-1,396,395,409,-1,409,395,411,-1,409,411,405,-1,405,411,412,-1,405,412,403,-1,410,413,409,-1,409,413,414,-1,409,414,415,-1,408,407,416,-1,416,407,417,-1,416,417,418,-1,418,417,419,-1,418,419,420,-1,421,422,415,-1,415,422,423,-1,415,423,409,-1,350,352,424,-1,424,352,425,-1,424,425,426,-1,427,428,19,-1,427,19,429,-1,430,431,432,-1,432,431,19,-1,432,19,433,-1,433,19,428,-1,434,435,436,-1,436,435,437,-1,16,15,438,-1,438,15,439,-1,438,439,21,-1,21,439,436,-1,21,436,19,-1,19,436,437,-1,19,437,429,-1,440,441,436,-1,436,441,442,-1,436,442,434,-1,440,436,443,-1,443,436,444,-1,443,444,445,-1,430,446,431,-1,431,446,447,-1,431,447,448,-1,447,449,448,-1,448,449,450,-1,448,450,451,-1,451,450,444,-1,444,450,452,-1,444,452,445,-1,453,454,455,-1,455,454,456,-1,457,458,459,-1,459,458,460,-1,461,462,463,-1,456,454,464,-1,464,454,457,-1,464,457,465,-1,463,466,467,-1,467,466,468,-1,467,468,469,-1,458,470,460,-1,460,470,471,-1,460,471,472,-1,472,471,473,-1,462,461,474,-1,474,461,475,-1,474,475,473,-1,473,475,76,-1,473,76,472,-1,472,76,75,-1,472,75,109,-1,476,477,478,-1,478,477,479,-1,451,480,448,-1,448,480,481,-1,448,481,482,-1,479,477,483,-1,483,477,480,-1,483,480,484,-1,485,486,487,-1,487,486,488,-1,487,488,489,-1,481,490,482,-1,482,490,491,-1,482,491,8,-1,8,491,492,-1,487,484,485,-1,485,484,480,-1,485,480,493,-1,493,480,451,-1,493,451,494,-1,494,451,495,-1,494,495,492,-1,492,495,29,-1,492,29,8,-1,8,29,31,-1,8,31,23,-1,59,61,58,-1,58,61,496,-1,58,496,57,-1,57,496,497,-1,57,497,498,-1,425,499,500,-1,501,497,502,-1,502,497,496,-1,502,496,500,-1,500,496,288,-1,500,288,425,-1,425,288,287,-1,425,287,426,-1,352,503,425,-1,425,503,57,-1,425,57,499,-1,499,57,498,-1,504,505,506,-1,505,504,507,-1,507,504,503,-1,507,503,508,-1,509,510,511,-1,511,510,507,-1,511,507,512,-1,512,507,508,-1,512,508,513,-1,513,508,514,-1,2,504,0,-1,0,504,506,-1,0,506,352,-1,352,506,515,-1,352,515,503,-1,503,515,516,-1,503,516,508,-1,2,283,504,-1,504,283,214,-1,504,214,503,-1,503,214,71,-1,503,71,57,-1,57,71,66,-1,57,66,55,-1,55,66,68,-1,7,169,8,-1,8,169,87,-1,8,87,482,-1,482,87,80,-1,482,80,448,-1,448,80,76,-1,448,76,431,-1,431,76,475,-1,431,475,19,-1,19,475,461,-1,19,461,12,-1,109,108,472,-1,472,108,517,-1,472,517,460,-1,460,517,518,-1,460,518,459,-1,519,520,461,-1,521,522,459,-1,467,465,463,-1,463,465,457,-1,463,457,461,-1,461,457,459,-1,461,459,519,-1,519,459,523,-1,524,525,526,-1,527,528,522,-1,522,528,529,-1,522,529,459,-1,459,529,530,-1,459,530,523,-1,16,13,14,-1,14,13,12,-1,14,12,525,-1,525,12,461,-1,525,461,526,-1,526,461,531,-1,530,532,533,-1,533,534,530,-1,530,534,535,-1,530,535,523,-1,536,537,531,-1,531,537,538,-1,531,538,539,-1,520,540,461,-1,461,540,541,-1,461,541,531,-1,531,541,542,-1,531,542,536,-1,539,543,531,-1,531,543,544,-1,531,544,530,-1,530,544,545,-1,530,545,532,-1,526,521,524,-1,524,521,459,-1,524,459,162,-1,162,459,518,-1,162,518,163,-1,163,518,517,-1,163,517,546,-1,546,517,108,-1,546,108,547,-1,547,108,100,-1,547,100,548,-1,548,100,92,-1,548,92,549,-1,549,92,281,-1,549,281,550,-1,550,281,283,-1,550,283,551,-1,551,283,2,-1,551,2,552,-1,552,2,1,-1,552,1,320,-1,320,1,334,-1,320,334,318,-1,
        ]
    }
}
Shape{
    appearance Appearance {
        material  Material 	{
            diffuseColor 0.6666666666666666 0.6666666666666666 0.6666666666666666
            specularColor 0.4666666666666667 0.4666666666666667 0.4666666666666667
            ambientIntensity 0.6667
            transparency 0.0
            shininess 0.5
        }
    }
    geometry IndexedFaceSet {
        ccw TRUE
        solid FALSE
        coord DEF co Coordinate {
            point [
                1.4016 -0.0571 -1.5748, 1.4016 0.061 -1.5748, 1.5984 -0.0571 -1.5748, 1.5984 0.061 -1.5748, 1.5984 0.061 0.2362, 1.4016 0.061 0.2362, 1.4016 -0.0571 0.2362, 1.5984 -0.0571 0.2362, 0.4016 -0.0571 -1.5748, 0.4016 0.061 -1.5748, 0.5984 -0.0571 -1.5748, 0.5984 0.061 -1.5748, 0.5984 0.061 0.2362, 0.4016 0.061 0.2362, 0.4016 -0.0571 0.2362, 0.5984 -0.0571 0.2362
            ]
        }
        coordIndex [
            0,1,2,-1,2,1,3,-1,3,1,4,-1,4,1,5,-1,1,0,5,-1,5,0,6,-1,0,2,6,-1,6,2,7,-1,2,3,7,-1,7,3,4,-1,8,9,10,-1,10,9,11,-1,11,9,12,-1,12,9,13,-1,9,8,13,-1,13,8,14,-1,8,10,14,-1,14,10,15,-1,10,11,15,-1,15,11,12,-1,
        ]
    }
}
Shape{
    appearance Appearance {
        material  Material 	{
            diffuseColor 0.20784313725490197 0.20784313725490197 0.20784313725490197
            specularColor 0.01568627450980392 0.01568627450980392 0.01568627450980392
            ambientIntensity 0.298
            transparency 0.0
            shininess 0.5
        }
    }
    geometry IndexedFaceSet {
        ccw TRUE
        solid FALSE
        coord DEF co Coordinate {
            point [
                -1.4016 -0.0571 0.2362, -0.5984 0.061 0.2362, -0.5984 -0.0571 0.2362, -0.4016 -0.0571 0.2362, 1.2458 -0.2736 0.2362, -0.4727 -0.2736 0.2362, 1.5984 -0.0571 0.2362, 1.6865 -0.2736 0.2362, 1.6382 -0.2736 0.2362, -2.0669 -0.2736 0.2362, 2.0669 2.0886 0.2362, -1.4016 0.061 0.2362, -2.0669 2.0886 0.2362, -1.5984 0.061 0.2362, -1.5984 -0.0571 0.2362, 1.5685 -0.2736 0.2362, 1.5391 -0.2736 0.2362, 1.4016 -0.0571 0.2362, 1.4815 -0.2736 0.2362, 0.5984 0.061 0.2362, 0.4016 0.061 0.2362, 1.3747 -0.2736 0.2362, 1.3672 -0.2736 0.2362, -0.4016 0.061 0.2362, 0.4016 -0.0571 0.2362, 0.5984 -0.0571 0.2362, 1.4016 0.061 0.2362, 1.5984 0.061 0.2362, 2.0669 -0.2736 0.2362, 1.7264 -0.2736 0.2362, 2.2638 2.0098 0.0394, 2.2638 -0.1949 0.0394, 2.0669 -0.2736 0.0394, 2.0669 2.0886 0.0394, 2.185 2.0886 0.0394, 2.2054 2.0859 0.0394, 2.2532 2.0492 0.0394, 2.2611 2.0302 0.0394, 2.2407 2.0655 0.0394, 2.2244 2.078 0.0394, 2.2244 -0.2631 0.0394, 2.2054 -0.2709 0.0394, 2.185 -0.2736 0.0394, 2.2407 -0.2506 0.0394, 2.2611 -0.2153 0.0394, 2.2532 -0.2343 0.0394, 2.2638 2.0098 3.8976, 2.2638 -0.1949 3.8976, -2.0669 2.0886 0.0394, -2.185 2.0886 0.0394, -2.185 2.0886 3.8976, 2.185 2.0886 3.8976, -2.2638 -0.1949 3.8976, -2.2638 2.0098 3.8976, -2.2638 -0.1949 0.0394, -2.2638 2.0098 0.0394, 2.185 -0.1949 3.9764, 2.185 2.0098 3.9764, -2.185 -0.1949 3.9764, -2.185 2.0098 3.9764, -2.2611 -0.2153 0.0394, -2.185 -0.2736 0.0394, -2.0669 -0.2736 0.0394, -2.2244 -0.2631 0.0394, -2.2407 -0.2506 0.0394, -2.2532 -0.2343 0.0394, -2.2054 -0.2709 0.0394, -2.2611 2.0302 0.0394, -2.2532 2.0492 0.0394, -2.2407 2.0655 0.0394, -2.2244 2.078 0.0394, -2.2054 2.0859 0.0394
            ]
        }
        coordIndex [
            0,1,2,-1,3,4,5,-1,6,7,8,-1,3,5,2,-1,2,5,9,-1,2,9,0,-1,10,11,12,-1,12,11,13,-1,12,13,9,-1,9,13,14,-1,9,14,0,-1,8,15,6,-1,6,15,16,-1,6,16,17,-1,17,16,18,-1,10,19,20,-1,18,21,17,-1,17,21,22,-1,17,22,4,-1,0,11,1,-1,1,11,10,-1,1,10,23,-1,23,10,20,-1,23,20,3,-1,3,20,24,-1,3,24,4,-1,4,24,25,-1,4,25,17,-1,17,25,19,-1,17,19,26,-1,26,19,10,-1,26,10,27,-1,27,10,28,-1,27,28,6,-1,6,28,29,-1,6,29,7,-1,30,31,32,-1,32,33,30,-1,30,33,34,-1,30,34,35,-1,36,37,38,-1,38,37,30,-1,38,30,39,-1,39,30,35,-1,40,41,31,-1,31,41,42,-1,31,42,32,-1,40,31,43,-1,43,31,44,-1,43,44,45,-1,46,47,30,-1,30,47,31,-1,34,33,10,-1,48,49,12,-1,12,49,50,-1,12,50,10,-1,10,50,51,-1,10,51,34,-1,52,53,54,-1,54,53,55,-1,56,57,58,-1,58,57,59,-1,60,54,61,-1,61,54,62,-1,63,64,65,-1,60,61,65,-1,65,61,66,-1,65,66,63,-1,62,54,48,-1,48,54,55,-1,48,55,49,-1,49,55,67,-1,49,67,68,-1,69,70,68,-1,68,70,71,-1,68,71,49,-1,28,10,32,-1,32,10,33,-1,12,9,48,-1,48,9,62,-1,
        ]
    }
}
Shape{
    appearance Appearance {
        material  Material 	{
            diffuseColor 0.34901960784313724 0.34901960784313724 0.34901960784313724
            specularColor 0.023529411764705882 0.023529411764705882 0.023529411764705882
            ambientIntensity 0.498
            transparency 0.0
            shininess 0.5
        }
    }
    geometry IndexedFaceSet {
        ccw TRUE
        solid FALSE
        coord DEF co Coordinate {
            point [
                -1.7509 -0.2657 0.4943, -1.7509 -0.2736 0.4943, -1.7034 -0.2657 0.5005, -1.7034 -0.2736 0.5005, -1.6592 -0.2657 0.5188, -1.6592 -0.2736 0.5188, -1.6213 -0.2657 0.5479, -1.6213 -0.2736 0.5479, -1.5921 -0.2657 0.5859, -1.5921 -0.2736 0.5859, -1.5738 -0.2657 0.6301, -1.5738 -0.2736 0.6301, -1.5676 -0.2657 0.6776, -1.5676 -0.2736 0.6776, -1.5738 -0.2657 0.725, -1.5738 -0.2736 0.725, -1.5921 -0.2657 0.7692, -1.5921 -0.2736 0.7692, -1.6213 -0.2657 0.8072, -1.6213 -0.2736 0.8072, -1.6592 -0.2657 0.8363, -1.6592 -0.2736 0.8363, -1.7034 -0.2657 0.8546, -1.7034 -0.2736 0.8546, -1.7509 -0.2657 0.8609, -1.7509 -0.2736 0.8609, -1.7983 -0.2657 0.8546, -1.7983 -0.2736 0.8546, -1.8425 -0.2657 0.8363, -1.8425 -0.2736 0.8363, -1.8805 -0.2657 0.8072, -1.8805 -0.2736 0.8072, -1.9096 -0.2657 0.7692, -1.9096 -0.2736 0.7692, -1.9279 -0.2657 0.725, -1.9279 -0.2736 0.725, -1.9342 -0.2657 0.6776, -1.9342 -0.2736 0.6776, -1.9279 -0.2657 0.6301, -1.9279 -0.2736 0.6301, -1.9096 -0.2657 0.5859, -1.9096 -0.2736 0.5859, -1.8805 -0.2657 0.5479, -1.8805 -0.2736 0.5479, -1.8425 -0.2657 0.5188, -1.8425 -0.2736 0.5188, -1.7983 -0.2657 0.5005, -1.7983 -0.2736 0.5005, -1.7509 -0.2657 0.6776
            ]
        }
        coordIndex [
            0,1,2,-1,2,1,3,-1,2,3,4,-1,4,3,5,-1,4,5,6,-1,6,5,7,-1,6,7,8,-1,8,7,9,-1,8,9,10,-1,10,9,11,-1,10,11,12,-1,12,11,13,-1,12,13,14,-1,14,13,15,-1,14,15,16,-1,16,15,17,-1,16,17,18,-1,18,17,19,-1,18,19,20,-1,20,19,21,-1,20,21,22,-1,22,21,23,-1,22,23,24,-1,24,23,25,-1,24,25,26,-1,26,25,27,-1,26,27,28,-1,28,27,29,-1,28,29,30,-1,30,29,31,-1,30,31,32,-1,32,31,33,-1,32,33,34,-1,34,33,35,-1,34,35,36,-1,36,35,37,-1,36,37,38,-1,38,37,39,-1,38,39,40,-1,40,39,41,-1,40,41,42,-1,42,41,43,-1,42,43,44,-1,44,43,45,-1,44,45,46,-1,46,45,47,-1,46,47,0,-1,0,47,1,-1,44,46,48,-1,48,46,0,-1,48,0,2,-1,38,40,48,-1,48,40,42,-1,48,42,44,-1,32,34,48,-1,48,34,36,-1,48,36,38,-1,26,28,48,-1,48,28,30,-1,48,30,32,-1,20,22,48,-1,48,22,24,-1,48,24,26,-1,14,16,48,-1,48,16,18,-1,48,18,20,-1,8,10,48,-1,48,10,12,-1,48,12,14,-1,2,4,48,-1,48,4,6,-1,48,6,8,-1,
        ]
    }
}
Shape{
    appearance Appearance {
        material  Material 	{
            diffuseColor 0.20784313725490197 0.20784313725490197 0.20784313725490197
            specularColor 0.01568627450980392 0.01568627450980392 0.01568627450980392
            ambientIntensity 0.298
            transparency 0.0
            shininess 0.5
        }
    }
    geometry IndexedFaceSet {
        ccw TRUE
        solid FALSE
        coord DEF co Coordinate {
            point [
                -2.185 2.0886 3.8976, -2.185 2.0886 0.0394, -2.2054 2.0859 0.0394, -2.2054 2.0859 3.8976, -2.2244 2.078 0.0394, -2.2244 2.078 3.8976, -2.2407 2.0655 0.0394, -2.2407 2.0655 3.8976, -2.2532 2.0492 0.0394, -2.2532 2.0492 3.8976, -2.2611 2.0302 0.0394, -2.2611 2.0302 3.8976, -2.2638 2.0098 0.0394, -2.2638 2.0098 3.8976, 2.185 2.0886 3.8976, -2.185 2.0859 3.918, 2.185 2.0859 3.918, -2.185 2.078 3.937, 2.185 2.078 3.937, -2.185 2.0655 3.9533, 2.185 2.0655 3.9533, -2.185 2.0492 3.9658, 2.185 2.0492 3.9658, -2.185 2.0302 3.9737, 2.185 2.0302 3.9737, -2.185 2.0098 3.9764, 2.185 2.0098 3.9764, 2.2638 2.0098 3.8976, 2.2638 2.0098 0.0394, 2.2611 2.0302 0.0394, 2.2611 2.0302 3.8976, 2.2532 2.0492 0.0394, 2.2532 2.0492 3.8976, 2.2407 2.0655 0.0394, 2.2407 2.0655 3.8976, 2.2244 2.078 0.0394, 2.2244 2.078 3.8976, 2.2054 2.0859 0.0394, 2.2054 2.0859 3.8976, 2.185 2.0886 0.0394, -2.2611 2.0098 3.918, -2.2585 2.0295 3.918, -2.2191 2.0295 3.9658, -2.2027 2.02 3.9737, -2.1995 2.0243 3.9737, -2.1903 2.0295 3.9737, -2.2047 2.0151 3.9737, -2.2231 2.02 3.9658, -2.2388 2.0243 3.9533, -2.2054 2.0098 3.9737, -2.2129 2.0377 3.9658, -2.1952 2.0275 3.9737, -2.2047 2.0439 3.9658, -2.1952 2.0479 3.9658, -2.2244 2.0098 3.9658, -2.2407 2.0098 3.9533, -2.2532 2.0098 3.937, -2.2333 2.0377 3.9533, -2.2244 2.0492 3.9533, -2.2129 2.0581 3.9533, -2.1995 2.0636 3.9533, -2.2509 2.0275 3.937, -2.2441 2.0439 3.937, -2.2333 2.0581 3.937, -2.2191 2.0689 3.937, -2.2027 2.0757 3.937, -2.2509 2.0479 3.918, -2.2388 2.0636 3.918, -2.2231 2.0757 3.918, -2.2047 2.0833 3.918, 2.2047 2.0833 3.918, 2.2047 2.0439 3.9658, 2.1952 2.0275 3.9737, 2.1995 2.0243 3.9737, 2.2054 2.0098 3.9737, 2.2047 2.0151 3.9737, 2.1903 2.0295 3.9737, 2.1952 2.0479 3.9658, 2.1995 2.0636 3.9533, 2.2129 2.0377 3.9658, 2.2027 2.02 3.9737, 2.2191 2.0295 3.9658, 2.2231 2.02 3.9658, 2.2244 2.0098 3.9658, 2.2129 2.0581 3.9533, 2.2244 2.0492 3.9533, 2.2333 2.0377 3.9533, 2.2388 2.0243 3.9533, 2.2407 2.0098 3.9533, 2.2027 2.0757 3.937, 2.2191 2.0689 3.937, 2.2333 2.0581 3.937, 2.2441 2.0439 3.937, 2.2509 2.0275 3.937, 2.2532 2.0098 3.937, 2.2231 2.0757 3.918, 2.2388 2.0636 3.918, 2.2509 2.0479 3.918, 2.2585 2.0295 3.918, 2.2611 2.0098 3.918, -2.2638 -0.1949 3.8976, -2.2638 -0.1949 0.0394, -2.2611 -0.2153 0.0394, -2.2611 -0.2153 3.8976, -2.2532 -0.2343 0.0394, -2.2532 -0.2343 3.8976, -2.2407 -0.2506 0.0394, -2.2407 -0.2506 3.8976, -2.2244 -0.2631 0.0394, -2.2244 -0.2631 3.8976, -2.2054 -0.2709 0.0394, -2.2054 -0.2709 3.8976, -2.185 -0.2736 0.0394, -2.185 -0.2736 3.8976, -2.2611 -0.1949 3.918, -2.2532 -0.1949 3.937, -2.2407 -0.1949 3.9533, -2.2244 -0.1949 3.9658, -2.2054 -0.1949 3.9737, -2.185 -0.1949 3.9764, 2.2638 -0.1949 3.8976, 2.2611 -0.1949 3.918, 2.2532 -0.1949 3.937, 2.2407 -0.1949 3.9533, 2.2244 -0.1949 3.9658, 2.2054 -0.1949 3.9737, 2.185 -0.1949 3.9764, 2.185 -0.2736 3.8976, 2.185 -0.2736 0.0394, 2.2054 -0.2709 0.0394, 2.2054 -0.2709 3.8976, 2.2244 -0.2631 0.0394, 2.2244 -0.2631 3.8976, 2.2407 -0.2506 0.0394, 2.2407 -0.2506 3.8976, 2.2532 -0.2343 0.0394, 2.2532 -0.2343 3.8976, 2.2611 -0.2153 0.0394, 2.2611 -0.2153 3.8976, 2.2638 -0.1949 0.0394, -2.185 -0.2709 3.918, -2.2047 -0.2683 3.918, -2.2047 -0.229 3.9658, -2.1952 -0.2125 3.9737, -2.1995 -0.2093 3.9737, -2.2047 -0.2002 3.9737, -2.1903 -0.2146 3.9737, -2.1952 -0.2329 3.9658, -2.1995 -0.2487 3.9533, -2.185 -0.2153 3.9737, -2.2129 -0.2227 3.9658, -2.2027 -0.2051 3.9737, -2.2191 -0.2146 3.9658, -2.2231 -0.2051 3.9658, -2.185 -0.2343 3.9658, -2.185 -0.2506 3.9533, -2.185 -0.2631 3.937, -2.2129 -0.2431 3.9533, -2.2244 -0.2343 3.9533, -2.2333 -0.2227 3.9533, -2.2388 -0.2093 3.9533, -2.2027 -0.2608 3.937, -2.2191 -0.2539 3.937, -2.2333 -0.2431 3.937, -2.2441 -0.229 3.937, -2.2509 -0.2125 3.937, -2.2231 -0.2608 3.918, -2.2388 -0.2487 3.918, -2.2509 -0.2329 3.918, -2.2585 -0.2146 3.918, 2.2585 -0.2146 3.918, 2.2191 -0.2146 3.9658, 2.2027 -0.2051 3.9737, 2.1995 -0.2093 3.9737, 2.185 -0.2153 3.9737, 2.1903 -0.2146 3.9737, 2.2047 -0.2002 3.9737, 2.2231 -0.2051 3.9658, 2.2388 -0.2093 3.9533, 2.2129 -0.2227 3.9658, 2.1952 -0.2125 3.9737, 2.2047 -0.229 3.9658, 2.1952 -0.2329 3.9658, 2.185 -0.2343 3.9658, 2.2333 -0.2227 3.9533, 2.2244 -0.2343 3.9533, 2.2129 -0.2431 3.9533, 2.1995 -0.2487 3.9533, 2.185 -0.2506 3.9533, 2.2509 -0.2125 3.937, 2.2441 -0.229 3.937, 2.2333 -0.2431 3.937, 2.2191 -0.2539 3.937, 2.2027 -0.2608 3.937, 2.185 -0.2631 3.937, 2.2509 -0.2329 3.918, 2.2388 -0.2487 3.918, 2.2231 -0.2608 3.918, 2.2047 -0.2683 3.918, 2.185 -0.2709 3.918
            ]
        }
        coordIndex [
            0,1,2,-1,0,2,3,-1,3,2,4,-1,3,4,5,-1,5,4,6,-1,5,6,7,-1,7,6,8,-1,7,8,9,-1,9,8,10,-1,9,10,11,-1,11,10,12,-1,11,12,13,-1,14,0,15,-1,14,15,16,-1,16,15,17,-1,16,17,18,-1,18,17,19,-1,18,19,20,-1,20,19,21,-1,20,21,22,-1,22,21,23,-1,22,23,24,-1,24,23,25,-1,24,25,26,-1,27,28,29,-1,27,29,30,-1,30,29,31,-1,30,31,32,-1,32,31,33,-1,32,33,34,-1,34,33,35,-1,34,35,36,-1,36,35,37,-1,36,37,38,-1,38,37,39,-1,38,39,14,-1,13,40,41,-1,42,43,44,-1,25,23,45,-1,44,43,25,-1,46,25,43,-1,46,43,47,-1,47,43,42,-1,47,42,48,-1,49,25,46,-1,50,51,52,-1,52,51,45,-1,52,45,53,-1,53,45,23,-1,53,23,21,-1,49,46,54,-1,54,46,47,-1,54,47,55,-1,55,47,48,-1,55,48,56,-1,57,50,58,-1,58,50,52,-1,58,52,59,-1,59,52,53,-1,59,53,60,-1,60,53,21,-1,60,21,19,-1,61,57,62,-1,62,57,58,-1,62,58,63,-1,63,58,59,-1,63,59,64,-1,64,59,60,-1,64,60,65,-1,65,60,19,-1,65,19,17,-1,40,61,41,-1,41,61,62,-1,41,62,66,-1,66,62,63,-1,66,63,67,-1,67,63,64,-1,67,64,68,-1,68,64,65,-1,68,65,69,-1,69,65,17,-1,69,17,15,-1,13,41,11,-1,11,41,66,-1,11,66,9,-1,9,66,67,-1,9,67,7,-1,7,67,68,-1,7,68,5,-1,5,68,69,-1,5,69,3,-1,3,69,15,-1,3,15,0,-1,51,25,45,-1,40,56,61,-1,61,56,48,-1,61,48,57,-1,57,48,42,-1,57,42,50,-1,50,42,44,-1,50,44,51,-1,51,44,25,-1,14,16,70,-1,71,72,73,-1,26,74,75,-1,73,72,26,-1,76,26,72,-1,76,72,77,-1,77,72,71,-1,77,71,78,-1,24,26,76,-1,79,80,81,-1,81,80,75,-1,81,75,82,-1,82,75,74,-1,82,74,83,-1,24,76,22,-1,22,76,77,-1,22,77,20,-1,20,77,78,-1,20,78,18,-1,84,79,85,-1,85,79,81,-1,85,81,86,-1,86,81,82,-1,86,82,87,-1,87,82,83,-1,87,83,88,-1,89,84,90,-1,90,84,85,-1,90,85,91,-1,91,85,86,-1,91,86,92,-1,92,86,87,-1,92,87,93,-1,93,87,88,-1,93,88,94,-1,16,89,70,-1,70,89,90,-1,70,90,95,-1,95,90,91,-1,95,91,96,-1,96,91,92,-1,96,92,97,-1,97,92,93,-1,97,93,98,-1,98,93,94,-1,98,94,99,-1,14,70,38,-1,38,70,95,-1,38,95,36,-1,36,95,96,-1,36,96,34,-1,34,96,97,-1,34,97,32,-1,32,97,98,-1,32,98,30,-1,30,98,99,-1,30,99,27,-1,80,26,75,-1,16,18,89,-1,89,18,78,-1,89,78,84,-1,84,78,71,-1,84,71,79,-1,79,71,73,-1,79,73,80,-1,80,73,26,-1,100,101,102,-1,100,102,103,-1,103,102,104,-1,103,104,105,-1,105,104,106,-1,105,106,107,-1,107,106,108,-1,107,108,109,-1,109,108,110,-1,109,110,111,-1,111,110,112,-1,111,112,113,-1,13,100,114,-1,13,114,40,-1,40,114,115,-1,40,115,56,-1,56,115,116,-1,56,116,55,-1,55,116,117,-1,55,117,54,-1,54,117,118,-1,54,118,49,-1,49,118,119,-1,49,119,25,-1,120,27,99,-1,120,99,121,-1,121,99,94,-1,121,94,122,-1,122,94,88,-1,122,88,123,-1,123,88,83,-1,123,83,124,-1,124,83,74,-1,124,74,125,-1,125,74,26,-1,125,26,126,-1,127,128,129,-1,127,129,130,-1,130,129,131,-1,130,131,132,-1,132,131,133,-1,132,133,134,-1,134,133,135,-1,134,135,136,-1,136,135,137,-1,136,137,138,-1,138,137,139,-1,138,139,120,-1,113,140,141,-1,142,143,144,-1,119,118,145,-1,144,143,119,-1,146,119,143,-1,146,143,147,-1,147,143,142,-1,147,142,148,-1,149,119,146,-1,150,151,152,-1,152,151,145,-1,152,145,153,-1,153,145,118,-1,153,118,117,-1,149,146,154,-1,154,146,147,-1,154,147,155,-1,155,147,148,-1,155,148,156,-1,157,150,158,-1,158,150,152,-1,158,152,159,-1,159,152,153,-1,159,153,160,-1,160,153,117,-1,160,117,116,-1,161,157,162,-1,162,157,158,-1,162,158,163,-1,163,158,159,-1,163,159,164,-1,164,159,160,-1,164,160,165,-1,165,160,116,-1,165,116,115,-1,140,161,141,-1,141,161,162,-1,141,162,166,-1,166,162,163,-1,166,163,167,-1,167,163,164,-1,167,164,168,-1,168,164,165,-1,168,165,169,-1,169,165,115,-1,169,115,114,-1,113,141,111,-1,111,141,166,-1,111,166,109,-1,109,166,167,-1,109,167,107,-1,107,167,168,-1,107,168,105,-1,105,168,169,-1,105,169,103,-1,103,169,114,-1,103,114,100,-1,151,119,145,-1,140,156,161,-1,161,156,148,-1,161,148,157,-1,157,148,142,-1,157,142,150,-1,150,142,144,-1,150,144,151,-1,151,144,119,-1,120,121,170,-1,171,172,173,-1,126,174,175,-1,173,172,126,-1,176,126,172,-1,176,172,177,-1,177,172,171,-1,177,171,178,-1,125,126,176,-1,179,180,181,-1,181,180,175,-1,181,175,182,-1,182,175,174,-1,182,174,183,-1,125,176,124,-1,124,176,177,-1,124,177,123,-1,123,177,178,-1,123,178,122,-1,184,179,185,-1,185,179,181,-1,185,181,186,-1,186,181,182,-1,186,182,187,-1,187,182,183,-1,187,183,188,-1,189,184,190,-1,190,184,185,-1,190,185,191,-1,191,185,186,-1,191,186,192,-1,192,186,187,-1,192,187,193,-1,193,187,188,-1,193,188,194,-1,121,189,170,-1,170,189,190,-1,170,190,195,-1,195,190,191,-1,195,191,196,-1,196,191,192,-1,196,192,197,-1,197,192,193,-1,197,193,198,-1,198,193,194,-1,198,194,199,-1,120,170,138,-1,138,170,195,-1,138,195,136,-1,136,195,196,-1,136,196,134,-1,134,196,197,-1,134,197,132,-1,132,197,198,-1,132,198,130,-1,130,198,199,-1,130,199,127,-1,180,126,175,-1,121,122,189,-1,189,122,178,-1,189,178,184,-1,184,178,171,-1,184,171,179,-1,179,171,173,-1,179,173,180,-1,180,173,126,-1,113,127,199,-1,113,199,140,-1,140,199,194,-1,140,194,156,-1,156,194,188,-1,156,188,155,-1,155,188,183,-1,155,183,154,-1,154,183,174,-1,154,174,149,-1,149,174,126,-1,149,126,119,-1,
        ]
    }
}
Shape{
    appearance Appearance {
        material  Material 	{
            diffuseColor 0.6666666666666666 0.6666666666666666 0.6666666666666666
            specularColor 0.4666666666666667 0.4666666666666667 0.4666666666666667
            ambientIntensity 0.6667
            transparency 0.0
            shininess 0.5
        }
    }
    geometry IndexedFaceSet {
        ccw TRUE
        solid FALSE
        coord DEF co Coordinate {
            point [
                -1.4016 -0.0571 -1.5748, -1.4016 0.061 -1.5748, -1.4016 -0.0571 0.2362, -1.4016 0.061 0.2362, -1.5984 -0.0571 -1.5748, -1.5984 -0.0571 0.2362, -1.5984 0.061 -1.5748, -1.5984 0.061 0.2362, -0.4016 -0.0571 -1.5748, -0.4016 0.061 -1.5748, -0.4016 -0.0571 0.2362, -0.4016 0.061 0.2362, -0.5984 -0.0571 -1.5748, -0.5984 -0.0571 0.2362, -0.5984 0.061 -1.5748, -0.5984 0.061 0.2362
            ]
        }
        coordIndex [
            0,1,2,-1,2,1,3,-1,4,0,5,-1,5,0,2,-1,6,4,7,-1,7,4,5,-1,1,6,3,-1,3,6,7,-1,4,6,0,-1,0,6,1,-1,8,9,10,-1,10,9,11,-1,12,8,13,-1,13,8,10,-1,14,12,15,-1,15,12,13,-1,9,14,11,-1,11,14,15,-1,12,14,8,-1,8,14,9,-1,
        ]
    }
}
Shape{
    appearance Appearance {
        material  Material 	{
            diffuseColor 1.0 1.0 1.0
            specularColor 0.8784313725490196 0.8784313725490196 0.8784313725490196
            ambientIntensity 1.0
            transparency 0.0
            shininess 0.5
        }
    }
    geometry IndexedFaceSet {
        ccw TRUE
        solid FALSE
        coord DEF co Coordinate {
            point [
                1.8219 -0.2776 0.6693, 1.8089 -0.2776 0.6777, 1.8087 -0.2776 0.6598, 1.8008 -0.2776 0.6721, 1.7944 -0.2776 0.6542, 1.7903 -0.2776 0.668, 1.773 -0.2776 0.6516, 1.7729 -0.2776 0.666, 1.7383 -0.2776 0.6516, 1.7546 -0.2776 0.666, 1.7383 -0.2776 0.7777, 1.7546 -0.2776 0.7632, 1.7743 -0.2776 0.7777, 1.7736 -0.2776 0.7632, 1.775 -0.2776 0.7632, 1.7935 -0.2776 0.7756, 1.7911 -0.2776 0.7611, 1.8087 -0.2776 0.77, 1.8018 -0.2776 0.7569, 1.8219 -0.2776 0.761, 1.81 -0.2776 0.7513, 1.8264 -0.2776 0.7566, 1.8135 -0.2776 0.7478, 1.8342 -0.2776 0.7456, 1.8184 -0.2776 0.7408, 1.8389 -0.2776 0.7336, 1.822 -0.2776 0.7316, 1.841 -0.2776 0.7162, 1.8238 -0.2776 0.7158, 1.8406 -0.2776 0.7082, 1.8233 -0.2776 0.7071, 1.8375 -0.2776 0.6934, 1.8208 -0.2776 0.6957, 1.8313 -0.2776 0.6804, 1.8163 -0.2776 0.6864, 1.8104 -0.2776 0.6791, 1.8219 -0.2736 0.6693, 1.8313 -0.2736 0.6804, 1.8375 -0.2736 0.6934, 1.8406 -0.2736 0.7082, 1.841 -0.2736 0.7162, 1.8389 -0.2736 0.7336, 1.8342 -0.2736 0.7456, 1.8264 -0.2736 0.7566, 1.8219 -0.2736 0.761, 1.8087 -0.2736 0.77, 1.7935 -0.2736 0.7756, 1.7743 -0.2736 0.7777, 1.7383 -0.2736 0.7777, 1.7383 -0.2736 0.6516, 1.773 -0.2736 0.6516, 1.7944 -0.2736 0.6542, 1.8087 -0.2736 0.6598, 1.81 -0.2736 0.7513, 1.8135 -0.2736 0.7478, 1.8184 -0.2736 0.7408, 1.822 -0.2736 0.7316, 1.8238 -0.2736 0.7158, 1.7736 -0.2736 0.7632, 1.775 -0.2736 0.7632, 1.7911 -0.2736 0.7611, 1.8018 -0.2736 0.7569, 1.7546 -0.2736 0.7632, 1.7546 -0.2736 0.666, 1.7729 -0.2736 0.666, 1.8104 -0.2736 0.6791, 1.8089 -0.2736 0.6777, 1.8008 -0.2736 0.6721, 1.7903 -0.2736 0.668, 1.8233 -0.2736 0.7071, 1.8208 -0.2736 0.6957, 1.8163 -0.2736 0.6864
            ]
        }
        coordIndex [
            0,1,2,-1,2,1,3,-1,2,3,4,-1,4,3,5,-1,4,5,6,-1,6,5,7,-1,6,7,8,-1,8,7,9,-1,8,9,10,-1,10,9,11,-1,10,11,12,-1,11,13,12,-1,12,13,14,-1,12,14,15,-1,15,14,16,-1,15,16,17,-1,17,16,18,-1,17,18,19,-1,19,18,20,-1,19,20,21,-1,21,20,22,-1,21,22,23,-1,23,22,24,-1,23,24,25,-1,25,24,26,-1,25,26,27,-1,27,26,28,-1,27,28,29,-1,29,28,30,-1,29,30,31,-1,31,30,32,-1,31,32,33,-1,33,32,34,-1,33,34,0,-1,0,34,35,-1,0,35,1,-1,0,36,37,-1,0,37,33,-1,33,37,38,-1,33,38,31,-1,31,38,39,-1,31,39,29,-1,29,39,40,-1,29,40,27,-1,27,40,41,-1,27,41,25,-1,25,41,42,-1,25,42,23,-1,23,42,43,-1,23,43,21,-1,21,43,44,-1,21,44,19,-1,19,44,45,-1,19,45,17,-1,17,45,46,-1,17,46,15,-1,15,46,47,-1,15,47,12,-1,10,12,48,-1,48,12,47,-1,8,10,49,-1,49,10,48,-1,6,8,50,-1,50,8,49,-1,6,50,51,-1,6,51,4,-1,4,51,52,-1,4,52,2,-1,2,52,36,-1,2,36,0,-1,20,53,54,-1,20,54,22,-1,22,54,55,-1,22,55,24,-1,24,55,56,-1,24,56,26,-1,26,56,57,-1,26,57,28,-1,13,58,59,-1,13,59,14,-1,14,59,60,-1,14,60,16,-1,16,60,61,-1,16,61,18,-1,18,61,53,-1,18,53,20,-1,13,11,58,-1,58,11,62,-1,11,9,62,-1,62,9,63,-1,9,7,63,-1,63,7,64,-1,35,65,66,-1,35,66,1,-1,1,66,67,-1,1,67,3,-1,3,67,68,-1,3,68,5,-1,5,68,64,-1,5,64,7,-1,28,57,69,-1,28,69,30,-1,30,69,70,-1,30,70,32,-1,32,70,71,-1,32,71,34,-1,34,71,65,-1,34,65,35,-1,
        ]
    }
}
Shape{
    appearance Appearance {
        material  Material 	{
            diffuseColor 0.20784313725490197 0.20784313725490197 0.20784313725490197
            specularColor 0.01568627450980392 0.01568627450980392 0.01568627450980392
            ambientIntensity 0.298
            transparency 0.0
            shininess 0.5
        }
    }
    geometry IndexedFaceSet {
        ccw TRUE
        solid FALSE
        coord DEF co Coordinate {
            point [
                1.8008 -0.2736 0.6721, 1.8089 -0.2736 0.6777, 1.775 -0.2736 0.7632, 1.7546 -0.2736 0.7632, 1.7546 -0.2736 0.666, 1.7736 -0.2736 0.7632, 1.7729 -0.2736 0.666, 1.7903 -0.2736 0.668, 1.8104 -0.2736 0.6791, 1.8163 -0.2736 0.6864, 1.8208 -0.2736 0.6957, 1.8238 -0.2736 0.7158, 1.81 -0.2736 0.7513, 1.8018 -0.2736 0.7569, 1.822 -0.2736 0.7316, 1.8184 -0.2736 0.7408, 1.8135 -0.2736 0.7478, 1.8233 -0.2736 0.7071, 1.7911 -0.2736 0.7611
            ]
        }
        coordIndex [
            0,1,2,-1,3,4,5,-1,5,4,6,-1,5,6,2,-1,2,6,7,-1,2,7,0,-1,1,8,2,-1,2,8,9,-1,2,9,10,-1,11,12,13,-1,14,15,11,-1,11,15,16,-1,11,16,12,-1,10,17,2,-1,2,17,11,-1,2,11,18,-1,18,11,13,-1,
        ]
    }
}
Shape{
    appearance Appearance {
        material  Material 	{
            diffuseColor 1.0 1.0 1.0
            specularColor 0.8784313725490196 0.8784313725490196 0.8784313725490196
            ambientIntensity 1.0
            transparency 0.0
            shininess 0.5
        }
    }
    geometry IndexedFaceSet {
        ccw TRUE
        solid FALSE
        coord DEF co Coordinate {
            point [
                1.5887 -0.2776 0.6738, 1.5887 -0.2736 0.6738, 1.5875 -0.2736 0.6696, 1.5875 -0.2776 0.6696, 1.5867 -0.2736 0.6665, 1.5867 -0.2776 0.6665, 1.5863 -0.2776 0.6665, 1.5863 -0.2736 0.6665, 1.5844 -0.2776 0.674, 1.5844 -0.2736 0.674, 1.5609 -0.2736 0.7416, 1.5609 -0.2776 0.7416, 1.5685 -0.2736 0.7197, 1.5432 -0.2776 0.7416, 1.5432 -0.2736 0.7416, 1.5785 -0.2736 0.6518, 1.5785 -0.2776 0.6518, 1.5685 -0.2736 0.6773, 1.5716 -0.2736 0.6354, 1.5716 -0.2776 0.6354, 1.578 -0.2736 0.6505, 1.5685 -0.2736 0.6297, 1.5684 -0.2776 0.6297, 1.5684 -0.2736 0.6297, 1.5655 -0.2736 0.6264, 1.5655 -0.2776 0.6264, 1.5628 -0.2736 0.6245, 1.5628 -0.2776 0.6245, 1.5594 -0.2736 0.6232, 1.5594 -0.2776 0.6232, 1.5554 -0.2736 0.6227, 1.5554 -0.2776 0.6227, 1.5497 -0.2736 0.6235, 1.5497 -0.2776 0.6235, 1.5464 -0.2736 0.6245, 1.5464 -0.2776 0.6245, 1.5464 -0.2776 0.6105, 1.5464 -0.2736 0.6105, 1.5531 -0.2736 0.6093, 1.5531 -0.2776 0.6093, 1.5566 -0.2736 0.6092, 1.5566 -0.2776 0.6092, 1.563 -0.2736 0.6099, 1.563 -0.2776 0.6099, 1.5685 -0.2736 0.612, 1.5692 -0.2776 0.6123, 1.5692 -0.2736 0.6123, 1.5748 -0.2736 0.6161, 1.5748 -0.2776 0.6161, 1.5758 -0.2736 0.6171, 1.5758 -0.2776 0.6171, 1.5816 -0.2736 0.6241, 1.5816 -0.2776 0.6241, 1.5888 -0.2736 0.638, 1.5888 -0.2776 0.638, 1.6296 -0.2736 0.7416, 1.6296 -0.2776 0.7416, 1.5937 -0.2736 0.6505, 1.6133 -0.2776 0.7416, 1.6133 -0.2736 0.7416, 1.4986 -0.2776 0.6495, 1.4986 -0.2736 0.6495, 1.5127 -0.2776 0.6511, 1.5076 -0.2736 0.6505, 1.5127 -0.2736 0.6511, 1.5211 -0.2736 0.6543, 1.5211 -0.2776 0.6543, 1.5248 -0.2736 0.6566, 1.5248 -0.2776 0.6566, 1.5293 -0.2736 0.6606, 1.5293 -0.2776 0.6606, 1.5323 -0.2736 0.6647, 1.5323 -0.2776 0.6647, 1.5342 -0.2736 0.6697, 1.5342 -0.2776 0.6697, 1.535 -0.2736 0.6761, 1.535 -0.2776 0.6761, 1.5343 -0.2736 0.682, 1.5343 -0.2776 0.682, 1.5326 -0.2736 0.6866, 1.5326 -0.2776 0.6866, 1.5297 -0.2736 0.691, 1.5297 -0.2776 0.691, 1.5259 -0.2736 0.6943, 1.5259 -0.2776 0.6943, 1.5154 -0.2736 0.7002, 1.5154 -0.2776 0.7002, 1.5093 -0.2736 0.7026, 1.5093 -0.2776 0.7026, 1.4995 -0.2736 0.7069, 1.4995 -0.2776 0.7069, 1.494 -0.2736 0.7104, 1.494 -0.2776 0.7104, 1.4924 -0.2736 0.7121, 1.4924 -0.2776 0.7121, 1.4913 -0.2736 0.7142, 1.4913 -0.2776 0.7142, 1.4907 -0.2736 0.7167, 1.4907 -0.2776 0.7167, 1.4905 -0.2736 0.7188, 1.4905 -0.2776 0.7188, 1.4908 -0.2736 0.7213, 1.4908 -0.2776 0.7213, 1.4916 -0.2736 0.7234, 1.4916 -0.2776 0.7234, 1.4929 -0.2736 0.7254, 1.4929 -0.2776 0.7254, 1.4953 -0.2736 0.7275, 1.4953 -0.2776 0.7275, 1.4989 -0.2736 0.7294, 1.4989 -0.2776 0.7294, 1.5031 -0.2736 0.7305, 1.5031 -0.2776 0.7305, 1.5078 -0.2736 0.7309, 1.5078 -0.2776 0.7309, 1.5178 -0.2736 0.7298, 1.5178 -0.2776 0.7298, 1.5268 -0.2736 0.7266, 1.5268 -0.2776 0.7266, 1.5307 -0.2736 0.7244, 1.5307 -0.2776 0.7244, 1.5307 -0.2776 0.7397, 1.5307 -0.2736 0.7397, 1.5204 -0.2736 0.7427, 1.5204 -0.2776 0.7427, 1.5093 -0.2736 0.7437, 1.5093 -0.2776 0.7437, 1.4983 -0.2736 0.7426, 1.4983 -0.2776 0.7426, 1.4895 -0.2736 0.7396, 1.4895 -0.2776 0.7396, 1.4844 -0.2736 0.7366, 1.4844 -0.2776 0.7366, 1.4797 -0.2776 0.7323, 1.4815 -0.2736 0.7339, 1.4797 -0.2736 0.7323, 1.4768 -0.2736 0.7281, 1.4768 -0.2776 0.7281, 1.4749 -0.2736 0.723, 1.4749 -0.2776 0.723, 1.4742 -0.2736 0.7173, 1.4742 -0.2776 0.7173, 1.4749 -0.2736 0.7112, 1.4749 -0.2776 0.7112, 1.4767 -0.2736 0.7064, 1.4767 -0.2776 0.7064, 1.4787 -0.2736 0.7031, 1.4787 -0.2776 0.7031, 1.4982 -0.2736 0.6912, 1.4982 -0.2776 0.6912, 1.4888 -0.2776 0.6955, 1.4813 -0.2736 0.7004, 1.4813 -0.2776 0.7004, 1.4815 -0.2736 0.7003, 1.4888 -0.2736 0.6955, 1.5085 -0.2736 0.6868, 1.5085 -0.2776 0.6868, 1.5147 -0.2736 0.6831, 1.5147 -0.2776 0.6831, 1.5167 -0.2736 0.6811, 1.5167 -0.2776 0.6811, 1.5179 -0.2736 0.679, 1.5179 -0.2776 0.679, 1.5186 -0.2736 0.6765, 1.5186 -0.2776 0.6765, 1.5188 -0.2736 0.6745, 1.5188 -0.2776 0.6745, 1.5184 -0.2736 0.6715, 1.5184 -0.2776 0.6715, 1.5176 -0.2736 0.6693, 1.5176 -0.2776 0.6693, 1.5163 -0.2736 0.6672, 1.5163 -0.2776 0.6672, 1.5144 -0.2736 0.6656, 1.5144 -0.2776 0.6656, 1.513 -0.2736 0.6648, 1.513 -0.2776 0.6648, 1.5089 -0.2736 0.6633, 1.5089 -0.2776 0.6633, 1.5008 -0.2736 0.6624, 1.5008 -0.2776 0.6624, 1.5001 -0.2736 0.6624, 1.5001 -0.2776 0.6624, 1.4742 -0.2736 0.6711, 1.4742 -0.2776 0.6711, 1.4805 -0.2776 0.6671, 1.4905 -0.2736 0.6635, 1.4905 -0.2776 0.6635, 1.4815 -0.2736 0.6668, 1.4805 -0.2736 0.6671, 1.4742 -0.2776 0.6547, 1.4742 -0.2736 0.6547, 1.4837 -0.2776 0.6512, 1.4815 -0.2736 0.6521, 1.4896 -0.2736 0.6505, 1.4837 -0.2736 0.6512, 1.4365 -0.2776 0.6655, 1.437 -0.2776 0.6655, 1.4359 -0.2776 0.68, 1.4369 -0.2776 0.6871, 1.4527 -0.2776 0.7095, 1.437 -0.2776 0.6881, 1.437 -0.2776 0.6968, 1.437 -0.2776 0.6516, 1.4527 -0.2776 0.6516, 1.3965 -0.2776 0.6795, 1.3973 -0.2776 0.6831, 1.3838 -0.2776 0.6903, 1.4336 -0.2776 0.6744, 1.4302 -0.2776 0.6698, 1.4325 -0.2776 0.6598, 1.4282 -0.2776 0.6678, 1.4273 -0.2776 0.655, 1.4237 -0.2776 0.6648, 1.4241 -0.2776 0.653, 1.419 -0.2776 0.6631, 1.4179 -0.2776 0.6506, 1.413 -0.2776 0.6624, 1.4089 -0.2776 0.6495, 1.4077 -0.2776 0.663, 1.3995 -0.2776 0.6506, 1.4041 -0.2776 0.6643, 1.3934 -0.2776 0.6528, 1.401 -0.2776 0.6665, 1.3881 -0.2776 0.6566, 1.3996 -0.2776 0.6678, 1.387 -0.2776 0.6948, 1.3987 -0.2776 0.6861, 1.392 -0.2776 0.699, 1.4006 -0.2776 0.6884, 1.3989 -0.2776 0.7024, 1.4025 -0.2776 0.6899, 1.4061 -0.2776 0.6916, 1.4103 -0.2776 0.7051, 1.4159 -0.2776 0.6939, 1.437 -0.2776 0.7088, 1.3815 -0.2776 0.6848, 1.3805 -0.2776 0.6781, 1.3964 -0.2776 0.677, 1.3804 -0.2776 0.6757, 1.3968 -0.2776 0.6734, 1.3812 -0.2776 0.6685, 1.3978 -0.2776 0.6705, 1.3831 -0.2776 0.6632, 1.3864 -0.2776 0.6583, 1.3892 -0.2776 0.7353, 1.3892 -0.2776 0.72, 1.3925 -0.2776 0.7372, 1.3984 -0.2776 0.726, 1.4042 -0.2776 0.7418, 1.4083 -0.2776 0.7297, 1.4202 -0.2776 0.7437, 1.4187 -0.2776 0.7309, 1.43 -0.2776 0.7428, 1.4241 -0.2776 0.7303, 1.4366 -0.2776 0.7407, 1.4277 -0.2776 0.729, 1.4418 -0.2776 0.7377, 1.4305 -0.2776 0.7272, 1.446 -0.2776 0.7336, 1.4329 -0.2776 0.7247, 1.4492 -0.2776 0.7284, 1.4348 -0.2776 0.7214, 1.4516 -0.2776 0.7211, 1.4364 -0.2776 0.7158, 1.4187 -0.2736 0.7309, 1.4241 -0.2736 0.7303, 1.4277 -0.2736 0.729, 1.4305 -0.2736 0.7272, 1.4329 -0.2736 0.7247, 1.4348 -0.2736 0.7214, 1.4364 -0.2736 0.7158, 1.437 -0.2736 0.7088, 1.4103 -0.2736 0.7051, 1.3989 -0.2736 0.7024, 1.392 -0.2736 0.699, 1.387 -0.2736 0.6948, 1.3838 -0.2736 0.6903, 1.3815 -0.2736 0.6848, 1.3805 -0.2736 0.6781, 1.3804 -0.2736 0.6757, 1.3812 -0.2736 0.6685, 1.3831 -0.2736 0.6632, 1.3864 -0.2736 0.6583, 1.3881 -0.2736 0.6566, 1.4089 -0.2736 0.6495, 1.3998 -0.2736 0.6505, 1.3995 -0.2736 0.6506, 1.3934 -0.2736 0.6528, 1.4176 -0.2736 0.6505, 1.4179 -0.2736 0.6506, 1.4241 -0.2736 0.653, 1.4273 -0.2736 0.655, 1.4325 -0.2736 0.6598, 1.4365 -0.2736 0.6655, 1.437 -0.2736 0.6655, 1.437 -0.2736 0.6516, 1.4527 -0.2736 0.6516, 1.4527 -0.2736 0.7095, 1.4516 -0.2736 0.7211, 1.4492 -0.2736 0.7284, 1.446 -0.2736 0.7336, 1.4418 -0.2736 0.7377, 1.4366 -0.2736 0.7407, 1.43 -0.2736 0.7428, 1.4202 -0.2736 0.7437, 1.4042 -0.2736 0.7418, 1.3925 -0.2736 0.7372, 1.3892 -0.2736 0.7353, 1.3892 -0.2736 0.72, 1.3984 -0.2736 0.726, 1.4083 -0.2736 0.7297, 1.4302 -0.2736 0.6698, 1.4282 -0.2736 0.6678, 1.4237 -0.2736 0.6648, 1.419 -0.2736 0.6631, 1.413 -0.2736 0.6624, 1.437 -0.2736 0.6881, 1.4369 -0.2736 0.6871, 1.4359 -0.2736 0.68, 1.4336 -0.2736 0.6744, 1.437 -0.2736 0.6968, 1.4159 -0.2736 0.6939, 1.4006 -0.2736 0.6884, 1.4025 -0.2736 0.6899, 1.4061 -0.2736 0.6916, 1.3964 -0.2736 0.677, 1.3965 -0.2736 0.6795, 1.3973 -0.2736 0.6831, 1.3987 -0.2736 0.6861, 1.401 -0.2736 0.6665, 1.3996 -0.2736 0.6678, 1.3978 -0.2736 0.6705, 1.3968 -0.2736 0.6734, 1.4077 -0.2736 0.663, 1.4041 -0.2736 0.6643
            ]
        }
        coordIndex [
            0,1,2,-1,0,2,3,-1,3,2,4,-1,3,4,5,-1,6,5,7,-1,7,5,4,-1,8,6,9,-1,9,6,7,-1,10,11,12,-1,12,11,8,-1,12,8,9,-1,13,11,14,-1,14,11,10,-1,15,16,17,-1,17,16,13,-1,17,13,14,-1,18,19,20,-1,20,19,16,-1,20,16,15,-1,18,21,19,-1,19,21,22,-1,21,23,22,-1,22,23,24,-1,22,24,25,-1,25,24,26,-1,25,26,27,-1,27,26,28,-1,27,28,29,-1,29,28,30,-1,29,30,31,-1,31,30,32,-1,31,32,33,-1,33,32,34,-1,33,34,35,-1,36,35,37,-1,37,35,34,-1,36,37,38,-1,36,38,39,-1,39,38,40,-1,39,40,41,-1,41,40,42,-1,41,42,43,-1,43,42,44,-1,43,44,45,-1,44,46,45,-1,45,46,47,-1,45,47,48,-1,48,47,49,-1,48,49,50,-1,50,49,51,-1,50,51,52,-1,52,51,53,-1,52,53,54,-1,55,56,57,-1,57,56,54,-1,57,54,53,-1,58,56,59,-1,59,56,55,-1,0,58,1,-1,1,58,59,-1,3,5,54,-1,56,58,54,-1,54,58,0,-1,54,0,3,-1,11,13,8,-1,8,13,16,-1,8,16,6,-1,35,36,33,-1,33,36,39,-1,33,39,31,-1,31,39,41,-1,31,41,29,-1,29,41,43,-1,29,43,27,-1,27,43,45,-1,27,45,25,-1,5,6,54,-1,54,6,16,-1,54,16,52,-1,16,19,52,-1,52,19,22,-1,52,22,50,-1,50,22,25,-1,50,25,48,-1,48,25,45,-1,60,61,62,-1,62,61,63,-1,63,64,62,-1,62,64,65,-1,62,65,66,-1,66,65,67,-1,66,67,68,-1,68,67,69,-1,68,69,70,-1,70,69,71,-1,70,71,72,-1,72,71,73,-1,72,73,74,-1,74,73,75,-1,74,75,76,-1,76,75,77,-1,76,77,78,-1,78,77,79,-1,78,79,80,-1,80,79,81,-1,80,81,82,-1,82,81,83,-1,82,83,84,-1,84,83,85,-1,84,85,86,-1,86,85,87,-1,86,87,88,-1,88,87,89,-1,88,89,90,-1,90,89,91,-1,90,91,92,-1,92,91,93,-1,92,93,94,-1,94,93,95,-1,94,95,96,-1,96,95,97,-1,96,97,98,-1,98,97,99,-1,98,99,100,-1,100,99,101,-1,100,101,102,-1,102,101,103,-1,102,103,104,-1,104,103,105,-1,104,105,106,-1,106,105,107,-1,106,107,108,-1,108,107,109,-1,108,109,110,-1,110,109,111,-1,110,111,112,-1,112,111,113,-1,112,113,114,-1,114,113,115,-1,114,115,116,-1,116,115,117,-1,116,117,118,-1,118,117,119,-1,118,119,120,-1,121,120,122,-1,122,120,119,-1,121,122,123,-1,121,123,124,-1,124,123,125,-1,124,125,126,-1,126,125,127,-1,126,127,128,-1,128,127,129,-1,128,129,130,-1,130,129,131,-1,130,131,132,-1,132,131,133,-1,133,131,134,-1,134,135,133,-1,133,135,136,-1,133,136,137,-1,137,136,138,-1,137,138,139,-1,139,138,140,-1,139,140,141,-1,141,140,142,-1,141,142,143,-1,143,142,144,-1,143,144,145,-1,145,144,146,-1,145,146,147,-1,148,149,150,-1,147,146,151,-1,147,151,152,-1,152,151,153,-1,152,153,150,-1,150,153,154,-1,150,154,148,-1,149,148,155,-1,149,155,156,-1,156,155,157,-1,156,157,158,-1,158,157,159,-1,158,159,160,-1,160,159,161,-1,160,161,162,-1,162,161,163,-1,162,163,164,-1,164,163,165,-1,164,165,166,-1,166,165,167,-1,166,167,168,-1,168,167,169,-1,168,169,170,-1,170,169,171,-1,170,171,172,-1,172,171,173,-1,172,173,174,-1,174,173,175,-1,174,175,176,-1,176,175,177,-1,176,177,178,-1,178,177,179,-1,178,179,180,-1,180,179,181,-1,180,181,182,-1,183,184,185,-1,182,181,186,-1,182,186,187,-1,187,186,188,-1,187,188,185,-1,185,188,189,-1,185,189,183,-1,190,184,191,-1,191,184,183,-1,190,191,192,-1,192,191,193,-1,61,60,194,-1,194,60,192,-1,194,192,195,-1,195,192,193,-1,106,108,130,-1,130,108,128,-1,156,88,149,-1,149,88,90,-1,66,68,172,-1,172,68,70,-1,172,70,170,-1,170,70,72,-1,170,72,168,-1,168,72,74,-1,168,74,166,-1,166,74,76,-1,166,76,164,-1,164,76,78,-1,164,78,162,-1,162,78,80,-1,162,80,160,-1,160,80,82,-1,160,82,158,-1,158,82,84,-1,158,84,156,-1,156,84,86,-1,156,86,88,-1,60,182,192,-1,192,182,187,-1,192,187,190,-1,190,187,185,-1,190,185,184,-1,108,110,128,-1,128,110,112,-1,128,112,126,-1,126,112,114,-1,126,114,124,-1,124,114,116,-1,124,116,121,-1,121,116,118,-1,121,118,120,-1,172,174,66,-1,66,174,176,-1,66,176,62,-1,62,176,178,-1,62,178,60,-1,60,178,180,-1,60,180,182,-1,130,132,106,-1,106,132,133,-1,106,133,104,-1,104,133,137,-1,104,137,102,-1,102,137,139,-1,102,139,100,-1,100,139,141,-1,100,141,98,-1,98,141,143,-1,98,143,96,-1,96,143,145,-1,96,145,94,-1,94,145,147,-1,94,147,92,-1,92,147,152,-1,92,152,90,-1,90,152,150,-1,90,150,149,-1,196,197,198,-1,199,200,201,-1,201,200,202,-1,203,204,197,-1,197,204,200,-1,197,200,198,-1,198,200,199,-1,205,206,207,-1,198,208,196,-1,196,208,209,-1,196,209,210,-1,210,209,211,-1,210,211,212,-1,212,211,213,-1,212,213,214,-1,214,213,215,-1,214,215,216,-1,216,215,217,-1,216,217,218,-1,218,217,219,-1,218,219,220,-1,220,219,221,-1,220,221,222,-1,222,221,223,-1,222,223,224,-1,224,223,225,-1,207,206,226,-1,226,206,227,-1,226,227,228,-1,228,227,229,-1,228,229,230,-1,229,231,230,-1,230,231,232,-1,230,232,233,-1,233,232,234,-1,233,234,235,-1,207,236,205,-1,205,236,237,-1,205,237,238,-1,238,237,239,-1,238,239,240,-1,240,239,241,-1,240,241,242,-1,242,241,243,-1,242,243,225,-1,225,243,244,-1,225,244,224,-1,245,246,247,-1,247,246,248,-1,247,248,249,-1,249,248,250,-1,249,250,251,-1,251,250,252,-1,251,252,253,-1,253,252,254,-1,253,254,255,-1,255,254,256,-1,255,256,257,-1,257,256,258,-1,257,258,259,-1,259,258,260,-1,259,260,261,-1,261,260,262,-1,261,262,263,-1,263,262,264,-1,263,264,200,-1,200,264,235,-1,200,235,202,-1,202,235,234,-1,252,265,266,-1,252,266,254,-1,254,266,267,-1,254,267,256,-1,256,267,268,-1,256,268,258,-1,258,268,269,-1,258,269,260,-1,260,269,270,-1,260,270,262,-1,262,270,271,-1,262,271,264,-1,264,271,272,-1,264,272,235,-1,233,235,273,-1,273,235,272,-1,233,273,274,-1,233,274,230,-1,230,274,275,-1,230,275,228,-1,228,275,276,-1,228,276,226,-1,226,276,277,-1,226,277,207,-1,207,277,278,-1,207,278,236,-1,236,278,279,-1,236,279,237,-1,237,279,280,-1,237,280,239,-1,239,280,281,-1,239,281,241,-1,241,281,282,-1,241,282,243,-1,243,282,283,-1,243,283,244,-1,244,283,284,-1,244,284,224,-1,285,218,286,-1,286,218,220,-1,286,220,287,-1,287,220,222,-1,287,222,288,-1,288,222,224,-1,288,224,284,-1,285,289,218,-1,218,289,216,-1,289,290,216,-1,216,290,291,-1,216,291,214,-1,214,291,292,-1,214,292,212,-1,212,292,293,-1,212,293,210,-1,210,293,294,-1,210,294,196,-1,197,196,295,-1,295,196,294,-1,203,197,296,-1,296,197,295,-1,204,203,297,-1,297,203,296,-1,200,204,298,-1,298,204,297,-1,200,298,299,-1,200,299,263,-1,263,299,300,-1,263,300,261,-1,261,300,301,-1,261,301,259,-1,259,301,302,-1,259,302,257,-1,257,302,303,-1,257,303,255,-1,255,303,304,-1,255,304,253,-1,253,304,305,-1,253,305,251,-1,251,305,306,-1,251,306,249,-1,249,306,307,-1,249,307,247,-1,247,307,308,-1,247,308,245,-1,246,245,309,-1,309,245,308,-1,246,309,310,-1,246,310,248,-1,248,310,311,-1,248,311,250,-1,250,311,265,-1,250,265,252,-1,209,312,313,-1,209,313,211,-1,211,313,314,-1,211,314,213,-1,213,314,315,-1,213,315,215,-1,215,315,316,-1,215,316,217,-1,201,317,318,-1,201,318,199,-1,199,318,319,-1,199,319,198,-1,198,319,320,-1,198,320,208,-1,208,320,312,-1,208,312,209,-1,201,202,317,-1,317,202,321,-1,202,234,321,-1,321,234,322,-1,229,323,324,-1,229,324,231,-1,231,324,325,-1,231,325,232,-1,232,325,322,-1,232,322,234,-1,238,326,327,-1,238,327,205,-1,205,327,328,-1,205,328,206,-1,206,328,329,-1,206,329,227,-1,227,329,323,-1,227,323,229,-1,223,330,331,-1,223,331,225,-1,225,331,332,-1,225,332,242,-1,242,332,333,-1,242,333,240,-1,240,333,326,-1,240,326,238,-1,217,316,334,-1,217,334,219,-1,219,334,335,-1,219,335,221,-1,221,335,330,-1,221,330,223,-1,
        ]
    }
}
Shape{
    appearance Appearance {
        material  Material 	{
            diffuseColor 0.20784313725490197 0.20784313725490197 0.20784313725490197
            specularColor 0.01568627450980392 0.01568627450980392 0.01568627450980392
            ambientIntensity 0.298
            transparency 0.0
            shininess 0.5
        }
    }
    geometry IndexedFaceSet {
        ccw TRUE
        solid FALSE
        coord DEF co Coordinate {
            point [
                1.4369 -0.2736 0.6871, 1.437 -0.2736 0.6881, 1.4006 -0.2736 0.6884, 1.437 -0.2736 0.6968, 1.4159 -0.2736 0.6939, 1.4061 -0.2736 0.6916, 1.4025 -0.2736 0.6899, 1.4359 -0.2736 0.68, 1.3987 -0.2736 0.6861, 1.4336 -0.2736 0.6744, 1.3996 -0.2736 0.6678, 1.401 -0.2736 0.6665, 1.4282 -0.2736 0.6678, 1.3978 -0.2736 0.6705, 1.4237 -0.2736 0.6648, 1.419 -0.2736 0.6631, 1.413 -0.2736 0.6624, 1.3973 -0.2736 0.6831, 1.3965 -0.2736 0.6795, 1.4302 -0.2736 0.6698, 1.3964 -0.2736 0.677, 1.3968 -0.2736 0.6734, 1.4041 -0.2736 0.6643, 1.4077 -0.2736 0.663
            ]
        }
        coordIndex [
            0,1,2,-1,1,3,4,-1,4,5,1,-1,1,5,6,-1,1,6,2,-1,0,2,7,-1,7,2,8,-1,7,8,9,-1,10,11,12,-1,10,12,13,-1,14,12,15,-1,15,12,16,-1,8,17,9,-1,9,17,18,-1,9,18,19,-1,19,18,20,-1,19,20,12,-1,12,20,21,-1,12,21,13,-1,11,22,12,-1,12,22,23,-1,12,23,16,-1,
        ]
    }
}
Shape{
    appearance Appearance {
        material  Material 	{
            diffuseColor 1.0 1.0 1.0
            specularColor 0.8784313725490196 0.8784313725490196 0.8784313725490196
            ambientIntensity 1.0
            transparency 0.0
            shininess 0.5
        }
    }
    geometry IndexedFaceSet {
        ccw TRUE
        solid FALSE
        coord DEF co Coordinate {
            point [
                0.7406 -0.2776 0.6337, 0.7539 -0.2776 0.6173, 0.7325 -0.2776 0.713, 0.7169 -0.2776 0.8688, 0.7369 -0.2776 0.8794, 0.7321 -0.2776 0.9346, 0.8901 -0.2776 0.6302, 0.9007 -0.2776 0.6502, 0.9059 -0.2776 0.6723, 0.7881 -0.2776 0.9371, 0.8159 -0.2776 0.8717, 0.8295 -0.2776 0.9, 0.7129 -0.2776 0.725, 0.7203 -0.2776 0.6563, 0.7316 -0.2776 0.6529, 0.7674 -0.2776 0.9389, 1.0319 -0.2776 0.7569, 1.0041 -0.2776 0.8045, 0.9064 -0.2776 0.6906, 0.884 -0.2776 0.7417, 0.9064 -0.2776 0.6816, 0.8584 -0.2776 0.6023, 0.8763 -0.2776 0.6148, 0.7924 -0.2776 0.6549, 0.7995 -0.2776 0.6499, 0.7714 -0.2776 0.604, 0.8078 -0.2776 0.6467, 0.848 -0.2776 0.6945, 0.8504 -0.2776 0.6863, 0.8507 -0.2776 0.6776, 0.8488 -0.2776 0.669, 0.8448 -0.2776 0.6611, 1.0615 -0.2776 0.8457, 1.0687 -0.2776 0.8457, 1.1054 -0.2776 0.8941, 1.0857 -0.2776 0.8436, 1.1099 -0.2776 0.8926, 1.1014 -0.2776 0.8376, 1.1365 -0.2776 0.8794, 1.1608 -0.2776 0.8588, 0.8064 -0.2776 0.9585, 0.8497 -0.2776 0.9241, 0.8275 -0.2776 0.9766, 0.8737 -0.2776 0.9416, 0.8532 -0.2776 0.9921, 0.759 -0.2776 0.8847, 0.7683 -0.2776 0.8851, 0.7778 -0.2776 0.9384, 0.7893 -0.2776 0.8825, 0.8094 -0.2776 0.8752, 0.7811 -0.2776 0.6772, 0.783 -0.2776 0.6688, 0.7867 -0.2776 0.6614, 0.7921 -0.2776 0.5953, 0.8133 -0.2776 0.592, 0.8159 -0.2776 0.6458, 0.8168 -0.2776 0.592, 0.8244 -0.2776 0.6468, 0.8384 -0.2776 0.5947, 0.8322 -0.2776 0.6498, 0.8391 -0.2776 0.6546, 1.161 -0.2776 0.6915, 1.1192 -0.2776 0.7271, 1.1366 -0.2776 0.6708, 1.106 -0.2776 0.7162, 1.1093 -0.2776 0.6575, 1.0901 -0.2776 0.7089, 1.0794 -0.2776 0.6512, 1.0741 -0.2776 0.7058, 1.0265 -0.2776 0.6512, 1.0337 -0.2776 0.7058, 1.0215 -0.2776 0.652, 1.1153 -0.2776 0.8279, 1.1256 -0.2776 0.8163, 1.1791 -0.2776 0.8333, 1.134 -0.2776 0.8008, 1.1901 -0.2776 0.8059, 1.1382 -0.2776 0.7836, 1.1942 -0.2776 0.7767, 1.1386 -0.2776 0.7758, 1.1901 -0.2776 0.7447, 1.1364 -0.2776 0.7583, 1.1788 -0.2776 0.7163, 1.1303 -0.2776 0.7423, 1.1204 -0.2776 0.7284, 1.057 -0.2776 0.9649, 1.022 -0.2776 0.9237, 1.0882 -0.2776 0.9284, 1.0422 -0.2776 0.8995, 1.056 -0.2776 0.8706, 0.6814 -0.2776 0.8172, 0.6225 -0.2776 0.8023, 0.6787 -0.2776 0.7955, 0.6222 -0.2776 0.7937, 0.6798 -0.2776 0.7817, 0.6265 -0.2776 0.7586, 0.6862 -0.2776 0.7598, 0.6394 -0.2776 0.7252, 0.6969 -0.2776 0.7416, 0.6599 -0.2776 0.696, 0.6879 -0.2776 0.6721, 0.7813 -0.2776 0.6859, 0.7837 -0.2776 0.6944, 0.7424 -0.2776 0.7323, 0.7881 -0.2776 0.702, 0.7572 -0.2776 0.7492, 0.7925 -0.2776 0.7067, 0.7755 -0.2776 0.762, 0.7995 -0.2776 0.7116, 0.7954 -0.2776 0.7695, 0.8074 -0.2776 0.7147, 0.8168 -0.2776 0.7722, 0.8159 -0.2776 0.7157, 0.8277 -0.2776 0.7715, 0.822 -0.2776 0.7152, 0.8493 -0.2776 0.7662, 0.8304 -0.2776 0.7125, 0.8683 -0.2776 0.756, 0.8378 -0.2776 0.7079, 0.8438 -0.2776 0.7017, 0.8948 -0.2776 1.0071, 0.903 -0.2776 0.9535, 0.9351 -0.2776 1.0116, 0.936 -0.2776 0.9578, 0.9778 -0.2776 1.0064, 0.9664 -0.2776 0.954, 1.0223 -0.2776 0.9891, 0.9945 -0.2776 0.9433, 1.0197 -0.2776 0.9258, 0.6989 -0.2776 0.9217, 0.6704 -0.2776 0.9016, 0.7015 -0.2776 0.855, 0.6643 -0.2776 0.8959, 0.689 -0.2776 0.8372, 0.6428 -0.2776 0.8683, 0.6285 -0.2776 0.836, 1.0292 -0.2776 0.7067, 1.0077 -0.2776 0.6606, 1.0097 -0.2776 0.6584, 1.0319 -0.2776 0.7061, 1.0156 -0.2776 0.6543, 1.0005 -0.2776 0.6789, 1.0014 -0.2776 0.6723, 1.0037 -0.2776 0.6662, 1.0214 -0.2776 0.7058, 1.0152 -0.2776 0.7034, 1.0008 -0.2776 0.6825, 1.0097 -0.2776 0.6995, 1.006 -0.2776 0.6954, 1.0026 -0.2776 0.6893, 1.0283 -0.2776 0.7067, 1.1668 -0.2736 0.8506, 1.1791 -0.2736 0.8333, 1.187 -0.2736 0.8136, 1.1901 -0.2736 0.8059, 1.1942 -0.2736 0.7767, 1.1608 -0.2736 0.8588, 1.1365 -0.2736 0.8794, 1.1099 -0.2736 0.8926, 1.1054 -0.2736 0.8941, 1.0882 -0.2736 0.9284, 1.057 -0.2736 0.9649, 1.0223 -0.2736 0.9891, 0.9778 -0.2736 1.0064, 0.9351 -0.2736 1.0116, 0.8948 -0.2736 1.0071, 0.8532 -0.2736 0.9921, 0.8275 -0.2736 0.9766, 0.8064 -0.2736 0.9585, 0.7881 -0.2736 0.9371, 0.7778 -0.2736 0.9384, 0.7674 -0.2736 0.9389, 0.7321 -0.2736 0.9346, 0.6989 -0.2736 0.9217, 0.6704 -0.2736 0.9016, 0.6643 -0.2736 0.8959, 0.6245 -0.2736 0.8136, 0.6285 -0.2736 0.836, 0.6349 -0.2736 0.8506, 0.6428 -0.2736 0.8683, 0.6225 -0.2736 0.8023, 0.6222 -0.2736 0.7937, 0.6265 -0.2736 0.7586, 0.6394 -0.2736 0.7252, 0.6599 -0.2736 0.696, 0.6879 -0.2736 0.6721, 0.7203 -0.2736 0.6563, 0.7316 -0.2736 0.6529, 0.7327 -0.2736 0.6505, 0.7406 -0.2736 0.6337, 0.7539 -0.2736 0.6173, 0.7714 -0.2736 0.604, 0.7797 -0.2736 0.6006, 0.7921 -0.2736 0.5953, 0.8133 -0.2736 0.592, 0.8168 -0.2736 0.592, 0.9064 -0.2736 0.6816, 0.8384 -0.2736 0.5947, 0.8539 -0.2736 0.6006, 0.8584 -0.2736 0.6023, 0.8763 -0.2736 0.6148, 0.8901 -0.2736 0.6302, 0.9007 -0.2736 0.6502, 0.9008 -0.2736 0.6505, 0.9059 -0.2736 0.6723, 0.9064 -0.2736 0.6906, 1.0319 -0.2736 0.7569, 1.0041 -0.2736 0.8045, 0.884 -0.2736 0.7417, 0.8683 -0.2736 0.756, 0.8493 -0.2736 0.7662, 0.8277 -0.2736 0.7715, 0.8168 -0.2736 0.7722, 0.7954 -0.2736 0.7695, 0.7755 -0.2736 0.762, 0.7572 -0.2736 0.7492, 0.7424 -0.2736 0.7323, 0.7325 -0.2736 0.713, 0.7129 -0.2736 0.725, 0.6969 -0.2736 0.7416, 0.6862 -0.2736 0.7598, 0.6798 -0.2736 0.7817, 0.6787 -0.2736 0.7955, 0.6809 -0.2736 0.8136, 0.6814 -0.2736 0.8172, 0.689 -0.2736 0.8372, 0.6983 -0.2736 0.8506, 0.7015 -0.2736 0.855, 0.7169 -0.2736 0.8688, 0.7369 -0.2736 0.8794, 0.759 -0.2736 0.8847, 0.7683 -0.2736 0.8851, 0.7893 -0.2736 0.8825, 0.8094 -0.2736 0.8752, 0.8159 -0.2736 0.8717, 0.8295 -0.2736 0.9, 0.8497 -0.2736 0.9241, 0.8737 -0.2736 0.9416, 0.903 -0.2736 0.9535, 0.936 -0.2736 0.9578, 0.9664 -0.2736 0.954, 0.9945 -0.2736 0.9433, 1.0197 -0.2736 0.9258, 1.022 -0.2736 0.9237, 1.0422 -0.2736 0.8995, 1.056 -0.2736 0.8706, 1.0604 -0.2736 0.8506, 1.0615 -0.2736 0.8457, 1.0687 -0.2736 0.8457, 1.0857 -0.2736 0.8436, 1.1014 -0.2736 0.8376, 1.1153 -0.2736 0.8279, 1.1256 -0.2736 0.8163, 1.1271 -0.2736 0.8136, 1.134 -0.2736 0.8008, 1.1382 -0.2736 0.7836, 1.1386 -0.2736 0.7758, 1.1364 -0.2736 0.7583, 1.1303 -0.2736 0.7423, 1.1204 -0.2736 0.7284, 1.1192 -0.2736 0.7271, 1.106 -0.2736 0.7162, 1.0901 -0.2736 0.7089, 1.0741 -0.2736 0.7058, 1.0337 -0.2736 0.7058, 1.0319 -0.2736 0.7061, 1.0292 -0.2736 0.7067, 1.0283 -0.2736 0.7067, 1.0214 -0.2736 0.7058, 1.0152 -0.2736 0.7034, 1.0097 -0.2736 0.6995, 1.006 -0.2736 0.6954, 1.0026 -0.2736 0.6893, 1.0008 -0.2736 0.6825, 1.0005 -0.2736 0.6789, 1.0014 -0.2736 0.6723, 1.0037 -0.2736 0.6662, 1.0077 -0.2736 0.6606, 1.0097 -0.2736 0.6584, 1.0156 -0.2736 0.6543, 1.0215 -0.2736 0.652, 1.0265 -0.2736 0.6512, 1.0794 -0.2736 0.6512, 1.1093 -0.2736 0.6575, 1.1366 -0.2736 0.6708, 1.161 -0.2736 0.6915, 1.1788 -0.2736 0.7163, 1.1901 -0.2736 0.7447, 0.8159 -0.2736 0.7157, 0.822 -0.2736 0.7152, 0.8304 -0.2736 0.7125, 0.8378 -0.2736 0.7079, 0.8438 -0.2736 0.7017, 0.848 -0.2736 0.6945, 0.8504 -0.2736 0.6863, 0.8507 -0.2736 0.6776, 0.8488 -0.2736 0.669, 0.8448 -0.2736 0.6611, 0.8391 -0.2736 0.6546, 0.8322 -0.2736 0.6498, 0.8244 -0.2736 0.6468, 0.8159 -0.2736 0.6458, 0.8078 -0.2736 0.6467, 0.7995 -0.2736 0.6499, 0.7924 -0.2736 0.6549, 0.7867 -0.2736 0.6614, 0.783 -0.2736 0.6688, 0.7811 -0.2736 0.6772, 0.7813 -0.2736 0.6859, 0.7837 -0.2736 0.6944, 0.7881 -0.2736 0.702, 0.7925 -0.2736 0.7067, 0.7995 -0.2736 0.7116, 0.8074 -0.2736 0.7147
            ]
        }
        coordIndex [
            0,1,2,-1,3,4,5,-1,6,7,8,-1,9,10,11,-1,12,13,2,-1,2,13,14,-1,2,14,0,-1,5,4,15,-1,16,17,18,-1,18,17,19,-1,18,19,20,-1,20,19,21,-1,20,21,8,-1,8,21,22,-1,8,22,6,-1,23,1,24,-1,24,1,25,-1,24,25,26,-1,27,28,19,-1,19,28,29,-1,19,29,21,-1,21,29,30,-1,21,30,31,-1,32,33,34,-1,34,33,35,-1,34,35,36,-1,36,35,37,-1,36,37,38,-1,38,37,39,-1,9,11,40,-1,40,11,41,-1,40,41,42,-1,42,41,43,-1,42,43,44,-1,4,45,15,-1,15,45,46,-1,15,46,47,-1,47,46,48,-1,47,48,9,-1,9,48,49,-1,9,49,10,-1,50,2,51,-1,51,2,1,-1,51,1,52,-1,52,1,23,-1,25,53,26,-1,26,53,54,-1,26,54,55,-1,55,54,56,-1,55,56,57,-1,57,56,58,-1,57,58,59,-1,59,58,21,-1,59,21,60,-1,60,21,31,-1,61,62,63,-1,63,62,64,-1,63,64,65,-1,65,64,66,-1,65,66,67,-1,67,66,68,-1,67,68,69,-1,69,68,70,-1,69,70,71,-1,37,72,39,-1,39,72,73,-1,39,73,74,-1,74,73,75,-1,74,75,76,-1,76,75,77,-1,76,77,78,-1,78,77,79,-1,78,79,80,-1,80,79,81,-1,80,81,82,-1,82,81,83,-1,82,83,61,-1,61,83,84,-1,61,84,62,-1,85,86,87,-1,87,86,88,-1,87,88,34,-1,34,88,89,-1,34,89,32,-1,90,91,92,-1,92,91,93,-1,92,93,94,-1,94,93,95,-1,94,95,96,-1,96,95,97,-1,96,97,98,-1,98,97,99,-1,98,99,12,-1,12,99,100,-1,12,100,13,-1,50,101,2,-1,2,101,102,-1,2,102,103,-1,103,102,104,-1,103,104,105,-1,105,104,106,-1,105,106,107,-1,107,106,108,-1,107,108,109,-1,109,108,110,-1,109,110,111,-1,111,110,112,-1,111,112,113,-1,113,112,114,-1,113,114,115,-1,115,114,116,-1,115,116,117,-1,117,116,118,-1,117,118,19,-1,19,118,119,-1,19,119,27,-1,44,43,120,-1,120,43,121,-1,120,121,122,-1,122,121,123,-1,122,123,124,-1,124,123,125,-1,124,125,126,-1,126,125,127,-1,126,127,85,-1,85,127,128,-1,85,128,86,-1,5,129,3,-1,3,129,130,-1,3,130,131,-1,131,130,132,-1,131,132,133,-1,133,132,134,-1,133,134,90,-1,90,134,135,-1,90,135,91,-1,136,137,138,-1,70,139,71,-1,71,139,136,-1,71,136,140,-1,140,136,138,-1,141,142,136,-1,136,142,143,-1,136,143,137,-1,144,145,146,-1,145,147,146,-1,146,147,148,-1,146,148,149,-1,141,136,146,-1,146,136,150,-1,146,150,144,-1,151,39,152,-1,152,39,74,-1,152,74,153,-1,153,74,76,-1,153,76,154,-1,154,76,78,-1,154,78,155,-1,151,156,39,-1,39,156,157,-1,39,157,38,-1,38,157,158,-1,38,158,36,-1,36,158,159,-1,36,159,34,-1,34,159,160,-1,34,160,87,-1,87,160,161,-1,87,161,85,-1,85,161,162,-1,85,162,126,-1,126,162,163,-1,126,163,124,-1,124,163,164,-1,124,164,122,-1,122,164,165,-1,122,165,120,-1,120,165,166,-1,120,166,44,-1,44,166,167,-1,44,167,42,-1,42,167,168,-1,42,168,40,-1,40,168,169,-1,40,169,9,-1,9,169,170,-1,9,170,47,-1,47,170,171,-1,47,171,15,-1,15,171,172,-1,15,172,5,-1,5,172,173,-1,5,173,129,-1,129,173,174,-1,129,174,130,-1,130,174,175,-1,130,175,132,-1,176,91,177,-1,177,91,135,-1,177,135,178,-1,178,135,134,-1,178,134,179,-1,179,134,132,-1,179,132,175,-1,176,180,91,-1,91,180,181,-1,91,181,93,-1,93,181,182,-1,93,182,95,-1,95,182,183,-1,95,183,97,-1,97,183,184,-1,97,184,99,-1,99,184,185,-1,99,185,100,-1,100,185,186,-1,100,186,13,-1,13,186,187,-1,13,187,14,-1,14,187,188,-1,14,188,0,-1,188,189,0,-1,0,189,190,-1,0,190,1,-1,1,190,191,-1,1,191,25,-1,25,191,192,-1,25,192,53,-1,192,193,53,-1,53,193,194,-1,53,194,54,-1,54,194,195,-1,54,195,56,-1,196,20,8,-1,56,195,197,-1,198,21,197,-1,197,21,58,-1,197,58,56,-1,198,199,21,-1,21,199,200,-1,21,200,22,-1,22,200,201,-1,22,201,6,-1,6,201,202,-1,6,202,7,-1,7,202,203,-1,7,203,8,-1,8,203,204,-1,8,204,196,-1,18,20,205,-1,205,20,196,-1,16,18,206,-1,206,18,205,-1,17,16,207,-1,207,16,206,-1,19,17,208,-1,208,17,207,-1,19,208,209,-1,19,209,117,-1,117,209,210,-1,117,210,115,-1,115,210,211,-1,115,211,113,-1,113,211,212,-1,113,212,111,-1,111,212,213,-1,111,213,109,-1,109,213,214,-1,109,214,107,-1,107,214,215,-1,107,215,105,-1,105,215,216,-1,105,216,103,-1,103,216,217,-1,103,217,2,-1,2,217,218,-1,2,218,12,-1,12,218,219,-1,12,219,98,-1,98,219,220,-1,98,220,96,-1,96,220,221,-1,96,221,94,-1,94,221,222,-1,94,222,92,-1,90,92,222,-1,222,223,90,-1,90,223,224,-1,90,224,225,-1,226,131,225,-1,225,131,133,-1,225,133,90,-1,226,227,131,-1,131,227,228,-1,131,228,3,-1,3,228,229,-1,3,229,4,-1,4,229,230,-1,4,230,45,-1,45,230,231,-1,45,231,46,-1,46,231,232,-1,46,232,48,-1,48,232,233,-1,48,233,49,-1,49,233,234,-1,49,234,10,-1,10,234,235,-1,10,235,11,-1,11,235,236,-1,11,236,41,-1,41,236,237,-1,41,237,43,-1,43,237,238,-1,43,238,121,-1,121,238,239,-1,121,239,123,-1,123,239,240,-1,123,240,125,-1,125,240,241,-1,125,241,127,-1,127,241,242,-1,127,242,128,-1,128,242,243,-1,128,243,86,-1,86,243,244,-1,86,244,88,-1,88,244,245,-1,88,245,89,-1,89,245,32,-1,32,245,246,-1,32,246,247,-1,33,32,248,-1,248,32,247,-1,33,248,249,-1,33,249,35,-1,35,249,250,-1,35,250,37,-1,37,250,251,-1,37,251,72,-1,72,251,252,-1,72,252,73,-1,73,252,253,-1,73,253,75,-1,253,254,75,-1,75,254,255,-1,75,255,77,-1,77,255,256,-1,77,256,79,-1,79,256,257,-1,79,257,81,-1,81,257,258,-1,81,258,83,-1,83,258,259,-1,83,259,84,-1,84,259,260,-1,84,260,62,-1,62,260,261,-1,62,261,64,-1,64,261,262,-1,64,262,66,-1,66,262,263,-1,66,263,68,-1,70,68,264,-1,264,68,263,-1,70,264,265,-1,70,265,139,-1,139,265,266,-1,139,266,136,-1,136,266,267,-1,136,267,150,-1,150,267,268,-1,150,268,144,-1,144,268,269,-1,144,269,145,-1,145,269,270,-1,145,270,147,-1,147,270,271,-1,147,271,148,-1,148,271,272,-1,148,272,149,-1,149,272,273,-1,149,273,146,-1,146,273,274,-1,146,274,141,-1,141,274,275,-1,141,275,142,-1,142,275,276,-1,142,276,143,-1,143,276,277,-1,143,277,137,-1,137,277,278,-1,137,278,138,-1,138,278,279,-1,138,279,140,-1,140,279,280,-1,140,280,71,-1,71,280,281,-1,71,281,69,-1,67,69,282,-1,282,69,281,-1,67,282,283,-1,67,283,65,-1,65,283,284,-1,65,284,63,-1,63,284,285,-1,63,285,61,-1,61,285,286,-1,61,286,82,-1,82,286,287,-1,82,287,80,-1,80,287,155,-1,80,155,78,-1,112,288,289,-1,112,289,114,-1,114,289,290,-1,114,290,116,-1,116,290,291,-1,116,291,118,-1,118,291,292,-1,118,292,119,-1,119,292,293,-1,119,293,27,-1,27,293,294,-1,27,294,28,-1,28,294,295,-1,28,295,29,-1,29,295,296,-1,29,296,30,-1,30,296,297,-1,30,297,31,-1,31,297,298,-1,31,298,60,-1,60,298,299,-1,60,299,59,-1,59,299,300,-1,59,300,57,-1,57,300,301,-1,57,301,55,-1,55,301,302,-1,55,302,26,-1,26,302,303,-1,26,303,24,-1,24,303,304,-1,24,304,23,-1,23,304,305,-1,23,305,52,-1,52,305,306,-1,52,306,51,-1,51,306,307,-1,51,307,50,-1,50,307,308,-1,50,308,101,-1,101,308,309,-1,101,309,102,-1,102,309,310,-1,102,310,104,-1,104,310,311,-1,104,311,106,-1,106,311,312,-1,106,312,108,-1,108,312,313,-1,108,313,110,-1,110,313,288,-1,110,288,112,-1,
        ]
    }
}
Shape{
    appearance Appearance {
        material  Material 	{
            diffuseColor 0.20784313725490197 0.20784313725490197 0.20784313725490197
            specularColor 0.01568627450980392 0.01568627450980392 0.01568627450980392
            ambientIntensity 0.298
            transparency 0.0
            shininess 0.5
        }
    }
    geometry IndexedFaceSet {
        ccw TRUE
        solid FALSE
        coord DEF co Coordinate {
            point [
                0.8159 -0.2736 0.6458, 0.7925 -0.2736 0.7067, 0.7881 -0.2736 0.702, 0.8159 -0.2736 0.7157, 0.822 -0.2736 0.7152, 0.8244 -0.2736 0.6468, 0.8074 -0.2736 0.7147, 0.7995 -0.2736 0.7116, 0.8391 -0.2736 0.6546, 0.8438 -0.2736 0.7017, 0.8378 -0.2736 0.7079, 0.783 -0.2736 0.6688, 0.7867 -0.2736 0.6614, 0.7924 -0.2736 0.6549, 0.8322 -0.2736 0.6498, 0.8304 -0.2736 0.7125, 0.7837 -0.2736 0.6944, 0.7813 -0.2736 0.6859, 0.7811 -0.2736 0.6772, 0.7995 -0.2736 0.6499, 0.8078 -0.2736 0.6467, 0.8488 -0.2736 0.669, 0.8507 -0.2736 0.6776, 0.8448 -0.2736 0.6611, 0.8504 -0.2736 0.6863, 0.848 -0.2736 0.6945
            ]
        }
        coordIndex [
            0,1,2,-1,3,0,4,-1,4,0,5,-1,3,6,0,-1,0,6,7,-1,0,7,1,-1,8,9,10,-1,11,12,2,-1,2,12,13,-1,5,14,4,-1,4,14,8,-1,4,8,15,-1,15,8,10,-1,16,17,2,-1,2,17,18,-1,2,18,11,-1,13,19,2,-1,2,19,20,-1,2,20,0,-1,21,22,23,-1,23,22,24,-1,23,24,8,-1,8,24,25,-1,8,25,9,-1,
        ]
    }
}
Shape{
    appearance Appearance {
        material  Material 	{
            diffuseColor 1.0 1.0 1.0
            specularColor 0.8784313725490196 0.8784313725490196 0.8784313725490196
            ambientIntensity 1.0
            transparency 0.0
            shininess 0.5
        }
    }
    geometry IndexedFaceSet {
        ccw TRUE
        solid FALSE
        coord DEF co Coordinate {
            point [
                1.664 -0.2776 0.8693, 1.651 -0.2776 0.8778, 1.6508 -0.2776 0.8598, 1.6428 -0.2776 0.8721, 1.6365 -0.2776 0.8542, 1.6324 -0.2776 0.8681, 1.6151 -0.2776 0.8516, 1.615 -0.2776 0.866, 1.5804 -0.2776 0.8516, 1.5967 -0.2776 0.866, 1.5804 -0.2776 0.9777, 1.5967 -0.2776 0.9632, 1.6164 -0.2776 0.9777, 1.6157 -0.2776 0.9632, 1.6171 -0.2776 0.9632, 1.6356 -0.2776 0.9756, 1.6332 -0.2776 0.9611, 1.6508 -0.2776 0.97, 1.6439 -0.2776 0.957, 1.664 -0.2776 0.961, 1.6521 -0.2776 0.9514, 1.6685 -0.2776 0.9567, 1.6556 -0.2776 0.9479, 1.6763 -0.2776 0.9457, 1.6605 -0.2776 0.9408, 1.681 -0.2776 0.9336, 1.6641 -0.2776 0.9316, 1.6831 -0.2776 0.9163, 1.6659 -0.2776 0.9158, 1.6827 -0.2776 0.9082, 1.6654 -0.2776 0.9071, 1.6796 -0.2776 0.8935, 1.6629 -0.2776 0.8957, 1.6734 -0.2776 0.8804, 1.6584 -0.2776 0.8865, 1.6525 -0.2776 0.8792, 1.664 -0.2736 0.8693, 1.6734 -0.2736 0.8804, 1.6796 -0.2736 0.8935, 1.6827 -0.2736 0.9082, 1.6831 -0.2736 0.9163, 1.681 -0.2736 0.9336, 1.6763 -0.2736 0.9457, 1.6685 -0.2736 0.9567, 1.664 -0.2736 0.961, 1.6508 -0.2736 0.97, 1.6382 -0.2736 0.9747, 1.6356 -0.2736 0.9756, 1.6164 -0.2736 0.9777, 1.5804 -0.2736 0.9777, 1.5804 -0.2736 0.8516, 1.6151 -0.2736 0.8516, 1.6365 -0.2736 0.8542, 1.6382 -0.2736 0.8549, 1.6508 -0.2736 0.8598, 1.6521 -0.2736 0.9514, 1.6556 -0.2736 0.9479, 1.6605 -0.2736 0.9408, 1.6641 -0.2736 0.9316, 1.6659 -0.2736 0.9158, 1.6157 -0.2736 0.9632, 1.6171 -0.2736 0.9632, 1.6332 -0.2736 0.9611, 1.6439 -0.2736 0.957, 1.5967 -0.2736 0.9632, 1.5967 -0.2736 0.866, 1.615 -0.2736 0.866, 1.6525 -0.2736 0.8792, 1.651 -0.2736 0.8778, 1.6428 -0.2736 0.8721, 1.6324 -0.2736 0.8681, 1.6654 -0.2736 0.9071, 1.6629 -0.2736 0.8957, 1.6584 -0.2736 0.8865
            ]
        }
        coordIndex [
            0,1,2,-1,2,1,3,-1,2,3,4,-1,4,3,5,-1,4,5,6,-1,6,5,7,-1,6,7,8,-1,8,7,9,-1,8,9,10,-1,10,9,11,-1,10,11,12,-1,11,13,12,-1,12,13,14,-1,12,14,15,-1,15,14,16,-1,15,16,17,-1,17,16,18,-1,17,18,19,-1,19,18,20,-1,19,20,21,-1,21,20,22,-1,21,22,23,-1,23,22,24,-1,23,24,25,-1,25,24,26,-1,25,26,27,-1,27,26,28,-1,27,28,29,-1,29,28,30,-1,29,30,31,-1,31,30,32,-1,31,32,33,-1,33,32,34,-1,33,34,0,-1,0,34,35,-1,0,35,1,-1,0,36,37,-1,0,37,33,-1,33,37,38,-1,33,38,31,-1,31,38,39,-1,31,39,29,-1,29,39,40,-1,29,40,27,-1,27,40,41,-1,27,41,25,-1,25,41,42,-1,25,42,23,-1,23,42,43,-1,23,43,21,-1,21,43,44,-1,21,44,19,-1,19,44,45,-1,46,15,45,-1,45,15,17,-1,45,17,19,-1,46,47,15,-1,15,47,48,-1,15,48,12,-1,10,12,49,-1,49,12,48,-1,8,10,50,-1,50,10,49,-1,6,8,51,-1,51,8,50,-1,36,0,2,-1,6,51,52,-1,6,52,4,-1,4,52,53,-1,4,53,2,-1,2,53,54,-1,2,54,36,-1,20,55,56,-1,20,56,22,-1,22,56,57,-1,22,57,24,-1,24,57,58,-1,24,58,26,-1,26,58,59,-1,26,59,28,-1,13,60,61,-1,13,61,14,-1,14,61,62,-1,14,62,16,-1,16,62,63,-1,16,63,18,-1,18,63,55,-1,18,55,20,-1,13,11,60,-1,60,11,64,-1,11,9,64,-1,64,9,65,-1,9,7,65,-1,65,7,66,-1,35,67,68,-1,35,68,1,-1,1,68,69,-1,1,69,3,-1,3,69,70,-1,3,70,5,-1,5,70,66,-1,5,66,7,-1,28,59,71,-1,28,71,30,-1,30,71,72,-1,30,72,32,-1,32,72,73,-1,32,73,34,-1,34,73,67,-1,34,67,35,-1,
        ]
    }
}
Shape{
    appearance Appearance {
        material  Material 	{
            diffuseColor 0.20784313725490197 0.20784313725490197 0.20784313725490197
            specularColor 0.01568627450980392 0.01568627450980392 0.01568627450980392
            ambientIntensity 0.298
            transparency 0.0
            shininess 0.5
        }
    }
    geometry IndexedFaceSet {
        ccw TRUE
        solid FALSE
        coord DEF co Coordinate {
            point [
                1.6428 -0.2736 0.8721, 1.651 -0.2736 0.8778, 1.6171 -0.2736 0.9632, 1.5967 -0.2736 0.9632, 1.5967 -0.2736 0.866, 1.6157 -0.2736 0.9632, 1.615 -0.2736 0.866, 1.6324 -0.2736 0.8681, 1.6525 -0.2736 0.8792, 1.6584 -0.2736 0.8865, 1.6629 -0.2736 0.8957, 1.6659 -0.2736 0.9158, 1.6521 -0.2736 0.9514, 1.6439 -0.2736 0.957, 1.6641 -0.2736 0.9316, 1.6605 -0.2736 0.9408, 1.6556 -0.2736 0.9479, 1.6654 -0.2736 0.9071, 1.6332 -0.2736 0.9611
            ]
        }
        coordIndex [
            0,1,2,-1,3,4,5,-1,5,4,6,-1,5,6,2,-1,2,6,7,-1,2,7,0,-1,1,8,2,-1,2,8,9,-1,2,9,10,-1,11,12,13,-1,14,15,11,-1,11,15,16,-1,11,16,12,-1,10,17,2,-1,2,17,11,-1,2,11,18,-1,18,11,13,-1,
        ]
    }
}
Shape{
    appearance Appearance {
        material  Material 	{
            diffuseColor 1.0 1.0 1.0
            specularColor 0.8784313725490196 0.8784313725490196 0.8784313725490196
            ambientIntensity 1.0
            transparency 0.0
            shininess 0.5
        }
    }
    geometry IndexedFaceSet {
        ccw TRUE
        solid FALSE
        coord DEF co Coordinate {
            point [
                1.431 -0.2776 0.864, 1.431 -0.2736 0.864, 1.42 -0.2736 0.8651, 1.42 -0.2776 0.8651, 1.4107 -0.2736 0.8683, 1.4107 -0.2776 0.8683, 1.4022 -0.2736 0.8738, 1.4022 -0.2776 0.8738, 1.3986 -0.2736 0.8773, 1.3986 -0.2776 0.8773, 1.3928 -0.2736 0.8851, 1.3928 -0.2776 0.8851, 1.3886 -0.2736 0.8951, 1.3886 -0.2776 0.8951, 1.3864 -0.2736 0.9075, 1.3864 -0.2776 0.9075, 1.3862 -0.2736 0.9133, 1.3862 -0.2776 0.9133, 1.3883 -0.2736 0.9306, 1.3883 -0.2776 0.9306, 1.3925 -0.2736 0.9415, 1.3925 -0.2776 0.9415, 1.3986 -0.2736 0.9502, 1.3986 -0.2776 0.9502, 1.3994 -0.2736 0.9512, 1.3994 -0.2776 0.9512, 1.4071 -0.2736 0.9577, 1.4071 -0.2776 0.9577, 1.417 -0.2736 0.9625, 1.417 -0.2776 0.9625, 1.4278 -0.2736 0.9648, 1.4278 -0.2776 0.9648, 1.4338 -0.2736 0.9651, 1.4338 -0.2776 0.9651, 1.4493 -0.2736 0.9633, 1.4493 -0.2776 0.9633, 1.4621 -0.2736 0.9584, 1.4621 -0.2776 0.9584, 1.4635 -0.2736 0.9577, 1.4635 -0.2776 0.9577, 1.4635 -0.2776 0.9747, 1.4635 -0.2736 0.9747, 1.4501 -0.2736 0.9785, 1.4501 -0.2776 0.9785, 1.4336 -0.2736 0.9798, 1.4336 -0.2776 0.9798, 1.4154 -0.2736 0.9776, 1.4154 -0.2776 0.9776, 1.4022 -0.2736 0.9725, 1.4022 -0.2776 0.9725, 1.3904 -0.2736 0.9643, 1.3904 -0.2776 0.9643, 1.3873 -0.2736 0.9613, 1.3873 -0.2776 0.9613, 1.3782 -0.2736 0.9493, 1.3747 -0.2736 0.9413, 1.3722 -0.2776 0.9353, 1.3782 -0.2776 0.9493, 1.3722 -0.2736 0.9353, 1.3693 -0.2736 0.9189, 1.3693 -0.2776 0.9189, 1.3691 -0.2736 0.9123, 1.3691 -0.2776 0.9123, 1.3716 -0.2736 0.8918, 1.3747 -0.2736 0.8837, 1.3767 -0.2776 0.8786, 1.3716 -0.2776 0.8918, 1.3767 -0.2736 0.8786, 1.3842 -0.2736 0.8679, 1.3842 -0.2776 0.8679, 1.3853 -0.2736 0.8667, 1.3853 -0.2776 0.8667, 1.4073 -0.2736 0.8527, 1.3954 -0.2776 0.8583, 1.3954 -0.2736 0.8583, 1.4176 -0.2736 0.8506, 1.421 -0.2776 0.8499, 1.4073 -0.2776 0.8527, 1.421 -0.2736 0.8499, 1.4286 -0.2736 0.8495, 1.4286 -0.2776 0.8495, 1.4478 -0.2776 0.8513, 1.4397 -0.2736 0.8506, 1.4478 -0.2736 0.8513, 1.4614 -0.2736 0.8558, 1.4614 -0.2776 0.8558, 1.4635 -0.2736 0.8568, 1.4635 -0.2776 0.8568, 1.4635 -0.2776 0.8724, 1.4635 -0.2736 0.8724, 1.4511 -0.2736 0.8669, 1.4511 -0.2776 0.8669, 1.4368 -0.2736 0.8642, 1.4368 -0.2776 0.8642, 1.8832 -0.2776 0.7003, 1.8781 -0.2776 0.6861, 1.9255 -0.2776 0.7003, 1.9306 -0.2776 0.6861, 1.9021 -0.2776 0.7527, 1.896 -0.2776 0.7777, 1.848 -0.2776 0.6516, 1.8659 -0.2776 0.6516, 1.9032 -0.2776 0.7565, 1.9041 -0.2776 0.7616, 1.9134 -0.2776 0.7777, 1.9045 -0.2776 0.7616, 1.9055 -0.2776 0.7562, 1.9065 -0.2776 0.7527, 1.9614 -0.2776 0.6516, 1.9434 -0.2776 0.6516, 1.896 -0.2736 0.7777, 1.9134 -0.2736 0.7777, 1.848 -0.2736 0.6516, 1.8659 -0.2736 0.6516, 1.8781 -0.2736 0.6861, 1.9306 -0.2736 0.6861, 1.9434 -0.2736 0.6516, 1.9614 -0.2736 0.6516, 1.9021 -0.2736 0.7527, 1.9032 -0.2736 0.7565, 1.9041 -0.2736 0.7616, 1.8832 -0.2736 0.7003, 1.9255 -0.2736 0.7003, 1.9065 -0.2736 0.7527, 1.9045 -0.2736 0.7616, 1.9055 -0.2736 0.7562
            ]
        }
        coordIndex [
            0,1,2,-1,0,2,3,-1,3,2,4,-1,3,4,5,-1,5,4,6,-1,5,6,7,-1,7,6,8,-1,7,8,9,-1,9,8,10,-1,9,10,11,-1,11,10,12,-1,11,12,13,-1,13,12,14,-1,13,14,15,-1,15,14,16,-1,15,16,17,-1,17,16,18,-1,17,18,19,-1,19,18,20,-1,19,20,21,-1,21,20,22,-1,21,22,23,-1,23,22,24,-1,23,24,25,-1,25,24,26,-1,25,26,27,-1,27,26,28,-1,27,28,29,-1,29,28,30,-1,29,30,31,-1,31,30,32,-1,31,32,33,-1,33,32,34,-1,33,34,35,-1,35,34,36,-1,35,36,37,-1,37,36,38,-1,37,38,39,-1,40,39,41,-1,41,39,38,-1,40,41,42,-1,40,42,43,-1,43,42,44,-1,43,44,45,-1,45,44,46,-1,45,46,47,-1,47,46,48,-1,47,48,49,-1,49,48,50,-1,49,50,51,-1,51,50,52,-1,51,52,53,-1,53,52,54,-1,55,56,54,-1,54,56,57,-1,54,57,53,-1,55,58,56,-1,56,58,59,-1,56,59,60,-1,60,59,61,-1,60,61,62,-1,62,61,63,-1,64,65,63,-1,63,65,66,-1,63,66,62,-1,64,67,65,-1,65,67,68,-1,65,68,69,-1,69,68,70,-1,69,70,71,-1,72,73,74,-1,74,73,71,-1,74,71,70,-1,75,76,72,-1,72,76,77,-1,72,77,73,-1,75,78,76,-1,76,78,79,-1,76,79,80,-1,80,79,81,-1,81,79,82,-1,82,83,81,-1,81,83,84,-1,81,84,85,-1,85,84,86,-1,85,86,87,-1,88,87,89,-1,89,87,86,-1,88,89,90,-1,88,90,91,-1,91,90,92,-1,91,92,93,-1,93,92,1,-1,93,1,0,-1,27,29,47,-1,19,21,57,-1,57,21,53,-1,47,29,45,-1,62,17,60,-1,60,17,19,-1,60,19,56,-1,56,19,57,-1,29,31,45,-1,45,31,33,-1,45,33,43,-1,43,33,35,-1,43,35,40,-1,40,35,37,-1,40,37,39,-1,87,88,85,-1,85,88,91,-1,85,91,81,-1,81,91,93,-1,81,93,80,-1,80,93,0,-1,80,0,76,-1,76,0,3,-1,76,3,77,-1,77,3,5,-1,77,5,73,-1,73,5,7,-1,73,7,71,-1,71,7,9,-1,71,9,69,-1,69,9,11,-1,69,11,65,-1,65,11,66,-1,66,11,13,-1,66,13,62,-1,62,13,15,-1,62,15,17,-1,21,23,53,-1,53,23,25,-1,53,25,51,-1,51,25,27,-1,51,27,49,-1,49,27,47,-1,94,95,96,-1,96,95,97,-1,98,99,94,-1,94,99,100,-1,94,100,95,-1,95,100,101,-1,98,102,99,-1,99,102,103,-1,99,103,104,-1,104,103,105,-1,104,105,106,-1,106,107,104,-1,104,107,96,-1,104,96,108,-1,108,96,97,-1,108,97,109,-1,99,104,110,-1,110,104,111,-1,100,99,112,-1,112,99,110,-1,101,100,113,-1,113,100,112,-1,95,101,114,-1,114,101,113,-1,97,95,115,-1,115,95,114,-1,109,97,116,-1,116,97,115,-1,108,109,117,-1,117,109,116,-1,104,108,111,-1,111,108,117,-1,98,118,119,-1,98,119,102,-1,102,119,120,-1,102,120,103,-1,98,94,118,-1,118,94,121,-1,94,96,121,-1,121,96,122,-1,96,107,122,-1,122,107,123,-1,105,124,125,-1,105,125,106,-1,106,125,123,-1,106,123,107,-1,105,103,124,-1,124,103,120,-1,
        ]
    }
}
Shape{
    appearance Appearance {
        material  Material 	{
            diffuseColor 0.20784313725490197 0.20784313725490197 0.20784313725490197
            specularColor 0.01568627450980392 0.01568627450980392 0.01568627450980392
            ambientIntensity 0.298
            transparency 0.0
            shininess 0.5
        }
    }
    geometry IndexedFaceSet {
        ccw TRUE
        solid FALSE
        coord DEF co Coordinate {
            point [
                1.9045 -0.2736 0.7616, 1.9041 -0.2736 0.7616, 1.9055 -0.2736 0.7562, 1.9032 -0.2736 0.7565, 1.9065 -0.2736 0.7527, 1.9021 -0.2736 0.7527, 1.9255 -0.2736 0.7003, 1.8832 -0.2736 0.7003
            ]
        }
        coordIndex [
            0,1,2,-1,2,1,3,-1,2,3,4,-1,4,3,5,-1,4,5,6,-1,6,5,7,-1,
        ]
    }
}
Shape{
    appearance Appearance {
        material  Material 	{
            diffuseColor 1.0 1.0 1.0
            specularColor 0.8784313725490196 0.8784313725490196 0.8784313725490196
            ambientIntensity 1.0
            transparency 0.0
            shininess 0.5
        }
    }
    geometry IndexedFaceSet {
        ccw TRUE
        solid FALSE
        coord DEF co Coordinate {
            point [
                1.6629 -0.2736 0.666, 1.6629 -0.2776 0.666, 1.6865 -0.2736 0.666, 1.7145 -0.2776 0.666, 1.7145 -0.2736 0.666, 1.6629 -0.2776 0.7084, 1.6629 -0.2736 0.7084, 1.708 -0.2736 0.7084, 1.708 -0.2776 0.7084, 1.6865 -0.2736 0.7084, 1.708 -0.2776 0.7228, 1.708 -0.2736 0.7228, 1.6629 -0.2736 0.7228, 1.6629 -0.2776 0.7228, 1.6865 -0.2736 0.7228, 1.6629 -0.2776 0.7632, 1.6629 -0.2736 0.7632, 1.7116 -0.2736 0.7632, 1.7116 -0.2776 0.7632, 1.6865 -0.2736 0.7632, 1.7116 -0.2776 0.7777, 1.7116 -0.2736 0.7777, 1.6467 -0.2736 0.7777, 1.6467 -0.2776 0.7777, 1.6865 -0.2736 0.7777, 1.6467 -0.2776 0.6516, 1.6467 -0.2736 0.6516, 1.7145 -0.2736 0.6516, 1.7145 -0.2776 0.6516, 1.6865 -0.2736 0.6516, 1.3137 -0.2776 0.666, 1.3653 -0.2776 0.666, 1.3137 -0.2736 0.666, 1.3653 -0.2736 0.666, 1.3137 -0.2776 0.7084, 1.3137 -0.2736 0.7084, 1.3588 -0.2776 0.7084, 1.3588 -0.2736 0.7084, 1.3588 -0.2776 0.7228, 1.3588 -0.2736 0.7228, 1.3137 -0.2776 0.7228, 1.3137 -0.2736 0.7228, 1.3137 -0.2776 0.7632, 1.3137 -0.2736 0.7632, 1.3624 -0.2776 0.7632, 1.3624 -0.2736 0.7632, 1.3624 -0.2776 0.7777, 1.3624 -0.2736 0.7777, 1.2975 -0.2776 0.7777, 1.2975 -0.2736 0.7777, 1.2975 -0.2776 0.6516, 1.2975 -0.2736 0.6516, 1.3653 -0.2776 0.6516, 1.3653 -0.2736 0.6516, 1.7253 -0.2776 0.9004, 1.7202 -0.2776 0.8861, 1.7676 -0.2776 0.9004, 1.7727 -0.2776 0.8861, 1.7442 -0.2776 0.9528, 1.7381 -0.2776 0.9777, 1.69 -0.2776 0.8516, 1.708 -0.2776 0.8516, 1.7453 -0.2776 0.9565, 1.7462 -0.2776 0.9616, 1.7555 -0.2776 0.9777, 1.7466 -0.2776 0.9616, 1.7476 -0.2776 0.9563, 1.7486 -0.2776 0.9528, 1.8035 -0.2776 0.8516, 1.7855 -0.2776 0.8516, 1.7381 -0.2736 0.9777, 1.7555 -0.2736 0.9777, 1.69 -0.2736 0.8516, 1.7264 -0.2736 0.947, 1.708 -0.2736 0.8516, 1.7202 -0.2736 0.8861, 1.7727 -0.2736 0.8861, 1.7264 -0.2736 0.8861, 1.7855 -0.2736 0.8516, 1.8035 -0.2736 0.8516, 1.7442 -0.2736 0.9528, 1.7453 -0.2736 0.9565, 1.7462 -0.2736 0.9616, 1.7253 -0.2736 0.9004, 1.7676 -0.2736 0.9004, 1.7486 -0.2736 0.9528, 1.7466 -0.2736 0.9616, 1.7476 -0.2736 0.9563
            ]
        }
        coordIndex [
            0,1,2,-1,2,1,3,-1,2,3,4,-1,5,1,6,-1,6,1,0,-1,7,8,9,-1,9,8,5,-1,9,5,6,-1,10,8,11,-1,11,8,7,-1,12,13,14,-1,14,13,10,-1,14,10,11,-1,15,13,16,-1,16,13,12,-1,17,18,19,-1,19,18,15,-1,19,15,16,-1,20,18,21,-1,21,18,17,-1,22,23,24,-1,24,23,20,-1,24,20,21,-1,25,23,26,-1,26,23,22,-1,27,28,29,-1,29,28,25,-1,29,25,26,-1,3,28,4,-1,4,28,27,-1,25,28,3,-1,3,1,25,-1,25,1,5,-1,25,5,23,-1,18,20,15,-1,15,20,23,-1,15,23,13,-1,13,23,5,-1,13,5,10,-1,10,5,8,-1,30,31,32,-1,32,31,33,-1,34,30,35,-1,35,30,32,-1,36,34,37,-1,37,34,35,-1,38,36,39,-1,39,36,37,-1,40,38,41,-1,41,38,39,-1,42,40,43,-1,43,40,41,-1,44,42,45,-1,45,42,43,-1,46,44,47,-1,47,44,45,-1,48,46,49,-1,49,46,47,-1,50,48,51,-1,51,48,49,-1,52,50,53,-1,53,50,51,-1,31,52,33,-1,33,52,53,-1,50,52,31,-1,31,30,50,-1,50,30,34,-1,50,34,48,-1,44,46,42,-1,42,46,48,-1,42,48,40,-1,40,48,34,-1,40,34,38,-1,38,34,36,-1,54,55,56,-1,56,55,57,-1,58,59,54,-1,54,59,60,-1,54,60,55,-1,55,60,61,-1,58,62,59,-1,59,62,63,-1,59,63,64,-1,64,63,65,-1,64,65,66,-1,66,67,64,-1,64,67,56,-1,64,56,68,-1,68,56,57,-1,68,57,69,-1,59,64,70,-1,70,64,71,-1,72,60,73,-1,73,60,59,-1,73,59,70,-1,61,60,74,-1,74,60,72,-1,55,61,75,-1,75,61,74,-1,76,57,77,-1,77,57,55,-1,77,55,75,-1,69,57,78,-1,78,57,76,-1,68,69,79,-1,79,69,78,-1,64,68,71,-1,71,68,79,-1,58,80,81,-1,58,81,62,-1,62,81,82,-1,62,82,63,-1,58,54,80,-1,80,54,83,-1,54,56,83,-1,83,56,84,-1,56,67,84,-1,84,67,85,-1,65,86,87,-1,65,87,66,-1,66,87,85,-1,66,85,67,-1,65,63,86,-1,86,63,82,-1,
        ]
    }
}
Shape{
    appearance Appearance {
        material  Material 	{
            diffuseColor 0.20784313725490197 0.20784313725490197 0.20784313725490197
            specularColor 0.01568627450980392 0.01568627450980392 0.01568627450980392
            ambientIntensity 0.298
            transparency 0.0
            shininess 0.5
        }
    }
    geometry IndexedFaceSet {
        ccw TRUE
        solid FALSE
        coord DEF co Coordinate {
            point [
                1.7466 -0.2736 0.9616, 1.7462 -0.2736 0.9616, 1.7476 -0.2736 0.9563, 1.7453 -0.2736 0.9565, 1.7486 -0.2736 0.9528, 1.7442 -0.2736 0.9528, 1.7676 -0.2736 0.9004, 1.7253 -0.2736 0.9004
            ]
        }
        coordIndex [
            0,1,2,-1,2,1,3,-1,2,3,4,-1,4,3,5,-1,4,5,6,-1,6,5,7,-1,
        ]
    }
}
Shape{
    appearance Appearance {
        material  Material 	{
            diffuseColor 1.0 1.0 1.0
            specularColor 0.8784313725490196 0.8784313725490196 0.8784313725490196
            ambientIntensity 1.0
            transparency 0.0
            shininess 0.5
        }
    }
    geometry IndexedFaceSet {
        ccw TRUE
        solid FALSE
        coord DEF co Coordinate {
            point [
                1.505 -0.2736 0.866, 1.505 -0.2776 0.866, 1.5391 -0.2736 0.866, 1.5566 -0.2776 0.866, 1.5566 -0.2736 0.866, 1.505 -0.2776 0.9084, 1.505 -0.2736 0.9084, 1.5501 -0.2776 0.9084, 1.5391 -0.2736 0.9084, 1.5501 -0.2736 0.9084, 1.5501 -0.2776 0.9229, 1.5501 -0.2736 0.9229, 1.505 -0.2736 0.9229, 1.505 -0.2776 0.9229, 1.5391 -0.2736 0.9229, 1.505 -0.2776 0.9632, 1.505 -0.2736 0.9632, 1.5537 -0.2736 0.9632, 1.5537 -0.2776 0.9632, 1.5391 -0.2736 0.9632, 1.5537 -0.2776 0.9777, 1.5537 -0.2736 0.9777, 1.4888 -0.2736 0.9777, 1.4888 -0.2776 0.9777, 1.5391 -0.2736 0.9777, 1.4888 -0.2776 0.8516, 1.4888 -0.2736 0.8516, 1.5566 -0.2736 0.8516, 1.5566 -0.2776 0.8516, 1.5391 -0.2736 0.8516, 1.3137 -0.2776 0.866, 1.3639 -0.2776 0.866, 1.3137 -0.2736 0.866, 1.3639 -0.2736 0.866, 1.3137 -0.2776 0.9777, 1.3137 -0.2736 0.9777, 1.2975 -0.2776 0.9777, 1.2975 -0.2736 0.9777, 1.2975 -0.2776 0.8516, 1.2975 -0.2736 0.8516, 1.3639 -0.2776 0.8516, 1.3639 -0.2736 0.8516
            ]
        }
        coordIndex [
            0,1,2,-1,2,1,3,-1,2,3,4,-1,5,1,6,-1,6,1,0,-1,5,6,7,-1,7,6,8,-1,7,8,9,-1,10,7,11,-1,11,7,9,-1,12,13,14,-1,14,13,10,-1,14,10,11,-1,15,13,16,-1,16,13,12,-1,17,18,19,-1,19,18,15,-1,19,15,16,-1,20,18,21,-1,21,18,17,-1,22,23,24,-1,24,23,20,-1,24,20,21,-1,25,23,26,-1,26,23,22,-1,27,28,29,-1,29,28,25,-1,29,25,26,-1,3,28,4,-1,4,28,27,-1,25,28,3,-1,3,1,25,-1,25,1,5,-1,25,5,23,-1,18,20,15,-1,15,20,23,-1,15,23,13,-1,13,23,5,-1,13,5,10,-1,10,5,7,-1,30,31,32,-1,32,31,33,-1,34,30,35,-1,35,30,32,-1,36,34,37,-1,37,34,35,-1,38,36,39,-1,39,36,37,-1,40,38,41,-1,41,38,39,-1,31,40,33,-1,33,40,41,-1,34,36,30,-1,30,36,38,-1,30,38,31,-1,31,38,40,-1,
        ]
    }
}