#VRML V2.0 utf8
# 3D model generated by easyeda2kicad.py (https://github.com/uPesy/easyeda2kicad.py)

Shape{
    appearance Appearance {
        material  Material 	{
            diffuseColor 0.2235294117647059 0.2235294117647059 0.2235294117647059
            specularColor 0.11372549019607843 0.11372549019607843 0.11372549019607843
            ambientIntensity 0.2235
            transparency 0.0
            shininess 0.5
        }
    }
    geometry IndexedFaceSet {
        ccw TRUE
        solid FALSE
        coord DEF co Coordinate {
            point [
                -1.4764 -1.0728 0.4823, -1.4764 -1.0728 0.5807, -1.4764 -0.8346 0.4823, -1.4764 -0.8346 0.5807, -1.4764 -0.6654 0.5807, -1.4764 -0.3346 0.5807, -1.4764 -0.6654 0.4823, -1.4764 -0.3346 0.4823, -1.4764 -0.1654 0.5807, -1.4764 0.1654 0.5807, -1.4764 -0.1654 0.4823, -1.4764 0.1654 0.4823, 1.4764 -1.0728 0.5807, 1.4764 -1.0728 0.4823, 1.4764 -0.8346 0.5807, 1.4764 -0.8346 0.4823, 1.4764 -0.6654 0.4823, 1.4764 -0.3346 0.4823, 1.4764 -0.6654 0.5807, 1.4764 -0.3346 0.5807, 1.4764 -0.1654 0.4823, 1.4764 0.1654 0.4823, 1.4764 -0.1654 0.5807, 1.4764 0.1654 0.5807, 1.4764 0.3346 0.4823, 1.4764 0.6654 0.4823, 1.4764 0.3346 0.5807, 1.4764 0.6654 0.5807, -1.4764 0.3346 0.5807, -1.4764 0.6654 0.5807, -1.4764 0.3346 0.4823, -1.4764 0.6654 0.4823, 1.4764 0.8346 0.4823, 1.4764 1.0728 0.4823, 1.4764 0.8346 0.5807, 1.4764 1.0728 0.5807, -1.3976 1.1516 0.5807, 1.3976 1.1516 0.5807, -1.3976 1.1516 0.4823, 1.3976 1.1516 0.4823, -1.4764 0.8346 0.5807, -1.4764 1.0728 0.5807, -1.4764 0.8346 0.4823, -1.4764 1.0728 0.4823, 1.3976 -1.1516 0.5807, -1.3976 -1.1516 0.5807, 1.3976 -1.1516 0.4823, -1.3976 -1.1516 0.4823, -1.0188 0.6536 0.9843, -1.0138 0.6917 0.9843, -1.2449 1.0143 0.9843, -0.9991 0.7271 0.9843, 1.3392 1.0143 0.9843, -0.7246 0.6536 0.9843, 1.3392 -1.0143 0.9843, -0.7296 0.6155 0.9843, -0.7443 0.58 0.9843, -0.9757 0.7576 0.9843, -0.9453 0.781 0.9843, -0.9098 0.7957 0.9843, -0.7677 0.5496 0.9843, -0.7982 0.5262 0.9843, -1.2449 -1.0143 0.9843, -0.8336 0.5115 0.9843, -0.8717 0.5065 0.9843, -0.9098 0.5115 0.9843, -1.0138 0.6155 0.9843, -0.9991 0.58 0.9843, -0.7677 0.7576 0.9843, -0.7443 0.7271 0.9843, -0.7296 0.6917 0.9843, -0.9453 0.5262 0.9843, -0.9757 0.5496 0.9843, -0.8717 0.8007 0.9843, -0.8336 0.7957 0.9843, -0.7982 0.781 0.9843, -1.3392 -1.0143 0.0787, -1.3392 1.0143 0.0787, 1.3392 -1.0143 0.0787, 1.3392 1.0143 0.0787, -1.3988 -1.1516 0.4822, -1.3392 -1.0919 0.1438, 1.3392 -1.0919 0.1438, 1.3988 -1.1516 0.4822, 1.4764 1.074 0.4822, 1.4167 1.0143 0.1438, 1.4167 -1.0143 0.1438, 1.4764 -1.074 0.4822, -1.4764 -1.074 0.4822, -1.4167 -1.0143 0.1438, -1.4167 1.0143 0.1438, -1.4764 1.074 0.4822, 1.3988 1.1516 0.4822, 1.3392 1.0919 0.1438, -1.3392 1.0919 0.1438, -1.3988 1.1516 0.4822, -1.3988 1.1516 0.5808, -1.3593 1.1121 0.8047, -1.2449 1.0919 0.9192, 1.3392 1.0919 0.9192, 1.3988 1.1516 0.5808, -1.4369 1.0345 0.8047, -1.4764 1.074 0.5808, -1.4369 -1.0345 0.8047, -1.4764 -1.074 0.5808, 1.4167 1.0143 0.9192, 1.4764 -1.074 0.5808, 1.4167 -1.0143 0.9192, 1.4764 1.074 0.5808, 1.3988 -1.1516 0.5808, 1.3392 -1.0919 0.9192, -1.2449 -1.0919 0.9192, -1.3593 -1.1121 0.8047, -1.3988 -1.1516 0.5808, -1.3005 -1.0143 0.9612, -1.3005 1.0143 0.9612, -1.415 -1.0345 0.8467, -1.415 1.0345 0.8467, 1.4023 1.0143 0.1105, 1.39 1.0143 0.0974, 1.3883 1.0275 0.0974, 1.3735 1.0235 0.0872, 1.3568 1.0191 0.0809, 1.355 1.0235 0.0809, 1.3483 1.0302 0.0809, 1.3521 1.0273 0.0809, 1.3439 1.032 0.0809, 1.3573 1.0143 0.0809, 1.4092 1.0331 0.1268, 1.4135 1.0343 0.1409, 1.4136 1.0341 0.1409, 1.4055 1.0525 0.1391, 1.402 1.0506 0.1268, 1.4054 1.0526 0.139, 1.3904 1.0656 0.1268, 1.3932 1.0684 0.1384, 1.3754 1.0771 0.1268, 1.3774 1.0806 0.139, 1.3773 1.0807 0.1391, 1.3579 1.0844 0.1268, 1.3591 1.0887 0.1409, 1.3589 1.0888 0.1409, 1.3392 1.0869 0.1268, 1.3392 1.0325 0.0809, 1.3897 1.0143 0.0972, 1.3747 1.0143 0.0872, 1.3745 1.0143 0.0871, 1.3574 1.0143 0.0809, 1.3699 1.0321 0.0872, 1.3643 1.0395 0.0872, 1.3569 1.0451 0.0872, 1.3483 1.0487 0.0872, 1.3392 1.0326 0.0809, 1.3392 1.0497 0.0871, 1.3392 1.0499 0.0872, 1.3392 1.0649 0.0972, 1.3832 1.0398 0.0974, 1.3751 1.0503 0.0974, 1.3646 1.0584 0.0974, 1.3523 1.0635 0.0974, 1.4114 1.0143 0.1263, 1.4026 1.0143 0.1108, 1.4004 1.0308 0.1108, 1.3941 1.0461 0.1108, 1.384 1.0592 0.1108, 1.3709 1.0693 0.1108, 1.3556 1.0756 0.1108, 1.4117 1.0143 0.1268, 1.3392 1.0652 0.0974, 1.3392 1.0775 0.1105, 1.3392 1.0778 0.1108, 1.3392 1.0866 0.1263, 1.4656 1.1125 0.4798, 1.4658 1.1122 0.4798, 1.4735 1.094 0.4808, 1.4736 1.0932 0.4808, 1.4533 1.1285 0.4795, 1.4374 1.1408 0.4798, 1.437 1.141 0.4798, 1.4188 1.1487 0.4808, 1.418 1.1488 0.4808, 1.4117 -1.0143 0.1268, 1.4114 -1.0143 0.1263, 1.4026 -1.0143 0.1108, 1.4023 -1.0143 0.1105, 1.39 -1.0143 0.0974, 1.3897 -1.0143 0.0972, 1.3747 -1.0143 0.0872, 1.3745 -1.0143 0.0871, 1.3574 -1.0143 0.0809, 1.3573 -1.0143 0.0809, -1.3392 1.0869 0.1268, -1.3392 1.0866 0.1263, -1.3392 1.0778 0.1108, -1.3392 1.0775 0.1105, -1.3392 1.0652 0.0974, -1.3392 1.0649 0.0972, -1.3392 1.0499 0.0872, -1.3392 1.0497 0.0871, -1.3392 1.0326 0.0809, -1.3392 1.0325 0.0809, 1.418 1.1488 0.5822, 1.4188 1.1487 0.5822, 1.437 1.141 0.5832, 1.4374 1.1408 0.5832, 1.4533 1.1285 0.5835, 1.4656 1.1125 0.5832, 1.4658 1.1122 0.5832, 1.4735 1.094 0.5822, 1.4736 1.0932 0.5822, 1.3392 -1.0775 0.1105, 1.3392 -1.0652 0.0974, 1.3523 -1.0635 0.0974, 1.3483 -1.0487 0.0872, 1.3439 -1.032 0.0809, 1.3483 -1.0302 0.0809, 1.355 -1.0235 0.0809, 1.3521 -1.0273 0.0809, 1.3568 -1.0191 0.0809, 1.3392 -1.0325 0.0809, 1.3579 -1.0844 0.1268, 1.3591 -1.0887 0.1409, 1.3589 -1.0888 0.1409, 1.3773 -1.0807 0.1391, 1.3754 -1.0771 0.1268, 1.3774 -1.0806 0.139, 1.3904 -1.0656 0.1268, 1.3932 -1.0684 0.1384, 1.402 -1.0506 0.1268, 1.4054 -1.0526 0.139, 1.4055 -1.0525 0.1391, 1.4092 -1.0331 0.1268, 1.4135 -1.0343 0.1409, 1.4136 -1.0341 0.1409, 1.3392 -1.0649 0.0972, 1.3392 -1.0499 0.0872, 1.3392 -1.0497 0.0871, 1.3392 -1.0326 0.0809, 1.3569 -1.0451 0.0872, 1.3643 -1.0395 0.0872, 1.3699 -1.0321 0.0872, 1.3735 -1.0235 0.0872, 1.3646 -1.0584 0.0974, 1.3751 -1.0503 0.0974, 1.3832 -1.0398 0.0974, 1.3883 -1.0275 0.0974, 1.3392 -1.0866 0.1263, 1.3392 -1.0778 0.1108, 1.3556 -1.0756 0.1108, 1.3709 -1.0693 0.1108, 1.384 -1.0592 0.1108, 1.3941 -1.0461 0.1108, 1.4004 -1.0308 0.1108, 1.3392 -1.0869 0.1268, -1.3523 1.0635 0.0974, -1.3483 1.0487 0.0872, -1.3439 1.032 0.0809, -1.3483 1.0302 0.0809, -1.355 1.0235 0.0809, -1.3521 1.0273 0.0809, -1.3568 1.0191 0.0809, -1.3579 1.0844 0.1268, -1.3591 1.0887 0.1409, -1.3589 1.0888 0.1409, -1.3773 1.0807 0.1391, -1.3754 1.0771 0.1268, -1.3774 1.0806 0.139, -1.3904 1.0656 0.1268, -1.3932 1.0684 0.1384, -1.402 1.0506 0.1268, -1.4054 1.0526 0.139, -1.4055 1.0525 0.1391, -1.4092 1.0331 0.1268, -1.4135 1.0343 0.1409, -1.4136 1.0341 0.1409, -1.4117 1.0143 0.1268, -1.3573 1.0143 0.0809, -1.3569 1.0451 0.0872, -1.3643 1.0395 0.0872, -1.3699 1.0321 0.0872, -1.3735 1.0235 0.0872, -1.3574 1.0143 0.0809, -1.3745 1.0143 0.0871, -1.3747 1.0143 0.0872, -1.3897 1.0143 0.0972, -1.3646 1.0584 0.0974, -1.3751 1.0503 0.0974, -1.3832 1.0398 0.0974, -1.3883 1.0275 0.0974, -1.3556 1.0756 0.1108, -1.3709 1.0693 0.1108, -1.384 1.0592 0.1108, -1.3941 1.0461 0.1108, -1.4004 1.0308 0.1108, -1.39 1.0143 0.0974, -1.4023 1.0143 0.1105, -1.4026 1.0143 0.1108, -1.4114 1.0143 0.1263, 1.3589 1.0888 0.9221, 1.3591 1.0887 0.9221, 1.3773 1.0807 0.9239, 1.3774 1.0806 0.9239, 1.3932 1.0684 0.9246, 1.4054 1.0526 0.9239, 1.4055 1.0525 0.9239, 1.4135 1.0343 0.9221, 1.4136 1.0341 0.9221, 1.4374 -1.1408 0.4798, 1.437 -1.141 0.4798, 1.4188 -1.1487 0.4808, 1.418 -1.1488 0.4808, 1.4533 -1.1285 0.4795, 1.4656 -1.1125 0.4798, 1.4658 -1.1122 0.4798, 1.4735 -1.094 0.4808, 1.4736 -1.0932 0.4808, -1.3392 -1.0869 0.1268, -1.3392 -1.0866 0.1263, -1.3392 -1.0778 0.1108, -1.3392 -1.0775 0.1105, -1.3392 -1.0652 0.0974, -1.3392 -1.0649 0.0972, -1.3392 -1.0499 0.0872, -1.3392 -1.0497 0.0871, -1.3392 -1.0326 0.0809, -1.3392 -1.0325 0.0809, -1.4117 -1.0143 0.1268, -1.4114 -1.0143 0.1263, -1.4026 -1.0143 0.1108, -1.4023 -1.0143 0.1105, -1.39 -1.0143 0.0974, -1.3897 -1.0143 0.0972, -1.3747 -1.0143 0.0872, -1.3745 -1.0143 0.0871, -1.3574 -1.0143 0.0809, -1.3573 -1.0143 0.0809, -1.4374 1.1408 0.4798, -1.437 1.141 0.4798, -1.4188 1.1487 0.4808, -1.418 1.1488 0.4808, -1.4533 1.1285 0.4795, -1.4656 1.1125 0.4798, -1.4658 1.1122 0.4798, -1.4735 1.094 0.4808, -1.4736 1.0932 0.4808, 1.3392 1.0775 0.9525, 1.3392 1.0652 0.9656, 1.3523 1.0635 0.9656, 1.3483 1.0487 0.9758, 1.3439 1.032 0.9821, 1.3483 1.0302 0.9821, 1.355 1.0235 0.9821, 1.3521 1.0273 0.9821, 1.3568 1.0191 0.9821, 1.3392 1.0325 0.9821, 1.3579 1.0844 0.9362, 1.3754 1.0771 0.9362, 1.3904 1.0656 0.9362, 1.402 1.0506 0.9362, 1.4092 1.0331 0.9362, 1.4117 1.0143 0.9362, 1.3573 1.0143 0.9821, 1.3392 1.0649 0.9658, 1.3392 1.0499 0.9758, 1.3392 1.0497 0.9759, 1.3392 1.0326 0.9821, 1.3569 1.0451 0.9758, 1.3643 1.0395 0.9758, 1.3699 1.0321 0.9758, 1.3735 1.0235 0.9758, 1.3574 1.0143 0.9821, 1.3745 1.0143 0.9759, 1.3747 1.0143 0.9758, 1.3897 1.0143 0.9658, 1.3646 1.0584 0.9656, 1.3751 1.0503 0.9656, 1.3832 1.0398 0.9656, 1.3883 1.0275 0.9656, 1.3392 1.0866 0.9367, 1.3392 1.0778 0.9522, 1.3556 1.0756 0.9522, 1.3709 1.0693 0.9522, 1.384 1.0592 0.9522, 1.3941 1.0461 0.9522, 1.4004 1.0308 0.9522, 1.3392 1.0869 0.9362, 1.39 1.0143 0.9656, 1.4023 1.0143 0.9525, 1.4026 1.0143 0.9522, 1.4114 1.0143 0.9367, 1.4736 -1.0932 0.5822, 1.4735 -1.094 0.5822, 1.4658 -1.1122 0.5832, 1.4656 -1.1125 0.5832, 1.4533 -1.1285 0.5835, 1.4374 -1.1408 0.5832, 1.437 -1.141 0.5832, 1.4188 -1.1487 0.5822, 1.418 -1.1488 0.5822, -1.3883 -1.0275 0.0974, -1.3735 -1.0235 0.0872, -1.3568 -1.0191 0.0809, -1.355 -1.0235 0.0809, -1.3483 -1.0302 0.0809, -1.3521 -1.0273 0.0809, -1.3439 -1.032 0.0809, -1.4092 -1.0331 0.1268, -1.4135 -1.0343 0.1409, -1.4136 -1.0341 0.1409, -1.4055 -1.0525 0.1391, -1.402 -1.0506 0.1268, -1.4054 -1.0526 0.139, -1.3904 -1.0656 0.1268, -1.3932 -1.0684 0.1384, -1.3754 -1.0771 0.1268, -1.3774 -1.0806 0.139, -1.3773 -1.0807 0.1391, -1.3579 -1.0844 0.1268, -1.3591 -1.0887 0.1409, -1.3589 -1.0888 0.1409, -1.3699 -1.0321 0.0872, -1.3643 -1.0395 0.0872, -1.3569 -1.0451 0.0872, -1.3483 -1.0487 0.0872, -1.3832 -1.0398 0.0974, -1.3751 -1.0503 0.0974, -1.3646 -1.0584 0.0974, -1.3523 -1.0635 0.0974, -1.4004 -1.0308 0.1108, -1.3941 -1.0461 0.1108, -1.384 -1.0592 0.1108, -1.3709 -1.0693 0.1108, -1.3556 -1.0756 0.1108, -1.4736 1.0932 0.5822, -1.4735 1.094 0.5822, -1.4658 1.1122 0.5832, -1.4656 1.1125 0.5832, -1.4533 1.1285 0.5835, -1.4374 1.1408 0.5832, -1.437 1.141 0.5832, -1.4188 1.1487 0.5822, -1.418 1.1488 0.5822, -1.2449 1.0866 0.9367, -1.2449 1.0863 0.9374, -1.2449 1.0774 0.9524, -1.2449 1.0766 0.9538, -1.2449 1.0648 0.9657, -1.2449 1.0631 0.9673, -1.2449 1.0495 0.9756, -1.2449 1.0468 0.9772, -1.2449 1.0324 0.9818, -1.2449 1.0286 0.9829, 1.4117 -1.0143 0.9362, 1.4114 -1.0143 0.9367, 1.4026 -1.0143 0.9522, 1.4023 -1.0143 0.9525, 1.39 -1.0143 0.9656, 1.3897 -1.0143 0.9658, 1.3747 -1.0143 0.9758, 1.3745 -1.0143 0.9759, 1.3574 -1.0143 0.9821, 1.3573 -1.0143 0.9821, 1.4136 -1.0341 0.9221, 1.4135 -1.0343 0.9221, 1.4055 -1.0525 0.9239, 1.4054 -1.0526 0.9239, 1.3932 -1.0684 0.9246, 1.3774 -1.0806 0.9239, 1.3773 -1.0807 0.9239, 1.3591 -1.0887 0.9221, 1.3589 -1.0888 0.9221, -1.4656 -1.1125 0.4798, -1.4658 -1.1122 0.4798, -1.4735 -1.094 0.4808, -1.4736 -1.0932 0.4808, -1.4533 -1.1285 0.4795, -1.4374 -1.1408 0.4798, -1.437 -1.141 0.4798, -1.4188 -1.1487 0.4808, -1.418 -1.1488 0.4808, -1.4339 1.0537 0.8076, -1.4337 1.0542 0.8076, -1.426 1.0722 0.8094, -1.4257 1.0726 0.8095, -1.4136 1.0883 0.8101, -1.4133 1.0885 0.8101, -1.3977 1.1008 0.8095, -1.3974 1.1009 0.8095, -1.3792 1.1089 0.8076, -1.379 1.1089 0.8076, -1.3727 1.1074 0.8173, -1.4133 1.0467 0.8471, -1.2974 1.0325 0.9613, -1.4114 1.053 0.8463, -1.2972 1.033 0.9612, -1.4075 1.066 0.8448, -1.2912 1.0502 0.9581, -1.4052 1.0705 0.8432, -1.291 1.0506 0.958, -1.3986 1.0832 0.8389, -1.2822 1.0658 0.9519, -1.3963 1.086 0.8371, -1.282 1.0661 0.9518, -1.387 1.0972 0.8298, -1.271 1.0785 0.943, -1.3853 1.0985 0.8283, -1.2709 1.0786 0.9429, -1.3737 1.1071 0.8182, -1.2584 1.0873 0.9319, -1.2583 1.0873 0.9318, -1.2601 1.0143 0.9827, -1.2594 1.0289 0.9815, -1.2602 1.0143 0.9827, -1.2734 1.0296 0.9773, -1.275 1.0143 0.9783, -1.2862 1.0308 0.9705, -1.2885 1.0143 0.971, -1.2886 1.0143 0.971, -1.2555 1.0869 0.9342, -1.2486 1.0864 0.9371, -1.2521 1.0767 0.9531, -1.2655 1.0776 0.9476, -1.2552 1.0633 0.9663, -1.2742 1.0647 0.9585, -1.2577 1.0471 0.976, -1.2522 1.0866 0.936, -1.2591 1.077 0.951, -1.2651 1.0638 0.9633, -1.27 1.0477 0.9723, -1.2813 1.0488 0.9662, 1.3883 -1.0275 0.9656, 1.3735 -1.0235 0.9758, 1.3568 -1.0191 0.9821, 1.355 -1.0235 0.9821, 1.3483 -1.0302 0.9821, 1.3521 -1.0273 0.9821, 1.3439 -1.032 0.9821, 1.4092 -1.0331 0.9362, 1.402 -1.0506 0.9362, 1.3904 -1.0656 0.9362, 1.3754 -1.0771 0.9362, 1.3579 -1.0844 0.9362, 1.3392 -1.0869 0.9362, 1.3392 -1.0325 0.9821, 1.3699 -1.0321 0.9758, 1.3643 -1.0395 0.9758, 1.3569 -1.0451 0.9758, 1.3483 -1.0487 0.9758, 1.3392 -1.0326 0.9821, 1.3392 -1.0497 0.9759, 1.3392 -1.0499 0.9758, 1.3392 -1.0649 0.9658, 1.3832 -1.0398 0.9656, 1.3751 -1.0503 0.9656, 1.3646 -1.0584 0.9656, 1.3523 -1.0635 0.9656, 1.4004 -1.0308 0.9522, 1.3941 -1.0461 0.9522, 1.384 -1.0592 0.9522, 1.3709 -1.0693 0.9522, 1.3556 -1.0756 0.9522, 1.3392 -1.0652 0.9656, 1.3392 -1.0775 0.9525, 1.3392 -1.0778 0.9522, 1.3392 -1.0866 0.9367, -1.418 -1.1488 0.5822, -1.4188 -1.1487 0.5822, -1.437 -1.141 0.5832, -1.4374 -1.1408 0.5832, -1.4533 -1.1285 0.5835, -1.4656 -1.1125 0.5832, -1.4658 -1.1122 0.5832, -1.4735 -1.094 0.5822, -1.4736 -1.0932 0.5822, -1.4325 1.0345 0.8201, -1.4325 1.0345 0.8202, -1.4298 1.0511 0.822, -1.4251 1.0345 0.8343, -1.4251 1.0345 0.8344, -1.4228 1.0487 0.8354, -1.3781 1.1082 0.8115, -1.392 1.0983 0.8238, -1.3762 1.1076 0.815, -1.3955 1.0995 0.8169, -1.4055 1.0847 0.8304, -1.4106 1.0864 0.8206, -1.4161 1.0678 0.8343, -1.4223 1.0699 0.8224, -1.2601 -1.0143 0.9827, -1.2602 -1.0143 0.9827, -1.275 -1.0143 0.9783, -1.2885 -1.0143 0.971, -1.2886 -1.0143 0.971, -1.2449 -1.0866 0.9367, -1.2449 -1.0863 0.9374, -1.2449 -1.0774 0.9524, -1.2449 -1.0766 0.9538, -1.2449 -1.0648 0.9657, -1.2449 -1.0631 0.9673, -1.2449 -1.0495 0.9756, -1.2449 -1.0468 0.9772, -1.2449 -1.0324 0.9818, -1.2449 -1.0286 0.9829, -1.4337 -1.0542 0.8076, -1.4257 -1.0726 0.8095, -1.379 -1.1089 0.8076, -1.3792 -1.1089 0.8076, -1.3974 -1.1009 0.8095, -1.3977 -1.1008 0.8095, -1.4133 -1.0885 0.8101, -1.4136 -1.0883 0.8101, -1.426 -1.0722 0.8094, -1.4339 -1.0537 0.8076, -1.4325 -1.0345 0.8201, -1.4251 -1.0345 0.8344, -1.4251 -1.0345 0.8343, -1.4325 -1.0345 0.8202, -1.2862 -1.0308 0.9705, -1.2734 -1.0296 0.9773, -1.2594 -1.0289 0.9815, -1.2486 -1.0864 0.9371, -1.2584 -1.0873 0.9319, -1.2555 -1.0869 0.9342, -1.2709 -1.0786 0.9429, -1.2655 -1.0776 0.9476, -1.2521 -1.0767 0.9531, -1.2742 -1.0647 0.9585, -1.282 -1.0661 0.9518, -1.271 -1.0785 0.943, -1.2552 -1.0633 0.9663, -1.2972 -1.033 0.9612, -1.2912 -1.0502 0.9581, -1.2813 -1.0488 0.9662, -1.291 -1.0506 0.958, -1.2822 -1.0658 0.9519, -1.2522 -1.0866 0.936, -1.2591 -1.077 0.951, -1.2651 -1.0638 0.9633, -1.27 -1.0477 0.9723, -1.2577 -1.0471 0.976, -1.2583 -1.0873 0.9318, -1.2974 -1.0325 0.9613, -1.4298 -1.0511 0.822, -1.3781 -1.1082 0.8115, -1.3762 -1.1076 0.815, -1.3727 -1.1074 0.8173, -1.3955 -1.0995 0.8169, -1.3737 -1.1071 0.8182, -1.3853 -1.0985 0.8283, -1.392 -1.0983 0.8238, -1.4106 -1.0864 0.8206, -1.387 -1.0972 0.8298, -1.3963 -1.086 0.8371, -1.4055 -1.0847 0.8304, -1.4223 -1.0699 0.8224, -1.3986 -1.0832 0.8389, -1.4052 -1.0705 0.8432, -1.4161 -1.0678 0.8343, -1.4228 -1.0487 0.8354, -1.4133 -1.0467 0.8471, -1.4114 -1.053 0.8463, -1.4075 -1.066 0.8448
            ]
        }
        coordIndex [
            0,1,2,-1,2,1,3,-1,4,5,6,-1,6,5,7,-1,8,9,10,-1,10,9,11,-1,12,13,14,-1,14,13,15,-1,16,17,18,-1,18,17,19,-1,20,21,22,-1,22,21,23,-1,24,25,26,-1,26,25,27,-1,28,29,30,-1,30,29,31,-1,32,33,34,-1,34,33,35,-1,36,37,38,-1,38,37,39,-1,40,41,42,-1,42,41,43,-1,44,45,46,-1,46,45,47,-1,48,49,50,-1,50,49,51,-1,52,53,54,-1,54,53,55,-1,54,55,56,-1,51,57,50,-1,50,57,58,-1,50,58,59,-1,56,60,54,-1,54,60,61,-1,54,61,62,-1,61,63,62,-1,62,63,64,-1,62,64,65,-1,48,50,66,-1,66,50,62,-1,66,62,67,-1,68,69,52,-1,52,69,70,-1,52,70,53,-1,65,71,62,-1,62,71,72,-1,62,72,67,-1,59,73,50,-1,50,73,74,-1,50,74,52,-1,52,74,75,-1,52,75,68,-1,76,77,78,-1,78,77,79,-1,47,80,81,-1,47,81,46,-1,46,81,82,-1,46,82,83,-1,84,33,85,-1,85,33,32,-1,85,32,25,-1,25,24,85,-1,85,24,21,-1,85,21,86,-1,21,20,86,-1,86,20,17,-1,86,17,16,-1,16,15,86,-1,86,15,13,-1,86,13,87,-1,88,0,89,-1,89,0,2,-1,89,2,6,-1,6,7,89,-1,89,7,10,-1,89,10,90,-1,10,11,90,-1,90,11,30,-1,90,30,31,-1,31,42,90,-1,90,42,43,-1,90,43,91,-1,92,93,39,-1,39,93,94,-1,39,94,38,-1,38,94,95,-1,36,96,97,-1,97,98,99,-1,36,97,37,-1,37,97,99,-1,37,99,100,-1,101,102,41,-1,41,40,101,-1,101,40,29,-1,101,29,28,-1,28,9,101,-1,101,9,8,-1,101,8,103,-1,103,8,5,-1,103,5,4,-1,4,3,103,-1,103,3,1,-1,103,1,104,-1,26,27,105,-1,106,12,107,-1,107,12,14,-1,107,14,18,-1,27,34,105,-1,105,34,35,-1,105,35,108,-1,18,19,107,-1,107,19,22,-1,107,22,105,-1,105,22,23,-1,105,23,26,-1,44,109,110,-1,110,111,44,-1,44,111,112,-1,44,112,45,-1,45,112,113,-1,114,115,116,-1,116,115,117,-1,118,119,120,-1,121,122,123,-1,79,124,125,-1,126,124,79,-1,123,122,79,-1,127,79,122,-1,128,129,130,-1,129,128,131,-1,131,128,132,-1,131,132,133,-1,133,132,134,-1,133,134,135,-1,135,134,136,-1,135,136,137,-1,137,136,138,-1,138,136,139,-1,138,139,140,-1,140,139,141,-1,141,139,142,-1,141,142,93,-1,143,126,79,-1,144,145,121,-1,121,145,146,-1,121,146,122,-1,122,146,147,-1,122,147,127,-1,148,125,149,-1,149,125,124,-1,149,124,150,-1,150,124,126,-1,150,126,151,-1,143,152,126,-1,126,152,153,-1,126,153,151,-1,151,153,154,-1,151,154,155,-1,120,148,156,-1,156,148,149,-1,156,149,157,-1,157,149,150,-1,157,150,158,-1,158,150,151,-1,158,151,159,-1,159,151,155,-1,160,161,162,-1,162,161,118,-1,118,120,162,-1,162,120,156,-1,162,156,163,-1,163,156,157,-1,163,157,164,-1,164,157,158,-1,164,158,165,-1,165,158,159,-1,165,159,166,-1,119,144,120,-1,120,144,121,-1,120,121,148,-1,148,121,123,-1,148,123,125,-1,125,123,79,-1,160,128,167,-1,167,128,130,-1,167,130,85,-1,155,168,159,-1,159,168,169,-1,159,169,166,-1,166,169,170,-1,166,170,171,-1,160,162,128,-1,128,162,163,-1,128,163,132,-1,132,163,164,-1,132,164,134,-1,134,164,165,-1,134,165,136,-1,136,165,166,-1,136,166,139,-1,139,166,171,-1,139,171,142,-1,172,173,130,-1,130,173,174,-1,130,174,85,-1,85,174,175,-1,85,175,84,-1,130,129,172,-1,172,129,131,-1,172,131,176,-1,176,131,133,-1,133,135,176,-1,176,135,137,-1,176,137,177,-1,177,137,138,-1,177,138,178,-1,178,138,140,-1,178,140,179,-1,179,140,141,-1,179,141,180,-1,180,141,93,-1,180,93,92,-1,85,86,167,-1,167,86,181,-1,167,181,160,-1,160,181,182,-1,160,182,161,-1,161,182,183,-1,161,183,118,-1,118,183,184,-1,118,184,119,-1,119,184,185,-1,119,185,144,-1,144,185,186,-1,144,186,145,-1,145,186,187,-1,145,187,146,-1,146,187,188,-1,146,188,147,-1,147,188,189,-1,147,189,127,-1,189,190,127,-1,127,190,78,-1,127,78,79,-1,94,93,191,-1,191,93,142,-1,191,142,192,-1,192,142,171,-1,192,171,193,-1,193,171,170,-1,193,170,194,-1,194,170,169,-1,194,169,195,-1,195,169,168,-1,195,168,196,-1,196,168,155,-1,196,155,197,-1,197,155,154,-1,197,154,198,-1,198,154,153,-1,198,153,199,-1,199,153,152,-1,199,152,200,-1,152,143,200,-1,200,143,79,-1,200,79,77,-1,39,37,92,-1,92,37,100,-1,92,100,180,-1,180,100,201,-1,180,201,179,-1,179,201,202,-1,179,202,178,-1,178,202,203,-1,178,203,177,-1,177,203,204,-1,177,204,176,-1,176,204,205,-1,176,205,172,-1,172,205,206,-1,172,206,173,-1,173,206,207,-1,173,207,174,-1,174,207,208,-1,174,208,175,-1,175,208,209,-1,175,209,84,-1,84,209,108,-1,84,108,33,-1,33,108,35,-1,210,211,212,-1,213,214,215,-1,78,216,217,-1,218,216,78,-1,215,214,78,-1,219,78,214,-1,220,221,222,-1,221,220,223,-1,223,220,224,-1,223,224,225,-1,225,224,226,-1,225,226,227,-1,227,226,228,-1,227,228,229,-1,229,228,230,-1,230,228,231,-1,230,231,232,-1,232,231,233,-1,233,231,181,-1,233,181,86,-1,190,218,78,-1,234,235,213,-1,213,235,236,-1,213,236,214,-1,214,236,237,-1,214,237,219,-1,238,217,239,-1,239,217,216,-1,239,216,240,-1,240,216,218,-1,240,218,241,-1,190,189,218,-1,218,189,188,-1,218,188,241,-1,241,188,187,-1,241,187,186,-1,212,238,242,-1,242,238,239,-1,242,239,243,-1,243,239,240,-1,243,240,244,-1,244,240,241,-1,244,241,245,-1,245,241,186,-1,246,247,248,-1,248,247,210,-1,210,212,248,-1,248,212,242,-1,248,242,249,-1,249,242,243,-1,249,243,250,-1,250,243,244,-1,250,244,251,-1,251,244,245,-1,251,245,252,-1,211,234,212,-1,212,234,213,-1,212,213,238,-1,238,213,215,-1,238,215,217,-1,217,215,78,-1,246,220,253,-1,253,220,222,-1,253,222,82,-1,186,185,245,-1,245,185,184,-1,245,184,252,-1,252,184,183,-1,252,183,182,-1,246,248,220,-1,220,248,249,-1,220,249,224,-1,224,249,250,-1,224,250,226,-1,226,250,251,-1,226,251,228,-1,228,251,252,-1,228,252,231,-1,231,252,182,-1,231,182,181,-1,194,195,254,-1,255,256,257,-1,77,258,259,-1,260,258,77,-1,257,256,77,-1,200,77,256,-1,261,262,263,-1,262,261,264,-1,264,261,265,-1,264,265,266,-1,266,265,267,-1,266,267,268,-1,268,267,269,-1,268,269,270,-1,270,269,271,-1,271,269,272,-1,271,272,273,-1,273,272,274,-1,274,272,275,-1,274,275,90,-1,276,260,77,-1,196,197,255,-1,255,197,198,-1,255,198,256,-1,256,198,199,-1,256,199,200,-1,277,259,278,-1,278,259,258,-1,278,258,279,-1,279,258,260,-1,279,260,280,-1,276,281,260,-1,260,281,282,-1,260,282,280,-1,280,282,283,-1,280,283,284,-1,254,277,285,-1,285,277,278,-1,285,278,286,-1,286,278,279,-1,286,279,287,-1,287,279,280,-1,287,280,288,-1,288,280,284,-1,192,193,289,-1,289,193,194,-1,194,254,289,-1,289,254,285,-1,289,285,290,-1,290,285,286,-1,290,286,291,-1,291,286,287,-1,291,287,292,-1,292,287,288,-1,292,288,293,-1,195,196,254,-1,254,196,255,-1,254,255,277,-1,277,255,257,-1,277,257,259,-1,259,257,77,-1,192,261,191,-1,191,261,263,-1,191,263,94,-1,284,294,288,-1,288,294,295,-1,288,295,293,-1,293,295,296,-1,293,296,297,-1,192,289,261,-1,261,289,290,-1,261,290,265,-1,265,290,291,-1,265,291,267,-1,267,291,292,-1,267,292,269,-1,269,292,293,-1,269,293,272,-1,272,293,297,-1,272,297,275,-1,204,203,298,-1,298,203,202,-1,298,202,99,-1,99,202,201,-1,99,201,100,-1,298,299,204,-1,204,299,300,-1,204,300,205,-1,205,300,301,-1,301,302,205,-1,205,302,303,-1,205,303,206,-1,206,303,304,-1,206,304,207,-1,207,304,305,-1,207,305,208,-1,208,305,306,-1,208,306,209,-1,209,306,105,-1,209,105,108,-1,307,308,222,-1,222,308,309,-1,222,309,82,-1,82,309,310,-1,82,310,83,-1,222,221,307,-1,307,221,223,-1,307,223,311,-1,311,223,225,-1,225,227,311,-1,311,227,229,-1,311,229,312,-1,312,229,230,-1,312,230,313,-1,313,230,232,-1,313,232,314,-1,314,232,233,-1,314,233,315,-1,315,233,86,-1,315,86,87,-1,82,81,253,-1,253,81,316,-1,253,316,246,-1,246,316,317,-1,246,317,247,-1,247,317,318,-1,247,318,210,-1,210,318,319,-1,210,319,211,-1,211,319,320,-1,211,320,234,-1,234,320,321,-1,234,321,235,-1,235,321,322,-1,235,322,236,-1,236,322,323,-1,236,323,237,-1,237,323,324,-1,237,324,219,-1,324,325,219,-1,219,325,76,-1,219,76,78,-1,89,90,326,-1,326,90,275,-1,326,275,327,-1,327,275,297,-1,327,297,328,-1,328,297,296,-1,328,296,329,-1,329,296,295,-1,329,295,330,-1,330,295,294,-1,330,294,331,-1,331,294,284,-1,331,284,332,-1,332,284,283,-1,332,283,333,-1,333,283,282,-1,333,282,334,-1,334,282,281,-1,334,281,335,-1,281,276,335,-1,335,276,77,-1,335,77,76,-1,336,337,263,-1,263,337,338,-1,263,338,94,-1,94,338,339,-1,94,339,95,-1,263,262,336,-1,336,262,264,-1,336,264,340,-1,340,264,266,-1,266,268,340,-1,340,268,270,-1,340,270,341,-1,341,270,271,-1,341,271,342,-1,342,271,273,-1,342,273,343,-1,343,273,274,-1,343,274,344,-1,344,274,90,-1,344,90,91,-1,345,346,347,-1,348,349,350,-1,52,351,352,-1,353,351,52,-1,350,349,52,-1,354,52,349,-1,355,299,298,-1,299,355,300,-1,300,355,356,-1,300,356,301,-1,301,356,357,-1,301,357,302,-1,302,357,358,-1,302,358,303,-1,303,358,304,-1,304,358,359,-1,304,359,305,-1,305,359,306,-1,306,359,360,-1,306,360,105,-1,361,353,52,-1,362,363,348,-1,348,363,364,-1,348,364,349,-1,349,364,365,-1,349,365,354,-1,366,352,367,-1,367,352,351,-1,367,351,368,-1,368,351,353,-1,368,353,369,-1,361,370,353,-1,353,370,371,-1,353,371,369,-1,369,371,372,-1,369,372,373,-1,347,366,374,-1,374,366,367,-1,374,367,375,-1,375,367,368,-1,375,368,376,-1,376,368,369,-1,376,369,377,-1,377,369,373,-1,378,379,380,-1,380,379,345,-1,345,347,380,-1,380,347,374,-1,380,374,381,-1,381,374,375,-1,381,375,382,-1,382,375,376,-1,382,376,383,-1,383,376,377,-1,383,377,384,-1,346,362,347,-1,347,362,348,-1,347,348,366,-1,366,348,350,-1,366,350,352,-1,352,350,52,-1,378,355,385,-1,385,355,298,-1,385,298,99,-1,373,386,377,-1,377,386,387,-1,377,387,384,-1,384,387,388,-1,384,388,389,-1,378,380,355,-1,355,380,381,-1,355,381,356,-1,356,381,382,-1,356,382,357,-1,357,382,383,-1,357,383,358,-1,358,383,384,-1,358,384,359,-1,359,384,389,-1,359,389,360,-1,13,12,87,-1,87,12,106,-1,87,106,315,-1,315,106,390,-1,315,390,314,-1,314,390,391,-1,314,391,313,-1,313,391,392,-1,313,392,312,-1,312,392,393,-1,312,393,311,-1,311,393,394,-1,311,394,307,-1,307,394,395,-1,307,395,308,-1,308,395,396,-1,308,396,309,-1,309,396,397,-1,309,397,310,-1,310,397,398,-1,310,398,83,-1,83,398,109,-1,83,109,46,-1,46,109,44,-1,329,330,399,-1,400,401,402,-1,76,403,404,-1,405,403,76,-1,402,401,76,-1,335,76,401,-1,406,407,408,-1,407,406,409,-1,409,406,410,-1,409,410,411,-1,411,410,412,-1,411,412,413,-1,413,412,414,-1,413,414,415,-1,415,414,416,-1,416,414,417,-1,416,417,418,-1,418,417,419,-1,419,417,316,-1,419,316,81,-1,325,405,76,-1,331,332,400,-1,400,332,333,-1,400,333,401,-1,401,333,334,-1,401,334,335,-1,420,404,421,-1,421,404,403,-1,421,403,422,-1,422,403,405,-1,422,405,423,-1,325,324,405,-1,405,324,323,-1,405,323,423,-1,423,323,322,-1,423,322,321,-1,399,420,424,-1,424,420,421,-1,424,421,425,-1,425,421,422,-1,425,422,426,-1,426,422,423,-1,426,423,427,-1,427,423,321,-1,327,328,428,-1,428,328,329,-1,329,399,428,-1,428,399,424,-1,428,424,429,-1,429,424,425,-1,429,425,430,-1,430,425,426,-1,430,426,431,-1,431,426,427,-1,431,427,432,-1,330,331,399,-1,399,331,400,-1,399,400,420,-1,420,400,402,-1,420,402,404,-1,404,402,76,-1,327,406,326,-1,326,406,408,-1,326,408,89,-1,321,320,427,-1,427,320,319,-1,427,319,432,-1,432,319,318,-1,432,318,317,-1,327,428,406,-1,406,428,429,-1,406,429,410,-1,410,429,430,-1,410,430,412,-1,412,430,431,-1,412,431,414,-1,414,431,432,-1,414,432,417,-1,417,432,317,-1,417,317,316,-1,43,41,91,-1,91,41,102,-1,91,102,344,-1,344,102,433,-1,344,433,343,-1,343,433,434,-1,343,434,342,-1,342,434,435,-1,342,435,341,-1,341,435,436,-1,341,436,340,-1,340,436,437,-1,340,437,336,-1,336,437,438,-1,336,438,337,-1,337,438,439,-1,337,439,338,-1,338,439,440,-1,338,440,339,-1,339,440,441,-1,339,441,95,-1,95,441,96,-1,95,96,38,-1,38,96,36,-1,345,379,442,-1,442,379,378,-1,442,378,98,-1,98,378,385,-1,98,385,99,-1,442,443,345,-1,345,443,444,-1,345,444,346,-1,346,444,362,-1,444,445,362,-1,362,445,446,-1,362,446,363,-1,363,446,364,-1,446,447,364,-1,364,447,448,-1,364,448,365,-1,365,448,354,-1,448,449,354,-1,354,449,450,-1,354,450,52,-1,52,450,451,-1,52,451,50,-1,107,105,452,-1,452,105,360,-1,452,360,453,-1,453,360,389,-1,453,389,454,-1,454,389,388,-1,454,388,455,-1,455,388,387,-1,455,387,456,-1,456,387,386,-1,456,386,457,-1,457,386,373,-1,457,373,458,-1,458,373,372,-1,458,372,459,-1,459,372,371,-1,459,371,460,-1,460,371,370,-1,460,370,461,-1,370,361,461,-1,461,361,52,-1,461,52,54,-1,393,392,462,-1,462,392,391,-1,462,391,107,-1,107,391,390,-1,107,390,106,-1,462,463,393,-1,393,463,464,-1,393,464,394,-1,394,464,465,-1,465,466,394,-1,394,466,467,-1,394,467,395,-1,395,467,468,-1,395,468,396,-1,396,468,469,-1,396,469,397,-1,397,469,470,-1,397,470,398,-1,398,470,110,-1,398,110,109,-1,471,472,408,-1,408,472,473,-1,408,473,89,-1,89,473,474,-1,89,474,88,-1,408,407,471,-1,471,407,409,-1,471,409,475,-1,475,409,411,-1,411,413,475,-1,475,413,415,-1,475,415,476,-1,476,415,416,-1,476,416,477,-1,477,416,418,-1,477,418,478,-1,478,418,419,-1,478,419,479,-1,479,419,81,-1,479,81,80,-1,102,101,433,-1,433,101,480,-1,433,480,434,-1,434,480,481,-1,434,481,435,-1,435,481,482,-1,435,482,436,-1,482,483,436,-1,436,483,484,-1,436,484,437,-1,484,485,437,-1,437,485,486,-1,437,486,438,-1,438,486,487,-1,438,487,439,-1,439,487,488,-1,439,488,440,-1,440,488,489,-1,440,489,441,-1,441,489,97,-1,441,97,96,-1,98,97,490,-1,117,115,491,-1,491,115,492,-1,491,492,493,-1,493,492,494,-1,493,494,495,-1,495,494,496,-1,495,496,497,-1,497,496,498,-1,497,498,499,-1,499,498,500,-1,499,500,501,-1,501,500,502,-1,501,502,503,-1,503,502,504,-1,503,504,505,-1,505,504,506,-1,505,506,507,-1,507,506,508,-1,507,508,490,-1,490,508,509,-1,490,509,98,-1,510,511,512,-1,512,511,513,-1,512,513,514,-1,514,513,515,-1,514,515,516,-1,516,515,517,-1,517,515,492,-1,517,492,115,-1,518,98,509,-1,443,519,444,-1,444,519,520,-1,509,508,518,-1,518,508,506,-1,518,506,521,-1,522,446,520,-1,520,446,445,-1,520,445,444,-1,506,504,521,-1,521,504,502,-1,521,502,523,-1,450,449,524,-1,524,449,448,-1,524,448,522,-1,522,448,447,-1,522,447,446,-1,519,525,520,-1,520,525,526,-1,520,526,522,-1,522,526,527,-1,522,527,524,-1,524,527,528,-1,529,528,523,-1,523,528,527,-1,523,527,521,-1,521,527,526,-1,521,526,518,-1,518,526,525,-1,518,525,98,-1,519,98,525,-1,443,442,519,-1,519,442,98,-1,510,50,511,-1,511,50,451,-1,511,451,450,-1,502,500,523,-1,523,500,498,-1,523,498,529,-1,529,498,496,-1,529,496,494,-1,450,524,511,-1,511,524,528,-1,511,528,513,-1,513,528,529,-1,513,529,515,-1,515,529,494,-1,515,494,492,-1,455,456,530,-1,531,532,533,-1,54,534,535,-1,536,534,54,-1,533,532,54,-1,461,54,532,-1,537,463,462,-1,463,537,464,-1,464,537,538,-1,464,538,465,-1,465,538,539,-1,465,539,466,-1,466,539,540,-1,466,540,467,-1,467,540,468,-1,468,540,541,-1,468,541,469,-1,469,541,470,-1,470,541,542,-1,470,542,110,-1,543,536,54,-1,457,458,531,-1,531,458,459,-1,531,459,532,-1,532,459,460,-1,532,460,461,-1,544,535,545,-1,545,535,534,-1,545,534,546,-1,546,534,536,-1,546,536,547,-1,543,548,536,-1,536,548,549,-1,536,549,547,-1,547,549,550,-1,547,550,551,-1,530,544,552,-1,552,544,545,-1,552,545,553,-1,553,545,546,-1,553,546,554,-1,554,546,547,-1,554,547,555,-1,555,547,551,-1,453,454,556,-1,556,454,455,-1,455,530,556,-1,556,530,552,-1,556,552,557,-1,557,552,553,-1,557,553,558,-1,558,553,554,-1,558,554,559,-1,559,554,555,-1,559,555,560,-1,456,457,530,-1,530,457,531,-1,530,531,544,-1,544,531,533,-1,544,533,535,-1,535,533,54,-1,453,537,452,-1,452,537,462,-1,452,462,107,-1,551,561,555,-1,555,561,562,-1,555,562,560,-1,560,562,563,-1,560,563,564,-1,453,556,537,-1,537,556,557,-1,537,557,538,-1,538,557,558,-1,538,558,539,-1,539,558,559,-1,539,559,540,-1,540,559,560,-1,540,560,541,-1,541,560,564,-1,541,564,542,-1,47,45,80,-1,80,45,113,-1,80,113,479,-1,479,113,565,-1,479,565,478,-1,478,565,566,-1,478,566,477,-1,477,566,567,-1,477,567,476,-1,476,567,568,-1,476,568,475,-1,475,568,569,-1,475,569,471,-1,471,569,570,-1,471,570,472,-1,472,570,571,-1,472,571,473,-1,473,571,572,-1,473,572,474,-1,474,572,573,-1,474,573,88,-1,88,573,104,-1,88,104,0,-1,0,104,1,-1,574,575,576,-1,577,578,579,-1,579,578,117,-1,580,97,489,-1,581,505,582,-1,582,505,507,-1,582,507,490,-1,489,488,580,-1,580,488,487,-1,580,487,583,-1,584,501,581,-1,581,501,503,-1,581,503,505,-1,487,486,583,-1,583,486,485,-1,583,485,585,-1,586,497,584,-1,584,497,499,-1,584,499,501,-1,485,484,585,-1,585,484,483,-1,585,483,587,-1,117,491,579,-1,579,491,493,-1,579,493,586,-1,586,493,495,-1,586,495,497,-1,575,577,576,-1,576,577,579,-1,576,579,587,-1,587,579,586,-1,587,586,585,-1,585,586,584,-1,585,584,583,-1,583,584,581,-1,583,581,580,-1,580,581,582,-1,580,582,97,-1,490,97,582,-1,101,574,480,-1,480,574,576,-1,480,576,481,-1,481,576,587,-1,481,587,482,-1,482,587,483,-1,62,50,588,-1,588,50,510,-1,588,510,589,-1,510,512,589,-1,589,512,514,-1,589,514,590,-1,590,514,591,-1,591,514,516,-1,591,516,592,-1,516,517,592,-1,592,517,115,-1,592,115,114,-1,111,110,542,-1,111,542,593,-1,593,542,564,-1,593,564,594,-1,594,564,563,-1,594,563,595,-1,595,563,562,-1,595,562,596,-1,596,562,561,-1,596,561,597,-1,597,561,551,-1,597,551,598,-1,598,551,550,-1,598,550,599,-1,599,550,549,-1,599,549,600,-1,600,549,548,-1,600,548,601,-1,601,548,543,-1,601,543,602,-1,602,543,54,-1,602,54,62,-1,573,572,603,-1,571,570,604,-1,568,567,605,-1,605,567,566,-1,605,566,112,-1,112,566,565,-1,112,565,113,-1,605,606,568,-1,568,606,607,-1,568,607,569,-1,607,608,569,-1,569,608,609,-1,569,609,570,-1,570,609,610,-1,570,610,604,-1,571,604,572,-1,572,604,611,-1,572,611,603,-1,573,603,104,-1,104,603,612,-1,104,612,103,-1,101,103,613,-1,116,117,614,-1,614,117,578,-1,614,578,615,-1,615,578,577,-1,615,577,616,-1,616,577,575,-1,616,575,613,-1,613,575,574,-1,613,574,101,-1,592,617,591,-1,591,617,618,-1,591,618,590,-1,590,618,589,-1,589,618,619,-1,589,619,588,-1,588,619,602,-1,588,602,62,-1,620,111,593,-1,621,622,623,-1,623,622,624,-1,593,594,620,-1,620,594,595,-1,620,595,625,-1,626,627,624,-1,624,627,628,-1,624,628,623,-1,595,596,625,-1,625,596,597,-1,625,597,629,-1,630,631,632,-1,632,631,633,-1,632,633,626,-1,626,633,634,-1,626,634,627,-1,622,635,624,-1,624,635,636,-1,624,636,626,-1,626,636,637,-1,626,637,632,-1,632,637,638,-1,639,638,629,-1,629,638,637,-1,629,637,625,-1,625,637,636,-1,625,636,620,-1,620,636,635,-1,620,635,111,-1,622,111,635,-1,621,640,622,-1,622,640,111,-1,630,617,641,-1,641,617,592,-1,641,592,114,-1,597,598,629,-1,629,598,599,-1,629,599,639,-1,639,599,600,-1,639,600,601,-1,630,632,617,-1,617,632,638,-1,617,638,618,-1,618,638,639,-1,618,639,619,-1,619,639,601,-1,619,601,602,-1,615,616,642,-1,642,616,613,-1,643,606,605,-1,644,112,645,-1,606,643,607,-1,607,643,646,-1,607,646,608,-1,645,647,644,-1,644,647,648,-1,644,648,649,-1,608,646,609,-1,609,646,650,-1,609,650,610,-1,648,651,649,-1,649,651,652,-1,649,652,653,-1,610,650,604,-1,604,650,654,-1,604,654,611,-1,652,655,653,-1,653,655,656,-1,653,656,657,-1,611,654,603,-1,603,654,642,-1,603,642,612,-1,612,642,613,-1,612,613,103,-1,614,615,658,-1,658,615,642,-1,658,642,657,-1,657,642,654,-1,657,654,653,-1,653,654,650,-1,653,650,649,-1,649,650,646,-1,649,646,644,-1,644,646,643,-1,644,643,112,-1,605,112,643,-1,116,614,659,-1,659,614,658,-1,659,658,660,-1,660,658,657,-1,660,657,661,-1,661,657,656,-1,112,111,640,-1,114,116,641,-1,641,116,659,-1,641,659,630,-1,630,659,660,-1,630,660,631,-1,631,660,661,-1,631,661,633,-1,633,661,656,-1,633,656,634,-1,634,656,655,-1,634,655,627,-1,627,655,652,-1,627,652,628,-1,628,652,651,-1,628,651,623,-1,623,651,648,-1,623,648,621,-1,621,648,647,-1,621,647,640,-1,640,647,645,-1,640,645,112,-1,
        ]
    }
}
Shape{
    appearance Appearance {
        material  Material 	{
            diffuseColor 0.6470588235294118 0.6470588235294118 0.6470588235294118
            specularColor 0.3215686274509804 0.3215686274509804 0.3215686274509804
            ambientIntensity 0.6471
            transparency 0.0
            shininess 0.5
        }
    }
    geometry IndexedFaceSet {
        ccw TRUE
        solid FALSE
        coord DEF co Coordinate {
            point [
                -0.7246 0.6536 0.9839, -0.7246 0.6536 0.9843, -0.7296 0.6917 0.9839, -0.7296 0.6917 0.9843, -0.7443 0.7271 0.9839, -0.7443 0.7271 0.9843, -0.7677 0.7576 0.9839, -0.7677 0.7576 0.9843, -0.7982 0.781 0.9839, -0.7982 0.781 0.9843, -0.8336 0.7957 0.9839, -0.8336 0.7957 0.9843, -0.8717 0.8007 0.9839, -0.8717 0.8007 0.9843, -0.9098 0.7957 0.9839, -0.9098 0.7957 0.9843, -0.9453 0.781 0.9839, -0.9453 0.781 0.9843, -0.9757 0.7576 0.9839, -0.9757 0.7576 0.9843, -0.9991 0.7271 0.9839, -0.9991 0.7271 0.9843, -1.0138 0.6917 0.9839, -1.0138 0.6917 0.9843, -1.0188 0.6536 0.9839, -1.0188 0.6536 0.9843, -1.0138 0.6155 0.9839, -1.0138 0.6155 0.9843, -0.9991 0.58 0.9839, -0.9991 0.58 0.9843, -0.9757 0.5496 0.9839, -0.9757 0.5496 0.9843, -0.9453 0.5262 0.9839, -0.9453 0.5262 0.9843, -0.9098 0.5115 0.9839, -0.9098 0.5115 0.9843, -0.8717 0.5065 0.9839, -0.8717 0.5065 0.9843, -0.8336 0.5115 0.9839, -0.8336 0.5115 0.9843, -0.7982 0.5262 0.9839, -0.7982 0.5262 0.9843, -0.7677 0.5496 0.9839, -0.7677 0.5496 0.9843, -0.7443 0.58 0.9839, -0.7443 0.58 0.9843, -0.7296 0.6155 0.9839, -0.7296 0.6155 0.9843, -0.8717 0.6536 0.9839
            ]
        }
        coordIndex [
            0,1,2,-1,2,1,3,-1,2,3,4,-1,4,3,5,-1,4,5,6,-1,6,5,7,-1,6,7,8,-1,8,7,9,-1,8,9,10,-1,10,9,11,-1,10,11,12,-1,12,11,13,-1,12,13,14,-1,14,13,15,-1,14,15,16,-1,16,15,17,-1,16,17,18,-1,18,17,19,-1,18,19,20,-1,20,19,21,-1,20,21,22,-1,22,21,23,-1,22,23,24,-1,24,23,25,-1,24,25,26,-1,26,25,27,-1,26,27,28,-1,28,27,29,-1,28,29,30,-1,30,29,31,-1,30,31,32,-1,32,31,33,-1,32,33,34,-1,34,33,35,-1,34,35,36,-1,36,35,37,-1,36,37,38,-1,38,37,39,-1,38,39,40,-1,40,39,41,-1,40,41,42,-1,42,41,43,-1,42,43,44,-1,44,43,45,-1,44,45,46,-1,46,45,47,-1,46,47,0,-1,0,47,1,-1,44,46,48,-1,48,46,0,-1,48,0,2,-1,38,40,48,-1,48,40,42,-1,48,42,44,-1,32,34,48,-1,48,34,36,-1,48,36,38,-1,26,28,48,-1,48,28,30,-1,48,30,32,-1,20,22,48,-1,48,22,24,-1,48,24,26,-1,14,16,48,-1,48,16,18,-1,48,18,20,-1,8,10,48,-1,48,10,12,-1,48,12,14,-1,2,4,48,-1,48,4,6,-1,48,6,8,-1,
        ]
    }
}
Shape{
    appearance Appearance {
        material  Material 	{
            diffuseColor 0.8509803921568627 0.8509803921568627 0.8509803921568627
            specularColor 0.4235294117647059 0.4235294117647059 0.4235294117647059
            ambientIntensity 0.851
            transparency 0.0
            shininess 0.5
        }
    }
    geometry IndexedFaceSet {
        ccw TRUE
        solid FALSE
        coord DEF co Coordinate {
            point [
                -2.2638 0.8346 0.0, -2.0524 0.8346 0.0, -2.2638 0.6654 0.0, -2.0524 0.6654 0.0, -2.2638 0.8346 0.0984, -2.2638 0.6654 0.0984, -2.0524 0.8346 0.0984, -2.0524 0.6654 0.0984, -2.0295 0.8346 0.1014, -2.0295 0.6654 0.1014, -2.0081 0.8346 0.1103, -2.0081 0.6654 0.1103, -1.9898 0.8346 0.1244, -1.9898 0.6654 0.1244, -1.9757 0.8346 0.1427, -1.9757 0.6654 0.1427, -1.9668 0.8346 0.1641, -1.9668 0.6654 0.1641, -1.8923 0.8346 0.4421, -1.8923 0.6654 0.4421, -1.8736 0.6654 0.4872, -1.8736 0.8346 0.4872, -1.8439 0.6654 0.5259, -1.8439 0.8346 0.5259, -1.8052 0.6654 0.5557, -1.8052 0.8346 0.5557, -1.7601 0.6654 0.5743, -1.7601 0.8346 0.5743, -1.7117 0.6654 0.5807, -1.7117 0.8346 0.5807, -1.4764 0.8346 0.5807, -1.4764 0.6654 0.5807, -1.7117 0.8346 0.4823, -1.4764 0.8346 0.4823, -1.7117 0.6654 0.4823, -1.4764 0.6654 0.4823, -1.7346 0.8346 0.4793, -1.7346 0.6654 0.4793, -1.756 0.8346 0.4704, -1.756 0.6654 0.4704, -1.7743 0.8346 0.4563, -1.7743 0.6654 0.4563, -1.7884 0.8346 0.438, -1.7884 0.6654 0.438, -1.7973 0.8346 0.4166, -1.7973 0.6654 0.4166, -1.8718 0.8346 0.1386, -1.8718 0.6654 0.1386, -1.8904 0.6654 0.0935, -1.8904 0.8346 0.0935, -1.9202 0.6654 0.0548, -1.9202 0.8346 0.0548, -1.9589 0.6654 0.0251, -1.9589 0.8346 0.0251, -2.004 0.6654 0.0064, -2.004 0.8346 0.0064, 2.0524 0.8346 0.0, 2.2638 0.8346 0.0, 2.0524 0.6654 0.0, 2.2638 0.6654 0.0, 2.004 0.6654 0.0064, 2.004 0.8346 0.0064, 1.9589 0.6654 0.0251, 1.9589 0.8346 0.0251, 1.9202 0.6654 0.0548, 1.9202 0.8346 0.0548, 1.8904 0.6654 0.0935, 1.8904 0.8346 0.0935, 1.8718 0.6654 0.1386, 1.8718 0.8346 0.1386, 1.7973 0.8346 0.4166, 1.7973 0.6654 0.4166, 1.7884 0.8346 0.438, 1.7884 0.6654 0.438, 1.7743 0.8346 0.4563, 1.7743 0.6654 0.4563, 1.756 0.8346 0.4704, 1.756 0.6654 0.4704, 1.7346 0.8346 0.4793, 1.7346 0.6654 0.4793, 1.7117 0.8346 0.4823, 1.7117 0.6654 0.4823, 1.4764 0.8346 0.4823, 1.4764 0.6654 0.4823, 1.7117 0.8346 0.5807, 1.4764 0.8346 0.5807, 1.7117 0.6654 0.5807, 1.4764 0.6654 0.5807, 1.7601 0.6654 0.5743, 1.7601 0.8346 0.5743, 1.8052 0.6654 0.5557, 1.8052 0.8346 0.5557, 1.8439 0.6654 0.5259, 1.8439 0.8346 0.5259, 1.8736 0.6654 0.4872, 1.8736 0.8346 0.4872, 1.8923 0.6654 0.4421, 1.8923 0.8346 0.4421, 1.9668 0.8346 0.1641, 1.9668 0.6654 0.1641, 1.9757 0.8346 0.1427, 1.9757 0.6654 0.1427, 1.9898 0.8346 0.1244, 1.9898 0.6654 0.1244, 2.0081 0.8346 0.1103, 2.0081 0.6654 0.1103, 2.0295 0.8346 0.1014, 2.0295 0.6654 0.1014, 2.0524 0.8346 0.0984, 2.0524 0.6654 0.0984, 2.2638 0.8346 0.0984, 2.2638 0.6654 0.0984, 2.0524 0.3346 0.0, 2.2638 0.3346 0.0, 2.0524 0.1654 0.0, 2.2638 0.1654 0.0, 2.004 0.1654 0.0064, 2.004 0.3346 0.0064, 1.9589 0.1654 0.0251, 1.9589 0.3346 0.0251, 1.9202 0.1654 0.0548, 1.9202 0.3346 0.0548, 1.8904 0.1654 0.0935, 1.8904 0.3346 0.0935, 1.8718 0.1654 0.1386, 1.8718 0.3346 0.1386, 1.7973 0.3346 0.4166, 1.7973 0.1654 0.4166, 1.7884 0.3346 0.438, 1.7884 0.1654 0.438, 1.7743 0.3346 0.4563, 1.7743 0.1654 0.4563, 1.756 0.3346 0.4704, 1.756 0.1654 0.4704, 1.7346 0.3346 0.4793, 1.7346 0.1654 0.4793, 1.7117 0.3346 0.4823, 1.7117 0.1654 0.4823, 1.4764 0.3346 0.4823, 1.4764 0.1654 0.4823, 1.7117 0.3346 0.5807, 1.4764 0.3346 0.5807, 1.7117 0.1654 0.5807, 1.4764 0.1654 0.5807, 1.7601 0.1654 0.5743, 1.7601 0.3346 0.5743, 1.8052 0.1654 0.5557, 1.8052 0.3346 0.5557, 1.8439 0.1654 0.5259, 1.8439 0.3346 0.5259, 1.8736 0.1654 0.4872, 1.8736 0.3346 0.4872, 1.8923 0.1654 0.4421, 1.8923 0.3346 0.4421, 1.9668 0.3346 0.1641, 1.9668 0.1654 0.1641, 1.9757 0.3346 0.1427, 1.9757 0.1654 0.1427, 1.9898 0.3346 0.1244, 1.9898 0.1654 0.1244, 2.0081 0.3346 0.1103, 2.0081 0.1654 0.1103, 2.0295 0.3346 0.1014, 2.0295 0.1654 0.1014, 2.0524 0.3346 0.0984, 2.0524 0.1654 0.0984, 2.2638 0.3346 0.0984, 2.2638 0.1654 0.0984, 2.0524 -0.1654 0.0, 2.2638 -0.1654 0.0, 2.0524 -0.3346 0.0, 2.2638 -0.3346 0.0, 2.004 -0.3346 0.0064, 2.004 -0.1654 0.0064, 1.9589 -0.3346 0.0251, 1.9589 -0.1654 0.0251, 1.9202 -0.3346 0.0548, 1.9202 -0.1654 0.0548, 1.8904 -0.3346 0.0935, 1.8904 -0.1654 0.0935, 1.8718 -0.3346 0.1386, 1.8718 -0.1654 0.1386, 1.7973 -0.1654 0.4166, 1.7973 -0.3346 0.4166, 1.7884 -0.1654 0.438, 1.7884 -0.3346 0.438, 1.7743 -0.1654 0.4563, 1.7743 -0.3346 0.4563, 1.756 -0.1654 0.4704, 1.756 -0.3346 0.4704, 1.7346 -0.1654 0.4793, 1.7346 -0.3346 0.4793, 1.7117 -0.1654 0.4823, 1.7117 -0.3346 0.4823, 1.4764 -0.1654 0.4823, 1.4764 -0.3346 0.4823, 1.7117 -0.1654 0.5807, 1.4764 -0.1654 0.5807, 1.7117 -0.3346 0.5807, 1.4764 -0.3346 0.5807, 1.7601 -0.3346 0.5743, 1.7601 -0.1654 0.5743, 1.8052 -0.3346 0.5557, 1.8052 -0.1654 0.5557, 1.8439 -0.3346 0.5259, 1.8439 -0.1654 0.5259, 1.8736 -0.3346 0.4872, 1.8736 -0.1654 0.4872, 1.8923 -0.3346 0.4421, 1.8923 -0.1654 0.4421, 1.9668 -0.1654 0.1641, 1.9668 -0.3346 0.1641, 1.9757 -0.1654 0.1427, 1.9757 -0.3346 0.1427, 1.9898 -0.1654 0.1244, 1.9898 -0.3346 0.1244, 2.0081 -0.1654 0.1103, 2.0081 -0.3346 0.1103, 2.0295 -0.1654 0.1014, 2.0295 -0.3346 0.1014, 2.0524 -0.1654 0.0984, 2.0524 -0.3346 0.0984, 2.2638 -0.1654 0.0984, 2.2638 -0.3346 0.0984, 2.0524 -0.6654 0.0, 2.2638 -0.6654 0.0, 2.0524 -0.8346 0.0, 2.2638 -0.8346 0.0, 2.004 -0.8346 0.0064, 2.004 -0.6654 0.0064, 1.9589 -0.8346 0.0251, 1.9589 -0.6654 0.0251, 1.9202 -0.8346 0.0548, 1.9202 -0.6654 0.0548, 1.8904 -0.8346 0.0935, 1.8904 -0.6654 0.0935, 1.8718 -0.8346 0.1386, 1.8718 -0.6654 0.1386, 1.7973 -0.6654 0.4166, 1.7973 -0.8346 0.4166, 1.7884 -0.6654 0.438, 1.7884 -0.8346 0.438, 1.7743 -0.6654 0.4563, 1.7743 -0.8346 0.4563, 1.756 -0.6654 0.4704, 1.756 -0.8346 0.4704, 1.7346 -0.6654 0.4793, 1.7346 -0.8346 0.4793, 1.7117 -0.6654 0.4823, 1.7117 -0.8346 0.4823, 1.4764 -0.6654 0.4823, 1.4764 -0.8346 0.4823, 1.7117 -0.6654 0.5807, 1.4764 -0.6654 0.5807, 1.7117 -0.8346 0.5807, 1.4764 -0.8346 0.5807, 1.7601 -0.8346 0.5743, 1.7601 -0.6654 0.5743, 1.8052 -0.8346 0.5557, 1.8052 -0.6654 0.5557, 1.8439 -0.8346 0.5259, 1.8439 -0.6654 0.5259, 1.8736 -0.8346 0.4872, 1.8736 -0.6654 0.4872, 1.8923 -0.8346 0.4421, 1.8923 -0.6654 0.4421, 1.9668 -0.6654 0.1641, 1.9668 -0.8346 0.1641, 1.9757 -0.6654 0.1427, 1.9757 -0.8346 0.1427, 1.9898 -0.6654 0.1244, 1.9898 -0.8346 0.1244, 2.0081 -0.6654 0.1103, 2.0081 -0.8346 0.1103, 2.0295 -0.6654 0.1014, 2.0295 -0.8346 0.1014, 2.0524 -0.6654 0.0984, 2.0524 -0.8346 0.0984, 2.2638 -0.6654 0.0984, 2.2638 -0.8346 0.0984, -2.2638 0.3346 0.0, -2.0524 0.3346 0.0, -2.2638 0.1654 0.0, -2.0524 0.1654 0.0, -2.2638 0.3346 0.0984, -2.2638 0.1654 0.0984, -2.0524 0.3346 0.0984, -2.0524 0.1654 0.0984, -2.0295 0.3346 0.1014, -2.0295 0.1654 0.1014, -2.0081 0.3346 0.1103, -2.0081 0.1654 0.1103, -1.9898 0.3346 0.1244, -1.9898 0.1654 0.1244, -1.9757 0.3346 0.1427, -1.9757 0.1654 0.1427, -1.9668 0.3346 0.1641, -1.9668 0.1654 0.1641, -1.8923 0.3346 0.4421, -1.8923 0.1654 0.4421, -1.8736 0.1654 0.4872, -1.8736 0.3346 0.4872, -1.8439 0.1654 0.5259, -1.8439 0.3346 0.5259, -1.8052 0.1654 0.5557, -1.8052 0.3346 0.5557, -1.7601 0.1654 0.5743, -1.7601 0.3346 0.5743, -1.7117 0.1654 0.5807, -1.7117 0.3346 0.5807, -1.4764 0.3346 0.5807, -1.4764 0.1654 0.5807, -1.7117 0.3346 0.4823, -1.4764 0.3346 0.4823, -1.7117 0.1654 0.4823, -1.4764 0.1654 0.4823, -1.7346 0.3346 0.4793, -1.7346 0.1654 0.4793, -1.756 0.3346 0.4704, -1.756 0.1654 0.4704, -1.7743 0.3346 0.4563, -1.7743 0.1654 0.4563, -1.7884 0.3346 0.438, -1.7884 0.1654 0.438, -1.7973 0.3346 0.4166, -1.7973 0.1654 0.4166, -1.8718 0.3346 0.1386, -1.8718 0.1654 0.1386, -1.8904 0.1654 0.0935, -1.8904 0.3346 0.0935, -1.9202 0.1654 0.0548, -1.9202 0.3346 0.0548, -1.9589 0.1654 0.0251, -1.9589 0.3346 0.0251, -2.004 0.1654 0.0064, -2.004 0.3346 0.0064, -2.2638 -0.1654 0.0, -2.0524 -0.1654 0.0, -2.2638 -0.3346 0.0, -2.0524 -0.3346 0.0, -2.2638 -0.1654 0.0984, -2.2638 -0.3346 0.0984, -2.0524 -0.1654 0.0984, -2.0524 -0.3346 0.0984, -2.0295 -0.1654 0.1014, -2.0295 -0.3346 0.1014, -2.0081 -0.1654 0.1103, -2.0081 -0.3346 0.1103, -1.9898 -0.1654 0.1244, -1.9898 -0.3346 0.1244, -1.9757 -0.1654 0.1427, -1.9757 -0.3346 0.1427, -1.9668 -0.1654 0.1641, -1.9668 -0.3346 0.1641, -1.8923 -0.1654 0.4421, -1.8923 -0.3346 0.4421, -1.8736 -0.3346 0.4872, -1.8736 -0.1654 0.4872, -1.8439 -0.3346 0.5259, -1.8439 -0.1654 0.5259, -1.8052 -0.3346 0.5557, -1.8052 -0.1654 0.5557, -1.7601 -0.3346 0.5743, -1.7601 -0.1654 0.5743, -1.7117 -0.3346 0.5807, -1.7117 -0.1654 0.5807, -1.4764 -0.1654 0.5807, -1.4764 -0.3346 0.5807, -1.7117 -0.1654 0.4823, -1.4764 -0.1654 0.4823, -1.7117 -0.3346 0.4823, -1.4764 -0.3346 0.4823, -1.7346 -0.1654 0.4793, -1.7346 -0.3346 0.4793, -1.756 -0.1654 0.4704, -1.756 -0.3346 0.4704, -1.7743 -0.1654 0.4563, -1.7743 -0.3346 0.4563, -1.7884 -0.1654 0.438, -1.7884 -0.3346 0.438, -1.7973 -0.1654 0.4166, -1.7973 -0.3346 0.4166, -1.8718 -0.1654 0.1386, -1.8718 -0.3346 0.1386, -1.8904 -0.3346 0.0935, -1.8904 -0.1654 0.0935, -1.9202 -0.3346 0.0548, -1.9202 -0.1654 0.0548, -1.9589 -0.3346 0.0251, -1.9589 -0.1654 0.0251, -2.004 -0.3346 0.0064, -2.004 -0.1654 0.0064, -2.2638 -0.6654 0.0, -2.0524 -0.6654 0.0, -2.2638 -0.8346 0.0, -2.0524 -0.8346 0.0, -2.2638 -0.6654 0.0984, -2.2638 -0.8346 0.0984, -2.0524 -0.6654 0.0984, -2.0524 -0.8346 0.0984, -2.0295 -0.6654 0.1014, -2.0295 -0.8346 0.1014, -2.0081 -0.6654 0.1103, -2.0081 -0.8346 0.1103, -1.9898 -0.6654 0.1244, -1.9898 -0.8346 0.1244, -1.9757 -0.6654 0.1427, -1.9757 -0.8346 0.1427, -1.9668 -0.6654 0.1641, -1.9668 -0.8346 0.1641, -1.8923 -0.6654 0.4421, -1.8923 -0.8346 0.4421, -1.8736 -0.8346 0.4872, -1.8736 -0.6654 0.4872, -1.8439 -0.8346 0.5259, -1.8439 -0.6654 0.5259, -1.8052 -0.8346 0.5557, -1.8052 -0.6654 0.5557, -1.7601 -0.8346 0.5743, -1.7601 -0.6654 0.5743, -1.7117 -0.8346 0.5807, -1.7117 -0.6654 0.5807, -1.4764 -0.6654 0.5807, -1.4764 -0.8346 0.5807, -1.7117 -0.6654 0.4823, -1.4764 -0.6654 0.4823, -1.7117 -0.8346 0.4823, -1.4764 -0.8346 0.4823, -1.7346 -0.6654 0.4793, -1.7346 -0.8346 0.4793, -1.756 -0.6654 0.4704, -1.756 -0.8346 0.4704, -1.7743 -0.6654 0.4563, -1.7743 -0.8346 0.4563, -1.7884 -0.6654 0.438, -1.7884 -0.8346 0.438, -1.7973 -0.6654 0.4166, -1.7973 -0.8346 0.4166, -1.8718 -0.6654 0.1386, -1.8718 -0.8346 0.1386, -1.8904 -0.8346 0.0935, -1.8904 -0.6654 0.0935, -1.9202 -0.8346 0.0548, -1.9202 -0.6654 0.0548, -1.9589 -0.8346 0.0251, -1.9589 -0.6654 0.0251, -2.004 -0.8346 0.0064, -2.004 -0.6654 0.0064
            ]
        }
        coordIndex [
            0,1,2,-1,2,1,3,-1,4,0,5,-1,5,0,2,-1,6,4,7,-1,7,4,5,-1,6,7,8,-1,8,7,9,-1,8,9,10,-1,10,9,11,-1,10,11,12,-1,12,11,13,-1,12,13,14,-1,14,13,15,-1,14,15,16,-1,16,15,17,-1,18,16,19,-1,19,16,17,-1,18,19,20,-1,18,20,21,-1,21,20,22,-1,21,22,23,-1,23,22,24,-1,23,24,25,-1,25,24,26,-1,25,26,27,-1,27,26,28,-1,27,28,29,-1,30,29,31,-1,31,29,28,-1,32,33,34,-1,34,33,35,-1,32,34,36,-1,36,34,37,-1,36,37,38,-1,38,37,39,-1,38,39,40,-1,40,39,41,-1,40,41,42,-1,42,41,43,-1,42,43,44,-1,44,43,45,-1,46,44,47,-1,47,44,45,-1,46,47,48,-1,46,48,49,-1,49,48,50,-1,49,50,51,-1,51,50,52,-1,51,52,53,-1,53,52,54,-1,53,54,55,-1,55,54,3,-1,55,3,1,-1,0,4,1,-1,1,4,6,-1,1,6,55,-1,55,6,8,-1,55,8,53,-1,53,8,10,-1,53,10,51,-1,51,10,12,-1,51,12,49,-1,49,12,14,-1,49,14,46,-1,46,14,16,-1,46,16,44,-1,44,16,18,-1,44,18,42,-1,42,18,21,-1,42,21,40,-1,40,21,23,-1,40,23,38,-1,38,23,25,-1,38,25,36,-1,36,25,27,-1,36,27,32,-1,32,27,29,-1,32,29,33,-1,33,29,30,-1,35,31,34,-1,34,31,28,-1,34,28,37,-1,37,28,26,-1,37,26,39,-1,39,26,24,-1,39,24,41,-1,41,24,22,-1,41,22,43,-1,43,22,20,-1,43,20,45,-1,45,20,19,-1,45,19,47,-1,47,19,17,-1,47,17,48,-1,48,17,15,-1,48,15,50,-1,50,15,13,-1,50,13,52,-1,52,13,11,-1,52,11,54,-1,54,11,9,-1,54,9,3,-1,3,9,7,-1,3,7,2,-1,2,7,5,-1,56,57,58,-1,58,57,59,-1,56,58,60,-1,56,60,61,-1,61,60,62,-1,61,62,63,-1,63,62,64,-1,63,64,65,-1,65,64,66,-1,65,66,67,-1,67,66,68,-1,67,68,69,-1,70,69,71,-1,71,69,68,-1,70,71,72,-1,72,71,73,-1,72,73,74,-1,74,73,75,-1,74,75,76,-1,76,75,77,-1,76,77,78,-1,78,77,79,-1,78,79,80,-1,80,79,81,-1,82,80,83,-1,83,80,81,-1,84,85,86,-1,86,85,87,-1,84,86,88,-1,84,88,89,-1,89,88,90,-1,89,90,91,-1,91,90,92,-1,91,92,93,-1,93,92,94,-1,93,94,95,-1,95,94,96,-1,95,96,97,-1,98,97,99,-1,99,97,96,-1,98,99,100,-1,100,99,101,-1,100,101,102,-1,102,101,103,-1,102,103,104,-1,104,103,105,-1,104,105,106,-1,106,105,107,-1,106,107,108,-1,108,107,109,-1,110,108,111,-1,111,108,109,-1,57,110,59,-1,59,110,111,-1,82,85,80,-1,80,85,84,-1,80,84,78,-1,78,84,89,-1,78,89,76,-1,76,89,91,-1,76,91,74,-1,74,91,93,-1,74,93,72,-1,72,93,95,-1,72,95,70,-1,70,95,97,-1,70,97,69,-1,69,97,98,-1,69,98,67,-1,67,98,100,-1,67,100,65,-1,65,100,102,-1,65,102,63,-1,63,102,104,-1,63,104,61,-1,61,104,106,-1,61,106,56,-1,56,106,108,-1,56,108,57,-1,57,108,110,-1,59,111,58,-1,58,111,109,-1,58,109,60,-1,60,109,107,-1,60,107,62,-1,62,107,105,-1,62,105,64,-1,64,105,103,-1,64,103,66,-1,66,103,101,-1,66,101,68,-1,68,101,99,-1,68,99,71,-1,71,99,96,-1,71,96,73,-1,73,96,94,-1,73,94,75,-1,75,94,92,-1,75,92,77,-1,77,92,90,-1,77,90,79,-1,79,90,88,-1,79,88,81,-1,81,88,86,-1,81,86,83,-1,83,86,87,-1,112,113,114,-1,114,113,115,-1,112,114,116,-1,112,116,117,-1,117,116,118,-1,117,118,119,-1,119,118,120,-1,119,120,121,-1,121,120,122,-1,121,122,123,-1,123,122,124,-1,123,124,125,-1,126,125,127,-1,127,125,124,-1,126,127,128,-1,128,127,129,-1,128,129,130,-1,130,129,131,-1,130,131,132,-1,132,131,133,-1,132,133,134,-1,134,133,135,-1,134,135,136,-1,136,135,137,-1,138,136,139,-1,139,136,137,-1,140,141,142,-1,142,141,143,-1,140,142,144,-1,140,144,145,-1,145,144,146,-1,145,146,147,-1,147,146,148,-1,147,148,149,-1,149,148,150,-1,149,150,151,-1,151,150,152,-1,151,152,153,-1,154,153,155,-1,155,153,152,-1,154,155,156,-1,156,155,157,-1,156,157,158,-1,158,157,159,-1,158,159,160,-1,160,159,161,-1,160,161,162,-1,162,161,163,-1,162,163,164,-1,164,163,165,-1,166,164,167,-1,167,164,165,-1,113,166,115,-1,115,166,167,-1,138,141,136,-1,136,141,140,-1,136,140,134,-1,134,140,145,-1,134,145,132,-1,132,145,147,-1,132,147,130,-1,130,147,149,-1,130,149,128,-1,128,149,151,-1,128,151,126,-1,126,151,153,-1,126,153,125,-1,125,153,154,-1,125,154,123,-1,123,154,156,-1,123,156,121,-1,121,156,158,-1,121,158,119,-1,119,158,160,-1,119,160,117,-1,117,160,162,-1,117,162,112,-1,112,162,164,-1,112,164,113,-1,113,164,166,-1,115,167,114,-1,114,167,165,-1,114,165,116,-1,116,165,163,-1,116,163,118,-1,118,163,161,-1,118,161,120,-1,120,161,159,-1,120,159,122,-1,122,159,157,-1,122,157,124,-1,124,157,155,-1,124,155,127,-1,127,155,152,-1,127,152,129,-1,129,152,150,-1,129,150,131,-1,131,150,148,-1,131,148,133,-1,133,148,146,-1,133,146,135,-1,135,146,144,-1,135,144,137,-1,137,144,142,-1,137,142,139,-1,139,142,143,-1,168,169,170,-1,170,169,171,-1,168,170,172,-1,168,172,173,-1,173,172,174,-1,173,174,175,-1,175,174,176,-1,175,176,177,-1,177,176,178,-1,177,178,179,-1,179,178,180,-1,179,180,181,-1,182,181,183,-1,183,181,180,-1,182,183,184,-1,184,183,185,-1,184,185,186,-1,186,185,187,-1,186,187,188,-1,188,187,189,-1,188,189,190,-1,190,189,191,-1,190,191,192,-1,192,191,193,-1,194,192,195,-1,195,192,193,-1,196,197,198,-1,198,197,199,-1,196,198,200,-1,196,200,201,-1,201,200,202,-1,201,202,203,-1,203,202,204,-1,203,204,205,-1,205,204,206,-1,205,206,207,-1,207,206,208,-1,207,208,209,-1,210,209,211,-1,211,209,208,-1,210,211,212,-1,212,211,213,-1,212,213,214,-1,214,213,215,-1,214,215,216,-1,216,215,217,-1,216,217,218,-1,218,217,219,-1,218,219,220,-1,220,219,221,-1,222,220,223,-1,223,220,221,-1,169,222,171,-1,171,222,223,-1,194,197,192,-1,192,197,196,-1,192,196,190,-1,190,196,201,-1,190,201,188,-1,188,201,203,-1,188,203,186,-1,186,203,205,-1,186,205,184,-1,184,205,207,-1,184,207,182,-1,182,207,209,-1,182,209,181,-1,181,209,210,-1,181,210,179,-1,179,210,212,-1,179,212,177,-1,177,212,214,-1,177,214,175,-1,175,214,216,-1,175,216,173,-1,173,216,218,-1,173,218,168,-1,168,218,220,-1,168,220,169,-1,169,220,222,-1,171,223,170,-1,170,223,221,-1,170,221,172,-1,172,221,219,-1,172,219,174,-1,174,219,217,-1,174,217,176,-1,176,217,215,-1,176,215,178,-1,178,215,213,-1,178,213,180,-1,180,213,211,-1,180,211,183,-1,183,211,208,-1,183,208,185,-1,185,208,206,-1,185,206,187,-1,187,206,204,-1,187,204,189,-1,189,204,202,-1,189,202,191,-1,191,202,200,-1,191,200,193,-1,193,200,198,-1,193,198,195,-1,195,198,199,-1,224,225,226,-1,226,225,227,-1,224,226,228,-1,224,228,229,-1,229,228,230,-1,229,230,231,-1,231,230,232,-1,231,232,233,-1,233,232,234,-1,233,234,235,-1,235,234,236,-1,235,236,237,-1,238,237,239,-1,239,237,236,-1,238,239,240,-1,240,239,241,-1,240,241,242,-1,242,241,243,-1,242,243,244,-1,244,243,245,-1,244,245,246,-1,246,245,247,-1,246,247,248,-1,248,247,249,-1,250,248,251,-1,251,248,249,-1,252,253,254,-1,254,253,255,-1,252,254,256,-1,252,256,257,-1,257,256,258,-1,257,258,259,-1,259,258,260,-1,259,260,261,-1,261,260,262,-1,261,262,263,-1,263,262,264,-1,263,264,265,-1,266,265,267,-1,267,265,264,-1,266,267,268,-1,268,267,269,-1,268,269,270,-1,270,269,271,-1,270,271,272,-1,272,271,273,-1,272,273,274,-1,274,273,275,-1,274,275,276,-1,276,275,277,-1,278,276,279,-1,279,276,277,-1,225,278,227,-1,227,278,279,-1,250,253,248,-1,248,253,252,-1,248,252,246,-1,246,252,257,-1,246,257,244,-1,244,257,259,-1,244,259,242,-1,242,259,261,-1,242,261,240,-1,240,261,263,-1,240,263,238,-1,238,263,265,-1,238,265,237,-1,237,265,266,-1,237,266,235,-1,235,266,268,-1,235,268,233,-1,233,268,270,-1,233,270,231,-1,231,270,272,-1,231,272,229,-1,229,272,274,-1,229,274,224,-1,224,274,276,-1,224,276,225,-1,225,276,278,-1,227,279,226,-1,226,279,277,-1,226,277,228,-1,228,277,275,-1,228,275,230,-1,230,275,273,-1,230,273,232,-1,232,273,271,-1,232,271,234,-1,234,271,269,-1,234,269,236,-1,236,269,267,-1,236,267,239,-1,239,267,264,-1,239,264,241,-1,241,264,262,-1,241,262,243,-1,243,262,260,-1,243,260,245,-1,245,260,258,-1,245,258,247,-1,247,258,256,-1,247,256,249,-1,249,256,254,-1,249,254,251,-1,251,254,255,-1,280,281,282,-1,282,281,283,-1,284,280,285,-1,285,280,282,-1,286,284,287,-1,287,284,285,-1,286,287,288,-1,288,287,289,-1,288,289,290,-1,290,289,291,-1,290,291,292,-1,292,291,293,-1,292,293,294,-1,294,293,295,-1,294,295,296,-1,296,295,297,-1,298,296,299,-1,299,296,297,-1,298,299,300,-1,298,300,301,-1,301,300,302,-1,301,302,303,-1,303,302,304,-1,303,304,305,-1,305,304,306,-1,305,306,307,-1,307,306,308,-1,307,308,309,-1,310,309,311,-1,311,309,308,-1,312,313,314,-1,314,313,315,-1,312,314,316,-1,316,314,317,-1,316,317,318,-1,318,317,319,-1,318,319,320,-1,320,319,321,-1,320,321,322,-1,322,321,323,-1,322,323,324,-1,324,323,325,-1,326,324,327,-1,327,324,325,-1,326,327,328,-1,326,328,329,-1,329,328,330,-1,329,330,331,-1,331,330,332,-1,331,332,333,-1,333,332,334,-1,333,334,335,-1,335,334,283,-1,335,283,281,-1,280,284,281,-1,281,284,286,-1,281,286,335,-1,335,286,288,-1,335,288,333,-1,333,288,290,-1,333,290,331,-1,331,290,292,-1,331,292,329,-1,329,292,294,-1,329,294,326,-1,326,294,296,-1,326,296,324,-1,324,296,298,-1,324,298,322,-1,322,298,301,-1,322,301,320,-1,320,301,303,-1,320,303,318,-1,318,303,305,-1,318,305,316,-1,316,305,307,-1,316,307,312,-1,312,307,309,-1,312,309,313,-1,313,309,310,-1,315,311,314,-1,314,311,308,-1,314,308,317,-1,317,308,306,-1,317,306,319,-1,319,306,304,-1,319,304,321,-1,321,304,302,-1,321,302,323,-1,323,302,300,-1,323,300,325,-1,325,300,299,-1,325,299,327,-1,327,299,297,-1,327,297,328,-1,328,297,295,-1,328,295,330,-1,330,295,293,-1,330,293,332,-1,332,293,291,-1,332,291,334,-1,334,291,289,-1,334,289,283,-1,283,289,287,-1,283,287,282,-1,282,287,285,-1,336,337,338,-1,338,337,339,-1,340,336,341,-1,341,336,338,-1,342,340,343,-1,343,340,341,-1,342,343,344,-1,344,343,345,-1,344,345,346,-1,346,345,347,-1,346,347,348,-1,348,347,349,-1,348,349,350,-1,350,349,351,-1,350,351,352,-1,352,351,353,-1,354,352,355,-1,355,352,353,-1,354,355,356,-1,354,356,357,-1,357,356,358,-1,357,358,359,-1,359,358,360,-1,359,360,361,-1,361,360,362,-1,361,362,363,-1,363,362,364,-1,363,364,365,-1,366,365,367,-1,367,365,364,-1,368,369,370,-1,370,369,371,-1,368,370,372,-1,372,370,373,-1,372,373,374,-1,374,373,375,-1,374,375,376,-1,376,375,377,-1,376,377,378,-1,378,377,379,-1,378,379,380,-1,380,379,381,-1,382,380,383,-1,383,380,381,-1,382,383,384,-1,382,384,385,-1,385,384,386,-1,385,386,387,-1,387,386,388,-1,387,388,389,-1,389,388,390,-1,389,390,391,-1,391,390,339,-1,391,339,337,-1,336,340,337,-1,337,340,342,-1,337,342,391,-1,391,342,344,-1,391,344,389,-1,389,344,346,-1,389,346,387,-1,387,346,348,-1,387,348,385,-1,385,348,350,-1,385,350,382,-1,382,350,352,-1,382,352,380,-1,380,352,354,-1,380,354,378,-1,378,354,357,-1,378,357,376,-1,376,357,359,-1,376,359,374,-1,374,359,361,-1,374,361,372,-1,372,361,363,-1,372,363,368,-1,368,363,365,-1,368,365,369,-1,369,365,366,-1,371,367,370,-1,370,367,364,-1,370,364,373,-1,373,364,362,-1,373,362,375,-1,375,362,360,-1,375,360,377,-1,377,360,358,-1,377,358,379,-1,379,358,356,-1,379,356,381,-1,381,356,355,-1,381,355,383,-1,383,355,353,-1,383,353,384,-1,384,353,351,-1,384,351,386,-1,386,351,349,-1,386,349,388,-1,388,349,347,-1,388,347,390,-1,390,347,345,-1,390,345,339,-1,339,345,343,-1,339,343,338,-1,338,343,341,-1,392,393,394,-1,394,393,395,-1,396,392,397,-1,397,392,394,-1,398,396,399,-1,399,396,397,-1,398,399,400,-1,400,399,401,-1,400,401,402,-1,402,401,403,-1,402,403,404,-1,404,403,405,-1,404,405,406,-1,406,405,407,-1,406,407,408,-1,408,407,409,-1,410,408,411,-1,411,408,409,-1,410,411,412,-1,410,412,413,-1,413,412,414,-1,413,414,415,-1,415,414,416,-1,415,416,417,-1,417,416,418,-1,417,418,419,-1,419,418,420,-1,419,420,421,-1,422,421,423,-1,423,421,420,-1,424,425,426,-1,426,425,427,-1,424,426,428,-1,428,426,429,-1,428,429,430,-1,430,429,431,-1,430,431,432,-1,432,431,433,-1,432,433,434,-1,434,433,435,-1,434,435,436,-1,436,435,437,-1,438,436,439,-1,439,436,437,-1,438,439,440,-1,438,440,441,-1,441,440,442,-1,441,442,443,-1,443,442,444,-1,443,444,445,-1,445,444,446,-1,445,446,447,-1,447,446,395,-1,447,395,393,-1,392,396,393,-1,393,396,398,-1,393,398,447,-1,447,398,400,-1,447,400,445,-1,445,400,402,-1,445,402,443,-1,443,402,404,-1,443,404,441,-1,441,404,406,-1,441,406,438,-1,438,406,408,-1,438,408,436,-1,436,408,410,-1,436,410,434,-1,434,410,413,-1,434,413,432,-1,432,413,415,-1,432,415,430,-1,430,415,417,-1,430,417,428,-1,428,417,419,-1,428,419,424,-1,424,419,421,-1,424,421,425,-1,425,421,422,-1,427,423,426,-1,426,423,420,-1,426,420,429,-1,429,420,418,-1,429,418,431,-1,431,418,416,-1,431,416,433,-1,433,416,414,-1,433,414,435,-1,435,414,412,-1,435,412,437,-1,437,412,411,-1,437,411,439,-1,439,411,409,-1,439,409,440,-1,440,409,407,-1,440,407,442,-1,442,407,405,-1,442,405,444,-1,444,405,403,-1,444,403,446,-1,446,403,401,-1,446,401,395,-1,395,401,399,-1,395,399,394,-1,394,399,397,-1,
        ]
    }
}