#VRML V2.0 utf8
# 3D model generated by easyeda2kicad.py (https://github.com/uPesy/easyeda2kicad.py)

Shape{
    appearance Appearance {
        material  Material 	{
            diffuseColor 0.2549019607843137 0.2549019607843137 0.2549019607843137
            specularColor 0.7529411764705882 0.7529411764705882 0.7529411764705882
            ambientIntensity 1.0
            transparency 1.0
            shininess 0.5
        }
    }
    geometry IndexedFaceSet {
        ccw TRUE
        solid FALSE
        coord DEF co Coordinate {
            point [
                -0.2263 0.0921 0.3346, -0.2263 0.0921 0.3307, -0.2452 0.0824 0.3307, -0.2452 0.0824 0.3346, -2.2778 1.0545 0.7283, -2.2778 1.0545 2.0669, 2.0476 1.0545 2.0669, 2.0476 1.0545 0.7283, 2.0476 -1.0544 2.0669, 2.0476 -1.0544 0.7283, -2.2778 -1.0544 2.0669, -2.2778 -1.0544 0.7283, -1.2205 0.5906 2.0669, -0.0394 0.5906 2.0669, -0.0394 -0.5905 2.0669, -1.2205 -0.5905 2.0669, -0.749 0.5906 4.1974, -0.9761 0.5906 4.1938, -1.2205 0.5906 4.2, -1.0747 0.5906 4.3307, -0.0394 0.5906 4.1775, -0.2905 0.5906 4.2, -0.8713 0.5906 4.3307, -0.6385 0.5906 4.3307, -0.5186 0.5906 4.2, -0.4103 0.5906 4.3307, -0.1767 0.5906 4.3307, -1.2205 -0.5905 4.2, -1.0747 -0.5905 4.3307, -0.9761 -0.5905 4.1938, -0.8713 -0.5905 4.3307, -0.749 -0.5905 4.1974, -0.6385 -0.5905 4.3307, -0.5186 -0.5905 4.2, -0.4103 -0.5905 4.3307, -0.2905 -0.5905 4.2, -0.1767 -0.5905 4.3307, -0.0394 -0.5905 4.1775, -0.4863 0.0969 0.3346, -0.4863 0.0969 0.3307, -0.4863 -0.13 0.3307, -0.4863 -0.13 0.3346, -0.4579 -0.13 0.3307, -0.4579 -0.13 0.3346, -0.4579 0.0679 0.3307, -0.4579 0.0679 0.3346, -0.3161 0.0679 0.3307, -0.3161 0.0679 0.3346, -0.3161 0.0969 0.3307, -0.3161 0.0969 0.3346, -0.2357 -0.0866 0.3307, -0.2641 -0.0962 0.3307, -0.2452 -0.0721 0.3307, -0.0939 -0.0721 0.3307, -0.0986 -0.0962 0.3307, -0.1223 -0.0721 0.3307, -0.2026 0.0679 0.3307, -0.2215 0.0631 0.3307, -0.1601 0.0679 0.3307, -0.1364 0.0921 0.3307, -0.1412 0.0631 0.3307, -0.1175 0.0824 0.3307, -0.127 0.0534 0.3307, -0.1601 0.0969 0.3307, -0.2026 0.0969 0.3307, -0.2357 0.0534 0.3307, -0.2452 0.039 0.3307, -0.2641 0.0631 0.3307, -0.2735 0.0438 0.3307, -0.2499 0.0196 0.3307, -0.2735 -0.0769 0.3307, -0.2499 -0.0528 0.3307, -0.2783 -0.0528 0.3307, -0.2783 0.0196 0.3307, -0.2215 -0.0962 0.3307, -0.2452 -0.1156 0.3307, -0.2263 -0.1252 0.3307, -0.2026 -0.1011 0.3307, -0.1601 -0.13 0.3307, -0.2026 -0.13 0.3307, -0.1601 -0.1011 0.3307, -0.1412 -0.0962 0.3307, -0.1364 -0.1252 0.3307, -0.127 -0.0866 0.3307, -0.1175 -0.1156 0.3307, -0.0986 0.0631 0.3307, -0.1223 0.039 0.3307, -0.0939 0.039 0.3307, -0.0561 0.0969 0.3307, -0.0277 -0.0093 0.3307, -0.0561 -0.13 0.3307, -0.0277 -0.0383 0.3307, 0.1141 0.0969 0.3307, -0.0277 0.0679 0.3307, 0.0952 -0.0093 0.3307, 0.0952 -0.0383 0.3307, -0.0277 -0.1011 0.3307, 0.1141 -0.1011 0.3307, 0.1141 -0.13 0.3307, 0.1141 0.0679 0.3307, 0.3363 0.0438 0.3307, 0.3127 0.0196 0.3307, 0.308 0.039 0.3307, 0.3411 0.0196 0.3307, 0.3127 -0.0528 0.3307, 0.3411 -0.0528 0.3307, 0.3269 -0.0962 0.3307, 0.2985 -0.0866 0.3307, 0.308 -0.0721 0.3307, 0.2843 -0.0962 0.3307, 0.308 -0.1156 0.3307, 0.2891 -0.1252 0.3307, 0.2654 -0.1011 0.3307, 0.2654 -0.13 0.3307, 0.3363 -0.0769 0.3307, 0.1803 -0.1011 0.3307, 0.1519 -0.13 0.3307, 0.1803 0.0679 0.3307, 0.1519 0.0969 0.3307, 0.2654 0.0679 0.3307, 0.2891 0.0921 0.3307, 0.2843 0.0631 0.3307, 0.2985 0.0534 0.3307, 0.308 0.0824 0.3307, 0.3269 0.0631 0.3307, 0.2654 0.0969 0.3307, 0.568 0.0969 0.3307, 0.4923 -0.13 0.3307, 0.516 0.0196 0.3307, 0.4262 0.039 0.3307, 0.3789 0.0969 0.3307, 0.4072 0.0969 0.3307, 0.4309 0.0196 0.3307, 0.5396 0.0969 0.3307, 0.5207 0.039 0.3307, 0.4545 -0.13 0.3307, 0.4734 -0.1107 0.3307, -0.1223 0.039 0.3346, -0.0939 0.039 0.3346, -0.0986 0.0631 0.3346, -0.1175 0.0824 0.3346, -0.1364 0.0921 0.3346, -0.1601 0.0969 0.3346, -0.2026 0.0969 0.3346, -0.127 0.0534 0.3346, -0.1412 0.0631 0.3346, -0.1601 0.0679 0.3346, -0.2026 0.0679 0.3346, -0.2215 0.0631 0.3346, -0.2357 0.0534 0.3346, -0.2452 0.039 0.3346, -0.2499 0.0196 0.3346, -0.2499 -0.0528 0.3346, -0.2452 -0.0721 0.3346, -0.2357 -0.0866 0.3346, -0.2215 -0.0962 0.3346, -0.2026 -0.1011 0.3346, -0.1601 -0.1011 0.3346, -0.1412 -0.0962 0.3346, -0.127 -0.0866 0.3346, -0.1223 -0.0721 0.3346, -0.0939 -0.0721 0.3346, -0.0986 -0.0962 0.3346, -0.1175 -0.1156 0.3346, -0.1364 -0.1252 0.3346, -0.1601 -0.13 0.3346, -0.2026 -0.13 0.3346, -0.2263 -0.1252 0.3346, -0.2452 -0.1156 0.3346, -0.2641 -0.0962 0.3346, -0.2735 -0.0769 0.3346, -0.2783 -0.0528 0.3346, -0.2783 0.0196 0.3346, -0.2735 0.0438 0.3346, -0.2641 0.0631 0.3346, -0.0277 0.0679 0.3346, 0.1141 0.0679 0.3346, 0.1141 0.0969 0.3346, -0.0561 0.0969 0.3346, -0.0561 -0.13 0.3346, 0.1141 -0.13 0.3346, 0.1141 -0.1011 0.3346, -0.0277 -0.1011 0.3346, -0.0277 -0.0383 0.3346, 0.0952 -0.0383 0.3346, 0.0952 -0.0093 0.3346, -0.0277 -0.0093 0.3346, 0.1519 -0.13 0.3346, 0.2654 -0.13 0.3346, 0.2891 -0.1252 0.3346, 0.308 -0.1156 0.3346, 0.3269 -0.0962 0.3346, 0.3363 -0.0769 0.3346, 0.3411 -0.0528 0.3346, 0.3411 0.0196 0.3346, 0.3363 0.0438 0.3346, 0.3269 0.0631 0.3346, 0.308 0.0824 0.3346, 0.2891 0.0921 0.3346, 0.2654 0.0969 0.3346, 0.1519 0.0969 0.3346, 0.2654 -0.1011 0.3346, 0.1803 -0.1011 0.3346, 0.1803 0.0679 0.3346, 0.2654 0.0679 0.3346, 0.2843 0.0631 0.3346, 0.2985 0.0534 0.3346, 0.308 0.039 0.3346, 0.3127 0.0196 0.3346, 0.3127 -0.0528 0.3346, 0.308 -0.0721 0.3346, 0.2985 -0.0866 0.3346, 0.2843 -0.0962 0.3346, 0.4545 -0.13 0.3346, 0.4923 -0.13 0.3346, 0.568 0.0969 0.3346, 0.5396 0.0969 0.3346, 0.5207 0.039 0.3346, 0.4262 0.039 0.3346, 0.4072 0.0969 0.3346, 0.3789 0.0969 0.3346, 0.516 0.0196 0.3346, 0.4734 -0.1107 0.3346, 0.4309 0.0196 0.3346
            ]
        }
        coordIndex [
            0,1,2,-1,0,2,3,-1,4,5,6,-1,4,6,7,-1,7,6,8,-1,7,8,9,-1,9,8,10,-1,9,10,11,-1,11,10,5,-1,11,5,4,-1,12,13,5,-1,14,8,13,-1,15,5,10,-1,8,6,13,-1,5,13,6,-1,10,8,14,-1,5,15,12,-1,10,14,15,-1,16,12,17,-1,17,18,19,-1,20,13,21,-1,22,16,17,-1,16,23,24,-1,13,24,21,-1,24,25,21,-1,13,12,24,-1,21,26,20,-1,24,12,16,-1,18,17,12,-1,27,19,18,-1,27,28,19,-1,28,17,19,-1,28,29,17,-1,29,22,17,-1,29,30,22,-1,30,16,22,-1,30,31,16,-1,31,23,16,-1,31,32,23,-1,32,24,23,-1,32,33,24,-1,33,25,24,-1,33,34,25,-1,34,21,25,-1,34,35,21,-1,35,26,21,-1,35,36,26,-1,36,20,26,-1,36,37,20,-1,37,13,20,-1,13,37,14,-1,37,36,35,-1,14,37,35,-1,33,14,35,-1,35,34,33,-1,14,33,31,-1,31,33,32,-1,29,31,30,-1,14,31,15,-1,27,15,29,-1,15,31,29,-1,29,28,27,-1,18,15,27,-1,15,18,12,-1,38,39,40,-1,38,40,41,-1,41,40,42,-1,41,42,43,-1,43,42,44,-1,43,44,45,-1,45,44,46,-1,45,46,47,-1,47,46,48,-1,47,48,49,-1,49,48,39,-1,49,39,38,-1,44,48,46,-1,44,40,39,-1,44,42,40,-1,48,44,39,-1,50,51,52,-1,53,54,55,-1,1,56,57,-1,58,59,60,-1,60,61,62,-1,63,56,64,-1,65,2,57,-1,66,67,65,-1,68,67,66,-1,66,69,68,-1,52,70,71,-1,69,72,73,-1,74,75,50,-1,76,75,74,-1,77,76,74,-1,78,79,80,-1,81,82,80,-1,83,84,81,-1,55,54,83,-1,62,85,86,-1,54,84,83,-1,84,82,81,-1,82,78,80,-1,79,77,80,-1,79,76,77,-1,50,75,51,-1,51,70,52,-1,70,72,71,-1,71,72,69,-1,73,68,69,-1,65,67,2,-1,57,2,1,-1,1,64,56,-1,63,58,56,-1,63,59,58,-1,59,61,60,-1,61,85,62,-1,85,87,86,-1,88,89,90,-1,89,91,90,-1,88,92,93,-1,91,94,95,-1,96,97,98,-1,98,90,96,-1,96,90,91,-1,94,91,89,-1,89,88,93,-1,92,99,93,-1,100,101,102,-1,103,101,100,-1,103,104,101,-1,103,105,104,-1,106,107,108,-1,109,107,110,-1,111,109,110,-1,111,112,109,-1,112,111,113,-1,104,114,108,-1,115,113,116,-1,117,116,118,-1,119,120,121,-1,115,112,113,-1,122,121,123,-1,110,107,106,-1,106,108,114,-1,114,104,105,-1,122,124,102,-1,124,100,102,-1,124,122,123,-1,123,121,120,-1,125,119,117,-1,120,119,125,-1,116,117,115,-1,125,117,118,-1,126,127,128,-1,129,130,131,-1,129,132,130,-1,133,126,134,-1,128,132,134,-1,128,134,126,-1,127,135,136,-1,132,129,134,-1,127,136,128,-1,136,135,132,-1,130,132,135,-1,137,86,87,-1,137,87,138,-1,138,87,85,-1,138,85,139,-1,139,85,61,-1,139,61,140,-1,140,61,59,-1,140,59,141,-1,141,59,63,-1,141,63,142,-1,142,63,64,-1,142,64,143,-1,143,64,1,-1,143,1,0,-1,144,62,86,-1,144,86,137,-1,145,60,62,-1,145,62,144,-1,146,58,60,-1,146,60,145,-1,147,56,58,-1,147,58,146,-1,148,57,56,-1,148,56,147,-1,149,65,57,-1,149,57,148,-1,150,66,65,-1,150,65,149,-1,151,69,66,-1,151,66,150,-1,152,71,69,-1,152,69,151,-1,153,52,71,-1,153,71,152,-1,154,50,52,-1,154,52,153,-1,155,74,50,-1,155,50,154,-1,156,77,74,-1,156,74,155,-1,157,80,77,-1,157,77,156,-1,158,81,80,-1,158,80,157,-1,159,83,81,-1,159,81,158,-1,160,55,83,-1,160,83,159,-1,161,53,55,-1,161,55,160,-1,162,54,53,-1,162,53,161,-1,163,84,54,-1,163,54,162,-1,164,82,84,-1,164,84,163,-1,165,78,82,-1,165,82,164,-1,166,79,78,-1,166,78,165,-1,167,76,79,-1,167,79,166,-1,168,75,76,-1,168,76,167,-1,169,51,75,-1,169,75,168,-1,170,70,51,-1,170,51,169,-1,171,72,70,-1,171,70,170,-1,172,73,72,-1,172,72,171,-1,173,68,73,-1,173,73,172,-1,174,67,68,-1,174,68,173,-1,3,2,67,-1,3,67,174,-1,175,93,99,-1,175,99,176,-1,176,99,92,-1,176,92,177,-1,177,92,88,-1,177,88,178,-1,178,88,90,-1,178,90,179,-1,179,90,98,-1,179,98,180,-1,180,98,97,-1,180,97,181,-1,181,97,96,-1,181,96,182,-1,182,96,91,-1,182,91,183,-1,183,91,95,-1,183,95,184,-1,184,95,94,-1,184,94,185,-1,185,94,89,-1,185,89,186,-1,186,89,93,-1,186,93,175,-1,187,116,113,-1,187,113,188,-1,188,113,111,-1,188,111,189,-1,189,111,110,-1,189,110,190,-1,190,110,106,-1,190,106,191,-1,191,106,114,-1,191,114,192,-1,192,114,105,-1,192,105,193,-1,193,105,103,-1,193,103,194,-1,194,103,100,-1,194,100,195,-1,195,100,124,-1,195,124,196,-1,196,124,123,-1,196,123,197,-1,197,123,120,-1,197,120,198,-1,198,120,125,-1,198,125,199,-1,199,125,118,-1,199,118,200,-1,200,118,116,-1,200,116,187,-1,201,112,115,-1,201,115,202,-1,202,115,117,-1,202,117,203,-1,203,117,119,-1,203,119,204,-1,204,119,121,-1,204,121,205,-1,205,121,122,-1,205,122,206,-1,206,122,102,-1,206,102,207,-1,207,102,101,-1,207,101,208,-1,208,101,104,-1,208,104,209,-1,209,104,108,-1,209,108,210,-1,210,108,107,-1,210,107,211,-1,211,107,109,-1,211,109,212,-1,212,109,112,-1,212,112,201,-1,213,135,127,-1,213,127,214,-1,214,127,126,-1,214,126,215,-1,215,126,133,-1,215,133,216,-1,216,133,134,-1,216,134,217,-1,217,134,129,-1,217,129,218,-1,218,129,131,-1,218,131,219,-1,219,131,130,-1,219,130,220,-1,220,130,135,-1,220,135,213,-1,221,128,136,-1,221,136,222,-1,222,136,132,-1,222,132,223,-1,223,132,128,-1,223,128,221,-1,
        ]
    }
}
Shape{
    appearance Appearance {
        material  Material 	{
            diffuseColor 0.6862745098039216 0.403921568627451 0.23921568627450981
            specularColor 0.7529411764705882 0.7529411764705882 0.7529411764705882
            ambientIntensity 1.0
            transparency 1.0
            shininess 0.5
        }
    }
    geometry IndexedFaceSet {
        ccw TRUE
        solid FALSE
        coord DEF co Coordinate {
            point [
                0.568 0.0969 0.3346, 0.5396 0.0969 0.3346, 0.1378 0.4922 0.3346, -0.0277 0.0679 0.3346, 0.0952 -0.0093 0.3346, -0.0277 -0.0093 0.3346, 2.4213 -1.7126 0.3346, 1.8701 -1.7126 0.3346, 1.8701 -1.496 0.3346, 1.8701 1.4961 0.3346, 2.4213 1.7126 0.3346, 1.3189 0.689 0.3346, -1.0433 1.4961 0.3346, -1.0433 1.7126 0.3346, 1.0433 1.4961 0.3346, -1.0433 0.689 0.3346, -0.1378 0.689 0.3346, -0.1378 0.4922 0.3346, 1.3189 0.4922 0.3346, 1.8701 1.7126 0.3346, 1.0433 1.7126 0.3346, -1.8701 1.7126 0.3346, -1.8701 1.4961 0.3346, -2.4212 1.7126 0.3346, 0.2654 0.0969 0.3346, 0.3789 0.0969 0.3346, 0.2891 0.0921 0.3346, -2.4212 -1.7126 0.3346, -1.3189 -0.4921 0.3346, -1.3189 -0.6889 0.3346, -1.8701 -1.496 0.3346, -1.0433 -1.496 0.3346, 1.0433 -1.7126 0.3346, 1.0433 -1.496 0.3346, 0.2654 -0.13 0.3346, 0.2891 -0.1252 0.3346, 0.4545 -0.13 0.3346, -1.8701 -1.7126 0.3346, -1.0433 -1.7126 0.3346, -0.1412 0.0631 0.3346, -0.127 0.0534 0.3346, -0.1223 0.039 0.3346, 0.1378 -0.4921 0.3346, 0.4923 -0.13 0.3346, 0.1378 0.689 0.3346, 1.0433 0.4922 0.3346, 0.4072 0.0969 0.3346, 0.5207 0.039 0.3346, 0.4262 0.039 0.3346, 1.0433 -0.4921 0.3346, 0.1141 -0.13 0.3346, -0.0561 -0.13 0.3346, 1.0433 0.689 0.3346, 0.308 0.0824 0.3346, 0.3363 0.0438 0.3346, 0.3269 0.0631 0.3346, 0.3411 0.0196 0.3346, 0.3411 -0.0528 0.3346, 0.3363 -0.0769 0.3346, 0.3269 -0.0962 0.3346, 0.308 -0.1156 0.3346, 0.1519 -0.13 0.3346, 0.1519 0.0969 0.3346, 0.0952 -0.0383 0.3346, -0.0277 -0.0383 0.3346, -0.0277 -0.1011 0.3346, 0.1141 -0.1011 0.3346, -0.1378 -0.4921 0.3346, -0.1601 -0.13 0.3346, -0.2452 0.039 0.3346, -0.2357 0.0534 0.3346, -0.2026 0.0679 0.3346, 1.0433 -0.6889 0.3346, 0.1378 -0.6889 0.3346, 0.1141 0.0679 0.3346, -0.2783 -0.0528 0.3346, -0.4579 -0.13 0.3346, -0.4579 0.0679 0.3346, 0.1141 0.0969 0.3346, -0.1601 0.0679 0.3346, -0.3161 0.0679 0.3346, -0.3161 0.0969 0.3346, -0.2641 0.0631 0.3346, -0.0561 0.0969 0.3346, -0.0986 0.0631 0.3346, -0.1175 0.0824 0.3346, -0.2263 0.0921 0.3346, -0.2452 0.0824 0.3346, -0.2215 0.0631 0.3346, -0.1364 0.0921 0.3346, -0.1601 0.0969 0.3346, -0.2499 0.0196 0.3346, -1.3189 0.689 0.3346, -1.3189 0.4922 0.3346, -0.2452 -0.1156 0.3346, -0.2263 -0.1252 0.3346, -0.2783 0.0196 0.3346, -0.2499 -0.0528 0.3346, -0.1223 -0.0721 0.3346, -0.2215 -0.0962 0.3346, -0.2357 -0.0866 0.3346, -0.2026 -0.1011 0.3346, -0.2452 -0.0721 0.3346, -0.1601 -0.1011 0.3346, -0.1412 -0.0962 0.3346, -0.127 -0.0866 0.3346, -0.0939 -0.0721 0.3346, -0.0939 0.039 0.3346, -0.0986 -0.0962 0.3346, -0.1175 -0.1156 0.3346, -0.1364 -0.1252 0.3346, -0.2026 -0.13 0.3346, -0.4863 -0.13 0.3346, -0.2641 -0.0962 0.3346, -1.0433 -0.4921 0.3346, -0.4863 0.0969 0.3346, -0.2026 0.0969 0.3346, -0.1378 -0.6889 0.3346, -0.2735 0.0438 0.3346, -0.2735 -0.0769 0.3346, 1.3189 -0.4921 0.3346, 1.3189 -0.6889 0.3346, -1.0433 -0.6889 0.3346, -1.0433 0.4922 0.3346, 0.3127 -0.0528 0.3346, 0.308 -0.0721 0.3346, 0.2985 -0.0866 0.3346, 0.3127 0.0196 0.3346, 0.2654 0.0679 0.3346, 0.2843 0.0631 0.3346, 0.2843 -0.0962 0.3346, 0.2985 0.0534 0.3346, 0.308 0.039 0.3346, 0.2654 -0.1011 0.3346, 0.1803 -0.1011 0.3346, 0.1803 0.0679 0.3346, 0.4309 0.0196 0.3346, 0.516 0.0196 0.3346, 0.4734 -0.1107 0.3346, -1.0433 -1.496 0.7283, 1.0433 -1.7126 0.7283, 1.0433 -1.496 0.7283, 2.0476 -1.0544 0.7283, 1.8701 -1.496 0.7283, 2.4213 -1.7126 0.7283, 1.8701 -1.7126 0.7283, 2.0476 1.0545 0.7283, 1.0433 1.4961 0.7283, -1.0433 1.4961 0.7283, 1.8701 1.4961 0.7283, -1.0433 1.7126 0.7283, 2.4213 1.7126 0.7283, 1.8701 1.7126 0.7283, 1.0433 1.7126 0.7283, -1.8701 1.4961 0.7283, -1.8701 1.7126 0.7283, -2.4212 1.7126 0.7283, -2.2778 1.0545 0.7283, -2.2778 -1.0544 0.7283, -2.4212 -1.7126 0.7283, -1.8701 -1.7126 0.7283, -1.8701 -1.496 0.7283, -1.0433 -1.7126 0.7283
            ]
        }
        coordIndex [
            0,1,2,-1,3,4,5,-1,6,7,8,-1,9,10,11,-1,12,13,14,-1,15,16,17,-1,6,18,10,-1,10,9,19,-1,20,14,13,-1,21,22,23,-1,24,25,26,-1,27,28,29,-1,30,29,31,-1,32,31,33,-1,34,35,36,-1,27,30,37,-1,32,38,31,-1,39,40,41,-1,42,36,43,-1,12,14,44,-1,0,45,18,-1,46,47,48,-1,46,1,47,-1,0,49,43,-1,36,42,34,-1,49,42,43,-1,50,42,51,-1,52,45,44,-1,2,1,46,-1,25,53,26,-1,25,54,55,-1,25,55,53,-1,54,25,56,-1,25,36,56,-1,36,57,56,-1,36,58,57,-1,36,59,58,-1,36,60,59,-1,36,35,60,-1,61,42,50,-1,42,61,34,-1,2,46,25,-1,61,4,62,-1,61,63,4,-1,64,63,65,-1,61,50,66,-1,63,66,65,-1,61,66,63,-1,51,67,68,-1,69,70,71,-1,72,73,42,-1,3,74,4,-1,75,76,77,-1,24,2,25,-1,4,74,62,-1,62,74,78,-1,39,41,79,-1,80,81,82,-1,83,84,85,-1,86,87,81,-1,41,71,79,-1,70,88,71,-1,89,90,83,-1,69,71,41,-1,41,91,69,-1,87,82,81,-1,23,92,93,-1,76,94,95,-1,28,27,23,-1,77,96,75,-1,97,91,98,-1,99,100,101,-1,100,102,101,-1,101,98,103,-1,104,98,105,-1,101,102,98,-1,98,104,103,-1,98,102,97,-1,91,41,98,-1,106,98,41,-1,107,83,51,-1,51,108,106,-1,109,108,51,-1,51,68,110,-1,109,51,110,-1,67,111,68,-1,67,112,76,-1,95,67,76,-1,113,94,76,-1,112,114,115,-1,80,96,77,-1,81,116,86,-1,17,90,116,-1,83,17,2,-1,17,83,90,-1,83,85,89,-1,107,106,41,-1,51,106,107,-1,83,107,84,-1,117,114,67,-1,118,80,82,-1,17,116,81,-1,118,96,80,-1,76,75,119,-1,67,114,112,-1,119,113,76,-1,120,6,121,-1,14,9,11,-1,33,121,8,-1,6,8,121,-1,33,72,121,-1,0,120,49,-1,95,111,67,-1,42,49,72,-1,33,117,73,-1,72,33,73,-1,33,31,117,-1,67,51,42,-1,31,29,122,-1,22,92,23,-1,31,122,117,-1,117,122,114,-1,30,27,29,-1,28,23,93,-1,93,123,115,-1,11,10,18,-1,0,18,120,-1,18,6,120,-1,45,2,44,-1,45,0,2,-1,11,52,14,-1,2,78,83,-1,14,52,44,-1,78,2,62,-1,24,62,2,-1,17,81,115,-1,15,12,16,-1,44,16,12,-1,123,15,17,-1,22,12,92,-1,93,115,114,-1,17,115,123,-1,114,28,93,-1,12,15,92,-1,124,125,126,-1,127,128,129,-1,124,126,130,-1,127,131,132,-1,129,131,127,-1,127,124,128,-1,133,128,124,-1,134,135,133,-1,124,130,133,-1,133,135,128,-1,136,137,138,-1,139,140,141,-1,142,141,143,-1,144,143,145,-1,146,147,148,-1,149,147,146,-1,147,150,148,-1,151,152,149,-1,153,150,147,-1,154,155,156,-1,142,139,141,-1,157,146,148,-1,157,156,158,-1,154,157,148,-1,158,156,159,-1,159,160,161,-1,139,162,140,-1,158,139,142,-1,154,156,157,-1,144,151,146,-1,151,149,146,-1,143,144,142,-1,144,146,142,-1,159,161,158,-1,139,158,161,-1,
        ]
    }
}
Shape{
    appearance Appearance {
        material  Material 	{
            diffuseColor 0.6862745098039216 0.5333333333333333 0.43529411764705883
            specularColor 0.7529411764705882 0.7529411764705882 0.7529411764705882
            ambientIntensity 1.0
            transparency 1.0
            shininess 0.5
        }
    }
    geometry IndexedFaceSet {
        ccw TRUE
        solid FALSE
        coord DEF co Coordinate {
            point [
                -1.0433 -1.7126 0.7283, -1.0433 -1.496 0.3346, -1.0433 -1.7126 0.3346, -1.0433 -1.496 0.7283, -1.8701 -1.496 0.3346, -1.8701 -1.496 0.7283, -1.8701 -1.7126 0.3346, -1.8701 -1.7126 0.7283, 1.0433 -1.7126 0.3346, 1.0433 -1.7126 0.7283, -2.4212 -1.7126 0.7283, -2.4212 -1.7126 0.3346, 1.8701 -1.7126 0.7283, 2.4213 -1.7126 0.3346, 2.4213 -1.7126 0.7283, 1.8701 -1.7126 0.3346, -2.4212 1.7126 0.7283, -2.4212 1.7126 0.3346, -1.8701 1.7126 0.7283, -1.8701 1.7126 0.3346, 1.0433 1.7126 0.7283, 1.0433 1.7126 0.3346, -1.0433 1.7126 0.3346, -1.0433 1.7126 0.7283, 2.4213 1.7126 0.7283, 2.4213 1.7126 0.3346, 1.8701 1.7126 0.3346, 1.8701 1.7126 0.7283, -1.8701 1.4961 0.3346, -1.8701 1.4961 0.7283, -1.0433 1.4961 0.3346, -1.0433 1.4961 0.7283, 1.0433 1.4961 0.3346, 1.0433 1.4961 0.7283, 1.8701 1.4961 0.3346, 1.8701 1.4961 0.7283, 1.8701 -1.496 0.3346, 1.8701 -1.496 0.7283, 1.0433 -1.496 0.3346, 1.0433 -1.496 0.7283
            ]
        }
        coordIndex [
            0,1,2,-1,0,3,1,-1,3,4,1,-1,3,5,4,-1,5,6,4,-1,5,7,6,-1,0,8,9,-1,8,0,2,-1,10,11,6,-1,10,6,7,-1,12,13,14,-1,13,12,15,-1,11,10,16,-1,11,16,17,-1,18,17,16,-1,17,18,19,-1,20,21,22,-1,20,22,23,-1,24,25,26,-1,24,26,27,-1,18,28,19,-1,18,29,28,-1,29,30,28,-1,29,31,30,-1,31,22,30,-1,31,23,22,-1,20,32,21,-1,20,33,32,-1,33,34,32,-1,33,35,34,-1,35,26,34,-1,35,27,26,-1,25,24,14,-1,25,14,13,-1,12,36,15,-1,12,37,36,-1,37,38,36,-1,37,39,38,-1,39,8,38,-1,39,9,8,-1,
        ]
    }
}
Shape{
    appearance Appearance {
        material  Material 	{
            diffuseColor 0.8823529411764706 0.8823529411764706 0.8823529411764706
            specularColor 0.7529411764705882 0.7529411764705882 0.7529411764705882
            ambientIntensity 1.0
            transparency 1.0
            shininess 0.5
        }
    }
    geometry IndexedFaceSet {
        ccw TRUE
        solid FALSE
        coord DEF co Coordinate {
            point [
                -1.2598 0.689 -1.1811, -1.3189 0.689 -0.9055, -1.0433 0.689 -0.9055, -1.1024 0.689 -1.1811, -1.3189 0.689 0.3346, -1.0433 0.689 0.3346, -1.1024 0.4922 -1.1811, -1.0433 0.4922 -0.9055, -1.3189 0.4922 0.3346, -1.3189 0.4922 -0.9055, -1.0433 0.4922 0.3346, -1.2598 0.4922 -1.1811, -0.0787 0.689 -1.1811, -0.1378 0.689 -0.9055, 0.1378 0.689 -0.9055, 0.0788 0.689 -1.1811, -0.1378 0.689 0.3346, 0.1378 0.689 0.3346, 0.0788 0.4922 -1.1811, 0.1378 0.4922 -0.9055, -0.1378 0.4922 0.3346, -0.1378 0.4922 -0.9055, 0.1378 0.4922 0.3346, -0.0787 0.4922 -1.1811, 1.1024 0.689 -1.1811, 1.0433 0.689 -0.9055, 1.3189 0.689 -0.9055, 1.2599 0.689 -1.1811, 1.0433 0.689 0.3346, 1.3189 0.689 0.3346, 1.2599 0.4922 -1.1811, 1.3189 0.4922 -0.9055, 1.0433 0.4922 0.3346, 1.0433 0.4922 -0.9055, 1.3189 0.4922 0.3346, 1.1024 0.4922 -1.1811, -1.2598 -0.4921 -1.1811, -1.3189 -0.4921 -0.9055, -1.0433 -0.4921 -0.9055, -1.1024 -0.4921 -1.1811, -1.3189 -0.4921 0.3346, -1.0433 -0.4921 0.3346, -1.1024 -0.6889 -1.1811, -1.0433 -0.6889 -0.9055, -1.3189 -0.6889 0.3346, -1.3189 -0.6889 -0.9055, -1.0433 -0.6889 0.3346, -1.2598 -0.6889 -1.1811, -0.0787 -0.4921 -1.1811, -0.1378 -0.4921 -0.9055, 0.1378 -0.4921 -0.9055, 0.0788 -0.4921 -1.1811, -0.1378 -0.4921 0.3346, 0.1378 -0.4921 0.3346, 0.0788 -0.6889 -1.1811, 0.1378 -0.6889 -0.9055, -0.1378 -0.6889 0.3346, -0.1378 -0.6889 -0.9055, 0.1378 -0.6889 0.3346, -0.0787 -0.6889 -1.1811, 1.1024 -0.4921 -1.1811, 1.0433 -0.4921 -0.9055, 1.3189 -0.4921 -0.9055, 1.2599 -0.4921 -1.1811, 1.0433 -0.4921 0.3346, 1.3189 -0.4921 0.3346, 1.2599 -0.6889 -1.1811, 1.3189 -0.6889 -0.9055, 1.0433 -0.6889 0.3346, 1.0433 -0.6889 -0.9055, 1.3189 -0.6889 0.3346, 1.1024 -0.6889 -1.1811, 1.8357 1.678 0.0901, 1.4472 1.678 0.0901, 1.4472 1.7036 0.1285, 1.4472 1.7126 0.1736, 1.8357 1.7036 0.1285, 1.8357 1.7126 0.1736, 1.8357 1.6397 0.0645, 1.4472 1.6397 0.0645, 1.8357 1.5945 0.0555, 1.4472 1.5945 0.0555, 1.4472 1.2232 0.0555, 1.4472 1.5158 0.2524, 1.4472 1.2232 0.2524, 1.4472 1.5158 0.3913, 1.4472 1.7126 0.3913, -1.4472 1.7126 0.3913, -1.0563 1.7126 0.748, -1.0563 1.7126 0.3913, 1.0563 1.7126 0.748, 2.4213 1.7126 2.126, 1.8357 1.7126 0.748, -1.4472 1.7126 0.1736, -1.8357 1.7126 0.1736, 1.0563 1.7126 0.3913, -2.4212 1.7126 2.126, 2.4213 1.7126 0.748, -1.8357 1.7126 0.748, -2.4212 1.7126 0.748, 1.8357 1.5158 0.748, 1.8357 1.5158 0.2524, 1.8357 1.2232 0.2524, 1.8357 1.2232 0.0555, 1.8011 1.1397 0.0555, 1.7628 1.1141 0.0555, 1.7176 1.1051 0.0555, 1.8267 1.178 0.0555, 1.5653 1.1051 0.0555, 1.5201 1.1141 0.0555, 1.4818 1.1397 0.0555, 1.4562 1.178 0.0555, 1.4818 1.1397 0.2524, 1.4562 1.178 0.2524, 1.5201 1.1141 0.2524, 1.5653 1.1051 0.2524, 1.8011 1.1397 0.2524, 1.8267 1.178 0.2524, 1.7176 1.1051 0.2524, 1.7628 1.1141 0.2524, 2.4213 1.5158 0.748, 2.4213 1.5158 2.126, -1.8357 1.5158 0.748, -1.0563 1.5158 0.748, -2.4212 1.5158 2.126, -1.8357 1.5158 0.2524, -1.4472 1.5158 0.2524, -1.4472 1.5158 0.3913, -2.4212 1.5158 0.748, -1.0563 1.5158 0.3913, 1.0563 1.5158 0.3913, 1.0563 1.5158 0.748, -1.8357 1.5945 0.0555, -1.8357 1.2232 0.0555, -1.8357 1.6397 0.0645, -1.8357 1.2232 0.2524, -1.8357 1.678 0.0901, -1.8357 1.7036 0.1285, -1.4472 1.678 0.0901, -1.4472 1.7036 0.1285, -1.4472 1.6397 0.0645, -1.4472 1.5945 0.0555, -1.8011 1.1397 0.0555, -1.8267 1.178 0.0555, -1.7628 1.1141 0.0555, -1.7176 1.1051 0.0555, -1.5653 1.1051 0.0555, -1.5201 1.1141 0.0555, -1.4472 1.2232 0.0555, -1.4818 1.1397 0.0555, -1.4562 1.178 0.0555, -1.8011 1.1397 0.2524, -1.7628 1.1141 0.2524, -1.7176 1.1051 0.2524, -1.8267 1.178 0.2524, -1.4472 1.2232 0.2524, -1.4818 1.1397 0.2524, -1.4562 1.178 0.2524, -1.5653 1.1051 0.2524, -1.5201 1.1141 0.2524, -2.4212 1.4961 2.1601, -2.4212 1.4764 2.3622, -2.4212 1.5105 2.1457, -2.4212 1.6675 2.2648, -2.4212 1.6153 2.3171, -2.4212 1.7011 2.199, -2.4212 1.5494 2.3506, -2.4212 1.4764 2.1654, -2.4212 -1.5157 0.748, -2.4212 -1.6152 2.3171, -2.4212 -1.5157 2.126, -2.4212 -1.7126 0.748, -2.4212 -1.4763 2.3622, -2.4212 -1.5104 2.1457, -2.4212 -1.5493 2.3506, -2.4212 -1.496 2.1601, -2.4212 -1.4763 2.1654, -2.4212 -1.7126 2.126, -2.4212 -1.6674 2.2648, -2.4212 -1.701 2.199, -2.5984 1.4764 2.2781, -2.6378 1.4764 2.1575, -2.6277 1.4764 2.2209, -2.6378 1.4764 0.0, -2.5529 1.4764 2.3234, -2.4409 1.4764 0.0, -2.496 1.4764 2.3523, -2.4386 1.4764 2.163, -2.4409 1.4764 2.1575, -2.4331 1.4764 2.3624, -2.4331 1.4764 2.1654, 1.2795 -0.6299 2.3622, -0.4842 -1.4763 2.3622, 0.4843 -1.4763 2.3622, -2.4331 -1.4763 2.3624, -1.2795 -0.6299 2.3622, -1.4527 -1.4763 2.3622, -1.2795 0.63 2.3622, -0.8071 1.4764 2.3622, 0.8071 1.4764 2.3622, 2.4213 -1.4763 2.3622, 1.4528 -1.4763 2.3622, 2.4331 -1.4763 2.3624, 2.4331 1.4764 2.3624, 1.2795 0.63 2.3622, 2.4213 1.4764 2.3622, -1.2795 0.63 2.1654, 1.2795 0.63 2.1654, -0.4842 1.4764 2.1654, -1.4527 1.4764 2.1654, -1.2795 -0.6299 2.1654, 1.4528 1.4764 2.1654, 0.4843 1.4764 2.1654, 2.4331 1.4764 2.1654, 2.4213 1.4764 2.1654, 2.4331 -1.4763 2.1654, 2.4213 -1.4763 2.1654, 1.2795 -0.6299 2.1654, 0.8071 -1.4763 2.1654, -0.8071 -1.4763 2.1654, -2.4331 -1.4763 2.1654, 2.4213 -1.496 2.1601, 2.4213 -1.5104 2.1457, 2.4213 -1.5157 2.126, 2.4213 1.6153 2.3171, 2.4213 1.6675 2.2648, 2.4213 1.7011 2.199, 2.4213 1.5494 2.3506, 2.4213 1.5105 2.1457, 2.4213 1.4961 2.1601, 2.4213 -1.6674 2.2648, 2.4213 -1.701 2.199, 2.4213 -1.7126 2.126, 2.4213 -1.7126 0.748, 2.4213 -1.6152 2.3171, 2.4213 -1.5157 0.748, 2.4213 -1.5493 2.3506, 2.5529 1.4764 2.3234, 2.6378 1.4764 0.0, 2.441 1.4764 0.0, 2.496 1.4764 2.3523, 2.441 1.4764 2.1575, 2.5985 1.4764 2.2781, 2.6378 1.4764 2.1575, 2.6277 1.4764 2.2209, 2.4386 1.4764 2.163, 2.4386 -1.4763 2.163, 2.441 -1.4763 2.1575, 2.5985 -1.4763 2.2781, 2.6378 -1.4763 2.1575, 2.6277 -1.4763 2.2209, 2.6378 -1.4763 0.0, 2.5529 -1.4763 2.3234, 2.441 -1.4763 0.0, 2.496 -1.4763 2.3523, 2.6378 0.3937 0.0, 2.6378 -0.3937 0.0, 2.6378 0.3288 -0.9542, 2.6378 0.3637 -0.9193, 2.6378 0.3937 -0.8268, 2.6378 0.2849 -0.9765, 2.6378 0.386 -0.8754, 2.6378 -0.3937 -0.8268, 2.6378 -0.2362 -0.9842, 2.6378 0.2363 -0.9842, 2.6378 -0.2848 -0.9765, 2.6378 -0.386 -0.8754, 2.6378 -0.3636 -0.9193, 2.6378 -0.3287 -0.9542, 2.441 -0.3287 -0.9542, 2.441 -0.3636 -0.9193, 2.441 -0.386 -0.8754, 2.441 -0.3937 -0.8268, 2.441 -0.2848 -0.9765, 2.441 -0.2362 -0.9842, 2.441 0.2363 -0.9842, 2.441 0.3637 -0.9193, 2.441 0.3288 -0.9542, 2.441 0.2849 -0.9765, 2.441 0.386 -0.8754, 2.441 0.3937 -0.8268, 2.441 0.3937 0.0, 2.441 -0.3937 0.0, -1.4472 -1.5157 0.3913, -1.0563 -1.5157 0.748, -1.0563 -1.5157 0.3913, 1.0563 -1.5157 0.748, 1.8357 -1.5157 0.748, -1.4472 -1.5157 0.2524, -1.8357 -1.5157 0.2524, 1.4472 -1.5157 0.3913, 1.0563 -1.5157 0.3913, -1.8357 -1.5157 0.748, 1.4472 -1.5157 0.2524, 1.8357 -1.5157 0.2524, 1.4472 -1.2232 0.2524, 1.4818 -1.1396 0.2524, 1.4562 -1.178 0.2524, 1.8357 -1.2232 0.2524, 1.5653 -1.105 0.2524, 1.5201 -1.114 0.2524, 1.8011 -1.1396 0.2524, 1.8267 -1.178 0.2524, 1.7176 -1.105 0.2524, 1.7628 -1.114 0.2524, 1.8011 -1.1396 0.0555, 1.7628 -1.114 0.0555, 1.7176 -1.105 0.0555, 1.8267 -1.178 0.0555, 1.8357 -1.2232 0.0555, 1.5653 -1.105 0.0555, 1.5201 -1.114 0.0555, 1.4472 -1.2232 0.0555, 1.4818 -1.1396 0.0555, 1.4562 -1.178 0.0555, 1.4472 -1.5944 0.0555, 1.8357 -1.5944 0.0555, 1.4472 -1.678 0.0901, 1.8357 -1.678 0.0901, 1.8357 -1.7036 0.1285, 1.8357 -1.7126 0.1736, 1.4472 -1.7036 0.1285, 1.4472 -1.7126 0.1736, 1.4472 -1.6396 0.0645, 1.8357 -1.6396 0.0645, 1.8357 -1.7126 0.748, -1.8357 -1.7126 0.748, -1.0563 -1.7126 0.748, -1.8357 -1.7126 0.1736, -1.4472 -1.7126 0.1736, -1.4472 -1.7126 0.3913, -1.0563 -1.7126 0.3913, 1.0563 -1.7126 0.3913, 1.4472 -1.7126 0.3913, 1.0563 -1.7126 0.748, -1.8357 -1.5944 0.0555, -1.8357 -1.6396 0.0645, -1.8357 -1.2232 0.2524, -1.8357 -1.2232 0.0555, -1.8357 -1.678 0.0901, -1.8357 -1.7036 0.1285, -1.4472 -1.678 0.0901, -1.4472 -1.7036 0.1285, -1.4472 -1.6396 0.0645, -1.4472 -1.5944 0.0555, -1.4472 -1.2232 0.0555, -1.4472 -1.2232 0.2524, -1.4562 -1.178 0.2524, -1.4818 -1.1396 0.2524, -1.5201 -1.114 0.2524, -1.5653 -1.105 0.2524, -1.8011 -1.1396 0.2524, -1.8267 -1.178 0.2524, -1.7176 -1.105 0.2524, -1.7628 -1.114 0.2524, -1.8011 -1.1396 0.0555, -1.7628 -1.114 0.0555, -1.7176 -1.105 0.0555, -1.8267 -1.178 0.0555, -1.5653 -1.105 0.0555, -1.5201 -1.114 0.0555, -1.4818 -1.1396 0.0555, -1.4562 -1.178 0.0555, -2.4386 -1.4763 2.163, -2.4409 -1.4763 2.1575, -2.4409 -0.3937 0.0, -2.4409 -0.3937 -0.8268, -2.4409 0.3937 0.0, -2.4409 -0.386 -0.8754, -2.4409 -0.3636 -0.9193, -2.4409 -1.4763 0.0, -2.4409 -0.2848 -0.9765, -2.4409 -0.3287 -0.9542, -2.4409 -0.2362 -0.9842, -2.4409 0.3937 -0.8268, -2.4409 0.2363 -0.9842, -2.4409 0.2849 -0.9765, -2.4409 0.3637 -0.9193, -2.4409 0.3288 -0.9542, -2.4409 0.386 -0.8754, -2.6378 0.3937 0.0, -2.6378 0.3937 -0.8268, -2.6378 0.3637 -0.9193, -2.6378 0.386 -0.8754, -2.6378 0.2363 -0.9842, -2.6378 -0.2362 -0.9842, -2.6378 -0.3937 -0.8268, -2.6378 0.3288 -0.9542, -2.6378 0.2849 -0.9765, -2.6378 -0.3636 -0.9193, -2.6378 -0.386 -0.8754, -2.6378 -0.2848 -0.9765, -2.6378 -0.3287 -0.9542, -2.6378 -0.3937 0.0, -2.6378 -1.4763 0.0, -2.6378 -1.4763 2.1575, -2.5984 -1.4763 2.2781, -2.6277 -1.4763 2.2209, -2.5529 -1.4763 2.3234, -2.496 -1.4763 2.3523
            ]
        }
        coordIndex [
            0,1,2,-1,2,3,0,-1,4,5,1,-1,5,2,1,-1,6,2,7,-1,2,6,3,-1,7,8,9,-1,8,7,10,-1,9,11,6,-1,9,6,7,-1,11,0,3,-1,11,3,6,-1,0,9,1,-1,9,0,11,-1,9,4,1,-1,4,9,8,-1,2,10,7,-1,10,2,5,-1,12,13,14,-1,14,15,12,-1,16,17,13,-1,17,14,13,-1,18,14,19,-1,14,18,15,-1,19,20,21,-1,20,19,22,-1,21,23,18,-1,21,18,19,-1,23,12,15,-1,23,15,18,-1,12,21,13,-1,21,12,23,-1,21,16,13,-1,16,21,20,-1,14,22,19,-1,22,14,17,-1,24,25,26,-1,26,27,24,-1,28,29,25,-1,29,26,25,-1,30,26,31,-1,26,30,27,-1,31,32,33,-1,32,31,34,-1,33,35,30,-1,33,30,31,-1,35,24,27,-1,35,27,30,-1,24,33,25,-1,33,24,35,-1,33,28,25,-1,28,33,32,-1,26,34,31,-1,34,26,29,-1,36,37,38,-1,38,39,36,-1,40,41,37,-1,41,38,37,-1,42,38,43,-1,38,42,39,-1,43,44,45,-1,44,43,46,-1,45,47,42,-1,45,42,43,-1,47,36,39,-1,47,39,42,-1,36,45,37,-1,45,36,47,-1,45,40,37,-1,40,45,44,-1,38,46,43,-1,46,38,41,-1,48,49,50,-1,50,51,48,-1,52,53,49,-1,53,50,49,-1,54,50,55,-1,50,54,51,-1,55,56,57,-1,56,55,58,-1,57,59,54,-1,57,54,55,-1,59,48,51,-1,59,51,54,-1,48,57,49,-1,57,48,59,-1,57,52,49,-1,52,57,56,-1,50,58,55,-1,58,50,53,-1,60,61,62,-1,62,63,60,-1,64,65,61,-1,65,62,61,-1,66,62,67,-1,62,66,63,-1,67,68,69,-1,68,67,70,-1,69,71,66,-1,69,66,67,-1,71,60,63,-1,71,63,66,-1,60,69,61,-1,69,60,71,-1,69,64,61,-1,64,69,68,-1,62,70,67,-1,70,62,65,-1,72,73,74,-1,75,76,74,-1,72,74,76,-1,77,76,75,-1,78,73,72,-1,79,78,80,-1,78,79,73,-1,79,80,81,-1,82,83,81,-1,83,82,84,-1,85,86,83,-1,75,83,86,-1,81,83,74,-1,75,74,83,-1,79,81,73,-1,81,74,73,-1,87,88,89,-1,90,91,92,-1,87,93,94,-1,90,86,95,-1,90,96,91,-1,91,97,92,-1,98,99,96,-1,94,98,87,-1,98,88,87,-1,88,98,96,-1,88,96,90,-1,75,86,77,-1,77,86,92,-1,86,90,92,-1,92,100,101,-1,80,78,101,-1,92,101,77,-1,101,102,103,-1,103,80,101,-1,72,77,78,-1,101,78,77,-1,77,72,76,-1,104,105,103,-1,103,105,106,-1,103,107,104,-1,108,103,106,-1,82,103,108,-1,109,110,82,-1,111,82,110,-1,82,80,103,-1,108,109,82,-1,82,81,80,-1,110,112,113,-1,84,111,113,-1,110,113,111,-1,82,111,84,-1,109,112,110,-1,114,109,108,-1,109,114,112,-1,114,108,115,-1,84,113,112,-1,84,101,83,-1,114,115,84,-1,114,84,112,-1,101,84,102,-1,116,117,102,-1,84,115,102,-1,102,118,119,-1,116,102,119,-1,115,118,102,-1,104,116,119,-1,118,105,119,-1,104,119,105,-1,106,105,118,-1,107,116,104,-1,117,107,103,-1,107,117,116,-1,117,103,102,-1,106,115,108,-1,115,106,118,-1,100,120,121,-1,122,123,124,-1,125,126,127,-1,127,123,122,-1,124,128,122,-1,122,125,127,-1,127,129,123,-1,130,85,131,-1,124,123,121,-1,100,121,131,-1,121,123,131,-1,101,100,85,-1,131,85,100,-1,85,83,101,-1,86,130,95,-1,130,86,85,-1,95,131,90,-1,131,95,130,-1,122,99,98,-1,99,122,128,-1,92,97,120,-1,92,120,100,-1,131,88,90,-1,88,131,123,-1,125,122,98,-1,125,132,133,-1,125,134,132,-1,125,133,135,-1,136,94,137,-1,136,134,94,-1,125,94,134,-1,125,98,94,-1,138,136,137,-1,94,139,137,-1,138,137,139,-1,93,139,94,-1,140,136,138,-1,134,140,141,-1,140,134,136,-1,134,141,132,-1,133,142,143,-1,144,142,133,-1,144,133,145,-1,145,133,146,-1,147,148,149,-1,150,149,148,-1,146,133,148,-1,146,148,147,-1,141,148,132,-1,148,133,132,-1,151,142,144,-1,145,152,144,-1,151,144,152,-1,153,152,145,-1,154,142,151,-1,143,154,135,-1,154,143,142,-1,143,135,133,-1,155,156,157,-1,125,135,155,-1,155,158,159,-1,156,155,159,-1,135,158,155,-1,126,125,155,-1,151,135,154,-1,135,153,158,-1,153,135,152,-1,151,152,135,-1,126,155,148,-1,126,139,93,-1,87,127,126,-1,93,87,126,-1,139,141,138,-1,141,140,138,-1,126,141,139,-1,126,148,141,-1,156,149,150,-1,148,157,150,-1,156,150,157,-1,155,157,148,-1,159,149,156,-1,147,159,158,-1,159,147,149,-1,147,158,146,-1,158,145,146,-1,158,153,145,-1,87,89,129,-1,129,127,87,-1,89,88,123,-1,123,129,89,-1,160,161,162,-1,99,163,96,-1,164,163,99,-1,128,164,99,-1,96,163,165,-1,166,164,124,-1,128,124,164,-1,161,166,162,-1,161,160,167,-1,124,162,166,-1,168,169,170,-1,169,168,171,-1,172,173,174,-1,175,172,176,-1,175,173,172,-1,174,173,170,-1,174,170,169,-1,177,178,171,-1,171,178,169,-1,177,179,178,-1,180,181,182,-1,180,183,181,-1,183,184,185,-1,184,183,180,-1,185,184,186,-1,187,188,189,-1,189,188,186,-1,186,188,185,-1,187,189,190,-1,190,189,167,-1,167,189,161,-1,191,192,193,-1,194,172,195,-1,172,196,195,-1,194,197,189,-1,192,195,196,-1,198,197,199,-1,200,191,201,-1,191,202,203,-1,191,200,202,-1,204,191,203,-1,203,205,204,-1,198,161,197,-1,161,189,197,-1,205,199,204,-1,204,199,197,-1,193,201,191,-1,191,195,192,-1,195,197,194,-1,204,206,207,-1,204,197,206,-1,206,208,207,-1,206,190,167,-1,206,167,209,-1,206,210,190,-1,206,209,208,-1,211,207,212,-1,207,208,212,-1,213,207,214,-1,214,207,211,-1,215,207,213,-1,216,217,215,-1,217,207,215,-1,210,218,219,-1,190,210,220,-1,219,176,210,-1,220,210,176,-1,216,218,217,-1,210,217,218,-1,191,207,217,-1,191,204,207,-1,195,217,210,-1,195,191,217,-1,197,210,206,-1,197,195,210,-1,221,175,218,-1,175,176,219,-1,219,218,175,-1,170,222,223,-1,173,221,222,-1,175,221,173,-1,170,173,222,-1,218,216,221,-1,224,121,120,-1,224,120,97,-1,97,91,225,-1,91,226,225,-1,97,225,224,-1,227,228,121,-1,121,224,227,-1,228,205,229,-1,205,228,227,-1,229,205,214,-1,230,231,232,-1,230,233,234,-1,233,230,232,-1,233,235,234,-1,234,235,223,-1,236,223,222,-1,234,223,236,-1,221,200,222,-1,236,222,200,-1,221,216,200,-1,237,238,239,-1,214,205,203,-1,240,241,203,-1,242,243,238,-1,242,244,243,-1,237,239,240,-1,242,238,237,-1,240,239,241,-1,203,241,245,-1,214,203,213,-1,203,245,213,-1,246,215,213,-1,247,245,241,-1,245,246,213,-1,247,246,245,-1,248,249,250,-1,248,251,249,-1,251,252,253,-1,252,251,248,-1,253,252,254,-1,246,247,202,-1,202,247,254,-1,254,247,253,-1,246,202,215,-1,215,202,216,-1,216,202,200,-1,248,237,252,-1,254,252,240,-1,237,240,252,-1,203,202,254,-1,254,240,203,-1,237,248,242,-1,242,250,244,-1,250,242,248,-1,250,249,244,-1,244,249,243,-1,249,255,243,-1,256,249,251,-1,249,256,255,-1,257,258,259,-1,243,255,238,-1,255,256,259,-1,259,260,257,-1,261,259,258,-1,262,263,264,-1,259,264,260,-1,265,263,262,-1,262,266,267,-1,262,267,268,-1,259,262,264,-1,265,262,268,-1,259,256,262,-1,269,267,270,-1,271,270,266,-1,267,266,270,-1,262,272,271,-1,271,266,262,-1,267,269,268,-1,268,273,265,-1,273,268,269,-1,273,274,265,-1,265,274,263,-1,264,263,274,-1,274,275,264,-1,276,257,277,-1,278,277,260,-1,257,260,277,-1,264,275,278,-1,278,260,264,-1,257,276,258,-1,258,279,261,-1,279,258,276,-1,279,280,261,-1,261,280,259,-1,255,259,280,-1,280,281,255,-1,255,281,239,-1,239,238,255,-1,251,282,256,-1,251,253,282,-1,282,253,247,-1,275,280,278,-1,241,239,281,-1,241,282,247,-1,281,272,282,-1,282,241,281,-1,272,270,271,-1,272,281,280,-1,269,270,272,-1,272,274,273,-1,269,272,273,-1,272,280,274,-1,278,280,277,-1,280,275,274,-1,280,276,277,-1,280,279,276,-1,282,262,256,-1,282,272,262,-1,164,225,163,-1,165,163,226,-1,225,226,163,-1,91,96,165,-1,165,226,91,-1,225,164,224,-1,224,166,227,-1,166,224,164,-1,161,198,166,-1,227,199,205,-1,166,198,227,-1,227,198,199,-1,162,124,121,-1,160,209,167,-1,160,228,229,-1,212,208,229,-1,208,209,160,-1,214,211,229,-1,229,211,212,-1,162,228,160,-1,160,229,208,-1,121,228,162,-1,283,284,285,-1,286,223,287,-1,283,288,289,-1,286,290,291,-1,286,170,223,-1,223,235,287,-1,170,284,292,-1,289,292,283,-1,292,284,283,-1,292,168,170,-1,286,284,170,-1,293,290,294,-1,294,290,287,-1,290,286,287,-1,295,296,297,-1,294,298,295,-1,295,299,300,-1,296,295,300,-1,298,299,295,-1,293,294,295,-1,301,298,302,-1,298,303,299,-1,303,298,304,-1,301,304,298,-1,301,305,306,-1,307,304,306,-1,301,306,304,-1,303,304,307,-1,302,305,301,-1,308,302,298,-1,302,308,305,-1,308,298,309,-1,309,305,308,-1,306,305,309,-1,306,309,307,-1,307,309,310,-1,311,312,313,-1,314,313,312,-1,310,309,312,-1,310,312,311,-1,315,312,316,-1,312,309,316,-1,317,318,319,-1,320,321,319,-1,317,319,321,-1,322,321,320,-1,323,318,317,-1,324,323,315,-1,323,324,318,-1,324,315,316,-1,294,287,325,-1,294,316,309,-1,294,324,316,-1,294,309,298,-1,318,320,319,-1,318,324,320,-1,294,320,324,-1,294,325,320,-1,325,233,232,-1,326,327,177,-1,328,329,330,-1,327,232,177,-1,177,171,326,-1,326,328,330,-1,330,331,327,-1,332,333,334,-1,330,327,326,-1,325,232,334,-1,232,327,334,-1,320,325,333,-1,334,333,325,-1,333,322,320,-1,293,295,312,-1,293,321,322,-1,333,290,293,-1,322,333,293,-1,321,315,317,-1,315,323,317,-1,293,315,321,-1,293,312,315,-1,296,313,314,-1,312,297,314,-1,296,314,297,-1,295,297,312,-1,300,313,296,-1,311,300,299,-1,300,311,313,-1,311,299,310,-1,299,307,310,-1,299,303,307,-1,333,332,291,-1,291,290,333,-1,332,334,286,-1,286,291,332,-1,326,168,292,-1,168,326,171,-1,287,235,233,-1,287,233,325,-1,334,284,286,-1,284,334,327,-1,326,292,289,-1,335,336,289,-1,326,289,328,-1,289,337,338,-1,338,335,289,-1,339,328,336,-1,289,336,328,-1,328,339,340,-1,339,341,342,-1,329,340,342,-1,339,342,340,-1,328,340,329,-1,336,341,339,-1,343,336,335,-1,336,343,341,-1,343,335,344,-1,345,288,344,-1,288,345,346,-1,283,330,288,-1,329,288,330,-1,344,288,342,-1,329,342,288,-1,343,344,341,-1,344,342,341,-1,330,285,331,-1,285,330,283,-1,331,285,284,-1,331,284,327,-1,346,347,348,-1,346,289,288,-1,349,350,346,-1,349,346,348,-1,289,346,337,-1,351,352,337,-1,346,350,337,-1,337,353,354,-1,351,337,354,-1,350,353,337,-1,355,351,354,-1,353,356,354,-1,355,354,356,-1,357,356,353,-1,358,351,355,-1,352,358,338,-1,358,352,351,-1,352,338,337,-1,355,356,338,-1,338,356,357,-1,338,358,355,-1,359,338,357,-1,345,338,359,-1,360,361,345,-1,362,345,361,-1,345,335,338,-1,359,360,345,-1,345,344,335,-1,361,348,347,-1,346,362,347,-1,361,347,362,-1,345,362,346,-1,360,348,361,-1,349,360,359,-1,360,349,348,-1,349,359,350,-1,357,350,359,-1,350,357,353,-1,196,172,174,-1,192,174,193,-1,192,196,174,-1,236,200,201,-1,201,193,236,-1,174,169,236,-1,236,193,174,-1,234,169,178,-1,169,234,236,-1,230,234,178,-1,230,179,231,-1,179,230,178,-1,179,177,231,-1,231,177,232,-1,220,187,190,-1,188,363,364,-1,363,188,187,-1,220,363,187,-1,365,366,367,-1,188,367,185,-1,366,368,369,-1,188,364,365,-1,188,365,367,-1,364,370,365,-1,371,366,372,-1,372,366,369,-1,373,366,371,-1,374,373,375,-1,375,376,374,-1,377,374,378,-1,379,374,377,-1,376,378,374,-1,367,366,374,-1,373,374,366,-1,380,374,381,-1,374,380,367,-1,382,381,383,-1,384,385,386,-1,381,387,388,-1,382,387,381,-1,388,384,381,-1,389,390,386,-1,391,392,386,-1,386,392,389,-1,386,381,384,-1,385,391,386,-1,393,394,395,-1,386,393,381,-1,181,380,395,-1,183,380,181,-1,381,393,380,-1,380,393,395,-1,380,185,367,-1,185,380,183,-1,365,370,394,-1,365,394,393,-1,386,365,393,-1,365,386,366,-1,392,369,389,-1,390,389,368,-1,369,368,389,-1,366,386,390,-1,390,368,366,-1,369,392,372,-1,372,391,371,-1,391,372,392,-1,391,385,371,-1,371,385,373,-1,384,375,373,-1,384,373,385,-1,382,378,387,-1,388,387,376,-1,378,376,387,-1,375,384,388,-1,388,376,375,-1,378,382,377,-1,377,383,379,-1,383,377,382,-1,383,381,379,-1,379,381,374,-1,396,397,395,-1,396,395,394,-1,394,370,398,-1,398,396,394,-1,370,399,398,-1,363,194,364,-1,194,399,364,-1,399,370,364,-1,363,220,194,-1,220,176,194,-1,176,172,194,-1,396,398,180,-1,182,397,396,-1,396,180,182,-1,181,397,182,-1,181,395,397,-1,180,398,184,-1,184,399,186,-1,399,184,398,-1,399,194,186,-1,186,194,189,-1,
        ]
    }
}